<svg xmlns="http://www.w3.org/2000/svg" width="16" height="16" viewBox="0 0 16 16">
  <defs>
    <style>
      .i-color {
        fill: #000;
        fill-rule: evenodd;
      }
    </style>
  </defs>
  <path id="file_type_blade.svg" class="i-color" d="M15.933,7.142c-0.106-.119-1.571-1.96-1.829-2.273a0.456,0.456,0,0,0-.543-0.233c-0.159.023-2.013,0.336-2.228,0.372s-0.351.123-.219,0.309c0.117,0.165,1.336,1.9,1.605,2.281L7.875,8.764,4.021,2.3a0.457,0.457,0,0,0-.534-0.292C3.138,2.022.464,2.244,0.274,2.261s-0.4.1-.209,0.552,3.227,7.018,3.311,7.209a0.65,0.65,0,0,0,.82.377c0.528-.127,2.359-0.607,3.359-0.87,0.528,0.961,1.607,2.909,1.806,3.189,0.266,0.373.449,0.311,0.858,0.187,0.319-.1,4.992-1.784,5.2-1.87s0.34-.149.2-0.361c-0.1-.155-1.337-1.813-1.983-2.68l2.182-.584c0.2-.053.222-0.149,0.116-0.269h0ZM7.124,8.95c-0.058.012-2.772,0.665-2.917,0.7s-0.145.016-.161-0.033S0.819,2.92.775,2.837s-0.042-.149,0-0.149,2.563-.227,2.652-0.231,0.08,0.014.112,0.071L7.157,8.8C7.22,8.9,7.182,8.937,7.124,8.949h0Zm7.652,1.439c0.043,0.068.086,0.112-.05,0.161s-4.593,1.559-4.68,1.6-0.155.05-.266-0.112-1.561-2.68-1.561-2.68L12.943,8.12c0.117-.037.155-0.062,0.229,0.056s1.56,2.143,1.6,2.212h0Zm0.3-3.366c-0.106.023-1.841,0.455-1.841,0.455L11.819,5.524c-0.04-.056-0.073-0.113.026-0.126s1.711-.306,1.784-0.322a0.175,0.175,0,0,1,.225.087C13.943,5.285,15.17,6.843,15.216,6.9s-0.033.1-.139,0.119h0Z" transform="translate(0 0)"/>
</svg>
