<svg xmlns="http://www.w3.org/2000/svg" width="16" height="16" viewBox="0 0 16 16">
  <defs>
    <style>
      .i-color {
        fill: #000;
        fill-rule: evenodd;
      }
    </style>
  </defs>
  <path id="file_type_bower.svg" class="i-color" d="M8.606,10.214v0C8.539,10.075,8.468,9.9,8.382,9.679c0.333,0.472,1.376.229,1.321-.195,0.511,0.375,1.562-.062,1.323-0.588,0.511,0.232,1.1-.235.964-0.439,0.872,0.164,1.708.327,1.97,0.393a1.031,1.031,0,0,1-1.17.337c0.323,0.429-.3.945-1.179,0.661,0.192,0.422-.586.8-1.471,0.362C10.153,10.631,9.045,10.68,8.606,10.214Zm1.73-2.132c1.012,0.076,2.686.223,3.722,0.364-0.065-.329-0.244-0.423-0.807-0.57C12.646,7.939,11.112,8.086,10.336,8.082Zm4.408-.216c-0.721-.675-4.324-1.1-5.461-1.219a3.2,3.2,0,0,0,.141-0.393,4.627,4.627,0,0,1,.5-0.179c0.021,0.061.12,0.293,0.177,0.4a2.183,2.183,0,0,0,2.5-2.127,2.629,2.629,0,0,1,.871-1.718,3.227,3.227,0,0,0-3.412,1.775,3.581,3.581,0,0,0-.633-0.17A3.051,3.051,0,0,0,6.433,2,5.509,5.509,0,0,0,1,7.63c0,2.975,2.083,5.583,3.26,5.583a1.158,1.158,0,0,0,1.06-.712c0.087,0.231.354,0.948,0.442,1.13a0.714,0.714,0,0,0,.991.223,0.983,0.983,0,0,0,1.294-.194,0.959,0.959,0,0,0,1.237-.694,0.63,0.63,0,0,0,.406-0.8,8.468,8.468,0,0,0-.813-1.491c0.423,0.336,1.5.431,1.626,0,0.683,0.522,1.746.248,1.83-.177,0.829,0.21,1.78-.251,1.624-0.81A1.091,1.091,0,0,0,14.744,7.866ZM8.922,4.552a3.778,3.778,0,0,1,2.353,1.024,3.44,3.44,0,0,0-1.108-.219,3.74,3.74,0,0,1-1.591.187,1.32,1.32,0,0,0,1.239.02c0,0.052.009,0.1,0.017,0.155A4.8,4.8,0,0,0,8.711,6.2,1.574,1.574,0,0,1,8.922,4.552ZM6.416,3.894A1.191,1.191,0,1,1,5.2,5.084,1.206,1.206,0,0,1,6.416,3.894Zm3.92,4.189c-0.308-.023-0.555-0.04-0.7-0.047,0.245,0.034,1.327.229,2.358,0.422,0.131,0.2-.453.671-0.964,0.439,0.239,0.525-.812.962-1.323,0.588,0.055,0.423-.989.667-1.321,0.195,0.086,0.225.238,0.572,0.277,0.677a2.167,2.167,0,0,1-2.205,2.062,4.876,4.876,0,0,1-4.46-2.884A2.593,2.593,0,0,0,4.4,9.483a4,4,0,0,0,1.191.2A3.365,3.365,0,0,0,8.5,7.6a1.952,1.952,0,0,0,.387-0.41,30.075,30.075,0,0,1,4.361.683C12.647,7.939,11.112,8.086,10.336,8.082Zm-4.651-3a0.731,0.731,0,1,0,.731-0.713A0.722,0.722,0,0,0,5.685,5.084ZM6.416,4.51a0.375,0.375,0,0,1,.426.258,0.375,0.375,0,0,1-.426.258A0.375,0.375,0,0,1,5.99,4.768,0.375,0.375,0,0,1,6.416,4.51Z" transform="translate(0 -1)"/>
</svg>
