<svg xmlns="http://www.w3.org/2000/svg" width="16" height="16" viewBox="0 0 16 16">
  <defs>
    <style>
      .i-color {
        fill: #000;
        fill-rule: evenodd;
      }
    </style>
  </defs>
  <path id="file_type_cf.svg" class="i-color" d="M3.927,14H6.35a5.048,5.048,0,0,0,4.133-1.968,11.319,11.319,0,0,0,1.5-2.839h2.8V6.8H12.949a5.2,5.2,0,0,1,1.19-1.774A2.74,2.74,0,0,1,16,4.4V2a5.1,5.1,0,0,0-4.165,1.957,8.251,8.251,0,0,0-1.028,1.72c-0.195.4-.454,1.043-0.79,1.892a12.363,12.363,0,0,1-1.439,2.968A2.716,2.716,0,0,1,6.339,11.6H3.927a1.582,1.582,0,0,1-1.158-.387,1.138,1.138,0,0,1,0-1.634,1.582,1.582,0,0,1,1.158-.387H6.339V6.8H3.927A3.926,3.926,0,0,0,1.039,7.9,3.39,3.39,0,0,0,0,10.4a3.39,3.39,0,0,0,1.039,2.495A3.884,3.884,0,0,0,3.927,14h0Z" transform="translate(0 -1)"/>
</svg>
