<svg xmlns="http://www.w3.org/2000/svg" width="16" height="16" viewBox="0 0 16 16">
  <defs>
    <style>
      .i-color {
        fill: #000;
        fill-rule: evenodd;
      }
    </style>
  </defs>
  <path id="file_type_dotnet.svg" class="i-color" d="M3.99,5.292l0.068-.027ZM0.7,11H1.558a0.048,0.048,0,0,0,.009,0A2.156,2.156,0,0,0,3.751,9.416c0.233-.7.424-1.289,0.592-1.784h0l0.006-.018a13.011,13.011,0,0,1,1.2-1.368H5.557c0.577,1.658.8,4.617,2.486,4.617,0.068,0,.139,0,0.208-0.005-0.069.007-.135,0.015-0.2,0.015H9.386a1.414,1.414,0,0,1-.271-0.03,1.385,1.385,0,0,1-.16-0.043,1.356,1.356,0,0,0,.16.039,1.417,1.417,0,0,0,.271.024,2.178,2.178,0,0,0,.637-0.073,2.157,2.157,0,0,1-.637.082h1.345v0l0.494,0a0.594,0.594,0,0,1-.179-0.028l0,0a0.639,0.639,0,0,0,.176.019c1.3,0,2.613-2.2,4.783-5.847H15.156V5.039H15c-0.8,1.336-1.36,2.478-1.834,3.39C13.639,7.516,14.2,6.375,15,5.039H13.7c-0.043,0-.085-0.006-0.127,0a0.019,0.019,0,0,0,0,0A2.125,2.125,0,0,0,11.428,6.6C10.911,8.151,10.6,9.159,10.3,9.8h0a0,0,0,0,1,0,0v0a5.484,5.484,0,0,1-.423.349q-0.11.082-.221,0.156a2.325,2.325,0,0,0,.192.195,1.462,1.462,0,0,0,.326.229h0A1.475,1.475,0,0,1,9.84,10.5a2.411,2.411,0,0,1-.192-0.195h0c0.074-.049.147-0.1,0.221-0.156-0.406-.845-0.641-2.28-1.078-3.4,0.437,1.117.673,2.553,1.078,3.4q0.211-.158.423-0.349C9.706,8.151,9.5,5.15,7.8,5.15a2.16,2.16,0,0,0-.361.031A2.108,2.108,0,0,1,7.8,5.149L7.131,5.141c0.106,0,.206.028,0.3,0.028h0c-0.1,0-.2-0.028-0.3-0.028-0.009,0-.018,0-0.028,0,0.009,0,.018,0,0.028,0H4.446l-0.046,0C2.935,5.134.916,7.71,0.007,11H0.7v0ZM13.509,5.149h0a1.943,1.943,0,0,0-1,.65A1.941,1.941,0,0,1,13.509,5.149Zm-2.053,5.533-0.012.006-0.018.009h0l0.032-.015h0Zm-0.178.074a0.025,0.025,0,0,1,.009,0l-0.008,0-0.018.006Zm-0.021.008h0Zm-0.135.043,0.029-.008,0.015,0,0.016-.006,0.017-.005,0.014-.005,0.035-.011,0,0,0,0-0.034.011-0.014,0-0.017.005-0.017.006-0.015,0-0.029.008h0ZM4.058,5.269v0l0,0h0a0.254,0.254,0,0,0-.085.03L3.99,5.293l-0.068.029-0.036.017Zm0.069-.033h0Zm0.194-.055a0.059,0.059,0,0,1-.01.01L4.24,5.209l-0.008,0-0.02.006a0.188,0.188,0,0,1,.02-0.007,0.074,0.074,0,0,0,.008,0L4.312,5.19s0.006-.009.01-0.009a0.108,0.108,0,0,1,.02-0.011c-0.007,0-.014.011-0.02,0.012h0Zm0.031,0-0.01.005a0.043,0.043,0,0,1,.01-0.007,0.079,0.079,0,0,1,.021-0.007A0.151,0.151,0,0,0,4.353,5.178ZM4.615,5.17a0.237,0.237,0,0,0-.038,0h0a0.313,0.313,0,0,1,.038,0h0Zm0.034-.016c-0.031,0-.062.006-0.094,0.008a0.075,0.075,0,0,1,.013.006c-0.008,0-.016-0.006-0.024-0.006l0.011,0h0l-0.006,0v0l-0.048,0,0,0-0.011,0a0.081,0.081,0,0,1-.019,0,0.023,0.023,0,0,0-.011,0l-0.02,0h0a0.1,0.1,0,0,0,.02,0l0.011,0a0.129,0.129,0,0,0,.019,0,0.023,0.023,0,0,0,.011,0l0.039,0H4.539c0.037,0,.073,0,0.109,0v0ZM4.735,5.19C4.711,5.184,4.686,5.179,4.661,5.175l-0.006,0H4.661c0.025,0,.05.009,0.074,0.015h0Zm0.53,0.4h0a1.184,1.184,0,0,0-.253-0.3l0,0a1.213,1.213,0,0,1,.25.3h0ZM5.384,5.8h0Zm1.359-.62a2.2,2.2,0,0,1,.292-0.033,2.216,2.216,0,0,0-.292.033h0ZM5.79,6.051l0,0,0,0h0Zm1.248-.763a3.1,3.1,0,0,0-.462.208,3.1,3.1,0,0,1,.462-0.208A2.519,2.519,0,0,1,7.352,5.2,2.468,2.468,0,0,0,7.038,5.287Zm0.4-.1h0Zm1.172,5.608c0.063-.016.127-0.035,0.191-0.056h0C8.732,10.757,8.669,10.776,8.606,10.792Zm1.642-.1h0l-0.011.006,0.012-.006h0Zm0.339,0.164a1.21,1.21,0,0,1-.418-0.124,1.21,1.21,0,0,0,.418.124l0.068,0.006Zm-0.011-.432v0h0a1.152,1.152,0,0,0,.285.325,1.1,1.1,0,0,1-.286-0.322h0Zm0.241,0.438a0.027,0.027,0,0,1-.012,0h0a0.026,0.026,0,0,0,.012,0,0.106,0.106,0,0,0,.025,0h0A0.107,0.107,0,0,1,10.817,10.862Zm0.1-.011-0.029,0-0.008,0h0l-0.027,0h0l0.026,0h0l0.008,0,0.029,0h0Z"/>
</svg>
