<svg xmlns="http://www.w3.org/2000/svg" width="16" height="16" viewBox="0 0 16 16">
  <defs>
    <style>
      .i-color {
        fill: #000;
        fill-rule: evenodd;
      }
    </style>
  </defs>
  <path id="file_type_editorconfig.svg" class="i-color" d="M5.062,2.575a1.627,1.627,0,0,0,.564,1.253A4.976,4.976,0,0,0,2.161,6.368,0.744,0.744,0,0,0,1,6.942a0.751,0.751,0,0,0,1.288.475,1.767,1.767,0,0,0,.592.508,3.483,3.483,0,0,0,.077,1.016,2.119,2.119,0,0,0,1.381,0,4.73,4.73,0,0,0,.056-0.622A3.879,3.879,0,0,0,5.571,8.2a1.565,1.565,0,0,0-.076.77,3.345,3.345,0,0,0-.7,4.718C4,14,3.222,14.453,3.251,15.011c1.149-.027,5.315,0,5.315,0A2.476,2.476,0,0,0,9.291,14.9c10.429-1.5-.1-10.479,5.7-13.212C8.254,3.04,17.506,12.422,10.552,13.8c1.731-1.681,1.137-6.815-1.7-9.122a1.7,1.7,0,0,0,1.293-1.714A1.553,1.553,0,0,0,7.585,1.622a1.387,1.387,0,0,0-2.524.953h0Z" transform="translate(0 -1)"/>
</svg>
