<svg xmlns="http://www.w3.org/2000/svg" width="16" height="16" viewBox="0 0 16 16">
  <defs>
    <style>
      .i-color {
        fill: #000;
        fill-rule: evenodd;
      }
    </style>
  </defs>
  <path id="file_type_groovy.svg" class="i-color" d="M8,2.8L9.84,5.884a1.207,1.207,0,0,0-.912.563,1.257,1.257,0,0,0-.911-0.463,1.176,1.176,0,0,0-1.192.568,0.6,0.6,0,0,0-.89-0.279ZM3.473,5.122C3.423,6.559,2.412,7.839,1.687,7.371c-0.548-.45.148-1.587,0.586-1.988a1.09,1.09,0,0,1,.023.77c-0.443.545-.268,0.938-0.078,1,0.509,0.162,1-1.23,1-2.206,0-.626-0.363-0.614-1.078.136C1.161,6.107.634,7.1,0.985,7.779a0.912,0.912,0,0,0,.952.595A2.184,2.184,0,0,0,3.47,6.382c0.147,0,.108.009,0.147-0.021A7.764,7.764,0,0,0,3.933,7.53c0.182,0.7.958,2.114-1.36,2.663a6.7,6.7,0,0,0-1.043.32A2.682,2.682,0,0,0,.837,9.5c0.584-.206.589-0.185,0.966-0.318C3.26,8.67,3.7,8.233,3.648,7.609a0.989,0.989,0,0,0-.184-0.59,2.628,2.628,0,0,1-.291.647A1.81,1.81,0,0,1,1.127,8.5,0.924,0.924,0,0,1,.533,7.483,6.181,6.181,0,0,1,2.905,4.4C3.457,4.231,3.48,4.69,3.473,5.122Zm6.46,1.3a1.06,1.06,0,0,1,.73.34,1.474,1.474,0,0,1,.163,1.909,1.074,1.074,0,0,1-1.78-.49,2.02,2.02,0,0,1,.472-1.627A0.621,0.621,0,0,1,9.933,6.425Zm-2.1.066a0.494,0.494,0,0,1,.116.017,0.7,0.7,0,0,1,.7.561,1.513,1.513,0,0,1-.3,1.694c-0.706.72-1.529,0.4-1.526-.569C6.836,7.5,7.262,6.477,7.834,6.491ZM9.69,6.529a0.91,0.91,0,0,0-.08,1.3,0.78,0.78,0,0,0,.609.256,0.755,0.755,0,0,0,.721-0.528,0.9,0.9,0,0,0-.311-0.671,0.732,0.732,0,0,0-.656-0.3C9.71,6.74,9.994,6.865,10.1,6.968c0.161,0.162.2,0.234,0.125,0.282a0.441,0.441,0,0,1-.37.057A0.488,0.488,0,0,1,9.69,6.529Zm3.734,0a2.629,2.629,0,0,1,.4.967c0.239,0.839.543,1.166,0.812,1.013,0.735-.419.146-1.48-0.113-1.978,0.166,0,.133.007,0.284,0,0.119,0.472.086,0.388,0.405,1.816,0.382,1.709.439,2.164-.525,2.932a2.458,2.458,0,0,1-1.656.34L12.4,11.532a1.1,1.1,0,0,0,.539-1.119c1.27,0.537,1.946.132,2.216-.527a2.884,2.884,0,0,0-.04-1.474,2.947,2.947,0,0,1-.084,1.009c-0.158.6-.544,0.762-0.807,0.34A3.766,3.766,0,0,1,13.8,8.478a3.2,3.2,0,0,0-.5-1.74A1.051,1.051,0,0,1,13.424,6.532Zm-1.239.01a1.114,1.114,0,0,1,.736.521,2.339,2.339,0,0,1,.372,1.45c-0.013.833-.338,1.057-0.553,1.088-0.277.04-.757,0.034-1.042-1.6a2.671,2.671,0,0,0-.448-1.227,1.322,1.322,0,0,0,.164-0.2,1.83,1.83,0,0,1,.3.779c0.2,0.81.385,0.977,0.74,1.023,0.555,0.071.774-.782,0.317-1.395a0.54,0.54,0,0,0-.5-0.236,1.807,1.807,0,0,0,.114.318,0.649,0.649,0,0,1-.112.321,0.514,0.514,0,0,1-.333-0.292C11.781,6.777,11.882,6.485,12.185,6.542Zm-4.567.077a1.142,1.142,0,0,0-.3,1.353,0.552,0.552,0,0,0,.634.3,1.018,1.018,0,0,0,.725-0.751c0.051-.351-0.453-1.03-0.734-0.872-0.325.183-.127,0.314,0.074,0.512C8.2,7.342,8.068,7.45,7.939,7.5a0.3,0.3,0,0,1-.465-0.2A0.864,0.864,0,0,1,7.618,6.618ZM4.77,6.683a3.539,3.539,0,0,0,.217.624A0.28,0.28,0,0,0,5.254,7.15c0.086-.1.183-0.238,0.354-0.464a0.553,0.553,0,0,1,.142.219,0.242,0.242,0,0,0,.271.106,0.778,0.778,0,0,1,.3-0.289,0.776,0.776,0,0,1-.256.678,0.529,0.529,0,0,1-.5.172,2.652,2.652,0,0,1-.386-0.205C4.929,7.406,5,7.682,5.043,7.914c0.12,0.612.5,0.856,0.827,0.676a1.746,1.746,0,0,1,.309-0.153,2.566,2.566,0,0,0,.01.9c-0.537.3-.975,0.25-1.094-0.507a4.583,4.583,0,0,0-.412-1.559c-0.144-.147-0.2-0.2-0.2-0.2ZM0,7.637A1.446,1.446,0,0,0,.8,8.93a0.931,0.931,0,0,0-.382.258C0.124,9.736.552,9.862,0.829,10.3c0.313,0.57.38,0.947,1.118,0.627a6.552,6.552,0,0,1,.753-0.21C2.013,11.81,1.843,12.111.638,14c4.819-1.9,4.948-1.944,7.331-2.894,3.426,1.341,3.622,1.451,7.384,2.9-0.526-.827-0.885-1.346-1.267-2a1.687,1.687,0,0,0,.773-0.233,2.457,2.457,0,0,0,.683-0.575,2.606,2.606,0,0,0,.387-2.17c-0.077-.424-0.192-0.751-0.211-0.851-0.076-.4-0.363-1.575-0.363-1.575-0.035-.415-0.242-0.628-0.876-0.607a0.552,0.552,0,0,0-.5.446c-0.354-.659-0.844-0.465-1.052-0.141A1.144,1.144,0,0,0,11.7,6.124a0.58,0.58,0,0,0-.752.178,1.667,1.667,0,0,0-.61-0.343L7.992,2,5.527,6.151a0.629,0.629,0,0,0-.338.208,0.613,0.613,0,0,0-1.021.221,0.757,0.757,0,0,0-.277-0.7A2.083,2.083,0,0,0,3.65,4c-1.071-.729-2.31,1.053-3,1.986A2.912,2.912,0,0,0,0,7.637ZM11.358,8.819a2.059,2.059,0,0,0,.251.642,1.261,1.261,0,0,0,.835.645,2.5,2.5,0,0,1,.147.237,0.632,0.632,0,0,1-.343.776,0.547,0.547,0,0,0,0,.77c0.23,0.22.471,0.3,1.366,0.064,0.173,0.3.415,0.654,0.77,1.219-1.2-.455-2.849-1.105-6.388-2.494,0,0-4.141,1.622-6.362,2.5,0.929-1.477,1.005-1.6,1.666-2.636a2.023,2.023,0,0,0,.347-0.155A2.108,2.108,0,0,0,4.667,9.236a1.077,1.077,0,0,0,1.626.657,0.632,0.632,0,0,0,.421-0.519,1.479,1.479,0,0,0,2.128-.382A1.58,1.58,0,0,0,11.358,8.819ZM13.5,9.685a1.327,1.327,0,0,0,.064.169c-0.1,0-.212,0-0.212,0A0.907,0.907,0,0,0,13.5,9.685Z" transform="translate(0 -1)"/>
</svg>
