<svg xmlns="http://www.w3.org/2000/svg" width="32" height="32" viewBox="0 0 32 32">
  <path fill="#D14748" fill-rule="evenodd" d="M16.9238624,7.09017742 L17.6247988,4.06792327 L21.057166,0.0347240037 L21.0579585,0.0354662545 C21.0581896,0.0352175234 21.058423,0.0349701051 21.0586586,0.0347240037 C21.1418571,-0.0521489923 21.4095569,0.0251729573 21.6574628,0.253318387 C21.9054492,0.481463818 22.0547882,0.747398171 21.9811647,0.833357588 C21.9613373,0.856513676 21.9282853,0.865422195 21.8857884,0.861745405 L18.6914729,4.6279468 L18.1334015,7.15452791 C20.360693,7.31325632 21.9083781,7.66378818 21.9083781,8.07072529 C21.9083781,8.6267623 19.0187935,9.07748863 15.4541891,9.07748863 C11.889659,9.07748863 9,8.6267623 9,8.07072529 C9,7.51468828 11.889659,7.06396195 15.4541891,7.06396195 C15.9597653,7.06396195 16.4517626,7.07302895 16.9238624,7.09017742 Z M15.3932023,25.2511476 C17.07205,25.2511476 18.3693584,24.9694332 18.9932088,24.801584 C19.4251739,24.6853934 19.770865,24.5650502 20.0321414,24.441468 L19.2448909,25.9794356 L18.9871845,30.9932367 C18.9871845,31.5492737 17.405395,32 15.4541891,32 C13.5029831,32 11.9211936,31.5492737 11.9211936,30.9932367 L11.5957323,26.0334198 L10.7637087,24.4460359 C11.0239438,24.5680401 11.3665112,24.6868053 11.7931213,24.801584 C12.4169718,24.9694332 13.7142801,25.2511476 15.3932023,25.2511476 Z M20.0592136,9.11162324 C20.6696022,9.01644499 21.1525136,8.90424096 21.494486,8.77808409 C21.5761488,8.74793601 21.7146335,8.69644341 21.8477632,8.61438746 L21.0211689,17.1629062 C20.8486952,17.3333301 20.6956332,17.4829908 20.5648834,17.6085663 C20.3743369,17.7918634 20.2168124,17.9380359 20.0929051,18.0468348 C19.9689977,18.1557167 19.8725344,18.2321251 19.8038871,18.276226 C19.7351654,18.3203269 19.6830291,18.3424189 19.6475526,18.3424189 C19.6038206,18.3424189 19.5725835,18.3320373 19.5538412,18.3114403 C19.5350989,18.2906772 19.5256534,18.2639342 19.5256534,18.2307962 C19.5277359,18.2059635 19.5554774,18.1584574 19.6085062,18.0880289 C19.6616093,18.0178494 19.7272817,17.9324714 19.8054489,17.8318117 C19.8836162,17.731235 19.9674359,17.6196123 20.0570567,17.4969437 C20.1465288,17.3743581 20.2299022,17.2482843 20.3070282,17.1187222 C20.3841542,16.9892433 20.4482648,16.8604287 20.4992111,16.7322786 C20.5503805,16.6041285 20.5757421,16.4836192 20.5757421,16.3705846 C20.5757421,16.2850405 20.5590822,16.2099609 20.525837,16.145263 C20.4925174,16.080565 20.4492316,16.02683 20.3960541,15.9839749 C20.3430997,15.9413689 20.2824848,15.9088953 20.2148043,15.8868864 C20.1471238,15.8647944 20.0788483,15.8538315 20.0101266,15.8538315 C19.9101678,15.8538315 19.8101345,15.8772523 19.7101757,15.9240109 C19.610068,15.9710187 19.5121917,16.031564 19.4163234,16.1059791 C19.3204551,16.1803112 19.2277105,16.2638621 19.1380897,16.3561335 C19.0484688,16.4484049 18.9650954,16.5413407 18.8881181,16.6351071 C18.8943656,16.6185796 18.9010592,16.5925011 18.9084967,16.5566224 C18.9157109,16.5207437 18.9225534,16.4827886 18.9288008,16.4429234 C18.9350482,16.4029751 18.9401057,16.3650201 18.944345,16.3292244 C18.9485843,16.2933457 18.9505924,16.2672672 18.9505924,16.2506567 C18.9505924,16.1679363 18.9318501,16.1053147 18.8943656,16.0625426 C18.856881,16.0198536 18.7964892,15.998426 18.7131157,15.998426 C18.658897,15.998426 18.6083226,16.0308996 18.5614668,16.0955975 C18.5146855,16.1603785 18.4723666,16.23687 18.434882,16.3249887 C18.3973975,16.4131906 18.3640035,16.5028043 18.3349976,16.5937469 C18.3057685,16.6847725 18.2827869,16.755035 18.2661271,16.8046174 C18.2377905,16.9170706 18.2056609,17.0320984 18.1705563,17.1493686 C18.1524834,17.1577569 18.1361211,17.168969 18.1224362,17.1848321 C18.0640525,17.251025 17.9977851,17.3233638 17.9238572,17.4019315 C17.8499293,17.4804162 17.7723571,17.5589009 17.6909918,17.6376347 C17.6098496,17.7161194 17.528038,17.7918634 17.4457058,17.8648666 C17.363448,17.9380359 17.2843139,18.0027339 17.2081547,18.0592096 C17.13207,18.1156023 17.0613402,18.1611982 16.9956678,18.1955819 C16.9299954,18.2301318 16.8754048,18.2473237 16.8316728,18.2473237 C16.7961963,18.2473237 16.7722478,18.2348658 16.759753,18.2100331 C16.7472581,18.1852004 16.7410107,18.1521455 16.7410107,18.1109514 C16.7410107,18.0447585 16.7518693,17.9696789 16.7738097,17.8856297 C16.7956013,17.8015805 16.8179879,17.7278298 16.8409695,17.6643777 C16.8931058,17.5156305 16.9549851,17.3399743 17.0269049,17.137326 C17.0987504,16.9347608 17.1759507,16.7206512 17.2581342,16.4944991 C17.3404664,16.268513 17.424881,16.036381 17.5113038,15.7980201 C17.5977266,15.5596592 17.6821412,15.330185 17.7645478,15.1096804 C17.8467312,14.8892588 17.9238572,14.6853648 17.995777,14.497832 C18.0676968,14.3105485 18.1297249,14.1520842 18.1817124,14.0225221 C18.208859,13.959153 18.2312456,13.8999365 18.2489467,13.8447066 C18.2667221,13.7896427 18.2755726,13.7372365 18.2755726,13.6876542 C18.2755726,13.5829249 18.2489467,13.5071809 18.1957691,13.4602562 C18.142666,13.4134145 18.083836,13.3899937 18.0192793,13.3899937 C17.9546481,13.3899937 17.890612,13.4120857 17.8270221,13.4561036 C17.7635066,13.5002875 17.7129321,13.5760315 17.6754476,13.6835015 L16.7285158,16.3498215 C16.6658928,16.5263082 16.5971711,16.7206512 16.5222763,16.9327675 C16.4471584,17.1449668 16.3732305,17.358412 16.3002694,17.5735181 C16.2601818,17.6872171 16.2257465,17.8122943 16.1964431,17.947587 C16.1701147,17.9720875 16.1437119,17.9954252 16.1173834,18.0178494 C16.0122184,18.1073801 15.9116645,18.1769782 15.8157962,18.2265606 C15.7199279,18.276226 15.6397526,18.3010587 15.5751214,18.3010587 C15.4834925,18.3010587 15.437678,18.2513933 15.437678,18.1521455 C15.437678,18.0447585 15.4516604,17.9283188 15.4798482,17.8029094 C15.508036,17.6775 15.5432893,17.5493498 15.5862032,17.418459 C15.6287452,17.2875681 15.6752291,17.1587536 15.7252085,17.0319323 C15.7751879,16.9051941 15.821523,16.7860136 15.8642138,16.6743909 C15.9069045,16.5627683 15.942381,16.4635204 15.9704945,16.3767305 C15.9986823,16.2899406 16.0126646,16.2216713 16.0126646,16.1720059 C16.0126646,16.0839702 15.990873,16.0081432 15.947141,15.944774 C15.9032602,15.8814049 15.843984,15.8496788 15.7689405,15.8496788 C15.7002188,15.8496788 15.6428019,15.879993 15.5970618,15.9405384 C15.551173,16.0011667 15.5106391,16.0769938 15.4751626,16.1679363 C15.4397605,16.2589619 15.4068871,16.3580437 15.3766912,16.4655968 C15.3464953,16.5729837 15.3116138,16.6737265 15.2719724,16.7673268 C15.2157455,16.9079348 15.145462,17.0629109 15.0610473,17.2324212 C14.9766326,17.4019315 14.8824006,17.5603958 14.7782024,17.7078142 C14.6739298,17.8553155 14.5604349,17.9785656 14.4375688,18.0778134 C14.3145539,18.1769782 14.1854404,18.2265606 14.050005,18.2265606 C14.0021081,18.2265606 13.9676729,18.2059635 13.9468481,18.1646033 C13.925949,18.1232432 13.9156853,18.0778134 13.9156853,18.028231 C13.9197015,17.909798 13.937477,17.7877938 13.9687885,17.6623844 C13.9999512,17.5370581 14.0375102,17.413725 14.0812422,17.2923852 C14.1249742,17.1710454 14.1723505,17.0539412 14.2234456,16.9410728 C14.2744662,16.8280382 14.3229582,16.7225614 14.3686983,16.6247255 C14.4146615,16.5269726 14.4547492,16.4401827 14.4891844,16.3642726 C14.5233965,16.2884456 14.5457832,16.2273189 14.5562699,16.1803112 C14.5625173,16.1556445 14.5657154,16.1293169 14.5657154,16.1017434 C14.5657154,16.0603832 14.5573112,16.0239232 14.5407257,15.9922801 C14.5239915,15.9606371 14.5020512,15.9343925 14.4750533,15.9137954 C14.4479068,15.8930323 14.4188265,15.8779998 14.3874406,15.8681996 C14.3562034,15.8586485 14.3260075,15.8538315 14.2968529,15.8538315 C14.2301392,15.8538315 14.16826,15.8765048 14.1109175,15.9220176 C14.0536494,15.9674474 14.003075,16.04261 13.9594173,16.1473393 C13.7885055,16.5441645 13.6561939,16.8816902 13.5624081,17.1600824 C13.4686967,17.4383916 13.39938,17.6652082 13.3546067,17.8400339 C13.3097591,18.0151087 13.2832075,18.1432588 13.2748776,18.2244842 C13.2665477,18.3058758 13.2623828,18.3479004 13.2623828,18.3507242 C13.2623828,18.4690741 13.2769601,18.5677405 13.3061148,18.6462252 C13.3353438,18.7247099 13.3737952,18.7874977 13.4217666,18.8342563 C13.4696635,18.8810979 13.5253698,18.9142359 13.5889597,18.9335041 C13.6525496,18.9528554 13.7186682,18.9624064 13.7874643,18.9624064 C13.9394851,18.9624064 14.0801266,18.9341685 14.2093889,18.8776928 C14.3385024,18.8213001 14.4551954,18.7474663 14.559468,18.6566068 C14.6635918,18.5655812 14.756262,18.4650876 14.8376273,18.3547107 C14.9188439,18.244583 14.9865244,18.1357841 15.0407432,18.028231 C15.0074235,18.1962464 14.9907637,18.3437477 14.9907637,18.470569 C14.9907637,18.6496304 15.0220009,18.7765347 15.0844752,18.8507837 C15.1470238,18.9252819 15.2282404,18.9624064 15.328348,18.9624064 C15.4283069,18.9624064 15.540835,18.9314278 15.6657835,18.8694706 C15.7908809,18.8075133 15.9179119,18.7253743 16.0470998,18.6235519 C16.0842869,18.5941513 16.1211765,18.5631727 16.1577686,18.5313635 C16.1609667,18.5568607 16.164016,18.5825239 16.1689247,18.6069414 C16.183502,18.6786988 16.2080455,18.740656 16.2424807,18.7930622 C16.276916,18.8453023 16.3226561,18.8866624 16.3799985,18.9169766 C16.4372666,18.9472908 16.5085915,18.9624064 16.593973,18.9624064 C16.7190703,18.9624064 16.8477376,18.9292684 16.9801236,18.8632416 C17.1122865,18.7971318 17.2456393,18.7081825 17.3801822,18.5965598 C17.5145019,18.4850202 17.6493422,18.3562056 17.7848519,18.2100331 C17.7912481,18.2030567 17.7976443,18.1955819 17.8041892,18.1884394 C17.7823976,18.2447491 17.7619447,18.3002282 17.7395581,18.3568701 C17.6321618,18.6283689 17.5202287,18.9025255 17.4035356,19.1794228 C17.286917,19.4564862 17.1723064,19.7327191 17.0597039,20.0083706 C17.0431185,20.0579529 17.0248225,20.1095286 17.0051133,20.1634297 C16.9853298,20.2170817 16.9659925,20.2720625 16.9472502,20.3287043 C16.9285079,20.3851801 16.912815,20.4424033 16.9003945,20.500291 C16.8878996,20.5581786 16.8816522,20.6145713 16.8816522,20.6697182 C16.8816522,20.7826697 16.9061957,20.8592442 16.9549851,20.8991094 C17.0040721,20.9390577 17.0659514,20.9591565 17.1410693,20.9591565 C17.1993042,20.9591565 17.2518867,20.9447053 17.2988168,20.9156369 C17.3457469,20.8868177 17.3873965,20.8481982 17.4239142,20.8000277 C17.4603575,20.7516911 17.4925615,20.6958798 17.5207493,20.6325937 C17.5487884,20.5690585 17.5733318,20.5016198 17.5941566,20.4299454 C17.600404,20.4051127 17.6150557,20.358188 17.637963,20.2894205 C17.6607958,20.2204868 17.6874218,20.1405072 17.7176177,20.0497307 C17.7478136,19.9587051 17.7802407,19.862198 17.8145272,19.7602925 C17.8488881,19.6583039 17.8817615,19.5611324 17.9129986,19.468778 C17.9442357,19.3765065 17.9718286,19.2958625 17.995777,19.2269289 C18.0197255,19.1579952 18.0369059,19.1113197 18.0473183,19.0864869 C18.0556482,19.0672187 18.0697049,19.0320045 18.0896372,18.9810102 C18.1093464,18.9299328 18.131733,18.8722113 18.1567227,18.8075133 C18.1817124,18.7427323 18.2093052,18.6737987 18.2395011,18.6006294 C18.2697714,18.5277923 18.2983311,18.4567823 18.325552,18.3878487 C18.3525499,18.3190811 18.3775396,18.2569578 18.4004468,18.2018109 C18.4234284,18.146747 18.4411295,18.103975 18.4536243,18.0736608 C18.4953482,17.9772367 18.5459227,17.871843 18.6052732,17.7574796 C18.6646982,17.6431162 18.7302218,17.5294172 18.8021416,17.4163827 C18.8740614,17.3034312 18.9511874,17.1946323 19.0333709,17.0898199 C19.1157774,16.9851737 19.2001177,16.8920717 19.2866149,16.8108463 C19.3730376,16.7295379 19.460576,16.6646738 19.54923,16.6165033 C19.6376609,16.5683328 19.7236374,16.5441645 19.8070852,16.5441645 C19.8548334,16.5441645 19.8892686,16.5538817 19.9101678,16.5729837 C19.9309925,16.5925011 19.9414049,16.6185796 19.9414049,16.6517176 C19.9414049,16.7068645 19.9164152,16.7783728 19.866287,16.8665746 C19.8163819,16.9548595 19.7533127,17.052031 19.6773023,17.157923 C19.6012175,17.2642303 19.5184391,17.3764344 19.4288182,17.4948674 C19.3391974,17.6134664 19.2547827,17.7305706 19.1755742,17.8463459 C19.0964401,17.9620381 19.0287597,18.0736608 18.9725328,18.1812139 C18.9163059,18.2886008 18.8838788,18.3837791 18.8756233,18.4663334 C18.8734664,18.4801201 18.8724252,18.4919966 18.8724252,18.5015476 L18.8724252,18.5325263 C18.8724252,18.6676528 18.9157109,18.7737109 19.0021337,18.8507837 C19.0885565,18.9280226 19.2110507,18.9666421 19.3693933,18.9666421 C19.5381482,18.9666421 19.6964908,18.9307634 19.8444954,18.859089 C19.9924256,18.7874977 20.1440745,18.6861735 20.299219,18.5551996 C20.4545122,18.4243087 20.6196228,18.2679207 20.7946996,18.0861187 C20.8417784,18.0371176 20.8908653,17.9865386 20.9414398,17.9347969 L20.3311998,23.8483895 C20.2224648,24.1575943 18.1396166,24.9189372 15.3932023,24.9189372 C12.6480522,24.9189372 10.5660222,24.1583417 10.4554278,23.8488048 L10.0306027,18.874952 C10.0484524,18.8894032 10.0663766,18.9040204 10.0854164,18.9169766 C10.1906558,18.988651 10.3161994,19.0245297 10.4620471,19.0245297 C10.5891525,19.0245297 10.7214642,18.9899799 10.858982,18.9212123 C10.9964998,18.8522787 11.1329764,18.7633294 11.2684117,18.6545305 C11.4037727,18.5456486 11.5360843,18.423063 11.6653466,18.2866076 C11.7945345,18.1501522 11.9142025,18.0131154 12.0247968,17.8752482 C11.9872379,18.0048102 11.9449934,18.151481 11.898212,18.3155099 C11.8513563,18.4794557 11.8075499,18.638003 11.7669416,18.7909028 C11.726259,18.9438857 11.6913775,19.0810055 11.6622228,19.2021792 C11.6329938,19.323436 11.6173008,19.4062394 11.6152927,19.4503403 C11.6132846,19.4721831 11.6122434,19.4929463 11.6122434,19.5122975 L11.6122434,19.5701852 C11.6122434,19.7024049 11.627267,19.7934305 11.6575373,19.8430129 C11.6877332,19.8925122 11.7361507,19.9173449 11.80279,19.9173449 C11.8424314,19.9173449 11.8809572,19.9013988 11.9184418,19.8698389 C11.9560007,19.8381958 11.9903616,19.7980814 12.0215988,19.7499109 C12.0529103,19.7017404 12.0799825,19.6506631 12.1029641,19.5969281 C12.1257226,19.5432761 12.1424568,19.4942751 12.1528691,19.4503403 C12.1570341,19.4363875 12.1684877,19.3924526 12.18723,19.3179545 C12.2060467,19.2435394 12.2294745,19.1511849 12.2576623,19.0410572 C12.2857014,18.9307634 12.3174591,18.8075133 12.3529356,18.671058 C12.3883377,18.5346026 12.4253017,18.3954895 12.4639018,18.2535526 C12.5024277,18.1116158 12.5399122,17.9724197 12.5763556,17.8359643 C12.6127989,17.699592 12.6467135,17.5762589 12.6779507,17.4659651 C12.7092622,17.3558373 12.7357394,17.2642303 12.7576054,17.191061 C12.7795458,17.1180578 12.7946437,17.0747044 12.8029736,17.0609176 C12.8404582,16.9395778 12.878984,16.8231381 12.918551,16.7115154 C12.9581925,16.5998928 12.9941152,16.4890176 13.0264679,16.3788068 C13.0587463,16.268513 13.0853723,16.1556445 13.1061227,16.0397862 C13.1269474,15.9240109 13.1373598,15.8000134 13.1373598,15.6677107 C13.1373598,15.6182113 13.1305918,15.5747748 13.1170557,15.5375673 C13.1035196,15.5003597 13.0853723,15.4700455 13.0623907,15.4466247 C13.039409,15.4232039 13.0134525,15.4059289 12.9842234,15.394966 C12.9550688,15.38392 12.9258397,15.3783555 12.8967594,15.3783555 C12.8362932,15.3783555 12.7773889,15.4005305 12.7201208,15.4445484 C12.6627783,15.4886493 12.6164432,15.5630644 12.5810411,15.6677107 L12.2903869,16.6391766 C12.2549105,16.721897 12.2018817,16.8190685 12.1309288,16.9306912 C12.0601246,17.0423139 11.978908,17.1587536 11.8872047,17.2799273 C11.7955757,17.4012671 11.6966581,17.521112 11.590303,17.6395449 C11.4840224,17.758144 11.3782623,17.8642022 11.2730229,17.9579685 C11.1678578,18.0515688 11.0662627,18.1274788 10.9683864,18.1852004 C10.8703612,18.2431711 10.7828972,18.2719903 10.7057712,18.2719903 C10.6371239,18.2719903 10.580302,18.2507289 10.5354544,18.2079568 C10.4906812,18.1652678 10.4552047,18.1109514 10.4292481,18.0447585 C10.4031428,17.9785656 10.3855161,17.9048979 10.3760706,17.8235064 C10.3667738,17.742364 10.3620139,17.6630488 10.3620139,17.585893 C10.3620139,17.3543424 10.3958541,17.0932251 10.4636833,16.8025411 C10.5313638,16.511857 10.6223978,16.2169373 10.7370084,15.917865 C10.8516189,15.6187927 10.9834843,15.3266968 11.1324557,15.0414942 C11.2814272,14.7562086 11.4371666,14.5027321 11.5997485,14.2808987 C11.7621817,14.0590653 11.9263255,13.8805853 12.0919567,13.7455418 C12.2576623,13.6104983 12.4133274,13.5429766 12.5591751,13.5429766 C12.6529609,13.5429766 12.7399043,13.5726263 12.820154,13.6318428 C12.9003294,13.6911424 12.973811,13.7868189 13.0404503,13.9191217 C13.1113289,14.0652112 13.175365,14.1774983 13.2327075,14.256066 C13.2899756,14.3346337 13.3519292,14.3738345 13.4187172,14.3738345 C13.4916039,14.3738345 13.5546732,14.3381219 13.6077763,14.2663645 C13.6608795,14.1947732 13.687431,14.0968542 13.687431,13.9728567 C13.687431,13.9205336 13.6828199,13.8647222 13.6733743,13.8054227 C13.6640776,13.7462062 13.6416166,13.6876542 13.6062145,13.6297665 C13.4519625,13.3708086 13.2864056,13.1832759 13.1093208,13.0675836 C12.9321615,12.9518083 12.7487549,12.8939207 12.5591751,12.8939207 C12.3945851,12.8939207 12.2284333,12.933952 12.0606452,13.0138486 C11.8929315,13.0938282 11.7267796,13.2047034 11.5621896,13.3466403 C11.3975252,13.4885771 11.2371745,13.6580874 11.0808401,13.8550881 C10.92458,14.0521719 10.777096,14.2677764 10.6386114,14.5019847 C10.5000523,14.736276 10.3719056,14.9850185 10.2541714,15.2482121 C10.1365114,15.5114057 10.0328339,15.7808283 9.94321302,16.0563967 C9.89948102,16.1908588 9.85991397,16.3258193 9.8244375,16.4609458 L9.06098681,8.61463662 C9.19404217,8.69652646 9.33230372,8.74793601 9.41389217,8.77808409 C9.7559389,8.90424096 10.2388503,9.01644499 10.849239,9.11162324 C12.0814699,9.30388996 13.7168832,9.40969894 15.4541891,9.40969894 C17.1914949,9.40969894 18.8269082,9.30388996 20.0592136,9.11162324 Z"/>
</svg>
