<svg xmlns="http://www.w3.org/2000/svg" width="32" height="32" viewBox="0 0 32 32">
  <path fill="#D28445" fill-rule="evenodd" d="M7,6 L8.6015534,24.0100971 L15.8108738,26 L23.0201942,24.0100971 L24.6217476,6 L7,6 L7,6 Z M10.3258252,10.2718447 L10.2776699,9.68932039 L15.8124272,9.68932039 L15.8124272,11.8982524 L12.7056311,11.8982524 L12.8998058,14.1553398 L15.8124272,14.1553398 L15.8124272,16.3642718 L10.8850485,16.3642718 L10.3273786,10.2718447 L10.3258252,10.2718447 Z M20.8842718,14.7378641 L20.3499029,20.5631068 L20.3250485,20.9266019 L15.8108738,22.1895146 L11.296699,20.9266019 L10.9813592,17.4563107 L13.1902913,17.4563107 L13.3363107,19.2287379 L15.8124272,19.8842718 L18.2636893,19.2287379 L18.5308738,16.3642718 L15.8124272,16.3642718 L15.8124272,14.1553398 L20.9339806,14.1553398 L20.8858252,14.7378641 L20.8842718,14.7378641 Z M21.2726214,10.2718447 L21.1747573,11.3887379 L21.1266019,11.8982524 L15.8108738,11.8982524 L15.8108738,9.68932039 L21.3207767,9.68932039 L21.2726214,10.2718447 L21.2726214,10.2718447 Z"/>
</svg>
