<svg xmlns="http://www.w3.org/2000/svg" width="16" height="16" viewBox="0 0 16 16">
  <defs>
    <style>
      .i-color {
        fill: #000;
        fill-rule: evenodd;
      }
    </style>
  </defs>
  <path id="file_type_js.svg" class="i-color" d="M11.087,7.1a1.913,1.913,0,0,0-1.229.528,1.6,1.6,0,0,0-.474,1.2,1.792,1.792,0,0,0,.977,1.66,7.056,7.056,0,0,0,.81.389,2.638,2.638,0,0,1,.886.489,0.611,0.611,0,0,1,.1.66,0.7,0.7,0,0,1-.118.156,0.972,0.972,0,0,1-.706.24,1.365,1.365,0,0,1-1.208-.668,0.719,0.719,0,0,0-.086-0.111c-0.012,0-1.017.58-1.038,0.6s0,0.04.049,0.124a2.434,2.434,0,0,0,1.876,1.186,4.069,4.069,0,0,0,.85,0A2.129,2.129,0,0,0,13.024,13a1.646,1.646,0,0,0,.493-1.247,1.846,1.846,0,0,0-.177-0.842,1.515,1.515,0,0,0-.314-0.44,4.011,4.011,0,0,0-1.359-.805A2.53,2.53,0,0,1,10.821,9.2a0.566,0.566,0,0,1-.153-0.446A0.492,0.492,0,0,1,10.8,8.422a0.6,0.6,0,0,1,.5-0.192,0.74,0.74,0,0,1,.588.235,1.385,1.385,0,0,1,.172.209,0.212,0.212,0,0,0,.082.1c0.034-.015.994-0.635,0.994-0.644s-0.049-.082-0.108-0.172a2.242,2.242,0,0,0-.512-0.532A1.994,1.994,0,0,0,11.5,7.1,1.9,1.9,0,0,0,11.087,7.1ZM6.976,9.5l0,2.335-0.029.11a0.622,0.622,0,0,1-.162.309,0.638,0.638,0,0,1-.491.158,0.837,0.837,0,0,1-.779-0.547,0.694,0.694,0,0,0-.077-0.114L4.9,12.069l-0.522.317,0.04,0.079a1.973,1.973,0,0,0,1.138.992,2.606,2.606,0,0,0,1.678-.04,1.662,1.662,0,0,0,1.023-1.459c0.008-.074.013-0.9,0.013-2.452V7.165H6.981ZM13.482,15H2.518A1.519,1.519,0,0,1,1,13.482V2.518A1.519,1.519,0,0,1,2.518,1H13.482A1.519,1.519,0,0,1,15,2.518V13.482A1.519,1.519,0,0,1,13.482,15ZM2.518,1.705a0.814,0.814,0,0,0-.813.813V13.482a0.814,0.814,0,0,0,.813.813H13.482a0.814,0.814,0,0,0,.813-0.813V2.518a0.814,0.814,0,0,0-.813-0.813H2.518Z" transform="translate(0 -1)"/>
</svg>
