<svg xmlns="http://www.w3.org/2000/svg" width="16" height="16" viewBox="0 0 16 16">
  <defs>
    <style>
      .i-color {
        fill: #000;
        fill-rule: evenodd;
      }
    </style>
  </defs>
  <path id="file_type_jsx.svg" class="i-color" d="M9.8,8.536l1.3,2.429L9.714,13.518H10.7L11.661,11.8l0.964,1.714h0.982l-1.393-2.553L13.5,8.536H12.518l-0.857,1.589L10.8,8.536h-1Zm-2.714.107A1.594,1.594,0,0,1,9.2,9.321l-0.768.5a0.829,0.829,0,0,0-.635-0.429,0.437,0.437,0,0,0-.5.461c0.015,0.5.671,0.5,1.458,1A1.294,1.294,0,0,1,9.494,12a1.254,1.254,0,0,1-.767,1.347A2.116,2.116,0,0,1,6.018,12.5l0.8-.464a0.977,0.977,0,0,0,1.648.259c0.2-.491-0.4-0.683-1.151-1.015a1.633,1.633,0,0,1-.98-1.078A1.318,1.318,0,0,1,7.089,8.643ZM3.25,12.125l-0.821.5A1.625,1.625,0,0,0,4,13.544a1.37,1.37,0,0,0,1.446-1.277v-3.7h-1v3.607a0.638,0.638,0,0,1-.2.366A0.708,0.708,0,0,1,3.7,12.6,1.2,1.2,0,0,1,3.25,12.125ZM15,13.428V2.572A1.535,1.535,0,0,0,13.429,1H2.571A1.559,1.559,0,0,0,1,2.572V13.428A1.559,1.559,0,0,0,2.571,15H13.429A1.535,1.535,0,0,0,15,13.428Zm-0.822,0a0.715,0.715,0,0,1-.75.732H2.571a0.71,0.71,0,0,1-.732-0.732V2.572A0.71,0.71,0,0,1,2.571,1.84H13.429a0.715,0.715,0,0,1,.75.732V13.428Z" transform="translate(0 -1)"/>
</svg>
