<svg xmlns="http://www.w3.org/2000/svg" width="16" height="16" viewBox="0 0 16 16">
  <defs>
    <style>
      .i-color {
        fill: #000;
        fill-rule: evenodd;
      }
    </style>
  </defs>
  <path id="file_type_less.svg" class="i-color" d="M10.415,9.065c-0.165-.086-0.337-0.16-0.507-0.234S9.592,8.7,9.436,8.634A2.36,2.36,0,0,1,9.188,8.5a0.552,0.552,0,0,1-.307-0.576A0.521,0.521,0,0,1,9.358,7.5a2.754,2.754,0,0,1,1.492.192L11.064,6.7C10.617,6.629,10.2,6.537,9.773,6.5a2.329,2.329,0,0,0-1.3.261,1.514,1.514,0,0,0-.117,2.494C8.6,9.4,8.869,9.518,9.125,9.647c0.277,0.14.563,0.263,0.827,0.426a0.483,0.483,0,0,1,.208.528,0.432,0.432,0,0,1-.4.374A3.9,3.9,0,0,1,8.883,11a9.763,9.763,0,0,1-1.037-.239c-0.046.232-.082,0.464-0.141,0.689a0.24,0.24,0,0,0,.184.35,4.369,4.369,0,0,0,2.123.135,1.4,1.4,0,0,0,1.26-1.141A1.479,1.479,0,0,0,10.415,9.065ZM6.307,6.723A2.234,2.234,0,0,0,3.249,7.856a3.538,3.538,0,0,0-.035,2.769,1.952,1.952,0,0,0,1.047,1.117,3.67,3.67,0,0,0,2.73.006A0.2,0.2,0,0,0,7.1,11.6c-0.035-.285-0.087-0.567-0.134-0.852a3.438,3.438,0,0,1-1.758.185A1.225,1.225,0,0,1,4.177,9.613H7.408a4.108,4.108,0,0,0-.173-1.819A1.911,1.911,0,0,0,6.307,6.723Zm-2.135,2A1.159,1.159,0,0,1,5.239,7.493,1.052,1.052,0,0,1,6.3,8.719H4.173ZM15,10.793a1.478,1.478,0,0,0-.857-1.727c-0.165-.086-0.337-0.16-0.507-0.234s-0.316-.128-0.472-0.2A2.361,2.361,0,0,1,12.913,8.5a0.552,0.552,0,0,1-.307-0.576A0.521,0.521,0,0,1,13.083,7.5a2.754,2.754,0,0,1,1.492.192L14.789,6.7c-0.447-.071-0.867-0.163-1.291-0.2a2.329,2.329,0,0,0-1.3.261,1.515,1.515,0,0,0-.116,2.494c0.246,0.149.511,0.261,0.767,0.391,0.277,0.14.563,0.263,0.827,0.426a0.483,0.483,0,0,1,.208.528,0.432,0.432,0,0,1-.4.374,3.9,3.9,0,0,1-.872.023,9.772,9.772,0,0,1-1.037-.239c-0.046.232-.082,0.464-0.141,0.689a0.239,0.239,0,0,0,.184.35,4.366,4.366,0,0,0,2.124.135A1.4,1.4,0,0,0,15,10.793ZM0.984,4.96a0.455,0.455,0,0,1,.091.028V5.27c0,1.692,0,3.385,0,5.077a1.492,1.492,0,0,0,.47,1.29,2.064,2.064,0,0,0,1.263.332l0.15-.961a0.766,0.766,0,0,1-.752-0.964q0-2.868,0-5.736V4.013C2.145,4.007,2.108,4,2.071,4,1.463,4.014,1,4,1,4" transform="translate(0 -1)"/>
</svg>
