<svg xmlns="http://www.w3.org/2000/svg" width="16" height="16" viewBox="0 0 16 16">
  <defs>
    <style>
      .i-color {
        fill: #000;
        fill-rule: evenodd;
      }
    </style>
  </defs>
  <path id="file_type_lisp.svg" class="i-color" d="M13.731,7.093A0.954,0.954,0,0,0,12.681,8.18v2.279a0.808,0.808,0,1,1-1.612.063V7.571A2.455,2.455,0,0,1,13.6,5.413a0.845,0.845,0,0,0,0-1.688H5.384A1.016,1.016,0,0,0,4.229,4.8V9.7a0.822,0.822,0,1,1-1.643,0V4.71A2.7,2.7,0,0,1,5.334,2h8.225C16.853,2.073,16.624,6.83,13.731,7.093ZM7.539,9.677a0.84,0.84,0,1,1,.011,1.679H2.805a1.058,1.058,0,0,1-1.157-1.142V4.632A0.83,0.83,0,1,0,0,4.618v5.789A2.557,2.557,0,0,0,2.475,13H7.816c2.783,0.011,3.4-4.819-.166-4.987a0.845,0.845,0,1,1,0-1.688H10.07a0.864,0.864,0,0,0,0-1.725H7.488A2.541,2.541,0,0,0,7.539,9.677Z" transform="translate(0 0)"/>
</svg>
