<?xml version="1.0" encoding="UTF-8" standalone="no"?>
<!-- Generator: Adobe Illustrator 20.0.0, SVG Export Plug-In . SVG Version: 6.00 Build 0)  -->

<svg
   xmlns:dc="http://purl.org/dc/elements/1.1/"
   xmlns:cc="http://creativecommons.org/ns#"
   xmlns:rdf="http://www.w3.org/1999/02/22-rdf-syntax-ns#"
   xmlns:svg="http://www.w3.org/2000/svg"
   xmlns="http://www.w3.org/2000/svg"
   xmlns:sodipodi="http://sodipodi.sourceforge.net/DTD/sodipodi-0.dtd"
   xmlns:inkscape="http://www.inkscape.org/namespaces/inkscape"
   version="1.1"
   id="Layer_1"
   x="0px"
   y="0px"
   viewBox="0 0 141.7 141.7"
   style="enable-background:new 0 0 141.7 141.7;"
   xml:space="preserve"
   inkscape:version="0.91 r13725"
   sodipodi:docname="ocaml.svg"><metadata
   id="metadata69"><rdf:RDF><cc:Work
       rdf:about=""><dc:format>image/svg+xml</dc:format><dc:type
         rdf:resource="http://purl.org/dc/dcmitype/StillImage" /></cc:Work></rdf:RDF></metadata><defs
   id="defs67" /><sodipodi:namedview
   pagecolor="#ffffff"
   bordercolor="#666666"
   borderopacity="1"
   objecttolerance="10"
   gridtolerance="10"
   guidetolerance="10"
   inkscape:pageopacity="0"
   inkscape:pageshadow="2"
   inkscape:window-width="1366"
   inkscape:window-height="705"
   id="namedview65"
   showgrid="false"
   inkscape:zoom="1.6654905"
   inkscape:cx="-60.342584"
   inkscape:cy="69.649151"
   inkscape:window-x="-8"
   inkscape:window-y="-8"
   inkscape:window-maximized="1"
   inkscape:current-layer="Layer_1" />
<style
   type="text/css"
   id="style3">
	.st0{fill:#FFFFFF;}
	.st1{fill:#494545;}
	.st2{fill:url(#SVGID_1_);}
	.st3{fill:url(#SVGID_2_);}
	.st4{fill:url(#SVGID_3_);}
	.st5{fill:url(#SVGID_4_);}
	.st6{font-family:'MyriadPro-Regular';}
	.st7{font-size:12px;}
</style>
<g
   id="g5"
   transform="matrix(0.86488355,0,0,0.86488355,9.5932674,33.471228)">
	<path
   class="st0"
   d="m 73.9,89.8 c -0.2,-1.2 0.2,-2.4 -0.2,-3.6 -0.3,-1 -1,-1.1 -1.5,-1.9 -1.3,-2.1 -2.5,-4.9 -2.7,-7.5 -0.1,-2.3 -1,-4.5 -1.1,-6.8 -0.1,-1.1 0.1,-2.3 0,-3.4 0,-0.5 -0.1,-1 -0.2,-1.6 0,-0.1 -0.1,-0.7 -0.2,-1 l 0.3,-0.7 c -0.1,-0.2 2.5,-0.2 3.3,-0.2 1.3,0 2.6,0.1 3.9,0.1 2.7,0.1 5.2,0.1 7.8,-0.3 5.9,-0.9 8.6,-3.3 9.9,-4.3 5.4,-3.9 7.8,-10.2 7.8,-10.2 0.9,-2 0.9,-5.5 2.8,-7.1 2.2,-1.9 6,-1.7 8.6,-2.9 1.5,-0.7 2.6,-1 4.1,-0.7 1.1,0.2 3.2,1.6 3.7,-0.3 -0.4,-0.2 -0.5,-0.7 -0.7,-0.9 2.1,-0.2 0,-5.1 -0.8,-6.1 -1.3,-1.5 -3.5,-2.2 -5.8,-2.8 -2.7,-0.7 -5.2,-1.6 -7.8,-1.1 -4.5,0.9 -4.2,-1.7 -6.8,-1.7 -3.2,0 -8.8,0.2 -9.8,3.2 -0.5,1.4 -0.9,1.5 -1.7,2.6 -0.7,0.9 0.1,1.8 -0.2,2.9 -0.4,1.1 -0.9,5 -1.4,6.4 -0.9,2.3 -2,5.2 -4,5.2 -2.8,0.3 -5,0.4 -7.3,-0.4 C 72.5,44.2 70.2,43.4 69.1,43 63.9,40.8 63,38.4 63,38.4 62.4,37.5 61,36 60.4,34 c -0.6,-2.1 -1.6,-3.9 -2,-5.1 -0.4,-1.2 -1.5,-3 -2.3,-5 -1,-2.6 -2.5,-4.5 -3.6,-5.4 -1.6,-1.4 -3.1,-3.7 -6.4,-3 -0.6,0.1 -2.7,0.2 -4.4,1.6 -1.1,0.9 -1.5,2.9 -2.5,4.5 -0.6,0.9 -1.6,3.6 -2.6,5.9 -0.7,1.6 -1,2.7 -1.7,3.3 -0.6,0.4 -1.3,1 -2.1,0.7 -0.5,-0.2 -1.1,-0.5 -1.6,-1 -0.8,-0.6 -2.5,-3.6 -3.6,-5.7 -0.9,-1.9 -2.9,-4.7 -4,-6.3 -1.6,-2.2 -2.6,-2.8 -5,-2.8 -5.2,0 -5.6,2.9 -7.9,7.2 -1,1.9 -1.4,4.8 -3.4,7.1 -1.2,1.3 -4.8,6.8 -7.4,7.7 l 0,0 0,0 0,38.8 0,0.1 0,-0.2 c 0.2,-0.5 0.3,-1 0.5,-1.4 1,-2.1 3.3,-4.1 4.6,-6.2 0.7,-1.2 1.5,-2.3 1.9,-3.6 0.4,-1.1 0.6,-2.7 1.2,-3.6 0.7,-1.1 1.8,-1.5 2.9,-1.7 1.8,-0.3 3.3,2.5 5.5,3.6 1,0.4 5.4,2 6.7,2.3 2.2,0.5 4.6,1 6.8,1.4 1.2,0.2 2.3,0.4 3.6,0.5 1.1,0.1 5.2,0.2 5.5,0.5 -2.1,1.1 -3.3,4.1 -4.1,6.2 -0.8,2.2 -1.4,4.7 -2.4,6.8 -1.1,2.4 -3.4,3.4 -3.1,6.2 0.1,1.1 0.3,2.3 0.1,3.5 -0.2,1.3 -0.7,2.3 -1.1,3.5 -0.5,1.6 -1.1,6.9 -1.8,8.5 l 4.6,-0.6 0,0 c 0.5,-1.2 1,-6.2 1.1,-6.7 0.9,-2.5 2,-4.6 3.7,-6.5 1.7,-1.9 1.6,-4.3 2.6,-6.6 1.1,-2.4 2.5,-4.3 3.9,-6.6 2.5,-4.1 4.1,-9.2 9.4,-10.3 0.6,-0.1 3.8,2.2 5.2,3.6 1.6,1.6 3.4,3.4 4.5,5.6 2.1,4.2 3.8,10.3 4.5,13.6 0.4,1.9 0.7,2 2,3.6 0.6,0.7 1.8,2.9 2.2,3.7 0.4,0.9 1,2.9 1.5,4 0.3,0.6 1.1,2.5 1.6,4.2 l 4.3,-0.1 c 0,0 0.1,0 0.1,0 0,0 0,0 0,0 0,0 0,-0.1 0,-0.1 -2,-4.2 -3.3,-9.1 -4,-13.9 z"
   id="path7"
   inkscape:connector-curvature="0"
   style="fill:#ffffff" />
	<path
   class="st1"
   d="m 71.1,64.9 0,0 c 0,-0.2 0,-0.2 0,0 z"
   id="path9"
   inkscape:connector-curvature="0"
   style="fill:#494545" />
	<g
   id="g11">
		<g
   id="g13">
			
				<linearGradient
   id="SVGID_1_"
   gradientUnits="userSpaceOnUse"
   x1="-686.854"
   y1="80.556198"
   x2="-686.854"
   y2="80.399902"
   gradientTransform="matrix(1,0,0,-1,758,145.28)">
				<stop
   offset="0"
   style="stop-color:#F29104"
   id="stop16" />
				<stop
   offset="1"
   style="stop-color:#EC6813"
   id="stop18" />
			</linearGradient>
			<path
   class="st2"
   d="m 71.1,64.9 0,0 c 0,-0.2 0,-0.2 0,0 z"
   id="path20"
   style="fill:url(#SVGID_1_)"
   inkscape:connector-curvature="0" />
			<g
   id="g22">
				
					<linearGradient
   id="SVGID_2_"
   gradientUnits="userSpaceOnUse"
   x1="-705.42798"
   y1="79.472801"
   x2="-705.42798"
   y2="40.6105"
   gradientTransform="matrix(1,0,0,-1,758,145.28)">
					<stop
   offset="0"
   style="stop-color:#F29104"
   id="stop25" />
					<stop
   offset="1"
   style="stop-color:#EC6813"
   id="stop27" />
				</linearGradient>
				<path
   class="st3"
   d="m 72.1,99.9 c -0.5,-1 -1.1,-3.1 -1.5,-4 -0.4,-0.8 -1.6,-3 -2.2,-3.7 -1.3,-1.5 -1.6,-1.6 -2,-3.6 C 65.7,85.2 64,79.2 61.9,75 60.8,72.8 59,71 57.4,69.4 56,68 52.8,65.7 52.2,65.8 c -5.3,1 -6.9,6.2 -9.4,10.3 -1.4,2.3 -2.8,4.2 -3.9,6.6 -1,2.2 -0.9,4.7 -2.6,6.6 -1.7,1.9 -2.9,4 -3.7,6.5 -0.2,0.5 -0.6,5.5 -1.1,6.7 0,0 0,0 0,0 l 7.8,-0.5 c 7.3,0.5 5.2,3.3 16.5,2.7 l 17.9,-0.6 0,0 c -0.5,-1.7 -1.3,-3.6 -1.6,-4.2 z"
   id="path29"
   style="fill:url(#SVGID_2_)"
   inkscape:connector-curvature="0" />
			</g>
			<g
   id="g31">
				<g
   id="g33">
					
						<linearGradient
   id="SVGID_3_"
   gradientUnits="userSpaceOnUse"
   x1="-686.97717"
   y1="164.39481"
   x2="-686.97711"
   y2="40.638302"
   gradientTransform="matrix(1,0,0,-1,758,145.28)">
						<stop
   offset="0"
   style="stop-color:#F29104"
   id="stop36" />
						<stop
   offset="1"
   style="stop-color:#EC6813"
   id="stop38" />
					</linearGradient>
					<path
   class="st4"
   d="m 124.1,-19.1 -106.2,0 C 8,-19.1 0,-11.1 0,-1.2 l 0,39 0,0 c 2.6,-0.9 6.2,-6.4 7.4,-7.7 2,-2.3 2.4,-5.3 3.4,-7.1 2.3,-4.2 2.7,-7.2 7.9,-7.2 2.4,0 3.4,0.6 5,2.8 1.1,1.5 3.1,4.4 4,6.3 1.1,2.2 2.8,5.1 3.6,5.7 0.6,0.4 1.1,0.8 1.6,1 0.8,0.3 1.5,-0.3 2.1,-0.7 0.7,-0.6 1,-1.7 1.7,-3.3 1,-2.3 2,-4.9 2.6,-5.9 1,-1.6 1.4,-3.6 2.5,-4.5 1.6,-1.4 3.8,-1.5 4.4,-1.6 3.3,-0.7 4.8,1.6 6.4,3 1.1,1 2.5,2.9 3.6,5.4 0.8,2 1.8,3.9 2.3,5 0.4,1.1 1.4,2.9 2,5.1 0.6,1.9 2,3.4 2.6,4.4 0,0 0.9,2.4 6.1,4.6 1.1,0.5 3.4,1.3 4.8,1.7 2.3,0.8 4.5,0.7 7.3,0.4 2,0 3.1,-2.9 4,-5.2 0.5,-1.4 1.1,-5.3 1.4,-6.4 0.3,-1.1 -0.5,-1.9 0.2,-2.9 0.8,-1.1 1.3,-1.2 1.7,-2.6 1,-3.1 6.6,-3.2 9.8,-3.2 2.7,0 2.3,2.6 6.8,1.7 2.6,-0.5 5.1,0.3 7.8,1.1 2.3,0.6 4.5,1.3 5.8,2.8 0.8,1 2.9,5.9 0.8,6.1 0.2,0.2 0.4,0.7 0.7,0.9 -0.5,1.9 -2.5,0.5 -3.7,0.3 -1.5,-0.3 -2.6,0 -4.1,0.7 -2.6,1.1 -6.3,1 -8.6,2.9 -1.9,1.6 -1.9,5.1 -2.8,7.1 0,0 -2.5,6.3 -7.8,10.2 -1.4,1 -4.1,3.4 -9.9,4.3 -2.6,0.4 -5.1,0.4 -7.8,0.3 -1.3,-0.1 -2.6,-0.1 -3.9,-0.1 -0.8,0 -3.4,-0.1 -3.3,0.2 l -0.3,0.7 c 0,0.2 0.1,0.8 0.2,1 0.1,0.6 0.1,1.1 0.2,1.6 0,1.1 -0.1,2.3 0,3.4 0.1,2.3 1,4.4 1.1,6.8 0.1,2.6 1.4,5.4 2.7,7.5 0.5,0.8 1.2,0.9 1.5,1.9 0.4,1.1 0,2.4 0.2,3.6 0.7,4.7 2.1,9.7 4.2,14 0,0 0,0.1 0,0.1 0,0 0,0 0,0 2.6,-0.4 5.3,-1.4 8.7,-1.9 6.3,-0.9 15,-0.5 20.6,-1 14.2,-1.3 21.9,5.8 34.6,2.9 l 0,-105.2 c -0.1,-9.9 -8.1,-17.9 -18,-17.9 z m -53,84 c 0,-0.2 0,-0.2 0,0 l 0,0 z"
   id="path40"
   style="fill:url(#SVGID_3_)"
   inkscape:connector-curvature="0" />
				</g>
			</g>
			<g
   id="g42">
				
					<linearGradient
   id="SVGID_4_"
   gradientUnits="userSpaceOnUse"
   x1="-738.37762"
   y1="85.363998"
   x2="-738.37762"
   y2="41.492802"
   gradientTransform="matrix(1,0,0,-1,758,145.28)">
					<stop
   offset="0"
   style="stop-color:#F29104"
   id="stop45" />
					<stop
   offset="1"
   style="stop-color:#EC6813"
   id="stop47" />
				</linearGradient>
				<path
   class="st5"
   d="m 32.8,81.3 c 1,-2.2 1.6,-4.6 2.4,-6.8 0.8,-2.1 2,-5.1 4.1,-6.2 C 39,68 34.9,67.9 33.8,67.8 32.6,67.7 31.4,67.5 30.2,67.3 28,66.9 25.5,66.4 23.4,65.9 22.1,65.6 17.6,64 16.7,63.6 14.4,62.6 12.9,59.7 11.2,60 10.1,60.2 9,60.6 8.3,61.7 7.7,62.6 7.5,64.2 7.1,65.3 6.6,66.5 5.8,67.7 5.2,68.9 3.8,71 1.5,72.9 0.5,75 0.3,75.5 0.2,76 0,76.5 l 0,0.2 0,7.9 0,14 0,2 c 1.2,0.2 2.4,0.4 3.7,0.8 10,2.7 12.4,2.9 22.2,1.8 l 0.9,-0.1 0,0 c 0.7,-1.6 1.3,-6.9 1.8,-8.5 0.4,-1.3 0.9,-2.3 1.1,-3.5 0.2,-1.2 0,-2.4 -0.1,-3.5 -0.2,-2.9 2.1,-3.9 3.2,-6.3 z"
   id="path49"
   style="fill:url(#SVGID_4_)"
   inkscape:connector-curvature="0" />
			</g>
		</g>
	</g>
</g>
<text
   class="st6 st7"
   id="text51"
   x="10.810278"
   y="167.01149"
   style="font-size:10.37860203px;font-family:MyriadPro-Regular"> </text>







</svg>