<svg xmlns="http://www.w3.org/2000/svg" width="32" height="32" viewBox="0 0 32 32">
  <path fill="#AA759F" fill-rule="evenodd" d="M11.2650237,21.1139159 C11.4714065,22.0369394 11.4714065,22.9632476 11.0586408,23.8862711 C11.9791738,24.2968687 11.9791738,25.118064 11.9791738,25.9392592 L12.0807273,25.9392592 C13.1060897,26.0410874 14.0266227,26.0410874 14.9471557,25.732318 C15.3566455,25.6304898 15.458199,25.5253768 15.3566455,25.1147792 C15.2550921,24.3954122 15.1502627,23.5742169 15.0487092,22.8548499 C15.0487092,22.237311 15.1502627,21.623057 15.5597525,21.1106311 C15.8676888,20.5982053 16.1756251,20.4930923 16.7882218,20.7000335 C17.9151377,21.1106311 19.0420535,21.1106311 20.1656935,20.4930923 C20.5751833,20.2861511 20.984673,20.3912641 21.2926094,20.7000335 C21.6005457,21.1106311 21.7020991,21.623057 21.6005457,22.1387676 C21.4989922,22.6544782 21.3941628,23.2687323 21.1910559,23.8829863 C22.0100354,24.2935839 21.908482,25.1147792 21.908482,25.9359744 L24.1623137,25.9359744 C24.5718035,25.9359744 25.0828467,25.8341462 25.4923365,25.627205 C26.1082091,25.4202638 26.3113161,25.0096662 26.2097626,24.3954122 C26.1082091,23.1636193 25.9018263,22.0336546 25.8002728,20.8018617 C25.8002728,20.2894359 25.8002728,19.7737253 25.9018263,19.1594712 C25.9018263,19.057643 26.0033798,18.7488736 26.1082091,18.6470454 C27.1335716,17.6189089 27.7461683,16.2852878 28.155658,14.9516668 C28.155658,14.8498385 28.155658,14.6428973 28.2572115,14.5410691 C28.2572115,14.3341279 28.358765,14.3341279 28.5651478,14.5410691 C28.6667013,14.7480103 28.8730841,14.9516668 28.9746376,15.158608 C29.1810204,15.3655492 29.3841274,15.5692056 29.5905102,15.6710338 C29.7968931,15.877975 30,15.772862 30,15.5692056 C29.8984465,15.158608 29.8984465,14.7480103 29.7936172,14.4392409 C29.0761911,11.8738269 27.7461683,9.82083882 25.4923365,8.38210474 C24.0574843,7.45908127 22.5243546,6.94337065 20.7815661,6.84154244 C19.3467139,6.63460124 17.9151377,6.73971423 16.4802855,7.04848365 C16.2739026,7.04848365 16.1723492,7.15031186 16.0707957,7.15031186 C15.8644129,7.25214007 15.7628594,7.45908127 15.8644129,7.66273769 C15.8644129,8.07333532 15.9659663,8.38210474 16.0707957,8.79270236 C16.378732,10.7438623 16.1723492,12.5899092 14.9438798,14.1304715 C13.9185174,15.5692056 12.3853877,16.1834596 10.6425992,15.9798032 C10.131556,15.9798032 9.82361964,15.6710338 9.61723679,15.2604362 C9.10619355,14.5410691 9.00136417,13.7198739 8.79825724,12.8986786 C8.8998107,13.0005068 8.8998107,13.1056198 9.00464008,13.207448 C9.00464008,13.207448 9.00464008,13.3092762 9.10619355,13.4143892 L10.0267266,14.9549515 C10.5377698,15.5724904 10.9472596,15.6743186 11.7662391,15.4673774 C13.6105811,14.9549515 15.0421574,13.312561 15.2485402,11.3614011 C15.2485402,10.3332647 15.2485402,9.41024119 14.9406039,8.48721773 C14.4295607,7.04848365 13.4041983,6.33240139 11.972622,6.12546018 C10.2331094,5.81669077 8.69670377,6.12546018 7.05874466,6.53605781 C6.44287203,6.74299901 5.83027532,6.84482722 5.31923208,7.04848365 C4.50025252,7.45908127 3.98920928,8.17844831 3.5797195,8.89781535 C2.35125017,10.7471471 1.84020692,12.9019634 2.04331385,15.158608 C2.14486732,17.1097679 2.96384687,18.7521584 4.60180599,20.0857795 C5.21767861,20.5982053 5.83027532,21.2157441 6.44614795,21.72817 C6.6525308,21.8299982 6.75408426,22.0369394 6.75408426,22.2405958 C6.96046711,22.5493652 6.85563773,22.8581346 6.54770141,23.1636193 C6.44614795,23.1636193 6.34131857,23.2654475 6.2397651,23.3705605 C5.72872186,23.6793299 5.62389247,24.0899275 6.03338225,24.5005251 C6.44287203,24.8092946 6.85236181,25.012951 7.36340505,25.012951 C7.46495852,25.012951 7.5697879,25.012951 7.67134137,24.9111228 C8.49032092,24.1917557 8.8998107,23.3705605 9.00136417,22.3457088 C9.00136417,21.833283 8.79498132,21.4226853 8.49032092,21.1139159 C8.28393807,20.7033183 7.8744483,20.3945489 7.5697879,19.9839513 C7.46823444,19.7770101 7.26185159,19.5733536 7.05874466,19.2645842 C6.95719119,19.057643 6.85236181,18.8539866 6.95719119,18.5452172 C7.16357404,18.338276 7.46823444,18.1346196 7.77617075,18.2364478 C8.18566053,18.338276 8.59515031,18.5452172 8.90308662,18.7488736 C9.3125764,18.8507018 9.62051271,19.057643 9.92844902,19.2612994 C10.848982,19.5700689 11.1569184,20.2894359 11.2584718,21.1106311 L11.2650237,21.1139159 Z M5.63372023,18.0327913 C5.22423045,18.3415608 4.81474067,18.443389 4.30369743,18.443389 L3.6878248,18.443389 C3.37988849,18.3415608 3.27833502,18.1346196 3.37988849,17.8258501 C3.48144195,17.7240219 3.48144195,17.6189089 3.58627134,17.6189089 C3.99576112,17.1064831 4.30369743,16.6958855 4.71318721,16.2852878 C4.81474067,16.0783466 5.02112352,16.0783466 5.22423045,16.1834596 C5.63372023,16.3904008 6.04321001,17.0046549 5.94165654,17.5170807 C5.94165654,17.6189089 5.73527369,17.8258501 5.63372023,18.0295066 L5.63372023,18.0327913 Z M5.73527369,13.312561 C5.73527369,13.6213304 5.42733738,13.9300999 5.11940107,13.9300999 C4.70991129,13.9300999 4.50352844,13.6213304 4.40197498,13.312561 C4.40197498,12.9019634 4.70991129,12.593194 5.0178476,12.593194 C5.42733738,12.6950222 5.63372023,12.9019634 5.73527369,13.312561 L5.73527369,13.312561 Z"/>
</svg>
