<svg xmlns="http://www.w3.org/2000/svg" width="33" height="32" viewBox="0 0 33 32">
  <g fill="#F4BF75" fill-rule="evenodd" transform="translate(4 7)">
    <path d="M12.8238966,16.1424521 C12.9024015,16.1400598 12.9808908,16.1369585 13.0593554,16.1331481 C12.8819036,16.0138547 12.6690142,15.9443678 12.4401089,15.9443678 C12.2104308,15.9443678 11.996877,16.0143247 11.8190664,16.134358 C11.8975339,16.1380151 11.9760252,16.1409632 12.054531,16.1432023 C12.1732977,16.0932933 12.3035287,16.0657471 12.4401089,16.0657471 C12.5760032,16.0657471 12.705612,16.0930174 12.8238966,16.1424521 Z M13.0593554,16.1331481 C13.3621061,16.3366746 13.561706,16.6851768 13.561706,17.0809195 C13.561706,17.7086197 13.0595499,18.2174713 12.4401089,18.2174713 C11.8206679,18.2174713 11.3185118,17.7086197 11.3185118,17.0809195 C11.3185118,16.6859599 11.5173225,16.338054 11.8190664,16.134358 C10.473646,16.0716527 9.13521837,15.8005066 7.85027223,15.3209195 C7.58348457,15.2216092 7.35480944,14.896092 7.35480944,14.6147126 L7.35480944,14.3223618 C4.81304644,13.014377 3.13588929,10.7670694 3.13588929,8.21422263 C3.13588929,8.2098681 3.13589417,8.20551447 3.13590393,8.20116173 C2.69868753,7.75590176 2.09755594,7.15426122 1.57803993,6.88505747 C0.619782214,6.38850575 0.652450091,4.78298851 0.652450091,4.78298851 C0.652450091,4.78298851 0.636116152,1.98574713 4.50725953,1.15816092 C7.15897681,0.594253943 8.41956346,1.08436113 8.94979682,1.4477999 C10.0477607,1.09587033 11.2502683,0.901797951 12.5108893,0.901797951 C13.7531169,0.901797951 14.9389144,1.09024831 16.0238547,1.43249604 C16.5669298,1.0708722 17.8290688,0.602132338 20.4437387,1.15816092 C24.314882,1.98574713 24.2985481,4.78298851 24.2985481,4.78298851 C24.2985481,4.78298851 24.331216,6.38850575 23.3729583,6.88505747 C22.8807175,7.14012767 22.3152061,7.69364423 21.8852775,8.12980911 C21.885685,8.15790916 21.8858893,8.18604729 21.8858893,8.21422263 C21.8858893,10.8285447 20.1269841,13.122435 17.4818512,14.4152118 L17.4818512,14.6147126 C17.4818512,14.896092 17.2749546,15.2216092 17.0027223,15.3209195 C15.7258712,15.7974852 14.3962103,16.0682281 13.0593554,16.1331481 Z M12.6034483,12.8401124 C12.9363013,12.8815165 13.3669705,13.0763887 13.7794918,13.2022989 C14.2096189,13.3567816 14.623412,13.4174713 14.4600726,13.4395402 C13.8938294,13.4616092 13.2731397,13.2464368 12.5108893,13.2574713 C11.7431942,13.2464368 11.1225045,13.4616092 10.561706,13.4395402 C10.3983666,13.411954 10.8121597,13.3512644 11.2422868,13.2022989 C11.6376659,13.0816209 12.0455482,12.8975931 12.3747731,12.8460531 L12.3747731,9.70436782 L12.6034483,9.70436782 L12.6034483,12.8401124 Z M16.9128944,14.1999987 C16.4696728,14.9498501 15.7302142,14.5846291 15.1733212,14.874023 C14.3021779,15.3043678 13.4201452,15.1333333 12.4945554,15.1333333 L12.4782214,15.1333333 C11.5526316,15.1333333 10.6705989,15.2988506 9.79945554,14.8685057 C9.25337269,14.5865369 8.53841628,14.9260227 8.09321373,14.2500265 C7.88032186,14.1817972 7.66861043,14.1084167 7.45825771,14.0298851 C7.42558984,14.0188506 7.4092559,14.0022989 7.35480944,13.9802299 L7.35480944,14.3223618 C8.83405276,15.0835766 10.606134,15.5266473 12.5108893,15.5266473 C14.3368293,15.5266473 16.0408477,15.1194849 17.4818512,14.4152118 L17.4818512,13.9802299 C17.4818512,13.9967816 17.4274047,14.0133333 17.3947368,14.0298851 C17.2348813,14.0895645 17.074241,14.146269 16.9128944,14.1999987 Z M16.9128944,14.1999987 C17.1456678,13.8061879 17.2967332,13.1048185 17.2967332,11.8395402 C17.2912886,10.8243678 17.6016334,10.3609195 16.7413793,9.3016092 C15.9083485,8.26436782 14.3294011,7.24367816 12.4945554,7.24367816 L12.4782214,7.24367816 L12.4727768,7.24367816 C10.6324864,7.24367816 9.05353902,8.26436782 8.22595281,9.3016092 C7.36569873,10.3609195 7.67604356,10.8243678 7.67604356,11.834023 C7.67604356,13.1611147 7.84151957,13.8678537 8.09321373,14.2500265 C10.9641435,15.170125 14.0497461,15.1534491 16.9128944,14.1999987 Z M6.5,8.96505747 C7.33895161,8.96505747 8.01905626,8.27588476 8.01905626,7.42574713 C8.01905626,6.5756095 7.33895161,5.88643678 6.5,5.88643678 C5.66104839,5.88643678 4.98094374,6.5756095 4.98094374,7.42574713 C4.98094374,8.27588476 5.66104839,8.96505747 6.5,8.96505747 Z M18.4727768,8.96505747 C19.3117284,8.96505747 19.991833,8.27588476 19.991833,7.42574713 C19.991833,6.5756095 19.3117284,5.88643678 18.4727768,5.88643678 C17.6338252,5.88643678 16.9537205,6.5756095 16.9537205,7.42574713 C16.9537205,8.27588476 17.6338252,8.96505747 18.4727768,8.96505747 Z M3.13590393,8.20116173 C3.50514195,8.57719271 3.75747333,8.84169085 3.74500907,8.70022989 C3.22232305,2.60367816 9.28221416,1.75402299 9.28221416,1.75402299 C9.28221416,1.75402299 9.1925427,1.61418563 8.94979682,1.4477999 C5.543025,2.53977 3.14273903,5.1514978 3.13590393,8.20116173 Z M21.8852775,8.12980911 C21.8412889,5.0964985 19.4294533,2.5068026 16.0238547,1.43249604 C15.764012,1.6055205 15.668784,1.75402299 15.668784,1.75402299 C15.668784,1.75402299 21.7286751,2.60367816 21.2059891,8.70022989 C21.19275,8.85048506 21.478253,8.54273764 21.8852775,8.12980911 Z M12.6034483,12.8401124 C12.5716701,12.8361594 12.5407834,12.8336054 12.5108893,12.8326437 C12.4673026,12.8340239 12.4218417,12.8386845 12.3747731,12.8460531 L12.3747731,13.0036782 L12.6034483,13.0036782 L12.6034483,12.8401124 Z M12.8238966,16.1424521 C12.5675003,16.1502653 12.310938,16.1505154 12.054531,16.1432023 C11.6895584,16.2965736 11.4328494,16.6611267 11.4328494,17.0864368 C11.4328494,17.6501481 11.8838148,18.1071264 12.4401089,18.1071264 C12.996403,18.1071264 13.4473684,17.6501481 13.4473684,17.0864368 C13.4473684,16.6604317 13.1898197,16.2953823 12.8238966,16.1424521 Z M12.7341198,16.7609195 C12.7940109,16.816092 12.8266788,16.8933333 12.8266788,17.0036782 C12.8266788,17.114023 12.7940109,17.1912644 12.7341198,17.2464368 C12.668784,17.296092 12.576225,17.3236782 12.4455535,17.3236782 L12.331216,17.3236782 L12.331216,17.571954 L12.1352087,17.571954 L12.1352087,16.6836782 L12.4455535,16.6836782 C12.576225,16.6836782 12.6742287,16.7112644 12.7341198,16.7609195 Z M12.592559,17.1085057 C12.6143376,17.0809195 12.6252269,17.0422989 12.6252269,16.9926437 C12.6252269,16.9429885 12.6088929,16.9043678 12.5816697,16.8822989 C12.5544465,16.8602299 12.5054446,16.8491954 12.4401089,16.8491954 L12.331216,16.8491954 L12.331216,17.1471264 L12.4618875,17.1471264 C12.5272232,17.1526437 12.5707804,17.136092 12.592559,17.1085057 Z"/>
    <g transform="translate(6.25 7.6)">
      <ellipse cx="6.19" cy="9.363" rx=".419" ry=".425"/>
      <ellipse cx=".637" cy=".403" rx=".392" ry=".397"/>
      <ellipse cx="12.615" cy=".403" rx=".392" ry=".397"/>
      <path d="M7.65471869,2.31172414 C7.83439201,2.71448276 7.21370236,3.37103448 6.22822142,3.37103448 C5.24274047,3.37103448 4.62205082,2.71448276 4.80172414,2.31172414 C4.97595281,1.89793103 5.60208711,1.76551724 6.22822142,1.76 C6.85435572,1.76551724 7.48049002,1.89793103 7.65471869,2.31172414 L7.65471869,2.31172414 Z"/>
    </g>
  </g>
</svg>
