<?xml version="1.0" encoding="UTF-8" standalone="no"?>
<svg
   xmlns:dc="http://purl.org/dc/elements/1.1/"
   xmlns:cc="http://creativecommons.org/ns#"
   xmlns:rdf="http://www.w3.org/1999/02/22-rdf-syntax-ns#"
   xmlns:svg="http://www.w3.org/2000/svg"
   xmlns="http://www.w3.org/2000/svg"
   xmlns:sodipodi="http://sodipodi.sourceforge.net/DTD/sodipodi-0.dtd"
   xmlns:inkscape="http://www.inkscape.org/namespaces/inkscape"
   version="1.1"
   width="24"
   height="24"
   viewBox="0 0 24 24"
   id="svg2"
   inkscape:version="0.91 r13725"
   sodipodi:docname="language-python.svg">
  <metadata
     id="metadata10">
    <rdf:RDF>
      <cc:Work
         rdf:about="">
        <dc:format>image/svg+xml</dc:format>
        <dc:type
           rdf:resource="http://purl.org/dc/dcmitype/StillImage" />
      </cc:Work>
    </rdf:RDF>
  </metadata>
  <defs
     id="defs8" />
  <sodipodi:namedview
     pagecolor="#ffffff"
     bordercolor="#666666"
     borderopacity="1"
     objecttolerance="10"
     gridtolerance="10"
     guidetolerance="10"
     inkscape:pageopacity="0"
     inkscape:pageshadow="2"
     inkscape:window-width="1366"
     inkscape:window-height="705"
     id="namedview6"
     showgrid="false"
     inkscape:zoom="9.8333333"
     inkscape:cx="12"
     inkscape:cy="11.898305"
     inkscape:window-x="-8"
     inkscape:window-y="-8"
     inkscape:window-maximized="1"
     inkscape:current-layer="svg2" />
  <path
     d="M19.14,7.5A2.86,2.86 0 0,1 22,10.36V14.14A2.86,2.86 0 0,1 19.14,17H12C12,17.39 12.32,17.96 12.71,17.96H17V19.64A2.86,2.86 0 0,1 14.14,22.5H9.86A2.86,2.86 0 0,1 7,19.64V15.89C7,14.31 8.28,13.04 9.86,13.04H15.11C16.69,13.04 17.96,11.76 17.96,10.18V7.5H19.14M14.86,19.29C14.46,19.29 14.14,19.59 14.14,20.18C14.14,20.77 14.46,20.89 14.86,20.89A0.71,0.71 0 0,0 15.57,20.18C15.57,19.59 15.25,19.29 14.86,19.29M4.86,17.5C3.28,17.5 2,16.22 2,14.64V10.86C2,9.28 3.28,8 4.86,8H12C12,7.61 11.68,7.04 11.29,7.04H7V5.36C7,3.78 8.28,2.5 9.86,2.5H14.14C15.72,2.5 17,3.78 17,5.36V9.11C17,10.69 15.72,11.96 14.14,11.96H8.89C7.31,11.96 6.04,13.24 6.04,14.82V17.5H4.86M9.14,5.71C9.54,5.71 9.86,5.41 9.86,4.82C9.86,4.23 9.54,4.11 9.14,4.11C8.75,4.11 8.43,4.23 8.43,4.82C8.43,5.41 8.75,5.71 9.14,5.71Z"
     id="path4" />
  <path
     style="fill:#ffcc00;fill-opacity:1;stroke:#ffcc00;stroke-width:0.10169491"
     d="M 9.2644068,22.379029 C 8.3694213,22.138073 7.6828822,21.580139 7.3172389,20.79661 7.0894126,20.308406 7.0799134,20.190545 7.0789595,17.84015 c -0.00111,-2.744926 0.056748,-3.073897 0.6658151,-3.785455 0.1928765,-0.225333 0.5679351,-0.516685 0.8334634,-0.64745 0.4690206,-0.230978 0.5784167,-0.239203 3.838711,-0.288601 3.131417,-0.04745 3.386548,-0.06508 3.813559,-0.263577 0.62682,-0.291378 1.071,-0.686976 1.4003,-1.247141 0.270029,-0.459341 0.278598,-0.522351 0.311521,-2.2908333 l 0.03385,-1.8185005 0.932248,0.050381 c 1.074394,0.058063 1.503911,0.2111598 2.097872,0.747768 0.852676,0.7703413 0.868273,0.8414325 0.868273,3.9574968 0,2.434216 -0.02041,2.783108 -0.179868,3.074899 -0.303656,0.555655 -0.794235,1.043861 -1.336401,1.329937 l -0.517629,0.273129 -3.950314,0.03096 -3.950314,0.03096 0.06802,0.274129 c 0.03741,0.15077 0.164132,0.377093 0.2816,0.502941 C 12.498548,17.994962 12.552123,18 14.722812,18 l 2.219561,0 0,1.049681 c 0,1.652898 -0.393001,2.43702 -1.539783,3.072202 l -0.544963,0.301846 -2.644068,0.01872 c -1.454237,0.01029 -2.7813556,-0.01824 -2.9491522,-0.06342 z m 6.1186702,-1.691845 c 0.221702,-0.221701 0.253453,-0.325455 0.206568,-0.675008 -0.07019,-0.523311 -0.278041,-0.73082 -0.732018,-0.73082 -0.466351,0 -0.671611,0.218094 -0.735061,0.781023 -0.04192,0.371869 -0.01162,0.496025 0.163853,0.671498 0.299619,0.299618 0.770392,0.279574 1.096658,-0.04669 z"
     id="path4142"
     inkscape:connector-curvature="0" />
  <path
     style="fill:#fdd835;fill-opacity:1;stroke:none;stroke-width:0.10169491;stroke-opacity:1"
     d="M 9.3488178,22.379821 C 8.4375991,22.230915 7.4128006,21.306492 7.173418,20.417493 7.0997243,20.143815 7.0720154,19.138167 7.0943785,17.548888 c 0.032599,-2.316701 0.047004,-2.472713 0.2701569,-2.925775 0.1296471,-0.26322 0.4008951,-0.623605 0.6027735,-0.800857 0.6737419,-0.591553 0.8692981,-0.62942 3.4835381,-0.674542 4.399139,-0.07593 4.927207,-0.165399 5.704681,-0.966533 0.642255,-0.661799 0.706386,-0.900557 0.774524,-2.8835249 l 0.06129,-1.7837391 0.950811,0.055537 c 0.522945,0.030545 1.109686,0.12192 1.30387,0.2030548 0.540108,0.2256713 1.357819,1.0422836 1.471985,1.4700052 0.15293,0.5729535 0.243275,3.179621 0.160044,4.617619 -0.07119,1.229964 -0.09272,1.326891 -0.395317,1.779661 -0.192901,0.288635 -0.576696,0.647537 -0.966172,0.903505 l -0.646146,0.424655 -3.921937,0.0078 c -2.157066,0.0043 -3.942079,0.02798 -3.966697,0.05259 -0.115023,0.115024 0.354197,0.819845 0.587706,0.8828 0.13983,0.0377 1.180932,0.0731 2.313559,0.07868 L 16.942373,18 l 0,0.910249 c 0,1.738489 -0.325371,2.446197 -1.453784,3.162094 l -0.630962,0.400301 -2.542373,-0.01176 c -1.398305,-0.0065 -2.7332012,-0.04295 -2.9664362,-0.08106 z m 5.9795152,-1.717814 c 0.285986,-0.255529 0.313717,-0.327953 0.251847,-0.657749 -0.09061,-0.482999 -0.301614,-0.682224 -0.722553,-0.682224 -0.435492,0 -0.624135,0.192602 -0.714914,0.729917 -0.06491,0.384212 -0.04411,0.453245 0.199781,0.663033 0.358284,0.308183 0.595923,0.295412 0.985839,-0.05298 z"
     id="path4144"
     inkscape:connector-curvature="0" />
  <path
     style="fill:#3c78aa;fill-opacity:1;stroke:none;stroke-opacity:1"
     d="M 4.2813559,17.396104 C 3.4006779,17.180752 2.5671185,16.461343 2.2568063,15.648801 2.1083393,15.260046 2.0890183,14.844794 2.1153114,12.607758 2.1418754,10.347688 2.1693427,9.9695685 2.330474,9.6457972 2.5885314,9.1272662 3.1813956,8.5538016 3.7220339,8.2997713 4.1594693,8.0942333 4.3539709,8.0834249 8.1302314,8.0548113 L 12.080802,8.0248768 12.012523,7.7497265 C 11.97497,7.5983939 11.848135,7.3716102 11.730667,7.2457627 11.521791,7.0219874 11.468216,7.0169492 9.2975274,7.0169492 l -2.2195613,0 0.00223,-1.1440678 c 0.00261,-1.337445 0.1564203,-1.7944544 0.8388656,-2.492498 0.7464753,-0.7635371 1.104229,-0.8380105 4.0256139,-0.8380105 2.9615,0 3.279417,0.060038 4.066862,0.7680192 0.370361,0.3329859 0.572437,0.6206967 0.728025,1.0365437 0.201641,0.5389355 0.213347,0.7347165 0.183664,3.0719695 -0.03527,2.7768557 -0.04553,2.8241717 -0.780197,3.5981867 -0.786661,0.828788 -0.760784,0.823809 -4.590491,0.883181 -3.811398,0.05909 -3.7960595,0.05641 -4.6094581,0.80617 -0.7649119,0.705071 -0.9172808,1.2 -0.9643851,3.13254 l -0.04028,1.652542 -0.6759893,-0.01041 c -0.3717941,-0.0057 -0.8132775,-0.04398 -0.9810741,-0.08501 z M 9.5892443,5.551178 C 9.8260754,5.3474645 9.8745763,5.2250681 9.8745763,4.8311158 9.8745763,4.2842724 9.6735978,4.0677966 9.1659027,4.0677966 8.6627454,4.0677966 8.4,4.3162757 8.4,4.7921131 8.4,5.2843833 8.5409873,5.5741932 8.8388514,5.6942054 9.1843046,5.8333918 9.2830271,5.814575 9.5892443,5.551178 Z"
     id="path4146"
     inkscape:connector-curvature="0" />
</svg>
