<svg xmlns="http://www.w3.org/2000/svg" width="32" height="32" viewBox="0 0 32 32">
  <path fill="#AA759F" fill-rule="evenodd" d="M28.9701664,20.4383117 C28.9182338,20.0660173 28.7972419,19.7364719 28.6071907,19.4496753 C28.4171395,19.1628788 28.1751556,18.9090909 27.8812392,18.6883117 C27.5530694,18.4177489 27.1906462,18.2234848 26.7939695,18.1055195 C26.3972929,17.9875541 25.9917766,17.9199134 25.5774208,17.9025974 C25.2315718,17.9025974 24.8906951,17.9280303 24.5547906,17.9788961 C24.2188861,18.0297619 23.8862965,18.1060606 23.5570217,18.2077922 C23.4531565,18.241342 23.3581309,18.2792208 23.2719449,18.3214286 C23.1857589,18.3636364 23.0907333,18.4015152 22.9868681,18.4350649 C22.9868681,18.4177489 22.9780285,18.396645 22.9603493,18.3717532 C22.9426702,18.3468615 22.9255434,18.3257576 22.9089692,18.3084416 C22.8227832,18.1049784 22.7321774,17.9107143 22.6371518,17.7256494 C22.5421262,17.5405844 22.4774867,17.3376623 22.4432333,17.1168831 C22.4255541,16.9480519 22.4128472,16.7873377 22.4051125,16.6347403 C22.3973779,16.4821429 22.4100848,16.3300866 22.4432333,16.1785714 C22.4763817,16.0270563 22.5150549,15.879329 22.5592529,15.7353896 C22.6034508,15.5914502 22.6509636,15.4437229 22.7017913,15.2922078 C22.7194705,15.2077922 22.7194705,15.1444805 22.7017913,15.1022727 C22.6841121,15.0600649 22.6410191,15.0221861 22.5725123,14.9886364 C22.5382589,14.9713203 22.5078728,14.9588745 22.481354,14.9512987 C22.4548352,14.9437229 22.4244491,14.9393939 22.3901957,14.9383117 C22.2178237,14.9047619 22.0410319,14.8961039 21.8598202,14.9123377 C21.6786086,14.9285714 21.5018168,14.9626623 21.3294448,15.0146104 C21.259833,15.0319264 21.2034806,15.0573593 21.1603876,15.0909091 C21.1172946,15.1244589 21.0957481,15.1753247 21.0957481,15.2435065 C21.0780689,15.2943723 21.065362,15.3365801 21.0576273,15.3701299 C21.0498927,15.4036797 21.0371858,15.4377706 21.0195066,15.4724026 C20.967574,15.6412338 20.9200612,15.8062771 20.8769682,15.9675325 C20.8338752,16.1287879 20.7775228,16.2765152 20.707911,16.4107143 C20.5178598,16.7992424 20.3195215,17.1753247 20.112896,17.538961 C19.9062706,17.9025974 19.6990927,18.2705628 19.4913623,18.6428571 C19.4571089,18.6764069 19.4267228,18.7142857 19.400204,18.7564935 C19.3736852,18.7987013 19.3521387,18.8365801 19.3355645,18.8701299 C19.2493785,18.7175325 19.1714796,18.5698052 19.1018678,18.4269481 C19.032256,18.2840909 18.989163,18.1277056 18.9725888,17.9577922 C18.9383354,17.771645 18.9167888,17.5854978 18.9079493,17.3993506 C18.8991097,17.2132035 18.9118166,17.0270563 18.94607,16.8409091 C18.9803234,16.7056277 19.0189966,16.5703463 19.0620896,16.4350649 C19.1051826,16.2997835 19.1526954,16.1645022 19.204628,16.0292208 C19.2223072,15.961039 19.226727,15.9101732 19.2178874,15.8766234 C19.2090478,15.8430736 19.1703746,15.8089827 19.1018678,15.7743506 L18.9974501,15.724026 C18.9974501,15.724026 18.9714838,15.715368 18.9195512,15.6980519 C18.7295,15.6645022 18.5394488,15.6558442 18.3493976,15.6720779 C18.1593464,15.6883117 17.9781348,15.7224026 17.8057627,15.7743506 C17.736151,15.7916667 17.6886382,15.8214286 17.6632243,15.8636364 C17.6378105,15.9058442 17.616264,15.952381 17.5985848,16.0032468 L17.442787,16.5113636 L17.2621279,16.9935065 L15.5002869,20.849026 C15.4483543,20.9843074 15.3881345,21.1195887 15.3196277,21.2548701 C15.2511209,21.3901515 15.1820616,21.5167749 15.1124498,21.6347403 C15.0781964,21.66829 15.0522301,21.702381 15.0345509,21.737013 C15.0168717,21.771645 14.9909054,21.8057359 14.956652,21.8392857 C14.9389728,21.8219697 14.9301332,21.8051948 14.9301332,21.788961 L14.9301332,21.7386364 C14.9301332,21.6542208 14.9257134,21.5698052 14.9168738,21.4853896 C14.9080343,21.400974 14.912454,21.3165584 14.9301332,21.2321429 L15.085931,20.5211039 C15.085931,20.5211039 15.1461507,20.2840909 15.2665902,19.8100649 C15.3185228,19.6066017 15.3704554,19.4080087 15.422388,19.2142857 C15.4743206,19.0205628 15.5262532,18.8219697 15.5781858,18.6185065 C15.5958649,18.5503247 15.6047045,18.487013 15.6047045,18.4285714 C15.6047045,18.3701299 15.5787382,18.3149351 15.5268056,18.262987 C15.4406196,18.1612554 15.3240475,18.1022727 15.1770893,18.086039 C15.0301311,18.0698052 14.913559,18.1038961 14.827373,18.1883117 C14.8096938,18.1883117 14.7925671,18.1926407 14.7759929,18.2012987 C14.7594186,18.2099567 14.7422919,18.2224026 14.7246127,18.2386364 C14.7246127,18.2050866 14.7290325,18.1753247 14.7378721,18.1493506 C14.7467117,18.1233766 14.7511315,18.1022727 14.7511315,18.086039 C14.7688107,17.9334416 14.7776503,17.7813853 14.7776503,17.6298701 C14.7776503,17.478355 14.7605236,17.3344156 14.7262702,17.1980519 C14.6743376,17.0119048 14.579312,16.8679654 14.4411933,16.7662338 C14.3030747,16.6645022 14.1389898,16.6136364 13.9489386,16.6136364 C13.8627526,16.6136364 13.7721468,16.6222944 13.6771212,16.6396104 C13.5820956,16.6569264 13.4914898,16.6823593 13.4053038,16.7159091 C13.0594548,16.8511905 12.7445443,17.0373377 12.4605724,17.2743506 C12.1766006,17.5113636 11.9219099,17.7732684 11.6965003,18.0600649 L11.6318608,18.1233766 C11.6318608,18.1233766 11.6014747,18.1444805 11.5407025,18.1866883 C11.2467861,18.3555195 10.9490024,18.5205628 10.6473513,18.6818182 C10.3457003,18.8430736 10.0390769,18.9994589 9.72748135,19.150974 C9.62361616,19.2191558 9.51588364,19.2824675 9.4042838,19.3409091 C9.29268396,19.3993506 9.17611185,19.4545455 9.05456748,19.5064935 C8.96838146,19.4220779 8.88219545,19.3419913 8.79600943,19.2662338 C8.70982342,19.1904762 8.62363741,19.1103896 8.53745139,19.025974 C8.26121417,18.8062771 7.98055715,18.5865801 7.69548033,18.3668831 C7.41040352,18.1471861 7.12145938,17.9188312 6.82864793,17.6818182 C6.58666412,17.495671 6.34468031,17.2927489 6.1026965,17.0730519 C5.86071269,16.853355 5.64469518,16.616342 5.45464397,16.362013 C5.31652536,16.1585498 5.20879284,15.9512987 5.13144642,15.7402597 C5.0541,15.5292208 5.0065872,15.3051948 4.98890801,15.0681818 C4.97122883,14.7640693 5.00603472,14.4680736 5.09332568,14.1801948 C5.18061665,13.892316 5.30160855,13.6217532 5.4563014,13.3685065 C5.66403179,13.0297619 5.9060156,12.7251082 6.18225282,12.4545455 C6.45849004,12.1839827 6.74356686,11.9220779 7.03748327,11.6688312 C7.36565309,11.4155844 7.70211003,11.1785714 8.04685408,10.9577922 C8.39159814,10.737013 8.74573426,10.5254329 9.10926245,10.3230519 C9.62748348,10.0524892 10.1495718,9.7987013 10.6755275,9.56168831 C11.2014832,9.32467532 11.7412507,9.12175325 12.2948301,8.95292208 C12.8649837,8.78409091 13.4434245,8.66125541 14.0301524,8.58441558 C14.6168802,8.50757576 15.2124477,8.50324675 15.8168547,8.57142857 C16.0588385,8.58874459 16.2919827,8.62662338 16.5162874,8.68506494 C16.740592,8.74350649 16.9566095,8.83225108 17.1643399,8.9512987 C17.3201377,9.03571429 17.4626761,9.13744589 17.5919551,9.25649351 C17.7212341,9.37554113 17.8206795,9.51948052 17.8902913,9.68831169 C17.9422239,9.87445887 17.9681902,10.0562771 17.9681902,10.2337662 C17.9681902,10.4112554 17.9510635,10.5844156 17.9168101,10.7532468 C17.8306241,11.1082251 17.6925055,11.4377706 17.5024543,11.7418831 C17.3124031,12.0459957 17.0880984,12.3252165 16.8295404,12.5795455 C16.4151845,13.0189394 15.9577357,13.3912338 15.4571939,13.6964286 C14.956652,14.0016234 14.4213043,14.2467532 13.8511506,14.4318182 C13.5229808,14.5497835 13.1903912,14.6428571 12.8533818,14.711039 C12.5163724,14.7792208 12.1754956,14.8300866 11.8307516,14.8636364 C11.5545144,14.8809524 11.2782771,14.8766234 11.0020399,14.8506494 C10.7258027,14.8246753 10.4495655,14.7613636 10.1733282,14.6607143 C10.0009562,14.5925325 9.83687129,14.5124459 9.6810735,14.4204545 C9.52527571,14.3284632 9.38715709,14.2056277 9.26671766,14.0519481 C9.24903848,14.034632 9.22749198,14.0178571 9.20207815,14.0016234 C9.17666433,13.9853896 9.13799112,13.9853896 9.08605852,14.0016234 C9.0518051,14.0189394 9.0302586,14.0487013 9.02141901,14.0909091 C9.01257942,14.1331169 9.01699921,14.1709957 9.0346784,14.2045455 C9.05235758,14.2727273 9.07390408,14.336039 9.09931791,14.3944805 C9.12473173,14.4529221 9.15511783,14.5081169 9.19047619,14.5600649 C9.2766622,14.7126623 9.3805274,14.8436147 9.50207178,14.9529221 C9.62361616,15.0622294 9.75289518,15.159632 9.88990884,15.2451299 C10.1661461,15.413961 10.4550902,15.5324675 10.7567413,15.6006494 C11.0583923,15.6688312 11.3733027,15.711039 11.7014726,15.7272727 C12.1854402,15.7445887 12.6600157,15.7191558 13.1251992,15.650974 C13.5903827,15.5827922 14.0566711,15.4897186 14.5240645,15.3717532 C15.1804042,15.1856061 15.7930983,14.9318182 16.362147,14.6103896 C16.9311957,14.288961 17.4494167,13.8744589 17.9168101,13.3668831 C18.2969125,12.9437229 18.6162427,12.491342 18.8748008,12.0097403 C19.1333588,11.5281385 19.2886042,11.0081169 19.3405368,10.4496753 C19.3747902,10.1617965 19.3747902,9.88257576 19.3405368,9.61201299 C19.3062833,9.34145022 19.2200973,9.07954545 19.0819787,8.8262987 C18.9438601,8.55573593 18.7626485,8.32305195 18.5383439,8.12824675 C18.3140392,7.93344156 18.0637683,7.76028139 17.7875311,7.60876623 C17.3908544,7.40530303 16.9764986,7.25757576 16.5444636,7.16558442 C16.1124286,7.07359307 15.6721064,7.01839827 15.2234972,7 L14.3434054,7 C13.8086101,7.01731602 13.2776822,7.08062771 12.7506215,7.18993506 C12.2235609,7.29924242 11.7097597,7.4469697 11.2092178,7.63311688 C10.8125412,7.76839827 10.4285714,7.91233766 10.0573086,8.06493506 C9.68604577,8.21753247 9.31920274,8.38690476 8.9567795,8.57305195 C8.16232124,8.96158009 7.39824908,9.39718615 6.66456301,9.87987013 C5.93087695,10.3625541 5.26183039,10.9247835 4.65742334,11.5665584 C4.3469327,11.887987 4.07069548,12.2305195 3.82871167,12.5941558 C3.58672786,12.9577922 3.38838954,13.3425325 3.23369669,13.7483766 C3.19944328,13.883658 3.16463739,14.0146104 3.12927902,14.1412338 C3.09392066,14.2678571 3.06795436,14.3906926 3.05138012,14.5097403 C3.03370094,14.5270563 3.02928115,14.5395022 3.03812074,14.5470779 C3.04696033,14.5546537 3.03425342,14.5670996 3,14.5844156 L3,14.9399351 C3.03425342,14.9734848 3.05579992,15.0156926 3.06463951,15.0665584 C3.0734791,15.1174242 3.0778989,15.16829 3.0778989,15.2191558 C3.16408491,15.5070346 3.28507682,15.7819264 3.44087461,16.0438312 C3.5966724,16.3057359 3.76959691,16.5551948 3.95964812,16.7922078 C4.25356452,17.1136364 4.56847496,17.413961 4.90437942,17.6931818 C5.24028389,17.9724026 5.59000021,18.2386364 5.9535284,18.4918831 C6.24744481,18.6953463 6.55406812,18.9069264 6.87339836,19.1266234 C7.19272859,19.3463203 7.50763902,19.5660173 7.81812966,19.7857143 C7.87006226,19.8192641 7.92199486,19.8571429 7.97392746,19.8993506 C8.02586005,19.9415584 8.07779265,19.9880952 8.12972525,20.038961 C8.07779265,20.0562771 8.03027985,20.077381 7.98718684,20.1022727 C7.94409384,20.1271645 7.90542062,20.1482684 7.87116721,20.1655844 C7.45681137,20.3690476 7.05129513,20.5887446 6.65461847,20.8246753 C6.25794182,21.0606061 5.8778394,21.3143939 5.51431121,21.586039 C5.30658082,21.7548701 5.0994029,21.9323593 4.89277746,22.1185065 C4.68615202,22.3046537 4.51322751,22.5075758 4.37400395,22.7272727 C4.13202014,23.0995671 3.97677482,23.4843074 3.90826799,23.8814935 C3.83976116,24.2786797 3.89169376,24.6888528 4.06406579,25.112013 C4.11599839,25.2472944 4.18505769,25.3658009 4.2712437,25.4675325 C4.35742972,25.5692641 4.45245532,25.6623377 4.55632052,25.7467532 C4.59057394,25.7640693 4.62924715,25.7851732 4.67234015,25.8100649 C4.71543316,25.8349567 4.75410637,25.8560606 4.78835979,25.8733766 C4.90879922,25.8906926 5.02537133,25.9074675 5.13807611,25.9237013 C5.2507809,25.9399351 5.35851342,25.965368 5.46127367,26 L6.08280742,26 C6.42865642,25.9664502 6.76124604,25.8901515 7.08057627,25.7711039 C7.3999065,25.6520563 7.70652982,25.5 8.00044623,25.3149351 C8.44905548,25.0108225 8.82031831,24.6558442 9.11423472,24.25 C9.40815112,23.8441558 9.61532904,23.379329 9.73576847,22.8555195 C9.83963367,22.4832251 9.89156627,22.1071429 9.89156627,21.7272727 C9.89156627,21.3474026 9.83134655,20.9713203 9.71090712,20.599026 C9.71090712,20.5654762 9.70206753,20.5313853 9.68438835,20.4967532 C9.66670916,20.4621212 9.65786957,20.4280303 9.65786957,20.3944805 L9.60648945,20.2922078 C9.60648945,20.2922078 9.58936274,20.25 9.55510933,20.1655844 C9.79709313,20.030303 10.0346571,19.8950216 10.2678014,19.7597403 C10.5009456,19.6244589 10.7385096,19.4978355 10.9804934,19.3798701 L10.9804934,19.3798701 L11.0070122,19.3798701 C10.989333,19.4307359 10.9722063,19.4772727 10.9556321,19.5194805 C10.9390578,19.5616883 10.9302182,19.5995671 10.9291133,19.6331169 C10.8429273,19.9372294 10.773868,20.2418831 10.7219354,20.5470779 C10.6700028,20.8522727 10.6528761,21.1650433 10.6705552,21.4853896 C10.7048087,21.8241342 10.7694482,22.1498918 10.8644738,22.4626623 C10.9594994,22.7754329 11.1103249,23.0670996 11.3169503,23.3376623 C11.4727481,23.5746753 11.7058924,23.6931818 12.016383,23.6931818 C12.3268736,23.6931818 12.5688574,23.5833333 12.7423344,23.3636364 C12.8119462,23.2792208 12.8765857,23.1948052 12.9362529,23.1103896 C12.9959202,23.025974 13.043433,22.9415584 13.0787914,22.8571429 C13.1992308,22.6201299 13.3158029,22.3831169 13.4285077,22.1461039 C13.5412125,21.9090909 13.648945,21.6720779 13.7517052,21.4350649 C13.7517052,21.4177489 13.756125,21.405303 13.7649646,21.3977273 C13.7738042,21.3901515 13.7865111,21.3690476 13.8030854,21.3344156 C13.7854062,21.452381 13.7726993,21.5622294 13.7649646,21.663961 C13.75723,21.7656926 13.7528102,21.8674242 13.7517052,21.9691558 C13.7340261,22.1217532 13.7340261,22.2738095 13.7517052,22.4253247 C13.7693844,22.5768398 13.8041903,22.7207792 13.8561229,22.8571429 C13.9080555,22.9935065 13.9771148,23.103355 14.0633008,23.1866883 C14.1494868,23.2700216 14.2616391,23.3208874 14.3997578,23.3392857 C14.503623,23.3566017 14.5986486,23.3441558 14.6848346,23.3019481 C14.7710206,23.2597403 14.8489195,23.2132035 14.9185313,23.1623377 C15.0223965,23.0779221 15.1218419,22.9805195 15.2168675,22.8701299 C15.3118931,22.7597403 15.3936593,22.6369048 15.4621661,22.5016234 C15.6698965,22.146645 15.8726546,21.7916667 16.0704405,21.4366883 C16.2682263,21.08171 16.4538578,20.7267316 16.6273347,20.3717532 C16.8173859,19.9832251 16.9985976,19.586039 17.1709696,19.1801948 C17.3433416,18.7743506 17.5245532,18.3771645 17.7146044,17.9886364 C17.7146044,17.9550866 17.7190242,17.9296537 17.7278638,17.9123377 L17.7659846,17.836039 C17.800238,18.0048701 17.8389112,18.1655844 17.8820042,18.3181818 C17.9250972,18.4707792 17.97261,18.6228355 18.0245426,18.7743506 C18.0764752,18.9604978 18.1411147,19.137987 18.2184611,19.3068182 C18.2958076,19.4756494 18.3775738,19.6450216 18.4637598,19.8149351 C18.5156924,19.8993506 18.5372389,19.9669913 18.5283993,20.0178571 C18.5195597,20.0687229 18.4891736,20.1277056 18.437241,20.1948052 C18.1952572,20.482684 17.9576932,20.7656926 17.724549,21.0438312 C17.4914048,21.3219697 17.2626804,21.5968615 17.0383757,21.8685065 C16.9864431,21.9366883 16.9345105,22 16.8825779,22.0584416 C16.8306453,22.1168831 16.7875523,22.1801948 16.7532989,22.2483766 C16.7356197,22.2992424 16.718493,22.3457792 16.7019188,22.387987 C16.6853446,22.4301948 16.6682178,22.4767316 16.6505387,22.5275974 C16.6328595,22.612013 16.6499862,22.6964286 16.7019188,22.7808442 C16.7538514,22.8652597 16.8317503,22.9161255 16.9356155,22.9334416 C17.0394807,22.9507576 17.1389261,22.9632035 17.2339517,22.9707792 C17.3289773,22.978355 17.4195831,22.974026 17.5057691,22.9577922 C17.8339389,22.9404762 18.1405622,22.8771645 18.4256391,22.7678571 C18.7107159,22.6585498 18.9825333,22.5108225 19.2410913,22.3246753 C19.5692612,22.0876623 19.7935658,21.8046537 19.9140052,21.4756494 C20.0344447,21.146645 20.0515714,20.7873377 19.9653854,20.3977273 C19.9477062,20.2959957 19.9173201,20.1942641 19.8742271,20.0925325 C19.8311341,19.9908009 19.7924608,19.8890693 19.7582074,19.7873377 C19.7405283,19.7364719 19.7361085,19.6942641 19.744948,19.6607143 C19.7537876,19.6271645 19.7664945,19.5849567 19.7830688,19.5340909 C20.059306,19.1617965 20.3139967,18.7770563 20.5471409,18.3798701 C20.7802852,17.982684 21.00017,17.5811688 21.2067954,17.1753247 C21.2067954,17.1580087 21.2112152,17.1455628 21.2200548,17.137987 L21.2581756,17.1006494 C21.3277873,17.4393939 21.4183931,17.7775974 21.529993,18.1152597 C21.6415928,18.4529221 21.7924184,18.7743506 21.9824696,19.0795455 C21.8786044,19.163961 21.7835788,19.2483766 21.6973927,19.3327922 L21.4388347,19.586039 C21.2487835,19.7895022 21.075859,20.0010823 20.9200612,20.2207792 C20.7642634,20.4404762 20.6432715,20.6774892 20.5570855,20.9318182 C20.5228321,21.0497835 20.4968658,21.163961 20.4791866,21.2743506 C20.4615074,21.3847403 20.4615074,21.4989177 20.4791866,21.6168831 C20.4968658,21.8030303 20.5747647,21.9507576 20.7128833,22.0600649 C20.8510019,22.1693723 21.0150868,22.1991342 21.205138,22.1493506 C21.6018147,22.0649351 21.9686577,21.9253247 22.3056671,21.7305195 C22.6426765,21.5357143 22.9404603,21.2775974 23.1990183,20.9561688 C23.3713903,20.7364719 23.4708357,20.5037879 23.4973545,20.2581169 C23.5238733,20.0124459 23.5023268,19.762987 23.432715,19.5097403 C23.4150358,19.4415584 23.3934893,19.3695887 23.3680755,19.2938312 C23.3426617,19.2180736 23.3211151,19.1461039 23.303436,19.0779221 C23.389622,19.0443723 23.4846476,19.0102814 23.5885128,18.9756494 C23.692378,18.9410173 23.7874036,18.9155844 23.8735896,18.8993506 C24.3918106,18.7813853 24.9056119,18.7348485 25.4149933,18.7597403 C25.9243747,18.784632 26.4293364,18.8901515 26.9298782,19.0762987 C27.2237946,19.1780303 27.4829052,19.3219697 27.7072098,19.5081169 C27.9315144,19.6942641 28.112726,19.922619 28.2508446,20.1931818 C28.4232167,20.5319264 28.4663097,20.857684 28.3801237,21.1704545 C28.2939377,21.4832251 28.0867597,21.7494589 27.7585899,21.9691558 L27.6541722,22.0194805 C27.6541722,22.0194805 27.6193664,22.0449134 27.5497546,22.0957792 C27.5497546,22.1130952 27.5453348,22.1341991 27.5364952,22.1590909 C27.5276556,22.1839827 27.5232358,22.2050866 27.5232358,22.2224026 C27.5232358,22.2397186 27.5359427,22.2521645 27.5613565,22.2597403 C27.5867704,22.267316 27.6083169,22.271645 27.625996,22.2727273 C27.7298612,22.2727273 27.8293066,22.2516234 27.9243322,22.2094156 C28.0193579,22.1672078 28.1099637,22.112013 28.1961497,22.0438312 C28.4038801,21.9085498 28.5768046,21.7435065 28.7149232,21.5487013 C28.8530418,21.3538961 28.9309407,21.1298701 28.9486199,20.8766234 C28.9662991,20.8593074 28.9707189,20.8506494 28.9618793,20.8506494 C28.9530397,20.8506494 28.9657466,20.8419913 29,20.8246753 L29,20.4951299 C28.9657466,20.4778139 28.9530397,20.4691558 28.9618793,20.4691558 C28.9707189,20.4691558 28.9662991,20.4604978 28.9486199,20.4431818 L28.9751386,20.4431818 L28.9701664,20.4383117 Z M8.77114808,21.8084416 C8.73689467,22.2651515 8.62032256,22.6796537 8.42143176,23.0519481 C8.22254096,23.4242424 7.95072353,23.7537879 7.60597947,24.0405844 C7.41592826,24.2094156 7.20875035,24.353355 6.98444572,24.4724026 C6.76014109,24.5914502 6.51815729,24.6677489 6.25849429,24.7012987 C6.17230828,24.7186147 6.08170247,24.7272727 5.98667687,24.7272727 C5.89165126,24.7272727 5.80104545,24.7104978 5.71485944,24.6769481 C5.57674083,24.6087662 5.48613502,24.5243506 5.44304201,24.4237013 C5.399949,24.3230519 5.3784025,24.2132035 5.3784025,24.0941558 C5.3784025,23.9080087 5.40878859,23.7261905 5.46956078,23.5487013 C5.53033297,23.3712121 5.60381207,23.2061688 5.68999809,23.0535714 C5.81043752,22.8338745 5.95739572,22.6396104 6.1308727,22.4707792 C6.30434967,22.3019481 6.48556129,22.1412338 6.67450755,21.9886364 C6.98499819,21.7516234 7.29990863,21.5275974 7.61923886,21.3165584 C7.93856909,21.1055195 8.26231912,20.9069264 8.59048894,20.7207792 C8.60816812,20.7207792 8.62087503,20.7164502 8.62860968,20.7077922 L8.64186906,20.6948052 C8.69380166,20.8809524 8.73247487,21.0670996 8.7578887,21.2532468 C8.78330252,21.4393939 8.78772232,21.6255411 8.77114808,21.8116883 L8.77114808,21.8116883 L8.77114808,21.8084416 Z M13.9754574,17.8766234 C13.9577782,18.0292208 13.9318119,18.1769481 13.8975585,18.3198052 C13.8633051,18.4626623 13.8284992,18.6022727 13.7931408,18.7386364 C13.637343,19.2288961 13.4688383,19.70671 13.2876267,20.1720779 C13.1064151,20.6374459 12.9119441,21.1066017 12.7042137,21.5795455 C12.6522811,21.663961 12.6003485,21.7440476 12.5484159,21.8198052 C12.4964833,21.8955628 12.4533903,21.9756494 12.4191369,22.0600649 L12.341238,22.1363636 C12.2893054,22.1872294 12.2373728,22.2126623 12.1854402,22.2126623 C12.1335076,22.2126623 12.0904146,22.1704545 12.0561612,22.086039 C12.0219077,22.0016234 11.9915216,21.9128788 11.9650029,21.8198052 C11.9384841,21.7267316 11.9169376,21.629329 11.9003634,21.5275974 C11.8826842,21.4767316 11.8738446,21.4177489 11.8738446,21.3506494 L11.8738446,21.1477273 C11.8738446,20.6910173 11.9429039,20.2554113 12.0810225,19.8409091 C12.2191411,19.4264069 12.4091923,19.0248918 12.6511761,18.6363636 C12.7550413,18.4837662 12.8627738,18.336039 12.9743737,18.1931818 C13.0859735,18.0503247 13.2285119,17.9274892 13.4019889,17.8246753 C13.4539215,17.7911255 13.5058541,17.7613636 13.5577867,17.7353896 C13.6097193,17.7094156 13.669939,17.6883117 13.7384458,17.6720779 C13.8246319,17.6547619 13.8892714,17.6634199 13.9323644,17.6980519 C13.9754574,17.732684 13.9881643,17.7916667 13.9704851,17.875 L13.9704851,17.875 L13.9754574,17.8766234 Z M17.5505195,22.3149351 C17.7582499,22.0779221 17.9698476,21.8371212 18.1853127,21.5925325 C18.4007777,21.3479437 18.6123754,21.1071429 18.8201058,20.8701299 C18.8543592,21.1406926 18.6991139,21.4702381 18.3543699,21.8587662 C18.0096258,22.2472944 17.7422282,22.3993506 17.552177,22.3149351 L17.552177,22.3149351 L17.5505195,22.3149351 Z M21.616179,21.3262987 C21.5819256,21.3598485 21.5388326,21.3852814 21.4869,21.4025974 C21.4349674,21.4199134 21.3830348,21.4453463 21.3311022,21.4788961 C21.2968488,21.4962121 21.2708825,21.4962121 21.2532033,21.4788961 C21.2355241,21.4615801 21.2266845,21.4361472 21.2266845,21.4025974 L21.2266845,21.3133117 C21.2266845,21.3133117 21.2355241,21.2922078 21.2532033,21.25 C21.3393893,20.9458874 21.4603812,20.6666667 21.616179,20.4123377 C21.7719768,20.1580087 21.9703151,19.9296537 22.211194,19.7272727 L22.2377128,19.7272727 C22.3581522,20.0313853 22.3581522,20.336039 22.2377128,20.6412338 C22.1172733,20.9464286 21.9100954,21.1747835 21.616179,21.3262987 L21.616179,21.3262987 L21.616179,21.3262987 Z"/>
</svg>
