<svg xmlns="http://www.w3.org/2000/svg" width="33" height="32" viewBox="0 0 33 32">
  <path fill="#78909C" fill-rule="evenodd" d="M4,6.27375568 C4,5.01799509 5.01099312,4 6.27375568,4 L26.7262443,4 C27.9820049,4 29,5.01099312 29,6.27375568 L29,26.7262443 C29,27.9820049 27.9890069,29 26.7262443,29 L6.27375568,29 C5.01799509,29 4,27.9890069 4,26.7262443 L4,6.27375568 Z M21.5493139,12.3235945 C21.2506739,10.6644114 19.9167483,8.54545455 16.3927959,8.54545455 C13.6851262,8.54545455 11.3358246,10.4245295 11.3358246,13.1032107 C11.3358246,15.2021774 12.7892061,16.8013901 15.1783264,17.2611637 L17.109532,17.6209866 C18.0452708,17.800898 18.6226415,18.3206421 18.6226415,19.0402879 C18.6226415,19.9198548 17.8660867,20.5195596 16.6317079,20.5195596 C14.7005023,20.5195596 13.8244915,19.3801206 13.7050355,18.0807602 L10.8181818,18.7804158 C11.0172752,20.7794317 12.6896594,23.3181818 16.5918892,23.3181818 C19.956567,23.3181818 21.8081353,21.0592939 21.8081353,18.8403863 C21.8081353,16.8213802 20.4144817,15.0822364 17.7267214,14.5824825 L15.8353345,14.2226596 C14.859777,14.0427482 14.441681,13.5429942 14.441681,12.8633288 C14.441681,12.0837126 15.1982357,11.3440768 16.3728865,11.3440768 C18.0850894,11.3440768 18.6226415,12.4635256 18.7221882,13.1232009 L21.5493139,12.3235945 Z"/>
</svg>
