<?xml version="1.0" encoding="UTF-8" standalone="no"?>
<svg
   xmlns:dc="http://purl.org/dc/elements/1.1/"
   xmlns:cc="http://creativecommons.org/ns#"
   xmlns:rdf="http://www.w3.org/1999/02/22-rdf-syntax-ns#"
   xmlns:svg="http://www.w3.org/2000/svg"
   xmlns="http://www.w3.org/2000/svg"
   xmlns:sodipodi="http://sodipodi.sourceforge.net/DTD/sodipodi-0.dtd"
   xmlns:inkscape="http://www.inkscape.org/namespaces/inkscape"
   viewBox="0 0 500 500"
   fill-rule="evenodd"
   clip-rule="evenodd"
   stroke-linejoin="round"
   stroke-miterlimit="1.414"
   id="svg2"
   version="1.1"
   inkscape:version="0.91 r13725"
   sodipodi:docname="typescript.svg">
  <metadata
     id="metadata10">
    <rdf:RDF>
      <cc:Work
         rdf:about="">
        <dc:format>image/svg+xml</dc:format>
        <dc:type
           rdf:resource="http://purl.org/dc/dcmitype/StillImage" />
      </cc:Work>
    </rdf:RDF>
  </metadata>
  <defs
     id="defs8" />
  <sodipodi:namedview
     pagecolor="#ffffff"
     bordercolor="#666666"
     borderopacity="1"
     objecttolerance="10"
     gridtolerance="10"
     guidetolerance="10"
     inkscape:pageopacity="0"
     inkscape:pageshadow="2"
     inkscape:window-width="1366"
     inkscape:window-height="705"
     id="namedview6"
     showgrid="false"
     inkscape:zoom="0.472"
     inkscape:cx="-106.99153"
     inkscape:cy="250"
     inkscape:window-x="-8"
     inkscape:window-y="-8"
     inkscape:window-maximized="1"
     inkscape:current-layer="svg2" />
  <path
     d="M49 51h408v408H49V51zm246.669 314.879l19.463-1.702c.922 7.8 3.067 14.199 6.435 19.198 3.368 4.998 8.597 9.04 15.688 12.124 7.09 3.085 15.067 4.627 23.93 4.627 7.87 0 14.819-1.17 20.845-3.51 6.027-2.34 10.512-5.548 13.455-9.625 2.942-4.077 4.413-8.526 4.413-13.348 0-4.892-1.418-9.164-4.254-12.816-2.836-3.651-7.516-6.718-14.039-9.2-4.183-1.63-13.436-4.165-27.759-7.604s-24.355-6.683-30.099-9.732c-7.445-3.899-12.993-8.739-16.644-14.517-3.652-5.779-5.478-12.249-5.478-19.41 0-7.871 2.234-15.227 6.701-22.069 4.467-6.842 10.99-12.036 19.569-15.581 8.58-3.546 18.116-5.318 28.61-5.318 11.557 0 21.75 1.861 30.577 5.584 8.828 3.722 15.617 9.199 20.368 16.432 4.75 7.232 7.303 15.421 7.657 24.568l-19.782 1.489c-1.064-9.856-4.662-17.301-10.795-22.335-6.133-5.034-15.191-7.551-27.174-7.551-12.479 0-21.573 2.286-27.281 6.86-5.707 4.573-8.561 10.086-8.561 16.538 0 5.602 2.021 10.21 6.062 13.826 3.971 3.617 14.34 7.321 31.109 11.115 16.769 3.793 28.273 7.108 34.513 9.944 9.076 4.183 15.776 9.483 20.101 15.9 4.325 6.417 6.488 13.809 6.488 22.175 0 8.296-2.375 16.113-7.126 23.452-4.751 7.338-11.575 13.046-20.474 17.123-8.898 4.077-18.913 6.116-30.045 6.116-14.11 0-25.933-2.056-35.47-6.169-9.537-4.112-17.017-10.299-22.441-18.559-5.424-8.26-8.278-17.602-8.562-28.025zm-65.728 50.094V278.454h51.583v-18.399H157.938v18.399h51.37v137.519h20.633z"
     fill="#42a5f5"
     id="path4"
     style="fill:#0085c1;fill-opacity:1" />
</svg>
