<?xml version="1.0" encoding="UTF-8" standalone="no"?>
<svg
   xmlns:dc="http://purl.org/dc/elements/1.1/"
   xmlns:cc="http://creativecommons.org/ns#"
   xmlns:rdf="http://www.w3.org/1999/02/22-rdf-syntax-ns#"
   xmlns:svg="http://www.w3.org/2000/svg"
   xmlns="http://www.w3.org/2000/svg"
   xmlns:sodipodi="http://sodipodi.sourceforge.net/DTD/sodipodi-0.dtd"
   xmlns:inkscape="http://www.inkscape.org/namespaces/inkscape"
   version="1.1"
   width="24"
   height="24"
   viewBox="0 0 24 24"
   id="svg2"
   inkscape:version="0.91 r13725"
   sodipodi:docname="webpack.svg">
  <metadata
     id="metadata10">
    <rdf:RDF>
      <cc:Work
         rdf:about="">
        <dc:format>image/svg+xml</dc:format>
        <dc:type
           rdf:resource="http://purl.org/dc/dcmitype/StillImage" />
      </cc:Work>
    </rdf:RDF>
  </metadata>
  <defs
     id="defs8" />
  <sodipodi:namedview
     pagecolor="#ffffff"
     bordercolor="#666666"
     borderopacity="1"
     objecttolerance="10"
     gridtolerance="10"
     guidetolerance="10"
     inkscape:pageopacity="0"
     inkscape:pageshadow="2"
     inkscape:window-width="1366"
     inkscape:window-height="705"
     id="namedview6"
     showgrid="false"
     inkscape:zoom="11.313709"
     inkscape:cx="9.8309679"
     inkscape:cy="8.0743036"
     inkscape:window-x="-8"
     inkscape:window-y="-8"
     inkscape:window-maximized="1"
     inkscape:current-layer="svg2" />
  <path
     sodipodi:type="star"
     style="opacity:1;fill:#ffffff;fill-opacity:0.78498292;stroke:none;stroke-width:0;stroke-miterlimit:4;stroke-dasharray:none;stroke-opacity:1"
     id="path4171"
     sodipodi:sides="6"
     sodipodi:cx="11.66726"
     sodipodi:cy="11.537243"
     sodipodi:r1="8.9009304"
     sodipodi:r2="7.7084317"
     sodipodi:arg1="0.52359878"
     sodipodi:arg2="1.0471976"
     inkscape:flatsided="true"
     inkscape:rounded="0"
     inkscape:randomized="0"
     d="m 19.375692,15.987708 -7.708432,4.450465 -7.7084317,-4.450465 0,-8.9009303 7.7084317,-4.4504652 7.708432,4.4504652 z" />
  <path
     inkscape:connector-curvature="0"
     style="fill:#8ed6fb;fill-opacity:1"
     d="m 12.28598,1.9791847 c -0.21,0 -0.410312,0.059687 -0.570312,0.1796875 L 3.8152772,6.5983257 c -0.32,0.17 -0.5292969,0.500859 -0.5292969,0.880859 l 0,9.0000003 c 0,0.38 0.2092969,0.710859 0.5292969,0.880859 l 7.9003908,4.439453 c 0.16,0.120001 0.360312,0.179688 0.570312,0.179688 0.21,0 0.410312,-0.05969 0.570312,-0.179688 l 7.900391,-4.439453 c 0.32,-0.17 0.529297,-0.500859 0.529297,-0.880859 l 0,-9.0000003 c 0,-0.38 -0.209297,-0.710859 -0.529297,-0.880859 L 12.856292,2.1588722 c -0.16,-0.12 -0.360312,-0.1796875 -0.570312,-0.1796875 z m 0,2.1503906 7,3.9394534 0,2.1035153 -0.01563,0 0,5.177735 0.01563,0 0,0.539062 -7,3.939453 -7.0000002,-3.939453 0,-7.8203123 7.0000002,-3.9394534 z m 0,2.0800784 L 7.3855898,9.0397317 12.28598,11.86981 17.186371,9.0397317 12.28598,6.2096537 Z m -5.0000002,5.0800783 0,3.580078 4.0000002,2.308594 0,-3.580078 -4.0000002,-2.308594 z m 10.0000002,0 -4,2.308594 0,3.580078 4,-2.308594 0,-3.580078 z"
     id="path4" />
  <path
     style="fill:#1c78c0;fill-opacity:1"
     d="M 12.28598,6.2096537 7.3855898,9.0397317 12.28598,11.869809 17.186371,9.0397317 12.28598,6.2096537 Z m -5.0000002,5.0800773 0,3.580078 4.0000002,2.308594 0,-3.580079 -4.0000002,-2.308593 z m 10.0000002,0 -4,2.308593 0,3.580079 4,-2.308594 0,-3.580078 z"
     id="path4-8"
     inkscape:connector-curvature="0" />
</svg>
