<svg xmlns="http://www.w3.org/2000/svg" width="32" height="32" viewBox="0 0 32 32"><path fill="#D28445" fill-rule="evenodd" d="M20.226 11.694c.309 0 .571-.111.788-.334.217-.223.326-.482.327-.779a1.06 1.06 0 0 0-.327-.79 1.096 1.096 0 0 0-.788-.32 1.031 1.031 0 0 0-.774.32 1.09 1.09 0 0 0-.313.79c0 .313.104.577.313.791.209.215.467.322.774.32v.002zm-1.06.973h2.121v8.167h-2.12v-8.167zm-6.768 5.417h2.881l.762 2.75h2.174l-3.153-10.722h-2.638v1.056l-2.772 9.668h1.957l.788-2.75.001-.002zM13.813 12l1.059 4.222h-2.12L13.81 12h.002zM4 4v24h24V4H4zm22.207 22.112H5.849V5.89h20.358v20.222z"/></svg>