<svg xmlns="http://www.w3.org/2000/svg" width="24" height="24" viewBox="0 0 24 24"><path d="M15 5h-1V4h1m-5 1H9V4h1m5.53-1.84L16.84.85c.19-.19.19-.51 0-.71a.513.513 0 0 0-.71 0l-1.48 1.48C13.85 1.23 12.95 1 12 1c-.96 0-1.86.23-2.66.63L7.85.14a.501.501 0 0 0-.7 0c-.2.2-.2.52 0 .71l1.31 1.31C6.97 3.26 6 5 6 7h12c0-2-1-3.75-2.47-4.84M20.5 8A1.5 1.5 0 0 0 19 9.5v7a1.5 1.5 0 0 0 1.5 1.5 1.5 1.5 0 0 0 1.5-1.5v-7A1.5 1.5 0 0 0 20.5 8m-17 0A1.5 1.5 0 0 0 2 9.5v7A1.5 1.5 0 0 0 3.5 18 1.5 1.5 0 0 0 5 16.5v-7A1.5 1.5 0 0 0 3.5 8M6 18a1 1 0 0 0 1 1h1v3.5A1.5 1.5 0 0 0 9.5 24a1.5 1.5 0 0 0 1.5-1.5V19h2v3.5a1.5 1.5 0 0 0 1.5 1.5 1.5 1.5 0 0 0 1.5-1.5V19h1a1 1 0 0 0 1-1V8H6v10z" fill="#c0ca33"/></svg>