<svg xmlns="http://www.w3.org/2000/svg" width="32" height="32" viewBox="0 0 32 32"><path fill="#7A8387" fill-rule="evenodd" d="M21.574 15.378c-.018-1.354.351-2.365 1.107-3.033.755-.667 1.159-1.02 1.211-1.055-.642-.92-1.371-1.501-2.188-1.744-.816-.244-1.398-.365-1.745-.365a4.228 4.228 0 0 0-2.356.416c-.738.365-1.324.547-1.758.547-.417 0-.938-.156-1.563-.468a4.32 4.32 0 0 0-1.953-.469 5 5 0 0 0-2.564.755 5.423 5.423 0 0 0-1.888 1.953 6.492 6.492 0 0 0-.834 2.695c-.086.98-.043 1.956.13 2.93.174.972.447 1.91.82 2.812.373.902.786 1.692 1.237 2.37.45.642.954 1.258 1.51 1.848.555.59 1.18.876 1.874.86.694-.035 1.25-.191 1.666-.469.417-.277 1.033-.416 1.848-.416.834 0 1.454.143 1.862.43.407.286.967.43 1.68.43.728-.018 1.344-.3 1.847-.847.504-.547.98-1.14 1.432-1.783.52-.764.894-1.454 1.12-2.07.225-.615.347-.95.365-1.003-.018 0-.495-.316-1.432-.95-.936-.633-1.413-1.757-1.431-3.37l.003-.004zm-2.708-7.967c.382-.451.682-.976.898-1.575.217-.598.29-1.21.222-1.836-.538.018-1.102.178-1.693.482a4.655 4.655 0 0 0-1.458 1.133c-.348.399-.647.897-.898 1.496a3.373 3.373 0 0 0-.247 1.81 3.08 3.08 0 0 0 1.758-.378 4.86 4.86 0 0 0 1.42-1.134l-.002.002z"/></svg>