<svg xmlns="http://www.w3.org/2000/svg" width="24" height="24" viewBox="0 0 24 24"><path d="M6 2c-1.11 0-2 .89-2 2v16a2 2 0 0 0 2 2h12a2 2 0 0 0 2-2V8l-6-6H6zm7 1.5L18.5 9H13V3.5zm-4.004 6.676c1.714 0 2.57.39 2.57 1.17v1.963c0 .828-.853 1.242-2.56 1.242-1.09 0-1.818-.08-2.184-.244-.359-.166-.539-.5-.539-.998v-1.813c0-.88.904-1.32 2.713-1.32zm6.483.068h.984v3.106h.783v1.132h-3.455V13.35h.732v-1.823h-.732v-.957c.847 0 1.41-.108 1.688-.326zM8.936 11.3c-.475 0-.711.17-.711.51v1.199l.03.148c.062.13.277.198.65.198.48 0 .722-.172.722-.516v-1.03l-.01-.173c0-.224-.228-.336-.681-.336zm6.521 4.601c1.714 0 2.57.39 2.57 1.17v1.963c0 .828-.853 1.242-2.56 1.242-1.09 0-1.818-.08-2.184-.244-.359-.165-.539-.499-.539-.998v-1.812c0-.88.904-1.32 2.713-1.32zm-6.44.069h.985v3.105h.783v1.133H7.33v-1.133h.732v-1.822H7.33v-.957c.847 0 1.41-.109 1.688-.326zm6.38 1.056c-.475 0-.711.169-.711.508V18.732l.03.149c.062.13.277.197.65.197.48 0 .722-.172.722-.515v-1.03l-.01-.174c0-.223-.228-.334-.682-.334z" fill="#795548"/></svg>