<svg xmlns="http://www.w3.org/2000/svg" width="24" height="24" viewBox="0 0 24 24"><path d="M5 3c-1.11 0-2 .89-2 2v14a2 2 0 0 0 2 2h14a2 2 0 0 0 2-2V5a2 2 0 0 0-2-2H5zm3.668 3.447a.9.9 0 0 1 .652.256.84.84 0 0 1 .262.625c0 .34-.014.852-.041 1.537-.022.68-.033 1.19-.033 1.53 0 .111-.016.326-.047.644a6.149 6.149 0 0 0-.033.68l2.578-.485c1.007-.179 1.874-.281 2.603-.308.018-.3.048-1.105.088-2.416.01-.345.115-.742.317-1.19.25-.55.533-.826.851-.826.237 0 .448.08.631.236.197.17.295.382.295.637a.775.775 0 0 1-.025.201c-.09.327-.135.612-.135.854 0 .125-.014.32-.041.584-.023.26-.033.453-.033.578 0 .425-.022 1.056-.067 1.893a38.963 38.963 0 0 0-.068 1.892c0 .327.025.816.074 1.465.05.649.074 1.136.074 1.463a.84.84 0 0 1-.261.625.893.893 0 0 1-.65.254 1 1 0 0 1-.686-.254.777.777 0 0 1-.29-.611c0-.327-.015-.818-.046-1.471a39.552 39.552 0 0 1-.041-1.47c0-.256.004-.482.013-.679-.702.032-1.57.142-2.603.33-.86.157-1.719.316-2.578.477-.01.304-.042.812-.096 1.523a22.354 22.354 0 0 0-.066 1.538.84.84 0 0 1-.262.625.893.893 0 0 1-.65.253.898.898 0 0 1-.653-.253.84.84 0 0 1-.262-.625c0-.452.038-1.128.114-2.028.08-.9.12-1.575.12-2.027 0-.573.015-1.436.042-2.586.027-1.155.04-2.017.04-2.59a.84.84 0 0 1 .263-.625.895.895 0 0 1 .65-.256z" fill="#4caf50"/></svg>