<svg xmlns="http://www.w3.org/2000/svg" width="32" height="32" viewBox="0 0 32 32"><path fill="#F4BF75" fill-rule="evenodd" d="M27.94 15.36c.808.321 1.13.964 1.047 1.93-.08 1.126-.644 1.608-1.853 1.77v.162c0 .401-.162.723-.485.885-.644.484-1.288.644-2.095.564-.08-.08-.163-.08-.322-.08-.645.885-1.934 1.127-3.063.484 0-.08-.08-.08-.162-.162-.485.563-1.047.563-1.691.483-.402-.08-.725-.241-1.13-.321 0 0 0 .08.08.162.323.643.725 1.366 1.13 2.092.162.322.162.723.08 1.127a1.488 1.488 0 0 1-.565.643c-.08 0-.162.08-.162.08-.163.723-.645 1.045-1.29 1.207-.242 0-.564-.08-.806 0-.242.08-.402.322-.565.402-.564.321-1.129.242-1.61 0-.163 0-.243-.08-.403 0-.484.321-1.369 0-1.61-.564-.243-.564-.403-1.127-.645-1.688 0-.08-.08-.162-.08-.242-.163.242-.243.401-.402.564-.725.805-1.691.885-2.658.321-.887-.563-1.531-1.286-2.176-2.092-1.53-2.172-2.418-4.665-2.497-7.319-.08-2.653.564-5.066 2.255-7.076C7.873 6.6 10.05 5.475 12.627 5.074c1.208-.163 2.417-.08 3.464.483 1.451.723 2.335 1.85 2.82 3.297.08.242.162.322.322.322.323.08.645.162.887.241 1.209-2.573 4.431-3.78 6.122-3.216L26 6.443c-.724.805-1.21 1.77-1.289 2.815-.08.484-.162.965-.322 1.449-.485 1.528-1.611 2.251-3.063 2.493h-.886c-.163 0-.243 0-.323-.162l-.242-.484c-.644 0-.887.242-1.046.965.322.08.724.08 1.129.162 2.255.322 4.51.564 6.766 1.207l1.217.471zm-5.477-3.297c.08 0 .08-.08.163-.162-.323-.08-.565-.162-.807-.162-.402-.163-.402-.163-.645.241h-.08c0-.483-.08-.483-.484-.483-.163 0-.243 0-.163.162.08.242.08.484.163.723.08.08.162.162.242.08.565 0 1.13-.162 1.611-.402v.003zm-1.531-2.574c-.08.08-.162.163 0 .242.162.162.402.242.644.322.565-.965 1.13-1.93 2.256-2.414h-.08c-.724.723-1.289 1.609-1.69 2.574-.08.08-.08.162 0 .162.321.401.723.723 1.208 1.045.08-.163.242-.402.242-.564.243-.643.402-1.287.565-1.85.08-.644.242-1.207.564-1.77a1.7 1.7 0 0 1 .323-.485 4.654 4.654 0 0 0-2.096.724c-.807.483-1.531 1.127-1.933 2.01l-.003.004zm-3.385 2.01c-.08.402.08.806.243 1.207 0-.08.08-.08.08-.08.564-.241 1.129-.483 1.773-.805.08 0 .08-.08.163-.162l-.08-.08c-.323.08-.645.162-1.047.242-.402 0-.807.08-1.129-.322.565.162 1.13.162 1.691-.08.644-.321 1.369-.321 2.013-.162l.967.242c-.242-.242-.402-.401-.645-.563-.966-.644-2.013-1.127-3.142-1.207-.162 0-.322 0-.322.08-.402.483-.644 1.044-.565 1.688v.002zm-3.866-2.975c-1.21 0-2.176.886-2.176 2.093 0 1.286.967 2.251 2.176 2.251a2.164 2.164 0 0 0 2.175-2.172 2.164 2.164 0 0 0-2.175-2.172zm5.8 7.558c2.095.242 4.109-.162 6.202-.321-.08 0-.163-.08-.243-.08-1.368-.242-2.74-.564-4.108-.723-.967-.162-2.014-.242-2.98-.402-.08 0-.243 0-.323.08-.242.242-.484.564-.724.885-.402.484-.644.965-.967 1.45-.886 1.044-1.933 1.77-3.302 2.009-.966.162-1.853.08-2.74-.162-.08-.08-.242-.08-.322 0-.807.484-1.691.484-2.658.401-.484 0-.966-.162-1.45-.321 0 .08 0 .162.079.242.724 1.448 1.691 2.653 3.062 3.538 1.532.965 3.223 1.449 4.996 1.366a4.107 4.107 0 0 0 3.707-3.378c0-.163-.08-.242-.08-.402-.162-.322-.242-.723-.402-1.127.724.643 2.175.401 2.335-.322.322.08.565.162.887.162.485 0 .887-.162 1.209-.483.242-.242.322-.484.242-.806h.243c.484.162 1.129-.08 1.368-.484.243-.241.163-.321-.162-.401-.724-.162-1.451-.242-2.176-.401-.564-.08-1.129-.242-1.69-.322l-.003.002zm-5.8-4.099c-.725 0-1.369-.563-1.369-1.287 0-.723.644-1.366 1.369-1.366.724 0 1.289.563 1.289 1.366 0 .724-.565 1.287-1.29 1.287zm-.645-2.172c-.242.08-.242.402 0 .564.323.242.967.242 1.21 0 .242-.162.242-.484 0-.564-.163-.162-.403-.162-.565-.242-.242.08-.402.08-.645.242z"/></svg>