<svg xmlns="http://www.w3.org/2000/svg" width="33" height="32" viewBox="0 0 33 32"><path fill="#6A9FB5" fill-rule="evenodd" d="M21.351 10.716c-.662-.718-1.303-1.196-1.923-1.435a5.167 5.167 0 0 0-1.873-.36c-.934 0-1.78.167-2.535.5a5.801 5.801 0 0 0-1.95 1.385 6.293 6.293 0 0 0-1.26 2.063 7.114 7.114 0 0 0-.447 2.537c0 .974.149 1.871.446 2.692.298.82.718 1.529 1.262 2.127a5.87 5.87 0 0 0 1.949 1.41c.756.341 1.6.512 2.535.512.73 0 1.44-.175 2.128-.525.688-.35 1.329-.91 1.923-1.679l2.65 1.897c-.815 1.128-1.809 1.948-2.981 2.46a9.245 9.245 0 0 1-3.746.77c-1.392 0-2.67-.227-3.834-.68a8.743 8.743 0 0 1-3.007-1.922c-.84-.829-1.499-1.824-1.975-2.986C8.238 18.32 8 17.03 8 15.612c0-1.453.238-2.773.713-3.96.476-1.188 1.134-2.2 1.975-3.038a8.65 8.65 0 0 1 3.007-1.935C14.858 6.226 16.137 6 17.529 6c1.224 0 2.357.218 3.402.654 1.045.435 2.017 1.174 2.918 2.217l-2.498 1.845z"/></svg>