<svg xmlns="http://www.w3.org/2000/svg" width="32" height="32" viewBox="0 0 32 32"><path fill="#AB7558" fill-rule="evenodd" d="M17.173 6.167c1.095-.27 3.286-.203 4.313.136 2.123.742 2.123 2.564 0 3.034-1.848.337-4.04-.067-4.04-.876 0-.406.754-.54 1.302-.203.616.473 2.055.406 2.603-.067.615-.473.411-.81-.754-1.012-1.165-.203-3.012.27-4.793 1.146-1.301.606-1.781.742-2.944.81-1.507 0-2.259-.204-2.876-.946-.342-.337-.342-.473-.206-.945.412-.743 2.464-1.147 3.353-.607.48.337.138.473-1.027.473-1.369-.067-1.917.27-1.437.742.412.54 2.055.406 3.218-.203 2.123-1.079 2.532-1.282 3.286-1.485l.002.003zM4.921 8.055c.822-.54 1.163-.606.89-.136-.138.136-.138.473-.138.676.205.742 3.012 1.685 5.614 1.955.754.067 1.643.136 1.985.203.753.067 5.614.067 7.187-.067 4.313-.27 7.735-1.416 7.393-2.495-.274-.742.616-.27 1.096.607.205.405-.206 1.079-1.028 1.485-.686.405-3.354 1.146-4.381 1.215a25.83 25.83 0 0 1-1.781.27c-1.37.202-8.762.202-10.27 0-2.328-.27-3.012-.406-4.587-.877-1.78-.54-2.876-1.349-2.738-1.955 0-.27.342-.676.754-.877l.004-.004zm-.48 3.777c-.138-.742-.068-.876.138-.606.274.406 2.603 1.349 3.56 1.485.342.067.822.136 1.095.203 1.917.472 10.27.606 12.87.27 3.286-.406 5.615-1.08 6.366-1.755.48-.406.48-.406.48-.067 0 .742-1.028 3.913-1.711 5.463-.412.81-1.301 2.225-2.055 3.237-.753 1.013-1.507 2.295-1.643 2.834C22.72 25.191 20.94 26 16.628 26c-4.246 0-5.957-.742-6.778-2.968-.206-.54-1.027-1.955-1.781-3.034a33.219 33.219 0 0 1-1.917-2.834c-.206-.473-.48-.877-.48-.877-.067 0-.273.27-.48.54-.479.742-.547 2.294-.137 3.304.48 1.146 1.917 2.362 2.944 2.495 1.301.27.686.607-1.027.676-1.302.067-1.508 0-2.191-.54C3.344 21.75 3 21.077 3 19.322c0-1.282.068-1.619.548-2.361.273-.406.753-1.013 1.095-1.35l.615-.472-.341-1.215a12.846 12.846 0 0 1-.48-2.092h.004z"/></svg>