<svg xmlns="http://www.w3.org/2000/svg" width="33" height="32" viewBox="0 0 33 32"><path fill="#AA759F" fill-rule="evenodd" d="M28.087 5H4.913c-.525 0-.975.186-1.351.557-.376.372-.564.831-.562 1.377v19.132c0 .546.187 1.005.562 1.377.374.371.824.557 1.35.557h23.175c.525 0 .975-.186 1.351-.557.376-.372.564-.831.562-1.377V6.934c0-.546-.187-1.005-.562-1.377A1.849 1.849 0 0 0 28.088 5zM6.864 18.4l3.862-3.797-3.862-3.833 1.913-1.937 5.813 5.77-5.813 5.731-1.913-1.937v.003zm15.449 1.934h-7.726v-1.937h7.726v1.937z"/></svg>