<svg xmlns="http://www.w3.org/2000/svg" width="33" height="32" viewBox="0 0 33 32"><g fill="#6A9FB5" fill-rule="evenodd"><path d="M22.01 17.77h-1.213v-1.802h-1.802v-1.24h1.802v-1.813h1.214v1.813h1.811v1.24h-1.811v1.803zm5.618 0h-1.214v-1.802h-1.802v-1.24h1.802v-1.813h1.214v1.813h1.811v1.24h-1.81v1.803z"/><path d="M18.57 10.716c-.663-.718-1.304-1.196-1.924-1.435a5.167 5.167 0 0 0-1.873-.36c-.934 0-1.78.167-2.535.5a5.801 5.801 0 0 0-1.95 1.385 6.293 6.293 0 0 0-1.26 2.063 7.114 7.114 0 0 0-.447 2.537c0 .974.149 1.871.446 2.692.297.82.718 1.529 1.261 2.127a5.87 5.87 0 0 0 1.95 1.41c.756.341 1.6.512 2.535.512.73 0 1.44-.175 2.127-.525.688-.35 1.33-.91 1.924-1.679l2.65 1.897c-.815 1.128-1.809 1.948-2.981 2.46a9.245 9.245 0 0 1-3.746.77c-1.393 0-2.67-.227-3.834-.68a8.743 8.743 0 0 1-3.007-1.922c-.84-.829-1.5-1.824-1.975-2.986-.475-1.162-.713-2.452-.713-3.87 0-1.453.238-2.773.713-3.96.476-1.188 1.134-2.2 1.975-3.038a8.65 8.65 0 0 1 3.007-1.935C12.076 6.226 13.354 6 14.747 6c1.223 0 2.357.218 3.402.654 1.045.435 2.017 1.174 2.917 2.217l-2.497 1.845z"/></g></svg>