<svg xmlns="http://www.w3.org/2000/svg" width="24" height="24" viewBox="0 0 24 24"><title>Dart</title><path d="M12.486 1.385a.978.978 0 0 0-.682.281l-.01.007-6.387 3.692 6.371 6.372v.004l7.659 7.659 1.46-2.63-5.265-12.64-2.456-2.457a.972.972 0 0 0-.69-.288z" fill="#00ca94"/><path d="M5.422 5.35L1.73 11.733l-.007.01a.967.967 0 0 0 .006 1.371l3.059 3.061 11.963 4.706 2.704-1.502-.073-.073-.018.002-7.5-7.512h-.01L5.423 5.35z" fill="#1565c0"/><path d="M5.405 5.353l6.518 6.525h.01l7.502 7.51 2.855-.544.005-8.449-3.016-2.955c-.66-.647-1.675-1.064-2.695-1.202l.002-.032-11.181-.853z" fill="#1565c0"/><path d="M5.414 5.361l6.521 6.522v.009l7.506 7.506-.546 2.855h-8.448l-2.954-3.017c-.647-.66-1.064-1.676-1.2-2.696l-.033.003L5.414 5.36z" fill="#00ee94"/></svg>