<svg xmlns="http://www.w3.org/2000/svg" width="32" height="32" viewBox="0 0 32 32"><path fill="#AC4142" d="M25.709 7C26.974 7 28 8.144 28 9.556v12.888C28 23.855 26.974 25 25.709 25H6.29C5.026 25 4 23.855 4 22.444V9.556C4 8.144 5.026 7 6.291 7H25.71zm-1.437 6.7h-.001v-.004c-.002-1.763-1.556-3.19-3.47-3.19a3.623 3.623 0 0 0-2.38.876 7.189 7.189 0 0 0-1.823-1.098c-1.254-.534-2.891-.777-4.92-.773l-4.924.007c-.021 0-.042-.002-.062 0a.478.478 0 0 0-.432.458l.015 11.959a.414.414 0 0 0 0 .051.347.347 0 0 0 0 .082v.012c.004.01.01.022.013.034v.005c.003.012.003.024.007.036v.011l.018.035v.005c.008.012.021.024.03.035v.005a.274.274 0 0 0 .019.035v.012c.012.009.024.015.037.023v.011l.025.023.013.012a.245.245 0 0 0 .024.022h.007c.022.02.048.038.073.053h.013l.038.017h.006l.037.017c.018.003.038.004.056.006.03.005.062.011.093.011l4.61-.018c1.302-.002 2.175-.025 2.695-.09h.012a9.356 9.356 0 0 0 1.598-.384 7.898 7.898 0 0 0 2.64-1.393 6.419 6.419 0 0 0 1.725-2.103c.264-.519.441-1.059.533-1.612.07.004.14.006.21.006 1.916 0 3.466-1.431 3.465-3.194zm-9.249-.604l-.001.001c.961.74 1.415 1.628 1.417 2.805.003 1.204-.435 2.142-1.372 2.929-.287.24-.608.442-.962.61-.334.155-.77.29-1.32.406-.518.104-1.306.164-2.332.165l-2.184.003-.011-8.037 2.123-.003c.992-.002 1.697.029 2.098.084.405.056.85.174 1.321.356.467.178.874.397 1.223.67v.011zm10.847-2.903v-.001c-.001-.567-.5-1.026-1.115-1.025-.616.001-1.113.46-1.113 1.027v.001c0 .567.5 1.026 1.115 1.025.615-.001 1.113-.46 1.113-1.027z"/></svg>