<svg id="svg2" xmlns="http://www.w3.org/2000/svg" xmlns:xlink="http://www.w3.org/1999/xlink" viewBox="0 0 500 500"><style>.st0{clip-path:url(#SVGID_2_)}.st1{clip-path:url(#SVGID_4_);fill:#6a9fb5}</style><defs><path id="SVGID_1_" d="M156.6 308.9c-6.1 0-11 5-11 11.1s4.9 11.1 11 11.1 11-5 11-11.1-4.9-11.1-11-11.1zm100.6-105.2v40.2H297v-40.2h-39.8zm-46-92.7v40.2H251V111h-39.8zm0 46.3v40.2H251v-40.2h-39.8zm0 46.4v40.2H251v-40.2h-39.8zm-46-46.4v40.2H205v-40.2h-39.8zm0 46.4v40.2H205v-40.2h-39.8zm-45.9 0v40.2h39.8v-40.2h-39.8zm0-46.4v40.2h39.8v-40.2h-39.8zm-46 46.4v40.2h39.8v-40.2H73.3zm112.5 185c-27.2-13-42.2-30.7-50.5-50-10.1 2.9-22.3 4.8-36.4 5.6-5.3.3-10.9.5-16.8.5-6.8 0-13.9-.2-21.4-.6 25 25.1 55.7 44.5 112.5 44.9 4.3-.1 8.5-.2 12.6-.4zm118.9-192.8v47.4h23.2c10.7 0 21.8-1.9 31.9-5.4 5-1.7 10.6-4.1 15.5-7.1-6.5-8.5-9.8-19.3-10.8-29.9-1.3-14.5 1.6-33.3 11.3-44.6l4.8-5.6 5.8 4.7c14.5 11.7 26.7 28.1 28.8 46.8 17.5-5.2 38-4 53.3 5l6.3 3.7-3.3 6.5c-13 25.6-40.2 33.5-66.8 32.1-39.7 99.9-126.3 147.2-231.4 147.2-54.3 0-104.1-20.4-132.4-69l-4.6-9.3c-9.6-21.4-12.8-44.8-10.6-68.1l.6-7h39.3V196h46v-46.3h91.9v-46.3h55.2v92.7h46z"/></defs><clipPath id="SVGID_2_"><use xlink:href="#SVGID_1_" overflow="visible"/></clipPath><g class="st0"><defs><path id="SVGID_3_" d="M-73.4-14.4h626.8v626.8H-73.4z"/></defs><clipPath id="SVGID_4_"><use xlink:href="#SVGID_3_" overflow="visible"/></clipPath><path class="st1" d="M-72.9 5.4H573v489.3H-72.9z"/></g></svg>