<svg width="33" height="32" viewBox="0 0 33 32" xmlns="http://www.w3.org/2000/svg"><title>dotnet</title><path d="M8.678 18.464H5.402L4.952 20h-2.94l3.498-9.306h3.136L12.144 20h-3.01l-.456-1.536zm-.603-2.012l-1.029-3.346-1.022 3.346h2.05zm4.488.47l2.735-.172c.06.444.18.783.362 1.016.296.376.72.565 1.27.565.41 0 .726-.097.949-.29.222-.192.333-.415.333-.669 0-.241-.106-.457-.317-.647-.212-.19-.703-.37-1.473-.54-1.261-.283-2.16-.66-2.698-1.13-.542-.47-.812-1.068-.812-1.796 0-.478.138-.93.415-1.355.278-.426.694-.76 1.25-1.003.557-.244 1.32-.365 2.29-.365 1.188 0 2.095.22 2.72.663.623.442.995 1.146 1.113 2.11l-2.71.16c-.072-.42-.223-.724-.454-.915-.23-.19-.55-.285-.955-.285-.335 0-.587.07-.756.212a.652.652 0 0 0-.254.518c0 .148.07.28.21.4.135.122.457.236.965.342 1.256.271 2.157.545 2.7.822.544.277.94.621 1.188 1.032.247.41.37.87.37 1.377a2.95 2.95 0 0 1-.494 1.65c-.33.504-.792.886-1.384 1.146-.592.26-1.34.39-2.24.39-1.583 0-2.68-.304-3.289-.913-.61-.61-.954-1.384-1.034-2.324zm9.876-6.228h4.78c1.041 0 1.821.248 2.34.743.518.495.777 1.2.777 2.114 0 .94-.283 1.673-.847 2.202-.565.53-1.428.794-2.587.794h-1.574V20h-2.889v-9.306zm2.889 3.968h.704c.555 0 .944-.097 1.168-.29a.93.93 0 0 0 .337-.739c0-.292-.098-.54-.292-.742-.195-.204-.561-.305-1.099-.305h-.818v2.076z" fill="#6A9FB5" fill-rule="evenodd"/></svg>