<svg xmlns="http://www.w3.org/2000/svg" xmlns:xlink="http://www.w3.org/1999/xlink" width="24" height="24" viewBox="0 0 24 24"><defs><linearGradient id="a"><stop offset="0" stop-color="#d92f3c"/><stop offset="1" stop-color="#791223"/></linearGradient><linearGradient xlink:href="#a" id="b" x1="2.373" y1="12.027" x2="21.86" y2="12.027" gradientUnits="userSpaceOnUse" gradientTransform="translate(-.09 -24.144)"/></defs><rect width="19.487" height="19.487" x="2.283" y="-21.86" transform="rotate(90)" ry="0" fill="url(#b)"/><path style="line-height:125%" d="M16.802 5.768l-.013.002a6.43 6.43 0 0 0-1.182.192 5.062 5.062 0 0 0-1.494.718c-.428.323-.817.72-1.17 1.191-.34.48-.682 1.032-1.022 1.66-.12.228-.233.424-.35.636v.002h-.004l-1.34 2.394-.005-.002c-.238.443-.461.847-.665 1.198a4.358 4.358 0 0 1-.716.94 2.79 2.79 0 0 1-.907.594c-.072.027-.161.042-.242.063h-.989v2.414h.989v-.002a6.427 6.427 0 0 0 1.185-.192 5.062 5.062 0 0 0 1.494-.718 5.94 5.94 0 0 0 1.171-1.191c.34-.48.681-1.033 1.021-1.66.12-.228.235-.425.353-.637l.006.002.003-.005.037-.066h2.53v.002h1.124v-2.408h-.33v-.001h-1.98c.22-.407.432-.789.621-1.115.214-.37.452-.682.717-.94a2.79 2.79 0 0 1 .906-.594c.07-.027.16-.041.239-.061h.992V8.18h-.002V5.77h-.977v-.002z" font-weight="400" font-size="40" font-family="sans-serif" letter-spacing="0" word-spacing="0" fill="#fff"/></svg>