<svg id="Layer_1" data-name="Layer 1" xmlns="http://www.w3.org/2000/svg" viewBox="0 0 24 24"><defs><style>.st0{fill:#E57373}.st1{fill:#ffe0b2}</style></defs><title>folder_vscode_open</title><path class="st0" d="M20.8 5.25H12L9.8 3H3.2A2.23 2.23 0 0 0 1 5.25v13.5A2.23 2.23 0 0 0 3.2 21h17.6a2.23 2.23 0 0 0 2.2-2.25V7.5a2.23 2.23 0 0 0-2.2-2.25zm0 13.5H3.2V7.5h17.6z"/><path class="st1" d="M20.87 9.38l-6.42 5.9-3.59-2.7-1.48.86 3.54 3.25-3.55 3.25 1.48.87 3.59-2.7L20.87 24 24 22.48V10.9zm0 3.88v6.86l-4.55-3.43z"/></svg>