<svg xmlns="http://www.w3.org/2000/svg" width="32" height="32" viewBox="0 0 32 32"><path fill="#AC4142" fill-rule="evenodd" d="M28.486 14.846L17.143 3.505A1.53 1.53 0 0 0 15.973 3c-.47 0-.871.168-1.206.505l-2.341 2.34 2.989 2.99a1.87 1.87 0 0 1 1.062-.054c.372.085.702.27.991.558.264.264.439.582.523.954a2.01 2.01 0 0 1-.053 1.099l2.88 2.88c.337-.12.691-.144 1.063-.072.372.073.702.252.991.54.384.384.576.851.576 1.403a1.91 1.91 0 0 1-.576 1.403 1.91 1.91 0 0 1-1.403.576 1.91 1.91 0 0 1-1.404-.576 1.89 1.89 0 0 1-.539-1.025 2.044 2.044 0 0 1 .108-1.134l-2.7-2.7v7.092c.096.047.186.101.269.161l.27.198c.384.384.576.852.576 1.403a1.91 1.91 0 0 1-.576 1.404 1.854 1.854 0 0 1-1.404.613c-.551 0-1.02-.205-1.403-.613a1.853 1.853 0 0 1-.613-1.404c0-.551.204-1.019.613-1.403a1.942 1.942 0 0 1 .647-.43v-7.13a1.808 1.808 0 0 1-.34-.18 2.129 2.129 0 0 1-.307-.25 1.825 1.825 0 0 1-.576-1.044 1.88 1.88 0 0 1 .145-1.152L11.283 7l-7.778 7.813A1.53 1.53 0 0 0 3 15.983c0 .47.168.86.505 1.171l11.343 11.341a1.53 1.53 0 0 0 1.17.505c.469 0 .87-.168 1.206-.505l11.271-11.27c.337-.336.505-.732.505-1.188 0-.456-.168-.853-.505-1.19l-.009-.001z"/></svg>