<svg xmlns="http://www.w3.org/2000/svg" width="33" height="32" viewBox="0 0 33 32"><path fill="#3D4C52" d="M16.5 2C8.493 2 2 8.426 2 16.353c0 6.342 4.154 11.722 9.917 13.62.726.131.99-.313.99-.692 0-.341-.012-1.474-.02-2.671-4.033.867-4.885-1.693-4.885-1.693-.66-1.658-1.61-2.1-1.61-2.1-1.318-.89.1-.872.1-.872 1.455.1 2.223 1.48 2.223 1.48 1.293 2.193 3.395 1.559 4.22 1.19.131-.925.506-1.56.92-1.916-3.218-.362-6.605-1.594-6.605-7.094 0-1.569.566-2.847 1.492-3.852-.148-.365-.648-1.825.143-3.8 0 0 1.216-.385 3.988 1.471a13.925 13.925 0 0 1 3.628-.482c1.231.005 2.472.165 3.63.485 2.766-1.86 3.985-1.472 3.985-1.472.792 1.977.294 3.436.145 3.799.93 1.004 1.49 2.284 1.49 3.852 0 5.514-3.391 6.728-6.621 7.084.522.445.983 1.318.983 2.656 0 1.919-.02 3.466-.02 3.94 0 .382.264.828.999.687C26.85 28.073 31 22.693 31 16.355 31 8.429 24.508 2 16.5 2V2z"/></svg>