<svg xmlns="http://www.w3.org/2000/svg" width="32" height="32" viewBox="0 0 32 32"><path fill="#6A9FB5" fill-rule="evenodd" d="M11.543 15.934v2.854c-.595.245-1.19.402-1.61.402-1.594 0-2.767-1.225-2.767-2.923 0-1.663 1.156-2.888 2.731-2.888 1.016 0 2.206.507 3.029 1.295l2.293-2.783C13.906 10.735 11.823 10 9.915 10 5.905 10 3 12.643 3 16.267c0 3.641 2.8 6.302 6.652 6.302 1.75 0 4.009-.665 5.374-1.575v-5.06h-3.483zM22.659 10c-3.904 0-6.74 2.608-6.74 6.25 0 3.658 2.836 6.319 6.74 6.319 3.904 0 6.74-2.678 6.74-6.32 0-3.623-2.836-6.249-6.74-6.249zm.052 3.379c1.4 0 2.521 1.207 2.521 2.888 0 1.68-1.12 2.923-2.52 2.923-1.401 0-2.627-1.242-2.627-2.923 0-1.68 1.208-2.888 2.626-2.888z"/></svg>