<svg xmlns="http://www.w3.org/2000/svg" width="33" height="32" viewBox="0 0 33 32"><g fill="#AA759F"><path d="M7.134 22.809l-.945-.55L16.713 3.861l.945.55z"/><path d="M5.973 20.789h21.048v1.101H5.973z"/><path d="M16.917 27.543L6.39 21.407l.545-.953 10.529 6.135-.546.954zm9.146-15.99L15.535 5.417l.545-.953 10.528 6.135-.545.954z"/><path d="M6.937 11.548l-.545-.953L16.92 4.46l.545.953z"/><path d="M25.869 22.81L15.345 4.411l.944-.55 10.524 18.397-.944.55zM6.807 9.864h1.091v12.27h-1.09V9.865zm18.295 0h1.09v12.27h-1.09V9.865z"/><path d="M16.731 27.077l-.476-.833 9.157-5.336.476.832z"/><path d="M27.639 22.493a2.285 2.285 0 0 1-3.135.85c-1.097-.637-1.472-2.057-.841-3.164a2.285 2.285 0 0 1 3.134-.85 2.32 2.32 0 0 1 .842 3.164M9.33 11.821a2.285 2.285 0 0 1-3.135.85c-1.097-.637-1.472-2.057-.841-3.164a2.285 2.285 0 0 1 3.134-.85 2.332 2.332 0 0 1 .842 3.164M5.36 22.493a2.332 2.332 0 0 1 .842-3.163 2.287 2.287 0 0 1 3.134.849 2.332 2.332 0 0 1-.841 3.163 2.284 2.284 0 0 1-3.135-.849M23.67 11.821a2.332 2.332 0 0 1 .842-3.163 2.287 2.287 0 0 1 3.134.849 2.332 2.332 0 0 1-.841 3.163 2.285 2.285 0 0 1-3.135-.849M16.5 28.987a2.302 2.302 0 0 1-2.293-2.315 2.302 2.302 0 0 1 2.293-2.315 2.302 2.302 0 0 1 2.293 2.315c0 1.273-1.025 2.315-2.293 2.315m0-21.344a2.302 2.302 0 0 1-2.293-2.315A2.302 2.302 0 0 1 16.5 3.013a2.302 2.302 0 0 1 2.293 2.315A2.302 2.302 0 0 1 16.5 7.643"/></g></svg>