<svg xmlns="http://www.w3.org/2000/svg" width="24" height="24" viewBox="0 0 24 24"><path d="M12 1.982a10.119 10.119 0 0 0-10.12 10.12A10.119 10.119 0 0 0 12 22.22 10.119 10.119 0 0 0 22.12 12.1 10.119 10.119 0 0 0 12 1.983zm1.254 2.422c.91 0 1.647.261 2.213.78.571.518.857 1.188.857 2.013 0 .889-.319 1.673-.959 2.35-.64.677-1.376 1.015-2.207 1.015-.486 0-.89-.119-1.213-.357-.317-.238-.476-.532-.476-.88 0-.212.06-.4.181-.563.127-.164.274-.246.438-.246.159 0 .238.092.238.277 0 .164.06.29.182.38.121.09.261.136.42.136.423 0 .828-.29 1.215-.866.391-.582.587-1.202.587-1.863 0-.465-.151-.844-.453-1.135-.301-.296-.69-.445-1.166-.445-.714 0-1.406.318-2.078.953-.666.635-1.211 1.47-1.635 2.506-.417 1.031-.627 2.014-.627 2.945 0 .857.185 1.54.555 2.047.37.503.863.754 1.477.754 1.037 0 2.027-.734 2.974-2.2l1.493-.212c.185-.026.277.018.277.135 0 .053-.072.28-.215.681-.143.402-.337 1.074-.586 2.016.82-.476 1.455-1.003 1.904-1.58v.914c-.36.418-1.046.888-2.062 1.412-.212 1.407-.682 2.493-1.406 3.26-.725.772-1.54 1.16-2.444 1.16-.433 0-.775-.102-1.023-.303-.243-.2-.365-.477-.365-.832 0-.984.955-1.94 2.865-2.865.2-.714.395-1.356.586-1.928-.333.482-.817.907-1.451 1.278-.635.37-1.225.554-1.77.554-.889 0-1.628-.383-2.22-1.15-.588-.772-.881-1.748-.881-2.928 0-1.243.333-2.42 1-3.531a7.747 7.747 0 0 1 2.625-2.674c1.084-.672 2.134-1.008 3.15-1.008zM12.03 16.592c-1.375.687-2.062 1.365-2.062 2.031 0 .354.169.533.508.533.666 0 1.184-.856 1.554-2.564z" fill="#26c6da"/></svg>