<svg xmlns="http://www.w3.org/2000/svg" width="32" height="32" viewBox="0 0 32 32"><path fill="#F4BF75" d="M15.996 12.898c-.672-.007-1.434-.939-1.434-.939.524.318.991.428 1.438.438.447-.01.914-.12 1.438-.438 0 0-.762.932-1.434.94h-.008zM13.97 25.07h.337c.219 0 .377.048.467.14.116.119.079.272.046.352-.057.14-.29.595-.686 1.019a.782.782 0 0 1-.58.236.97.97 0 0 1-.62-.222c-.123-.107-.539-.49-.722-.958-.068-.174-.053-.314.047-.415.068-.07.21-.152.499-.152h1.212zM9.39 13.995s-.335-.481-.275-1.011c.03-.261.151-.53.373-.626a5.205 5.205 0 0 0-.713-.218c2.226-.54 3.867 1.086 4.379 1.676.877 1.01 1.87.462 1.87.462.016.585-.543 1.003-1.113 1.028.062.816-.731 1.715-.731 1.715s.293-.79.14-1.332a4.108 4.108 0 0 0-.156-.446c-1.015.91-2.527.08-2.889-.322-.505-.56-.65-1.257-.672-1.8-.096.2-.178.48-.213.874zm3.584.846c-.301.178-1.14.553-1.998-.085-.548-.408-.523-1.388-.367-1.866 1.029.578 1.972 1.353 2.365 1.951zm6.062 10.23h.205c.288 0 .43.082.498.152.099.1.115.24.046.415-.182.47-.598.851-.721.958a.964.964 0 0 1-.62.222.782.782 0 0 1-.58-.236 3.855 3.855 0 0 1-.686-1.02c-.032-.08-.069-.23.047-.35.09-.093.247-.14.466-.14h1.345zm-.215-8.05s-.792-.9-.73-1.715c-.57-.024-1.129-.443-1.113-1.028 0 0 .993.548 1.87-.462.513-.59 2.154-2.217 4.38-1.676-.23.05-.47.125-.708.22.216.094.336.363.366.624.06.529-.275 1.01-.275 1.01-.035-.394-.117-.674-.213-.874-.022.543-.167 1.242-.672 1.801-.363.402-1.874 1.232-2.89.322-.052.129-.108.281-.155.446-.153.541.14 1.332.14 1.332zm2.57-4.131c.156.479.18 1.46-.367 1.866-.857.638-1.698.263-2 .088.395-.6 1.34-1.375 2.367-1.954zm1.597 9.15c-.162-1.198-.196-2.927-.196-3.29 0-.776.5-1.293.642-1.375.134-.078.283-.157.438-.241.948-.508 2.129-1.14 2.129-2.307 0-.852-.49-1.223-.813-1.467a5.08 5.08 0 0 1-.114-.087c-.109-.088-.196-.159-.228-.23-.229-.516-.187-1.806-.088-1.984.03-.033.882-1.103.62-2.065a1.408 1.408 0 0 0-.743-.896c-.28-.143-.625-.223-1.028-.238a1.932 1.932 0 0 0-.049-.309c-.03-.138-.06-.28-.048-.425.02-.245.04-.477.113-.593.446-.703 1.52-.928 1.53-.93l.646-.127-.427-.5c-.008-.01-.91-.922-2.439-.922-.417 0-.844.07-1.268.206-1.277.413-2.258 1.609-2.6 2.07a8.68 8.68 0 0 0-.504-.14c-.22-.833.472-2.03.472-2.03s-.713-.158-1.772.804c-.138-.343-.426-1.081-.093-1.964-1.552.55-1.943 1.387-2.06 2.146-.4-.286-.355-1.216-.377-1.455-.397.048-1.536 1.154-1.485 2.548a7.46 7.46 0 0 0-.309.09c-.341-.462-1.322-1.658-2.599-2.07a4.106 4.106 0 0 0-1.268-.208c-1.528 0-2.43.912-2.439.922l-.427.5.646.127c.01.002 1.085.227 1.53.93.073.116.093.348.113.593.013.146-.019.288-.048.425a1.928 1.928 0 0 0-.05.31c-.403.015-.749.095-1.028.238-.38.195-.637.504-.743.896-.262.96.59 2.03.62 2.065.1.178.142 1.468-.088 1.984-.032.072-.118.141-.228.23a5.08 5.08 0 0 1-.114.087c-.323.245-.813.615-.813 1.467 0 1.165 1.18 1.798 2.129 2.307.155.084.303.163.438.24.142.083.642.6.642 1.376 0 .363-.034 2.092-.196 3.29-.608-.521-1.17-1.364-1.295-2.307 0 0-1.54 1.19-1.088 3.736.411 2.312 2.294 3.117 4.48 3.288.732 1.71 1.894 3.243 4.886 3.245 3-.002 4.162-1.537 4.895-3.245 2.185-.17 4.067-.975 4.479-3.288.452-2.546-1.088-3.736-1.088-3.736-.127.945-.687 1.788-1.295 2.31zm-.069-17.197c.58 0 1.051.158 1.301.264a3.617 3.617 0 0 0-.51.281 2.84 2.84 0 0 0-.485-.041c-.553 0-1.077.163-1.514.47-.65.457-.95.892-1.087 1.18A6.347 6.347 0 0 0 20 6.682c.323-.473 1.048-1.392 1.988-1.695.297-.094.609-.144.93-.144zm.055 1.277c-.174.276-.203.614-.23.94-.028.338-.057.66-.23.894-.22.041-.426.091-.604.14a3.348 3.348 0 0 0-.554-.587c.076-.254.291-.851.714-1.188.288-.23.634-.353 1.025-.37-.043.056-.084.111-.12.171zM7.78 5.107c.25-.106.72-.264 1.3-.264.32 0 .634.049.931.144.94.303 1.665 1.222 1.988 1.696a6.71 6.71 0 0 0-.623.314c-.139-.288-.439-.723-1.087-1.18a2.618 2.618 0 0 0-1.514-.47c-.191 0-.357.019-.484.041a3.798 3.798 0 0 0-.511-.28zm3.215 19.118c-.38.412-.453.978-.216 1.682-1.188-.02-2.43-.529-3.061-1.568-.64-1.053-.46-2.852-.198-3.115.575 1.816 2.487 2.335 3.918 2.397-.14.22-.272.4-.368.528a1.716 1.716 0 0 0-.075.076zm10.225 1.682c.237-.704.165-1.27-.216-1.682a1.773 1.773 0 0 0-.076-.077 8.377 8.377 0 0 1-.367-.526c1.432-.063 3.344-.582 3.918-2.397.262.263.442 2.062-.198 3.115-.631 1.038-1.873 1.548-3.061 1.567z"/></svg>