<svg xmlns="http://www.w3.org/2000/svg" width="32" height="32" viewBox="0 0 32 32"><path fill="#D14748" fill-rule="evenodd" d="M16.924 7.09l.7-3.022L21.058.035h.001c.084-.087.352-.01.6.218.247.228.397.494.323.58-.02.024-.053.032-.095.029L18.69 4.628l-.558 2.527c2.228.158 3.775.509 3.775.916 0 .556-2.89 1.006-6.454 1.006C11.89 9.077 9 8.627 9 8.071s2.89-1.007 6.454-1.007c.506 0 .998.009 1.47.026zm-1.53 18.161c1.678 0 2.975-.282 3.6-.45a6.346 6.346 0 0 0 1.038-.36l-.787 1.538-.258 5.014c0 .556-1.582 1.007-3.533 1.007-1.951 0-3.533-.45-3.533-1.007l-.325-4.96-.832-1.587c.26.122.603.24 1.03.356.623.167 1.92.45 3.6.45zm4.665-16.14c.61-.095 1.094-.207 1.435-.333.082-.03.22-.082.354-.164l-.827 8.549c-.172.17-.325.32-.456.446-.19.183-.348.329-.472.438-.124.109-.22.185-.29.23-.068.043-.12.065-.155.065-.044 0-.075-.01-.094-.03a.116.116 0 0 1-.028-.081c.002-.025.03-.073.083-.143.053-.07.118-.156.196-.256.079-.1.162-.212.252-.335.09-.123.173-.249.25-.378a2.72 2.72 0 0 0 .192-.387.977.977 0 0 0 .077-.361.486.486 0 0 0-.18-.387.566.566 0 0 0-.181-.097.656.656 0 0 0-.505.037c-.1.047-.198.108-.294.182a2.667 2.667 0 0 0-.278.25c-.09.092-.173.185-.25.28a.573.573 0 0 0 .02-.08 2.69 2.69 0 0 0 .043-.305c0-.083-.02-.146-.057-.188-.037-.043-.098-.065-.18-.065-.055 0-.106.033-.153.098a1.18 1.18 0 0 0-.126.229 3.08 3.08 0 0 0-.1.269l-.069.21c-.028.113-.06.228-.095.345a.14.14 0 0 0-.049.036 9.233 9.233 0 0 1-.431.453 7.716 7.716 0 0 1-.245.227 3.463 3.463 0 0 1-.238.194 1.644 1.644 0 0 1-.212.137.372.372 0 0 1-.164.051c-.036 0-.06-.012-.072-.037a.222.222 0 0 1-.019-.099c0-.066.01-.141.033-.225.022-.084.044-.158.067-.222a142.897 142.897 0 0 1 1.155-3.166c.072-.187.134-.346.186-.475a2.02 2.02 0 0 0 .067-.178.512.512 0 0 0 .027-.157c0-.105-.027-.18-.08-.228a.26.26 0 0 0-.177-.07.335.335 0 0 0-.192.066.445.445 0 0 0-.152.228l-.946 2.666-.207.583c-.075.212-.149.425-.222.64-.04.114-.074.24-.104.375a2.403 2.403 0 0 1-.079.07c-.105.09-.205.159-.301.209a.551.551 0 0 1-.24.074c-.093 0-.138-.05-.138-.149 0-.107.014-.224.042-.35.028-.125.063-.253.106-.384.043-.13.09-.26.14-.386.05-.127.096-.246.138-.358.043-.111.078-.21.106-.297a.711.711 0 0 0 .043-.205.39.39 0 0 0-.066-.227.206.206 0 0 0-.178-.095.208.208 0 0 0-.172.09.945.945 0 0 0-.122.228c-.035.091-.068.19-.098.298a2.53 2.53 0 0 1-.105.301c-.056.14-.127.296-.211.465a3.61 3.61 0 0 1-.283.476c-.104.147-.218.27-.34.37a.61.61 0 0 1-.388.149.107.107 0 0 1-.103-.062.298.298 0 0 1-.031-.137c.004-.118.021-.24.053-.366.031-.125.069-.248.112-.37.044-.121.091-.238.142-.35.051-.114.1-.22.146-.317l.12-.26c.034-.077.057-.138.067-.185a.32.32 0 0 0 .01-.078.232.232 0 0 0-.09-.188.31.31 0 0 0-.178-.06.293.293 0 0 0-.187.068.555.555 0 0 0-.152.225c-.17.397-.303.735-.397 1.013-.093.278-.163.505-.207.68a2.97 2.97 0 0 0-.093.51c0 .12.015.218.044.296.03.079.068.141.116.188.048.047.103.08.167.1.064.019.13.028.198.028.152 0 .293-.028.422-.084.13-.057.246-.13.35-.221.105-.091.197-.192.279-.302.08-.11.149-.22.203-.327-.034.168-.05.316-.05.443 0 .179.031.306.093.38a.303.303 0 0 0 .244.111c.1 0 .213-.03.338-.093a2.196 2.196 0 0 0 .492-.338l.01.076c.016.072.04.134.074.186.035.052.08.094.138.124.057.03.129.045.214.045a.863.863 0 0 0 .386-.099c.132-.066.266-.155.4-.266.135-.112.27-.24.405-.387l.02-.022c-.023.057-.043.112-.065.169-.108.271-.22.546-.336.822-.117.277-.232.554-.344.83l-.055.154c-.02.054-.039.11-.058.166a1.631 1.631 0 0 0-.047.171.801.801 0 0 0-.018.17c0 .113.024.19.073.23.05.04.111.06.186.06.058 0 .11-.015.158-.044a.458.458 0 0 0 .125-.116.854.854 0 0 0 .097-.167c.028-.064.052-.131.073-.203.006-.025.021-.072.044-.14l.08-.24.097-.29.098-.291a32.755 32.755 0 0 1 .134-.383c.009-.019.023-.054.043-.105l.067-.173c.025-.065.052-.134.083-.207l.086-.213a10.348 10.348 0 0 1 .128-.314 5.027 5.027 0 0 1 .348-.658c.072-.113.15-.221.231-.326.083-.105.167-.198.254-.28.086-.08.174-.145.262-.193a.538.538 0 0 1 .258-.073c.048 0 .082.01.103.029.021.02.031.046.031.079a.47.47 0 0 1-.075.215c-.05.088-.113.185-.189.29-.076.107-.159.22-.248.338-.09.118-.174.236-.253.351-.08.116-.147.228-.203.335a.807.807 0 0 0-.1.32v.032c0 .135.043.24.13.318.086.077.208.116.366.116.17 0 .327-.036.475-.108a2.2 2.2 0 0 0 .455-.304c.156-.13.32-.287.496-.469l.146-.151-.61 5.913c-.109.31-2.191 1.07-4.938 1.07-2.745 0-4.827-.76-4.938-1.07l-.424-4.973c.017.014.035.029.054.042.106.072.231.108.377.108.127 0 .26-.035.397-.104.137-.069.274-.158.41-.266a4.01 4.01 0 0 0 .396-.368c.13-.137.25-.274.36-.412l-.127.44a26.299 26.299 0 0 0-.236.887c-.029.121-.045.204-.047.248a.68.68 0 0 0-.003.062v.058c0 .132.015.223.046.273.03.05.078.074.145.074.04 0 .078-.016.115-.047a.538.538 0 0 0 .104-.12 1.006 1.006 0 0 0 .13-.3c.005-.014.016-.058.035-.132a96.86 96.86 0 0 1 .39-1.482 25.967 25.967 0 0 1 .18-.645.852.852 0 0 1 .046-.13c.037-.121.076-.238.116-.35.04-.111.075-.222.107-.332.033-.11.06-.223.08-.34.02-.115.031-.239.031-.371a.38.38 0 0 0-.02-.13.25.25 0 0 0-.055-.091.214.214 0 0 0-.078-.052.246.246 0 0 0-.087-.017c-.06 0-.12.023-.177.067a.459.459 0 0 0-.139.223l-.29.971c-.036.083-.09.18-.16.292a5.175 5.175 0 0 1-.54.709 4.01 4.01 0 0 1-.318.318c-.105.094-.207.17-.305.227a.53.53 0 0 1-.262.087.237.237 0 0 1-.17-.064.447.447 0 0 1-.107-.163.877.877 0 0 1-.053-.221 2.09 2.09 0 0 1-.014-.238c0-.232.034-.493.102-.783.067-.291.158-.586.273-.885.115-.3.246-.591.395-.877.15-.285.305-.538.468-.76.162-.222.326-.4.492-.535.166-.136.321-.203.467-.203.094 0 .18.03.261.089.08.06.154.155.22.287.071.146.135.258.193.337.057.079.119.118.186.118.073 0 .136-.036.189-.108a.483.483 0 0 0 .08-.293c0-.052-.005-.108-.015-.168a.478.478 0 0 0-.067-.175c-.154-.26-.32-.447-.497-.562a.992.992 0 0 0-.55-.174c-.164 0-.33.04-.498.12-.168.08-.334.19-.499.333a3.725 3.725 0 0 0-.481.508 5.75 5.75 0 0 0-.442.647 7.403 7.403 0 0 0-.385.746 8.17 8.17 0 0 0-.43 1.213l-.763-7.846c.133.082.271.133.353.163.342.126.825.238 1.435.334 1.232.192 2.868.298 4.605.298 1.737 0 3.373-.106 4.605-.298z"/></svg>