<svg xmlns="http://www.w3.org/2000/svg" width="33" height="32" viewBox="0 0 33 32"><g fill="none"><path fill="#F4BF75" d="M16.89 15.028l-1.604 11.72s-2.614.98-4.985-1.07l2.597-11.363L8 4.147s1.935-.838 3.172-.553l4.306 8.313 7.46-6.493s2.51.892 2.737 1.748l-8.785 7.866z"/><path fill="#AC4142" d="M26.686 16.2a3.643 3.643 0 0 0-.453-.696 4.796 4.796 0 0 0-1.22-1.017 6.077 6.077 0 0 0-1.412-.677l-.192-.054-.157-.053c-.104-.036-.191-.09-.279-.125a1.082 1.082 0 0 1-.383-.357c-.174-.268-.192-.678-.105-1.106.018-.107.053-.214.087-.321.035-.107.07-.214.105-.339a2.36 2.36 0 0 0 .052-.517l.088-.072 1.045-.891c.192-.161.384-.34.576-.5.07.036.14.09.191.125 0 0 .54.053.837-.785l-.157-.107.105-.09.261-.231a.526.526 0 0 0 .192-.321.436.436 0 0 0-.349.107l-.279.214-.191.143-2.406-1.695.349-.303.505-.464.053-.053c.052.035.087.071.14.107.123.09.25.172.383.25l.767.427c.244.143.505.286.767.41.122.072.261.126.4.18.07.017.14.053.21.07.034 0 .087.018.122.018h.087c.035 0 .07-.018.104-.071v-.018c0-.018 0-.036.018-.053v-.072c0-.036-.018-.053-.035-.071-.018-.036-.052-.072-.07-.107-.052-.054-.104-.125-.157-.16-.104-.108-.226-.197-.33-.286-.227-.179-.472-.339-.716-.5a6.265 6.265 0 0 0-.75-.428c-.121-.071-.26-.125-.4-.178-.07-.018-.14-.054-.227-.071-.034 0-.087-.018-.14-.018-.034 0-.051 0-.104.018-.035.017-.087.035-.14.089a1.335 1.335 0 0 0-.313.178l-.523.303c-.157.125-.331.268-.488.393L21.98 6.3s-.732.071-.488.553l.07.071c-.698.589-1.378 1.195-2.057 1.784-.698.607-1.377 1.213-2.075 1.837l-1.028.928c-.052.053-.105.107-.174.16-.035-.107-.088-.196-.122-.285l-.245-.535-.47-1.07c-.314-.714-.628-1.427-.959-2.14l-.976-2.124-.157-.32h.21s.069-.59-.35-.696c0 0-.07 0-.174.018-.157-.322-.296-.643-.453-.964l-.07-.267c-.017-.09-.07-.125-.104-.16-.035-.019-.07-.037-.087-.037-.053-.017-.088-.017-.14-.035C12.044 3 11.974 3 11.905 3c-.157 0-.297.018-.436.036-.279.035-.575.089-.854.16-.28.072-.558.143-.837.232-.14.054-.279.09-.4.16l-.21.108c-.035.017-.07.053-.105.071l-.052.054c-.017.017-.017.035-.035.053v.071c.018.072.053.09.087.107.035.018.053.036.07.036.052.018.087.018.122.036.07.018.157.018.227.018.14 0 .296-.018.436-.036.278-.036.575-.071.854-.125l.854-.143c.14-.017.279-.053.436-.089.122.25.244.517.366.767-.802.072-2.057.179-2.842.268-.087-.16-.157-.303-.244-.464-.017-.036-.07-.071-.122-.054-.052.018-.07.072-.052.125.052.143.105.268.157.41-.244.036-.401.072-.418.108-.088.16.174.999.522 1.213 0 0 .14-.054.384-.107l.366.856 1.046 2.426 1.063 2.426c.349.802.715 1.605 1.08 2.426 0 0 0 .017.018.017l-.157.536-.418 1.498c-.261.999-.505 2.016-.75 3.014l-.366 1.517-.348 1.516c-.244 1.017-.47 2.015-.75 3.014 0 .018 0 .054.018.072.14.196.33.339.505.481.192.143.384.25.575.357.401.214.82.375 1.255.517.436.125.89.214 1.36.232.227.018.47 0 .697-.035.227-.036.454-.072.698-.143.07-.018.122-.09.14-.16v-.018c.19-.982.348-1.98.522-2.962l.488-2.978c.157-1 .331-1.98.488-2.98.018-.106.035-.231.052-.338.035.036.053.089.088.125.174.214.383.392.592.553.419.303.872.535 1.325.713a9.691 9.691 0 0 0 2.318.589c-.14.32-.226.66-.209 1.034 0 .036.018.072.052.09h.018c.331.178.68.32 1.063.41.366.071.767.107 1.15.053.402-.053.802-.214 1.116-.481.314-.268.54-.625.68-1l.018-.017v-.018l.052-.481v-.018c.174-.107.348-.214.523-.357.209-.178.4-.375.54-.624.14-.25.227-.553.21-.857-.018-.285-.123-.57-.245-.82zm-1.569-9.936c.244.143.471.286.698.464.104.09.226.16.33.268.053.053.105.089.14.142l.035.036h-.035c-.07-.018-.122-.036-.191-.054-.122-.053-.262-.107-.384-.16-.244-.125-.505-.25-.732-.41a4.726 4.726 0 0 1-.645-.535 2.118 2.118 0 0 1-.192-.215l.262.108c.226.089.47.214.714.356zm-1.185-.785l.024.024v.047s0-.024-.024-.024V5.48zM11.504 3.482a4.136 4.136 0 0 1-.785.285 4.38 4.38 0 0 1-.819.143c-.14.018-.279.018-.418.018-.07 0-.14 0-.192-.018h-.052c.017 0 .017-.018.035-.018.052-.036.122-.054.174-.09.122-.053.261-.088.383-.142.262-.071.54-.143.82-.196.27-.052.544-.088.819-.107.087 0 .174 0 .261-.018-.052.054-.14.09-.226.143zM23.6 9.564l-1.08.856-1.081.874c-.297.25-.593.5-.89.732.018-.018.035-.054.053-.072.14-.196.279-.374.418-.552.297-.357.575-.732.89-1.07.313-.34.644-.679.975-.982.175-.16.349-.303.54-.428l.158-.107c.156.125.33.25.488.375-.14.124-.314.25-.471.374zM10.824 7.37l.087.09c.174.178.349.356.488.552.14.197.262.41.314.625.035.178.035.374-.052.535l-.018-.054-.82-1.748zm.854 1.855a.757.757 0 0 0 .157-.606 1.469 1.469 0 0 0-.314-.714 3.39 3.39 0 0 0-.82-.767l-.19-.41c-.123-.268-.245-.535-.384-.785.261-.071.575-.178.923-.267.314.517.593 1.052.855 1.605.296.696.592 1.427.645 2.176.017.179 0 .375 0 .571 0 .196 0 .392.017.589.017.267.07.553.122.82l-1.011-2.212zm4.114 14.538c-.053.071-.087.125-.157.178-.087.072-.174.107-.279.09-.087-.018-.157-.107-.192-.197a.856.856 0 0 1-.07-.303 1.992 1.992 0 0 1 .035-.642c.035-.214.105-.41.192-.607.052-.089.105-.178.174-.25.07-.07.157-.124.244-.106.088 0 .175.089.227.178.035.054.052.107.07.16l-.21 1.267c-.017.09-.017.16-.034.232zm1.028-6.154l-.314 1.873c-.017-.125-.052-.25-.087-.375a13.459 13.459 0 0 0-1.098-2.836c.192.66.418 1.285.645 1.927.122.32.227.642.331.945l.157.482c0 .018.018.053.018.071-.053.285-.105.57-.14.874l-.261 1.623c-.018-.035-.018-.071-.035-.107-.053-.107-.122-.214-.262-.25-.122-.035-.244.036-.348.108-.087.071-.157.178-.227.267a1.77 1.77 0 0 0-.227.642 1.866 1.866 0 0 0 0 .696.888.888 0 0 0 .122.339c.053.107.157.214.28.232.121.018.243-.054.313-.143.035-.036.07-.09.105-.125-.122.839-.262 1.677-.384 2.533-.152.053-.31.089-.47.107-.21.036-.419.054-.628.072a4.53 4.53 0 0 1-1.29-.125 6.458 6.458 0 0 1-1.255-.41c-.383-.179-.75-.41-1.028-.732.261-.981.557-1.962.854-2.943l.453-1.48.436-1.499c.296-.999.592-1.998.871-2.997.14-.5.262-.999.401-1.498.105-.517.314-.999.157-1.57v-.018c-.017-.017-.035-.017-.035 0-.087.09-.14.16-.209.25-.192-.446-.4-.874-.593-1.32-.052-.16-.104-.321-.139-.5a6.273 6.273 0 0 1-.174-1.123c-.018-.196-.018-.375-.018-.57 0-.197.018-.393 0-.59-.07-.784-.366-1.534-.697-2.23a10.828 10.828 0 0 0-.924-1.569c.575-.16 1.186-.321 1.674-.41.07.16.156.303.226.463l1.046 2.105 1.046 2.087.523 1.035.261.517c.07.107.105.232.175.321l-.68.642c-.018.018-.035.054 0 .09.017.035.07.035.087.017.366-.267.732-.552 1.098-.838l1.098-.856c.732-.57 1.447-1.142 2.162-1.713.714-.57 1.43-1.159 2.144-1.748l.017-.017c.384.374.959.927 1.569 1.409a5.14 5.14 0 0 0-.732.463 7.548 7.548 0 0 0-1.028.964c-.314.356-.61.713-.872 1.106-.192.267-.366.553-.54.856a77.013 77.013 0 0 0-3.12 2.747.112.112 0 0 0-.018.125c.035.035.087.053.122.035a7.97 7.97 0 0 0-.261 1.07c-.105.5-.21 1-.297 1.499zm7.705 2.39c-.244.196-.54.321-.854.393a3.08 3.08 0 0 1-.994.035 6.031 6.031 0 0 1-.959-.178 1.78 1.78 0 0 1 .14-.892c.122.018.226.018.348.036.053 0 .088-.018.105-.072.017-.053 0-.124-.07-.142-.087-.036-.157-.054-.244-.09.07-.124.157-.231.244-.338.105-.107.21-.214.314-.304.227.143.453.25.715.34.296.089.61.124.941.089.314-.036.645-.197.854-.464.192-.232.279-.5.296-.785a.745.745 0 0 1 .018.339c-.018.142-.035.303-.07.446l-.052.267-.262.16a.78.78 0 0 0-.278.304.615.615 0 0 0 .4 0c.018 0 .018-.018.035-.018-.017.054-.017.09-.035.143-.139.285-.348.535-.592.731zm1.725-2.336a1.878 1.878 0 0 1-.383.535c-.07.071-.157.142-.227.196 0-.16-.017-.321-.052-.482a1.337 1.337 0 0 0-.07-.25c-.035-.07-.07-.16-.157-.213-.017 0-.034 0-.034.017-.105.268-.28.5-.471.66-.192.16-.436.232-.68.25-.244.018-.505-.036-.767-.107-.261-.071-.523-.16-.784-.25l-.035-.018a.164.164 0 0 0-.157.036c-.14.179-.244.339-.366.517a4.798 4.798 0 0 0-.227.41c-.313-.124-.61-.231-.923-.356a13.868 13.868 0 0 1-1.273-.57 6.368 6.368 0 0 1-1.168-.697c-.348-.267-.662-.552-.82-.91v-.017a.346.346 0 0 0-.156-.16c0-.036.017-.09.017-.125.053-.429.122-.857.088-1.303a89.131 89.131 0 0 0 4.148-3.193l-.052.16c-.087.269-.122.572-.122.875.017.303.104.642.296.928.192.285.453.499.715.624.129.066.263.12.4.16l.21.054.174.036c.454.125.89.303 1.29.535.401.232.785.517 1.098.838.314.321.558.732.593 1.142.017.285-.017.5-.105.678z"/><path fill="#3F3E29" d="M14.676 21.765a1.87 1.87 0 0 0-.296.66 1.36 1.36 0 0 0-.052.357l-.018.357c-.035.463-.017.963.122 1.427.14.463.331.892.558 1.302-.07-.232-.157-.446-.227-.66a7.628 7.628 0 0 1-.191-.678c-.105-.446-.105-.91-.088-1.373l.018-.357c0-.107.017-.232.035-.34.052-.213.14-.427.244-.623a2.53 2.53 0 0 1 .436-.536 2.17 2.17 0 0 1 .557-.41c-.435.179-.836.464-1.098.874z"/></g></svg>