<svg xmlns="http://www.w3.org/2000/svg" width="24" height="24" viewBox="0 0 24 24"><path d="M18 8v2h2v10H10v-2H8v4h14V8h-4z" fill="#f4bf75"/><path d="M2.444 2.506h14.135v14.136H2.444V2.506m3.714 11.811c.315.668.935 1.218 1.995 1.218 1.178 0 1.987-.629 1.987-2.003V8.993H8.805v4.508c0 .675-.275.848-.707.848-.455 0-.644-.314-.856-.683l-1.084.651m4.697-.14c.392.769 1.185 1.358 2.426 1.358 1.257 0 2.199-.652 2.199-1.854 0-1.107-.636-1.602-1.767-2.089l-.33-.141c-.573-.243-.816-.408-.816-.801 0-.322.243-.573.636-.573.377 0 .628.165.856.573l1.028-.683c-.432-.754-1.044-1.045-1.884-1.045-1.186 0-1.948.754-1.948 1.752 0 1.083.636 1.594 1.594 2.002l.33.141c.613.267.974.432.974.888 0 .377-.354.652-.903.652-.652 0-1.029-.338-1.312-.81l-1.083.63z" fill="#f4bf75"/></svg>