<svg xmlns="http://www.w3.org/2000/svg" width="32" height="32" viewBox="0 0 32 32"><path fill="#F4BF75" fill-rule="evenodd" d="M9.436 7.314h4.155v11.605c0 2.625-.582 4.461-1.748 5.51C10.677 25.475 9.09 26 7.083 26c-.509 0-1.046-.04-1.611-.122A8.647 8.647 0 0 1 4 25.551l.485-3.351c.278.093.596.173.953.241.358.068.744.102 1.16.104.877 0 1.57-.254 2.078-.76.508-.508.762-1.463.762-2.868V7.312l-.002.002zm7.79 14.128c.53.299 1.205.563 2.025.793.82.23 1.68.345 2.58.345.947 0 1.669-.184 2.165-.552.496-.369.745-.852.745-1.45 0-.553-.237-1.026-.71-1.418-.472-.392-1.263-.772-2.37-1.14-1.524-.553-2.753-1.273-3.688-2.16-.936-.887-1.403-1.998-1.403-3.334 0-1.566.623-2.878 1.87-3.937C19.687 7.531 21.396 7.001 23.566 7c1.039 0 1.945.092 2.72.276.773.185 1.437.403 1.99.657l-.936 3.351c-.37-.184-.877-.38-1.525-.588-.647-.208-1.42-.312-2.32-.312-.9 0-1.569.179-2.008.535-.438.357-.658.777-.658 1.26 0 .577.265 1.037.796 1.382.53.345 1.396.748 2.597 1.21 1.638.598 2.845 1.34 3.619 2.227.774.888 1.16 1.987 1.159 3.299 0 1.543-.606 2.879-1.817 4.007-1.212 1.13-3.075 1.694-5.591 1.694-1.063 0-2.067-.121-3.012-.363-.946-.241-1.684-.5-2.216-.778l.866-3.42-.004.005z"/></svg>