<svg xmlns="http://www.w3.org/2000/svg" width="33" height="32" viewBox="0 0 33 32"><g fill="none" fill-rule="evenodd"><path fill="#AA759F" d="M4.063 14.236v2.532c2.27.104 2.474 1.37 2.474 2.215 0 .844-.102 1.688-.208 2.637-.102.844-.102 1.792-.102 2.637 0 3.271 1.96 4.433 4.847 4.433h1.135v-2.745h-.515c-1.547 0-2.062-.949-2.062-2.428 0-.527.102-1.161.208-1.793.102-.74.208-1.479.208-2.323 0-2.532-1.033-3.48-2.785-3.903v-.104c1.752-.318 2.785-1.266 2.785-3.799 0-.844-.103-1.583-.208-2.215-.103-.74-.208-1.37-.208-1.9 0-1.48.515-2.428 2.062-2.428h.515V2.307h-1.135c-2.99 0-4.847 1.37-4.847 4.433 0 .844 0 1.688.102 2.637.103.844.208 1.793.208 2.532 0 1.057-.208 2.215-2.474 2.323v.004z"/><path fill="#90A959" d="M29.011 16.768v-2.532c-2.164-.105-2.474-1.267-2.474-2.323 0-.74.102-1.689.208-2.533.102-.948.208-1.792.208-2.637 0-3.059-1.96-4.433-4.95-4.433H20.87v2.745h.515c1.547.105 2.062.949 2.062 2.428 0 .527-.103 1.161-.208 1.9-.103.635-.208 1.372-.208 2.216 0 2.532 1.033 3.48 2.784 3.798v.105c-1.751.422-2.784 1.37-2.784 3.903 0 .844.102 1.583.208 2.323.102.634.208 1.266.208 1.793 0 1.478-.515 2.427-2.062 2.427h-.515v2.745h1.135c2.887 0 4.949-1.161 4.949-4.433 0-.844-.103-1.793-.208-2.637-.103-.949-.208-1.793-.208-2.637 0-.844.31-2.11 2.474-2.215v-.003z"/></g></svg>