<svg xmlns="http://www.w3.org/2000/svg" width="32" height="32" viewBox="0 0 32 32"><path fill="#6A9FB5" fill-rule="evenodd" d="M7.781 9.01v8.587c0 .518.065.857.194 1.018.128.161.464.315 1.006.462l-.27 1.443a61.432 61.432 0 0 1-.833-.15 4.611 4.611 0 0 1-.794-.222c-.464-.172-.76-.444-.89-.815a3.584 3.584 0 0 1-.193-1.184v-7.81c-.233.025-.453.043-.66.054-.206.01-.4.03-.58.054-.233.05-.407.154-.523.315-.116.162-.173.377-.173.647-.027.346-.04.697-.04 1.054v1.054c0 .173-.007.34-.02.5a8.235 8.235 0 0 1-.057.5 1.823 1.823 0 0 1-.27.815c-.154.246-.36.456-.62.63v.074c.413.271.678.598.793.98.116.382.174.784.174 1.204v2.034c0 .518.09.87.27 1.055.18.184.542.29 1.086.315l.194.038v1.333c-.387 0-.762-.024-1.124-.073a3.848 3.848 0 0 1-1.046-.296c-.362-.198-.62-.457-.776-.777a2.347 2.347 0 0 1-.233-1.038c-.027-.37-.04-.746-.04-1.13v-1.573c-.026-.469-.143-.808-.35-1.018-.206-.21-.542-.352-1.006-.427v-1.258l.04-.037c.49-.124.833-.297 1.026-.52.194-.222.29-.58.29-1.072v-1.85c0-.198.007-.402.02-.612.013-.21.046-.425.097-.646.077-.444.284-.802.62-1.073.335-.272.787-.445 1.356-.52a5.12 5.12 0 0 1 .483-.054c.167-.01.328-.017.484-.019h2.363l.002.007zm3.14 8.068c-.079.444.044.845.366 1.203.322.359.729.587 1.22.685.49.074.969.08 1.433.019.464-.062.93-.154 1.396-.277a10.033 10.033 0 0 1 .233 1.222c0 .025-.019.062-.057.111a.377.377 0 0 1-.136.112 9.475 9.475 0 0 1-2.093.35 5.391 5.391 0 0 1-2.093-.315 3.55 3.55 0 0 1-1.123-.684 2.669 2.669 0 0 1-.697-1.055 4.566 4.566 0 0 1-.406-1.961c.013-.666.174-1.32.483-1.961.44-.939 1.15-1.53 2.13-1.777.98-.246 1.884-.185 2.713.185.517.222.911.537 1.182.942.271.406.446.856.523 1.35.052.298.084.6.097.908.013.308.02.622.02.943H10.92zm3.369-1.296c0-.543-.15-.975-.447-1.296-.297-.32-.704-.48-1.22-.48-.464.025-.87.21-1.22.554-.348.344-.51.751-.483 1.222h3.37zM27.463 23v-1.334l.386-.038c.387-.025.672-.124.853-.296.182-.172.272-.443.27-.815v-2.11c.027-.172.04-.339.04-.5 0-.161.014-.328.04-.5a2.05 2.05 0 0 1 .31-.796c.155-.234.375-.437.66-.611-.491-.297-.782-.667-.873-1.111-.091-.444-.15-.9-.174-1.37v-1.925c0-.444-.097-.753-.29-.926-.193-.174-.522-.273-.987-.296l-.233-.038V9c.387 0 .775.024 1.163.073.388.05.763.185 1.123.408.31.197.53.444.66.741.129.297.206.618.233.962v1.258l.04 1.258v.37l.076.333c.078.297.22.525.427.685.206.16.477.24.813.242v1.333c-.31 0-.575.075-.793.223-.219.148-.367.383-.447.704-.026.099-.045.21-.057.334a4.612 4.612 0 0 0-.02.37c-.026.42-.04.832-.04 1.238v1.239c-.026.641-.22 1.14-.58 1.5-.36.358-.876.573-1.549.646-.18.025-.355.044-.523.055a9.238 9.238 0 0 1-.523.019l-.005.009zm.31-10.068l-.31 1.37a8.08 8.08 0 0 0-1.143-.278 3.955 3.955 0 0 0-1.143-.019c-.258.05-.458.124-.6.223a.587.587 0 0 0-.253.408.758.758 0 0 0 .096.5c.091.16.253.29.484.388.18.1.368.18.563.241.195.062.395.143.6.242.129.05.251.099.367.15.115.05.225.1.33.149.568.246.956.555 1.162.926.207.37.271.852.194 1.442-.027.42-.194.778-.504 1.074-.309.295-.748.505-1.316.63a8.042 8.042 0 0 1-1.956.13 6.425 6.425 0 0 1-1.957-.426l.27-1.37c.285.075.563.142.834.204.27.062.548.117.833.166.233.025.465.031.696.019.232-.013.464-.03.697-.055.156-.025.291-.075.407-.149.116-.074.187-.197.213-.37a.886.886 0 0 0-.04-.461.613.613 0 0 0-.27-.315 3.567 3.567 0 0 0-.563-.315 9.045 9.045 0 0 0-.6-.242l-.696-.296-.697-.334c-.646-.346-.963-.945-.95-1.796.013-.851.394-1.437 1.143-1.758.207-.099.427-.18.66-.241.233-.062.478-.105.736-.13.44-.075.885-.075 1.337 0 .45.074.91.173 1.376.296v-.003zm-5.929-.038l-.35 1.408a6.908 6.908 0 0 0-1.103-.278 3.953 3.953 0 0 0-1.143-.019c-.257.05-.457.124-.6.223a.587.587 0 0 0-.252.408.605.605 0 0 0 .076.518c.103.149.27.272.504.37.206.1.413.185.62.258.206.073.413.159.62.258.104.026.207.063.31.112l.31.149c.568.271.955.598 1.162.98.207.383.271.883.193 1.5-.077.395-.29.74-.64 1.038-.348.297-.807.494-1.375.592a9.795 9.795 0 0 1-1.706.073 7.652 7.652 0 0 1-1.666-.258.65.65 0 0 1-.27-.166c-.052-.061-.065-.166-.04-.315.051-.172.096-.345.136-.519.04-.173.072-.346.097-.518.284.074.562.142.833.203.271.062.549.117.833.166.233.025.465.032.697.02.231-.014.463-.032.696-.055a.924.924 0 0 0 .407-.166.563.563 0 0 0 .213-.389.777.777 0 0 0-.04-.426.613.613 0 0 0-.27-.315 12.95 12.95 0 0 0-.677-.334l-.64-.296c-.207-.098-.414-.19-.619-.277-.205-.087-.412-.18-.62-.278-.646-.37-.963-.974-.95-1.814.014-.84.395-1.433 1.144-1.777a4.168 4.168 0 0 1 2.053-.37 9.54 9.54 0 0 1 1.006.131c.336.062.684.117 1.046.166l.005-.003z"/></svg>