<svg xmlns="http://www.w3.org/2000/svg" width="32" height="32" viewBox="0 0 32 32"><path fill="#F4BF75" fill-rule="evenodd" d="M20.46 21.677c-1.416.406-2.728.609-3.936.609-1.935 0-3.5-.58-4.693-1.742-1.194-1.16-1.791-2.685-1.791-4.572 0-1.888.576-3.389 1.727-4.502 1.151-1.114 2.7-1.67 4.644-1.67 1.245 0 2.595.174 4.048.523v1.869c-1.368-.548-2.628-.821-3.78-.821-1.189 0-2.154.427-2.895 1.28-.74.855-1.11 1.971-1.11 3.349 0 1.36.405 2.456 1.217 3.292.811.835 1.878 1.252 3.2 1.252 1.302 0 2.425-.25 3.368-.75v1.883zM15.872 27c-2.973 0-5.529-1.083-7.666-3.249C6.069 21.585 5 19.001 5 16c0-3.04 1.076-5.632 3.228-7.78C10.38 6.075 12.97 5 16 5c3.03 0 5.62 1.074 7.772 3.22C25.924 10.369 27 12.953 27 15.973c0 3.076-1.078 5.684-3.235 7.821C21.61 25.931 18.978 27 15.873 27zm0-1.826c2.595 0 4.794-.892 6.597-2.676 1.802-1.784 2.704-3.954 2.704-6.512 0-2.52-.9-4.677-2.697-6.47-1.798-1.793-3.957-2.69-6.477-2.69-2.52 0-4.679.897-6.477 2.69S6.826 13.471 6.826 16c0 2.492.894 4.643 2.683 6.456 1.789 1.812 3.91 2.718 6.364 2.718z"/></svg>