<svg xmlns="http://www.w3.org/2000/svg" width="32" height="32" viewBox="0 0 32 32"><path fill="#D28445" fill-rule="evenodd" d="M17.74 21.419h-3.48v-5.416l-2.631 3.463-2.631-3.463v5.416h-3.48V10.586h3.48l2.63 3.625 2.632-3.625h3.48V21.42zm5.223.874L18.63 16h2.631v-5.416h3.48V16h2.632l-4.409 6.293h-.002zM27.99 7H4.01c-.541 0-1.012.206-1.411.617-.4.411-.599.895-.599 1.453v13.86c0 .585.2 1.076.599 1.474.4.397.87.596 1.41.596H27.99c.541 0 1.012-.199 1.411-.596.4-.398.599-.89.599-1.474V9.07c0-.558-.2-1.042-.599-1.453-.4-.411-.87-.617-1.41-.617z"/></svg>