<svg xmlns="http://www.w3.org/2000/svg" width="33" height="32" viewBox="0 0 33 32"><path fill="#F4BF75" fill-rule="evenodd" d="M5.125 15.172a.617.617 0 0 0-.085-.58.627.627 0 0 0-.533-.252c-.644.052-1.088 1.42.277 1.876 1.122.372 1.94-.492 3.234-1.824 2.889-2.979 6.38-3.267 8.507-.26.878-1.648 4.334-4.395 9.607 1.302 1.939 2.094 3.672.125 2.718-.955a.558.558 0 0 0-.734-.026.548.548 0 0 0-.116.72h-.081c-1.981-1.8 2.157-3.47 2.978-.433.846 4.57-3.875 5.311-7.656 3.648-7.31-3.735-7.388-2.732-14.464.348a6.016 6.016 0 0 1-5.898-.665c-1.276-1.247-1.196-4.213.459-4.811 1.689-.691 3.117.79 1.787 1.912z"/></svg>