<svg xmlns="http://www.w3.org/2000/svg" width="33" height="32" viewBox="0 0 33 32"><path fill="#F4BF75" fill-rule="evenodd" d="M4 4.818A1.82 1.82 0 0 1 5.818 3h21.364A1.82 1.82 0 0 1 29 4.818v21.364A1.82 1.82 0 0 1 27.182 28H5.818A1.82 1.82 0 0 1 4 26.182V4.818zm7.062 3.738c-.265.046-.493.19-.744.277-.53.353-.955.894-1.064 1.547-.331 1.103-1.305 1.829-1.646 2.923-.28.702-.781 1.255-1.25 1.819-.322.418-.287.978-.43 1.467-.141.133-.242.438.023.471-.007.248-.171.525.002.763.135.519.372 1.015.608 1.496.047.175.335.378.379.096.035-.403.203-.88-.07-1.236-.175-.455-.03-.935.05-1.389-.039-.28.058-.6.203-.822.15.084.1.366.16.517.143 1.089.187 2.22-.08 3.294-.098.42.064.865-.03 1.279-.342.384-.078.937-.048 1.384.166.829.075 1.69-.164 2.483-.005.285-.101.545-.159.817.096.342.55.463.852.382.189-.132.548.12.638-.194.027-.34-.293-.594-.267-.94-.2-.948-.35-1.936-.156-2.903.1-.561.06-1.162.213-1.703.337-.438.568-.957.711-1.5.2-.451.324-1 .446-1.43.522.872.836 1.916.7 2.955.017.405-.227.88.101 1.2.399.647.901 1.256 1.103 2 .016.312-.39.317-.497.57-.237.358-.212.815-.239 1.23.225.09.554.33.744.041.186-.203.265-.558.458-.713.119.233.008.612.314.726.44.163.947.209 1.403.096.234-.21-.086-.508-.285-.589-.33-.101-.523-.367-.636-.69-.103-.178-.177-.386.025-.523.475-.599 1.13-.995 1.633-1.555.304-.437.224-1.047.108-1.541-.142-.288-.245-.59-.167-.918.053-.283-.134-.574-.123-.825.267-.017.578-.007.816.086.065.446-.031.921.093 1.353.201.2.297.515.31.802.189.24.07.594.121.888-.12.478.05.95.192 1.403.259.864.15 1.795.37 2.661.168.246-.113.657.215.82.509.196 1.19.252 1.623-.144.132-.274-.258-.431-.445-.518a.664.664 0 0 1-.52-.533c-.401-.859-.597-1.821-.457-2.778.02-.46.081-.917.196-1.355.054-.448.06-.91.187-1.335.074-.6-.052-1.232.11-1.815.261.172.542.347.852.371.202.159.418 0 .528-.19.161-.23.356.385.504.073.183-.216.42-.37.627-.538.118-.2.36-.194.53-.285.117-.16-.076-.412.141-.534.074-.204.263.065.35-.129.091-.21.077-.5.32-.592.445-.366.312-1.032.391-1.549-.005-.515.094-1.06-.028-1.557-.142-.393-.376-.792-.47-1.183.432-.358 1.197-.062 1.491-.65.128-.432-.273-.8-.538-1.073-.257-.251-.662-.132-.977-.255-.244-.086-.623.009-.687-.336-.103-.272-.423-.27-.594-.476-.274-.146-.523.188-.793.216-.3.217-.645.43-.837.76-.082.216-.01.498-.236.632-.374.447-.217 1.11-.253 1.654.005.249-.001.5.135.703.02.305.288.505.24.819-.037.206.137.646-.191.55-.1-.173-.086-.468-.179-.67-.275-.878-.692-1.828-1.524-2.268-.588-.446-1.007-1.094-1.251-1.798-.23-.357-.655-.578-.837-.964-.238-.105-.526-.069-.763-.206-.295-.136-.56-.381-.914-.338-.232.018-.446-.066-.667-.084zm.43 8.911c.204.07.14.4.215.57.095.241.015.667.284.789.153.261.058.615.212.857-.036.17-.09.491.167.496.231-.02.294.246.456.366.15.217.318.525.086.755-.225.283-.379.727-.793.74-.17.018-.406.294-.484.01-.295-.517-.546-1.066-.489-1.681.005-.965.217-1.914.323-2.866-.005-.026.004-.037.023-.036z"/></svg>