<svg xmlns="http://www.w3.org/2000/svg" width="32" height="32" viewBox="0 0 32 32"><path fill="#AA759F" fill-rule="evenodd" d="M11.265 21.114c.206.923.206 1.85-.206 2.772.92.41.92 1.232.92 2.053h.102c1.025.102 1.946.102 2.866-.207.41-.102.511-.207.41-.617-.102-.72-.207-1.54-.308-2.26 0-.618.101-1.232.51-1.744.309-.513.617-.618 1.23-.411 1.126.41 2.253.41 3.377-.207.41-.207.819-.102 1.127.207.308.41.41.923.308 1.439-.102.515-.207 1.13-.41 1.744.819.41.717 1.232.717 2.053h2.254c.41 0 .92-.102 1.33-.309.616-.207.82-.617.718-1.232-.102-1.231-.308-2.361-.41-3.593 0-.513 0-1.028.102-1.643 0-.101.101-.41.206-.512 1.026-1.028 1.638-2.362 2.048-3.695 0-.102 0-.31.101-.41 0-.208.102-.208.308 0 .102.206.308.41.41.617.206.207.41.41.616.512.206.207.409.102.409-.102-.102-.41-.102-.821-.206-1.13-.718-2.565-2.048-4.618-4.302-6.057a9.509 9.509 0 0 0-4.71-1.54c-1.435-.207-2.867-.102-4.302.206-.206 0-.308.102-.41.102-.206.102-.307.31-.206.513 0 .41.102.72.207 1.13.308 1.95.101 3.797-1.127 5.337-1.025 1.44-2.559 2.053-4.301 1.85-.511 0-.82-.309-1.026-.72-.51-.719-.616-1.54-.819-2.361.102.102.102.207.207.308 0 0 0 .102.101.207l.92 1.541c.512.617.921.72 1.74.512 1.845-.512 3.276-2.154 3.483-4.106 0-1.028 0-1.95-.308-2.874-.511-1.439-1.537-2.155-2.968-2.362-1.74-.308-3.276 0-4.914.411-.616.207-1.229.309-1.74.512-.819.411-1.33 1.13-1.74 1.85-1.228 1.85-1.739 4.004-1.536 6.26.102 1.952.92 3.594 2.559 4.928.616.512 1.228 1.13 1.844 1.642a.562.562 0 0 1 .308.513c.206.308.102.617-.206.923-.102 0-.207.101-.308.207-.511.308-.616.719-.207 1.13.41.308.82.512 1.33.512.102 0 .207 0 .308-.102.82-.72 1.229-1.54 1.33-2.565 0-.513-.206-.923-.51-1.232-.207-.41-.617-.72-.921-1.13-.102-.207-.308-.41-.511-.72-.102-.206-.207-.41-.102-.719.207-.207.511-.41.82-.309.409.102.818.31 1.126.513.41.102.718.309 1.025.512.921.31 1.229 1.028 1.33 1.85l.007.003zm-5.631-3.081c-.41.309-.82.41-1.33.41h-.616c-.308-.101-.41-.308-.308-.617.101-.102.101-.207.206-.207.41-.513.718-.923 1.127-1.334.102-.207.308-.207.511-.102.41.207.82.822.718 1.334 0 .102-.207.309-.308.513v.003zm.101-4.72c0 .308-.308.617-.616.617-.41 0-.615-.309-.717-.617 0-.411.308-.72.616-.72.41.102.616.309.717.72z"/></svg>