<svg xmlns="http://www.w3.org/2000/svg" width="33" height="32" viewBox="0 0 33 32"><g fill="none"><path fill="#FFF" d="M13.613 6.039h-5.76L2.092 16l5.761 9.961h5.76l8.647-14.948L25.147 16l-5.76 9.961h5.76L30.908 16l-5.761-9.961h-5.76L10.74 20.987 7.853 16z"/><path fill="#AA759F" d="M16.5 11.013l2.874-4.974 2.886 4.974zM16.5 11.013L19.374 16l2.886-4.987z"/><path fill="#AA759F" d="M13.613 16l2.887-4.987L19.374 16z"/><path fill="#6A9FB5" d="M7.853 6.039l2.887 4.974 2.873-4.974z"/><path fill="#6A9FB5" d="M4.979 11.013l2.874-4.974 2.887 4.974zM4.979 11.013L7.853 16l2.887-4.987z"/><path fill="#6A9FB5" d="M2.092 16l2.887-4.987L7.853 16z"/><path fill="#AA759F" d="M13.613 16l2.887 4.987L19.374 16z"/><path fill="#AA759F" d="M10.74 20.987L13.613 16l2.887 4.987z"/><path fill="#AA759F" d="M10.74 20.987l2.873 4.974 2.887-4.974z"/><path fill="#AA759F" d="M7.853 25.961l2.887-4.974 2.873 4.974z"/><path fill="#6A9FB5" d="M2.092 16l2.887 4.987L7.853 16zM25.147 25.961l-2.887-4.974-2.873 4.974zM28.021 20.987l-2.874 4.974-2.887-4.974z"/><path fill="#6A9FB5" d="M28.021 20.987L25.147 16l-2.887 4.987z"/><path fill="#6A9FB5" d="M30.908 16l-2.887 4.987L25.147 16zM30.908 16l-2.887-4.987L25.147 16zM10.74 20.987L7.853 16l-2.874 4.987z"/><path fill="#6A9FB5" d="M10.74 20.987l-2.887 4.974-2.874-4.974z"/><path fill="#AA759F" d="M19.374 6.039l2.886 4.974 2.887-4.974z"/><path fill="#6A9FB5" d="M28.021 11.013l-2.874-4.974-2.887 4.974zM28.021 11.013L25.147 16l-2.887-4.987z"/></g></svg>