<svg xmlns="http://www.w3.org/2000/svg" width="33" height="32" viewBox="0 0 33 32"><path fill="#D14748" d="M29.9 13.758c-.017-.356-.026-.712-.062-1.067-.063-.484-.126-.977-.234-1.45-.08-.393-.215-.767-.35-1.141-.171-.438-.342-.885-.558-1.304-.35-.675-.81-1.278-1.232-1.907-.28-.401-.64-.73-.91-1.14-.152-.237-.377-.438-.602-.62-.36-.292-.737-.557-1.115-.812-.285-.203-.58-.391-.882-.566-.243-.137-.503-.247-.755-.365-.288-.137-.567-.302-.89-.365-.082-.018-.154-.045-.235-.073-.206-.073-.404-.155-.611-.219-.315-.1-.62-.218-.945-.3a8.575 8.575 0 0 0-.962-.183c-.36-.054-.727-.073-1.088-.109-.23-.03-.46-.05-.692-.063-.342-.019-.693-.019-1.034-.028-.171-.009-.351-.027-.522-.018-.26.009-.521.036-.783.073-.251.027-.503.072-.746.11-.296.036-.593.054-.89.09-.278.038-.566.092-.845.138-.099.018-.198.055-.297.073-.215.045-.44.064-.656.137-.387.119-.774.256-1.151.401a10.52 10.52 0 0 0-1.026.484c-.342.19-.666.419-.99.638-.31.21-.613.433-.908.666-.287.228-.557.483-.819.739-.143.145-.26.319-.395.483-.225.265-.45.52-.666.794-.179.228-.341.465-.512.702-.306.42-.566.867-.809 1.314-.1.182-.189.365-.279.547-.135.273-.279.538-.405.82-.09.193-.162.402-.216.612-.125.447-.251.904-.368 1.35-.108.402-.135.821-.144 1.232-.009.365.027.72.063 1.085.01.092-.044.201.063.274-.036.1-.009.155.044.173-.062.1.028.165-.008.256-.01.018.027.054.045.082 0 .027-.009.064 0 .091.01.082.045.164.045.255 0 .064.054.137.072.201.009.027 0 .073-.018.091-.054.064-.045.119.036.155.045.119.027.173.018.229.018.081-.01.109 0 .127.072.146.1.31.108.474 0 .037.018.074.036.12.009 0 0 .172 0 .172.044-.027.08-.036.126-.054.027.118.054.228.09.329.045.072.045.108.027.117.036.165.054.32.116.475 0-.173-.017-.346-.044-.51.125.045.233.09.306.09.009-.028.018-.064.027-.082-.054-.054-.1-.136-.153-.191.018.073 0 .1 0 .128-.036-.019-.081-.037-.126-.055.036-.045.072-.091.126-.146 0-.082-.045-.155-.171-.146.054-.018.108-.045.17-.064.1-.054-.008-.155-.008-.282.009-.155-.081-.31-.108-.474-.045-.256-.036-.639-.063-.894-.054-.046-.1.072-.108.082.027.219.054.437.072.656-.054-.182-.09-.383-.135-.602-.01.064-.018.091-.018.128-.044.045-.009.1.018.164-.063-.027-.135-.018-.135-.018v.256c-.09-.092-.116-.164-.162-.229-.017-.072-.027-.145-.044-.218.017-.046 0-.073 0-.1a5.595 5.595 0 0 1-.027-.22c.009-.009-.01-.145-.01-.145.073.009.118.017.163.017-.09-.117-.028-.19.01-.264.017-.037.08-.045.098-.082.072-.137.19-.246.19-.42 0-.082.027-.173.035-.255.018-.155.036-.31.044-.465.019-.201 0-.402.046-.593.072-.319.162-.638.261-.958.072-.228.153-.446.243-.675.135-.356.26-.712.432-1.049.242-.493.521-.967.791-1.45.171-.301.35-.584.54-.876.18-.283.36-.575.567-.84.284-.373.604-.718.953-1.03.36-.328.702-.666 1.088-.967.503-.393 1.04-.74 1.602-1.04.459-.246.935-.438 1.412-.62.306-.12.638-.174.953-.274a3.74 3.74 0 0 1 1.097-.183c.243-.009.477-.036.72-.064.216-.017.431-.036.666-.063-.028.036-.037.055-.046.073-.098.146-.206.292-.305.438l-.252.364c-.144.192-.297.384-.432.585-.207.3-.396.611-.612.912-.215.292-.45.565-.674.848-.297.392-.576.794-.872 1.186-.27.374-.557.73-.818 1.104-.234.328-.441.675-.666 1.012-.333.502-.666.994-.998 1.496-.261.382-.525.762-.792 1.14-.018.028-.045.036-.072.054-.071.119-.071.183-.099.238-.071.136-.143.273-.225.401-.045.073-.108.136-.162.21-.008-.11.144-.165.072-.302-.044.074-.09.137-.134.21l-.108.219c.035.027.099.046.035.1-.027.046-.054.1-.08.146a.328.328 0 0 0 .099-.091c0 .1-.054.182-.1.264-.035.073-.125.128-.188.183.009.009.072.036.08.045.082-.027.109-.072.118-.045.027-.037.054-.064.063-.091a.328.328 0 0 1 .18-.201c.036-.019.062-.046.09-.073.27-.283.548-.557.79-.858.379-.465.72-.948 1.08-1.422.153-.201.333-.402.495-.594.027.21.009.41 0 .603-.027.337-.045.675-.072 1.02-.009.137 0 .274-.009.411 0 .037-.027.064-.027.1 0 .092.027.192.027.283-.027.338-.064.666-.09 1.004-.01.072.026.146.044.21-.045.492.055 1.012-.027 1.532.063-.1.081-.164.081-.228.009-.054 0-.109 0-.173v-.091c.009-.165.045-.338.027-.502a1.72 1.72 0 0 1 .018-.529c.018-.073-.009-.164.036-.255v.136c-.009.52.01 1.04-.062 1.56-.01.045.027.128-.072.118-.081.165.018.283-.072.374-.018.019.017.1.026.155-.036.11-.036.11.018.12.01.2.028.382.036.574.144-.346.072-.703.135-1.059.01.146.019.292.01.447 0 .238-.01.465-.018.702 0 .046-.01.092-.019.138-.027.128-.035.255-.08.373-.036.092-.018.229-.018.338v.347c.036.155-.01.237.017.328-.027.092-.035.12-.027.147l.027.136c.18-.018.1.12.171.192-.054.073-.036.1-.036.137 0 .082-.008.155-.017.237 0 .21-.01.42-.01.62 0 .028.01.055.01.082l-.01.256c.019.027 0 .055-.027.082-.008 0-.035-1.158-.035-1.158h-.135c-.018.547.027 1.04-.072 1.55-.108.009-.143.027-.261.027-.279 0-.558 0-.837.01-.333 0-.656.008-.99.008-.16 0-.331.02-.493.02-.216 0-.441-.029-.657-.029-.333 0-.656.028-.99.037-.242.01-.485.01-.727.018a7.85 7.85 0 0 0-.486.036c-.072.01-.135.037-.225.064-.027 0-.09-.009-.144 0-.09.018-.17.073-.261.091-.135.028-.171.064-.153.201v.091c-.01.018.198-.027.198-.027-.018 0-.027.054-.055.1l.163-.064c.135.064.252.028.36.056.35.09.71.128 1.069.163.234.019.459.028.693.037.332.018.665.036.998.036.279 0 .549-.027.827-.027.386 0 .774.018 1.16.027.081 0 .17-.01.26-.01h.657c.585-.017 1.17-.027 1.754-.044.334-.01.675-.028 1.008-.037l1.025-.028c.396-.009.792-.009 1.179-.017.296 0 .584-.01.881-.02.333-.008.674-.036 1.007-.054.18-.009.36-.027.54-.045.216-.018.441-.045.656-.055.324-.018.657-.027.981-.046.405-.027.81-.063 1.223-.072.378-.018.765-.01 1.143-.018.333-.01.666-.028 1.007-.037l.568-.028s.377-.009.566-.027c.324-.018.647-.055.971-.064.207-.01.414 0 .62-.01.333-.008.675-.027 1.008-.027.125 0 .26.019.422.028-.072.064-.117.1-.17.146.035.009.071.028.107.046a.24.24 0 0 1-.143.045c-.019.046-.037.064-.055.155h.162c-.063 0-.117.082-.18.137-.071-.019-.135 0-.17.1.062.036.053.064.045.1-.108.037-.19.074-.144.192-.037.018-.081.036-.126.064-.045.072-.126.09-.108.191.036.009.071.028.099.036-.045.018-.09.046-.135.064-.162.1-.09.146-.054.192-.027.018-.054.036-.081.045.018.082.044.1.054.1a3.186 3.186 0 0 0-.135.11c-.028.082-.064.118-.1.173-.035.055-.053.128-.099.182-.188.21-.323.457-.566.621-.09.064-.17.146-.252.229-.162.154-.306.328-.477.474-.225.19-.46.369-.7.538-.295.21-.592.416-.89.62-.163.11-.343.191-.513.292-.171.1-.333.191-.504.291-.108.073-.207.173-.324.229-.297.128-.612.237-.918.356-.297.128-.512.237-.737.319a5.026 5.026 0 0 1-.639.173c-.071.019-.153 0-.234.01-.153.027-.306.064-.459.082-.395.054-.791.091-1.187.146-.234.027-.459.072-.692.1-.162.009-.333-.009-.495-.009-.117 0-.243.028-.36.01-.188-.028-.377-.073-.566-.11-.045-.009-.108-.028-.144-.009-.072.037-.135-.018-.207 0-.045.01-.09-.028-.135-.028-.036-.008-.081.01-.127 0-.099-.027-.188-.063-.297-.054-.107.009-.215-.046-.331-.073-.163-.036-.315-.072-.478-.11a.808.808 0 0 1-.179-.082c-.234 0-.387-.009-.531-.064-.126-.045-.243-.109-.378-.09-.035.009-.062-.01-.099-.01-.027-.036-.054-.109-.08-.109-.18.01-.288-.145-.441-.191-.08-.028-.144-.12-.225-.146-.198-.082-.36-.256-.584-.283-.072-.01-.144-.046-.225-.073.027.036.044.064.072.091-.26-.128-.504-.273-.747-.41-.035-.01-.062-.045-.09-.064l-.242-.164c-.135.027-.189-.028-.225-.046-.243-.173-.522-.283-.756-.474-.099-.083-.215-.137-.287-.238a1.424 1.424 0 0 0-.45-.355c-.135-.073-.26-.155-.386-.237-.063-.046-.127-.1-.127-.201 0-.064-.026-.128-.107-.091-.036-.055-.072-.119-.117-.137-.108-.045-.18-.128-.26-.2-.082-.074-.144-.174-.244-.21-.18-.073-.288-.228-.395-.356-.253-.301-.477-.63-.711-.948-.018-.028-.054-.046-.081-.074.036.1.08.183.126.274a.54.54 0 0 1-.207-.164c-.01.01.62 1.058.62 1.058.055.082.1.164.154.246a.277.277 0 0 1-.27-.146c-.081-.145-.171-.236-.351-.218a1.606 1.606 0 0 1-.044-.2c-.037 0-.064 0-.127-.01.127.2.234.374.351.575-.045-.028-.072-.046-.09-.055.161.173.278.392.485.502.045.21.279.31.333.51l-.127-.027c-.072-.091-.153-.182-.233-.283a.459.459 0 0 0 .08.164c.108.137.208.274.333.393.045.046.108.064.108.146.072.037.1.045.126.045.019.056-.008.138.1.12.071.136.143.136.242.09.117.12.18.129.261.056 0 .045.009.091.009.128.036-.019.027-.046.027-.092.045.037.072.055.09.073.09.128.17.246.296.347.171.146.324.301.486.438.315.264.666.484 1.017.684.432.246.845.511 1.286.748.53.283 1.097.475 1.681.611.216.046.423.091.64.146.188.055.377.137.566.183.288.064.584.118.872.173l.198.027c.08.019.18-.018.198.01.045.072.08.036.135.027.062-.019.135-.019.206-.019.252.01.495.064.747.046.054 0 .135-.046.18.045.08-.036.126-.036.162-.045.01.082 0 .082-.017.09-.019.01-.046.019-.082.046.324.064.63.073.9 0 .468.037.872-.018 1.26-.155.035.046.062.11.116.019.018-.028.063-.037.1-.046.08-.019.179-.055.25-.028.082.028.109-.045.171-.045.109 0 .208-.01.307-.028.054-.009.108-.036.17-.054a.435.435 0 0 0-.198-.046c.109-.055.207-.1.307-.146-.019.027-.037.063-.072.063h.125c-.027 0-.063.082-.108.137l.908-.228c-.099-.191.108-.127.18-.237a2.76 2.76 0 0 1-.27.073c.306-.155.62-.292.926-.429-.044.055-.099.082-.18.129.055.008.09.008.118.017.143.046.108-.09.153-.173.17 0 .242-.027.323-.055.09-.028.18-.055.27-.091.144-.064.279-.145.423-.218.027-.01.071 0 .108 0 .099-.064.134-.12.161-.11.127.018.216-.028.252-.145.063-.047.108-.083.153-.11.197-.11.386-.22.584-.329.072 0 .108 0 .126-.01.117-.054.225-.117.333-.182a.768.768 0 0 1-.09-.044c.09-.02.116-.028.171-.047.215-.256.513-.429.737-.63.1-.009.1-.036.1-.054.035-.046.071-.1.116-.137.198-.182.413-.337.593-.529.26-.263.51-.537.747-.822.215-.255.432-.51.611-.793.252-.392.468-.794.693-1.205.162-.291.306-.583.468-.875.017-.027.054-.064.08-.064.243-.027.487-.045.72-.072.055-.01.117-.045.171-.073-.027-.046-.045-.1-.071-.146-.037-.056-.09-.1-.127-.156-.035-.045-.062-.1-.09-.155-.027-.045-.053-.081-.08-.128a3.375 3.375 0 0 1-.154-.31c-.01-.027-.028-.072-.018-.1.162-.355.225-.738.378-1.094.152-.365.198-.776.27-1.168.063-.374.099-.747.143-1.121.028-.265.063-.52.072-.785.055-.42.036-.812.027-1.204-.009-.346-.027-.702-.044-1.05H29.9zM7.336 24.986c-.063-.072-.117-.155-.18-.227l.028-.028c.098.11.197.219.296.338-.054-.028-.117-.046-.144-.083zm.144.083c.027-.01.055-.01.081-.019.028.046.045.1.072.155-.126-.009-.189-.064-.153-.136zm9.354 3.767v-.028l.504-.054v.027a4.78 4.78 0 0 1-.504.054zm2.266-.237c-.125.027-.26.046-.386.064-.045.01-.1.055-.117-.027-.018.009-.036.009-.054.018.045.137.153.027.243.082-.198.028-.386.046-.576.073v-.018l.171-.028v-.027c-.09-.01-.18-.017-.27-.018-.026 0-.062.036-.09.045-.035.01-.071.019-.116.019-.153.009-.306.009-.45.018-.01 0-.027-.01-.036-.01v-.027l1.798-.246c.01.018.01.036.019.054-.054 0-.09.02-.135.028zm.136-.09c.207-.029.396-.047.594-.074-.414.119-.549.137-.594.073zM11.4 10.09c.287-.402.584-.803.872-1.213.09-.12.162-.247.252-.366.027-.037.063-.055.108-.091l-.01-.018c.037-.046.072-.083.09-.119.046-.072.073-.155.11-.237.008-.017.035-.035.035-.035.127.063.127-.073.171-.12a6.31 6.31 0 0 0 .234-.282c.054-.073.108-.137.153-.219.009-.027-.018-.072-.027-.11h-.027c.027-.017.054-.044.08-.063.01 0 .01 0 .019-.01.054-.081.108-.163.162-.237a3.91 3.91 0 0 1 .35-.418c-.018.045-.036.09-.054.127.01 0 .01.01.018.01.108-.147.225-.283.333-.43-.01-.009-.018-.018-.027-.018-.045.046-.081.091-.126.137-.01-.01-.018-.018-.028-.018.091-.119.18-.237.27-.374.019.028.037.064.072.137.037-.091.073-.155.1-.219-.027.028-.063.055-.09.082l-.028-.027.162-.246c.171-.247.342-.502.513-.749.063-.09.144-.164.198-.255.171-.346.441-.62.648-.94.045-.063.108-.118.162-.172.044-.056.08-.037.117.009.242.31.485.629.728.939.18.228.36.446.53.684.207.292.405.584.612.876.234.337.468.675.693 1.02.342.512.665 1.023 1.007 1.534.252.373.504.739.746 1.113h-.459c-.422-.01-.854-.045-1.277-.027-.575.027-1.16.09-1.735.137-.729.064-1.466.072-2.194.072-.262 0-.523.037-.783.056-.315.018-.621.036-.936.045-.369.018-.728.027-1.097.037-.207.009-.423 0-.648 0v-.002zm10.315 4.195v.083c-.008 0-.017.01-.035.01-.036-.129-.072-.266-.117-.394-.09-.265-.19-.53-.351-.766-.18-.255-.342-.52-.523-.784-.044-.064-.108-.119-.162-.173-.189-.21-.378-.43-.62-.584a7.309 7.309 0 0 0-1.125-.585 2.509 2.509 0 0 1-.314-.164h.215l1.538-.027c.333-.009.657-.009.99-.027.08 0 .125.027.17.1.081.137.162.274.252.41.01.019.027.046.027.073 0 .201 0 .41.01.612.008.21.027.41.035.62 0 .21-.018.428-.009.647.01.31.018.63.018.949h.001zm-9.677-3.054c.423-.018.827-.046 1.241-.064.323-.018.656-.028.98-.046.135-.008.26-.017.395 0-.143.074-.287.147-.413.238-.162.109-.315.255-.477.373a2.712 2.712 0 0 0-.44.42c-.172.21-.36.392-.54.593-.127.146-.27.282-.378.438-.153.2-.288.418-.432.647.045-.867.1-1.724.063-2.6zm5.873 8.775c-.288.073-.584.155-.882.191-.251.037-.512.028-.773.028-.234 0-.46-.009-.693-.028-.26-.027-.522-.054-.774-.173-.216-.1-.44-.191-.656-.3-.216-.11-.432-.238-.594-.438-.117-.147-.279-.265-.423-.393.027.11.09.2.19.265-.046.054-.109.027-.2-.12-.026.02-.053.028-.07.037.026-.064.053-.128.08-.182-.036-.073-.08-.155-.117-.228a7.7 7.7 0 0 1-.207-.365c-.018-.028-.018-.055-.035-.082a2.037 2.037 0 0 1-.127-.164c-.072-.11-.135-.228-.224-.338 0 .028.009.055.009.092-.01 0-.018.009-.018.009l-.19-.465c-.009 0-.009 0-.017.009l.161.602c-.009 0-.018.009-.027.009-.026-.036-.053-.073-.072-.118-.018-.073-.072-.073-.116-.046-.027.018-.046.082-.036.11.063.154.135.31.207.464.018.055.036.1.063.156.009.018.036.036.036.063.036.073.063.146.108.21.08.11.17.219.252.328.08.11.152.229.224.338.009.018.036.018.044.027.046.137.199.237.307.182.027.21.252.283.341.484a4.061 4.061 0 0 1-.26-.119c-.01.01-.01.018-.019.037.108.054.216.109.315.173.09.055.18.11.261.173.108.1.234.156.386.192-.008-.028-.017-.037-.017-.037.252.118.513.246.71.346-.935.018-1.933.037-2.968.055 0-.173-.009-.337-.009-.51 0-.074.018-.138.009-.21-.028-.42-.028-.84-.081-1.25a9.05 9.05 0 0 1-.045-1.305c.009-.237-.009-.483-.018-.72 0-.32 0-.63.01-.949 0-.045.018-.082.036-.128h.027c.009.019 0 .046.017.056.027.027.073.072.09.063.054-.036.135-.072.153-.128a.904.904 0 0 0 .063-.337c0-.082.037-.136.072-.191.019-.028.027-.055.046-.091-.036-.028-.072-.046-.117-.082.036-.1.027-.22.162-.274.018-.01.018-.055.027-.082.009-.074.017-.156.027-.229.018.028.027.037.044.055a.146.146 0 0 1 .019-.028c0-.036-.009-.11 0-.11.108-.018.063-.136.117-.19.008-.01-.01-.038-.01-.056 0-.018 0-.045.01-.045.125-.028.107-.164.188-.228.027-.019.036-.045.072-.091.072.127-.054.191-.063.282.152-.091.198-.31.108-.374a.537.537 0 0 0 .099-.1c.099-.11.206-.21.296-.32.064-.081.1-.181.162-.264.037-.045.108-.082.162-.11.162-.09.315-.19.414-.345.018-.019.045-.037.072-.055.027-.018.081-.018.09-.046.01-.018-.018-.063-.036-.09.036-.02.072-.056.144-.092-.028.055-.036.091-.054.128l.044.045c.081-.064.207-.136.288-.191 0-.009-.045-.045-.045-.045-.054.028-.135.073-.215.11.017-.029.017-.046.027-.056.126-.082.251-.164.386-.228.315-.145.63-.291.945-.428.054-.028.126-.01.189-.01.026 0 .044 0 .071-.008.144-.046.288-.092.432-.128a.744.744 0 0 1 .198-.027c.27.008.54.008.809.027.117.009.225.036.333.072.138.05.273.107.404.174.153.083.297.173.441.274.261.173.504.365.765.52.251.155.45.364.611.602.199.282.423.538.513.884l.135.603c.027.109.09.218.063.346-.046.228-.081.465-.117.694-.018.091-.036.183-.027.273.017.284-.09.53-.198.785-.036.082-.09.164-.135.256a.271.271 0 0 0 .072.036l.08-.164c.01 0 .01 0 .019.01-.045.127-.081.264-.127.392-.107.282-.215.574-.35.848-.072.155-.198.283-.288.429-.09.127-.162.264-.251.383-.081.1-.162.2-.27.273a6.893 6.893 0 0 1-.756.511c-.161.1-.35.155-.53.201l.002-.001zm-4.794-.485l-.009.01c-.019-.01-.046-.018-.063-.037l-.216-.329a.105.105 0 0 1-.018-.09c.1.155.198.3.306.446zm5.595 1.25a3.617 3.617 0 0 0 1.042-.702c.046-.046.09-.091.145-.128.378-.237.656-.565.908-.93.288-.42.477-.894.71-1.34a.949.949 0 0 1 .055-.101c-.019 1.04.099 2.061.233 3.092l-3.093.11v-.001zm9.12-.274c-.01.019-.028.037-.036.056-.01-.019-.01-.046-.019-.083-.054.146-.17.073-.251.073-.486.01-.98.01-1.467.01-.467 0-.944 0-1.411.008-.153 0-.315.036-.468.046-.369.017-.738.027-1.106.036-.028 0-.054-.045-.1-.082a.627.627 0 0 1-.053.082c-.01-.018-.028-.036-.046-.063a.535.535 0 0 1-.027.073h-.026c-.018-.128-.054-.246-.054-.374 0-.274.027-.547.036-.821.009-.128 0-.246 0-.365l.099.072a.773.773 0 0 1 .054-.09s-.018-.01-.036-.027c.017-.01.035-.028.035-.037.009-.028.027-.055.027-.073 0-.064-.018-.118-.027-.173.009 0 .018 0 .027-.01l.054.274h.027c-.036-.063.081-.118-.018-.191-.009-.01.01-.064.01-.091-.028-.055-.045-.11-.073-.182a.22.22 0 0 1 .063-.028c-.036-.018-.063-.036-.09-.045.09-.083.09-.128.01-.22.018-.008.036-.008.036-.017 0-.082 0-.164-.018-.245-.018-.092.027-.201-.108-.256.008.025.02.05.036.072 0 0-.028.01-.054.028-.117-.11-.045-.256-.072-.42.063.018.108.037.153.055-.018-.064-.063-.137-.09-.22h-.037v-.601c0 .009.063.009.1.018 0-.009.008-.018.008-.027-.027-.037-.063-.073-.1-.119l.019-.018c-.072-.09-.036-.218-.036-.246v-.639c.09.092-.044.21.09.265v-.091h-.009c-.009-.137-.009-.274-.018-.41h-.018c-.009.018-.009.027-.018.045h-.018l.054-2.18c.09.119.189.229.252.346.207.384.477.713.728 1.059.216.301.414.63.612.94.243.373.477.747.72 1.121.18.283.366.563.557.84.17.246.351.483.53.72.153.21.315.42.468.63.18.255.36.51.54.757.09.127.189.255.287.383.055.072.135.128.19.173-.01 0-.018 0-.036-.01.027.037.044.064.063.083.099.054.108.11.054.192v-.003zm.458-2.28v-.063c0 .018.009.045 0 .063zm.306-4.022c-.01 0-.063-.055-.072-.064-.009.028 0 .055-.018.091-.01-.027-.072-.018-.072-.045-.009.128.054.255.045.383.027-.018.135-.027.162-.054a.07.07 0 0 0 .036.018c-.18.137-.135.273-.054.429.018.036.072.109.018.182-.018.018.009.073.018.119h.026v.017l-.08.028c-.019-.028-.126-.082-.126-.129v.466c.09.028.09.155.126.22a.267.267 0 0 0 .036-.073l.01.008c-.01.055-.019.11-.037.165-.018.081-.036.154-.044.236 0 .01.017.028.017.037-.099.228-.045.483-.08.72-.028.173 0 .356-.019.538a4.63 4.63 0 0 1-.09.475c-.01.027-.027.036-.072.054a.745.745 0 0 0-.009-.283c-.01 0-.126-.063-.136-.063 0 .128.072.3.1.446-.028-.009-.135-.072-.144-.072-.018.109-.018.255-.027.373-.01.092-.09.174-.1.274 0 .055.063.091.055.183h.071c0-.182.082-.346.082-.538h.026c.01.018.037.036.028.045-.018.1-.055.21-.045.31 0 .055.044.11.027.174a.898.898 0 0 0-.037.191c-.009-.045-.018-.063-.018-.09l-.099-.01c-.009.055.063.11.054.155-.009.01-.018.01-.036.018l-.296-.438a92.076 92.076 0 0 1-.702-1.049 2.19 2.19 0 0 1-.163-.273 12.851 12.851 0 0 0-.926-1.396c-.26-.337-.468-.703-.71-1.058-.225-.337-.45-.666-.675-1.003-.08-.11-.18-.21-.252-.329-.233-.373-.44-.757-.674-1.13-.198-.311-.413-.612-.62-.913-.072-.1-.144-.21-.216-.32a.13.13 0 0 1-.018-.062c-.018-.201-.036-.402-.045-.593 0-.183.018-.365.018-.557v-.164c0-.046.008-.082.008-.128.009-.009.018-.027.027-.036-.26 0-.53-.01-.791 0-.171.008-.261-.065-.378-.192-.342-.393-.594-.84-.89-1.259-.28-.4-.565-.795-.855-1.186-.234-.32-.468-.63-.702-.949-.26-.364-.512-.73-.782-1.094-.324-.438-.657-.876-.99-1.314-.153-.2-.324-.392-.495-.602.117.019.225.037.333.046l.432.028c.324.027.647.045.97.09.27.037.54.092.82.137.594.1 1.178.265 1.745.456.333.11.656.256.98.392.729.302 1.421.666 2.105 1.05.215.118.342.31.503.483.234.246.468.492.693.748.26.3.503.61.755.921.225.273.458.547.684.821.071.082.126.183.188.274.144.219.306.429.432.666.09.173.143.374.206.566.09.282.18.556.27.839.063.21.116.429.162.647.036.146.027.301.071.446.055.193 0 .402.055.594.009.018.017.046.027.064.036.036.063.073.009.127-.009.01-.009.045 0 .073.018-.018.027-.036.045-.064 0 .019.009.028.009.037 0 .036-.01.073 0 .109 0 .018.017.045.026.064.018-.02.036-.028.072-.056.081.31.09.62.09.94 0 .301.054.602-.072.894.027-.1-.036-.192-.009-.283l.004.002z"/></svg>