<svg xmlns="http://www.w3.org/2000/svg" width="33" height="32" viewBox="0 0 33 32"><g fill="#F4BF75" fill-rule="evenodd"><path d="M16.824 23.142c.078-.002.157-.005.235-.009a1.106 1.106 0 0 0-1.24.001l.236.01a.993.993 0 0 1 .769-.002zm.235-.009c.303.204.503.552.503.948a1.13 1.13 0 0 1-1.122 1.136 1.13 1.13 0 0 1-1.121-1.136c0-.395.198-.743.5-.947a13.088 13.088 0 0 1-3.969-.813c-.267-.1-.495-.425-.495-.706v-.293c-2.542-1.308-4.22-3.555-4.22-6.108v-.013c-.436-.445-1.037-1.047-1.557-1.316-.958-.496-.926-2.102-.926-2.102s-.016-2.797 3.855-3.625c2.652-.564 3.913-.074 4.443.29 1.098-.352 2.3-.546 3.56-.546 1.243 0 2.429.188 3.514.53.543-.361 1.805-.83 4.42-.274 3.87.828 3.855 3.625 3.855 3.625s.032 1.606-.926 2.102c-.492.255-1.058.809-1.488 1.245v.084c0 2.615-1.758 4.908-4.403 6.201v.2c0 .281-.207.607-.48.706a13.089 13.089 0 0 1-3.943.812zm-.456-3.293c.333.042.764.236 1.176.362.43.155.844.215.681.238-.566.022-1.187-.194-1.95-.183-.767-.01-1.387.205-1.948.183-.164-.028.25-.089.68-.238.396-.12.804-.304 1.133-.356v-3.142h.228v3.136zm4.31 1.36c-.443.75-1.183.385-1.74.674-.87.43-1.753.26-2.678.26h-.017c-.925 0-1.807.165-2.679-.265-.546-.282-1.26.057-1.706-.619a14.25 14.25 0 0 1-.635-.22c-.032-.011-.049-.028-.103-.05v.342c1.48.762 3.251 1.205 5.156 1.205 1.826 0 3.53-.408 4.97-1.112v-.435c0 .017-.054.033-.086.05-.16.06-.32.116-.482.17zm0 0c.233-.394.384-1.095.384-2.36-.006-1.016.305-1.48-.556-2.538-.833-1.038-2.412-2.058-4.246-2.058H16.473c-1.84 0-3.42 1.02-4.247 2.058-.86 1.059-.55 1.522-.55 2.532 0 1.327.166 2.034.417 2.416 2.871.92 5.957.903 8.82-.05zM10.5 15.965c.839 0 1.52-.69 1.52-1.54 0-.85-.681-1.539-1.52-1.539s-1.52.69-1.52 1.54c0 .85.681 1.54 1.52 1.54zm11.973 0c.839 0 1.519-.69 1.519-1.54 0-.85-.68-1.539-1.52-1.539-.838 0-1.518.69-1.518 1.54 0 .85.68 1.54 1.519 1.54zm-15.337-.764c.37.376.621.64.609.5-.523-6.097 5.537-6.947 5.537-6.947s-.09-.14-.332-.306C9.543 9.54 7.143 12.15 7.136 15.2zm18.75-.071c-.045-3.034-2.457-5.623-5.862-6.698-.26.174-.355.322-.355.322s6.06.85 5.537 6.946c-.013.15.272-.157.68-.57zm-9.283 4.71a1.016 1.016 0 0 0-.092-.007 1.11 1.11 0 0 0-.136.013v.158h.228v-.164zm.22 3.302c-.255.008-.512.009-.768.001a1.021 1.021 0 0 0-.622.943c0 .564.45 1.021 1.007 1.021.556 0 1.007-.457 1.007-1.02 0-.427-.257-.792-.623-.945zm-.089.619c.06.055.093.132.093.243 0 .11-.033.187-.093.242a.464.464 0 0 1-.288.078h-.115v.248h-.196v-.888h.31c.131 0 .23.027.29.077zm-.141.348a.183.183 0 0 0 .032-.116c0-.05-.016-.089-.043-.11-.028-.023-.077-.034-.142-.034h-.109v.298h.13c.066.006.11-.01.132-.038z"/><g transform="translate(10.25 14.6)"><ellipse cx="6.19" cy="9.363" rx=".419" ry=".425"/><ellipse cx=".637" cy=".403" rx=".392" ry=".397"/><ellipse cx="12.615" cy=".403" rx=".392" ry=".397"/><path d="M7.655 2.312c.18.402-.441 1.059-1.427 1.059-.985 0-1.606-.657-1.426-1.06.174-.413.8-.545 1.426-.551.626.006 1.252.138 1.427.552z"/></g></g></svg>