<svg xmlns="http://www.w3.org/2000/svg" width="32" height="32" viewBox="0 0 32 32"><path fill="#F4BF75" fill-rule="evenodd" d="M13.096 15.572h5.774c.802 0 1.486-.286 2.053-.857.566-.571.85-1.253.85-2.045V7.23c0-.791-.29-1.456-.867-1.993a3.69 3.69 0 0 0-2.036-.973c-.49-.089-.99-.155-1.502-.199A17.668 17.668 0 0 0 15.867 4c-.512.023-1.002.05-1.47.082a8.799 8.799 0 0 0-1.3.182c-1.224.198-2.014.534-2.37 1.006-.356.473-.534 1.127-.534 1.963v2.175h5.808v.726H8.025c-.846 0-1.603.248-2.27.743-.668.495-1.125 1.214-1.37 2.158-.245 1.078-.373 2.029-.384 2.853-.012.825.116 1.808.384 2.95.222.857.584 1.555 1.085 2.093.502.54 1.174.808 2.019.808h1.97v-2.603c0-.946.361-1.776 1.084-2.49.724-.715 1.575-1.072 2.553-1.072v-.002zm-.367-7.618c-.312 0-.574-.11-.784-.329a1.062 1.062 0 0 1-.316-.757c0-.308.105-.567.316-.775.21-.208.472-.312.784-.312.289 0 .54.104.752.312.212.208.317.467.316.775 0 .285-.106.538-.316.757-.211.22-.462.33-.752.33zm14.818 5.077c-.201-.835-.518-1.528-.951-2.076-.433-.549-1.072-.824-1.918-.825h-2.17v2.538c0 .99-.368 1.84-1.103 2.556-.734.714-1.58 1.071-2.537 1.071h-5.774c-.802 0-1.486.292-2.053.874-.567.582-.85 1.258-.85 2.028v5.44c0 .792.29 1.423.867 1.894a5.595 5.595 0 0 0 2.036 1.039c.913.264 1.83.407 2.753.428.923.021 1.93-.122 3.02-.428a6.315 6.315 0 0 0 2.004-1.007c.601-.451.902-1.094.902-1.929V22.46h-5.774v-.726h8.679c.846 0 1.463-.264 1.852-.791.389-.528.728-1.231 1.019-2.11a7.964 7.964 0 0 0 .45-2.72c-.011-.912-.161-1.94-.45-3.083l-.002.002zm-8.31 10.882c.312 0 .573.11.784.329.211.22.316.472.316.758 0 .308-.105.571-.316.79-.21.22-.472.33-.784.33-.289 0-.544-.11-.767-.33a1.072 1.072 0 0 1-.333-.79c0-.286.111-.539.333-.758.223-.22.478-.33.767-.33z"/></svg>