<svg xmlns="http://www.w3.org/2000/svg" width="32" height="32" viewBox="0 0 32 32"><path fill="#D14748" fill-rule="evenodd" d="M28.809 7.665c.094 0 .094.093.191.188-.191.188-.38.466-.57.746h-.095c-.76-.746-1.613-1.119-2.657-1.211a5.157 5.157 0 0 0-3.322.56c-2.751 1.212-4.555 3.266-5.506 6.063a15.25 15.25 0 0 0-.57 2.984c0 .747 0 1.585.094 2.331.094 1.212.285 2.427.473 3.639.474 1.68.95 3.358 1.613 4.942V28H5.84c0-.28 0-.466-.095-.654 0-1.4.094-2.704.38-4.011.285-1.958.759-3.824 1.424-5.596.57-1.68 1.33-3.173 2.09-4.758.57-.934 1.044-1.866 1.612-2.8 1.044-1.4 2.183-2.704 3.701-3.73 1.519-1.027 3.131-1.681 4.935-1.866 1.804-.28 3.51 0 5.126.654 1.424.653 2.657 1.4 3.796 2.426zM3.282 21.75c.854 0 1.71.093 2.563.188-.19.839-.285 1.585-.473 2.427-.76-.093-1.519-.188-2.372-.281.094-.839.191-1.585.285-2.331l-.003-.003zm4.65-6.996a14.759 14.759 0 0 0-.665 1.865c-.76-.28-1.519-.465-2.278-.746.285-.654.474-1.307.76-1.958.664.28 1.423.561 2.183.839zm11.767 9.327c.285.561.57 1.12.759 1.68.094 0 .094 0 .094.093h-.191c-.76-.093-1.425-.093-2.184-.093-.094-.092-.191-.092-.191-.188-.191-.465-.285-1.026-.38-1.492-.094 0-.094 0-.094-.092h1.992c.094 0 .094.092.192.092h.003zM11.633 8.784c-.473.562-.853 1.027-1.33 1.585L8.593 9.25c.474-.561.854-1.027 1.33-1.492.572.373 1.14.746 1.71 1.026zm5.217 11.008c.094-.466.094-1.027.094-1.585.095 0 .095.093.095.093.57.28 1.138.56 1.612.838.094 0 .094 0 .094.093.094.466.094.934.094 1.307v.188s0-.092-.094-.092c-.57-.188-1.139-.466-1.804-.746 0 0-.094 0-.094-.093l.003-.003zm-.473-14.831c-.474.373-1.045.654-1.519.934l-1.139-1.4h.095c.38-.28.853-.465 1.33-.746h.191c.38.466.665.839 1.045 1.212h-.003zm.665 10.258c.19-.465.38-.838.57-1.211l1.14.838c.093 0 .19.093.19.093l.095.092c-.192.466-.286 1.027-.38 1.493-.57-.466-1.139-.934-1.612-1.308l-.003.003zm4.46-10.912H19.51A29.217 29.217 0 0 1 19.225 3h.665c.474 0 .853.093 1.233.093.191 0 .191 0 .191.092.094.373.094.654.191 1.027v.092l-.003.003zm-1.044 7.277c-.191.28-.38.561-.571.934-.38-.56-.853-1.026-1.33-1.492.285-.373.665-.654.95-.934.094 0 .094.092.094.092.286.373.571.839.854 1.212v.188h.003zm2.371-3.265c.095.28.095.465.192.746h-.094c-.286.28-.571.466-.854.746-.191-.373-.38-.746-.57-1.212.473-.092.853-.188 1.33-.28h-.004zm3.037-2.985v-.839c.571.28 1.045.654 1.613 1.027-.095.188-.192.28-.286.466-.474-.28-.95-.466-1.33-.654h.003zm.95 2.985s.095 0 .095.092v.466c-.474-.093-.854-.093-1.33-.093v-.746c.094 0 .191 0 .285.093.286 0 .665.092.95.188z"/></svg>