<svg xmlns="http://www.w3.org/2000/svg" width="24" height="24" viewBox="0 0 24 24"><g fill="#ff7043"><path d="M11.963 1.403A10.507 10.507 0 0 0 1.455 11.911a10.507 10.507 0 0 0 10.508 10.506A10.507 10.507 0 0 0 22.47 11.911 10.507 10.507 0 0 0 11.963 1.403zm.058 2.621a7.946 7.946 0 0 1 7.944 7.945 7.946 7.946 0 0 1-7.944 7.946 7.946 7.946 0 0 1-7.945-7.946 7.946 7.946 0 0 1 7.945-7.945z" stroke-width="9.6" stroke-miterlimit="1.414"/><text style="line-height:125%" x="2.902" y="27.909" transform="scale(1.70652 .58599)" font-weight="400" font-size="91.879" font-family="sans-serif" letter-spacing="0" word-spacing="0"><tspan x="2.902" y="27.909" style="-inkscape-font-specification:'Playbill Ultra-Condensed'" font-stretch="ultra-condensed" font-size="22.97" font-family="Playbill">R</tspan></text></g></svg>