<svg xmlns="http://www.w3.org/2000/svg" width="33" height="32" viewBox="0 0 33 32"><g fill="#78909C" transform="translate(4 4)"><path d="M13.177 24.877c2.843-10.198 2.76-10.244 4.816-17.515l.495.287c.268.155.488.028.488-.282V3.899c.545-1.916.973-3.396 1.098-3.841h2.227L26 3.495 23.57 5.6l1.838 1.992L13.3 24.877c-.06.097-.142.075-.123 0zM14.5 2.897c.11 0 .198.06.198.136V4.81c0 .075-.089.136-.198.136h-2.991c-.11 0-.2-.06-.2-.136V3.033c0-.075.09-.136.2-.136h2.99z"/><path d="M18.191.93l-3.29 1.905a.36.36 0 0 1 .061.198V4.81a.365.365 0 0 1-.094.243l3.323 1.924c.227.131.413.024.413-.238v-5.57c0-.263-.186-.37-.413-.24zm-7.145 3.88V3.033c0-.073.023-.14.06-.198L7.817.93c-.226-.131-.412-.024-.412.238v5.57c0 .263.185.37.412.239l3.323-1.925a.366.366 0 0 1-.093-.242z"/><path d="M12.7 24.877h.123C9.98 14.679 10.062 14.633 8.007 7.362l-.495.287c-.268.155-.488.028-.488-.282V3.899C6.48 1.983 6.051.503 5.926.058H3.699L0 3.495 2.43 5.6.591 7.592 12.7 24.877z"/><ellipse cx="12.91" cy="7.756" rx="1" ry="1"/><ellipse cx="12.91" cy="13.111" rx="1" ry="1"/><ellipse cx="12.91" cy="18.467" rx="1" ry="1"/></g></svg>