<svg xmlns="http://www.w3.org/2000/svg" width="33" height="32" viewBox="0 0 33 32"><path d="M26.933 2.616a.84.84 0 0 1 .53.16c.137.107.231.25.282.428.05.177.057.38.021.608a2.01 2.01 0 0 1-.248.683c-.03.028-.065.028-.109 0a.206.206 0 0 1-.086-.107c.029-.17-.033-.313-.184-.427-.152-.113-.387-.17-.704-.17-.592 0-1.187.216-1.785.65-.6.435-1.18 1.008-1.743 1.719a16.14 16.14 0 0 0-1.58 2.455c-.49.925-.917 1.878-1.277 2.86-.361.981-.646 1.956-.855 2.924-.21.968-.314 1.85-.314 2.647 0 .426.122.64.368.64.173 0 .343-.071.509-.214.165-.142.357-.355.573-.64.044-.028.083-.024.12.01.035.037.046.083.032.14a4.264 4.264 0 0 1-1.018 1.067c-.39.285-.743.427-1.06.427-.275 0-.466-.079-.574-.235-.108-.157-.162-.356-.162-.598 0-.669.144-1.505.433-2.508a26.41 26.41 0 0 1 1.158-3.18 33.618 33.618 0 0 1 1.677-3.34 26.274 26.274 0 0 1 1.981-3c.685-.889 1.375-1.61 2.067-2.166.693-.555 1.342-.833 1.948-.833zM6.62 28.845a.84.84 0 0 1-.53-.16.804.804 0 0 1-.282-.427 1.419 1.419 0 0 1-.022-.609c.037-.227.12-.455.25-.683.028-.028.064-.028.108 0a.205.205 0 0 1 .086.107c-.028.17.033.313.184.427.152.114.386.17.704.17.592 0 1.187-.216 1.786-.65.598-.434 1.18-1.007 1.742-1.718.563-.712 1.09-1.53 1.58-2.455s.917-1.879 1.277-2.86c.361-.982.646-1.957.855-2.925.21-.967.314-1.85.314-2.646 0-.427-.122-.64-.368-.64-.173 0-.343.07-.509.213a4.237 4.237 0 0 0-.573.64c-.043.028-.083.025-.12-.01-.035-.036-.046-.083-.032-.14a4.27 4.27 0 0 1 1.018-1.067c.39-.284.743-.426 1.06-.426.275 0 .466.077.574.234.108.157.162.356.162.598 0 .669-.144 1.505-.433 2.508a26.41 26.41 0 0 1-1.158 3.18 33.618 33.618 0 0 1-1.677 3.34 26.292 26.292 0 0 1-1.981 3c-.685.889-1.375 1.611-2.067 2.166-.693.555-1.342.833-1.948.833z" fill="#B3D107" stroke="#B3D107" stroke-width="1.095" fill-rule="evenodd"/></svg>