<svg xmlns="http://www.w3.org/2000/svg" width="33" height="32" viewBox="0 0 33 32"><path fill="#78909C" fill-rule="evenodd" d="M4 6.274A2.27 2.27 0 0 1 6.274 4h20.452A2.27 2.27 0 0 1 29 6.274v20.452A2.27 2.27 0 0 1 26.726 29H6.274A2.27 2.27 0 0 1 4 26.726V6.274zm17.55 6.05c-.3-1.66-1.633-3.779-5.157-3.779-2.708 0-5.057 1.88-5.057 4.558 0 2.1 1.453 3.698 3.842 4.158l1.932.36c.935.18 1.513.7 1.513 1.42 0 .879-.757 1.479-1.991 1.479-1.931 0-2.808-1.14-2.927-2.44l-2.887.7c.2 2 1.872 4.538 5.774 4.538 3.365 0 5.216-2.259 5.216-4.478 0-2.019-1.394-3.758-4.081-4.258l-1.892-.36c-.975-.18-1.393-.679-1.393-1.359 0-.78.756-1.519 1.93-1.519 1.713 0 2.25 1.12 2.35 1.78l2.827-.8z"/></svg>