<svg xmlns="http://www.w3.org/2000/svg" xmlns:xlink="http://www.w3.org/1999/xlink" width="24" height="24" viewBox="0 0 24 24"><defs><linearGradient id="a"><stop offset="0" stop-color="#791223"/><stop offset="1" stop-color="#d92f3c"/></linearGradient><linearGradient xlink:href="#a" id="b" x1="12.356" y1="21.559" x2="12.356" y2="2.949" gradientUnits="userSpaceOnUse"/></defs><path d="M6 3c-.47 0-.88.21-1.16.55L3.46 5.23C3.17 5.57 3 6 3 6.5V19a2 2 0 0 0 2 2h14a2 2 0 0 0 2-2V6.5c0-.5-.17-.93-.46-1.27l-1.39-1.68C18.88 3.21 18.47 3 18 3H6zm-.07 1h12l.94 1H5.12l.81-1z" fill="url(#b)"/><path style="line-height:125%" d="M11.053 11.918h-.008c-.244.022-.475.054-.676.11a2.9 2.9 0 0 0-.856.412 3.399 3.399 0 0 0-.67.683 9.36 9.36 0 0 0-.586.95c-.07.131-.134.244-.201.365v.001h-.002l-.768 1.372-.003-.001c-.136.253-.264.485-.38.686-.123.212-.26.39-.411.539a1.599 1.599 0 0 1-.52.34c-.04.016-.092.024-.138.036h-.567v1.383H5.834v-.001c.245-.02.477-.053.679-.11a2.9 2.9 0 0 0 .856-.411c.245-.185.469-.413.67-.683.195-.275.39-.591.585-.95.07-.131.135-.244.202-.366l.004.001.002-.002.02-.038H10.948v-1.378h-.19v-.001H9.624c.125-.234.246-.452.355-.64.123-.21.259-.39.41-.538.152-.148.325-.26.52-.34.04-.015.091-.024.136-.035h.57V13.3h-.002v-1.381h-.56v-.001z" font-weight="400" font-size="40" font-family="sans-serif" letter-spacing="0" word-spacing="0" fill="#fff"/></svg>