<svg xmlns="http://www.w3.org/2000/svg" width="24" height="24" viewBox="0 0 24 24"><path d="M19.376 15.988l-7.709 4.45-7.708-4.45V7.087l7.708-4.45 7.709 4.45z" fill="#fff" fill-opacity=".785" stroke-width="0"/><path d="M12.286 1.98c-.21 0-.41.059-.57.179l-7.9 4.44c-.32.17-.53.5-.53.88v9c0 .38.21.711.53.881l7.9 4.44c.16.12.36.18.57.18.21 0 .41-.06.57-.18l7.9-4.44c.32-.17.53-.5.53-.88v-9c0-.38-.21-.712-.53-.882l-7.9-4.44a.945.945 0 0 0-.57-.179zm0 2.15l7 3.939v2.104h-.016v5.177h.016v.54l-7 3.939-7-3.94V8.07l7-3.94zm0 2.08l-4.9 2.83 4.9 2.83 4.9-2.83-4.9-2.83zm-5 5.08v3.58l4 2.308v-3.58l-4-2.308zm10 0l-4 2.308v3.58l4-2.308v-3.58z" fill="#8ed6fb"/><path d="M12.286 6.21l-4.9 2.83 4.9 2.83 4.9-2.83-4.9-2.83zm-5 5.08v3.58l4 2.308v-3.58l-4-2.308zm10 0l-4 2.308v3.58l4-2.308v-3.58z" fill="#1c78c0"/></svg>