<svg xmlns="http://www.w3.org/2000/svg" width="33" height="32" viewBox="0 0 33 32"><g fill="none"><path fill="#6A9FB5" d="M16.688 2.385c-.287 0-.56.082-.779.248L5.114 8.756a1.37 1.37 0 0 0-.723 1.215v12.414c0 .524.286.98.723 1.215l10.795 6.123c.219.166.492.248.78.248.286 0 .56-.082.779-.248L28.263 23.6a1.37 1.37 0 0 0 .723-1.215V9.971c0-.524-.286-.98-.723-1.215L17.468 2.633a1.282 1.282 0 0 0-.78-.248zm0 2.966l9.565 5.434v2.901h-.021v7.142h.021v.744l-9.565 5.433-9.564-5.433V10.785l9.564-5.434zm0 2.87l-6.696 3.903 6.696 3.903 6.696-3.903-6.696-3.904zm-6.832 7.006v4.938l5.466 3.185V18.41l-5.466-3.184zm13.664 0l-5.465 3.184v4.939l5.465-3.185v-4.938z"/><path fill="#78909C" d="M16.688 8.22l-6.696 3.904 6.696 3.903 6.696-3.903-6.696-3.904zm-6.832 7.007v4.938l5.466 3.185V18.41l-5.466-3.184zm13.664 0l-5.465 3.184v4.939l5.465-3.185v-4.938z"/></g></svg>