<svg xmlns="http://www.w3.org/2000/svg" width="32" height="32" viewBox="0 0 32 32">
  <path fill="#D28445" fill-rule="evenodd" d="M20.2261361,11.6942222 C20.534609,11.6942222 20.7972748,11.5828148 21.0141335,11.36 C21.2309922,11.1371852 21.3400014,10.8776296 21.3411611,10.5813333 C21.3411611,10.2660741 21.2321519,10.0023704 21.0141335,9.79022222 C20.7961151,9.57807407 20.5334493,9.47140741 20.2261361,9.47022222 C19.9188229,9.46903704 19.6607958,9.5757037 19.4520548,9.79022222 C19.2433138,10.0047407 19.1389432,10.2684444 19.1389432,10.5813333 C19.1389432,10.8942222 19.2433138,11.1579259 19.4520548,11.3724444 C19.6607958,11.586963 19.9188229,11.6936296 20.2261361,11.6924444 L20.2261361,11.6924444 L20.2261361,11.6942222 Z M19.1667754,12.6666667 L21.2872364,12.6666667 L21.2872364,20.8337778 L19.1667754,20.8337778 L19.1667754,12.6666667 L19.1667754,12.6666667 Z M12.3983475,18.0835556 L15.2789737,18.0835556 L16.0408785,20.8337778 L18.2152642,20.8337778 L15.0615351,10.112 L12.4244401,10.112 L12.4244401,11.168 L9.65166341,20.8355556 L11.6086106,20.8355556 L12.396608,18.0853333 L12.3983475,18.0835556 Z M13.8125679,12 L14.8719287,16.2222222 L12.7514677,16.2222222 L13.8108284,12 L13.8125679,12 Z M4,4 L4,28 L28,28 L28,4 L4,4 L4,4 Z M26.2065666,26.112 L5.84909763,26.112 L5.84909763,5.88977778 L26.2065666,5.88977778 L26.2065666,26.112 L26.2065666,26.112 Z"/>
</svg>
