<svg xmlns="http://www.w3.org/2000/svg" xmlns:xlink="http://www.w3.org/1999/xlink" width="32" height="32" viewBox="0 0 32 32">
  <defs>
    <polygon id="ai-a" points="4 4 4 28 28 28 28 4 4 4"/>
  </defs>
  <g fill="none" fill-rule="evenodd">
    <use fill="#AB7558" xlink:href="#ai-a"/>
    <path stroke="#F4BF75" stroke-width="2" d="M5,5 L5,27 L27,27 L27,5 L5,5 Z"/>
    <path fill="#F4BF75" d="M20.2261361,11.6942222 C20.534609,11.6942222 20.7972748,11.5828148 21.0141335,11.36 C21.2309922,11.1371852 21.3400014,10.8776296 21.3411611,10.5813333 C21.3411611,10.2660741 21.2321519,10.0023704 21.0141335,9.79022222 C20.7961151,9.57807407 20.5334493,9.47140741 20.2261361,9.47022222 C19.9188229,9.46903704 19.6607958,9.5757037 19.4520548,9.79022222 C19.2433138,10.0047407 19.1389432,10.2684444 19.1389432,10.5813333 C19.1389432,10.8942222 19.2433138,11.1579259 19.4520548,11.3724444 C19.6607958,11.586963 19.9188229,11.6936296 20.2261361,11.6924444 L20.2261361,11.6924444 L20.2261361,11.6942222 Z"/>
    <polygon fill="#F4BF75" points="19.167 12.667 21.287 12.667 21.287 20.834 19.167 20.834"/>
    <path fill="#F4BF75" d="M12.3983475,18.0835556 L12.396608,18.0853333 L11.6086106,20.8355556 L9.65166341,20.8355556 L12.4244401,11.168 L12.4244401,10.112 L15.0615351,10.112 L18.2152642,20.8337778 L16.0408785,20.8337778 L15.2789737,18.0835556 L12.3983475,18.0835556 Z M13.8125679,12 L13.8108284,12 L12.7514677,16.2222222 L14.8719287,16.2222222 L13.8125679,12 Z"/>
  </g>
</svg>
