<svg xmlns="http://www.w3.org/2000/svg" width="33" height="32" viewBox="0 0 33 32">
  <g fill="none" fill-rule="evenodd" transform="translate(4 3)">
    <circle cx="13" cy="13" r="13" fill="#D14748"/>
    <path fill="#111" fill-rule="nonzero" d="M12.9653423,6.29135 C11.6387135,2.3803 7.98772204,1.5366 6.49989587,1.3533 L6.49989587,0 L5.1999167,0 L5.1999167,9.7669 C4.65522542,9.35415 3.98443617,9.1 3.24994794,9.1 C1.45792664,9.1 0,10.55795 0,12.35 C0,14.14205 1.45792664,15.6 3.24994794,15.6 C5.04196923,15.6 6.49989587,14.14205 6.49989587,12.35 L6.49989587,5.85455 C7.7030266,5.88705 10.3536841,6.0749 12.0189575,7.05965 C12.1216558,7.1201 12.236054,7.15 12.3498022,7.15 C12.4960498,7.15 12.6409975,7.1006 12.7592956,7.0044 C12.9705422,6.83345 13.0530909,6.54875 12.9653423,6.29135 Z" transform="translate(7.8 5.2)"/>
  </g>
</svg>
