<svg xmlns="http://www.w3.org/2000/svg" width="33" height="32" viewBox="0 0 33 32">
  <path fill="#F4BF75" fill-rule="evenodd" d="M18.7576458,11.7016797 C18.7232568,11.4916013 19.5392144,11.8992161 18.3512301,10.5791713 L18.7576458,11.7016797 Z M20.1894794,12.8774916 C20.1550904,12.6674132 19.5392144,11.8992161 18.3512301,10.5791713 C18.3293462,10.3220605 18.7513932,9.94893617 19.6079924,9.46920493 L22.0339812,7.32765957 C22.5748267,6.62844345 22.8968329,5.50593505 23,3.96326988 L22.9687373,3.60268757 C22.874949,2.51466965 22.0871279,1.63673012 20.6084002,0.959462486 C19.7330434,0.363717805 18.1636537,0.0470324748 15.8908522,0 C14.0088351,0.159910414 11.5515835,0.830907055 8.52847628,2.00358343 C7.69688732,2.6087346 6.74962621,3.20761478 5.68669295,3.80335946 L5.70232432,3.99148936 C5.77422863,3.98521837 5.86801685,3.94759239 5.98681528,3.87861142 C6.10873998,3.86920493 6.17439174,3.9256439 6.18689683,4.03538634 L6.37447329,3.9287794 L6.46826152,3.9256439 L6.47138779,4.01343785 C6.47764034,4.1012318 5.81799647,4.61858903 4.48620362,5.56237402 L4.58937067,5.72855543 L4.49558244,5.73482643 L4.29237461,5.66270997 C4.29862716,5.71914894 4.20171265,5.75677492 4.00788365,5.77245241 L4.02038875,5.87592385 L4.24235422,6.11735722 C4.16732364,6.12362822 4.07040913,6.10167973 3.94223189,6.05778275 C3.51080604,6.09540873 3.08875901,6.40895857 2.67296452,6.99529675 L2.77925785,7.16147816 C3.13877939,6.82911534 3.35136605,6.66293393 3.41076526,6.65666293 L3.43264918,6.92945129 C3.37324997,6.93258679 3.27633546,6.97334826 3.15128449,7.03919373 L3.37950251,7.38409854 C3.81405464,6.9137738 4.29862716,6.50615901 4.82384124,6.1675252 C5.08332201,6.23337066 5.22087808,6.31802912 5.22713062,6.40895857 L5.42721218,6.39014558 C6.85591953,5.33034714 8.26899551,4.56528555 9.6695664,4.09182531 L9.68519777,4.27995521 C9.425717,4.668757 9.24751937,4.86942889 9.15373114,4.87883539 C9.16310996,5.01366181 9.2068778,5.12967525 9.29128721,5.2300112 C9.31317113,5.46830907 8.67541117,7.07995521 7.38738616,10.0555431 C4.45806715,16.9755879 2.00081555,22.0958567 0,25.4069429 C0.00625254859,25.4727884 0.0437678402,25.5605823 0.115672149,25.6734602 C0.609623488,25.5574468 0.919124643,25.4351624 1.05042816,25.3191489 L1.15672149,25.3066069 L1.17235286,25.4947368 L1.35680304,25.4790594 L1.5443795,25.3724524 C1.55063205,25.4288914 1.61315754,25.4571109 1.73820851,25.4445689 L1.75696615,25.6326988 C1.77259753,25.8176932 1.6663042,26.0967525 1.44433873,26.4792833 C1.24425717,26.7050392 1.03167052,27.1816349 0.803452494,27.912206 L0.809705043,28 L0.991028952,27.981187 C1.7882289,27.08757 2.39159984,26.212766 2.80739432,25.3536394 C5.13334239,24.6732363 6.90281365,24.0022396 8.13456572,23.3406495 C9.36944407,23.2371781 10.3104526,22.9048152 10.9513389,22.368645 L10.94196,22.2683091 L10.4761452,22.406271 L10.3698518,22.418813 L10.360473,22.318477 C11.2670926,22.1805151 11.8954737,21.9798432 12.2424901,21.7007839 C14.0088351,20.3368421 15.3437542,19.3679731 16.2472475,18.7973124 C18.1011282,17.4302352 19.3078701,16.0976484 19.8580943,14.8058231 L20.1894794,12.8774916 Z M3.79842327,6.5281075 L3.70463504,6.537514 L3.68900367,6.27413214 L4.07040913,6.22396417 L4.07666168,6.35879059 C4.0141362,6.36819709 3.92034797,6.41836506 3.79842327,6.5281075 L3.79842327,6.5281075 Z M1.93203752,25.143561 C1.71007204,25.0463606 1.50999049,25.0055991 1.34117167,25.0244121 L1.31616148,24.7516237 C1.30678266,24.6450168 1.36930814,24.5729003 1.50061166,24.5478163 C1.62253636,24.5352744 1.69444067,24.6230683 1.70381949,24.8017917 C2.02582574,24.4067189 2.20402338,24.206047 2.23528612,24.199776 L2.44162023,24.2844345 C2.37596847,24.8394177 2.20402338,25.1216125 1.93203752,25.143561 L1.93203752,25.143561 Z M21.871415,4.22351624 C21.7776268,4.23605823 21.5900503,3.94132139 21.3180644,3.3581187 L21.3024331,3.18566629 C21.4806307,3.1699888 21.6619546,3.45845465 21.8557836,4.05419933 L21.871415,4.22351624 Z M21.6056817,2.15408735 L21.5306511,2.33594625 L18.8232975,1.20403135 C20.6271578,1.26360582 21.5587875,1.58029115 21.6056817,2.15408735 L21.6056817,2.15408735 Z M10.1728966,12.0904815 L9.78836482,12.1406495 L9.77273345,11.8772676 L10.1572652,11.8270997 L10.1728966,12.0904815 Z M9.86026913,6.08286674 L9.95718363,6.07973124 L9.97906755,6.3525196 C9.89153187,6.3556551 9.77273345,6.49048152 9.62892483,6.74445689 L9.61329346,6.55632699 C9.78523855,6.3525196 9.87277423,6.19574468 9.86026913,6.08286674 L9.86026913,6.08286674 Z M9.19437271,7.98297872 L9.27878211,8.34669653 L9.04743781,8.34983203 L8.96615468,7.98924972 L9.19437271,7.98297872 Z M8.63789588,8.66338186 L8.82234606,8.64456887 C8.80358842,8.94557671 8.72230529,9.10548712 8.57224412,9.11802912 L8.47845589,9.12430011 C8.59412804,8.92362822 8.65040098,8.7668533 8.63789588,8.66338186 L8.63789588,8.66338186 Z M8.32214218,9.60716685 L8.4284355,9.59462486 L8.43468805,9.68241881 L8.26274297,9.97402016 L8.07829278,9.98969765 L8.07516651,9.8987682 C8.25649042,9.88309071 8.33777355,9.78902576 8.32214218,9.60716685 L8.32214218,9.60716685 Z M8.13769199,10.4568869 L8.04390377,10.9115342 L7.88759005,10.9178052 L7.82506456,10.4662934 L8.13769199,10.4568869 Z M4.90512437,19.3146697 C4.78319967,19.9354983 4.65189615,20.2553191 4.51121381,20.2615901 L4.50808754,20.1737962 C4.47369852,19.8665174 4.60812831,19.581187 4.90512437,19.3146697 L4.90512437,19.3146697 Z M4.46744597,20.550056 L4.47995107,20.6503919 C4.49870871,20.7820829 4.39866794,20.8604703 4.17982873,20.8667413 L4.17044991,20.7695409 C4.15169227,20.6535274 4.24860677,20.581411 4.46744597,20.550056 L4.46744597,20.550056 Z M4.16732364,23.1337066 L4.45806715,23.0960806 L4.46744597,23.2340426 C4.39554166,23.243449 4.30175343,23.293617 4.18608128,23.387682 L4.00475737,23.4096305 C3.99225228,23.2779395 4.05165149,23.1807391 4.16732364,23.1337066 L4.16732364,23.1337066 Z M12.3644148,20.5845465 C10.748131,21.387234 9.79461737,21.9296753 9.51325268,22.2150056 C7.76253908,22.8232923 6.89343482,23.2026876 6.9090662,23.3531915 C5.35530787,23.9677492 4.3298899,24.4255319 3.83906484,24.7045913 C3.72026641,24.7171333 3.55457388,24.6732363 3.3326084,24.5729003 C3.30759821,24.256215 3.45140682,24.0022396 3.75465543,23.7952968 C4.02664129,23.7733483 4.28612206,23.8109742 4.536224,23.9175812 C4.82384124,23.7702128 5.3271714,23.6008959 6.04308822,23.4221725 L6.02433057,23.2371781 L5.4490961,23.2842105 C5.52100041,23.1838746 6.07435096,22.9236282 7.1154003,22.5003359 L7.40301753,22.475252 L7.40927008,22.5630459 C6.91531874,22.6100784 6.64333288,22.7511758 6.58393367,23.0114222 C6.59331249,23.1305711 6.66209053,23.1776036 6.78401522,23.1681971 C7.15604186,22.9361702 7.33736577,22.7950728 7.33111323,22.7574468 C8.03452494,22.6226204 9.97906755,21.6004479 13.1616148,19.6972004 L13.1772462,19.8665174 C13.1834987,19.9543113 12.9115128,20.1863382 12.3644148,20.5845465 L12.3644148,20.5845465 Z M7.48117439,22.1961926 C7.94698926,22.1585666 8.3440261,21.9673012 8.67541117,21.6412094 C8.80984097,21.6286674 8.88174528,21.6819709 8.88799783,21.7979843 C8.6597798,21.8199328 8.2221014,22.0080627 7.58746772,22.3717805 L7.49055321,22.3780515 L7.48117439,22.1961926 Z M15.3625119,16.1258679 L12.9177654,18.0698768 C11.1014,19.2645017 10.1291287,19.8665174 9.98219383,19.8727884 C7.09351638,21.468757 5.29278238,22.2965286 4.59562322,22.356103 L4.49245616,22.368645 C4.57999184,22.0425532 5.86176431,19.4024636 8.35653119,14.4389698 C9.4507272,14.3417693 11.1795569,13.8338186 13.5336414,12.8994401 L14.1088759,12.8492721 C15.2999864,12.7458007 16.1909746,12.9778275 16.7787141,13.5328108 L16.8099769,13.8933931 C16.3722985,15.1632699 15.887726,15.9095185 15.3625119,16.1258679 L15.3625119,16.1258679 Z M10.588691,13.4857783 L10.9794753,13.4011198 L10.9857279,13.6268757 L10.5918173,13.7146697 L10.588691,13.4857783 Z M16.1065652,12.4949608 L16.3973087,12.4667413 C16.663042,12.5952968 16.8005981,12.7050392 16.8099769,12.8053751 L16.8162294,12.8931691 C16.5630012,12.9151176 16.3254044,12.7834267 16.1065652,12.4949608 L16.1065652,12.4949608 Z M16.8881338,8.03628219 C16.6349055,8.34042553 15.9377464,8.86091825 14.7966562,9.59462486 C14.4183771,9.62911534 13.0178062,10.1715566 10.5918173,11.2407615 C10.4730189,11.181187 10.3448416,11.162374 10.2041593,11.1717805 L10.1885279,10.9993281 C10.1603915,10.6512878 10.3167052,10.212318 10.6605954,9.67614782 C10.8481718,8.67905935 11.0513796,8.10839866 11.2795977,7.96730123 L13.2991709,3.40828667 C13.2804132,3.12609183 13.7118391,2.90974244 14.5965747,2.75923852 L14.8841919,2.73101904 L14.9060758,2.9912654 C15.7751801,2.85957447 16.3191518,2.78118701 16.5286122,2.76237402 C18.1355172,2.62441209 18.9702324,2.95363942 19.0358842,3.7343785 L19.2203344,3.71870101 L19.1828191,3.25778275 L19.3797744,3.24210526 C19.8518418,3.50235162 20.10507,3.81903695 20.139459,4.18902576 C20.1613429,4.44613662 20.0237869,4.76282195 19.7299171,5.14221725 C19.6079924,5.15162374 19.5360881,5.06382979 19.523583,4.88510638 L19.3266277,4.90391937 L19.2797336,5.45890258 C18.4669023,6.67861142 17.8729102,7.30571109 17.5102623,7.34020157 C17.175751,7.80111982 16.9725432,8.0300112 16.8881338,8.03628219 L16.8881338,8.03628219 Z M18.1292646,11.2282195 C17.9635721,11.1153415 17.8291423,11.0651736 17.7291015,11.0714446 L17.7103439,10.7986562 L17.8916678,10.7829787 L18.2949572,11.0212766 C18.3105886,11.149832 18.2574419,11.2156775 18.1292646,11.2282195 L18.1292646,11.2282195 Z M19.4141634,12.7552072 C19.5954873,12.8273236 19.7049069,12.9057111 19.7267908,12.9778275 L19.6361289,12.999776 L19.6423814,13.006047 C19.6236238,13.006047 19.6017398,13.0091825 19.5861085,13.0154535 L19.4485524,13.1220605 L19.4141634,12.7552072 Z M19.5392144,13.7083987 L19.5204567,13.5296753 L19.8112002,13.3948488 L19.8330841,13.5704367 L19.5392144,13.7083987 Z" transform="translate(4 2)"/>
</svg>
