<svg xmlns="http://www.w3.org/2000/svg" xmlns:xlink="http://www.w3.org/1999/xlink" width="32" height="32" viewBox="0 0 32 32">
  <defs>
    <polygon id="blade-a" points="0 0 23.998 0 23.998 16.944 0 16.944"/>
  </defs>
  <g fill="none" fill-rule="evenodd" transform="translate(4 6)">
    <mask id="blade-b" fill="#fff">
      <use xlink:href="#blade-a"/>
    </mask>
    <path fill="#D14748" d="M22.6251564,7.73149088 C22.4662886,7.76732872 19.8653791,8.43285574 19.8653791,8.43285574 L17.7381773,5.42264966 C17.6785949,5.33563953 17.62898,5.24857196 17.7778803,5.22812601 C17.9267805,5.20762264 20.3440427,4.7570652 20.4532399,4.73150777 C20.5624371,4.70595034 20.6567666,4.67522399 20.7907991,4.86463615 C20.9247759,5.05404831 22.7640891,7.45506858 22.8335833,7.5471902 C22.9030775,7.63936926 22.7840241,7.69565304 22.6251564,7.73149088 M22.1710497,12.9185584 C22.2359777,13.0238895 22.3009058,13.0909132 22.0967666,13.1674706 C21.8926274,13.244028 15.2104371,15.5700416 15.0805253,15.627474 C14.9506135,15.6849064 14.8485439,15.7040314 14.6814905,15.4551767 C14.5144371,15.206322 12.3404046,11.3257848 12.3404046,11.3257848 L19.4239128,9.42477128 C19.6002654,9.36733885 19.6559499,9.32903142 19.7673188,9.51091993 C19.8786877,9.69280845 22.1061216,12.8132274 22.1710497,12.9185584 M10.6989383,10.7008051 C10.6120705,10.7199875 6.54320742,11.7243659 6.32609374,11.7755956 C6.10898005,11.8267679 6.10898005,11.801153 6.08420046,11.7243659 C6.0593652,11.6475787 1.24639072,1.41185574 1.17956937,1.28389628 C1.11269234,1.15593682 1.11620046,1.05456858 1.17956937,1.05456858 C1.2428826,1.05456858 5.02224223,0.706126014 5.1559406,0.698889527 C5.28969466,0.691595608 5.2756065,0.720656419 5.32483155,0.807723986 C5.32483155,0.807723986 10.6555044,10.2978017 10.7485531,10.464126 C10.8416019,10.6303929 10.7857503,10.6816226 10.6989383,10.7008051 M23.9057318,7.91579155 C23.7469197,7.73149088 21.550168,4.8953625 21.1630497,4.41413615 C20.7759313,3.9329098 20.5872724,4.01991993 20.3489986,4.05575777 C20.1107248,4.09159561 17.3311796,4.57282196 17.0085439,4.62910574 C16.6859081,4.68544696 16.4824371,4.81857534 16.6809522,5.10522061 C16.8575276,5.36016318 18.684813,8.03209223 19.0873002,8.62054493 L11.8226506,10.4154807 L6.04510998,0.453078716 C5.81513318,0.1013625 5.76735592,-0.0215429054 5.24392204,0.00303817568 C4.72048817,0.0275618243 0.7116529,0.371065203 0.426158701,0.395646284 C0.140608817,0.420227365 -0.172783295,0.551288176 0.112710905,1.2465652 C0.398260789,1.94184223 4.95096613,12.0604605 5.07781531,12.3549166 C5.20472019,12.6493726 5.53465058,13.1270956 6.30716102,12.9356733 C7.09860418,12.7395416 9.84323527,12.0006733 11.342929,11.5956024 C12.1353745,13.0756361 13.7515044,16.0779166 14.0503629,16.5080855 C14.4493977,17.0824098 14.7240334,16.9874166 15.3366181,16.7959943 C15.8148919,16.6464976 22.8206645,14.0480821 23.1362283,13.9140922 C23.4517921,13.7801024 23.6466877,13.6843625 23.4331935,13.3588929 C23.276219,13.1196294 21.4281077,10.5660111 20.4600891,9.23007534 C21.1230682,9.04807196 23.4806367,8.40075101 23.7319963,8.33045372 C24.0248408,8.24855507 24.0645995,8.10009223 23.9057318,7.91579155" mask="url(#blade-b)"/>
  </g>
</svg>
