<svg xmlns="http://www.w3.org/2000/svg" width="32" height="32" viewBox="0 0 32 32">
  <path fill="#F4BF75" fill-rule="evenodd" d="M27.9409097,15.3593174 C28.7477436,15.6809875 29.0699615,16.3243278 28.9874737,17.2893383 C28.9075637,18.4164705 28.3430378,18.897689 27.1340759,19.0598108 L27.1340759,19.2219325 C27.1340759,19.6233769 26.9716781,19.945047 26.6494601,20.1071688 C26.0050242,20.5909607 25.3605882,20.7505091 24.5537544,20.6707349 C24.4738444,20.5909607 24.3913566,20.5909607 24.2315364,20.5909607 C23.5871005,21.4761969 22.2982286,21.7180929 21.1691768,21.0747526 C21.1691768,20.9949784 21.0892668,20.9949784 21.006779,20.9126308 C20.5221631,21.4761969 19.960215,21.4761969 19.315779,21.3964227 C18.913651,21.3166485 18.591433,21.1545268 18.1867273,21.0747526 C18.1867273,21.0747526 18.1867273,21.1545268 18.2666373,21.2368743 C18.5888553,21.8802146 18.9909833,22.6033291 19.3956891,23.329017 C19.5580869,23.6506871 19.5580869,24.0521315 19.4755991,24.4561492 C19.3132013,24.7778193 19.1533812,24.9399411 18.9110733,25.0994895 C18.8311632,25.0994895 18.7486754,25.1792637 18.7486754,25.1792637 C18.5862775,25.9023782 18.1042395,26.2240483 17.4598035,26.3861701 C17.2174956,26.3861701 16.8952776,26.3063959 16.6529697,26.3861701 C16.4106618,26.4659443 16.2508417,26.7078402 16.0884438,26.7876144 C15.5239179,27.1092846 14.959392,27.0295104 14.4773539,26.7876144 C14.3149561,26.7876144 14.235046,26.7078402 14.0752259,26.7876144 C13.5906101,27.1092846 12.706444,26.7876144 12.464136,26.2240483 C12.2218281,25.6604822 12.062008,25.0969161 11.8197001,24.5359234 C11.8197001,24.4561492 11.73979,24.3738016 11.73979,24.2940274 C11.5773922,24.5359234 11.4974821,24.6954718 11.337662,24.8575935 C10.613316,25.6630556 9.64666208,25.7428298 8.68000816,25.1792637 C7.79326429,24.6156976 7.14882835,23.8925831 6.5043924,23.087121 C4.97321259,20.9152042 4.08646873,18.4216172 4.00655867,15.7684818 C3.92664861,13.1153464 4.57108456,10.7015336 6.26208448,8.6917385 C7.87317435,6.59959585 10.0487901,5.47503701 12.6265339,5.07359266 C13.8354957,4.91147091 15.0444576,4.99381847 16.0910216,5.55738457 C17.5422913,6.28049906 18.4264574,7.40763127 18.9110733,8.85386026 C18.9909833,9.09575621 19.0734711,9.17553041 19.2332912,9.17553041 C19.5555092,9.25530461 19.8777272,9.33765217 20.1200351,9.41742636 C21.3289969,6.84406517 24.5511767,5.63715876 26.2421766,6.20072487 L25.9998687,6.44262082 C25.2755227,7.24808287 24.7909068,8.21309332 24.7109968,9.25787797 C24.6310867,9.74166987 24.5485989,10.2228884 24.3887788,10.7066803 C23.904163,12.2352569 22.7776889,12.9583714 21.3264192,13.2002673 L20.4396753,13.2002673 C20.2772775,13.2002673 20.1973674,13.2002673 20.1174573,13.0381456 L19.8751494,12.5543537 C19.2307135,12.5543537 18.9884056,12.7962496 18.8285855,13.5193641 C19.1508034,13.5991383 19.5529315,13.5991383 19.9576372,13.6814859 C22.213163,14.003156 24.4686889,14.245052 26.7242147,14.8883923 L27.9409097,15.3593174 Z M22.4632042,12.0628417 C22.5431143,12.0628417 22.5431143,11.9830675 22.6256021,11.9007199 C22.3033841,11.8209457 22.0610762,11.7385982 21.8187683,11.7385982 C21.4166402,11.5764764 21.4166402,11.5764764 21.1743323,11.9804941 L21.0944222,11.9804941 C21.0944222,11.4967022 21.0145122,11.4967022 20.6098064,11.4967022 C20.4474086,11.4967022 20.3674985,11.4967022 20.4474086,11.658824 C20.5273186,11.9007199 20.5273186,12.1426159 20.6098064,12.3819385 C20.6897165,12.4617127 20.7722043,12.5440602 20.8521143,12.4617127 C21.4166402,12.4617127 21.9811661,12.2995909 22.4632042,12.0602683 L22.4632042,12.0628417 Z M20.9320244,9.48948048 C20.8521143,9.56925467 20.7696265,9.65160223 20.9320244,9.73137643 C21.0944222,9.89349818 21.3341524,9.97327238 21.5764603,10.0530466 C22.1409862,9.08803613 22.7055121,8.12302568 23.8319861,7.63923378 L23.7520761,7.63923378 C23.0277301,8.36234827 22.4632042,9.24758452 22.0610762,10.212595 C21.9811661,10.2923692 21.9811661,10.3747167 22.0610762,10.3747167 C22.3832941,10.7761611 22.7854222,11.0978312 23.270038,11.4195014 C23.3499481,11.2573796 23.5123459,11.018057 23.5123459,10.8559353 C23.7546538,10.212595 23.914474,9.56925467 24.0768718,9.00568857 C24.1567819,8.36234827 24.3191797,7.79878217 24.6413977,7.23521607 C24.7213078,7.07309431 24.8037956,6.91354592 24.9636157,6.75142416 C24.1567819,6.83119836 23.5123459,7.07309431 22.86791,7.47453866 C22.0610762,7.95833056 21.3367302,8.60167086 20.9346021,9.48433375 L20.9320244,9.48948048 Z M17.5474468,11.4992756 L17.5474468,11.4992756 C17.4675367,11.9007199 17.6273568,12.3047376 17.7897547,12.706182 C17.7897547,12.6264078 17.8696648,12.6264078 17.8696648,12.6264078 C18.4341907,12.3845118 18.9987165,12.1426159 19.6431525,11.8209457 C19.7230625,11.8209457 19.7230625,11.7411715 19.8055504,11.658824 L19.7256403,11.5790498 C19.4034223,11.658824 19.0812043,11.7411715 18.6790763,11.8209457 C18.2769483,11.8209457 17.8722425,11.9007199 17.5500245,11.4992756 L17.5500245,11.4992756 C18.1145504,11.6613973 18.6790763,11.6613973 19.2410245,11.4195014 C19.8854604,11.0978312 20.6098064,11.0978312 21.2542424,11.2573796 L22.2208963,11.4992756 C21.9785884,11.2573796 21.8187683,11.0978312 21.5764603,10.9357095 C20.6098064,10.2923692 19.5632424,9.80857726 18.4341907,9.72880307 C18.2717928,9.72880307 18.1119727,9.72880307 18.1119727,9.80857726 C17.7098447,10.2923692 17.4675367,10.8533619 17.5474468,11.4967022 L17.5474468,11.4967022 L17.5474468,11.4992756 Z M13.6808311,8.52447003 C12.4718693,8.52447003 11.5052154,9.40970628 11.5052154,10.6166127 C11.5052154,11.9032933 12.4718693,12.8683037 13.6808311,12.8683037 C14.8897929,12.8683037 15.8564469,11.9032933 15.8564469,10.6963869 C15.8564469,9.48948048 14.8897929,8.52447003 13.6808311,8.52447003 L13.6808311,8.52447003 Z M19.4807546,16.0824319 C21.5764603,16.3243278 23.5896782,15.9203101 25.6828062,15.7607617 C25.6028961,15.7607617 25.5204083,15.6809875 25.4404983,15.6809875 C24.0717163,15.4390916 22.7003566,15.1174214 21.3315747,14.957873 C20.3649208,14.7957513 19.3183568,14.7159771 18.3517029,14.5564287 C18.2717928,14.5564287 18.1093949,14.5564287 18.0294849,14.6362029 C17.787177,14.8780988 17.544869,15.199769 17.3051389,15.5214391 C16.9030108,16.005231 16.6607029,16.4864496 16.338485,16.9702415 C15.4517411,18.0150261 14.4051771,18.740714 13.0363952,18.9800366 C12.0697412,19.1421583 11.1829974,19.0598108 10.2962535,18.8179148 C10.2163435,18.7381406 10.0539456,18.7381406 9.97403554,18.8179148 C9.16720173,19.3017067 8.28303561,19.3017067 7.31638169,19.2193592 C6.83176586,19.2193592 6.34972777,19.0572374 5.86511194,18.897689 C5.86511194,18.9774632 5.86511194,19.0598108 5.945022,19.139585 C6.669368,20.5883873 7.63602192,21.7927204 9.00738162,22.6779566 C10.5385614,23.6429671 12.2295614,24.126759 14.0030491,24.0444114 C15.8564469,23.8822896 17.3876267,22.5158349 17.7098447,20.6655882 C17.7098447,20.5034664 17.6299346,20.4236922 17.6299346,20.2641438 C17.4675367,19.9424737 17.3876267,19.5410293 17.2278066,19.1370116 C17.9521526,19.7803519 19.4034223,19.5384559 19.5632424,18.8153415 C19.8854604,18.8951156 20.1277683,18.9774632 20.4499863,18.9774632 C20.9346021,18.9774632 21.3367302,18.8153415 21.6589481,18.4936713 C21.9012561,18.2517753 21.9811661,18.0098794 21.9012561,17.6882092 L22.143564,17.6882092 C22.6281798,17.850331 23.2726157,17.6084351 23.5123459,17.2044173 C23.7546538,16.9625214 23.6747438,16.8827472 23.3499481,16.802973 C22.6256021,16.6408512 21.8986783,16.561077 21.1743323,16.4015286 C20.6098064,16.3217545 20.0452805,16.1596327 19.4833324,16.0798585 L19.4807546,16.0824319 Z M13.6808311,11.9830675 C12.9564851,11.9830675 12.3120492,11.4195014 12.3120492,10.6963869 C12.3120492,9.97327238 12.9564851,9.32993208 13.6808311,9.32993208 C14.4051771,9.32993208 14.969703,9.89349818 14.969703,10.6963869 C14.969703,11.4195014 14.4051771,11.9830675 13.6808311,11.9830675 L13.6808311,11.9830675 Z M13.0363952,9.81115063 C12.7940872,9.89092482 12.7940872,10.212595 13.0363952,10.3747167 C13.3586131,10.6166127 14.0030491,10.6166127 14.245357,10.3747167 C14.4876649,10.212595 14.4876649,9.89092482 14.245357,9.81115063 C14.0829591,9.64902887 13.843229,9.64902887 13.6808311,9.56925467 C13.4385232,9.64902887 13.2787031,9.64902887 13.0363952,9.81115063 L13.0363952,9.81115063 Z"/>
</svg>
