<svg xmlns="http://www.w3.org/2000/svg" width="33" height="32" viewBox="0 0 33 32">
  <path fill="#6A9FB5" fill-rule="evenodd" d="M13.3514769,4.71604632 C12.6889957,3.99838351 12.0477576,3.51994881 11.4277431,3.28072787 C10.8077287,3.04150694 10.1834769,2.92189826 9.55496917,2.92189826 C8.62070084,2.92189826 7.77562535,3.08849606 7.01971735,3.42169665 C6.26380934,3.75489724 5.61407793,4.21624498 5.07050364,4.80575372 C4.52692934,5.39526246 4.1065149,6.08301234 3.80924771,6.86902399 C3.51198051,7.65503564 3.36334915,8.50083983 3.36334915,9.40646195 C3.36334915,10.3804329 3.51198051,11.277498 3.80924771,12.097684 C4.1065149,12.9178701 4.52692934,13.6269787 5.07050364,14.225031 C5.61407793,14.8230834 6.26380934,15.2929746 7.01971735,15.6347188 C7.77562535,15.976463 8.62070084,16.1473325 9.55496917,16.1473325 C10.2853971,16.1473325 10.9945811,15.9721912 11.6825423,15.6219034 C12.3705035,15.2716156 13.0117417,14.7120179 13.6062761,13.9430935 L16.2561875,15.8397643 C15.4408261,16.9675201 14.4471192,17.7876939 13.2750372,18.3003102 C12.1029551,18.8129265 10.8544516,19.0692308 9.52948925,19.0692308 C8.13658011,19.0692308 6.85835035,18.8428286 5.69476162,18.3900176 C4.53117289,17.9372065 3.52897282,17.2964458 2.68813133,16.4677161 C1.84728983,15.6389864 1.18906521,14.6436714 0.713437698,13.4817411 C0.237810188,12.3198108 -1.42108547e-14,11.0297459 -1.42108547e-14,9.61150744 C-1.42108547e-14,8.15909461 0.237810188,6.83912746 0.713437698,5.65156638 C1.18906521,4.4640053 1.84728983,3.4516033 2.68813133,2.61433002 C3.52897282,1.77705675 4.53117289,1.13202425 5.69476162,0.679213193 C6.85835035,0.226402134 8.13658011,-5.32907052e-15 9.52948925,-5.32907052e-15 C10.7525314,-5.32907052e-15 11.8863764,0.217858657 12.9310583,0.653582506 C13.9757401,1.08930636 14.9482139,1.82831709 15.8485089,2.87063689 L13.3514769,4.71604632 Z" transform="translate(8 6)"/>
</svg>
