<svg xmlns="http://www.w3.org/2000/svg" width="32" height="32" viewBox="0 0 32 32">
  <path fill="#AB7558" fill-rule="evenodd" d="M17.1731043,6.16656367 C18.2683983,5.89676504 20.4589863,5.9636751 21.486372,6.30254217 C23.6090518,7.04502798 23.6090518,8.86670828 21.486372,9.33723708 C19.6375158,9.67394576 17.4469278,9.27032702 17.4469278,8.46093115 C17.4469278,8.05515402 18.20049,7.92133391 18.748137,8.25804259 C19.3636923,8.73072977 20.8029086,8.66381972 21.3505556,8.19113253 C21.9661108,7.71844534 21.7623861,7.38173666 20.5969933,7.1788481 C19.4316005,6.97595953 17.5849348,7.44864672 15.8039868,8.32495265 C14.5027775,8.93145995 14.0230388,9.06743846 12.8598365,9.13434851 C11.352712,9.13434851 10.6013403,8.93145995 9.98359451,8.18897414 C9.64186278,7.85226546 9.64186278,7.71628695 9.77767924,7.24359977 C10.1895098,6.50111396 12.2420907,6.09749522 13.1314694,6.63709246 C13.6112082,6.97380115 13.2694765,7.10977965 12.1040837,7.10977965 C10.7349662,7.04286959 10.1873192,7.37957827 10.667058,7.85226546 C11.0788885,8.3918627 12.7218295,8.25804259 13.8850317,7.6493769 C16.0077115,6.57018241 16.4173514,6.36729384 17.1709137,6.16440528 L17.1731043,6.16656367 Z M4.92114567,8.05515402 C5.74261616,7.51555678 6.08434789,7.44864672 5.81052439,7.91917552 C5.67251735,8.05515402 5.67251735,8.3918627 5.67251735,8.59475127 C5.87843262,9.33723708 8.68457583,10.2804531 11.2869944,10.5502517 C12.0405566,10.6171617 12.9299354,10.6862302 13.2716671,10.7531402 C14.0252293,10.8200503 18.8861441,10.8200503 20.4589863,10.6862302 C24.772254,10.4164316 28.1939525,9.27032702 27.8522207,8.19113253 C27.5783972,7.44864672 28.467776,7.92133391 28.9475147,8.79763983 C29.15343,9.20341696 28.7415994,9.87683432 27.920129,10.2826115 C27.2344749,10.6883886 24.5663387,11.428716 23.538953,11.4977844 C23.1972213,11.5646945 22.3757508,11.700673 21.7580049,11.7675831 C20.3888874,11.9704716 12.995653,11.9704716 11.4885285,11.7675831 C9.15993342,11.4977844 8.47646997,11.3618059 6.90143721,10.8912771 C5.12048917,10.3516799 4.02519518,9.54228403 4.16320222,8.93577673 C4.16320222,8.66597811 4.50493395,8.26020098 4.91676449,8.0594708 L4.92114567,8.05515402 Z M4.4414069,11.8323347 C4.30339985,11.0898489 4.37349867,10.9560288 4.57941394,11.2258274 C4.85323744,11.6316046 7.18183247,12.5748205 8.13911942,12.7107991 C8.48085115,12.7777091 8.96058992,12.8467776 9.23441341,12.9136876 C11.1511779,13.3863748 19.5038899,13.5201949 22.1041178,13.1834862 C25.3899998,12.7777091 27.7185949,12.1042917 28.4699665,11.428716 C28.9497053,11.0229389 28.9497053,11.0229389 28.9497053,11.3618059 C28.9497053,12.1042917 27.9223195,15.2749652 27.2388561,16.8246884 C26.8270255,17.6340843 25.9376468,19.0499875 25.1840846,20.0622719 C24.4305223,21.0745563 23.67696,22.3566394 23.5411436,22.8962366 C22.7196731,25.1906041 20.938725,26 16.6276479,26 C12.3822884,26 10.6714391,25.2575142 9.84996864,23.0322152 C9.64405337,22.4926179 8.82258287,21.0767147 8.0690206,19.9975202 C7.24755011,18.9183258 6.42607961,17.6362427 6.15225611,17.1635555 C5.94634084,16.6908683 5.67251735,16.2872496 5.67251735,16.2872496 C5.60460912,16.2872496 5.39869385,16.5570482 5.19277858,16.8268468 C4.71303981,17.5693326 4.64513158,19.1212143 5.05477153,20.1313404 C5.5345103,21.2774449 6.97153602,22.4926179 7.99892179,22.626438 C9.30013105,22.8962366 8.68457583,23.2329453 6.97153602,23.3020138 C5.67032676,23.3689238 5.46441149,23.3020138 4.78094803,22.7624165 C3.34392231,21.7501321 3,21.0767147 3,19.3219445 C3,18.0398614 3.06790823,17.7031528 3.547647,16.960667 C3.8214705,16.5548898 4.30120926,15.9483825 4.64294099,15.6116738 L5.25849622,15.1389867 L4.91676449,13.9238137 C4.71084922,13.3173064 4.50493395,12.371932 4.43702572,11.8323347 L4.4414069,11.8323347 Z"/>
</svg>
