<svg xmlns="http://www.w3.org/2000/svg" width="33" height="32" viewBox="0 0 33 32">
  <path fill="#AA759F" fill-rule="evenodd" d="M28.0871913,5 L4.91280873,5 C4.38800912,5 3.93760946,5.18581046 3.56160975,5.55743138 C3.18561003,5.9290523 2.99841017,6.38802002 3.00001017,6.93433454 L3.00001017,26.0656655 C3.00001017,26.61198 3.18721003,27.0709477 3.56160975,27.4425686 C3.93600946,27.8141895 4.38640913,28 4.91280873,28 L28.0871913,28 C28.6119909,28 29.0623905,27.8141895 29.4383903,27.4425686 C29.81439,27.0709477 30.0015898,26.61198 29.9999898,26.0656655 L29.9999898,6.93433454 C29.9999898,6.38802002 29.81279,5.9290523 29.4383903,5.55743138 C29.0639905,5.18581046 28.6135909,5 28.0871913,5 L28.0871913,5 L28.0871913,5 Z M6.86400726,18.3997929 L10.7256043,14.6025893 L6.86400726,10.769653 L8.77680582,8.8329363 L14.5896014,14.6025893 L8.77680582,20.3341274 L6.86400726,18.3974107 L6.86400726,18.3997929 Z M22.3127956,20.3341274 L14.5872014,20.3341274 L14.5872014,18.3974107 L22.3127956,18.3974107 L22.3127956,20.3341274 L22.3127956,20.3341274 Z"/>
</svg>
