<svg xmlns="http://www.w3.org/2000/svg" width="33" height="32" viewBox="0 0 33 32">
  <g fill="none" transform="translate(7 3)">
    <path fill="#F4BF75" d="M19,3 L17,3 L17,8 L3,8 L3,3 L1,3 C0.447,3 0,3.447 0,4 L0,23 C0,23.553 0.447,24 1,24 L19,24 C19.553,24 20,23.553 20,23 L20,4 C20,3.447 19.553,3 19,3 Z M16,19 L4,19 L4,17 L16,17 L16,19 Z M16,14 L4,14 L4,12 L16,12 L16,14 Z"/>
    <path fill="#D28445" d="M12,2 C12,0.895 11.105,0 10,0 C8.895,0 8,0.895 8,2 L5,2 L5,6 L15,6 L15,2 L12,2 Z"/>
  </g>
</svg>
