<svg xmlns="http://www.w3.org/2000/svg" width="33" height="32" viewBox="0 0 33 32">
  <g fill="#6A9FB5" fill-rule="evenodd" transform="translate(4 6)">
    <path d="M4.24568593,5.61681192 L3.03186472,5.61681192 L3.03186472,3.81370197 L1.22995184,3.81370197 L1.22995184,2.5737681 L3.03186472,2.5737681 L3.03186472,0.761193008 L4.24568593,0.761193008 L4.24568593,2.5737681 L6.05700828,2.5737681 L6.05700828,3.81370197 L4.24568593,3.81370197 L4.24568593,5.61681192 Z M9.86313758,5.61681192 L8.64931637,5.61681192 L8.64931637,3.81370197 L6.84740349,3.81370197 L6.84740349,2.5737681 L8.64931637,2.5737681 L8.64931637,0.761193008 L9.86313758,0.761193008 L9.86313758,2.5737681 L11.6744599,2.5737681 L11.6744599,3.81370197 L9.86313758,3.81370197 L9.86313758,5.61681192 Z" transform="translate(13.765 6.154)"/>
    <path d="M14.5693533,4.71604632 C13.9068721,3.99838351 13.2656339,3.51994881 12.6456195,3.28072787 C12.025605,3.04150694 11.4013533,2.92189826 10.7728455,2.92189826 C9.83857719,2.92189826 8.9935017,3.08849606 8.23759369,3.42169665 C7.48168568,3.75489724 6.83195428,4.21624498 6.28837998,4.80575372 C5.74480568,5.39526246 5.32439124,6.08301234 5.02712405,6.86902399 C4.72985686,7.65503564 4.58122549,8.50083983 4.58122549,9.40646195 C4.58122549,10.3804329 4.72985686,11.277498 5.02712405,12.097684 C5.32439124,12.9178701 5.74480568,13.6269787 6.28837998,14.225031 C6.83195428,14.8230834 7.48168568,15.2929746 8.23759369,15.6347188 C8.9935017,15.976463 9.83857719,16.1473325 10.7728455,16.1473325 C11.5032735,16.1473325 12.2124574,15.9721912 12.9004186,15.6219034 C13.5883799,15.2716156 14.229618,14.7120179 14.8241524,13.9430935 L17.4740639,15.8397643 C16.6587024,16.9675201 15.6649956,17.7876939 14.4929135,18.3003102 C13.3208314,18.8129265 12.0723279,19.0692308 10.7473656,19.0692308 C9.35445646,19.0692308 8.0762267,18.8428286 6.91263797,18.3900176 C5.74904924,17.9372065 4.74684916,17.2964458 3.90600767,16.4677161 C3.06516618,15.6389864 2.40694155,14.6436714 1.93131404,13.4817411 C1.45568653,12.3198108 1.21787634,11.0297459 1.21787634,9.61150744 C1.21787634,8.15909461 1.45568653,6.83912746 1.93131404,5.65156638 C2.40694155,4.4640053 3.06516618,3.4516033 3.90600767,2.61433002 C4.74684916,1.77705675 5.74904924,1.13202425 6.91263797,0.679213193 C8.0762267,0.226402134 9.35445646,-5.32907052e-15 10.7473656,-5.32907052e-15 C11.9704078,-5.32907052e-15 13.1042528,0.217858657 14.1489346,0.653582506 C15.1936165,1.08930636 16.1660903,1.82831709 17.0663852,2.87063689 L14.5693533,4.71604632 Z"/>
  </g>
</svg>
