<svg xmlns="http://www.w3.org/2000/svg" width="32" height="32" viewBox="0 0 32 32">
  <path fill="#AC4142" d="M25.7086393,7 L25.7086393,7 C26.9744959,7 28,8.14370865 28,9.55564165 L28,22.4443583 C28,23.8552185 26.9744959,25 25.7086393,25 L6.29136066,25 C5.02550407,25 4,23.8552185 4,22.4443583 L4,9.55564165 C4,8.14370865 5.02550407,7 6.29136066,7 L25.7086393,7 Z M24.2718654,13.7002444 L24.2707972,13.7002444 L24.2707972,13.6959528 C24.2686607,11.9331823 22.7154493,10.5051559 20.8011751,10.5062288 C19.8792896,10.5073017 19.0417946,10.8409728 18.421151,11.3817131 C17.8881026,10.9375335 17.2781413,10.5706026 16.5976766,10.284139 C15.3435706,9.74983609 13.707037,9.50736127 11.6784617,9.51057996 L6.75390573,9.51809024 C6.73254106,9.51809024 6.71224463,9.51594445 6.69194819,9.51809024 C6.45052744,9.54813137 6.26145013,9.7423258 6.26038189,9.97621744 L6.27533716,21.9347321 C6.27426893,21.9518984 6.27426893,21.9690648 6.27533716,21.9862311 C6.27213246,22.0151994 6.27213246,22.039876 6.27533716,22.0677714 L6.27533716,22.0795732 C6.27854186,22.0903022 6.28495126,22.1021041 6.28815596,22.1139059 L6.28815596,22.1192704 C6.29136066,22.1310723 6.29136066,22.1428742 6.29456536,22.154676 L6.29456536,22.1664779 C6.29990653,22.1772069 6.30631593,22.1890088 6.31272533,22.2008106 L6.31272533,22.2061751 C6.3212712,22.217977 6.33409,22.2297789 6.3437041,22.2405078 L6.3437041,22.2458723 C6.34904527,22.2587471 6.35545467,22.270549 6.36186407,22.2812779 L6.36186407,22.2930798 C6.37361463,22.301663 6.38643344,22.3081004 6.39925224,22.3156107 L6.39925224,22.3274125 C6.4077981,22.3359957 6.4142075,22.3413602 6.42382161,22.3499434 C6.42702631,22.3531621 6.43343571,22.3585266 6.43664041,22.3617452 C6.44518627,22.3703284 6.45159567,22.3767658 6.46120977,22.3842761 L6.46761917,22.3842761 C6.49005208,22.4035882 6.51568968,22.4218275 6.54132728,22.4368481 L6.55414608,22.4368481 C6.56589665,22.4422126 6.57871545,22.4486499 6.59153425,22.4540144 L6.59794365,22.4540144 C6.60969422,22.4604518 6.62251302,22.4658163 6.63533182,22.4711808 C6.65349179,22.4743995 6.67271999,22.4754724 6.69087996,22.4765453 C6.72079049,22.4819098 6.75283749,22.4883471 6.78381626,22.4883471 L11.3932434,22.4701079 C12.6964882,22.4679621 13.5692349,22.4454312 14.0894645,22.3799845 L14.1012151,22.3799845 C14.5990119,22.3102462 15.1267192,22.1825714 15.6992923,21.9958872 C16.6959541,21.6826012 17.5793831,21.2201824 18.338897,20.6032664 C19.0834557,20.0045896 19.6592335,19.2975502 20.064094,18.5003874 C20.3279477,17.9811051 20.5052744,17.4414377 20.5971425,16.8878226 C20.6665776,16.8921142 20.7370811,16.89426 20.8075845,16.89426 C22.722927,16.8931871 24.2729336,15.4630148 24.2718654,13.7002444 Z M15.0231005,13.0962031 L15.0220323,13.097276 C15.9834424,13.8365024 16.4374416,14.7248614 16.4385098,15.9018299 C16.4417145,17.1056208 16.0037388,18.044406 15.0668981,18.8308398 C14.7795433,19.070096 14.4590733,19.2728736 14.105488,19.4402456 C13.771131,19.5958157 13.3352918,19.7310008 12.7851516,19.8468737 C12.2670584,19.9509447 11.4787021,20.011027 10.453198,20.0120999 L8.2686607,20.0153186 L8.25797837,11.978244 L10.3805582,11.9750253 C11.372947,11.9728795 12.077981,12.0039936 12.4785686,12.0587113 C12.8844973,12.114502 13.3288824,12.2325207 13.7999733,12.4149133 C14.2667913,12.5930142 14.6737882,12.8118853 15.0231005,13.0844013 L15.0231005,13.0962031 Z M25.8699426,10.1929427 L25.8699426,10.1918698 C25.8688743,9.62537998 25.3700093,9.16617989 24.7547069,9.16725279 C24.1394045,9.16832568 23.6416077,9.62752578 23.6416077,10.1940156 L23.6416077,10.1950885 C23.6426759,10.7615784 24.1415409,11.2207784 24.7568434,11.2197055 C25.3721458,11.2186327 25.8699426,10.7594326 25.8699426,10.1929427 Z"/>
</svg>
