<?xml version="1.0" encoding="UTF-8"?>
<svg width="33px" height="32px" viewBox="0 0 33 32" version="1.1" xmlns="http://www.w3.org/2000/svg" xmlns:xlink="http://www.w3.org/1999/xlink">
    <!-- Generator: Sketch 46.2 (44496) - http://www.bohemiancoding.com/sketch -->
    <title>dotnet</title>
    <desc>Created with Sketch.</desc>
    <defs></defs>
    <g id="Icons-Table" stroke="none" stroke-width="1" fill="none" fill-rule="evenodd">
        <g id="dotnet" fill="#6A9FB5">
            <path d="M8.67773438,18.4638672 L5.40234375,18.4638672 L4.95166016,20 L2.01269531,20 L5.51025391,10.6943359 L8.64599609,10.6943359 L12.1435547,20 L9.13476562,20 L8.67773438,18.4638672 Z M8.07470703,16.4516602 L7.04638672,13.1064453 L6.02441406,16.4516602 L8.07470703,16.4516602 Z M12.5625,16.9213867 L15.2983398,16.75 C15.3575849,17.1943382 15.4781892,17.5328764 15.6601562,17.765625 C15.9563817,18.1422545 16.3795545,18.3305664 16.9296875,18.3305664 C17.3401713,18.3305664 17.656493,18.2342946 17.8786621,18.041748 C18.1008312,17.8492015 18.2119141,17.6259778 18.2119141,17.3720703 C18.2119141,17.1308582 18.1061208,16.91504 17.8945312,16.7246094 C17.6829417,16.5341787 17.1920611,16.3543303 16.421875,16.1850586 C15.160801,15.9015285 14.2615587,15.5249047 13.7241211,15.0551758 C13.1824517,14.5854469 12.9116211,13.9866573 12.9116211,13.2587891 C12.9116211,12.7805966 13.0502102,12.3288595 13.3273926,11.9035645 C13.604575,11.4782694 14.0214002,11.1439628 14.5778809,10.9006348 C15.1343615,10.6573067 15.8971306,10.5356445 16.8662109,10.5356445 C18.0553445,10.5356445 18.9619923,10.7567523 19.5861816,11.1989746 C20.210371,11.6411969 20.5817051,12.3447217 20.7001953,13.3095703 L17.9897461,13.4682617 C17.9178056,13.0493143 17.7665213,12.7446299 17.5358887,12.5541992 C17.305256,12.3637686 16.9868184,12.2685547 16.5805664,12.2685547 C16.2462548,12.2685547 15.994467,12.3394361 15.8251953,12.4812012 C15.6559236,12.6229662 15.5712891,12.7954091 15.5712891,12.9985352 C15.5712891,13.1466479 15.6411126,13.2799473 15.7807617,13.3984375 C15.9161791,13.5211595 16.2377904,13.6354161 16.7456055,13.7412109 C18.0024477,14.0120456 18.9027479,14.28605 19.4465332,14.5632324 C19.9903185,14.8404148 20.3859851,15.1842427 20.6335449,15.5947266 C20.8811048,16.0052104 21.0048828,16.4643529 21.0048828,16.972168 C21.0048828,17.5688506 20.8398454,18.1189753 20.5097656,18.6225586 C20.1796858,19.1261418 19.7184274,19.5080553 19.1259766,19.7683105 C18.5335257,20.0285658 17.7866256,20.1586914 16.8852539,20.1586914 C15.3025637,20.1586914 14.206546,19.854007 13.597168,19.2446289 C12.9877899,18.6352509 12.642904,17.8608445 12.5625,16.9213867 Z M22.4394531,10.6943359 L27.2192383,10.6943359 C28.2602591,10.6943359 29.0399551,10.9418921 29.5583496,11.4370117 C30.0767441,11.9321314 30.3359375,12.6367142 30.3359375,13.5507812 C30.3359375,14.4902391 30.0534696,15.224444 29.4885254,15.753418 C28.9235812,16.282392 28.0613665,16.546875 26.9018555,16.546875 L25.3276367,16.546875 L25.3276367,20 L22.4394531,20 L22.4394531,10.6943359 Z M25.3276367,14.6616211 L26.0322266,14.6616211 C26.5865913,14.6616211 26.9759103,14.5653493 27.2001953,14.3728027 C27.4244803,14.1802562 27.5366211,13.933758 27.5366211,13.6333008 C27.5366211,13.3413071 27.4392913,13.093751 27.2446289,12.890625 C27.0499665,12.687499 26.683922,12.5859375 26.1464844,12.5859375 L25.3276367,12.5859375 L25.3276367,14.6616211 Z" id="ASP"></path>
        </g>
    </g>
</svg>