<svg xmlns="http://www.w3.org/2000/svg" width="33" height="32" viewBox="0 0 33 32">
  <g fill="none" transform="translate(4 3)">
    <path fill="#8251A8" d="M10.1597031,26.9082205 L0.060734375,17.7163118 L2.88945313,4.28037262 L15.8057656,0.0363422053 L25.9047344,9.22814829 L23.0761172,22.6640875 L10.1597031,26.9081179 L10.1597031,26.9082205 Z M5.27596875,16.0076122 L11.2977109,21.4801939 L18.9989922,18.9449658 L20.6895,10.9369506 L14.6677578,5.45307605 L6.96647656,7.99959696 L5.27596875,16.0075095 L5.27596875,16.0076122 Z"/>
    <path fill="#AA759F" d="M18.4133828,22.9879848 L7.55208594,22.9879848 L2.11595312,13.4722814 L7.55208594,3.95657795 L18.4133828,3.95657795 L23.8495156,13.4722814 L18.4133828,22.9879848 Z M9.46359375,19.6374183 L16.501875,19.6374183 L20.0266016,13.4722814 L16.501875,7.30714449 L9.46359375,7.30714449 L5.9499375,13.4722814 L9.46359375,19.6374183 Z"/>
  </g>
</svg>
