<svg xmlns="http://www.w3.org/2000/svg" width="33" height="32" viewBox="0 0 33 32">
  <g fill="none" fill-rule="evenodd" transform="translate(7 2)">
    <path fill="#AC4142" d="M0.988888889,17.632125 L3.61666667,0.518625 C3.65568196,0.258429388 3.85517461,0.0529399773 4.11144916,0.00896932403 C4.36772371,-0.0350013292 4.62294274,0.0924703085 4.74444444,0.325125 L7.57,5.6925 L0.988888889,17.632125 Z"/>
    <path fill="#F4BF75" d="M19.65,21.7845 L17.1477778,6.035625 C17.1102772,5.81059735 16.9520226,5.62549744 16.7374389,5.55567886 C16.5228553,5.48586029 16.2877284,5.5429666 16.1277778,5.70375 L0.35,21.7845 L9.08,26.766 C9.62752964,27.0774616 10.2958037,27.0774616 10.8433333,26.766 L19.65,21.7845 Z"/>
    <path fill="#D28445" d="M12.5555556,8.0415 L10.5333333,4.12425 C10.4293406,3.92347114 10.2239139,3.79768733 10,3.79768733 C9.77608612,3.79768733 9.57065941,3.92347114 9.46666667,4.12425 L0.588888889,20.232 L12.5555556,8.0415 Z"/>
  </g>
</svg>
