<svg xmlns="http://www.w3.org/2000/svg" width="33" height="32" viewBox="0 0 33 32">
  <polygon fill="#F4BF75" points=".179 .146 8.097 8.092 1.782 8.092 8.033 14.365 .147 14.365 9.701 23.952 9.701 16.039 9.702 16.038 9.702 8.092 9.701 8.092 9.701 3.588 14.474 3.588 16.558 5.679 11.916 5.679 11.916 13.529 14.17 13.529 16.672 16.039 15.056 16.039 15.055 16.038 15.055 16.039 11.818 16.039 11.817 16.038 11.817 16.039 11.785 16.039 11.817 16.071 11.817 23.984 22.975 23.984 18.967 19.963 18.967 18.342 19.833 19.21 19.833 11.275 18.23 11.275 18.231 7.358 21.307 10.443 21.307 2.499 14.676 2.499 12.331 .146 7.842 .146" transform="translate(5 4)"/>
</svg>
