<svg id="Layer_1" data-name="Layer 1" xmlns="http://www.w3.org/2000/svg" viewBox="0 0 24 24"><defs><style>.cls-1{fill:#4a616c;}.cls-2{fill:#ffcb6b;}</style></defs><title>folder_vscode</title><path class="cls-1" d="M13.66,17.18l-3.3-3,1.38-.81,3.35,2.53,6-5.51,1.92.93V7.4a2.22,2.22,0,0,0-2.2-2.2H12L9.8,3H3.2A2.22,2.22,0,0,0,1,5.2V18.8a2,2,0,0,0,2.2,2h8.17l-1-.59Z"/><path class="cls-2" d="M23,11.29l-1.92-.93-6,5.51-3.35-2.53-1.38.81,3.3,3-3.3,3,1,.59.37.22.3-.22,3.05-2.3,2.51,2.3L21.08,24,24,22.58V11.78ZM21.08,14v6.4l-4.25-3.2Z"/></svg>