<svg id="Layer_1" data-name="Layer 1" xmlns="http://www.w3.org/2000/svg" viewBox="0 0 24 24"><defs><style>.cls-1{fill:none;}.cls-2{fill:#4a616c;}.cls-3{fill:#c3e88d;}</style></defs><title>folder_node</title><path class="cls-1" d="M13.93,20.89A.83.83,0,0,0,15,20.8H13.77Z"/><path class="cls-2" d="M11.5,19.93V14A1.09,1.09,0,0,1,12,13l5.17-3a1.11,1.11,0,0,1,1.08,0L23,12.76V7.4a2.22,2.22,0,0,0-2.2-2.2H12L9.8,3H3.2A2.22,2.22,0,0,0,1,5.2V18.8a2,2,0,0,0,2.2,2H12A1.07,1.07,0,0,1,11.5,19.93Z"/><path class="cls-3" d="M23.46,13,23,12.76,18.29,10a1.11,1.11,0,0,0-1.08,0L12,13a1.09,1.09,0,0,0-.54.94v6a1.07,1.07,0,0,0,.45.87l.09.07,1.36.78a2.25,2.25,0,0,0,1.18.33,1.37,1.37,0,0,0,1.47-1.18,1.93,1.93,0,0,0,.07-.44V14.48a.15.15,0,0,0-.15-.15h-.65a.16.16,0,0,0-.16.15v5.88a.66.66,0,0,1-.17.44.83.83,0,0,1-1.06.09l-.16-.09-1.26-.72a.19.19,0,0,1-.08-.15V14a.15.15,0,0,1,.08-.14l5.16-3a.15.15,0,0,1,.16,0l5.16,3h0a.17.17,0,0,1,.07.13v6a.19.19,0,0,1-.08.15l-5.16,3a.22.22,0,0,1-.16,0l-1.31-.8a.17.17,0,0,0-.14,0,2.77,2.77,0,0,1-.78.35c-.09,0-.22.08.05.22l1.72,1a1,1,0,0,0,.54.15,1,1,0,0,0,.54-.15l5.17-3a1.09,1.09,0,0,0,.54-.94V14A1.09,1.09,0,0,0,23.46,13Z"/><path class="cls-3" d="M19.58,16.5c-1.61-.21-1.77-.32-1.77-.69s.14-.73,1.33-.73c1,0,1.45.23,1.61.94a.15.15,0,0,0,.15.12h.67a.11.11,0,0,0,.1-.05.12.12,0,0,0,0-.11c-.1-1.24-.92-1.81-2.57-1.81-1.47,0-2.36.62-2.36,1.66s.88,1.45,2.3,1.59c1.68.16,1.82.41,1.82.75,0,.57-.47.82-1.55.82-1.38,0-1.67-.34-1.77-1a.17.17,0,0,0-.16-.13h-.66a.14.14,0,0,0-.15.15c0,.86.47,1.91,2.74,1.91,1.63,0,2.57-.65,2.57-1.77S21.17,16.72,19.58,16.5Z"/></svg>