<svg id="Layer_1" data-name="Layer 1" xmlns="http://www.w3.org/2000/svg" viewBox="0 0 24 24"><defs><style>.cls-1{fill:#4a616c;}.cls-2{fill:#89a6af;}</style></defs><title>folder_github</title><path class="cls-1" d="M18.29,13h0A5.72,5.72,0,0,1,23,15.43v-8a2.22,2.22,0,0,0-2.2-2.2H12L9.8,3H3.2A2.22,2.22,0,0,0,1,5.2V18.8a2,2,0,0,0,2.2,2H13a5.44,5.44,0,0,1-.46-2.17A5.69,5.69,0,0,1,18.29,13Z"/><path class="cls-2" d="M23,15.43A5.72,5.72,0,0,0,18.29,13h0a5.69,5.69,0,0,0-5.71,5.66A5.44,5.44,0,0,0,13,20.8,5.68,5.68,0,0,0,16.49,24c.28.05.39-.12.39-.27s0-.58,0-1C15.28,23,14.94,22,14.94,22a1.54,1.54,0,0,0-.63-.83c-.52-.35,0-.34,0-.34a1.19,1.19,0,0,1,.87.58,1.24,1.24,0,0,0,1.67.47,1.2,1.2,0,0,1,.36-.75A4.19,4.19,0,0,1,16,20.8a2.4,2.4,0,0,1-1.34-2.47,2.16,2.16,0,0,1,.59-1.52,2,2,0,0,1,0-1.49s.48-.15,1.57.58a5.48,5.48,0,0,1,2.86,0c1.09-.73,1.57-.58,1.57-.58a2.09,2.09,0,0,1,.06,1.5,2.16,2.16,0,0,1,.58,1.51,2.4,2.4,0,0,1-1.34,2.47,4.17,4.17,0,0,1-1.26.32,1.37,1.37,0,0,1,.38,1.05v1.55c0,.15.1.32.39.27A5.66,5.66,0,0,0,24,18.63,5.6,5.6,0,0,0,23,15.43Z"/></svg>