<svg xmlns="http://www.w3.org/2000/svg" viewBox="0 0 24 24"><defs><style>.st0{fill:#4a616c;}.st1{fill:#ff5370;}</style></defs><title>folder_gulp</title><g id="Layer_2" data-name="Layer 2"><path class="st0" d="M9.8,3,12,5.2h8.8A2.22,2.22,0,0,1,23,7.4V18.6a2.22,2.22,0,0,1-2.2,2.2H3.2a2,2,0,0,1-2.2-2V5.2A2.22,2.22,0,0,1,3.2,3Z"/><path class="st1" d="M21.31,9.38l.38-1.64,1.86-2.18h0c.05,0,.19,0,.33.12s.21.27.17.31L24,6l-1.73,2L22,9.42c1.2.08,2,.27,2,.49s-1.56.55-3.49.55S17,10.21,17,9.91s1.56-.54,3.5-.54Zm-.83,9.84A7.76,7.76,0,0,0,22.43,19a3.08,3.08,0,0,0,.57-.2l-.43.84-.14,2.71c0,.31-.86.55-1.91.55s-1.92-.24-1.92-.55l-.18-2.68L18,18.79a4,4,0,0,0,.56.19A7.76,7.76,0,0,0,20.48,19.22ZM23,10.48a2.7,2.7,0,0,0,1-.27l-.45,4.63c-.07.07-.59.68-.74.64s.25-.49.29-.56c.46-.8-.19-1-.7-.37a.27.27,0,0,0-.05-.32c-.18-.13-.32.53-.34.6-.3.14-.61.87-.76.4s.89-1.57.8-2.19-.4.16-.47.37a14.1,14.1,0,0,0-.64,1.86c-.83.76.11-1.09-.23-1.14,0,0-1.45,2.32-.88.69.24-.7.06-1-.27-.11-.08.21-.34.76-.16,1s.77-.11.91-.38c-.11.54.24.59.61.27.07.55.73,0,.89-.18-.05.13-.77,1.76-.24,1.44.27-.16.38-1,.52-1.34s1-1.52.73-.66c-.06.18-.5.5-.43.74.17.63.91-.1,1.12-.32l-.26,2.51c0,.2,0,.58-.11.74-.32.41-1.48.46-1.93.5-.82.07-3,.2-3.4-.7a9.26,9.26,0,0,1-.21-2.54c.37.3.88-.3,1.08-.54,0,.09-.42,1.37,0,1,.27-.23.31-1.08.41-1.42,0-.12.41-1.13,0-.91-.14.07-.16.48-.21.59a1.9,1.9,0,0,1-.57.77c-.72.44-.47-.57-.33-1a2.92,2.92,0,0,1,.57-1.09c.12-.12.26-.34.46-.32s.18.19.26.2.39.54.34-.06c0-.41-.58-.53-.87-.43-.66.23-1.06,1.28-1.22,1.87l-.41-4.25a6.18,6.18,0,0,0,2.77.42A17.9,17.9,0,0,0,23,10.48Z"/></g></svg>