<svg id="Layer_1" data-name="Layer 1" xmlns="http://www.w3.org/2000/svg" viewBox="0 0 24 24"><defs><style>.cls-1{fill:none;}.cls-2{fill:#4a616c;}.cls-3{fill:#90a959;}</style></defs><title>folder_images</title><path class="cls-1" d="M20.8,20.8H17.12l-.06.08L17,20.8H13.76l-.87,1.12h9.72l-1-1.29A2.33,2.33,0,0,1,20.8,20.8Z"/><path class="cls-2" d="M12.89,11.5h9.72a1.59,1.59,0,0,1,.39.06V7.4a2.22,2.22,0,0,0-2.2-2.2H12L9.8,3H3.2A2.22,2.22,0,0,0,1,5.2V18.8a2,2,0,0,0,2.2,2h8.3V12.89A1.4,1.4,0,0,1,12.89,11.5Z"/><path class="cls-3" d="M23,11.56a1.59,1.59,0,0,0-.39-.06H12.89a1.4,1.4,0,0,0-1.39,1.39v9.72A1.4,1.4,0,0,0,12.89,24h9.72A1.39,1.39,0,0,0,24,22.61V12.89A1.4,1.4,0,0,0,23,11.56ZM12.89,21.92l.87-1.12,1.56-2,1.67,2,.07.08.06-.08,2.37-3.05,2.15,2.88,1,1.29Z"/></svg>