<svg id="Layer_1" data-name="Layer 1" xmlns="http://www.w3.org/2000/svg" viewBox="0 0 24 24"><defs><style>.cls-1{fill:#4a616c;}.cls-2{fill:#89a6af;}</style></defs><title>folder_github</title><path class="cls-1" d="M9.8,3,12,5.2h8.8A2.22,2.22,0,0,1,23,7.4V18.6a2.22,2.22,0,0,1-2.2,2.2H3.2a2,2,0,0,1-2.2-2V5.2A2.22,2.22,0,0,1,3.2,3Z"/><path class="cls-2" d="M18.29,13a5.65,5.65,0,0,0-1.8,11c.28.05.39-.12.39-.27s0-.58,0-1C15.28,23,14.94,22,14.94,22a1.54,1.54,0,0,0-.63-.83c-.52-.35,0-.34,0-.34a1.19,1.19,0,0,1,.87.58,1.24,1.24,0,0,0,1.67.47,1.2,1.2,0,0,1,.36-.75c-1.27-.15-2.6-.63-2.6-2.8a2.16,2.16,0,0,1,.59-1.52,2,2,0,0,1,0-1.49s.48-.15,1.57.58a5.48,5.48,0,0,1,2.86,0c1.09-.73,1.57-.58,1.57-.58a2.09,2.09,0,0,1,.06,1.5,2.16,2.16,0,0,1,.58,1.51c0,2.17-1.33,2.65-2.6,2.79a1.37,1.37,0,0,1,.38,1.05v1.55c0,.15.1.32.39.27a5.64,5.64,0,0,0-1.81-11Z"/></svg>