<svg id="Layer_1" data-name="Layer 1" xmlns="http://www.w3.org/2000/svg" viewBox="0 0 24 24"><defs><style>.st0{fill:#80cbc4;enable-background:new;}.st1{fill:#2ecc71;}</style></defs><path class="st0" d="M20.8,5.25H12L9.8,3H3.2A2.23,2.23,0,0,0,1,5.25v13.5A2.23,2.23,0,0,0,3.2,21H20.8A2.23,2.23,0,0,0,23,18.75V7.5A2.23,2.23,0,0,0,20.8,5.25Zm0,13.5H3.2V7.5H20.8Z"/><path class="st1" d="M13,23.91h7v-8H13Zm1-7h5v6H14Z"/><polygon class="st1" points="15 14.91 21 14.91 21 21.91 22 21.91 22 13.91 15 13.91 15 14.91"/><polygon class="st1" points="17 11.91 17 12.91 23 12.91 23 19.91 24 19.91 24 11.91 17 11.91"/></svg>