<svg id="Layer_1" data-name="Layer 1" xmlns="http://www.w3.org/2000/svg" viewBox="0 0 24 24"><defs><style>.cls-1{fill:#4a616c;}.cls-2{fill:#f4bf75;fill-rule:evenodd;}</style></defs><title>folder_bower</title><path class="cls-1" d="M9.8,3,12,5.2h8.8A2.22,2.22,0,0,1,23,7.4V18.6a2.22,2.22,0,0,1-2.2,2.2H3.2a2,2,0,0,1-2.2-2V5.2A2.22,2.22,0,0,1,3.2,3Z"/><path class="cls-2" d="M15.43,14.61c-.13.05-.13.22,0,.31a.57.57,0,0,0,.64,0c.13-.09.13-.26,0-.31s-.21-.08-.3-.13A1.58,1.58,0,0,0,15.43,14.61Zm.34,1.18a.72.72,0,0,1-.73-.7.76.76,0,0,1,.73-.74.7.7,0,0,1,.69.74A.69.69,0,0,1,15.77,15.79ZM18.85,18a16.57,16.57,0,0,0,3.3-.18s-.08,0-.13,0c-.72-.13-1.45-.31-2.18-.39-.52-.09-1.07-.13-1.59-.22a.28.28,0,0,0-.17,0,5,5,0,0,0-.38.48,6.32,6.32,0,0,0-.52.79,2.9,2.9,0,0,1-1.75,1.08A3.11,3.11,0,0,1,14,19.48a.14.14,0,0,0-.17,0,2.13,2.13,0,0,1-1.41.22,2.73,2.73,0,0,1-.78-.17.15.15,0,0,0,.05.13,4.7,4.7,0,0,0,1.62,1.91,4.48,4.48,0,0,0,2.66.74,2.2,2.2,0,0,0,2-1.83c0-.08,0-.13,0-.21a6.17,6.17,0,0,1-.21-.61c.38.34,1.15.21,1.24-.18a1.56,1.56,0,0,0,.47.09.87.87,0,0,0,.64-.26.43.43,0,0,0,.13-.44h.13a.66.66,0,0,0,.73-.26c.13-.13.09-.17-.09-.22-.38-.08-.77-.13-1.15-.21l-.9-.18Zm-3.08-4.09a1.13,1.13,0,0,0-1.16,1.13,1.16,1.16,0,1,0,2.32,0A1.16,1.16,0,0,0,15.77,13.92Zm2.06,1.61h0a1.11,1.11,0,0,0,.13.65,0,0,0,0,1,0,0c.3-.13.6-.27.94-.44,0,0,0,0,.09-.09l-.05,0-.55.13c-.22,0-.43,0-.6-.17a1.33,1.33,0,0,0,.9,0,1.53,1.53,0,0,1,1.07-.08l.51.13a2.39,2.39,0,0,0-.34-.31,3.39,3.39,0,0,0-1.67-.65c-.09,0-.17,0-.17,0a1.15,1.15,0,0,0-.3.92Zm1.8-1.09c-.05,0-.09.09,0,.13a.73.73,0,0,0,.34.17,2.7,2.7,0,0,1,1.2-1.3h0a4.16,4.16,0,0,0-.9,1.39c-.05,0-.05.09,0,.09a2.5,2.5,0,0,0,.64.56.88.88,0,0,0,.13-.3c.13-.35.21-.7.3-1a2.5,2.5,0,0,1,.3-1,1,1,0,0,1,.17-.26,2.35,2.35,0,0,0-1.11.39,2.47,2.47,0,0,0-1,1.09Zm.81,1.39s0,0,.09-.09a2,2,0,0,0-.43-.08c-.22-.09-.22-.09-.34.13h-.05c0-.26,0-.26-.25-.26s-.13,0-.09.08,0,.26.09.39.08.09.12.05a2,2,0,0,0,.86-.22Zm2.91,1.78a.93.93,0,0,1,.56,1.05c0,.61-.34.87-1,1v.08a.51.51,0,0,1-.26.48,1.51,1.51,0,0,1-1.12.31s-.08,0-.17,0a1.21,1.21,0,0,1-1.63.26s0,0-.08-.08a.9.9,0,0,1-.9.26c-.22,0-.39-.13-.6-.18a.14.14,0,0,0,0,.09c.17.35.38.74.6,1.13a.9.9,0,0,1,0,.61.75.75,0,0,1-.3.35.14.14,0,0,0-.08,0,.84.84,0,0,1-.69.66,1.24,1.24,0,0,0-.43,0c-.13,0-.21.17-.3.21a.85.85,0,0,1-.86,0c-.08,0-.13,0-.21,0a.65.65,0,0,1-.86-.3c-.13-.31-.21-.61-.34-.91,0,0,0-.09,0-.13a2,2,0,0,1-.22.3,1,1,0,0,1-1.41.17A4.78,4.78,0,0,1,12,21.79a7.36,7.36,0,0,1-1.33-3.95A5.6,5.6,0,0,1,11.82,14a5.1,5.1,0,0,1,3.39-2,3,3,0,0,1,1.84.26,2.93,2.93,0,0,1,1.5,1.79c0,.13.09.17.17.17l.47.13a3.1,3.1,0,0,1,3.26-1.74l-.13.13a2.64,2.64,0,0,0-.68,1.52,6.93,6.93,0,0,1-.17.79,1.9,1.9,0,0,1-1.63,1.35h-.48c-.08,0-.12,0-.17-.09l-.13-.26c-.34,0-.47.13-.55.52.17,0,.38,0,.6.09a25.22,25.22,0,0,1,3.6.65Z"/></svg>