<svg id="Layer_1" data-name="Layer 1" xmlns="http://www.w3.org/2000/svg" viewBox="0 0 24 24"><defs><style>.cls-1{fill:none;}.cls-2{fill:#80cbc4;}.cls-3{fill:#89a6af;}</style></defs><title>folder_github_open</title><path class="cls-1" d="M3.2,7.5V18.75h9.39s0-.08,0-.12A5.69,5.69,0,0,1,18.29,13h0a5.72,5.72,0,0,1,2.51.58V7.5Z"/><path class="cls-1" d="M20.8,15.37a3.43,3.43,0,0,0-1.08.53,5.48,5.48,0,0,0-2.86,0c-1.09-.73-1.57-.58-1.57-.58a2,2,0,0,0,0,1.49,2.16,2.16,0,0,0-.59,1.52c0,.16,0,.28,0,.42H20.8Z"/><path class="cls-2" d="M14.12,21h.7a.89.89,0,0,0-.47-.17S14,20.83,14.12,21Z"/><path class="cls-2" d="M3.2,18.75V7.5H20.8v6.06A5.63,5.63,0,0,1,23,15.43V7.5a2.23,2.23,0,0,0-2.2-2.25H12L9.8,3H3.2A2.23,2.23,0,0,0,1,5.25v13.5A2.23,2.23,0,0,0,3.2,21h9.92a5.67,5.67,0,0,1-.53-2.25Z"/><path class="cls-3" d="M23,15.43a5.63,5.63,0,0,0-2.2-1.87A5.72,5.72,0,0,0,18.29,13h0a5.69,5.69,0,0,0-5.71,5.66s0,.08,0,.12A5.67,5.67,0,0,0,16.49,24c.28.05.39-.12.39-.27s0-.58,0-1C15.28,23,14.94,22,14.94,22a1.54,1.54,0,0,0-.63-.83.55.55,0,0,1-.19-.17c-.11-.17.23-.17.23-.17a.89.89,0,0,1,.47.17,1.38,1.38,0,0,1,.4.41,1.24,1.24,0,0,0,1.67.47,1.2,1.2,0,0,1,.36-.75,5.1,5.1,0,0,1-.68-.13,2.31,2.31,0,0,1-1.89-2.25c0-.14,0-.26,0-.42a2.16,2.16,0,0,1,.59-1.52,2,2,0,0,1,0-1.49s.48-.15,1.57.58a5.48,5.48,0,0,1,2.86,0,3.43,3.43,0,0,1,1.08-.53,1.08,1.08,0,0,1,.49,0,2.09,2.09,0,0,1,.06,1.5,2.16,2.16,0,0,1,.58,1.51A2.38,2.38,0,0,1,20,21a5.24,5.24,0,0,1-.67.12,1.37,1.37,0,0,1,.38,1.05v1.55c0,.15.1.32.39.27A5.66,5.66,0,0,0,24,18.63,5.6,5.6,0,0,0,23,15.43Z"/></svg>