<svg id="Layer_1" data-name="Layer 1" xmlns="http://www.w3.org/2000/svg" viewBox="0 0 24 24"><defs><style>.st0{fill:#80cbc4;enable-background:new;}.st1{fill:#ffcb6b;}</style></defs><path class="st0" d="M20.8,5.25H12L9.8,3H3.2A2.23,2.23,0,0,0,1,5.25v13.5A2.23,2.23,0,0,0,3.2,21H20.8A2.23,2.23,0,0,0,23,18.75V7.5A2.23,2.23,0,0,0,20.8,5.25Zm0,13.5H3.2V7.5H20.8Z"/><path class="st1" d="M18.1,21.72a5.3,5.3,0,0,0,2.31.57A1.74,1.74,0,0,0,21.49,22a.87.87,0,0,0,.38-.73.9.9,0,0,0-.36-.71A4,4,0,0,0,20.32,20a5.07,5.07,0,0,1-1.84-1.08,2.19,2.19,0,0,1-.7-1.67,2.5,2.5,0,0,1,.93-2,3.85,3.85,0,0,1,2.57-.79,6.09,6.09,0,0,1,1.36.13,6.89,6.89,0,0,1,1,.33l-.47,1.68a5.89,5.89,0,0,0-.76-.29,3.72,3.72,0,0,0-1.17-.16,1.55,1.55,0,0,0-1,.27.8.8,0,0,0-.33.63.78.78,0,0,0,.4.69,7.41,7.41,0,0,0,1.3.61,4.39,4.39,0,0,1,1.81,1.11A2.43,2.43,0,0,1,24,21.14a2.63,2.63,0,0,1-.91,2,4,4,0,0,1-2.8.85,6.18,6.18,0,0,1-1.51-.18,5.36,5.36,0,0,1-1.11-.39l.44-1.71Zm-3.9-7.08h2.08v5.81a3.59,3.59,0,0,1-.87,2.76A3.43,3.43,0,0,1,13,24a5.7,5.7,0,0,1-.8-.06,5.22,5.22,0,0,1-.74-.16l.24-1.68.48.12a3.48,3.48,0,0,0,.58.05,1.41,1.41,0,0,0,1-.38,2,2,0,0,0,.38-1.44V14.64Z"/></svg>