<svg id="Layer_1" data-name="Layer 1" xmlns="http://www.w3.org/2000/svg" viewBox="0 0 24 24"><defs><style>.cls-1{fill:#4a616c;}.cls-2{fill:#f4bf75;}</style></defs><title>folder_ci</title><path class="cls-1" d="M13.89,16.85A4.93,4.93,0,0,1,23,14.22V7.4a2.22,2.22,0,0,0-2.2-2.2H12L9.8,3H3.2A2.22,2.22,0,0,0,1,5.2V18.8a2,2,0,0,0,2.2,2H15.89A4.91,4.91,0,0,1,13.89,16.85Z"/><path class="cls-2" d="M18.77,12.93V14.8l2.5-2.5-2.5-2.5v1.88a5,5,0,0,0-5,5,4.94,4.94,0,0,0,.78,2.66l.91-.91A3.69,3.69,0,0,1,15,16.68,3.75,3.75,0,0,1,18.77,12.93ZM23,14l-.92.92a3.66,3.66,0,0,1,.44,1.75,3.76,3.76,0,0,1-3.75,3.75V18.55l-2.5,2.5,2.5,2.5V21.68A5,5,0,0,0,23,14Z"/></svg>