<svg id="Layer_1" data-name="Layer 1" xmlns="http://www.w3.org/2000/svg" viewBox="0 0 24 24"><defs><style>.cls-1{fill:#80cbc4;}.cls-2{fill:#d28445;}</style></defs><title>folder_dist_open</title><path class="cls-1" d="M23,12.25V7.5a2.23,2.23,0,0,0-2.2-2.25H12L9.8,3H3.2A2.23,2.23,0,0,0,1,5.25v13.5A2.23,2.23,0,0,0,3.2,21h10v-.18h1.33a4.46,4.46,0,0,1,0-.63v-.64H13.18v-.78H3.2V7.5H20.8v8.71H23v-4Z"/><path class="cls-2" d="M22.74,13.51H20.22V12.25A1.25,1.25,0,0,0,19,11H16.44a1.25,1.25,0,0,0-1.26,1.26v1.26H12.67a1.25,1.25,0,0,0-1.26,1.26V21.7A1.26,1.26,0,0,0,12.67,23H22.74A1.26,1.26,0,0,0,24,21.7V14.77A1.25,1.25,0,0,0,22.74,13.51Zm-3.78,0H16.44V12.25H19Z"/></svg>