<svg id="Layer_1" data-name="Layer 1" xmlns="http://www.w3.org/2000/svg" viewBox="0 0 24 24"><defs><style>.cls-1{fill:#80cbc4;}.cls-2{fill:#f4bf75;fill-rule:evenodd;}</style></defs><title>folder_bower_open</title><path class="cls-1" d="M20.8,5.25H12L9.8,3H3.2A2.23,2.23,0,0,0,1,5.25v13.5A2.23,2.23,0,0,0,3.2,21H20.8A2.23,2.23,0,0,0,23,18.75V7.5A2.23,2.23,0,0,0,20.8,5.25Zm0,13.5H3.2V7.5H20.8Z"/><path class="cls-2" d="M15.51,14.61c-.13.05-.13.22,0,.31a.57.57,0,0,0,.64,0c.13-.09.13-.26,0-.31s-.21-.08-.3-.13A1.58,1.58,0,0,0,15.51,14.61Zm.34,1.18a.73.73,0,0,1-.73-.7.76.76,0,0,1,.73-.74.7.7,0,0,1,.69.74A.69.69,0,0,1,15.85,15.79ZM18.94,18a16.66,16.66,0,0,0,3.3-.18s-.09,0-.13,0c-.73-.13-1.46-.31-2.19-.39-.51-.09-1.07-.13-1.58-.22a.25.25,0,0,0-.17,0,5.05,5.05,0,0,0-.39.48,7.56,7.56,0,0,0-.51.79,3,3,0,0,1-1.76,1.08,3.12,3.12,0,0,1-1.46-.09.14.14,0,0,0-.17,0,2.13,2.13,0,0,1-1.41.22,2.6,2.6,0,0,1-.77-.17.17.17,0,0,0,0,.13,4.65,4.65,0,0,0,1.63,1.91,4.43,4.43,0,0,0,2.65.74,2.22,2.22,0,0,0,2-1.83c0-.08-.05-.13-.05-.21s-.13-.39-.21-.61c.38.34,1.16.21,1.24-.18a1.56,1.56,0,0,0,.47.09.91.91,0,0,0,.65-.26.42.42,0,0,0,.12-.44h.13a.66.66,0,0,0,.73-.26c.13-.13.09-.17-.08-.22-.39-.08-.78-.13-1.16-.21l-.9-.18Zm-3.09-4.09a1.12,1.12,0,0,0-1.15,1.13,1.16,1.16,0,1,0,1.15-1.13Zm2.06,1.61h0a1.19,1.19,0,0,0,.13.65,0,0,0,0,1,0,0c.3-.13.6-.27.94-.44.05,0,.05,0,.09-.09l0,0-.56.13c-.21,0-.43,0-.6-.17a1.33,1.33,0,0,0,.9,0,1.53,1.53,0,0,1,1.07-.08l.51.13a2,2,0,0,0-.34-.31,3.39,3.39,0,0,0-1.67-.65c-.09,0-.17,0-.17,0a1.23,1.23,0,0,0-.3.92Zm1.8-1.09s-.09.09,0,.13a.78.78,0,0,0,.34.17,2.7,2.7,0,0,1,1.2-1.3h0a4.16,4.16,0,0,0-.9,1.39s0,.09,0,.09a2.5,2.5,0,0,0,.64.56.72.72,0,0,0,.13-.3c.13-.35.22-.7.3-1a2.5,2.5,0,0,1,.3-1,1,1,0,0,1,.17-.26,2.35,2.35,0,0,0-1.11.39,2.47,2.47,0,0,0-1,1.09Zm.81,1.39c.05,0,.05,0,.09-.09a2,2,0,0,0-.43-.08c-.21-.09-.21-.09-.34.13h0c0-.26-.05-.26-.26-.26s-.13,0-.09.08,0,.26.09.39.08.09.13.05a1.88,1.88,0,0,0,.85-.22Zm2.92,1.78A.91.91,0,0,1,24,18.66c0,.61-.34.87-1,1v.08a.51.51,0,0,1-.26.48,1.48,1.48,0,0,1-1.11.31c-.05,0-.09,0-.18,0a1.2,1.2,0,0,1-1.62.26s-.05,0-.09-.08a.9.9,0,0,1-.9.26c-.21,0-.39-.13-.6-.18a.14.14,0,0,0,0,.09c.17.35.39.74.6,1.13a.9.9,0,0,1,0,.61.75.75,0,0,1-.3.35.14.14,0,0,0-.08,0,.83.83,0,0,1-.69.66,1.24,1.24,0,0,0-.43,0c-.13,0-.21.17-.3.21a.83.83,0,0,1-.85,0c-.09,0-.13,0-.22,0a.64.64,0,0,1-.85-.3c-.13-.31-.22-.61-.35-.91,0,0,0-.09,0-.13a3,3,0,0,1-.21.3,1,1,0,0,1-1.42.17A4.57,4.57,0,0,1,12,21.79a7.2,7.2,0,0,1-1.33-3.95A5.5,5.5,0,0,1,11.91,14a5.05,5.05,0,0,1,3.38-2,3,3,0,0,1,1.84.26,2.87,2.87,0,0,1,1.5,1.79c.05.13.09.17.18.17l.47.13a3.08,3.08,0,0,1,3.25-1.74l-.13.13a2.64,2.64,0,0,0-.68,1.52,5.29,5.29,0,0,1-.17.79,1.9,1.9,0,0,1-1.63,1.35h-.47c-.09,0-.13,0-.17-.09l-.13-.26c-.35,0-.47.13-.56.52.17,0,.39,0,.6.09a25.22,25.22,0,0,1,3.6.65Z"/></svg>