<svg id="Layer_1" data-name="Layer 1" xmlns="http://www.w3.org/2000/svg" viewBox="0 0 24 24"><defs><style>.cls-1{fill:none;}.cls-2{fill:#80cbc4;}.cls-3{fill:#ffcb6b;}</style></defs><title>folder_vscode_open</title><polygon class="cls-1" points="3.2 7.5 3.2 18.75 11.95 18.75 13.66 17.18 10.36 14.15 11.74 13.35 15.09 15.87 20.8 10.62 20.8 7.5 3.2 7.5"/><polygon class="cls-1" points="20.8 14.19 16.83 17.18 18.92 18.75 20.8 18.75 20.8 14.19"/><polygon class="cls-1" points="15.09 18.5 14.76 18.75 15.37 18.75 15.09 18.5"/><path class="cls-2" d="M12,18.75H3.2V7.5H20.8v3.12l.28-.26,1.92.93V7.5a2.23,2.23,0,0,0-2.2-2.25H12L9.8,3H3.2A2.23,2.23,0,0,0,1,5.25v13.5A2.23,2.23,0,0,0,3.2,21h8.51l-1.35-.79Z"/><path class="cls-3" d="M23,11.29l-1.92-.93-.28.26-5.71,5.25-3.35-2.53-1.38.81,3.3,3L12,18.75l-1.59,1.46,1.35.79,0,0,0,0,3-2.25.34-.25.28.25L17.81,21l3.27,3L24,22.58V11.78Zm-6.17,5.89,4-3,.28-.21v6.4l-2.16-1.63Z"/></svg>