<?xml version="1.0" encoding="utf-8"?>
<!-- Generator: Adobe Illustrator 21.1.0, SVG Export Plug-In . SVG Version: 6.00 Build 0)  -->
<svg version="1.1" id="Layer_1" xmlns="http://www.w3.org/2000/svg" xmlns:xlink="http://www.w3.org/1999/xlink" x="0px" y="0px"
	 viewBox="0 0 24 24" style="enable-background:new 0 0 24 24;" xml:space="preserve">
<style type="text/css">
	.st0{fill:#80CBC4;}
	.st1{fill:#F78C6C;}
</style>
<g>
	<path class="st0" d="M11.5,18.8H3.2V7.5h17.6v3.9l2.2,1V7.5c0-1.2-1-2.2-2.2-2.2H12L9.8,3H3.2C2,3,1,4,1,5.2v13.5C1,20,2,21,3.2,21
		h8.3v-0.2V18.8z"/>
	<path class="st1" d="M23,12.4l-2.2-1l-3-1.4l-6.2,2.8v5.9v2V21v0.2l6.2,2.8l6.2-2.8v-8.3L23,12.4z M17.8,11.2l3,1.4l1.5,0.7
		l-1.5,0.7l-3,1.4l-4.5-2L17.8,11.2z M17.2,22.6L13.6,21l-0.4-0.2l-0.6-0.3v-1.8v-4.8l4.8,2.1v2.7v2V21V22.6z M23,18.6v0.2v1.8
		l-4.8,2.1V21v-0.2v-2v-2.7l2.5-1.1l2.2-1V18.6z"/>
</g>
</svg>
