<svg id="Layer_1" data-name="Layer 1" xmlns="http://www.w3.org/2000/svg" viewBox="0 0 24 24"><defs><style>.cls-1{fill:none;}.cls-2{fill:#80cbc4;}.cls-3{fill:#f4bf75;}</style></defs><title>folder_bower_open</title><path class="cls-1" d="M20,14.74a3.58,3.58,0,0,1,.83-1.06v-.4l-.14.07a2.47,2.47,0,0,0-1,1.09h0c-.05,0-.09.09,0,.13A.73.73,0,0,0,20,14.74Z"/><path class="cls-1" d="M17.83,15.53a1.11,1.11,0,0,0,.13.65,0,0,0,0,1,0,0c.3-.13.6-.27.94-.44,0,0,0,0,.09-.09l0,0-.56.13c-.22,0-.43,0-.6-.17a1.33,1.33,0,0,0,.9,0,1.53,1.53,0,0,1,1.07-.08l.51.13a2.39,2.39,0,0,0-.34-.31,3.39,3.39,0,0,0-1.67-.65c-.09,0-.17,0-.17,0a1.15,1.15,0,0,0-.3.92Z"/><path class="cls-1" d="M15.77,16.27a1.18,1.18,0,0,0,0-2.35,1.13,1.13,0,0,0-1.16,1.13A1.18,1.18,0,0,0,15.77,16.27Z"/><path class="cls-1" d="M20.23,14.83c-.05,0-.05.09,0,.09a2.83,2.83,0,0,0,.57.51V13.86A4.12,4.12,0,0,0,20.23,14.83Z"/><path class="cls-1" d="M19.84,16.45h-.48c-.08,0-.12,0-.17-.09l-.13-.26c-.34,0-.47.13-.55.52.17,0,.38,0,.6.09.56.08,1.13.15,1.69.24v-.89A2.35,2.35,0,0,1,19.84,16.45Z"/><path class="cls-1" d="M3.2,7.5V18.75h7.52a6.85,6.85,0,0,1-.1-.91A5.6,5.6,0,0,1,11.82,14a5.1,5.1,0,0,1,3.39-2,3,3,0,0,1,1.84.26,2.93,2.93,0,0,1,1.5,1.79c0,.13.09.17.17.17l.47.13a3.23,3.23,0,0,1,1.61-1.53V7.5Z"/><path class="cls-1" d="M13.28,21.57a4.48,4.48,0,0,0,2.66.74A2.18,2.18,0,0,0,17.73,21H12.61A4.11,4.11,0,0,0,13.28,21.57Z"/><path class="cls-1" d="M19.76,15.79h-.05c0-.26,0-.26-.25-.26s-.13,0-.09.08,0,.26.09.39.08.09.12.05a2,2,0,0,0,.86-.22h0s0,0,.09-.09a2,2,0,0,0-.43-.08C19.88,15.57,19.88,15.57,19.76,15.79Z"/><path class="cls-1" d="M19.84,17.4c-.52-.09-1.07-.13-1.59-.22a.28.28,0,0,0-.17,0,5,5,0,0,0-.38.48,6.32,6.32,0,0,0-.52.79l-.25.26H20.8v-.38c-.35-.07-.7-.11-1-.19s-.6-.13-.89-.17a9.57,9.57,0,0,0,1.93,0v-.42Q20.32,17.46,19.84,17.4Z"/><path class="cls-2" d="M10.72,18.75H3.2V7.5H20.8v5.37a2.44,2.44,0,0,1,1.65-.21l-.13.13a2.64,2.64,0,0,0-.68,1.52,6.93,6.93,0,0,1-.17.79,1.86,1.86,0,0,1-.67,1V17a16.28,16.28,0,0,1,1.91.41l.29.11V7.5a2.23,2.23,0,0,0-2.2-2.25H12L9.8,3H3.2A2.23,2.23,0,0,0,1,5.25v13.5A2.23,2.23,0,0,0,3.2,21h8.29l-.12-.2A7.42,7.42,0,0,1,10.72,18.75Z"/><path class="cls-3" d="M23.35,17.61,23,17.47l-.29-.11A16.28,16.28,0,0,0,20.8,17c-.56-.09-1.13-.16-1.69-.24-.22-.05-.43-.05-.6-.09.08-.39.21-.52.55-.52l.13.26c0,.09.09.09.17.09h.48a2.35,2.35,0,0,0,1-.39,1.86,1.86,0,0,0,.67-1,6.93,6.93,0,0,0,.17-.79,2.64,2.64,0,0,1,.68-1.52l.13-.13a2.44,2.44,0,0,0-1.65.21,3.23,3.23,0,0,0-1.61,1.53l-.47-.13c-.08,0-.13,0-.17-.17a2.93,2.93,0,0,0-1.5-1.79,3,3,0,0,0-1.84-.26,5.1,5.1,0,0,0-3.39,2,5.6,5.6,0,0,0-1.2,3.83,6.85,6.85,0,0,0,.1.91,7.42,7.42,0,0,0,.65,2.05l.12.2a7.75,7.75,0,0,0,.46.79,4.78,4.78,0,0,0,1.16,1.13,1,1,0,0,0,1.41-.17,2,2,0,0,0,.22-.3s0,.08,0,.13c.13.3.21.6.34.91a.65.65,0,0,0,.86.3c.08,0,.13,0,.21,0a.85.85,0,0,0,.86,0c.09,0,.17-.17.3-.21a1.24,1.24,0,0,1,.43,0,.84.84,0,0,0,.69-.66.14.14,0,0,1,.08,0,.75.75,0,0,0,.3-.35.9.9,0,0,0,0-.61c-.18-.31-.34-.63-.49-.92l-.11-.2h0a.14.14,0,0,1,0-.09l.33.1.27.08a1,1,0,0,0,.68-.08.87.87,0,0,0,.22-.18s.08,0,.08.08a1.39,1.39,0,0,0,.26.1,1.22,1.22,0,0,0,.92,0,1,1,0,0,0,.45-.35c.09,0,.13,0,.17,0a2,2,0,0,0,.35,0,1.24,1.24,0,0,0,.38-.09,1.54,1.54,0,0,0,.39-.22.51.51,0,0,0,.26-.48v-.08c.64-.09.94-.35,1-1A.93.93,0,0,0,23.35,17.61Zm-2.91-1.78h0a2,2,0,0,1-.86.22s-.08,0-.12-.05-.05-.26-.09-.39,0-.08.09-.08.25,0,.25.26h.05c.12-.22.12-.22.34-.13a2,2,0,0,1,.43.08C20.48,15.79,20.48,15.83,20.44,15.83Zm-.81-1.39h0a2.47,2.47,0,0,1,1-1.09l.14-.07a2.42,2.42,0,0,1,1-.32,1,1,0,0,0-.17.26,2.5,2.5,0,0,0-.3,1c-.09.3-.17.65-.3,1a.88.88,0,0,1-.13.3.18.18,0,0,1-.07-.05,2.83,2.83,0,0,1-.57-.51c-.05,0-.05-.05,0-.09a4.12,4.12,0,0,1,.57-1,2.63,2.63,0,0,1,.29-.37,1.45,1.45,0,0,0-.29.19A3.58,3.58,0,0,0,20,14.74a.73.73,0,0,1-.34-.17C19.54,14.53,19.58,14.48,19.63,14.44Zm-1.5.17s.08,0,.17,0a3.39,3.39,0,0,1,1.67.65,2.39,2.39,0,0,1,.34.31l-.51-.13a1.53,1.53,0,0,0-1.07.08,1.33,1.33,0,0,1-.9,0c.17.21.38.17.6.17l.56-.13,0,0c-.05.05-.05.09-.09.09-.34.17-.64.31-.94.44a0,0,0,0,0,0,0,1.11,1.11,0,0,1-.13-.65h0A1.15,1.15,0,0,1,18.13,14.61Zm-2.36-.69a1.18,1.18,0,0,1,0,2.35,1.18,1.18,0,0,1-1.16-1.22A1.13,1.13,0,0,1,15.77,13.92Zm5,4a9.57,9.57,0,0,1-1.93,0c.29,0,.59.13.89.17s.69.12,1,.19l.11,0c.18.05.22.09.09.22a.66.66,0,0,1-.73.26h-.13a.43.43,0,0,1-.13.44.87.87,0,0,1-.64.26,1.56,1.56,0,0,1-.47-.09c-.09.39-.86.52-1.24.18a6.17,6.17,0,0,0,.21.61c0,.08,0,.13,0,.21a3,3,0,0,1-.08.32,1.86,1.86,0,0,1-.1.2,2.18,2.18,0,0,1-1.79,1.31,4.48,4.48,0,0,1-2.66-.74,4.11,4.11,0,0,1-.67-.57c-.07-.07-.14-.13-.2-.2a4.89,4.89,0,0,1-.75-1.14.15.15,0,0,1-.05-.13,2.73,2.73,0,0,0,.78.17,2.13,2.13,0,0,0,1.41-.22.14.14,0,0,1,.17,0,3.11,3.11,0,0,0,1.46.09,2.79,2.79,0,0,0,1.5-.82l.25-.26a6.32,6.32,0,0,1,.52-.79,5,5,0,0,1,.38-.48.28.28,0,0,1,.17,0c.52.09,1.07.13,1.59.22q.48.06,1,.15l1.22.24c.05,0,.09,0,.13,0Z"/><path class="cls-3" d="M15.77,15.79a.69.69,0,0,0,.69-.7.7.7,0,0,0-.69-.74.76.76,0,0,0-.73.74A.72.72,0,0,0,15.77,15.79Zm-.34-1.18a1.58,1.58,0,0,1,.34-.13c.09,0,.21,0,.3.13s.13.22,0,.31a.57.57,0,0,1-.64,0C15.3,14.83,15.3,14.66,15.43,14.61Z"/></svg>