<svg id="Layer_1" data-name="Layer 1" xmlns="http://www.w3.org/2000/svg" viewBox="0 0 24 24"><defs><style>.cls-1{fill:#80cbc4;}.cls-2{fill:#aa759f;}</style></defs><title>folder_src_open</title><path class="cls-1" d="M20.8,5.25H12L9.8,3H3.2A2.23,2.23,0,0,0,1,5.25v13.5A2.23,2.23,0,0,0,3.2,21H20.8A2.23,2.23,0,0,0,23,18.75V7.5A2.23,2.23,0,0,0,20.8,5.25Zm0,13.5H3.2V7.5H20.8Z"/><polygon class="cls-2" points="18.64 19.51 17.27 20.88 13 16.6 17.27 12.33 18.64 13.7 15.74 16.6 18.64 19.51"/><polygon class="cls-2" points="19.73 24 18.36 22.63 21.26 19.72 18.36 16.82 19.73 15.45 24 19.72 19.73 24"/></svg>