<svg id="Layer_1" data-name="Layer 1" xmlns="http://www.w3.org/2000/svg" viewBox="0 0 24 24"><defs><style>.cls-1{fill:#4a616c;}.cls-2{fill:#aa759f;}</style></defs><title>folder_src</title><path class="cls-1" d="M9.8,3,12,5.2h8.8A2.22,2.22,0,0,1,23,7.4V18.6a2.22,2.22,0,0,1-2.2,2.2H3.2a2,2,0,0,1-2.2-2V5.2A2.22,2.22,0,0,1,3.2,3Z"/><polygon class="cls-2" points="18.64 19.51 17.27 20.88 13 16.6 17.27 12.33 18.64 13.7 15.74 16.6 18.64 19.51"/><polygon class="cls-2" points="19.72 24 18.35 22.63 21.26 19.72 18.35 16.82 19.72 15.45 24 19.72 19.72 24"/></svg>