<svg id="Layer_1" data-name="Layer 1" xmlns="http://www.w3.org/2000/svg" viewBox="0 0 24 24"><defs><style>.cls-1{fill:none;}.cls-2{fill:#80cbc4;}.cls-3{fill:#2ecc71;}</style></defs><title>folder_assets_open</title><polygon class="cls-1" points="14 20.8 14 22.91 19 22.91 19 20.8 19 16.91 14 16.91 14 20.8"/><polygon class="cls-1" points="3.2 7.5 3.2 18.75 13 18.75 13 15.91 20 15.91 20 18.75 20.8 18.75 20.8 14.91 15 14.91 15 13.91 20.8 13.91 20.8 12.91 17 12.91 17 11.91 20.8 11.91 20.8 7.5 3.2 7.5"/><rect class="cls-1" x="14" y="16.91" width="5" height="1.84"/><rect class="cls-1" x="14" y="21" width="5" height="1.91"/><path class="cls-2" d="M13,18.75H3.2V7.5H20.8v4.41H23V7.5a2.23,2.23,0,0,0-2.2-2.25H12L9.8,3H3.2A2.23,2.23,0,0,0,1,5.25v13.5A2.23,2.23,0,0,0,3.2,21H13V18.75Z"/><path class="cls-3" d="M20,18.75V15.91H13v8h7V18.75Zm-1,4.16H14v-6h5v6Z"/><polygon class="cls-3" points="22 13.91 20.8 13.91 15 13.91 15 14.91 20.8 14.91 21 14.91 21 20.78 21 20.98 21 21.91 22 21.91 22 20.63 22 20.43 22 13.91"/><polygon class="cls-3" points="23 11.91 20.8 11.91 17 11.91 17 12.91 20.8 12.91 23 12.91 23 18.75 23 19.91 24 19.91 24 11.91 23 11.91"/></svg>