<svg id="Layer_1" data-name="Layer 1" xmlns="http://www.w3.org/2000/svg" viewBox="0 0 24 24"><defs><style>.st0{fill:#4a616c;enable-background:new;}.st1{fill:#B8E15E;}</style></defs><path class="st0" d="M9.8,3,12,5.2h8.8A2.22,2.22,0,0,1,23,7.4V18.6a2.22,2.22,0,0,1-2.2,2.2H3.2a2,2,0,0,1-2.2-2V5.2A2.22,2.22,0,0,1,3.2,3Z"/><path class="st1" d="M15.32,18.79l1.74,2.09,2.43-3.13,3.12,4.17H12.89ZM24,22.61V12.89a1.39,1.39,0,0,0-1.39-1.39H12.89a1.4,1.4,0,0,0-1.39,1.39v9.72A1.39,1.39,0,0,0,12.89,24h9.72A1.39,1.39,0,0,0,24,22.61Z"/></svg>