<svg id="Layer_1" data-name="Layer 1" xmlns="http://www.w3.org/2000/svg" viewBox="0 0 24 24"><defs><style>.cls-1{fill:none;}.cls-2{fill:#4a616c;}.cls-3{fill:#f4bf75;}</style></defs><title>folder_bower</title><path class="cls-1" d="M13.28,21.57a4.48,4.48,0,0,0,2.66.74,2.18,2.18,0,0,0,1.89-1.51H12.41A4.29,4.29,0,0,0,13.28,21.57Z"/><path class="cls-1" d="M21.13,13.44a.1.1,0,0,0,0,.05l.08-.05Z"/><path class="cls-1" d="M15.77,14.35a.76.76,0,0,0-.73.74.72.72,0,0,0,.73.7.69.69,0,0,0,.69-.7A.7.7,0,0,0,15.77,14.35Zm.3.57a.57.57,0,0,1-.64,0c-.13-.09-.13-.26,0-.31a1.58,1.58,0,0,1,.34-.13c.09,0,.21,0,.3.13S16.2,14.83,16.07,14.92Z"/><path class="cls-2" d="M20.8,5.2H12L9.8,3H3.2A2.22,2.22,0,0,0,1,5.2V18.8a2,2,0,0,0,2.2,2h8.17a7.36,7.36,0,0,1-.75-3A5.6,5.6,0,0,1,11.82,14a5.1,5.1,0,0,1,3.39-2,3,3,0,0,1,1.84.26,2.93,2.93,0,0,1,1.5,1.79c0,.13.09.17.17.17l.47.13a3.1,3.1,0,0,1,3.26-1.74l-.13.13a2.64,2.64,0,0,0-.68,1.52,6.93,6.93,0,0,1-.17.79,1.9,1.9,0,0,1-1.63,1.35h-.48c-.08,0-.12,0-.17-.09l-.13-.26c-.34,0-.47.13-.55.52.17,0,.38,0,.6.09a25.22,25.22,0,0,1,3.6.65l.29.11V7.4A2.22,2.22,0,0,0,20.8,5.2Z"/><path class="cls-3" d="M23.35,17.61,23,17.47l-.29-.11a25.22,25.22,0,0,0-3.6-.65c-.22-.05-.43-.05-.6-.09.08-.39.21-.52.55-.52l.13.26c0,.09.09.09.17.09h.48a1.9,1.9,0,0,0,1.63-1.35,6.93,6.93,0,0,0,.17-.79,2.64,2.64,0,0,1,.68-1.52l.13-.13a3.1,3.1,0,0,0-3.26,1.74l-.47-.13c-.08,0-.13,0-.17-.17a2.93,2.93,0,0,0-1.5-1.79,3,3,0,0,0-1.84-.26,5.1,5.1,0,0,0-3.39,2,5.6,5.6,0,0,0-1.2,3.83,7.36,7.36,0,0,0,.75,3,8.25,8.25,0,0,0,.58,1,4.78,4.78,0,0,0,1.16,1.13,1,1,0,0,0,1.41-.17,2,2,0,0,0,.22-.3s0,.08,0,.13c.13.3.21.6.34.91a.65.65,0,0,0,.86.3c.08,0,.13,0,.21,0a.85.85,0,0,0,.86,0c.09,0,.17-.17.3-.21a1.24,1.24,0,0,1,.43,0,.84.84,0,0,0,.69-.66.14.14,0,0,1,.08,0,.75.75,0,0,0,.3-.35.9.9,0,0,0,0-.61c-.21-.39-.43-.77-.6-1.12h0a.14.14,0,0,1,0-.09l.33.1.27.08a1,1,0,0,0,.68-.08.87.87,0,0,0,.22-.18s.08,0,.08.08a1.39,1.39,0,0,0,.26.1,1.22,1.22,0,0,0,.92,0,1.1,1.1,0,0,0,.45-.35c.09,0,.13,0,.17,0a2,2,0,0,0,.35,0,1.47,1.47,0,0,0,.77-.31.51.51,0,0,0,.26-.48v-.08c.64-.09.94-.35,1-1A.93.93,0,0,0,23.35,17.61Zm-2.91-1.78h0a2,2,0,0,1-.86.22s-.08,0-.12-.05-.05-.26-.09-.39,0-.08.09-.08.25,0,.25.26h.05c.12-.22.12-.22.34-.13a2,2,0,0,1,.43.08C20.48,15.79,20.48,15.83,20.44,15.83Zm-.81-1.39h0a2.47,2.47,0,0,1,1-1.09A2.35,2.35,0,0,1,21.77,13a1,1,0,0,0-.17.26,2.5,2.5,0,0,0-.3,1c-.09.3-.17.65-.3,1a.88.88,0,0,1-.13.3,2.5,2.5,0,0,1-.64-.56c-.05,0-.05-.05,0-.09a4.1,4.1,0,0,1,.86-1.34A2.82,2.82,0,0,0,20,14.74a.73.73,0,0,1-.34-.17C19.54,14.53,19.58,14.48,19.63,14.44Zm-1.5.17s.08,0,.17,0a3.39,3.39,0,0,1,1.67.65,2.39,2.39,0,0,1,.34.31l-.51-.13a1.53,1.53,0,0,0-1.07.08,1.33,1.33,0,0,1-.9,0c.17.21.38.17.6.17l.56-.13,0,0c-.05.05-.05.09-.09.09-.34.17-.64.31-.94.44a0,0,0,0,0,0,0,1.11,1.11,0,0,1-.13-.65h0A1.15,1.15,0,0,1,18.13,14.61Zm-2.36-.69a1.18,1.18,0,0,1,0,2.35,1.18,1.18,0,0,1-1.16-1.22A1.13,1.13,0,0,1,15.77,13.92ZM18.87,18c.29,0,.59.13.89.17s.77.13,1.15.21c.18.05.22.09.09.22a.66.66,0,0,1-.73.26h-.13a.43.43,0,0,1-.13.44.87.87,0,0,1-.64.26,1.56,1.56,0,0,1-.47-.09c-.09.39-.86.52-1.24.18a6.17,6.17,0,0,0,.21.61c0,.08,0,.13,0,.21a3,3,0,0,1-.08.32,2.18,2.18,0,0,1-1.89,1.51,4.48,4.48,0,0,1-2.66-.74,4.29,4.29,0,0,1-.87-.77,4.89,4.89,0,0,1-.75-1.14.15.15,0,0,1-.05-.13,2.73,2.73,0,0,0,.78.17,2.13,2.13,0,0,0,1.41-.22.14.14,0,0,1,.17,0,3.11,3.11,0,0,0,1.46.09,2.9,2.9,0,0,0,1.75-1.08,6.32,6.32,0,0,1,.52-.79,5,5,0,0,1,.38-.48.28.28,0,0,1,.17,0c.52.09,1.07.13,1.59.22.73.08,1.46.26,2.18.39.05,0,.09,0,.13,0A17.19,17.19,0,0,1,18.87,18Z"/><path class="cls-3" d="M21.13,13.44a.1.1,0,0,0,0,.05l.08-.05Z"/><polygon class="cls-3" points="18.86 18 18.87 18.01 18.86 18 18.86 18"/><path class="cls-3" d="M15.77,15.79a.69.69,0,0,0,.69-.7.7.7,0,0,0-.69-.74.76.76,0,0,0-.73.74A.72.72,0,0,0,15.77,15.79Zm-.34-1.18a1.58,1.58,0,0,1,.34-.13c.09,0,.21,0,.3.13s.13.22,0,.31a.57.57,0,0,1-.64,0C15.3,14.83,15.3,14.66,15.43,14.61Z"/></svg>