<svg id="Layer_1" data-name="Layer 1" xmlns="http://www.w3.org/2000/svg" viewBox="0 0 24 24"><defs><style>.cls-1{fill:#4a616c;}.cls-2{fill:none;}.cls-3{fill:#2ecc71;}</style></defs><title>folder_assets</title><rect class="cls-1" x="15.31" y="14.91" width="5.69"/><path class="cls-1" d="M20.8,5.2H12L9.8,3H3.2A2.22,2.22,0,0,0,1,5.2V18.8a2,2,0,0,0,2.2,2H13V15.91h1v-1h1v-1h1v-1h7V7.4A2.22,2.22,0,0,0,20.8,5.2Z"/><polygon class="cls-2" points="14 20.8 14 22.91 19 22.91 19 20.8 19 16.91 14 16.91 14 20.8"/><path class="cls-3" d="M13,15.91v8h7v-8Zm6,4.89v2.11H14v-6h5Z"/><polygon class="cls-3" points="15 13.91 15 14.91 21 14.91 21 20.78 21 21.91 22 21.91 22 20.43 22 13.91 15 13.91"/><polygon class="cls-3" points="17 11.91 17 12.91 23 12.91 23 19.91 24 19.91 24 11.91 17 11.91"/></svg>