<svg id="Layer_1" data-name="Layer 1" xmlns="http://www.w3.org/2000/svg" viewBox="0 0 24 24"><defs><style>.st0{fill:#4a616c;enable-background:new;}.st1{fill:#B8E15E;}</style></defs><path class="st0" d="M9.8,3,12,5.2h8.8A2.22,2.22,0,0,1,23,7.4V18.6a2.22,2.22,0,0,1-2.2,2.2H3.2a2,2,0,0,1-2.2-2V5.2A2.22,2.22,0,0,1,3.2,3Z"/><path class="st1" d="M17.75 9.9a1.11 1.11 0 0 0-.54.14L12 13a1.09 1.09 0 0 0-.54.94v6a1.12 1.12 0 0 0 .54.95l1.36.77a2.25 2.25 0 0 0 1.18.33 1.44 1.44 0 0 0 1.54-1.62v-5.89a.15.15 0 0 0-.15-.15h-.65a.16.16 0 0 0-.16.15v5.88c0 .46-.47.91-1.23.53l-1.42-.81a.19.19 0 0 1-.08-.15V14a.15.15 0 0 1 .08-.14l5.16-3a.15.15 0 0 1 .16 0l5.16 3a.15.15 0 0 1 .08.14v6a.19.19 0 0 1-.08.15l-5.16 3a.22.22 0 0 1-.16 0l-1.31-.8a.17.17 0 0 0-.14 0 2.77 2.77 0 0 1-.78.35c-.09 0-.22.08.05.22l1.72 1a1 1 0 0 0 .54.15 1 1 0 0 0 .54-.15l5.17-3a1.12 1.12 0 0 0 .54-.95V14a1.09 1.09 0 0 0-.54-.94l-5.17-3a1.11 1.11 0 0 0-.54-.14m1.39 4.27c-1.47 0-2.36.62-2.36 1.66s.88 1.45 2.3 1.59c1.68.16 1.82.41 1.82.75 0 .57-.47.82-1.55.82-1.38 0-1.67-.34-1.77-1a.17.17 0 0 0-.16-.13h-.66a.14.14 0 0 0-.15.15c0 .86.47 1.91 2.74 1.91 1.63 0 2.57-.65 2.57-1.77s-.75-1.41-2.34-1.63-1.77-.32-1.77-.69.14-.73 1.33-.73c1 0 1.45.23 1.61.94a.15.15 0 0 0 .15.12h.67a.11.11 0 0 0 .1-.05.12.12 0 0 0 0-.11c-.02-1.28-.84-1.85-2.49-1.85z"/></svg>
