<svg id="Layer_1" data-name="Layer 1" xmlns="http://www.w3.org/2000/svg" viewBox="0 0 24 24"><defs><style>.st0{fill:#80cbc4;enable-background:new;}.st1{fill:#ffcb6b;}</style></defs><path class="st0" d="M20.8,5.25H12L9.8,3H3.2A2.23,2.23,0,0,0,1,5.25v13.5A2.23,2.23,0,0,0,3.2,21H20.8A2.23,2.23,0,0,0,23,18.75V7.5A2.23,2.23,0,0,0,20.8,5.25Zm0,13.5H3.2V7.5H20.8Z"/><path class="st1" d="M21.08,10.36l-6,5.51-3.35-2.53-1.38.81,3.3,3-3.3,3,1.38.81,3.35-2.52,6,5.5L24,22.58V11.78Zm0,3.62v6.4l-4.25-3.2Z"/></svg>