<svg id="Layer_1" data-name="Layer 1" xmlns="http://www.w3.org/2000/svg" viewBox="0 0 24 24"><defs><style>.cls-1{fill:#4a616c;}.cls-2{fill:#d28445;}</style></defs><title>folder_dist</title><path class="cls-1" d="M14.52,20.81a3.47,3.47,0,0,1-.06-.64v-.64H13.18V18.25h1.28v-.64a3.39,3.39,0,0,1,.06-.64H13.18V15.7H15a4,4,0,0,1,1.16-1.26l-1-1,.9-.9,1.39,1.39a3.82,3.82,0,0,1,.9-.11,4,4,0,0,1,.91.11l1.38-1.39.9.9-1,1a3.91,3.91,0,0,1,1.17,1.26H23V7.4a2.22,2.22,0,0,0-2.2-2.2H12L9.8,3H3.2A2.22,2.22,0,0,0,1,5.2V18.8a2,2,0,0,0,2.2,2H9.85v0h4.67Z"/><path class="cls-1" d="M20.8,5.2H12L9.8,3H3.2A2.22,2.22,0,0,0,1,5.2V18.8a2,2,0,0,0,2.2,2H23V7.4A2.22,2.22,0,0,0,20.8,5.2Z"/><path class="cls-2" d="M22.74,13.51H20.22V12.25A1.25,1.25,0,0,0,19,11H16.44a1.25,1.25,0,0,0-1.26,1.26v1.26H12.67a1.25,1.25,0,0,0-1.26,1.26V21.7A1.26,1.26,0,0,0,12.67,23H22.74A1.26,1.26,0,0,0,24,21.7V14.77A1.25,1.25,0,0,0,22.74,13.51Zm-3.78,0H16.44V12.25H19Z"/></svg>