<svg id="Layer_1" data-name="Layer 1" xmlns="http://www.w3.org/2000/svg" viewBox="0 0 24 24"><defs><style>.cls-1{fill:none;}.cls-2{fill:#80cbc4;}.cls-3{fill:#ff5370;}</style></defs><title>folder_gulp_open</title><path class="cls-1" d="M20.71,15.42a.38.38,0,0,1-.13,0s-.07,0-.07-.08a.65.65,0,0,1,0-.19.83.83,0,0,1,.06-.21,1.72,1.72,0,0,1,.07-.21c0-.07.05-.13.08-.19a1.54,1.54,0,0,0,.05-.17v-.17s0,0,0-.06a.11.11,0,0,0-.09,0,.14.14,0,0,0-.1,0l-.06.12-.06.16a.84.84,0,0,1,0,.17,2.72,2.72,0,0,1-.12.25,1.35,1.35,0,0,1-.15.26,1.21,1.21,0,0,1-.19.2.32.32,0,0,1-.21.08.05.05,0,0,1-.05,0,.14.14,0,0,1,0-.07.69.69,0,0,1,0-.2l.06-.2a1.08,1.08,0,0,1,.08-.19c0-.06,0-.12.08-.17l.06-.14s0-.08,0-.1v0s0,0,0-.06a.1.1,0,0,0,0-.05l0,0h-.05a.13.13,0,0,0-.1,0,.23.23,0,0,0-.08.12,5.67,5.67,0,0,0-.22.55,3.39,3.39,0,0,0-.11.37,1.49,1.49,0,0,0-.05.21v.06a.63.63,0,0,0,0,.16.54.54,0,0,0,.06.11l.09.05.11,0a.59.59,0,0,0,.23-.05.76.76,0,0,0,.19-.12.75.75,0,0,0,.15-.16.87.87,0,0,0,.11-.18,1.12,1.12,0,0,0,0,.24.32.32,0,0,0,0,.2.16.16,0,0,0,.14.07.49.49,0,0,0,.18-.05l.17-.11v-.3Z"/><path class="cls-1" d="M17,9.91c0-.3,1.56-.54,3.5-.54h.28V7.5H3.2V18.75H18.39c-.34-.11-.56-.22-.58-.29l-.23-2.69,0,0a.32.32,0,0,0,.2.06.49.49,0,0,0,.22-.06,1.13,1.13,0,0,0,.22-.14l.21-.2.2-.22c0,.07-.05.15-.07.23s-.05.18-.07.26,0,.16-.06.23,0,.11,0,.13v.06a.24.24,0,0,0,0,.15s0,0,.08,0l.06,0,.06-.07a.59.59,0,0,0,0-.08l0-.08a.26.26,0,0,1,0-.07l0-.15a1.17,1.17,0,0,0,0-.2l.06-.23c0-.08.05-.15.07-.22s0-.15.05-.21l0-.14s0-.07,0-.07l.06-.19.06-.18a1.29,1.29,0,0,0,0-.19,1.23,1.23,0,0,0,0-.2.15.15,0,0,0,0-.07l0-.05,0,0h-.05a.21.21,0,0,0-.1,0A.22.22,0,0,0,19,14l-.16.53-.09.15a1.07,1.07,0,0,1-.13.19l-.16.2-.17.17a.88.88,0,0,1-.17.12.22.22,0,0,1-.14,0,.12.12,0,0,1-.09,0l-.06-.09,0-.12v-.13a1.6,1.6,0,0,1,0-.42,4.42,4.42,0,0,1,.15-.48,4.1,4.1,0,0,1,.21-.48,3.21,3.21,0,0,1,.26-.41,1.24,1.24,0,0,1,.26-.29.45.45,0,0,1,.26-.11.2.2,0,0,1,.14,0,.49.49,0,0,1,.12.15l.1.19a.14.14,0,0,0,.1.06.11.11,0,0,0,.1-.06.25.25,0,0,0,0-.16.28.28,0,0,0,0-.09.18.18,0,0,0,0-.09.84.84,0,0,0-.27-.31.52.52,0,0,0-.29-.09.66.66,0,0,0-.27.06l-.27.18a1.76,1.76,0,0,0-.26.28,1.8,1.8,0,0,0-.24.35,3,3,0,0,0-.21.4,4,4,0,0,0-.17.44l-.07.22-.41-4.25.19.09a4.14,4.14,0,0,0,.78.18,17.68,17.68,0,0,0,2.5.16h.28v-.18h-.28C18.58,10.46,17,10.21,17,9.91Z"/><path class="cls-2" d="M22,9.42a9.05,9.05,0,0,1,1,.11v-2a1.27,1.27,0,0,0,0-.28l-.7.83Z"/><path class="cls-2" d="M20.82,14.3a.14.14,0,0,0,0-.06v.15A.37.37,0,0,0,20.82,14.3Z"/><path class="cls-2" d="M16.59,18.75H3.2V7.5H20.8V9.37h0v.79H23V7.22h-.86l.62-.73a2.23,2.23,0,0,0-2-1.24H12L9.8,3H3.2A2.23,2.23,0,0,0,1,5.25v13.5A2.23,2.23,0,0,0,3.2,21H17.63l-1-1.67Z"/><g id="Page-1"><g id="gulp"><g id="Gulp-Logo"><path id="Cup" class="cls-3" d="M19.8,20.13a10.56,10.56,0,0,1-2.3-.25,4.74,4.74,0,0,1-.66-.21l.53.91.21,2.84c0,.32,1,.58,2.26.58s2.26-.26,2.26-.58l.16-2.87.51-.88a4.94,4.94,0,0,1-.67.21A10.56,10.56,0,0,1,19.8,20.13Zm3-9.24a22.31,22.31,0,0,1-2.94.17,22.58,22.58,0,0,1-2.95-.17A6.07,6.07,0,0,1,16,10.7a1.07,1.07,0,0,1-.23-.1l.49,4.5c0-.08.05-.16.07-.23s.13-.32.2-.47a4.23,4.23,0,0,1,.25-.42,2.75,2.75,0,0,1,.28-.37,2.18,2.18,0,0,1,.31-.3,1.5,1.5,0,0,1,.32-.19.91.91,0,0,1,.32-.06.73.73,0,0,1,.35.09,1.12,1.12,0,0,1,.32.33.3.3,0,0,1,0,.1.28.28,0,0,1,0,.09.29.29,0,0,1-.05.17.17.17,0,0,1-.12.06.14.14,0,0,1-.12-.06,1.4,1.4,0,0,1-.13-.2.37.37,0,0,0-.14-.16.24.24,0,0,0-.16-.05.53.53,0,0,0-.3.11,1.84,1.84,0,0,0-.32.31,4.19,4.19,0,0,0-.3.44,4.66,4.66,0,0,0-.25.5,3.69,3.69,0,0,0-.17.5,1.6,1.6,0,0,0-.07.45.66.66,0,0,0,0,.14l0,.13a.31.31,0,0,0,.07.09.21.21,0,0,0,.11,0,.41.41,0,0,0,.17-.05l.19-.13.21-.19a1.8,1.8,0,0,0,.19-.2,2.08,2.08,0,0,0,.15-.2l.11-.17.18-.56a.19.19,0,0,1,.09-.12.17.17,0,0,1,.11,0h.06s0,0,0,0a.09.09,0,0,1,0,.05.19.19,0,0,1,0,.07,1.5,1.5,0,0,1,0,.22c0,.06,0,.13-.05.19l-.07.19-.08.2a.27.27,0,0,1,0,.08s0,.09-.05.15l-.06.22a1.37,1.37,0,0,0-.07.24c0,.08-.05.16-.07.23s-.05.15-.07.22l0,.16,0,.07,0,.09-.06.08-.06.07a.13.13,0,0,1-.08,0,.13.13,0,0,1-.09,0,.3.3,0,0,1,0-.16v-.07a.7.7,0,0,1,0-.14c0-.07,0-.15.07-.24s.05-.17.08-.27.06-.18.09-.25l-.23.23-.26.22a1.74,1.74,0,0,1-.26.15.61.61,0,0,1-.25.06.49.49,0,0,1-.25-.06l0,0,.27,2.85a6.07,6.07,0,0,0,3.16.61A6.07,6.07,0,0,0,23,19.33l.39-3.39-.09.09-.32.27a1.81,1.81,0,0,1-.29.17.81.81,0,0,1-.31.06.37.37,0,0,1-.23-.06.22.22,0,0,1-.08-.18v0a.35.35,0,0,1,.06-.17l.13-.19.16-.2.16-.19a1.36,1.36,0,0,0,.12-.17.28.28,0,0,0,.05-.12.08.08,0,0,0,0-.05h-.07a.32.32,0,0,0-.16,0,.82.82,0,0,0-.17.11l-.16.16-.15.19a2.14,2.14,0,0,0-.13.19l-.09.18,0,.08a1,1,0,0,0,0,.1l-.06.12-.05.12-.05.1a.39.39,0,0,0,0,.06l0,.08a1.21,1.21,0,0,1-.05.14l-.06.17-.06.16-.05.14a.27.27,0,0,0,0,.08l-.05.12a.7.7,0,0,1-.06.09.27.27,0,0,1-.08.07.17.17,0,0,1-.1,0,.21.21,0,0,1-.12,0,.16.16,0,0,1-.05-.13s0-.06,0-.1l0-.1a.36.36,0,0,0,0-.09l0-.09c.07-.16.14-.32.22-.47l.21-.48a.36.36,0,0,0,0-.09h0a2.53,2.53,0,0,1-.26.22,1,1,0,0,1-.25.15.61.61,0,0,1-.25.06l-.14,0a.34.34,0,0,1-.09-.08.3.3,0,0,1,0-.1.09.09,0,0,1,0,0l-.07.06a1.57,1.57,0,0,1-.25.14.63.63,0,0,1-.21.05.21.21,0,0,1-.16-.06.32.32,0,0,1-.06-.22,1.21,1.21,0,0,1,0-.25.68.68,0,0,1-.13.18,1.45,1.45,0,0,1-.17.18.84.84,0,0,1-.23.12.59.59,0,0,1-.27.05h-.12a.39.39,0,0,1-.11-.06.31.31,0,0,1-.08-.11.72.72,0,0,1,0-.17v-.07c0-.05,0-.12.06-.22a2.92,2.92,0,0,1,.13-.39c.06-.16.14-.35.25-.58a.34.34,0,0,1,.1-.13.19.19,0,0,1,.12,0h.06a.05.05,0,0,1,.05,0l0,0a.07.07,0,0,1,0,.06.09.09,0,0,1,0,0,.34.34,0,0,1,0,.1,1.09,1.09,0,0,1-.08.15,1.51,1.51,0,0,1-.09.18l-.09.21a1.29,1.29,0,0,0-.07.21,1.55,1.55,0,0,0,0,.21.19.19,0,0,0,0,.07.08.08,0,0,0,.07,0,.4.4,0,0,0,.25-.09.86.86,0,0,0,.22-.21,3.16,3.16,0,0,0,.18-.27c.05-.1.1-.19.13-.27a.87.87,0,0,0,.07-.17l.06-.17.08-.13a.16.16,0,0,1,.11-.05.13.13,0,0,1,.11.05.21.21,0,0,1,.05.13.35.35,0,0,1,0,.12s0,.11-.07.17a2.2,2.2,0,0,0-.09.21l-.09.22a1.8,1.8,0,0,0-.06.22.75.75,0,0,0,0,.2c0,.05,0,.08.09.08a.34.34,0,0,0,.15,0,1,1,0,0,0,.19-.12l0,0a1,1,0,0,1,.07-.21c.05-.13.09-.25.14-.37l.13-.33.61-1.53a.23.23,0,0,1,.1-.13.19.19,0,0,1,.12,0,.15.15,0,0,1,.11,0,.14.14,0,0,1,.05.13.28.28,0,0,1,0,.09.47.47,0,0,1-.05.1,2.86,2.86,0,0,1-.12.27c0,.11-.09.23-.14.35s-.11.26-.17.4-.1.27-.16.4l-.15.37-.11.3s0,.08-.05.12a.83.83,0,0,0,0,.13.35.35,0,0,0,0,.06l0,0,.1,0A.5.5,0,0,0,21,16l.15-.11.16-.13.15-.13.13-.13,0,0,.06-.19,0-.13a1,1,0,0,1,.07-.15.57.57,0,0,1,.08-.13.12.12,0,0,1,.09-.06.17.17,0,0,1,.12,0,.18.18,0,0,1,0,.11s0,0,0,0a.17.17,0,0,1,0,.07s0,0,0,.06a.11.11,0,0,0,0,0A.81.81,0,0,1,22.2,15l.17-.14a.93.93,0,0,1,.19-.11.46.46,0,0,1,.19,0l.13,0a.23.23,0,0,1,.12.06.24.24,0,0,1,.08.09.28.28,0,0,1,0,.13.53.53,0,0,1-.05.2l-.13.23-.16.21a1.6,1.6,0,0,1-.16.19L22.5,16a.21.21,0,0,0-.06.08.08.08,0,0,0,0,.05.08.08,0,0,0,.06,0l.1,0,.19-.13.3-.25.29-.26.53-4.9a1.78,1.78,0,0,1-.23.1A6.25,6.25,0,0,1,22.78,10.89ZM19.84,9.73c-2.29,0-4.14.25-4.14.57s1.85.57,4.14.57S24,10.61,24,10.3,22.12,9.73,19.84,9.73Zm1.65.73c0,.08-.22.14-.49.14s-.5-.06-.5-.14.22-.13.5-.13S21.49,10.39,21.49,10.46Z"/><path id="Straw" class="cls-3" d="M20.6,10.41h0c0,.05.18.08.4.08s.39,0,.39-.08l.52-2.1L24,6.15h0c0-.05,0-.2-.19-.34s-.31-.17-.36-.12h0L21.23,8Z"/></g></g></g></svg>