<svg id="Layer_1" data-name="Layer 1" xmlns="http://www.w3.org/2000/svg" viewBox="0 0 24 24"><defs><style>.cls-1{fill:#80cbc4;}.cls-2{fill:#ffe0b2;}</style></defs><title>folder_vscode_open</title><path class="cls-1" d="M20.8,5.25H12L9.8,3H3.2A2.23,2.23,0,0,0,1,5.25v13.5A2.23,2.23,0,0,0,3.2,21H20.8A2.23,2.23,0,0,0,23,18.75V7.5A2.23,2.23,0,0,0,20.8,5.25Zm0,13.5H3.2V7.5H20.8Z"/><path class="cls-2" d="M20.87,9.38l-6.42,5.9-3.59-2.7-1.48.86,3.54,3.25L9.37,19.94l1.48.87,3.59-2.7L20.87,24,24,22.48V10.9Zm0,3.88v6.86l-4.55-3.43Z"/></svg>