<svg id="Layer_1" data-name="Layer 1" xmlns="http://www.w3.org/2000/svg" viewBox="0 0 24 24"><defs><style>.cls-1{fill:#80cbc4;}.cls-2{fill:#f4bf75;}</style></defs><title>folder_ci_open</title><path class="cls-1" d="M14.27,18.75H3.2V7.5H20.8v4.82a5,5,0,0,1,2.2,1.9V7.5a2.23,2.23,0,0,0-2.2-2.25H12L9.8,3H3.2A2.23,2.23,0,0,0,1,5.25v13.5A2.23,2.23,0,0,0,3.2,21h13A5,5,0,0,1,14.27,18.75Z"/><path class="cls-2" d="M18.77,12.93V14.8l2.5-2.5-2.5-2.5v1.88a5,5,0,0,0-5,5,4.94,4.94,0,0,0,.78,2.66l.91-.91A3.69,3.69,0,0,1,15,16.68,3.75,3.75,0,0,1,18.77,12.93ZM23,14l-.92.92a3.66,3.66,0,0,1,.44,1.75,3.76,3.76,0,0,1-3.75,3.75V18.55l-2.5,2.5,2.5,2.5V21.68A5,5,0,0,0,23,14Z"/></svg>