<svg id="Layer_1" data-name="Layer 1" xmlns="http://www.w3.org/2000/svg" viewBox="0 0 24 24"><defs><style>.cls-1{fill:#4a616c;}.cls-2{fill:#ac4142;}</style></defs><title>folder_git</title><path class="cls-1" d="M20.8,5.2H12L9.8,3H3.2A2.22,2.22,0,0,0,1,5.2V18.8a2,2,0,0,0,2.2,2H14.81l-2-2a.71.71,0,0,1,0-1l3.42-3.43.5-.51,1-1a.71.71,0,0,1,.53-.22.65.65,0,0,1,.51.22L23,17V7.4A2.22,2.22,0,0,0,20.8,5.2Z"/><path class="cls-2" d="M23.78,17.78,23,17,18.79,12.8a.65.65,0,0,0-.51-.22.71.71,0,0,0-.53.22l-1,1L18,15.14a.83.83,0,0,1,.47,0,1,1,0,0,1,.44.24.85.85,0,0,1,.22.42.9.9,0,0,1,0,.49l1.27,1.26a.89.89,0,0,1,.46,0,.8.8,0,0,1,.44.24.88.88,0,0,1,0,1.23.84.84,0,0,1-.62.25.81.81,0,0,1-.61-.25.83.83,0,0,1-.24-.45.86.86,0,0,1,.05-.5L18.7,16.84V20l.12.07.12.09a.82.82,0,0,1,.25.61s0,.05,0,.08a.84.84,0,0,1-.24.54.85.85,0,0,1-1.24,0,.85.85,0,0,1-.25-.54s0-.05,0-.08a.8.8,0,0,1,.26-.61l.14-.11.15-.08V16.79l-.15-.08-.14-.11a.84.84,0,0,1-.25-.46.81.81,0,0,1,.07-.51l-1.3-1.29L12.8,17.77a.71.71,0,0,0,0,1l2,2,3,3a.67.67,0,0,0,.52.22.73.73,0,0,0,.53-.22l5-5a.7.7,0,0,0,.22-.52A.73.73,0,0,0,23.78,17.78Z"/></svg>