<svg id="Layer_1" data-name="Layer 1" xmlns="http://www.w3.org/2000/svg" viewBox="0 0 24 24"><defs><style>.cls-1{fill:#4a616c;}.cls-2{fill:#ac4142;fill-rule:evenodd;}</style></defs><title>folder_git</title><path class="cls-1" d="M9.8,3,12,5.2h8.8A2.22,2.22,0,0,1,23,7.4V18.6a2.22,2.22,0,0,1-2.2,2.2H3.2a2,2,0,0,1-2.2-2V5.2A2.22,2.22,0,0,1,3.2,3Z"/><path class="cls-2" d="M18.79,12.8a.65.65,0,0,0-.51-.22.71.71,0,0,0-.53.22l-1,1L18,15.14a.83.83,0,0,1,.47,0,1,1,0,0,1,.44.24.85.85,0,0,1,.22.42.9.9,0,0,1,0,.49l1.27,1.26a.89.89,0,0,1,.46,0,.8.8,0,0,1,.44.24.88.88,0,0,1,0,1.23.84.84,0,0,1-.62.25.81.81,0,0,1-.61-.25.83.83,0,0,1-.24-.45.86.86,0,0,1,.05-.5L18.7,16.84V20l.12.07.12.09a.87.87,0,1,1-1.24,1.23.86.86,0,0,1,0-1.23l.14-.11.15-.08V16.79l-.15-.08-.14-.11a.84.84,0,0,1-.25-.46.81.81,0,0,1,.07-.51l-1.3-1.29L12.8,17.77a.71.71,0,0,0,0,1l5,5a.67.67,0,0,0,.52.22.73.73,0,0,0,.53-.22l5-5a.7.7,0,0,0,.22-.52.73.73,0,0,0-.22-.53"/></svg>