<svg id="Layer_1" data-name="Layer 1" xmlns="http://www.w3.org/2000/svg" viewBox="0 0 24 24"><defs><style>.st0{fill:#80cbc4;enable-background:new;}.st1{fill:#B8E15E;}</style></defs><path class="st0" d="M20.8,5.25H12L9.8,3H3.2A2.23,2.23,0,0,0,1,5.25v13.5A2.23,2.23,0,0,0,3.2,21H20.8A2.23,2.23,0,0,0,23,18.75V7.5A2.23,2.23,0,0,0,20.8,5.25Zm0,13.5H3.2V7.5H20.8Z"/><path class="st1" d="M15.32,18.79l1.74,2.09,2.43-3.13,3.12,4.17H12.89ZM24,22.61V12.89a1.39,1.39,0,0,0-1.39-1.39H12.89a1.4,1.4,0,0,0-1.39,1.39v9.72A1.39,1.39,0,0,0,12.89,24h9.72A1.39,1.39,0,0,0,24,22.61Z"/></svg>