<svg xmlns="http://www.w3.org/2000/svg" width="33" height="32" viewBox="0 0 33 32">
  <path fill="#8251A8" d="M12.001,0.007 C5.326,0.007 0.007,5.326 0.007,12 C0.007,18.674 5.326,23.995 12,23.995 C18.674,23.995 23.994,18.676 23.994,12.001 C23.994,5.326 18.676,0.007 12.001,0.007 Z M2.614,12.105 L11.897,21.388 C6.786,21.388 2.614,17.216 2.614,12.105 Z M14.087,21.179 L2.823,9.915 C3.76,5.743 7.516,2.614 12,2.614 C15.006648,2.61987544 17.832097,4.05226752 19.614,6.474 L18.259,7.62 C16.8241347,5.52011799 14.4402591,4.26972613 11.897,4.283 C8.64896151,4.26213976 5.75110679,6.31966896 4.7,9.393 L14.504,19.198 C16.904,18.363 18.78,16.278 19.302,13.774 L15.234,13.774 L15.234,12.001 L21.388,12.001 C21.388,16.486 18.259,20.241 14.087,21.179 Z" transform="translate(5 4)"/>
</svg>
