<svg xmlns="http://www.w3.org/2000/svg" width="32" height="32" viewBox="0 0 32 32">
  <path fill="#AC4142" fill-rule="evenodd" d="M28.486084,14.8456221 L17.1430597,3.50460829 C16.8311765,3.16820276 16.4409384,3 15.9723453,3 C15.5037523,3 15.1019914,3.16820276 14.7670626,3.50460829 L12.4256338,5.84562212 L15.4146428,8.83410138 C15.751108,8.71428571 16.1052414,8.69662058 16.4770431,8.78110599 C16.8488448,8.8655914 17.1791645,9.05145929 17.4680021,9.33870968 C17.7322579,9.60291859 17.9066359,9.92089094 17.9911363,10.2926267 C18.0756367,10.6643625 18.0579684,11.030722 17.9381315,11.3917051 L20.8188264,14.2718894 C21.1552916,14.1520737 21.509425,14.1282642 21.8812267,14.2004608 C22.2530284,14.2726575 22.5833481,14.452381 22.8721858,14.7396313 C23.2562784,15.1236559 23.4483248,15.5913978 23.4483248,16.1428571 C23.4483248,16.6943164 23.2562784,17.1620584 22.8721858,17.5460829 C22.4880931,17.9301075 22.0202683,18.1221198 21.4687112,18.1221198 C20.9171542,18.1221198 20.4493293,17.9301075 20.0652367,17.5460829 C19.776399,17.2572965 19.5966436,16.9155146 19.5259706,16.5207373 C19.4552975,16.1259601 19.4914022,15.7480799 19.6342847,15.3870968 L16.9333452,12.6866359 L16.9333452,19.7788018 C17.0301365,19.8264209 17.1200142,19.8801843 17.2029782,19.9400922 C17.2859422,20 17.3758199,20.0660522 17.4726112,20.1382488 C17.8567039,20.5222734 18.0487502,20.9900154 18.0487502,21.5414747 C18.0487502,22.0929339 17.8567039,22.5606759 17.4726112,22.9447005 C17.0885186,23.3533026 16.6206937,23.5576037 16.0691367,23.5576037 C15.5175796,23.5576037 15.0497548,23.3533026 14.6656621,22.9447005 C14.2569875,22.5606759 14.0526502,22.0929339 14.0526502,21.5414747 C14.0526502,20.9900154 14.2569875,20.5222734 14.6656621,20.1382488 C14.7624535,20.0414747 14.8646221,19.9577573 14.9721681,19.8870968 C15.079714,19.8164363 15.1934054,19.7565284 15.3132423,19.7073733 L15.3132423,12.578341 C15.1934054,12.530722 15.079714,12.4708141 14.9721681,12.3986175 C14.8646221,12.3264209 14.7624535,12.2427035 14.6656621,12.1474654 C14.3537789,11.858679 14.1617326,11.5107527 14.0895231,11.1036866 C14.0173137,10.6966206 14.0657094,10.312596 14.2347102,9.9516129 L11.282574,7 L3.50469775,14.8133641 C3.16823258,15.125192 3,15.515361 3,15.983871 C3,16.452381 3.16823258,16.8425499 3.50469775,17.1543779 L14.847722,28.4953917 C15.1596053,28.8317972 15.5498434,29 16.0184364,29 C16.4870295,29 16.8887904,28.8317972 17.2237192,28.4953917 L28.4953023,17.2258065 C28.8317674,16.8894009 29,16.4930876 29,16.0368664 C29,15.5806452 28.8317674,15.1843318 28.4953023,14.8479263 L28.4953023,14.8479263 L28.486084,14.8456221 Z"/>
</svg>
