<svg xmlns="http://www.w3.org/2000/svg" width="33" height="32" viewBox="0 0 33 32">
  <path fill="#3D4C52" d="M14.5006463,0 C6.49226724,0 0,6.42628253 0,14.3532677 C0,20.6951117 4.15412043,26.0748684 9.9174132,27.9721762 C10.6425101,28.1039515 10.9074743,27.6600096 10.9074743,27.2813157 C10.9074743,26.9397235 10.8945492,25.8074798 10.8867941,24.6099882 C6.85416945,25.477402 6.00240674,22.9173798 6.00240674,22.9173798 C5.3419352,21.2593145 4.39194188,20.8179314 4.39194188,20.8179314 C3.07358381,19.9274889 4.49146499,19.9454001 4.49146499,19.9454001 C5.9468289,20.045191 6.7145786,21.4243534 6.7145786,21.4243534 C8.00837902,23.6184754 10.1099969,22.9839071 10.9346169,22.6154482 C11.0664527,21.6904627 11.44128,21.0558944 11.8548826,20.6989498 C8.63653786,20.3368877 5.25016713,19.1048531 5.25016713,13.6048354 C5.25016713,12.0363261 5.8162856,10.7582341 6.74172126,9.75264816 C6.59437536,9.38802731 6.0941748,7.92826454 6.88518964,5.95291511 C6.88518964,5.95291511 8.10143959,5.56782432 10.8725765,7.42419221 C12.0280786,7.10434937 13.2688862,6.94698668 14.5006463,6.9418692 C15.7324063,6.94698668 16.9732139,7.10690811 18.131301,7.42675096 C20.8972679,5.56782432 22.1161029,5.95547385 22.1161029,5.95547385 C22.9084102,7.93210266 22.4095022,9.39058605 22.2608638,9.75392753 C23.1901769,10.7582341 23.7511254,12.0376055 23.7511254,13.6061148 C23.7511254,19.1202055 20.3595846,20.334329 17.1296073,20.6899942 C17.6517805,21.1352155 18.1132059,22.0077468 18.1132059,23.3459692 C18.1132059,25.2650263 18.0938182,26.8117864 18.0938182,27.2851538 C18.0938182,27.6676858 18.3574899,28.1141864 19.0916344,27.9734556 C24.8497571,26.0723097 29,20.6938323 29,14.3545471 C29,6.42884127 22.5077328,0.0012793714 14.4993537,0.0012793714 L14.5006463,0 Z" transform="translate(2 2)"/>
</svg>
