<svg xmlns="http://www.w3.org/2000/svg" width="33" height="32" viewBox="0 0 33 32">
  <g fill="none" fill-rule="evenodd">
    <polygon fill="#D14748" fill-rule="nonzero" points="16.007 26.914 16.007 26.914 20.423 13.457 11.591 13.457"/>
    <polygon fill="#D28445" fill-rule="nonzero" points="16.007 26.914 11.591 13.457 5.402 13.457"/>
    <path fill="#F4BF75" fill-rule="nonzero" d="M5.40211428,13.456951 L4.06017143,17.5464597 C3.93777143,17.9194369 4.07182857,18.3280595 4.39228571,18.5585675 L16.0070285,26.9141154 L5.40211428,13.456951 Z"/>
    <path fill="#D14748" fill-rule="nonzero" d="M5.40211428,13.4569623 L11.5910286,13.4569623 L8.93125714,5.35183875 C8.79445714,4.934729 8.19857143,4.93484216 8.06177143,5.35183875 L5.40211428,13.4569623 Z"/>
    <polygon fill="#D28445" fill-rule="nonzero" points="16.007 26.914 20.423 13.457 26.612 13.457"/>
    <path fill="#F4BF75" fill-rule="nonzero" d="M26.6119314,13.456951 L27.9538742,17.5464597 C28.0762743,17.9194369 27.9422172,18.3280595 27.62176,18.5585675 L16.0070172,26.9141154 L26.6119314,13.456951 Z"/>
    <path fill="#D14748" fill-rule="nonzero" d="M26.6119314,13.4569623 L20.4230172,13.4569623 L23.0827886,5.35183875 C23.2195886,4.934729 23.8154743,4.93484216 23.9522743,5.35183875 L26.6119314,13.4569623 Z"/>
  </g>
</svg>
