<svg xmlns="http://www.w3.org/2000/svg" width="32" height="32" viewBox="0 0 32 32">
  <path fill="#6A9FB5" fill-rule="evenodd" d="M11.5427236,15.934392 L11.5427236,18.7878017 C10.9475338,19.0328798 10.3523441,19.1904301 9.93221011,19.1904301 C8.33920223,19.1904301 7.1663283,17.9650394 7.1663283,16.266998 C7.1663283,14.6039678 8.32169665,13.3785772 9.89719895,13.3785772 C10.9125227,13.3785772 12.1029022,13.886239 12.9256645,14.6739902 L15.2188956,11.8906028 C13.905977,10.7352344 11.8228129,10 9.91470453,10 C5.90592646,10 3,12.6433427 3,16.266998 C3,19.9081589 5.80089297,22.5690072 9.65212081,22.5690072 C11.4026789,22.5690072 13.6608989,21.9037951 15.0263342,20.9935049 L15.0263342,15.934392 L11.5427236,15.934392 Z M22.6587676,10 C18.755023,10 15.9191188,12.6083316 15.9191188,16.2494924 C15.9191188,19.9081589 18.755023,22.5690072 22.6587676,22.5690072 C26.5625121,22.5690072 29.3984163,19.8906533 29.3984163,16.2494924 C29.3984163,12.6258372 26.5625121,10 22.6587676,10 L22.6587676,10 Z M22.7112843,13.3785772 C24.1117308,13.3785772 25.232088,14.5864622 25.232088,16.266998 C25.232088,17.9475338 24.1117308,19.1904301 22.7112843,19.1904301 C21.3108378,19.1904301 20.0854471,17.9475338 20.0854471,16.266998 C20.0854471,14.5864622 21.2933322,13.3785772 22.7112843,13.3785772 L22.7112843,13.3785772 Z"/>
</svg>
