<?xml version="1.0" encoding="UTF-8" standalone="no"?>
<svg
   xmlns:dc="http://purl.org/dc/elements/1.1/"
   xmlns:cc="http://creativecommons.org/ns#"
   xmlns:rdf="http://www.w3.org/1999/02/22-rdf-syntax-ns#"
   xmlns:svg="http://www.w3.org/2000/svg"
   xmlns="http://www.w3.org/2000/svg"
   xmlns:sodipodi="http://sodipodi.sourceforge.net/DTD/sodipodi-0.dtd"
   xmlns:inkscape="http://www.inkscape.org/namespaces/inkscape"
   version="1.1"
   width="24"
   height="24"
   viewBox="0 0 24 24"
   id="svg2"
   inkscape:version="0.91 r13725"
   sodipodi:docname="gopher.svg">
  <metadata
     id="metadata10">
    <rdf:RDF>
      <cc:Work
         rdf:about="">
        <dc:format>image/svg+xml</dc:format>
        <dc:type
           rdf:resource="http://purl.org/dc/dcmitype/StillImage" />
      </cc:Work>
    </rdf:RDF>
  </metadata>
  <defs
     id="defs8" />
  <sodipodi:namedview
     pagecolor="#ffffff"
     bordercolor="#666666"
     borderopacity="1"
     objecttolerance="10"
     gridtolerance="10"
     guidetolerance="10"
     inkscape:pageopacity="0"
     inkscape:pageshadow="2"
     inkscape:window-width="1366"
     inkscape:window-height="705"
     id="namedview6"
     showgrid="false"
     inkscape:zoom="11.313709"
     inkscape:cx="20.820694"
     inkscape:cy="19.2295"
     inkscape:window-x="-8"
     inkscape:window-y="-8"
     inkscape:window-maximized="1"
     inkscape:current-layer="svg2" />
  <path
     style="opacity:1;fill:#73cddc;fill-opacity:1;stroke:none;stroke-opacity:1"
     d="m 10.575194,1.6953125 c -2.6340797,0 -4.7565185,2.4529827 -4.7565185,5.5017288 l 0,4.5995167 c -0.00877,-7.51e-4 -0.017765,-0.0015 -0.026536,-0.0022 l 0,4.710082 c 0,3.048747 2.1224385,5.501729 4.7565185,5.501729 l 2.286491,0 c 2.63408,0 4.756519,-2.452983 4.756519,-5.501729 l 0,-4.599516 c 0.0088,7.49e-4 0.01777,0.0015 0.02654,0.0022 l 0,-4.7100817 c 0,-3.0487472 -2.122439,-5.5017288 -4.756519,-5.5017288 l -2.28649,0 z"
     id="rect4135"
     inkscape:connector-curvature="0" />
  <rect
     style="opacity:1;fill:#73cddc;fill-opacity:1;stroke:none;stroke-opacity:1"
     id="rect4140"
     width="2.288584"
     height="3.3350434"
     x="-1.1775482"
     y="6.0924883"
     ry="1.1246077"
     transform="matrix(0.48489438,-0.87457272,0.85978898,0.5106495,0,0)" />
  <rect
     style="opacity:1;fill:#73cddc;fill-opacity:1;stroke:none;stroke-opacity:1"
     id="rect4140-2"
     width="2.2969973"
     height="3.3903697"
     x="10.261106"
     y="-15.07619"
     ry="1.1432641"
     transform="matrix(0.44646204,0.89480257,-0.89204093,0.45195461,0,0)" />
  <circle
     style="opacity:1;fill:#ffffff;fill-opacity:1;stroke:#5e5d5b;stroke-opacity:1;stroke-width:0.1;stroke-miterlimit:4;stroke-dasharray:none"
     id="path4159"
     cx="9.2672663"
     cy="5.1300602"
     r="2.0544794" />
  <circle
     style="opacity:1;fill:#ffffff;fill-opacity:1;stroke:#5e5d5b;stroke-opacity:1;stroke-width:0.1;stroke-miterlimit:4;stroke-dasharray:none"
     id="path4159-5"
     cx="14.21388"
     cy="5.1155543"
     r="2.0544794" />
  <ellipse
     style="opacity:1;fill:#030d18;fill-opacity:1;stroke:none;stroke-opacity:1"
     id="path4159-9"
     cx="8.0389967"
     cy="5.0511818"
     rx="0.79244208"
     ry="0.90066916" />
  <path
     style="opacity:1;fill:#ffffff;fill-opacity:1;stroke:#ffffff;stroke-width:0.15521361;stroke-miterlimit:4;stroke-dasharray:none;stroke-opacity:1"
     d="m 11.792091,9.5557475 0.763034,0.1383192 a 0.40286102,0.68855924 0 0 1 0.008,0.1383203 0.40286102,0.68855924 0 0 1 -0.402592,0.689226 0.40286102,0.68855924 0 0 1 -0.403317,-0.689226 0.40286102,0.68855924 0 0 1 0.03488,-0.2766395 z"
     id="path4239-0"
     inkscape:connector-curvature="0" />
  <ellipse
     style="opacity:1;fill:#ffffff;fill-opacity:1;stroke:none;stroke-opacity:1"
     id="path4159-0"
     cx="8.509738"
     cy="5.3647242"
     rx="0.13795896"
     ry="0.16614309" />
  <ellipse
     style="opacity:1;fill:#030d18;fill-opacity:1;stroke:none;stroke-opacity:1"
     id="path4159-9-4"
     cx="12.945254"
     cy="5.1890812"
     rx="0.79244208"
     ry="0.90066916" />
  <ellipse
     style="opacity:1;fill:#ffffff;fill-opacity:1;stroke:none;stroke-opacity:1"
     id="path4159-0-17"
     cx="13.414238"
     cy="5.4461207"
     rx="0.13795896"
     ry="0.16614309" />
  <ellipse
     style="opacity:1;fill:#f6d2a1;fill-opacity:1;stroke:none;stroke-width:0.40000001;stroke-miterlimit:4;stroke-dasharray:none;stroke-opacity:1"
     id="path4392"
     cx="-12.981545"
     cy="-3.4086847"
     rx="0.70761788"
     ry="1.0260459"
     transform="matrix(-0.63476926,-0.77270175,0.77270175,-0.63476926,0,0)" />
  <path
     style="opacity:1;fill:#ffffff;fill-opacity:1;stroke:#ffffff;stroke-width:0.15268317;stroke-miterlimit:4;stroke-dasharray:none;stroke-opacity:1"
     d="m 11.77197,9.552612 -0.75678,0.1349518 a 0.39955943,0.67179659 0 0 0 -0.0079,0.1349522 0.39955943,0.67179659 0 0 0 0.399293,0.672447 0.39955943,0.67179659 0 0 0 0.400013,-0.672447 0.39955943,0.67179659 0 0 0 -0.0346,-0.269904 z"
     id="path4239-0-4"
     inkscape:connector-curvature="0" />
  <ellipse
     style="opacity:1;fill:#f6d2a1;fill-opacity:1;stroke:none;stroke-width:0.40000001;stroke-miterlimit:4;stroke-dasharray:none;stroke-opacity:1"
     id="path4392-8"
     cx="1.8407857"
     cy="-21.563318"
     rx="0.70735705"
     ry="1.0256677"
     transform="matrix(0.63476926,-0.77270175,-0.77270175,-0.63476926,0,0)" />
  <ellipse
     style="opacity:1;fill:#f6d2a1;fill-opacity:1;stroke:none;stroke-width:0.40000001;stroke-miterlimit:4;stroke-dasharray:none;stroke-opacity:1"
     id="path4392-8-7"
     cx="-17.280819"
     cy="-21.783842"
     rx="0.86445194"
     ry="1.2702912"
     transform="matrix(0.30540118,-0.95222378,-0.97064754,-0.24050645,0,0)" />
  <ellipse
     style="opacity:1;fill:#f6d2a1;fill-opacity:1;stroke:none;stroke-width:0.40000001;stroke-miterlimit:4;stroke-dasharray:none;stroke-opacity:1"
     id="path4392-8-7-2"
     cx="22.884598"
     cy="2.5872333"
     rx="0.86445194"
     ry="1.2702912"
     transform="matrix(0.22651675,0.97400727,0.95651906,-0.29166982,0,0)" />
  <path
     style="opacity:1;fill:#f6d2a1;fill-opacity:1;stroke:#657075;stroke-width:0.1;stroke-miterlimit:4;stroke-dasharray:none;stroke-opacity:1"
     d="m 10.707539,8.3920975 c -0.329337,0 -0.593772,0.2665331 -0.593772,0.5973405 l 0,0.114873 c 0,0.330807 0.264435,0.597342 0.593772,0.597342 l 0.386089,0 a 0.9734569,0.77194828 0 0 1 0.697156,-0.234342 0.9734569,0.77194828 0 0 1 0.698071,0.234342 l 0.33394,0 c 0.329337,0 0.594687,-0.266535 0.594687,-0.597342 l 0,-0.114873 c 0,-0.3308074 -0.26535,-0.5973405 -0.594687,-0.5973405 l -2.115256,0 z"
     id="rect4208-0"
     inkscape:connector-curvature="0" />
  <ellipse
     style="opacity:1;fill:#030d18;fill-opacity:1;stroke:#ffffff;stroke-width:0.16200256;stroke-miterlimit:4;stroke-dasharray:none;stroke-opacity:1"
     id="path4206-5-9"
     cx="11.734375"
     cy="8.203125"
     rx="1.2084291"
     ry="0.68013442" />
</svg>
