<svg xmlns="http://www.w3.org/2000/svg" width="33" height="32" viewBox="0 0 33 32">
  <g fill="#AA759F" transform="translate(5 3)">
    <polygon points="2.134 19.809 1.189 19.259 11.713 .861 12.658 1.411"/>
    <polygon points=".973 17.789 22.021 17.789 22.021 18.89 .973 18.89"/>
    <path d="M11.9171543,24.5425408 L1.38906857,18.4073367 L1.93449714,17.4538265 L12.4625829,23.5890306 L11.9171543,24.5425408 Z M21.0628743,8.55260714 L10.5347886,2.41740306 L11.0802171,1.46389286 L21.6083029,7.59909694 L21.0628743,8.55260714 Z"/>
    <polygon points="1.937 8.548 1.392 7.595 11.92 1.46 12.465 2.413"/>
    <path d="M20.8687543,19.8092806 L10.3446114,1.41162755 L11.28932,0.861117347 L21.8134629,19.2587704 L20.8687543,19.8092806 Z M1.80714286,6.86479592 L2.898,6.86479592 L2.898,19.1352041 L1.80714286,19.1352041 L1.80714286,6.86479592 Z M20.102,6.86479592 L21.1928571,6.86479592 L21.1928571,19.1352041 L20.102,19.1352041 L20.102,6.86479592 Z"/>
    <polygon points="11.731 24.077 11.255 23.244 20.412 17.908 20.888 18.74"/>
    <path d="M22.6385714,19.4933673 C22.0077143,20.6010204 20.6014286,20.9790816 19.504,20.3423469 C18.4065714,19.7056122 18.032,18.2862245 18.6628571,17.1785714 C19.2937143,16.0709184 20.7,15.6928571 21.7974286,16.3295918 C22.9014286,16.9729592 23.276,18.3857143 22.6385714,19.4933673 M4.33057143,8.82142857 C3.69971429,9.92908163 2.29342857,10.3071429 1.196,9.67040816 C0.0985714286,9.03367347 -0.276,7.61428571 0.354857143,6.50663265 C0.985714286,5.39897959 2.392,5.02091837 3.48942857,5.65765306 C4.58685714,6.30102041 4.96142857,7.71377551 4.33057143,8.82142857 M0.361428571,19.4933673 C-0.269428571,18.3857143 0.105142857,16.9729592 1.20257143,16.3295918 C2.3,15.6928571 3.69971429,16.0709184 4.33714286,17.1785714 C4.968,18.2862245 4.59342857,19.6989796 3.496,20.3423469 C2.392,20.9790816 0.992285714,20.6010204 0.361428571,19.4933673 M18.6694286,8.82142857 C18.0385714,7.71377551 18.4131429,6.30102041 19.5105714,5.65765306 C20.608,5.02091837 22.0077143,5.39897959 22.6451429,6.50663265 C23.276,7.61428571 22.9014286,9.02704082 21.804,9.67040816 C20.7065714,10.3071429 19.3002857,9.92908163 18.6694286,8.82142857 M11.5,25.9867347 C10.2317143,25.9867347 9.20657143,24.9520408 9.20657143,23.6719388 C9.20657143,22.3918367 10.2317143,21.3571429 11.5,21.3571429 C12.7682857,21.3571429 13.7934286,22.3918367 13.7934286,23.6719388 C13.7934286,24.9454082 12.7682857,25.9867347 11.5,25.9867347 M11.5,4.64285714 C10.2317143,4.64285714 9.20657143,3.60816327 9.20657143,2.32806122 C9.20657143,1.04795918 10.2317143,0.0132653061 11.5,0.0132653061 C12.7682857,0.0132653061 13.7934286,1.04795918 13.7934286,2.32806122 C13.7934286,3.60816327 12.7682857,4.64285714 11.5,4.64285714"/>
  </g>
</svg>
