<?xml version="1.0" encoding="UTF-8" standalone="no"?>
<svg
   xmlns:dc="http://purl.org/dc/elements/1.1/"
   xmlns:cc="http://creativecommons.org/ns#"
   xmlns:rdf="http://www.w3.org/1999/02/22-rdf-syntax-ns#"
   xmlns:svg="http://www.w3.org/2000/svg"
   xmlns="http://www.w3.org/2000/svg"
   xmlns:sodipodi="http://sodipodi.sourceforge.net/DTD/sodipodi-0.dtd"
   xmlns:inkscape="http://www.inkscape.org/namespaces/inkscape"
   version="1.1"
   width="24"
   height="24"
   viewBox="0 0 24 24"
   id="svg2"
   inkscape:version="0.91 r13725"
   sodipodi:docname="groovy.svg">
  <metadata
     id="metadata10">
    <rdf:RDF>
      <cc:Work
         rdf:about="">
        <dc:format>image/svg+xml</dc:format>
        <dc:type
           rdf:resource="http://purl.org/dc/dcmitype/StillImage" />
        <dc:title />
      </cc:Work>
    </rdf:RDF>
  </metadata>
  <defs
     id="defs8" />
  <sodipodi:namedview
     pagecolor="#ffffff"
     bordercolor="#666666"
     borderopacity="1"
     objecttolerance="10"
     gridtolerance="10"
     guidetolerance="10"
     inkscape:pageopacity="0"
     inkscape:pageshadow="2"
     inkscape:window-width="1366"
     inkscape:window-height="705"
     id="namedview6"
     showgrid="false"
     showguides="true"
     inkscape:guide-bbox="true"
     inkscape:zoom="19.666667"
     inkscape:cx="7.6083159"
     inkscape:cy="11.586247"
     inkscape:window-x="-8"
     inkscape:window-y="-8"
     inkscape:window-maximized="1"
     inkscape:current-layer="svg2" />
  <path
     style="fill:#80CBC4;fill-opacity:1;stroke:none;stroke-opacity:1"
     d="M 12 1.9824219 A 10.118644 10.118644 0 0 0 1.8808594 12.101562 A 10.118644 10.118644 0 0 0 12 22.220703 A 10.118644 10.118644 0 0 0 22.119141 12.101562 A 10.118644 10.118644 0 0 0 12 1.9824219 z M 13.253906 4.4042969 C 14.163737 4.4042969 14.900798 4.6652018 15.466797 5.1835938 C 16.038086 5.7019857 16.324219 6.3720703 16.324219 7.1972656 C 16.324219 8.0859375 16.00529 8.8697917 15.365234 9.546875 C 14.725179 10.223958 13.988688 10.5625 13.158203 10.5625 C 12.671549 10.5625 12.267985 10.443115 11.945312 10.205078 C 11.62793 9.967041 11.46875 9.6733398 11.46875 9.3242188 C 11.46875 9.1126302 11.528727 8.9256999 11.650391 8.7617188 C 11.777344 8.5977376 11.92391 8.515625 12.087891 8.515625 C 12.246582 8.515625 12.326172 8.6078288 12.326172 8.7929688 C 12.326172 8.9569499 12.386149 9.083903 12.507812 9.1738281 C 12.629476 9.2637533 12.769043 9.3085938 12.927734 9.3085938 C 13.350911 9.3085938 13.756429 9.0199382 14.142578 8.4433594 C 14.534017 7.8614909 14.730469 7.2412923 14.730469 6.5800781 C 14.730469 6.1145833 14.578857 5.7362467 14.277344 5.4453125 C 13.97583 5.1490885 13.587402 5 13.111328 5 C 12.397217 5 11.704997 5.3183594 11.033203 5.953125 C 10.366699 6.5878906 9.8216146 7.4222005 9.3984375 8.4589844 C 8.9805501 9.4904785 8.7714844 10.473307 8.7714844 11.404297 C 8.7714844 12.26123 8.9558919 12.943359 9.3261719 13.451172 C 9.6964518 13.953695 10.189128 14.205078 10.802734 14.205078 C 11.839518 14.205078 12.830485 13.47111 13.777344 12.005859 L 15.269531 11.792969 C 15.454671 11.76652 15.546875 11.811361 15.546875 11.927734 C 15.546875 11.980632 15.474854 12.207357 15.332031 12.609375 C 15.189209 13.011393 14.99471 13.683431 14.746094 14.625 C 15.565999 14.148926 16.200765 13.621501 16.650391 13.044922 L 16.650391 13.958984 C 16.29069 14.376872 15.603516 14.847412 14.587891 15.371094 C 14.376302 16.778158 13.906331 17.863851 13.181641 18.630859 C 12.45695 19.403158 11.642822 19.791016 10.738281 19.791016 C 10.304525 19.791016 9.9634603 19.68929 9.7148438 19.488281 C 9.4715169 19.287272 9.3496094 19.010661 9.3496094 18.65625 C 9.3496094 17.672363 10.305257 16.716715 12.214844 15.791016 C 12.415853 15.076904 12.610352 14.43457 12.800781 13.863281 C 12.467529 14.344645 11.984375 14.770345 11.349609 15.140625 C 10.714844 15.510905 10.124919 15.695312 9.5800781 15.695312 C 8.6914062 15.695312 7.9518229 15.31193 7.359375 14.544922 C 6.7722168 13.772624 6.4785156 12.796794 6.4785156 11.617188 C 6.4785156 10.374105 6.8120117 9.1967773 7.4785156 8.0859375 C 8.1450195 6.9698079 9.0191243 6.0786133 10.103516 5.4121094 C 11.187907 4.7403158 12.238281 4.4042969 13.253906 4.4042969 z M 12.03125 16.591797 C 10.655924 17.27946 9.96875 17.956543 9.96875 18.623047 C 9.96875 18.977458 10.138021 19.15625 10.476562 19.15625 C 11.143066 19.15625 11.66097 18.300374 12.03125 16.591797 z "
     id="path4133" />
</svg>
