<svg xmlns="http://www.w3.org/2000/svg" width="32" height="32" viewBox="0 0 32 32">
  <path fill="#F4BF75" d="M15.9957974,12.898422 C15.3244379,12.8910579 14.5616726,11.9589714 14.5616726,11.9589714 C15.0859424,12.2766803 15.5534776,12.387142 16,12.3966102 C16.4465224,12.38609 16.9140576,12.2766803 17.4383274,11.9589714 C17.4383274,11.9589714 16.6755621,12.8910579 16.0042026,12.899474 C16.0021013,12.899474 16.0021013,12.899474 15.9957974,12.898422 Z M13.9712124,25.0702513 L14.3084682,25.0702513 C14.5270015,25.0702513 14.6845976,25.1175921 14.7749527,25.2101695 C14.8905232,25.3290473 14.8537508,25.4815897 14.8211809,25.561543 C14.7644463,25.7014611 14.531204,26.1569842 14.1351124,26.5809468 C13.9932759,26.7324372 13.7873503,26.8165985 13.554108,26.8165985 C13.3271696,26.8165985 13.0960286,26.7334892 12.9352805,26.594623 C12.8123555,26.4883694 12.3963017,26.1054354 12.2134902,25.6372881 C12.1451986,25.4626534 12.1599075,25.3227352 12.2597184,25.2217417 C12.3280101,25.1523086 12.4708972,25.0702513 12.7587729,25.0702513 L12.9636478,25.0702513 L13.9712124,25.0702513 Z M9.38936751,13.994623 C9.38936751,13.994623 9.05421307,13.5138515 9.1140996,12.9836353 C9.14456819,12.7227352 9.26539189,12.4544711 9.48707712,12.3576856 C9.24227779,12.2651081 9.00273167,12.190415 8.77369195,12.1399182 C11,11.6002338 12.6411011,13.2255991 13.1527632,13.8157802 C14.0300483,14.826768 15.022904,14.2776154 15.022904,14.2776154 C15.0386636,14.8625365 14.4797226,15.281239 13.9102753,15.3064874 C13.9722631,16.1218001 13.1790292,17.0212741 13.1790292,17.0212741 C13.1790292,17.0212741 13.472158,16.2301578 13.3187644,15.6894214 C13.2725362,15.5242548 13.2158016,15.3717124 13.1632696,15.2433665 C12.1483505,16.1533606 10.6364783,15.3233197 10.2740071,14.9214494 C9.76864888,14.3617767 9.62471107,13.6642899 9.60159697,13.1214494 C9.50598865,13.3213326 9.42403866,13.6011689 9.38936751,13.994623 Z M12.9731036,14.8414962 C12.6715697,15.019287 11.8321076,15.3938048 10.9747846,14.7562829 C10.4274007,14.3481005 10.4515655,13.3676213 10.6081109,12.8900058 C11.6366884,13.4675628 12.5801639,14.2428989 12.9731036,14.8414962 Z M19.0353015,25.0713033 L19.2401765,25.0713033 C19.5280521,25.0713033 19.6698886,25.1533606 19.7381803,25.2227937 C19.8369405,25.3227352 19.8527001,25.4637054 19.7844085,25.6383402 C19.601597,26.1075395 19.1855432,26.4894214 19.0626182,26.595675 C18.9018701,26.7355932 18.6707291,26.8176505 18.4437907,26.8176505 C18.2105484,26.8176505 18.0046228,26.7334892 17.8627863,26.5819988 C17.4677453,26.1590883 17.2334524,25.7025132 17.1767178,25.562595 C17.1451986,25.4826417 17.1084261,25.3311514 17.2239966,25.2112215 C17.3143518,25.1186441 17.4708972,25.0713033 17.6904812,25.0713033 L18.0277369,25.0713033 L19.0353015,25.0713033 Z M18.8199202,17.0212741 C18.8199202,17.0212741 18.0277369,16.1218001 18.0897247,15.3064874 C17.5202774,15.2822911 16.9613364,14.8625365 16.977096,14.2776154 C16.977096,14.2776154 17.9699517,14.825716 18.8472368,13.8157802 C19.3599496,13.2255991 21.0010506,11.5991818 23.226308,12.1399182 C22.9972683,12.190415 22.7577222,12.2651081 22.5192267,12.3597896 C22.7346081,12.4544711 22.8554318,12.7227352 22.8848498,12.9836353 C22.9447363,13.5127995 22.6095818,13.993571 22.6095818,13.993571 C22.5749107,13.6001169 22.4929607,13.3202805 22.3973524,13.1203974 C22.3752889,13.6632379 22.2303005,14.3617767 21.7249422,14.9214494 C21.3624711,15.3233197 19.8505989,16.1533606 18.8356798,15.2433665 C18.7831477,15.3717124 18.7274638,15.5242548 18.6801849,15.6894214 C18.5267913,16.2301578 18.8199202,17.0212741 18.8199202,17.0212741 Z M21.3897878,12.8900058 C21.5463333,13.3686733 21.570498,14.3491525 21.0231141,14.7562829 C20.1657911,15.3938048 19.3252784,15.019287 19.0237445,14.8436002 C19.4177348,14.2439509 20.362261,13.4686148 21.3897878,12.8900058 Z M22.9867619,22.0404442 C22.8249632,20.8421975 22.7913427,19.1126826 22.7913427,18.749737 C22.7913427,17.9744009 23.2914478,17.4568089 23.4332843,17.3747516 C23.5667157,17.2969024 23.7159067,17.2180012 23.8714016,17.1338399 C24.8190796,16.625716 26,15.9934541 26,14.826768 C26,13.9746347 25.5104013,13.604325 25.186804,13.3602572 C25.145829,13.3297487 25.1080059,13.3002922 25.0733347,13.2729398 C24.9640681,13.1845704 24.8768649,13.1140853 24.8453457,13.0436002 C24.6163059,12.5270602 24.6583316,11.2372881 24.7570918,11.0594974 C24.7865098,11.0258328 25.6385795,9.9559322 25.37697,8.99438925 C25.2698046,8.60198714 25.0134482,8.29269433 24.6341668,8.0980713 C24.3546964,7.95499708 24.0090355,7.87504383 23.6055894,7.8603156 C23.6003362,7.75616598 23.5793234,7.65306838 23.5572599,7.55102279 C23.527842,7.41320865 23.4963228,7.27118644 23.5089304,7.12600818 C23.5299433,6.88088837 23.5488548,6.64944477 23.6223997,6.53267095 C24.0678714,5.82992402 25.1416264,5.60479252 25.1521328,5.60268849 L25.7982769,5.47644652 L25.3706661,4.97568673 C25.3633116,4.96621859 24.4608111,4.0541204 22.9321286,4.0541204 C22.5150242,4.0541204 22.088464,4.12355348 21.664005,4.2603156 C20.3874764,4.67270602 19.4061778,5.86884863 19.0647195,6.33068381 C18.8997689,6.27913501 18.7306157,6.23179427 18.5604119,6.18971362 C18.3397773,5.35651666 19.0321496,4.16037405 19.0321496,4.16037405 C19.0321496,4.16037405 18.3187644,4.00151958 17.2597184,4.96411455 C17.1220845,4.62115722 16.8342089,3.88264173 17.167262,3 C15.6154654,3.54915254 15.2235764,4.38655757 15.1069552,5.14611338 C14.7077117,4.85996493 14.7518386,3.92998247 14.7297752,3.69117475 C14.3326329,3.73851549 13.1937382,4.8452367 13.2452196,6.23915839 C13.1412061,6.26756283 13.0382433,6.29701929 12.9363312,6.32963179 C12.5948729,5.86674459 11.6135743,4.67060199 10.3370456,4.25821157 C9.91258668,4.12039743 9.48602648,4.05096435 9.06892204,4.05096435 C7.54129019,4.05096435 6.63878966,4.96306254 6.63038453,4.97253068 L6.20277369,5.47329047 L6.84891784,5.59953244 C6.85942425,5.60163647 7.93422988,5.82676797 8.37865098,6.5295149 C8.45219584,6.64628872 8.47215802,6.87773232 8.49212019,7.12285213 C8.50472788,7.26908241 8.47320866,7.41110462 8.44379071,7.54786674 C8.42172725,7.64991233 8.39966379,7.75300994 8.39441059,7.85821157 C7.99096449,7.8729398 7.64530364,7.95289305 7.36583316,8.09596727 C6.9865518,8.2905903 6.72914478,8.59988311 6.62303005,8.99228521 C6.36142047,9.95277615 7.21349023,11.0226768 7.24290817,11.0573933 C7.34271906,11.2351841 7.38474469,12.5249562 7.15465434,13.0414962 C7.12313511,13.1130333 7.03698256,13.1824664 6.92666527,13.2708358 C6.89199412,13.2981882 6.85417104,13.3276447 6.81319605,13.3581531 C6.48959866,13.6032729 6,13.9725307 6,14.8246639 C6,15.9902981 7.17986972,16.6225599 8.12859845,17.1317358 C8.2840933,17.2158971 8.43223366,17.2947984 8.5667157,17.3726476 C8.70855222,17.4547049 9.20865728,17.9722969 9.20865728,18.747633 C9.20865728,19.1105786 9.17503677,20.8400935 9.01323808,22.0383402 C8.404917,21.51654 7.84387476,20.6738749 7.71779786,19.7312683 C7.71779786,19.7312683 6.17860895,20.9210988 6.63038453,23.4669784 C7.04118512,25.7793103 8.9239336,26.5841029 11.1092667,26.7545295 C11.8415634,28.4640561 13.0035722,29.997896 15.9957974,30 C18.9964278,29.997896 20.1584366,28.4630041 20.8907333,26.7545295 C23.0760664,26.5851549 24.9577642,25.7803624 25.3696155,23.4669784 C25.8224417,20.9210988 24.2822021,19.7312683 24.2822021,19.7312683 C24.1550746,20.675979 23.595083,21.5186441 22.9867619,22.0404442 Z M22.9184703,4.84313267 C23.498424,4.84313267 23.9691112,5.00093513 24.2191637,5.10718878 C24.057365,5.17977791 23.881908,5.27340736 23.7085522,5.38807715 C23.5814247,5.3659848 23.416474,5.34704851 23.2242068,5.34704851 C22.670519,5.34704851 22.1472999,5.51011105 21.7102332,5.81729982 C21.0609372,6.27387493 20.7604539,6.7094097 20.6228199,6.99661017 C20.5072494,6.93033314 20.3843244,6.86405611 20.250893,6.79883109 C20.1689431,6.75885447 20.0848918,6.71992987 20.0008405,6.68205728 C20.3244379,6.20864991 21.0493801,5.29023963 21.9886531,4.98725891 C22.2859845,4.89257744 22.5980248,4.84313267 22.9184703,4.84313267 Z M22.9731036,6.12028054 C22.7986972,6.39590883 22.7703299,6.73360608 22.7430132,7.05973115 C22.7146459,7.39848042 22.6862786,7.72039743 22.5129229,7.95394506 C22.2933389,7.9949737 22.0874133,8.04547049 21.9088044,8.09491525 C21.7900819,7.92974868 21.6125236,7.72565751 21.3551166,7.50683811 C21.4307628,7.25330216 21.6461441,6.65575687 22.0685018,6.31911163 C22.357428,6.08872005 22.7030889,5.96563413 23.0939273,5.94985389 C23.050851,6.00455874 23.009876,6.0603156 22.9731036,6.12028054 Z M7.77978567,5.10718878 C8.0298382,5.00093513 8.50052532,4.84313267 9.08047909,4.84313267 C9.40092456,4.84313267 9.71401555,4.89152542 10.0113469,4.98725891 C10.9506199,5.29023963 11.6755621,6.20864991 11.9991595,6.68310929 C11.9151082,6.72098188 11.8310569,6.75990649 11.7480563,6.79988311 C11.6156756,6.86510812 11.4916999,6.93033314 11.3761294,6.99661017 C11.2374448,6.7094097 10.9369615,6.27387493 10.2887161,5.81729982 C9.85164951,5.51011105 9.3273797,5.34704851 8.77474259,5.34704851 C8.58352595,5.34704851 8.41752469,5.3659848 8.29144778,5.38807715 C8.1170414,5.27340736 7.94158437,5.18082992 7.77978567,5.10718878 Z M10.9947468,24.2254822 C10.6144148,24.6368206 10.5419206,25.2028054 10.7793654,25.9066043 C9.59109057,25.887668 8.34923303,25.3784921 7.71779786,24.3390999 C7.07795755,23.2860316 7.25761715,21.4870836 7.52027737,21.2240795 C8.09497794,23.0398597 10.0071444,23.5585038 11.4381173,23.6205728 C11.2973314,23.8414962 11.1660013,24.021391 11.0703929,24.148685 C11.0430763,24.1749854 11.0178609,24.2002338 10.9947468,24.2254822 Z M21.2195839,25.9066043 C21.4570288,25.2028054 21.3845346,24.6368206 21.0042026,24.2254822 C20.9800378,24.1991818 20.9548224,24.1739334 20.9275058,24.147633 C20.8308468,24.020339 20.701618,23.8404442 20.5608321,23.6216248 C21.9928556,23.5585038 23.9050221,23.0398597 24.478672,21.2251315 C24.7413322,21.4881356 24.9209918,23.2870836 24.2811515,24.340152 C23.6497163,25.3784921 22.4078588,25.887668 21.2195839,25.9066043 Z"/>
</svg>
