<svg xmlns="http://www.w3.org/2000/svg" width="32" height="32" viewBox="0 0 32 32">
  <path fill="#D14748" fill-rule="evenodd" d="M17.3143345,6.42547329 L17.9613527,3.68655546 L21.1296917,0.0314686284 L21.1304232,0.0321412932 C21.1306366,0.0319158806 21.130852,0.0316916577 21.1310694,0.0314686284 C21.2078681,-0.0472600242 21.4549756,0.0228129926 21.6838118,0.229569789 C21.9127224,0.436326585 22.0505737,0.677329592 21.9826136,0.755230314 C21.9643114,0.776215519 21.9338018,0.784288864 21.8945739,0.780956773 L18.945975,4.19407679 L18.4308322,6.48379091 C20.4867935,6.62763854 21.915426,6.94530804 21.915426,7.31409479 C21.915426,7.81800333 19.2481171,8.22647407 15.957713,8.22647407 C12.6673775,8.22647407 10,7.81800333 10,7.31409479 C10,6.81018626 12.6673775,6.40171551 15.957713,6.40171551 C16.4243988,6.40171551 16.8785501,6.40993248 17.3143345,6.42547329 Z M15.9014175,22.8838525 C17.4511231,22.8838525 18.6486385,22.6285489 19.2245004,22.4764355 C19.6232374,22.3711378 19.9423369,22.2620768 20.1835151,22.1500804 L19.4568224,23.5438635 L19.2189395,28.0876207 C19.2189395,28.5915293 17.7588262,29 15.957713,29 C14.1565998,29 12.6964864,28.5915293 12.6964864,28.0876207 L12.3960606,23.5927867 L11.6280388,22.15422 C11.8682559,22.2647863 12.1844719,22.3724173 12.5782659,22.4764355 C13.1541278,22.6285489 14.3516432,22.8838525 15.9014175,22.8838525 Z M20.2085048,8.25740856 C20.7719405,8.17115327 21.2177049,8.06946837 21.5333717,7.95513871 C21.6087527,7.92781701 21.7365847,7.88115184 21.8594737,7.80678864 L21.0964636,15.5538837 C20.9372571,15.7083304 20.7959691,15.8439604 20.675277,15.9577632 C20.4993879,16.1238762 20.3539807,16.256345 20.2396047,16.354944 C20.1252287,16.4536183 20.0361856,16.5228634 19.9728189,16.5628298 C19.9093834,16.6027963 19.8612576,16.6228171 19.8285101,16.6228171 C19.7881421,16.6228171 19.7593078,16.6134088 19.7420072,16.5947428 C19.7247067,16.5759262 19.7159877,16.5516904 19.7159877,16.5216591 C19.71791,16.4991544 19.7435176,16.4561021 19.7924673,16.3922762 C19.8414855,16.328676 19.9021062,16.2513022 19.9742606,16.1600793 C20.0464149,16.0689317 20.1237869,15.9677737 20.2065139,15.8566052 C20.2891035,15.745512 20.3660636,15.6312576 20.4372568,15.513842 C20.5084501,15.3965017 20.567629,15.2797635 20.6146564,15.1636275 C20.6618897,15.0474914 20.6853004,14.9382799 20.6853004,14.8358423 C20.6853004,14.7583179 20.6699221,14.6902771 20.6392342,14.6316446 C20.6084776,14.573012 20.5685215,14.5243147 20.5194346,14.4854772 C20.4705536,14.4468656 20.4146013,14.4174364 20.352127,14.3974908 C20.2896527,14.3774699 20.2266292,14.3675348 20.1631938,14.3675348 C20.0709241,14.3675348 19.9785857,14.3887599 19.886316,14.4311349 C19.793909,14.4737357 19.7035615,14.5286049 19.6150677,14.5960436 C19.5265739,14.663407 19.4409636,14.739125 19.3582366,14.822746 C19.2755097,14.9063669 19.1985496,14.99059 19.1274937,15.0755658 C19.1332605,15.0605878 19.1394393,15.0369541 19.1463046,15.004439 C19.1529639,14.971924 19.15928,14.9375272 19.1650469,14.9013993 C19.1708137,14.8651962 19.1754822,14.8307995 19.1793954,14.7983596 C19.1833086,14.7658446 19.1851622,14.7422109 19.1851622,14.7271576 C19.1851622,14.6521923 19.1678617,14.5954414 19.1332605,14.5566792 C19.0986594,14.5179923 19.0429131,14.4985736 18.965953,14.4985736 C18.9159049,14.4985736 18.8692208,14.5280027 18.8259694,14.5866353 C18.7827866,14.6453431 18.743723,14.7146634 18.7091219,14.7945211 C18.6745207,14.874454 18.6436955,14.9556664 18.6169208,15.0380831 C18.5899402,15.1205751 18.5687264,15.1842505 18.5533481,15.2291845 C18.5271913,15.3310952 18.4975331,15.4353392 18.4651289,15.5416153 C18.4484462,15.5492172 18.4333425,15.5593782 18.4207104,15.5737541 C18.3668177,15.6337414 18.3056478,15.6992984 18.2374067,15.7705004 C18.1691655,15.8416272 18.0975604,15.9127539 18.0224539,15.9841065 C17.9475534,16.0552332 17.8720351,16.1238762 17.7960361,16.1900353 C17.7201058,16.256345 17.647059,16.3149776 17.5767582,16.3661587 C17.5065261,16.4172646 17.4412371,16.4585859 17.3806164,16.4897461 C17.3199958,16.521057 17.2696044,16.5366371 17.2292364,16.5366371 C17.1964889,16.5366371 17.1743826,16.5253471 17.1628489,16.5028425 C17.1513152,16.4803378 17.1455483,16.4503818 17.1455483,16.4130497 C17.1455483,16.3530624 17.1555717,16.2850215 17.1758243,16.2088519 C17.1959397,16.1326823 17.2166042,16.0658458 17.237818,16.0083423 C17.2859438,15.8735401 17.3430632,15.7143517 17.4094507,15.5307017 C17.4757696,15.3471269 17.5470314,15.1530902 17.6228931,14.9481398 C17.698892,14.7433399 17.7768133,14.5329703 17.8565881,14.3169558 C17.936363,14.1009412 18.0142842,13.8929801 18.0903518,13.6931478 C18.1662134,13.4933908 18.2374067,13.3086118 18.3037942,13.1386603 C18.3701817,12.9689346 18.4274384,12.8253263 18.4754268,12.7079107 C18.5004852,12.6504824 18.5211498,12.5968175 18.5374892,12.5467653 C18.5538973,12.4968637 18.562067,12.4493706 18.562067,12.4044366 C18.562067,12.3095256 18.5374892,12.2408827 18.4884023,12.1983572 C18.439384,12.1559069 18.3850794,12.1346818 18.3254886,12.1346818 C18.265829,12.1346818 18.2067188,12.1547027 18.1480204,12.1945939 C18.0893907,12.2346356 18.0427066,12.3032785 18.0081054,12.4006733 L17.1340146,14.8170257 C17.0762087,14.9769668 17.0127733,15.1530902 16.9436397,15.3453206 C16.8743001,15.5376262 16.8060589,15.7310608 16.7387103,15.9260008 C16.7017063,16.0290405 16.6699199,16.1423917 16.6428706,16.2650007 C16.6185674,16.2872043 16.5941956,16.3083541 16.5698924,16.328676 C16.4728169,16.4098132 16.379998,16.4728865 16.2915042,16.5178205 C16.2030104,16.5628298 16.1290024,16.5853345 16.0693429,16.5853345 C15.9847623,16.5853345 15.942472,16.5403252 15.942472,16.4503818 C15.942472,16.3530624 15.9553788,16.2475389 15.9813983,16.1338866 C16.0074178,16.0202343 16.0399594,15.9040983 16.0795722,15.7854785 C16.1188417,15.6668586 16.1617499,15.5501204 16.2078848,15.4351886 C16.2540196,15.3203321 16.2967905,15.2123248 16.3361973,15.1111668 C16.3756042,15.0100088 16.4083517,14.9200654 16.4343026,14.841412 C16.4603221,14.7627586 16.4732289,14.7008897 16.4732289,14.6558803 C16.4732289,14.576098 16.4531135,14.5073797 16.4127455,14.4499515 C16.3722402,14.3925232 16.3175237,14.3637715 16.2482528,14.3637715 C16.1848173,14.3637715 16.1318172,14.3912437 16.0895955,14.4461129 C16.0472366,14.5010574 16.0098207,14.5697756 15.9770732,14.6521923 C15.9443943,14.7346843 15.9140496,14.8244771 15.8861765,14.9219471 C15.8583034,15.0192665 15.8261051,15.1105647 15.789513,15.1953899 C15.7376113,15.3228159 15.6727341,15.463263 15.5948129,15.6168817 C15.5168917,15.7705004 15.4299082,15.9141087 15.3337253,16.0477066 C15.2374737,16.1813797 15.1327091,16.293075 15.0192942,16.3830184 C14.9057421,16.4728865 14.7865604,16.5178205 14.6615431,16.5178205 C14.6173305,16.5178205 14.5855442,16.4991544 14.5663213,16.4616718 C14.5470298,16.4241891 14.5375557,16.3830184 14.5375557,16.3380843 C14.541263,16.2307545 14.557671,16.1201881 14.586574,16.0065359 C14.6153396,15.8929589 14.6500094,15.7811883 14.6903774,15.6712241 C14.7307454,15.5612599 14.7744774,15.4551342 14.8216421,15.3528472 C14.8687381,15.2504096 14.9134999,15.1548213 14.9557215,15.0661575 C14.9981491,14.9775689 15.0351531,14.8989155 15.0669395,14.8301221 C15.0985199,14.7614038 15.1191845,14.7060078 15.1288645,14.663407 C15.1346314,14.6410529 15.1375835,14.6171934 15.1375835,14.592205 C15.1375835,14.5547223 15.1298257,14.5216804 15.114516,14.4930039 C15.0990691,14.4643274 15.0788165,14.4405432 15.0538954,14.4218771 C15.028837,14.4030605 15.0019937,14.3894373 14.9730221,14.3805559 C14.9441878,14.3719002 14.9163146,14.3675348 14.8894026,14.3675348 C14.8278208,14.3675348 14.7707015,14.3880825 14.71777,14.4293285 C14.6649071,14.4704992 14.618223,14.5386153 14.5779237,14.6335262 C14.4201589,14.9931491 14.2980251,15.2990317 14.2114536,15.5513247 C14.1249508,15.8035424 14.0609661,16.0090949 14.019637,16.1675307 C13.9782392,16.3261923 13.95373,16.4423283 13.9460409,16.5159388 C13.9383517,16.5896999 13.9345072,16.6277847 13.9345072,16.6303438 C13.9345072,16.7375984 13.9479632,16.8270149 13.9748752,16.8981416 C14.0018558,16.9692684 14.0373495,17.0261698 14.0816307,17.0685447 C14.1258433,17.110995 14.1772644,17.1410263 14.2359628,17.1584881 C14.2946611,17.1760252 14.3556937,17.1846808 14.4191978,17.1846808 C14.5595247,17.1846808 14.6893476,17.1590902 14.8086666,17.1079091 C14.9278484,17.0568032 15.035565,16.9898914 15.1318166,16.9075499 C15.2279309,16.8250579 15.3134726,16.7339856 15.3885791,16.6339566 C15.4635482,16.5341533 15.5260225,16.4355543 15.5760706,16.3380843 C15.545314,16.4903483 15.5299357,16.6240214 15.5299357,16.7389532 C15.5299357,16.9012275 15.55877,17.0162346 15.6164386,17.0835228 C15.6741758,17.1510367 15.749145,17.1846808 15.841552,17.1846808 C15.9338217,17.1846808 16.0376938,17.1566064 16.153031,17.1004577 C16.2685054,17.044309 16.3857649,16.9698705 16.5050152,16.8775939 C16.5393418,16.8509496 16.5733937,16.8228752 16.607171,16.7940482 C16.6101231,16.817155 16.6129378,16.8404123 16.6174689,16.8625406 C16.6309249,16.9275708 16.6535805,16.9837195 16.6853668,17.0312126 C16.7171532,17.0785552 16.7593748,17.1160378 16.8123063,17.1435101 C16.8651692,17.1709823 16.9310075,17.1846808 17.0098212,17.1846808 C17.1252957,17.1846808 17.2440655,17.1546495 17.3662679,17.0948127 C17.4882644,17.0349007 17.6113594,16.9542904 17.7355528,16.8531323 C17.8595402,16.7520495 17.9840082,16.6353114 18.1090941,16.5028425 C18.1149983,16.4965201 18.1209024,16.4897461 18.1269439,16.4832732 C18.1068285,16.5343038 18.0879489,16.5845818 18.0672844,16.6359135 C17.9681494,16.8819593 17.8648265,17.1304137 17.7571098,17.3813519 C17.6494618,17.6324406 17.5436674,17.8827766 17.4397267,18.1325858 C17.4244171,18.1775199 17.4075284,18.2242603 17.3893354,18.2731082 C17.3710736,18.3217303 17.3532238,18.3715566 17.3359233,18.4228883 C17.3186227,18.4740695 17.3041369,18.525928 17.2926718,18.5783887 C17.2811381,18.6308494 17.2753713,18.6819553 17.2753713,18.7319321 C17.2753713,18.8342944 17.2980268,18.9036901 17.3430632,18.9398179 C17.3883742,18.9760211 17.4454936,18.9942355 17.5148332,18.9942355 C17.5685885,18.9942355 17.6171262,18.9811392 17.6604463,18.954796 C17.7037664,18.9286785 17.7422121,18.8936796 17.7759208,18.8500251 C17.8095608,18.8062201 17.8392875,18.7556411 17.8653071,18.6982881 C17.8911893,18.6407093 17.9138448,18.579593 17.9330676,18.5146381 C17.9388345,18.4921334 17.9523591,18.4496079 17.9735043,18.3872873 C17.9945808,18.3248162 18.0191586,18.2523347 18.0470317,18.1700685 C18.0749049,18.0875765 18.1048376,18.000117 18.1364867,17.9077651 C18.1682044,17.8153379 18.198549,17.7272763 18.2273833,17.64358 C18.2562176,17.5599591 18.2816879,17.4868754 18.3037942,17.4244043 C18.3259005,17.3619332 18.3417593,17.3196334 18.3513708,17.2971288 C18.3590599,17.279667 18.3720353,17.247754 18.3904344,17.2015405 C18.4086274,17.1552516 18.429292,17.1029415 18.4523594,17.044309 C18.4754268,16.9856012 18.5008971,16.9231301 18.5287703,16.8568204 C18.5567121,16.7908117 18.5830749,16.726459 18.6082019,16.6639879 C18.6331229,16.6016673 18.6561904,16.545368 18.6773355,16.4953911 C18.6985493,16.4454895 18.7148887,16.4067273 18.7264225,16.3792551 C18.7649368,16.2918708 18.8116209,16.1963577 18.8664061,16.0927159 C18.9212599,15.9890741 18.9817432,15.8860344 19.0481307,15.7835968 C19.1145182,15.6812345 19.1857115,15.5826355 19.2615731,15.4876493 C19.3376407,15.3928137 19.4154933,15.30844 19.4953368,15.2348295 C19.5751116,15.1611437 19.6559163,15.1023606 19.7377508,15.0587061 C19.8193793,15.0150516 19.8987422,14.9931491 19.9757709,14.9931491 C20.0198462,14.9931491 20.0516326,15.0019552 20.0709241,15.0192665 C20.0901469,15.0369541 20.0997584,15.0605878 20.0997584,15.0906191 C20.0997584,15.140596 20.0766909,15.2054003 20.0304188,15.2853332 C19.9843526,15.3653414 19.9261348,15.4534031 19.8559713,15.5493678 C19.7857393,15.6457088 19.7093284,15.7473937 19.6266014,15.8547235 C19.5438745,15.962204 19.4659533,16.0683296 19.3928378,16.1732509 C19.3197909,16.278097 19.2573166,16.3792551 19.2054149,16.4767251 C19.1535132,16.5740445 19.1235804,16.6602998 19.1159599,16.7351146 C19.113969,16.7476088 19.1130079,16.7583719 19.1130079,16.7670276 L19.1130079,16.7951019 C19.1130079,16.9175603 19.1529639,17.0136755 19.2327388,17.0835228 C19.3125137,17.1535205 19.4255853,17.1885194 19.5717476,17.1885194 C19.7275215,17.1885194 19.8736838,17.1560043 20.0103034,17.0910494 C20.1468544,17.0261698 20.286838,16.9343448 20.4300483,16.8156496 C20.5733959,16.6970298 20.7258057,16.5553032 20.887415,16.390545 C20.9308724,16.3461379 20.9761834,16.3003006 21.0228675,16.2534097 L20.4595691,21.612603 C20.3591983,21.8928198 18.4365692,22.5827869 15.9014175,22.5827869 C13.3674328,22.5827869 11.4455589,21.8934972 11.3434718,21.6129793 L10.9513255,17.1054253 C10.9678023,17.1185216 10.9843476,17.1317685 11.0019228,17.1435101 C11.0990669,17.208465 11.2149533,17.2409801 11.349582,17.2409801 C11.46691,17.2409801 11.5890438,17.2096692 11.7159834,17.1473487 C11.8429229,17.0848776 11.9689013,17.0042672 12.0939185,16.9056683 C12.2188671,16.806994 12.3410009,16.6959008 12.4603199,16.5722381 C12.5795703,16.4485754 12.6900331,16.3243859 12.7921202,16.1994436 C12.7574504,16.3168592 12.7184554,16.4497797 12.6752726,16.5984308 C12.6320212,16.7470067 12.5915846,16.8906902 12.5541,17.0292557 C12.5165468,17.1678964 12.4843485,17.2921612 12.4574365,17.4019749 C12.4304558,17.5118638 12.41597,17.5869044 12.4141164,17.6268709 C12.4122627,17.646666 12.4113016,17.6654825 12.4113016,17.6830196 L12.4113016,17.7354803 C12.4113016,17.8553044 12.4251695,17.9377964 12.4531113,17.9827304 C12.4809845,18.0275892 12.5256776,18.0500938 12.5871908,18.0500938 C12.6237828,18.0500938 12.6593451,18.0356427 12.6939463,18.0070415 C12.7286161,17.978365 12.7603338,17.9420113 12.7891681,17.8983568 C12.818071,17.8547023 12.8430607,17.8084134 12.8642745,17.7597161 C12.8852824,17.711094 12.9007293,17.6666868 12.9103407,17.6268709 C12.9141853,17.6142261 12.9247579,17.5744102 12.9420585,17.5068962 C12.9594277,17.4394576 12.9810534,17.3557613 13.0070729,17.2559581 C13.0329551,17.1560043 13.06227,17.044309 13.0950175,16.9206463 C13.1276963,16.7969836 13.1618169,16.6709124 13.1974479,16.5422821 C13.2330101,16.4136518 13.2676113,16.2875053 13.3012513,16.1638426 C13.3348913,16.0402552 13.3661971,15.9284846 13.3950314,15.8285308 C13.4239343,15.7287276 13.4483748,15.6457088 13.4685588,15.5793991 C13.4888115,15.5132399 13.502748,15.4739508 13.5104372,15.4614566 C13.5450383,15.3514924 13.5806006,15.2459689 13.617124,15.1448109 C13.6537161,15.0436528 13.6868756,14.9431722 13.7167396,14.8432937 C13.7465351,14.7433399 13.7711129,14.6410529 13.7902671,14.5360562 C13.8094899,14.4311349 13.8191014,14.3187621 13.8191014,14.1988628 C13.8191014,14.154004 13.8128539,14.1146397 13.8003591,14.0809203 C13.7878642,14.047201 13.7711129,14.0197287 13.7498991,13.9985036 C13.7286853,13.9772785 13.7047254,13.9616231 13.6777447,13.9516879 C13.6508327,13.9416775 13.623852,13.9366346 13.5970087,13.9366346 C13.5411938,13.9366346 13.4868205,13.9567308 13.4339577,13.996622 C13.3810262,14.0365884 13.3382553,14.1040271 13.3055764,14.1988628 L13.0372803,15.0792538 C13.0045327,15.1542192 12.9555831,15.2422809 12.8900881,15.3434389 C12.8247304,15.4445969 12.7497612,15.5501204 12.665112,15.6599341 C12.5805314,15.7698983 12.4892228,15.8785077 12.391049,15.9858376 C12.2929437,16.093318 12.1953191,16.1894332 12.098175,16.274409 C12.0010995,16.3592342 11.9073195,16.4280277 11.816972,16.4803378 C11.7264873,16.5328738 11.6457513,16.5589912 11.574558,16.5589912 C11.5111913,16.5589912 11.4587403,16.539723 11.4173425,16.5009608 C11.3760134,16.4622739 11.3432659,16.4130497 11.319306,16.3530624 C11.2952087,16.293075 11.278938,16.2263137 11.270219,16.1525527 C11.2616374,16.0790174 11.2572436,16.007138 11.2572436,15.9372155 C11.2572436,15.7273728 11.2884807,15.4907352 11.3510923,15.2273028 C11.4135666,14.9638704 11.497598,14.6965995 11.6033923,14.4255652 C11.7091867,14.1545309 11.8309086,13.8898189 11.9684207,13.6313541 C12.1059328,13.3728141 12.2496923,13.143101 12.3997679,12.9420645 C12.5497062,12.7410279 12.7012235,12.5792804 12.8541139,12.4568973 C13.0070729,12.3345141 13.1507638,12.2733225 13.2853924,12.2733225 C13.3719639,12.2733225 13.4522194,12.3001926 13.526296,12.3538576 C13.600304,12.4075978 13.6681333,12.4943047 13.7296464,12.614204 C13.7950728,12.7465976 13.8541831,12.8483578 13.9071146,12.9195598 C13.9599774,12.9907618 14.0171655,13.0262876 14.0788159,13.0262876 C14.1460959,13.0262876 14.2043137,12.993923 14.253332,12.9288928 C14.3023503,12.8640132 14.3268594,12.7752741 14.3268594,12.6629014 C14.3268594,12.6154836 14.3226029,12.5649045 14.313884,12.5111643 C14.3053024,12.4574994 14.2845691,12.4044366 14.2518903,12.3519759 C14.1095038,12.1172953 13.9566821,11.9473437 13.7932192,11.8424976 C13.6296876,11.7375763 13.4603891,11.6851156 13.2853924,11.6851156 C13.1334632,11.6851156 12.9800923,11.721394 12.8252109,11.7938003 C12.6703983,11.8662818 12.5170273,11.9667625 12.3650981,12.0953927 C12.2131002,12.224023 12.0650842,12.3776417 11.9207755,12.5561736 C11.7765354,12.7347808 11.6403963,12.9301724 11.5125643,13.1424236 C11.3846637,13.3547501 11.2663744,13.580173 11.1576966,13.8186922 C11.0490875,14.0572114 10.9533851,14.3013756 10.8706582,14.5511095 C10.8302902,14.6729658 10.7937667,14.7952737 10.7610192,14.9177321 L10.0562955,7.80701444 C10.1791158,7.8812271 10.3067419,7.92781701 10.3820543,7.95513871 C10.6977898,8.06946837 11.1435541,8.17115327 11.7069898,8.25740856 C12.8444338,8.43165028 14.354046,8.52753967 15.957713,8.52753967 C17.5613799,8.52753967 19.0709922,8.43165028 20.2085048,8.25740856 Z"/>
</svg>
