<svg xmlns="http://www.w3.org/2000/svg" width="33" height="32" viewBox="0 0 33 32">
  <g fill="none" transform="translate(8 3)">
    <path fill="#F4BF75" d="M8.88992187,12.0283291 L7.28620312,23.7476203 C7.28620312,23.7476203 4.67155078,24.7287342 2.30092969,22.6774177 L4.89814062,11.3147848 L0,1.14736709 C0,1.14736709 1.93488281,0.308962025 3.17248047,0.594379747 L7.47798438,8.90673418 L14.9385273,2.41382278 C14.9385273,2.41382278 17.4486055,3.3056962 17.6751953,4.16187342 L8.88992187,12.0283291 Z"/>
    <path fill="#AC4142" d="M18.6862031,13.1998481 C18.5641875,12.9501266 18.4073633,12.7182532 18.2330234,12.5041519 C17.884418,12.0939494 17.4660469,11.7549873 17.0128672,11.4874177 C16.5770547,11.2020759 16.0889922,10.9702025 15.6009297,10.8096456 L15.4091484,10.7561013 L15.2523242,10.702557 C15.1476758,10.6668608 15.060543,10.6133924 14.9734102,10.5776962 C14.7990703,10.4706835 14.6770547,10.3636709 14.5899219,10.220962 C14.415582,9.95339241 14.3981406,9.54311392 14.4852734,9.11506329 C14.5027891,9.00797468 14.5375977,8.90096203 14.5724805,8.79394937 C14.6073633,8.68693671 14.6422461,8.57992405 14.6771289,8.45506329 C14.7119375,8.29450633 14.7293789,8.13394937 14.7293789,7.93777215 L14.8165117,7.86637975 L15.8624023,6.97450633 C16.0541094,6.81394937 16.2458906,6.63562025 16.4375977,6.47506329 C16.5073633,6.51075949 16.5771289,6.56422785 16.6293789,6.59992405 C16.6293789,6.59992405 17.1696914,6.65346835 17.4660469,5.81506329 L17.3091484,5.70805063 L17.4137969,5.61888608 L17.6751953,5.38693671 C17.7624023,5.31562025 17.8320937,5.2264557 17.8669766,5.06589873 C17.7100781,5.04805063 17.6055039,5.10159494 17.5183711,5.17298734 L17.239457,5.38693671 L17.0476758,5.52972152 L14.6422461,3.83506329 C14.7641875,3.72805063 14.8688359,3.63888608 14.9908516,3.53187342 L15.4962812,3.06805063 L15.5486055,3.01458228 C15.6009297,3.05027848 15.6358125,3.08597468 15.6881367,3.12159494 C15.8119182,3.21113392 15.9398734,3.29447246 16.0715508,3.37131646 L16.8385273,3.79944304 C17.0825586,3.9421519 17.3440312,4.08478481 17.6055039,4.20972152 C17.7275195,4.28103797 17.8669766,4.33458228 18.0064336,4.38805063 C18.0761992,4.40589873 18.1458906,4.44159494 18.215582,4.45944304 C18.2504648,4.45944304 18.3027891,4.47721519 18.3375977,4.47721519 L18.4248047,4.47721519 C18.4596875,4.47721519 18.4944961,4.45944304 18.5293789,4.40589873 L18.5293789,4.38805063 C18.5293789,4.37020253 18.5293789,4.35235443 18.5468203,4.33458228 L18.5468203,4.26318987 C18.5468203,4.22749367 18.5293789,4.20972152 18.5119375,4.19179747 C18.4944961,4.15610127 18.4596133,4.12048101 18.4421719,4.08478481 C18.3899219,4.03131646 18.3375977,3.95992405 18.2853477,3.9243038 C18.1806992,3.81721519 18.0586836,3.72805063 17.9541094,3.63888608 C17.7275195,3.46048101 17.4834883,3.3 17.2393828,3.13944304 C16.9954258,2.97888608 16.7513945,2.83617722 16.4899219,2.71131646 C16.3679063,2.63992405 16.2284492,2.5864557 16.0889922,2.53291139 C16.0192266,2.51513924 15.9495352,2.47944304 15.8624023,2.46159494 C15.8275195,2.46159494 15.7751953,2.44374684 15.7228711,2.44374684 C15.6880625,2.44374684 15.6706211,2.44374684 15.6183711,2.46159494 C15.5834883,2.47944304 15.5311641,2.49729114 15.4788398,2.55075949 C15.3568984,2.6043038 15.2523242,2.6578481 15.1651172,2.72916456 L14.6421719,3.03243038 C14.4853477,3.15729114 14.3110078,3.3 14.1541094,3.42486076 L13.9798438,3.3 C13.9798438,3.3 13.2476758,3.37131646 13.491707,3.85291139 L13.5614727,3.9243038 C12.8641875,4.51291139 12.184418,5.11944304 11.5045742,5.70805063 C10.8073633,6.31450633 10.1275195,6.92096203 9.43030859,7.54526582 L8.40185938,8.47291139 C8.34953516,8.52637975 8.29721094,8.57992405 8.22751953,8.63339241 C8.19263672,8.52637975 8.14038672,8.43721519 8.10550391,8.34805063 L7.86147266,7.81291139 L7.39085156,6.74263291 C7.07705469,6.02908861 6.76333203,5.31562025 6.43209375,4.60207595 L5.45596875,2.47944304 L5.29907031,2.15832911 L5.50829297,2.15832911 C5.50829297,2.15832911 5.57798437,1.56972152 5.15961328,1.46263291 C5.15961328,1.46263291 5.08984766,1.46263291 4.98534766,1.48055696 C4.82844922,1.15944304 4.68899219,0.838405063 4.53209375,0.517291139 L4.46232813,0.249721519 C4.44496094,0.160556962 4.39263672,0.124860759 4.35782813,0.089164557 C4.32294531,0.0713164557 4.2880625,0.0534683544 4.27062109,0.0534683544 C4.21837109,0.0356962025 4.18348828,0.0356962025 4.13116406,0.0177721519 C4.04403125,0 3.97441406,0 3.90464844,0 C3.74775,0 3.60836719,0.0178481013 3.46891016,0.0356962025 C3.18999609,0.0713924051 2.89371484,0.124860759 2.61472656,0.196177215 C2.33588672,0.26756962 2.05697266,0.338962025 1.77805859,0.428126582 C1.63860156,0.481594937 1.49914453,0.517291139 1.37712891,0.588607595 L1.16798047,0.695696203 C1.13309766,0.713468354 1.09821484,0.749164557 1.06333203,0.767088608 L1.01108203,0.820556962 C0.993640625,0.838405063 0.993640625,0.856253165 0.976199219,0.874025316 L0.976199219,0.945417722 C0.993640625,1.01681013 1.02852344,1.03458228 1.06340625,1.05243038 C1.09828906,1.07027848 1.11565625,1.08812658 1.13317188,1.08812658 C1.18542188,1.10589873 1.22023047,1.10589873 1.25511328,1.12382278 C1.32487891,1.14159494 1.41201172,1.14159494 1.48170313,1.14159494 C1.62123438,1.14159494 1.77805859,1.12374684 1.91751563,1.10589873 C2.19642969,1.07020253 2.49271094,1.03458228 2.771625,0.981037975 L3.62573437,0.838405063 C3.76526562,0.820556962 3.90464844,0.784860759 4.06154687,0.749164557 C4.1835625,0.998886076 4.30557813,1.2664557 4.42759375,1.51625316 C3.62573437,1.58756962 2.37069531,1.69458228 1.58627734,1.78374684 C1.49914453,1.62318987 1.42945313,1.48055696 1.34224609,1.32 C1.32487891,1.2843038 1.27255469,1.24860759 1.22023047,1.2664557 C1.16798047,1.2843038 1.15046484,1.3378481 1.16798047,1.39131646 C1.22023047,1.53410127 1.27255469,1.65888608 1.32487891,1.80159494 C1.08077344,1.83729114 0.923949219,1.87298734 0.906507813,1.90868354 C0.819375,2.06916456 1.08077344,2.90756962 1.42945313,3.12159494 C1.42945313,3.12159494 1.56891016,3.06805063 1.81294141,3.01450633 L2.17898828,3.87075949 L3.22480469,6.29665823 L4.2880625,8.72263291 C4.63666797,9.52534177 5.00278906,10.3279747 5.36883594,11.1485316 C5.36883594,11.1485316 5.36883594,11.1663797 5.38620313,11.1663797 L5.22937891,11.701519 L4.81100781,13.1998481 C4.54953516,14.1987342 4.30550391,15.2155443 4.06139844,16.2144304 L3.69542578,17.7306076 L3.34682031,19.2468608 C3.10278906,20.2635949 2.876125,21.262481 2.59721094,22.2613671 C2.59721094,22.2792152 2.59721094,22.3149114 2.61465234,22.3327595 C2.75418359,22.5289367 2.94589063,22.6716456 3.12015625,22.8143544 C3.3119375,22.9570633 3.50364453,23.0640759 3.69535156,23.1710886 C4.09635547,23.3851899 4.51472656,23.5456709 4.95039063,23.6883797 C5.38620313,23.8132405 5.83945703,23.902481 6.31007813,23.9202532 C6.53666797,23.9381013 6.78069922,23.9202532 7.00736328,23.884557 C7.23395313,23.8489367 7.46054297,23.8132405 7.70457422,23.7419241 C7.77433984,23.7240759 7.82658984,23.6527595 7.84410547,23.5813671 L7.84410547,23.563519 C8.0358125,22.582481 8.19263672,21.583519 8.36697656,20.602481 L8.85503906,17.6235949 C9.0119375,16.6247089 9.18620313,15.6435949 9.34310156,14.6447089 C9.36054297,14.5376203 9.37798438,14.4128354 9.39542578,14.3058228 C9.43030859,14.341519 9.44767578,14.3949873 9.48255859,14.4306835 C9.65689844,14.6447089 9.86604688,14.8231139 10.0751953,14.9835949 C10.4935664,15.2868608 10.9468203,15.5187342 11.4,15.6971392 C11.8531797,15.8755443 12.323875,16.0181772 12.7944961,16.1252658 C13.108293,16.1965823 13.4045742,16.2501266 13.7183711,16.2857468 C13.5788398,16.6068608 13.491707,16.9457468 13.5091484,17.3203291 C13.5091484,17.3560253 13.5265898,17.3917215 13.5614727,17.4095696 L13.5789141,17.4095696 C13.9100781,17.5878987 14.2587578,17.7306076 14.6421719,17.8198481 C15.008293,17.8911646 15.4091484,17.9268608 15.7926367,17.8733165 C16.1935664,17.8198481 16.5944961,17.6592911 16.908293,17.3917215 C17.2220156,17.1241519 17.4486055,16.7674177 17.5881367,16.3928354 L17.6055039,16.3749873 L17.6055039,16.3571392 L17.6578281,15.8755443 L17.6578281,15.8576962 C17.8320938,15.7506076 18.0064336,15.6435949 18.1806992,15.5008861 C18.3899219,15.322557 18.5816289,15.1263038 18.7210859,14.8765823 C18.8606172,14.6268608 18.9476758,14.3236709 18.9303086,14.0204051 C18.9128672,13.7349873 18.808293,13.4495696 18.6862031,13.1998481 L18.6862031,13.1998481 Z M17.1174414,3.2643038 C17.3614727,3.40701266 17.5880625,3.54972152 17.8146523,3.72805063 C17.9193008,3.81729114 18.0413164,3.88860759 18.1458906,3.99562025 C18.1981406,4.04916456 18.2504648,4.08478481 18.2853477,4.13840506 L18.3202305,4.17402532 L18.2853477,4.17402532 C18.215582,4.15617722 18.163332,4.13832911 18.0935664,4.12048101 C17.9715508,4.06701266 17.8320937,4.01346835 17.7100781,3.95992405 C17.4660469,3.83506329 17.2046484,3.71020253 16.9779844,3.54972152 C16.7513945,3.38916456 16.5248047,3.21075949 16.3330234,3.01458228 C16.2632578,2.94318987 16.1935664,2.87179747 16.1413164,2.80048101 L16.4027891,2.90756962 C16.6293789,2.99673418 16.8733359,3.12159494 17.1174414,3.2643038 L17.1174414,3.2643038 Z M15.9321937,2.47944304 L15.9555938,2.50294304 L15.9555938,2.54984304 C15.9555938,2.54984304 15.9555938,2.52644304 15.9320937,2.52644304 L15.9320937,2.47944304 L15.9321937,2.47944304 Z M3.50357031,0.481518987 C3.2596875,0.606455696 2.98069922,0.695696203 2.719375,0.767088608 C2.44046094,0.838481013 2.17898828,0.891949367 1.90007422,0.909797468 C1.76061719,0.92764557 1.62116016,0.92764557 1.48170313,0.92764557 C1.4119375,0.92764557 1.34224609,0.92764557 1.28999609,0.909797468 L1.23767188,0.909797468 C1.25511328,0.909797468 1.25511328,0.891949367 1.27255469,0.891949367 C1.32487891,0.856253165 1.39457031,0.838481013 1.44689453,0.80278481 C1.56891016,0.749240506 1.70836719,0.713544304 1.83038281,0.66 C2.09178125,0.588683544 2.37069531,0.517367089 2.64960938,0.463822785 C2.92042295,0.411743689 3.19399569,0.37601109 3.46891016,0.356810127 C3.55604297,0.356810127 3.64317578,0.356810127 3.73038281,0.338962025 C3.67805859,0.392506329 3.59085156,0.428202532 3.50371875,0.481746835 L3.50357031,0.481518987 Z M15.6009297,6.5643038 L14.5201562,7.42048101 L13.4395313,8.29443038 C13.1431758,8.5441519 12.8468945,8.79387342 12.5505391,9.02582278 C12.5679805,9.00797468 12.5854219,8.97227848 12.6028633,8.95443038 C12.7422461,8.75817722 12.8817031,8.5798481 13.0211602,8.40151899 C13.3175156,8.04470886 13.5963555,7.67012658 13.9101523,7.33116456 C14.2239492,6.99227848 14.5551133,6.65339241 14.8862773,6.35012658 C15.0606914,6.18956962 15.234957,6.04686076 15.4266641,5.922 L15.5835625,5.81498734 C15.7404609,5.9398481 15.9147266,6.06470886 16.071625,6.18956962 C15.932168,6.31443038 15.7579023,6.43929114 15.6010039,6.5641519 L15.6009297,6.5643038 Z M2.823875,4.37020253 L2.91100781,4.45944304 C3.08534766,4.63777215 3.25961328,4.81617722 3.39907031,5.01235443 C3.53860156,5.20860759 3.66054297,5.42263291 3.71286719,5.63665823 C3.74775,5.81513924 3.74775,6.01131646 3.66054297,6.17179747 L3.64310156,6.11832911 L2.823875,4.37012658 L2.823875,4.37020253 Z M3.67798438,6.22534177 C3.73030859,6.17179747 3.76511719,6.10048101 3.8,6.01131646 C3.85232422,5.8864557 3.85232422,5.74374684 3.83488281,5.61888608 C3.8,5.35131646 3.67798438,5.10159494 3.52108594,4.90534177 C3.29449609,4.60207595 3.01565625,4.35243038 2.70185938,4.13832911 L2.51007813,3.72805063 C2.3880625,3.46048101 2.26604688,3.19291139 2.12658984,2.94318987 C2.3880625,2.87179747 2.70178516,2.76486076 3.05046484,2.67562025 C3.3641875,3.19291139 3.64310156,3.72805063 3.90457422,4.28103797 C4.20092969,4.97673418 4.49721094,5.70805063 4.54953516,6.45721519 C4.56697656,6.63562025 4.54953516,6.83179747 4.54953516,7.02805063 C4.54953516,7.22422785 4.54953516,7.42048101 4.56697656,7.61665823 C4.58441797,7.88422785 4.63674219,8.16964557 4.68899219,8.43721519 L3.67798438,6.22534177 Z M7.79170703,20.763038 C7.73945703,20.8344304 7.70457422,20.8878987 7.63488281,20.9413671 C7.54767578,21.0127595 7.46054297,21.0484557 7.35596875,21.0306076 C7.26883594,21.0127595 7.19907031,20.923519 7.1641875,20.8343544 C7.12930469,20.7451899 7.09449609,20.6381772 7.09449609,20.5311646 C7.07705469,20.3170633 7.07705469,20.103038 7.12937891,19.8890127 C7.16426172,19.6749114 7.23395313,19.4787342 7.32108594,19.282481 C7.37341016,19.1933165 7.42573438,19.1041519 7.49542578,19.0327595 C7.56519141,18.9613671 7.65232422,18.9078987 7.73945703,18.9257468 C7.82658984,18.9257468 7.91379688,19.0149114 7.96604688,19.1041519 C8.00092969,19.1576203 8.01837109,19.2111646 8.0358125,19.2646329 L7.82658984,20.5311646 C7.80914844,20.6203291 7.80914844,20.6916456 7.79170703,20.763038 Z M8.82015625,14.6090127 L8.50643359,16.4819241 C8.48899219,16.3571392 8.45410938,16.2322785 8.41930078,16.1074177 C8.33209375,15.7684557 8.22751953,15.4474177 8.12294531,15.1263038 C7.89635547,14.4841519 7.63488281,13.8598481 7.32108594,13.2712405 C7.51286719,13.9312405 7.73945703,14.5555443 7.96604687,15.1976962 C8.0880625,15.5187342 8.19263672,15.8398481 8.29721094,16.143038 L8.45410938,16.6247089 C8.45410938,16.642557 8.47155078,16.6781772 8.47155078,16.6961013 C8.41930078,16.981443 8.36690234,17.2668608 8.33209375,17.5700506 L8.07062109,19.1933165 C8.05317969,19.1576203 8.05317969,19.1219241 8.03573828,19.0862278 C7.98348828,18.9792911 7.91379688,18.8722025 7.77433984,18.8365823 C7.65232422,18.8008861 7.53030859,18.8722785 7.42566016,18.9435949 C7.33852734,19.0149873 7.26883594,19.1219241 7.19907031,19.2111646 C7.07705469,19.4073418 7.00736328,19.6392152 6.97248047,19.8533165 C6.93759766,20.0851899 6.92015625,20.3170633 6.97248047,20.5490127 C6.98992188,20.6560253 7.02480469,20.7808861 7.09449609,20.8878987 C7.14682031,20.9949114 7.25139453,21.1019241 7.37341016,21.1197722 C7.49542578,21.1376203 7.61744141,21.0662278 7.68713281,20.9770633 C7.72201563,20.9413671 7.75689844,20.8878987 7.79178125,20.8522025 C7.66969141,21.6906076 7.53030859,22.5289367 7.40829297,23.3851139 C7.25552904,23.4377149 7.09775061,23.4736113 6.93759766,23.4922025 C6.72844922,23.5278987 6.51930078,23.5456709 6.31007813,23.5635949 C5.87433984,23.5813671 5.45596875,23.5456709 5.02015625,23.4386582 C4.60185938,23.3494937 4.16604688,23.2067848 3.76511719,23.0283797 C3.38162891,22.8500506 3.01558203,22.6181772 2.73666797,22.2970633 C2.99814063,21.3160253 3.29449609,20.3349114 3.59085156,19.3538734 L4.04403125,17.8733165 L4.47984375,16.3749873 C4.776125,15.3760253 5.07248047,14.3771392 5.35139453,13.3782532 C5.49085156,12.8788101 5.61286719,12.3792911 5.75232422,11.8798481 C5.85689844,11.3626329 6.06604688,10.880962 5.90914844,10.3101266 L5.90914844,10.2923544 C5.89170703,10.2745063 5.87426563,10.2745063 5.87426563,10.2923544 C5.78713281,10.381519 5.73488281,10.4528354 5.66511719,10.5420759 C5.47341016,10.0961013 5.2641875,9.66797468 5.07248047,9.22207595 C5.02015625,9.06151899 4.96783203,8.90096203 4.93302344,8.72263291 C4.84589063,8.34805063 4.776125,7.97339241 4.75868359,7.59881013 C4.74131641,7.40263291 4.74131641,7.22422785 4.74131641,7.02805063 C4.74131641,6.83179747 4.75868359,6.63562025 4.74131641,6.43944304 C4.67155078,5.65450633 4.37519531,4.90534177 4.04403125,4.20972152 C3.78255859,3.65673418 3.46883594,3.13944304 3.12015625,2.64 C3.69535156,2.47944304 4.30550391,2.31888608 4.79356641,2.22972152 C4.86333203,2.39027848 4.95046484,2.53291139 5.02015625,2.69346835 L6.06604688,4.79832911 L7.1119375,6.88534177 L7.63488281,7.91992405 L7.89635547,8.43713924 C7.96612109,8.54422785 8.00092969,8.66908861 8.07062109,8.75825316 L7.39077734,9.40040506 C7.37341016,9.41825316 7.35589453,9.45394937 7.39077734,9.48964557 C7.40829297,9.52534177 7.46054297,9.52534177 7.47798438,9.50749367 C7.84403125,9.23992405 8.21007813,8.95450633 8.576125,8.66908861 L9.67433984,7.81291139 C10.4064336,7.24207595 11.1210859,6.67131646 11.8358125,6.10048101 C12.5504648,5.52964557 13.2651172,4.94103797 13.9798438,4.35235443 L13.9972109,4.33458228 C14.3806992,4.70916456 14.9559688,5.26207595 15.5660469,5.74374684 C15.3045742,5.8864557 15.0606172,6.02908861 14.8339531,6.20749367 C14.4679063,6.49291139 14.1192266,6.81394937 13.8055039,7.17075949 C13.491707,7.52749367 13.1954258,7.88422785 12.9339531,8.27665823 C12.7421719,8.54422785 12.5679063,8.82956962 12.3936406,9.13291139 C11.3303086,10.0247848 10.2843437,10.9344304 9.27341016,11.8798481 C9.23852734,11.9155443 9.23852734,11.9690886 9.25596875,12.0047089 C9.29085156,12.0404051 9.34310156,12.0582532 9.37798438,12.0404051 C9.25596875,12.3971392 9.18620313,12.7539494 9.11651172,13.1106835 C9.01186328,13.6101266 8.90736328,14.1095696 8.82015625,14.6090127 Z M16.5248047,16.9992911 C16.2806992,17.1954684 15.984418,17.3203291 15.6706211,17.3917215 C15.3568984,17.4631139 15.008293,17.4631139 14.6770547,17.4274177 C14.363332,17.3917215 14.0320938,17.3381772 13.7183711,17.2489367 C13.6834883,16.9635949 13.7358125,16.642557 13.8578281,16.3571392 C13.9798438,16.3749873 14.084418,16.3749873 14.2064336,16.3928354 C14.2586836,16.3928354 14.2935664,16.3749873 14.3110078,16.321443 C14.3284492,16.2678987 14.3110078,16.1965823 14.2412422,16.1787342 C14.1541094,16.143038 14.084418,16.1252658 13.9972109,16.0895696 C14.0669766,15.9647089 14.1541094,15.8576962 14.2413164,15.7506076 C14.3458906,15.6435949 14.4504648,15.5365823 14.5550391,15.4474177 C14.7816289,15.5901266 15.008293,15.6971392 15.2697656,15.7863038 C15.5660469,15.8755443 15.8798437,15.9111646 16.2110078,15.8755443 C16.5248047,15.8398481 16.8559687,15.6792911 17.0651172,15.4117215 C17.2568984,15.1798481 17.3440312,14.9122785 17.3614727,14.6268608 C17.3963555,14.7339494 17.3963555,14.8587342 17.3789141,14.9658228 C17.3614727,15.1084557 17.3440312,15.2690127 17.3091484,15.4117215 L17.2568984,15.6792911 L16.9954258,15.8398481 C16.8907773,15.9112405 16.8036445,15.982557 16.7165117,16.143038 C16.8734102,16.1965823 16.9954258,16.1787342 17.1174414,16.143038 C17.1348828,16.143038 17.1348828,16.1252658 17.1523242,16.1252658 C17.1348828,16.1787342 17.1348828,16.2144304 17.1174414,16.2678987 C16.9779844,16.5533165 16.7688359,16.803038 16.5248047,16.9992911 L16.5248047,16.9992911 Z M18.2503906,14.662557 C18.163332,14.8587342 18.023875,15.0371392 17.8669766,15.1976962 C17.7972109,15.2690886 17.7100781,15.3404051 17.6403867,15.3938734 C17.6403867,15.2333165 17.6229453,15.0728354 17.5880625,14.9122785 C17.5706211,14.8231139 17.5531797,14.7517215 17.5182969,14.662557 C17.4834883,14.5911646 17.4486055,14.502 17.3614727,14.4485316 C17.3440313,14.4485316 17.3265898,14.4485316 17.3265898,14.4663038 C17.2220156,14.7338734 17.0476758,14.9658228 16.8559687,15.1263038 C16.6641875,15.2868608 16.4201563,15.3582532 16.176125,15.3760253 C15.9320938,15.3938734 15.6706953,15.3403291 15.4091484,15.2690127 C15.1476758,15.1976203 14.8862031,15.1084557 14.6248047,15.0192911 L14.5899219,15.001443 C14.5375977,14.9835949 14.4679063,15.001443 14.4330234,15.0371392 C14.2935664,15.2155443 14.1889922,15.3760253 14.0669766,15.5544304 C13.9798438,15.6971392 13.9100781,15.822 13.8403867,15.9647089 C13.5265898,15.8398481 13.2303086,15.7328354 12.9165117,15.6079747 C12.4806992,15.4295696 12.0449609,15.2511646 11.6440312,15.0371392 C11.2256602,14.840962 10.8248047,14.6090127 10.476125,14.341443 C10.1275195,14.0738734 9.81379687,13.7885316 9.65689844,13.4317215 L9.65689844,13.4139494 C9.62348507,13.3440772 9.56828001,13.2875849 9.5,13.2533924 C9.5,13.2176962 9.51744141,13.1641519 9.51744141,13.1285316 C9.56969141,12.7004051 9.63945703,12.2722785 9.60457422,11.8263797 C11.0165117,10.8096456 12.3935664,9.73929114 13.7531797,8.63346835 L13.7009297,8.79394937 C13.6137969,9.06151899 13.5789141,9.36478481 13.5789141,9.66797468 C13.5963555,9.97124051 13.6834883,10.3101266 13.8751953,10.5955443 C14.0669766,10.880962 14.3284492,11.0949873 14.5899219,11.2198481 C14.7185164,11.2857307 14.8527157,11.3394724 14.9908516,11.3804051 L15.2,11.4339494 L15.3743398,11.4696456 C15.8275195,11.5945063 16.263332,11.7728354 16.6642617,12.0047089 C17.0651172,12.2366582 17.4486055,12.522 17.7624023,12.8431139 C18.076125,13.1641519 18.3201562,13.5745063 18.3550391,13.9847089 C18.3724805,14.2701266 18.3375977,14.4841519 18.2503906,14.662557 L18.2503906,14.662557 Z"/>
    <path fill="#3F3E29" d="M6.676125,18.7651899 C6.53666797,18.961443 6.43209375,19.1933165 6.37984375,19.4251899 C6.34496094,19.5500506 6.32751953,19.6749114 6.32751953,19.7819241 L6.31007813,20.1387342 C6.27519531,20.602481 6.29263672,21.1019241 6.43209375,21.5657468 C6.571625,22.0294937 6.76333203,22.4576203 6.98992188,22.8678987 C6.92015625,22.6359494 6.83302344,22.4219241 6.76333203,22.2078987 C6.69356641,21.9937975 6.62380078,21.7619241 6.57155078,21.5300506 C6.46690234,21.0840759 6.46690234,20.6203291 6.48441797,20.1565063 L6.50185938,19.7997722 C6.50185938,19.6927595 6.51930078,19.5678987 6.53674219,19.4608861 C6.58899219,19.2468608 6.676125,19.0327595 6.78069922,18.8365823 C6.90278906,18.6403291 7.04217188,18.462 7.21651172,18.301443 C7.37996974,18.1352209 7.56827486,17.9967238 7.77433984,17.8911646 C7.33852734,18.0695696 6.93759766,18.3549114 6.676125,18.7651899 L6.676125,18.7651899 Z"/>
  </g>
</svg>
