<svg xmlns="http://www.w3.org/2000/svg" width="33" height="32" viewBox="0 0 33 32">
  <path fill="#D28445" d="M2.99437255,0.107777778 C1.68418627,0.0739811111 0.0661078431,0.779888889 0.0661078431,0.779888889 L5.41652941,11.9621111 L2.57939216,24.4587778 C5.16892157,26.7148889 8.02503922,25.6357778 8.02503922,25.6357778 L9.33932353,15.9657778 C9.50533725,16.1277778 9.6814451,16.2762111 9.85890098,16.4133333 C10.4292402,16.8295667 11.0471167,17.1476667 11.6648422,17.3925111 C12.2827078,17.6373556 12.9245578,17.8332444 13.5662245,17.9801444 C13.9939735,18.07808 14.3977167,18.1515667 14.825401,18.2005333 C14.6352951,18.6412444 14.5165706,19.1063222 14.5403284,19.6205333 C14.5403284,19.6695022 14.5641704,19.7183922 14.6117012,19.7428778 L14.6352951,19.7428778 C15.086802,19.9877222 15.5620559,20.1837889 16.0848147,20.3062222 C16.5838588,20.4041567 17.1305265,20.4532 17.6533931,20.3797578 C18.1999637,20.3063067 18.7464912,20.0858467 19.1743049,19.71858 C19.6020539,19.3513133 19.9109922,18.8616022 20.101098,18.3474689 L20.1248979,18.3229556 L20.1248979,18.2986622 L20.1962707,17.6377178 L20.1962707,17.6129889 C20.4339138,17.4660889 20.6715138,17.3192667 20.909157,17.1234111 C21.1943158,16.8785667 21.4557275,16.6091333 21.6458334,16.2663667 C21.8359393,15.9235889 21.9546638,15.5073222 21.9308952,15.0911444 C21.9071363,14.6994 21.7643854,14.3078889 21.5980266,13.9651444 C21.4316785,13.6223667 21.2179442,13.3038556 20.9803011,13.0100556 C20.5050148,12.4469222 19.9346972,11.9818778 19.3168207,11.6146111 C18.7227236,11.2228667 18.0573207,10.9043778 17.3919285,10.6840222 L17.1304413,10.6104867 L16.916955,10.5371689 C16.7743648,10.4882011 16.6553168,10.4147689 16.536506,10.3658022 C16.2988628,10.2188911 16.1323423,10.0718689 16.0135315,9.87600222 C15.7758883,9.50873556 15.7521844,8.94583556 15.871006,8.35822444 C15.8947649,8.21132444 15.9424359,8.06434667 15.9899677,7.91744667 C16.037491,7.77053556 16.0849722,7.62354667 16.1324932,7.45215778 C16.1666116,7.29392444 16.1878664,7.13516889 16.1974946,6.95885778 L19.3735828,4.09552444 C19.1260505,3.15385778 16.3839554,2.17285778 16.3839554,2.17285778 L8.23435735,9.31385778 L3.53131814,0.171968889 C3.36232794,0.132734444 3.18128088,0.112891111 2.99409755,0.108062222 L2.99437255,0.107777778 Z M14.7061373,8.30366667 C14.6573771,8.56535556 14.63583,8.84096667 14.63583,9.11694444 C14.6595889,9.53317778 14.7784525,9.99873333 15.0398535,10.3905 C15.3012653,10.7822444 15.6575682,11.0759444 16.0140114,11.2473333 C16.2041173,11.3452656 16.3944388,11.4187556 16.5607976,11.4677222 L16.8460751,11.54104 L17.0835673,11.5900644 C17.7014329,11.7614533 18.2954006,12.0062644 18.8419496,12.3245533 C19.3885094,12.6428422 19.9113437,13.0345978 20.3391359,13.4753311 C20.7668849,13.9160422 21.0996565,14.47922 21.1471937,15.0423311 C21.1709526,15.4340756 21.1232698,15.7278644 21.0044418,15.9726978 C20.8856202,16.24202 20.6955467,16.4868311 20.4816829,16.7071867 C20.3866246,16.8051222 20.2678731,16.9029311 20.1728202,16.9763867 C20.1728202,16.7560311 20.1491831,16.5357867 20.1016599,16.3154422 C20.0779021,16.19302 20.0540224,16.0951311 20.006497,15.9727089 C19.9589694,15.8747733 19.9116187,15.7524533 19.7928058,15.6789978 C19.7690469,15.6789978 19.7450108,15.6788867 19.7450108,15.70329 C19.6024314,16.0705567 19.3648961,16.3890011 19.1035059,16.6093567 C18.8421049,16.8297122 18.5094088,16.9276011 18.1767127,16.95209 C17.8440167,16.9765733 17.4874118,16.9031711 17.1309686,16.8052344 C16.7745039,16.7072978 16.4183088,16.5847122 16.0618549,16.46229 L16.0140567,16.4377778 C15.9427659,16.4132944 15.8480969,16.438 15.8005704,16.48702 C15.6104645,16.7318644 15.4677233,16.9519422 15.3013861,17.1967756 C15.1825645,17.3926533 15.0875871,17.5642533 14.9925233,17.7601089 C14.5647743,17.58872 14.1606106,17.4416867 13.7329155,17.2703089 C13.1388076,17.0254644 12.544592,16.7808311 11.9980429,16.48702 C11.4277037,16.2176978 10.8814351,15.8991756 10.4061704,15.5319311 C10.063488,15.2671311 9.74682824,14.9889756 9.51592529,14.6711644 L9.77741255,12.7469422 L14.7061373,8.30366667 Z" transform="translate(6 3)"/>
</svg>
