<svg xmlns="http://www.w3.org/2000/svg" width="33" height="32" viewBox="0 0 33 32">
  <g fill="none" transform="translate(5 4)">
    <rect width="18" height="18" x="3" y="3" fill="#F7941E"/>
    <polygon fill="#FDB813" points="0 0 .75 6 3 12 12 3 6 .75"/>
    <polygon fill="#FAA61A" points="0 24 6 23.25 12 21 3 12 .75 18"/>
    <polygon fill="#F36F21" points="24 24 23.25 18 21 12 12 21 18 23.25"/>
    <polygon fill="#F58220" points="24 0 18 .75 12 3 21 12 23.25 6"/>
    <polygon fill="#FFCB08" points="0 0 12 3 6 0"/>
    <polygon fill="#FFF200" points="0 0 0 6 3 12"/>
    <polygon fill="#FFF200" points="0 24 3 12 0 18"/>
    <polygon fill="#F4813C" points="0 24 6 24 12 21"/>
    <polygon fill="#F7941E" points="24 24 12 21 18 24"/>
    <polygon fill="#F15922" points="24 24 24 18 21 12"/>
    <polygon fill="#F15922" points="24 0 21 12 24 6"/>
    <polygon fill="#FFCB08" points="24 0 18 0 12 3"/>
  </g>
</svg>
