<svg xmlns="http://www.w3.org/2000/svg" width="32" height="32" viewBox="0 0 32 32">
  <path fill="#D28445" fill-rule="evenodd" d="M6,5 L7.81770099,25.7116117 L16,28 L24.182299,25.7116117 L26,5 L6,5 L6,5 Z M9.77468265,9.91262136 L9.72002821,9.24271845 L16.001763,9.24271845 L16.001763,11.7829903 L12.47567,11.7829903 L12.6960508,14.3786408 L16.001763,14.3786408 L16.001763,16.9189126 L10.4093794,16.9189126 L9.7764457,9.91262136 L9.77468265,9.91262136 Z M21.75811,15.0485437 L21.151622,21.7475728 L21.1234133,22.1655922 L16,23.6179417 L10.8765867,22.1655922 L10.5186883,18.1747573 L13.0257405,18.1747573 L13.1914669,20.2130485 L16.001763,20.9669126 L18.7838505,20.2130485 L19.0870945,16.9189126 L16.001763,16.9189126 L16.001763,14.3786408 L21.8145275,14.3786408 L21.7598731,15.0485437 L21.75811,15.0485437 Z M22.1988717,9.91262136 L22.0877997,11.1970485 L22.0331453,11.7829903 L16,11.7829903 L16,9.24271845 L22.2535261,9.24271845 L22.1988717,9.91262136 L22.1988717,9.91262136 Z"/>
</svg>
