<svg xmlns="http://www.w3.org/2000/svg" width="33" height="32" viewBox="0 0 33 32">
  <g fill="#6A9FB5">
    <path d="M26.6687692,8.89253846 C26.8657308,8.59888462 26.9807692,8.24557692 26.9807692,7.86538462 C26.9807692,6.84567308 26.1540385,6.01923077 25.1346154,6.01923077 C24.7544231,6.01923077 24.4011154,6.13426923 24.1074038,6.33128846 C22.1178269,4.86625 19.6601923,4 17,4 C10.3725962,4 5,9.37259615 5,16 C5,22.6275192 10.3725962,28 17,28 C23.6272885,28 29,22.6275192 29,16 C29,13.33975 28.1336923,10.8821154 26.6687692,8.89253846 Z M24.8363462,23.8364615 C23.8183077,24.8545 22.6330192,25.6537115 21.3134231,26.2118846 C19.9477308,26.7895 18.4965385,27.0824038 17,27.0824038 C15.5034615,27.0824038 14.0522115,26.7895 12.6865192,26.2118846 C11.3669231,25.6537115 10.1816923,24.8545577 9.16359615,23.8364615 C8.1455,22.8183654 7.34628846,21.6331346 6.78817308,20.3135385 C6.2105,18.9478462 5.91759615,17.4965385 5.91759615,16 C5.91759615,14.5034615 6.2105,13.0522115 6.78811538,11.6865192 C7.34623077,10.3669231 8.14544231,9.18169231 9.16353846,8.16359615 C10.1816346,7.1455 11.3668654,6.34628846 12.6864615,5.78817308 C14.0522115,5.2105 15.5034615,4.91759615 17,4.91759615 C18.4964808,4.91759615 19.9477308,5.2105 21.3134231,5.78811538 C22.0891538,6.11621154 22.8180385,6.52830769 23.4943077,7.01851923 C23.3630577,7.27225 23.2884615,7.56001923 23.2884615,7.86538462 C23.2884615,8.88509615 24.1150192,9.71153846 25.1346154,9.71153846 C25.4399808,9.71153846 25.7276923,9.63694231 25.9814231,9.50569231 C26.4716923,10.1819038 26.8837885,10.9107885 27.2118269,11.6865192 C27.7895,13.0522115 28.0824038,14.5034615 28.0824038,16 C28.0824038,17.4964808 27.7895,18.9478462 27.2118269,20.3135385 C26.6536538,21.6331346 25.8545,22.8184231 24.8363462,23.8364615 Z"/>
    <circle cx="17" cy="16" r="5.538"/>
  </g>
</svg>
