<svg xmlns="http://www.w3.org/2000/svg" xmlns:xlink="http://www.w3.org/1999/xlink" width="33" height="32" viewBox="0 0 33 32">
  <defs>
    <rect id="jenkins-a" width="25.546" height="25.789" x=".159"/>
  </defs>
  <g fill="none" fill-rule="evenodd" transform="matrix(1 0 0 -1 3.981 27)">
    <mask id="jenkins-b" fill="#fff">
      <use xlink:href="#jenkins-a"/>
    </mask>
    <g mask="url(#jenkins-b)">
      <g transform="translate(2.238 -11.919)">
        <g transform="translate(.454 4.43)">
          <polyline fill="#F0D6B7" fill-rule="nonzero" points="14.971 14.152 13.079 13.865 10.525 13.579 8.87 13.531 7.262 13.579 6.032 13.961 4.944 15.155 4.093 17.59 3.903 18.115 2.768 18.497 2.106 19.595 1.633 21.171 2.153 22.556 3.383 22.986 4.376 22.508 4.849 21.458 5.417 21.553 5.606 21.792 5.417 22.89 5.37 24.275 5.653 26.185 5.642 27.276 6.505 28.668 8.018 29.766 10.667 30.912 13.6 30.482 16.154 28.62 17.336 26.71 18.093 25.325 18.282 21.887 17.715 18.927 16.674 16.301 15.681 14.916"/>
          <polyline fill="#335061" fill-rule="nonzero" points="13.364 5.892 6.6 5.605 6.6 4.459 7.168 .448 6.884 .114 2.154 1.737 1.823 2.31 1.35 7.706 .262 10.953 .025 11.717 3.809 14.343 4.992 14.821 6.032 13.531 6.931 12.72 7.972 12.385 8.445 12.242 9.012 9.759 9.438 9.234 10.526 9.616 9.769 8.136 13.884 6.178 13.364 5.891"/>
          <polyline fill="#6D6B6D" fill-rule="nonzero" points="2.154 22.556 3.384 22.986 4.377 22.508 4.85 21.458 5.418 21.553 5.56 22.126 5.276 23.224 5.56 25.851 5.323 27.283 6.174 28.286 8.019 29.766 7.499 30.482 4.897 29.193 3.809 28.334 3.195 26.997 2.249 25.707 1.965 24.179 2.154 22.556"/>
          <path fill="#DCD9D8" fill-rule="nonzero" d="M4.09308969 27.0436481C4.09308969 27.0436481 4.80256866 28.8102595 7.64048452 29.6698159 10.4784912 30.5293112 7.78238183 30.2906576 7.78238183 30.2906576L4.70806375 29.0968241 3.5254929 27.9031282 3.00530515 26.9480859 4.09309423 27.0436329M2.67416202 22.8901946C2.67416202 22.8901946 1.68088239 26.2328122 5.46481559 26.7102417L5.32291829 27.2832335 2.72152567 26.6623918 1.96464826 24.1794834 2.15393947 22.5559787 2.67412722 22.8901794"/>
        </g>
        <g transform="translate(1.967 18.022)">
          <path fill="#F7E4CD" fill-rule="nonzero" d="M2.67491846 4.85661584L3.29422993 5.46241372C3.29422993 5.46241372 3.57374915 5.42961068 3.62098118 5.09540696 3.66820414 4.76106885 3.81010598 1.75278945 5.84400318.129284736 6.0295122-.0188344874 4.33052067.368228586 4.33052067.368228586L2.81688687 2.75552889M11.3781993 5.76382356C11.3781993 5.76382356 11.4884533 7.21120168 11.8745593 7.0998931 12.2606607 6.9885891 12.2606607 6.59880593 12.2606607 6.59880593 12.2606607 6.59880593 11.3230096 5.98642545 11.3781993 5.76380828M15.3042674 11.0639632C15.3042674 11.0639632 14.5246817 10.8977945 14.4528805 10.2044679 14.3810808 9.51100378 15.3042674 10.0612192 15.4461601 10.1089209M9.58059845 11.0161591C9.58059845 11.0161591 8.53992037 10.8729104 8.53992037 10.2045137 8.53992037 9.53597491 9.72252147 9.58367204 10.0535542 9.87017557"/>
          <g fill="#F7E4CD" fill-rule="nonzero" transform="translate(0 5.04)">
            <path d="M3.14784392 2.87251897C3.14784392 2.87251897 1.35039433 3.9708054 1.16128466 2.92022069.972114475 1.86978412.546300014 1.10565253 1.44508532.00753410043L.830221708.198490633.262635509 1.67867486.0735107108 3.11116195 1.16129979 4.25729824 2.39108754 4.16175124 3.1005665 3.58875946 3.14784695 2.87252355M3.9992913 5.88066091C3.9992913 5.88066091 4.80338561 10.0825294 8.87121025 10.8942817 12.2201156 11.5625303 13.9794407 10.7510345 14.6416271 9.98708929 14.6416271 9.98708929 11.6618638 13.5681161 8.82385719 12.4699977 5.98585056 11.3717112 3.90488775 9.36624764 3.95208952 8.0772185 4.03263058 5.88143983 3.99936997 5.88067619 3.99936997 5.88067619M14.9729472 9.51040814C14.9729472 9.51040814 13.6013726 9.55810986 13.5539742 8.31657472 13.5539742 8.31657472 13.5538319 8.12561819 13.6484776 7.93467693 13.6484776 7.93467693 14.7365389 9.17620748 15.3985741 8.50766871"/>
            <path d="M8.96652153,7.80443 C8.96652153,7.80443 8.73039163,9.71002439 7.12096244,8.60217715 C6.08040539,7.88594124 6.17508126,6.88321708 6.36419093,6.69230636 C6.55336111,6.50121237 6.50193085,6.11659601 6.64593408,6.38060262 C6.78987377,6.64460923 6.74248137,7.50410454 7.26284008,7.7427582 C7.78314886,7.98154932 8.63607886,8.24828977 8.96649127,7.80449873"/>
          </g>
        </g>
        <g transform="translate(.454 6.11)">
          <path fill="#49728B" d="M6.03244718 11.851279L1.5864032 9.84580009C1.5864032 9.84580009 3.43105456 2.44457351 2.48500696.152575843L1.82280541.391229509 1.77552497 3.20846074.54590364 8.55625167.0255343441 10.0365733 4.660688 13.187822 6.03238364 11.8510346M6.48963872 7.75766146L7.1204178 6.98071594 7.1204178 4.11568067 6.36354039 4.11568067C6.36354039 4.11568067 6.26903699 6.12115954 6.26903699 6.36002703 6.26903699 6.5987876 6.36354039 7.45828291 6.36354039 7.45828291"/>
          <polyline fill="#49728B" points="6.505 3.686 4.377 3.591 4.992 3.161 6.505 2.922"/>
        </g>
        <g transform="translate(6.96 .305)">
          <polyline fill="#335061" fill-rule="nonzero" points="7.285 9.967 9.034 10.015 9.46 5.622 7.663 5.383 7.284 9.967"/>
          <path fill="#335061" fill-rule="nonzero" d="M7.75647683,9.9672193 L10.4052679,10.110468 C10.4052679,10.110468 11.493057,12.8798952 11.493057,13.0231546 C11.493057,13.1664033 12.4390894,17.0341123 12.4390894,17.0341123 L10.3106223,19.278306 L9.88492886,19.6603565 L8.74975646,18.5143729 L8.74975646,14.073637 L7.75647683,9.9672193"/>
          <path fill="#49728B" fill-rule="nonzero" d="M8.93959231,10.3015421 L7.28420191,9.96731094 L7.52060412,8.63023339 C8.13543748,8.34372986 9.17614582,9.10781563 9.17614582,9.10781563"/>
          <polyline fill="#49728B" fill-rule="nonzero" points="8.986 18.658 12.297 16.175 12.392 17.321 9.885 19.66 8.987 18.658"/>
          <polyline fill="#FFF" fill-rule="nonzero" points="1.641 .56 .662 4.572 .175 7.532 .095 9.729 4.527 9.967 7.284 9.967 7.033 4.953 7.459 1.086 7.412 .369 3.817 .083 1.641 .56"/>
          <path fill="#DCD9D8" fill-rule="nonzero" d="M6.66921726,10.0150233 C6.66921726,10.0150233 6.43281504,5.04905384 7.14229401,1.51567834 C7.14229401,1.51567834 5.72332095,0.608333173 3.64210095,0.36969478 L7.61521947,0.512943489 L8.08816006,0.799447016 L7.52057386,8.63029906 L7.37867656,10.3017605"/>
          <polyline fill="#FFF" fill-rule="nonzero" points="9.54 6.004 11.385 6.529 14.885 6.72 15.405 8.343 14.459 11.16 13.371 11.304 11.858 10.826 10.406 10.11 9.635 10.253 9.034 10.015"/>
          <path fill="#DCD9D8" fill-rule="nonzero" d="M9.50692132,6.95907736 C9.50692132,6.95907736 10.7366032,7.53196223 10.9258944,7.48421928 L10.4057066,10.1105398 L11.02054,10.3491935 C11.02054,10.3491935 11.4462334,7.86628507 11.4462334,7.57976627 C11.4462334,7.57976627 14.0948278,7.43651756 14.3314418,7.43651756 C14.3314418,7.43651756 14.899028,8.53477345 14.7571353,9.68071119 L15.2774743,8.15266183 L15.324726,7.29316653 L14.5679847,6.14718296 L13.7165979,5.95621116 L12.2976248,6.00394189 L11.8246842,6.62461553 L10.1691425,6.38596187 L9.6488035,6.19486788"/>
        </g>
        <path fill="#FFF" fill-rule="nonzero" d="M14.6083438,10.6541924 L13.567817,13.3281642 L12.4798917,14.9038649 C12.4798917,14.9038649 12.716294,15.5724037 13.0474779,15.5724037 L14.1354032,15.5724037 L15.17593,15.1903532 L15.0814266,13.4235891 L14.6083498,10.6540091"/>
        <polyline fill="#FFF" fill-rule="nonzero" points="9.026 17.864 7.716 18.008 6.486 18.39 6.486 17.96 7.087 17.292 8.979 16.432"/>
        <path fill="#DCD9D8" d="M6.91218536,17.7212489 C6.91218536,17.7212489 8.37854174,17.1004072 8.85154285,17.2436666 L8.89859636,16.6712399 L7.57446558,16.9571631 L6.77031075,17.5301549 L6.91220806,17.7212489"/>
        <path fill="#D33833" d="M16.4949018,15.4099005 C15.6923355,15.4336803 14.9671983,15.5299421 14.3323949,15.7107147 C14.3755316,15.9734384 14.2947924,16.2312747 14.3596388,16.4205054 C14.536585,16.5491426 14.8331543,16.5471373 15.100631,16.5773577 C14.8693423,16.6920996 14.5443914,16.7375089 14.2774896,16.671185 C14.2712414,16.8535429 14.1902223,16.966562 14.1411264,17.109241 C14.5923572,17.2718206 15.6576347,18.3377439 16.2567341,17.9847729 C16.5422292,17.8168783 16.6635468,16.8579873 16.6856953,16.3916611 C16.7041419,16.0048913 16.6509309,15.6146851 16.4948459,15.4098302"/>
        <path stroke="#D33833" stroke-width=".5" d="M16.4949018,15.4099005 C15.6923355,15.4336803 14.9671983,15.5299421 14.3323949,15.7107147 C14.3755316,15.9734384 14.2947924,16.2312747 14.3596388,16.4205054 C14.536585,16.5491426 14.8331543,16.5471373 15.100631,16.5773577 C14.8693423,16.6920996 14.5443914,16.7375089 14.2774896,16.671185 C14.2712414,16.8535429 14.1902223,16.966562 14.1411264,17.109241 C14.5923572,17.2718206 15.6576347,18.3377439 16.2567341,17.9847729 C16.5422292,17.8168783 16.6635468,16.8579873 16.6856953,16.3916611 C16.7041419,16.0048913 16.6509309,15.6146851 16.4948459,15.4098302 L16.4949018,15.4099005 Z"/>
        <path fill="#D33833" d="M12.656732,16.7343168 C12.6546034,16.673007 12.6520496,16.6112665 12.6496366,16.5493778 C12.3990436,16.3832091 11.9945002,16.3852099 11.7195045,16.2455549 C12.1249102,16.227649 12.4440366,16.1290932 12.7201669,15.9901469 C12.7140655,15.835723 12.708247,15.6814519 12.7022877,15.527028 C12.242963,15.209597 11.8233816,14.7368715 11.2825885,14.4391882 C11.0268971,14.298403 10.1295036,13.9361461 9.85745803,14.0001547 C9.70353789,14.0362383 9.68967993,14.2290643 9.62815121,14.4108265 C9.49706644,14.80004 9.19525648,15.4195988 9.16893242,16.0054656 C9.13540251,16.7454813 9.06140314,17.9857442 9.85137626,17.8333211 C10.488691,17.7105579 11.2299404,17.4141728 11.7234107,17.1420105 C12.0249423,16.9755516 12.1993317,16.7698568 12.6568107,16.7343321"/>
        <path stroke="#D33833" stroke-width=".5" d="M12.656732,16.7343168 C12.6546034,16.673007 12.6520496,16.6112665 12.6496366,16.5493778 C12.3990436,16.3832091 11.9945002,16.3852099 11.7195045,16.2455549 C12.1249102,16.227649 12.4440366,16.1290932 12.7201669,15.9901469 C12.7140655,15.835723 12.708247,15.6814519 12.7022877,15.527028 C12.242963,15.209597 11.8233816,14.7368715 11.2825885,14.4391882 C11.0268971,14.298403 10.1295036,13.9361461 9.85745803,14.0001547 C9.70353789,14.0362383 9.68967993,14.2290643 9.62815121,14.4108265 C9.49706644,14.80004 9.19525648,15.4195988 9.16893242,16.0054656 C9.13540251,16.7454813 9.06140314,17.9857442 9.85137626,17.8333211 C10.488691,17.7105579 11.2299404,17.4141728 11.7234107,17.1420105 C12.0249423,16.9755516 12.1993317,16.7698568 12.6568107,16.7343321 L12.656732,16.7343168 Z"/>
        <path fill="#D33833" d="M13.1128645,15.851393 C13.0427668,16.2544895 12.9617447,16.3695247 12.9931036,16.7211975 C14.0580331,17.4380137 14.257975,15.4899761 13.1128645,15.851393"/>
        <path stroke="#D33833" stroke-width=".5" d="M13.1128645,15.851393 C13.0427668,16.2544895 12.9617447,16.3695247 12.9931036,16.7211975 C14.0580331,17.4380137 14.257975,15.4899761 13.1128645,15.851393 Z"/>
        <g>
          <path fill="#EF3D3A" fill-rule="nonzero" d="M14.655243 15.5247066C14.655243 15.5247066 14.324059 16.0022888 14.5605974 16.1455482 14.7971357 16.2887969 15.0336741 16.1454049 15.175582 16.3842019 15.3174899 16.6229988 15.175582 16.7662524 15.2228337 17.0527406 15.2700854 17.3392289 15.5067705 17.3870788 15.7431727 17.4347912 15.979575 17.4824929 16.6419429 17.5780399 16.7364524 17.3392442L16.4526668 18.1987395 15.8850806 18.389696 14.0876311 17.3392594 13.9929854 16.8139648 13.9929854 15.7635282M9.68861789 13.9489005C9.63180178 14.6940937 9.57166642 15.4382637 9.50475791 16.1827086 9.4046493 17.294313 9.76925425 17.1003629 10.7237437 17.1003629 10.8695291 17.1003629 11.6213641 16.9248778 11.6751469 16.8138594 11.9331227 16.2819822 11.2437802 16.4001635 11.972276 15.9990678 12.5872607 15.6605754 13.6736579 16.2046251 13.4251526 16.9571188 13.2860935 17.124433 12.7006206 17.0092619 12.4907542 17.1191333 12.121249 17.3125182 11.751759 17.5059031 11.3822085 17.699288 10.9120818 17.9455323 9.82545765 18.3045055 9.32424138 17.9604233 8.05421109 17.0884654 9.40439967 14.9098229 9.857455 14.0001715"/>
          <g fill="#231F20" fill-rule="nonzero" transform="translate(2.874 20.313)">
            <path d="M8.05879511 10.5535443C6.76962693 10.8566494 6.12912004 10.0089142 5.73834382 9.12965581 5.38941379 9.21503109 5.52826567 9.69404898 5.61639683 9.93815505 5.84715601 10.5787598 6.77707634 11.4315198 7.53684335 11.3159195 7.86382153 11.2662125 8.30629277 10.9643841 8.05881629 10.5535596M14.3405645 9.07207714C14.3608552 9.07116077 14.3814303 9.07050404 14.401721 9.06964876 14.6930407 8.45868865 14.945192 7.81150133 15.3127001 7.2721862 15.0665096 6.69331437 13.4485327 6.18106274 13.4734951 7.22047383 13.8234085 7.37489769 14.4274702 7.25198785 14.7376555 7.44924596 14.5583038 7.94617891 14.2994808 8.36919124 14.340631 9.07213976M8.71871222 9.055277C8.99513004 8.5437432 9.08508573 8.00627608 9.47799511 7.6196437 9.65494124 7.44559422 9.9990452 7.23343896 9.8284834 6.74941157 9.78861001 6.63524239 9.49729942 6.38069426 9.3291431 6.33069092 8.71486951 6.14761518 7.28358163 6.2928738 7.76830753 7.06598736 8.27631662 7.04206548 8.95913869 6.73293216 9.33882552 7.10523707 9.04723354 7.57580907 8.52737862 8.50678135 8.71874247 9.05527547M14.1090942 3.85685461C13.1842118 3.25707424 12.1529438 2.60486215 10.6374946 2.7561398 10.3136783 3.04033713 10.1902426 3.67278614 10.5048213 4.09049878 10.6685751 3.80630146 10.5656949 3.28358792 11.0220287 3.20493271 11.8819179 3.05638432 12.8827165 3.73595468 13.5011808 3.97346288 13.8847255 4.62624007 13.4681199 4.86632938 13.1225984 5.28647041 12.4152374 6.14724864 11.4664515 7.21421044 11.5007938 8.50278139 11.7867125 8.71206535 11.8114027 8.18333431 11.8524168 8.08706949 12.2217707 7.21439371 13.151343 6.09839077 13.8297475 5.35139532 13.9963304 5.1674643 14.2706151 4.99098644 14.3011298 4.86936868 14.3891052 4.51569513 14.0722466 4.09196498 14.1089944 3.8567477M1.91651304 4.48823453C1.62661548 4.65525849 1.55761314 5.39098257 1.21727625 5.41190638.730901309 5.4417022.81958618 4.45744445.821522663 3.88187155.486738033 4.18870325.427856846 5.13343638.673808344 5.61854814.393502427 5.75749907.268342083 5.46526975.112863677 5.3622696.312684518 6.82770024 2.23633834 6.0419881 1.91651606 4.48817344M14.6976035 3.24655124C14.267084 2.41929694 13.6580752 1.50819464 12.3947016 1.4817726 12.3690175 1.74892542 12.3492941 2.1554736 12.3960632 2.31634261 13.3618085 2.41002631 13.9581091 2.90624144 14.6974523 3.24659706M8.64593223 2.7101685C9.45168617 2.28242159 10.9325057 2.23645029 12.0276776 2.26881347 12.0864226 2.02658596 12.0850035 1.7273296 12.0872744 1.43195254 10.6795117 1.36104525 9.0150743 1.71271347 8.64593223 2.71015323M8.49268834 1.9126199C9.04988107.5003388 10.9648812.662918364 12.5798778.701879423 12.5087877.518528773 12.354686.301929113 12.1631255.223579356 11.6456307.0109964571 10.2183216-.150300187 9.49985618.234896543 9.04422291.479414986 8.75149627 1.03192587 8.50185638 1.35581735 8.38130123 1.51224195 7.78100057 1.91176462 8.4927186 1.9126199"/>
          </g>
          <path fill="#81B0C4" fill-rule="nonzero" d="M16.9169946,14.4352784 C16.263129,13.3047357 15.6375089,12.1435862 14.8617507,11.1464213 C15.186974,12.1117881 15.3261738,13.7275342 15.3752818,14.9592901 C16.0556833,15.2807379 16.6383075,14.8869502 16.9170551,14.4353089"/>
          <path fill="#231F20" fill-rule="nonzero" d="M1.97733071,2.27733573 C1.24527961,2.12938909 0.730901309,1.41113564 0.0167929387,1.45724439 C0.409278712,2.0158186 1.09704789,2.25126496 1.97733071,2.27733573" transform="translate(18.457 8.095)"/>
          <path fill="#F0D6B7" fill-rule="nonzero" d="M14.5735476,18.0196866 C14.2368265,17.7977964 13.9500454,17.5207468 13.6266679,17.283819 C12.9095187,17.2480072 12.5181675,17.3339552 11.9912475,17.7496564 C11.9999027,17.7830337 12.0528307,17.768135 12.0548171,17.8091045 C12.8224813,17.4637393 13.798257,17.9497736 14.5734553,18.0196866"/>
          <path fill="#81B0C4" fill-rule="nonzero" d="M10.5438475,12.7370436 C10.7547577,13.6597074 11.5811972,14.1375646 12.3316146,14.6456925 C13.106223,13.653247 13.577333,12.3769096 14.0960835,11.1453064 C12.8703805,11.5183154 11.6179904,12.1235329 10.5436962,12.7370436"/>
          <path fill="#231F20" fill-rule="nonzero" d="M14.8534299,5.36611836 C14.822071,4.61177667 14.9269331,3.40202893 14.9619819,2.6107422 C15.4587654,2.61007019 15.6717483,2.72047004 16.0425243,2.84670784 C16.0843826,3.77781758 15.7504936,4.63928309 15.6542897,5.48952304 C15.4580392,5.54239615 15.0977626,5.34985582 14.8534178,5.36618556 L14.8534299,5.36611836 Z M7.11808797,9.65626393 C7.44567131,6.61604899 7.92012477,4.0604418 8.7904226,1.36829527 C10.7217618,0.77627351 13.0502314,0.724681799 14.7573622,1.25890038 C14.4439091,2.77835112 14.5808397,4.62824539 14.3976605,6.24961191 C14.2595953,7.46834009 14.3299759,8.69464361 14.1406831,9.93800691 C12.0721259,10.3724433 9.14818784,10.0395699 7.118209,9.65620742 L7.11808797,9.65626393 Z M14.6296753,9.91898762 C14.6122228,8.61331106 14.6875701,7.32535102 14.7863338,6.01799445 C15.2829812,6.09325756 15.6199746,6.14350831 16.0814325,6.24563638 C15.9315895,7.50419617 15.950036,8.92037185 15.6448161,10.0337631 C15.2920584,10.0303542 14.9814496,10.0379036 14.6296905,9.9189922 L14.6296753,9.91898762 Z M17.14907,10.1294476 C16.9133788,10.1839961 16.638958,10.1315675 16.4137662,10.1271551 C16.5196223,9.06280499 16.7764634,7.888307 16.8668427,6.7710975 C17.2211586,6.75996665 17.4104498,6.92866757 17.7019057,6.98540624 C17.717514,7.96609167 17.6170514,9.31726606 17.14907,10.1294766 L17.14907,10.1294476 Z M20.9637903,6.61088676 C21.7023619,6.79194648 22.166785,7.70515643 21.9601864,8.6429404 C21.8215539,9.27323594 21.5746448,10.4601049 21.3104359,10.8633084 C21.1151839,11.1615567 20.5857676,11.5520226 20.1630545,11.2787301 C19.4754215,10.8342136 18.2640909,10.7051732 17.762572,10.1671105 C18.0140123,9.32194109 18.0920616,8.16102067 18.1957845,7.09024065 C19.0548265,7.03617932 20.1118436,7.32889432 20.8262243,7.0182719 C20.3274589,6.85517306 19.6802651,6.85387486 19.2493523,6.61616811 C19.601535,6.44444011 20.4260985,6.47913699 20.9637449,6.6109112 L20.9637903,6.61088676 Z M14.0954783,11.1452453 C13.5766976,12.3768943 13.1056027,13.6532012 12.3310095,14.6456314 C11.5805315,14.137534 10.7541374,13.6596616 10.5432423,12.7369825 C11.617476,12.123426 12.8698964,11.5181932 14.0956296,11.1452453 L14.0954783,11.1452453 Z M15.3742531,14.9591832 C15.3251557,13.727412 15.1859603,12.1117117 14.860722,11.1463144 C15.636465,12.1435098 16.2621003,13.3046746 16.9159659,14.4351715 C16.6372787,14.8868051 16.0546545,15.2806005 15.3741926,14.9591527 L15.3742531,14.9591832 Z M13.9246291,15.4791782 C13.6307678,15.5111229 13.3813095,15.1381047 12.9991718,15.2994014 C12.9116216,15.2017055 12.832014,15.0958447 12.7427693,15.0004352 C13.5867733,13.9736105 13.970318,12.5167632 14.6222169,11.3100547 C14.9719941,12.4691882 14.9316911,13.7390499 15.0087419,15.0042534 C14.528131,14.9734557 14.2615166,15.4430273 13.9246442,15.4791171 L13.9246291,15.4791782 Z M12.9925151,16.7211364 C12.9611562,16.3694636 13.0421798,16.2544284 13.112276,15.8513319 C14.257388,15.489915 14.0574461,17.4378763 12.9925151,16.7211364 Z M11.7226815,17.1419952 C11.2292565,17.4141728 10.4880223,17.7105426 9.85064706,17.8333058 C9.06068302,17.9858649 9.13467785,16.7454813 9.16820321,16.0054503 C9.19452425,15.4195682 9.49634631,14.8000095 9.627422,14.4108113 C9.6889477,14.2290643 9.70281171,14.0362292 9.85672882,14.0001394 C10.1287744,13.9361217 11.0261528,14.2983878 11.2818593,14.439173 C11.8226524,14.7368562 12.242249,15.2095817 12.7015737,15.5270128 C12.7075329,15.6814366 12.7133514,15.8357077 12.7194529,15.9901316 C12.4433225,16.1290825 12.1241961,16.2276398 11.7187904,16.2455396 C11.9937861,16.3852068 12.3983295,16.3832015 12.6489225,16.5493625 C12.6513355,16.6112451 12.6538893,16.6729856 12.6560179,16.7343016 C12.1985389,16.7698278 12.0241495,16.9755363 11.722618,17.1419799 L11.7226815,17.1419952 Z M7.00976595,18.0062098 C6.60024518,17.5864965 8.15835757,17.01436 8.65441493,16.9835546 C8.65164788,17.2491343 8.80434259,17.4995328 8.77357974,17.6900617 C8.18437452,17.7944899 7.41005363,17.7255879 7.00971603,18.0062098 L7.00976595,18.0062098 Z M12.0544555,17.8090983 C12.0524691,17.7681289 11.9995411,17.7830276 11.9908859,17.7496503 C12.5177455,17.3339384 12.9090966,17.247998 13.6263063,17.2838129 C13.9496839,17.5207407 14.2364649,17.7977903 14.573186,18.0196744 C13.7980028,17.949769 12.8221818,17.4637271 12.0545478,17.8090922 L12.0544555,17.8090983 Z M16.6847679,16.391655 C16.662633,16.8579353 16.5413109,17.8168264 16.2558067,17.9847667 C15.6565711,18.3378752 14.591339,17.2718145 14.140199,17.1092349 C14.1892949,16.966559 14.2703186,16.8535368 14.2765622,16.6711789 C14.543464,16.7375028 14.868415,16.6920935 15.0997036,16.5773516 C14.8322269,16.5471266 14.5356576,16.5491319 14.3587114,16.4204993 C14.293865,16.2312686 14.3746042,15.973417 14.3314675,15.7107086 C14.9663163,15.5299238 15.6914081,15.4336589 16.4939744,15.4098944 C16.650058,15.6147339 16.7032659,16.0049554 16.6848239,16.3917253 L16.6847679,16.391655 Z M6.32034774,17.600242 C6.19174711,17.6927803 5.3218033,18.8354649 5.20261882,18.7880579 C3.62846993,18.1613515 2.15659155,17.0776507 0.84129597,16.0526892 C2.0953654,13.3361061 2.60152878,10.0078451 2.69109112,6.80008691 C4.1276892,6.12177351 5.38945917,5.14389829 7.33895294,5.0418756 C7.11336779,6.65316203 6.90745006,8.09064334 6.77940012,9.60769624 C6.28959094,9.8161402 5.58685941,9.59824234 5.12839706,9.67232945 C5.12450896,10.2299873 5.82846593,9.91652716 5.88708992,10.2915369 C5.93127653,10.5751844 5.49976306,10.5966733 5.64027911,11.0433127 C5.99861924,10.9118104 6.18680606,10.621339 6.56897401,10.5122755 C6.91817636,11.2835242 6.56409346,12.6481846 6.61442387,13.2926991 C6.62395953,13.4137289 6.67428994,13.9632234 6.94283928,13.8668058 C7.18051232,13.7814733 6.9292597,12.4054072 6.95531145,11.7953482 C6.97903639,11.2332613 6.88806707,10.6893643 7.11355842,10.3365002 C8.99724202,10.5953446 10.9114857,10.7626587 12.9496341,10.8191225 C12.5012324,11.0133474 11.9685634,11.1971715 11.3845625,11.5294936 C11.0679626,11.7096675 10.069978,12.0845856 9.9786153,12.3881489 C9.83284503,12.8718861 10.3610707,13.1295545 10.4514197,13.5442584 C9.50056118,13.0207354 9.31503703,14.0460786 9.09010243,14.7724863 C8.88630272,15.4304257 8.77028015,15.9219062 8.72027956,16.3012993 C7.90116237,16.6955223 7.02540305,17.0947547 6.3204022,17.600271 L6.32034774,17.600242 Z M15.8528367,18.6498233 C17.1643955,19.2918637 17.4008128,16.2503047 16.8866917,15.2703982 C16.9661541,14.9781674 17.2394493,14.8662937 17.3509786,14.60357 C16.6190788,13.2799631 15.8061796,12.0444501 15.059272,10.7364826 C15.6148006,11.0855895 16.4082896,10.7989241 17.062019,11.0602366 C17.300978,11.15564 17.4739453,11.7078821 17.6548703,12.1496495 C18.152501,13.3650787 18.6749732,14.8973892 18.9073966,16.0573627 C18.959898,16.3216595 19.102936,16.8975073 19.070863,17.1327246 C19.0136793,17.5538736 18.4476483,17.8661577 18.1597477,18.1265752 C17.6293329,18.6076091 17.2953047,19.0308964 16.7420606,19.4806973 C16.517716,19.1463592 16.0362579,18.9217413 15.8527913,18.6498539 L15.8528367,18.6498233 Z M3.3207658,30.3915959 C2.69581129,29.697414 2.8266298,28.3966553 2.9022888,27.4712729 C4.03190893,28.1886542 5.53121578,27.4145464 5.51714602,26.1943551 C6.05647167,26.2088231 5.71863103,26.8743485 5.62107162,27.3031034 C5.30226297,28.7035023 6.15817334,30.2249537 5.65987995,31.5055828 C4.69236462,31.4315232 3.89752911,31.0325824 3.32082027,30.3915348 L3.3207658,30.3915959 Z M7.7925287,34.4205756 C6.37771605,34.0157532 4.56450228,32.9779168 3.98310351,31.6948288 C4.43329043,31.7608671 4.7458055,31.9900684 5.18989552,32.0184301 C5.35773413,32.0294571 5.57761573,31.9473792 5.77050759,31.9957972 C6.15489947,32.0920605 6.47932089,32.9621567 6.76932435,33.2858955 C7.05200549,33.6020436 7.39178261,33.737132 7.62431186,34.0253461 C7.77370094,34.0981152 7.99457347,34.0931026 8.00306071,34.3195777 C7.93831259,34.3894831 7.87013174,34.4427716 7.79254383,34.420568 L7.7925287,34.4205756 Z M15.157367,34.0398233 C13.6888774,34.8762566 11.2033107,35.5053914 9.64111354,34.7192516 C8.3806749,34.0848018 6.67693293,33.0351136 6.09598803,31.7048478 C6.63862688,30.4211947 5.93524481,29.2450014 5.89035774,27.9417685 C5.86651933,27.2483044 6.21378066,26.6429342 6.24039217,25.8880274 C6.05470161,25.578752 5.48738772,25.5406463 5.09467502,25.561845 C4.96248433,26.2296659 4.73107008,26.9802963 4.04986679,27.0556373 C3.08596724,27.1620708 2.38116306,26.3567361 2.33744091,25.515217 C2.28562032,24.5255205 3.09043022,22.885231 4.23110949,22.9990137 C4.67176528,23.0429904 4.78002679,23.4889212 5.26013842,23.4843393 C5.52036845,22.9601901 4.85872667,22.7955946 4.79066231,22.4207223 C4.77292534,22.3238863 4.84553438,21.945431 4.88776181,21.7679451 C5.09496549,20.9037305 5.55684695,19.7852228 6.0114666,19.1272681 C6.58847802,18.2926981 7.72207703,18.1669261 8.94175875,18.08514 C9.15958283,18.5588582 9.96202811,18.5198971 10.4848937,18.3959884 C9.85827498,18.6465244 9.27572643,19.2538954 8.79289162,19.7915152 C8.2383313,20.4083401 7.67656967,21.0700061 7.6481881,21.8762602 C8.69617337,20.4085386 9.56197795,19.1266877 11.4675983,18.4811041 C12.9095217,17.9929072 14.5935055,18.7048514 15.7015368,19.4902886 C16.1612852,19.816746 16.435706,20.3347402 16.7625026,20.808886 C17.9852252,22.5845084 18.5558674,25.1187336 18.4302986,27.5752199 C18.3786475,28.5882686 18.3809183,29.5979571 18.0441972,30.279432 C17.6922868,30.9920941 16.5021213,31.62969 15.80529,30.9850686 C15.6761629,31.678105 16.3846615,32.1067072 17.2168802,31.8573014 C16.6234692,32.6304135 16.0006781,33.5593086 15.157249,34.0397927 L15.157367,34.0398233 Z M17.8932544,11.1824653 C19.0407719,11.7583742 21.1848217,12.7325075 21.9041948,11.1803454 C22.1696897,10.6081784 22.4811457,9.64099413 22.6186512,9.05039274 C22.8129046,8.21715147 22.4080738,6.46576713 21.5596673,6.18612111 C20.8103089,5.93918956 19.935896,5.95423332 19.0333134,6.13727393 C18.9270322,6.22651782 18.8086965,6.38208256 18.7259572,6.54424976 C18.0814563,6.56948968 17.4779695,6.50932531 16.9689014,6.24186246 C17.0171471,5.76069109 16.6947529,5.68347153 16.3925103,5.58436596 C16.1684532,4.68749797 16.8407607,3.51626837 16.6798511,2.69840687 C16.565057,2.11579319 15.8550001,2.02569861 15.3331028,1.91669623 C15.3160754,1.59292693 15.3559488,1.32265845 15.3915649,1.04875503 C15.2722292,0.604849434 14.7369883,0.352160013 14.2298567,0.290259123 C12.5613042,0.0876952184 10.0278398,-0.00328519157 8.4228282,0.57932849 C7.97497112,1.68832119 7.62215299,3.03718939 7.24912282,4.30346198 C5.6838999,4.1346969 4.41777284,4.98528814 3.22441518,5.54256415 C2.81120299,5.73594907 2.23956228,5.84247724 2.08518827,6.1745397 C1.93552991,6.49601807 1.99677269,7.1121404 1.95963761,7.69414317 C1.86513421,9.18063508 1.78420435,10.6144662 1.39536461,12.1364064 C1.22077856,12.8193933 0.916463282,13.4220602 0.704176331,14.0801829 C0.507956138,14.6901198 0.165138128,15.4438963 0.0757270762,16.0520615 C-0.0568478796,16.9535266 0.78399574,17.0036674 1.32165722,17.3943013 C2.15280179,17.9983733 2.80519989,18.3324365 3.70534679,18.8776317 C3.97196117,19.0390658 4.77596471,19.4477675 4.86741815,19.6359902 C5.04922062,20.0091519 4.55535693,20.5353018 4.42332813,20.8278229 C4.21447541,21.2903766 4.10554824,21.6833014 4.07562352,22.1396849 C3.32051618,22.2601572 2.7481039,22.7138222 2.40238117,23.2253712 C1.83042275,24.0719763 1.43376144,25.6381772 1.92862362,26.8296128 C1.96743195,26.9234401 2.16098645,27.1079453 2.18953445,27.2520448 C2.24585282,27.5358144 2.08355134,27.9131304 2.07346347,28.2149526 C2.02147193,29.7634676 2.33299758,31.0977044 3.36561203,31.5645956 C3.78481521,33.2504136 5.28515082,33.8110802 6.69878342,34.6489491 C7.2271861,34.9620885 7.80967414,35.1622087 8.4112093,35.3856812 C10.5691776,36.1874451 13.880261,36.0364576 15.6712052,34.6690176 C16.4306393,34.0891531 17.6446024,32.864835 18.0787982,31.9783984 C19.2256046,29.6381385 19.1441664,25.7270652 18.3420237,22.8802047 C18.2341813,22.4980167 18.0778148,21.9362046 17.859431,21.4770873 C17.707175,21.1564947 17.233947,20.5150347 17.2914212,20.2319676 C17.3505928,19.9393091 18.3704053,19.1575985 18.5890766,18.9447407 C18.9828483,18.5612698 19.7309208,18.0523018 19.7915115,17.5684119 C19.8566424,17.0534417 19.5667433,16.3489353 19.4198883,15.8520482 C18.9289294,14.1937213 18.4498768,12.6607847 17.8932438,11.1822194 L17.8932544,11.1824653 Z"/>
          <path fill="#F7E4CD" fill-rule="nonzero" d="M10.2382462,22.6618654 C10.3004966,22.7455225 10.6427594,22.872585 11.1216607,22.6398053 C11.1216607,22.6398053 10.5540745,22.5442583 10.6012914,21.5889411 L10.3647833,21.6367864 C10.3647833,21.6367864 10.1203477,22.5030018 10.2382402,22.66187"/>
          <path fill="#1D1919" fill-rule="nonzero" d="M14.3859508 14.4507192C14.3859508 14.3057371 14.2694532 14.1881788 14.1257056 14.1881788 13.9821063 14.1881788 13.8656118 14.3057432 13.8656118 14.4507192 13.8656118 14.5956861 13.9821094 14.7134429 14.1257056 14.7134429 14.2694471 14.7134429 14.3859508 14.5956923 14.3859508 14.4507192M14.6461657 13.233106C14.6461657 13.0881238 14.5296681 12.9705656 14.3859205 12.9705656 14.2423213 12.9705656 14.1258267 13.0881299 14.1258267 13.233106 14.1258267 13.3780882 14.2423243 13.4958297 14.3859205 13.4958297 14.529662 13.4958297 14.6461657 13.3780943 14.6461657 13.233106"/>
        </g>
      </g>
    </g>
  </g>
</svg>
