<svg xmlns="http://www.w3.org/2000/svg" width="33" height="32" viewBox="0 0 33 32">
  <g fill="#AC4142" transform="translate(6 3)">
    <path d="M14.7322013,6.03334805 L13.1241246,9.28974318 C13.6523817,9.78053957 14.0252691,10.4271443 14.1728703,11.1594437 L15.3847542,11.1594437 C15.5245869,10.4660964 15.8664004,9.84286292 16.355815,9.35985695 L14.7322013,6.03334805 Z"/>
    <path d="M11.772408 8.50291086L14.7322013 2.50428825 17.6842262 8.54186296C17.8007535 8.50291086 17.9172808 8.47174919 18.0338081 8.44058751L20.8382317.143791304 8.61840246.143791304 11.4150576 8.41721625C11.5315849 8.44058751 11.6558807 8.47174919 11.772408 8.50291086zM10.7547362 13.8081862C11.8345559 13.8081862 12.7123948 12.9278688 12.7123948 11.8450006 12.7123948 11.4476892 12.5958675 11.0815395 12.3938869 10.7699228 12.331739 10.6686473 12.2540541 10.5751623 12.1763693 10.4894677L12.1686008 10.4816773C12.0909159 10.3959827 11.9976941 10.3180785 11.9044722 10.2557551L11.8967038 10.2479647C11.8733983 10.2323839 11.8423244 10.2090126 11.8112504 10.1934318 11.8034819 10.1934318 11.8034819 10.1856414 11.7957134 10.1856414 11.7646395 10.1700605 11.7335655 10.1466893 11.7024916 10.1311084L11.6947231 10.1311084C11.6636492 10.1155276 11.6248067 10.0921563 11.5937328 10.0765755L11.5859643 10.0765755C11.5548904 10.0609947 11.5238164 10.0454138 11.4927425 10.0376234 11.484974 10.0376234 11.4772055 10.029833 11.469437 10.029833 11.4461315 10.0220426 11.4150576 10.0064617 11.3917521 9.9986713 11.3839836 9.9986713 11.3762152 9.99088089 11.3606782 9.99088089 11.3296042 9.98309047 11.2985303 9.96750963 11.2674564 9.95971921L11.2596879 9.95971921C11.2208454 9.95192879 11.1897715 9.94413837 11.1509291 9.93634795 11.1431606 9.93634795 11.1353921 9.93634795 11.1198551 9.92855753 11.0887812 9.92076711 11.0654757 9.92076711 11.0344018 9.9129767 11.0188648 9.9129767 11.0110963 9.9129767 10.9955593 9.90518628 10.9722539 9.90518628 10.9411799 9.89739586 10.9178745 9.89739586L10.879032 9.89739586 10.7625047 9.89739586 10.6459774 9.89739586 10.6149035 9.89739586C10.5838295 9.89739586 10.5605241 9.90518628 10.5294501 9.90518628L10.4983762 9.90518628C10.4673022 9.9129767 10.4362283 9.9129767 10.4051544 9.92076711L10.3818489 9.92076711C10.3430065 9.92855753 10.3119325 9.93634795 10.2730901 9.94413837 9.41855657 10.1544797 8.78154068 10.9335216 8.78154068 11.852791 8.79707765 12.9200784 9.67491662 13.8081862 10.7547362 13.8081862zM18.9893319 9.88181502L18.9737949 9.88181502C18.942721 9.88181502 18.9194155 9.8740246 18.8883416 9.8740246L18.7873513 9.8740246C18.7485088 9.8740246 18.7096664 9.8740246 18.6630555 9.88181502L18.6242131 9.88181502C18.5931391 9.88181502 18.5620652 9.88960544 18.5309912 9.88960544 18.5232227 9.88960544 18.5076858 9.88960544 18.4999173 9.89739586L18.38339 9.92076711 18.3756215 9.92076711C18.3367791 9.92855753 18.3057051 9.93634795 18.2668627 9.94413837 18.2590942 9.94413837 18.2435572 9.95192879 18.2357887 9.95192879 18.2047148 9.95971921 18.1736408 9.96750963 18.1425669 9.98309047 18.1347984 9.98309047 18.1270299 9.99088089 18.1192614 9.99088089 18.080419 10.0064617 18.0415766 10.0220426 18.0105026 10.0376234 17.9716602 10.0532042 17.9405862 10.0687851 17.9017438 10.0843659 17.8939753 10.0843659 17.8862068 10.0921563 17.8784384 10.0921563 17.8473644 10.1077372 17.8162905 10.123318 17.7852165 10.1466893 17.7852165 10.1466893 17.777448 10.1466893 17.777448 10.1544797 17.7075316 10.1934318 17.6376153 10.2401743 17.5754674 10.2947072L17.5676989 10.3024976C17.4667086 10.3804018 17.3812552 10.4660964 17.2958019 10.5595815 17.2103485 10.6530665 17.1404321 10.7621324 17.0782842 10.8711982 16.915146 11.1594437 16.8219242 11.4944317 16.8219242 11.8450006 16.8219242 12.9278688 17.6997632 13.8081862 18.7795828 13.8081862 19.8594024 13.8081862 20.7372414 12.9278688 20.7372414 11.8450006 20.7372414 10.8945695 20.0536146 10.0921563 19.1602386 9.9129767 19.1136277 9.89739586 19.0514798 9.88960544 18.9893319 9.88181502zM2.63666786 13.8081862C3.71648749 13.8081862 4.59432646 12.9278688 4.59432646 11.8450006 4.59432646 10.7621324 3.71648749 9.88181502 2.63666786 9.88181502 1.55684824 9.88181502.67900927 10.7621324.67900927 11.8450006.67900927 12.9278688 1.55684824 13.8081862 2.63666786 13.8081862z"/>
    <path d="M18.7951198,15.3273179 C17.1792746,15.3273179 15.8197894,14.213288 15.4313651,12.7175275 L14.1262594,12.7175275 C13.7378351,14.213288 12.3783499,15.3273179 10.7625047,15.3273179 C10.5760611,15.3273179 10.3973859,15.311737 10.2264792,15.2883658 C9.77590695,15.9817131 9.23988138,16.6205274 8.61063397,17.2125993 C7.49974041,18.2643058 6.24124559,19.0433477 4.88176046,19.5341441 L4.56325251,19.6510004 L4.26805003,19.495192 C2.63666786,18.6538268 1.79767132,16.947725 2.09287381,15.2961562 C1.90643014,15.2649945 1.72775495,15.218252 1.55684824,15.1559287 C1.5257743,15.2104616 1.50246884,15.2727849 1.47139489,15.3351083 C0.974211757,16.3634436 0.453723162,17.4229406 0.267279486,18.5603418 C0.0652988378,19.7756471 -0.0201545135,21.9959165 1.68891251,23.1800602 C2.43468722,23.6942279 3.21930435,23.9513117 4.09714332,23.9513117 C5.78290489,23.9513117 7.60073073,23.0476231 9.52731538,22.0894015 C11.0344018,21.3415213 12.5880991,20.5624794 14.2039442,20.1651681 C14.8176547,20.0171501 15.4391336,19.9236651 16.0373071,19.8379705 C17.1326636,19.6821621 18.1736408,19.5263537 19.0204059,19.0355573 C19.9215503,18.5135992 20.5352607,17.6410723 20.7061674,16.6438987 C20.8149262,16.036246 20.7527784,15.4208029 20.5507977,14.8521023 C20.0380776,15.1481382 19.4399041,15.3273179 18.7951198,15.3273179 Z"/>
  </g>
</svg>
