<svg xmlns="http://www.w3.org/2000/svg" width="32" height="32" viewBox="0 0 32 32">
  <path fill="#F4BF75" fill-rule="evenodd" d="M9.43613063,7.31390343 L13.5913467,7.31390343 L13.5913467,18.9194881 C13.5913467,21.5441924 13.0085084,23.3804538 11.8428318,24.4282723 C10.6771552,25.4760908 9.09041666,26 7.08261627,26 C6.57438718,26 6.03734859,25.9594726 5.47150051,25.8784177 C4.90565242,25.7973628 4.41515225,25.6883072 4,25.5512507 L4.48532923,22.2 C4.76308234,22.2928447 5.08072552,22.3731627 5.43825878,22.440954 C5.79579203,22.5087454 6.18213479,22.5433779 6.59728704,22.5448517 C7.47486866,22.5448517 8.16777402,22.291371 8.67600311,21.7844095 C9.1842322,21.2774481 9.43834675,20.3217374 9.43834675,18.9172775 L9.43834675,7.31169284 L9.43613063,7.31390343 Z M17.2257756,21.4417685 C17.7561659,21.7409347 18.4313423,22.0054683 19.2513049,22.2353694 C20.0712676,22.4652705 20.9311203,22.5802211 21.830863,22.5802211 C22.777883,22.5802211 23.4995978,22.3960054 23.9960076,22.0275742 C24.4924174,21.6591429 24.7406223,21.1757611 24.7406223,20.5774287 C24.7406223,20.0247818 24.5042367,19.552453 24.0314655,19.1604421 C23.5586942,18.7684313 22.7682798,18.3882102 21.6602222,18.0197789 C20.1370123,17.4671321 18.9078071,16.7472174 17.9726065,15.8600349 C17.0374058,14.9728524 16.5698055,13.8616638 16.5698055,12.5264689 C16.5698055,10.9598992 17.1932726,9.64754702 18.4402068,8.58941245 C19.6871409,7.53127787 21.3957658,7.00147373 23.5660813,7 C24.6047006,7 25.5110917,7.09210781 26.2852546,7.27632344 C27.0594176,7.46053907 27.7227747,7.67938724 28.2753261,7.93286795 L27.3401255,11.2841187 C26.9707729,11.099903 26.4625439,10.9038976 25.8154382,10.6961024 C25.1683326,10.4883072 24.3949084,10.3844095 23.4951656,10.3844095 C22.5954228,10.3844095 21.926156,10.5627303 21.4873652,10.9193717 C21.0485744,11.2760132 20.829179,11.6960248 20.829179,12.1794066 C20.829179,12.7556331 21.0943741,13.2161722 21.6247643,13.5610239 C22.1551546,13.9058755 23.0209169,14.3089393 24.2220514,14.7702152 C25.8604992,15.3685476 27.0668046,16.111305 27.8409675,16.9984875 C28.6151304,17.88567 29.0014732,18.9850688 28.9999958,20.2966841 C28.9999958,21.8396742 28.3942576,23.175606 27.1827813,24.3044793 C25.971305,25.4333527 24.1075521,25.9977894 21.5915226,25.9977894 C20.5292647,25.9977894 19.5253645,25.876944 18.579822,25.6352531 C17.6342795,25.3935621 16.8955745,25.1341865 16.3637068,24.8571262 L17.2302079,21.4373473 L17.2257756,21.4417685 Z"/>
</svg>
