<svg xmlns="http://www.w3.org/2000/svg" width="33" height="32" viewBox="0 0 33 32">
  <g fill="none" fill-rule="evenodd" transform="translate(4 1)">
    <path fill="#AA759F" d="M0.0628166706,13.2355553 L0.0628166706,15.767821 C2.33265991,15.872488 2.53720974,17.1386209 2.53720974,17.9827094 C2.53720974,18.826798 2.43493483,19.6708866 2.32936072,20.6196421 C2.22708581,21.4637307 2.22708581,22.4124863 2.22708581,23.2565748 C2.22708581,26.5282621 4.18680512,27.689728 7.07359704,27.689728 L8.20851866,27.689728 L8.20851866,24.944752 L7.6938449,24.944752 C6.14652444,24.944752 5.63185068,23.9959964 5.63185068,22.5171532 C5.63185068,21.990442 5.73412559,21.3556874 5.83969969,20.7243091 C5.94197461,19.9848875 6.04754871,19.2454659 6.04754871,18.4013774 C6.04754871,15.8691117 5.014902,14.9203561 3.26303171,14.4983118 L3.26303171,14.3936448 C5.014902,14.0762675 6.04754871,13.127512 6.04754871,10.5952463 C6.04754871,9.75115771 5.9452738,9.01173612 5.83969969,8.38035787 C5.73742478,7.64093628 5.63185068,7.00955803 5.63185068,6.47947041 C5.63185068,5.00062724 6.14652444,4.05187168 7.6938449,4.05187168 L8.20851866,4.05187168 L8.20851866,1.30689566 L7.07359704,1.30689566 C4.08453021,1.30689566 2.22708581,2.67769549 2.22708581,5.74004882 C2.22708581,6.58413739 2.22708581,7.42822596 2.32936072,8.37698152 C2.43163564,9.22107009 2.53720974,10.1698256 2.53720974,10.9092472 C2.53720974,11.9660461 2.32936072,13.1241356 0.0628166706,13.232179 L0.0628166706,13.2355553 Z"/>
    <path fill="#90A959" d="M25.0112972,15.767821 L25.0112972,13.2355553 C22.8470281,13.1308883 22.5369041,11.9694225 22.5369041,10.9126236 C22.5369041,10.173202 22.6391791,9.22444644 22.7447532,8.38035787 C22.8470281,7.43160232 22.9526022,6.58751375 22.9526022,5.74342518 C22.9526022,2.6844482 20.9928829,1.31027201 18.003816,1.31027201 L16.8688944,1.31027201 L16.8688944,4.05524804 L17.3835682,4.05524804 C18.9308886,4.15991502 19.4455624,5.00400359 19.4455624,6.48284676 C19.4455624,7.00955803 19.3432875,7.64431264 19.2377134,8.38373422 C19.1354385,9.01848883 19.0298644,9.75453406 19.0298644,10.5986226 C19.0298644,13.1308883 20.0625111,14.0796439 21.8143814,14.3970212 L21.8143814,14.5016882 C20.0625111,14.9237325 19.0298644,15.872488 19.0298644,18.4047537 C19.0298644,19.2488423 19.1321393,19.9882639 19.2377134,20.7276855 C19.3399883,21.3624401 19.4455624,21.9938183 19.4455624,22.5205296 C19.4455624,23.9993728 18.9308886,24.9481283 17.3835682,24.9481283 L16.8688944,24.9481283 L16.8688944,27.6931043 L18.003816,27.6931043 C20.890608,27.6931043 22.9526022,26.5316385 22.9526022,23.2599512 C22.9526022,22.4158626 22.8503273,21.4671071 22.7447532,20.6230185 C22.6424782,19.6742629 22.5369041,18.8301744 22.5369041,17.9860858 C22.5369041,17.1419972 22.8470281,15.8758644 25.0112972,15.7711974 L25.0112972,15.767821 Z"/>
  </g>
</svg>
