<svg xmlns="http://www.w3.org/2000/svg" width="32" height="32" viewBox="0 0 32 32">
  <path fill="#6A9FB5" fill-rule="evenodd" d="M7.67811876,9.0097669 L7.67811876,17.8610212 C7.67811876,18.3949451 7.74160362,18.7449258 7.86857333,18.9109631 C7.99554305,19.0770004 8.32598988,19.2357126 8.85991381,19.3870995 L8.59376575,20.8741102 C8.31378125,20.8236479 8.04030801,20.7723717 7.77334605,20.7202815 C7.50638408,20.6681914 7.24593338,20.591684 6.99199394,20.4907594 C6.5345774,20.3133273 6.24238427,20.0333428 6.11541455,19.6508059 C5.98844483,19.2682689 5.92495998,18.8613147 5.92495998,18.4299432 L5.92495998,10.3795748 C5.6954378,10.4056199 5.47893815,10.4243398 5.27546104,10.4357345 C5.07198393,10.4471292 4.88152935,10.4658491 4.70409731,10.4918942 C4.47457513,10.5423565 4.30284045,10.6506063 4.18889327,10.8166436 C4.07494609,10.982681 4.0179725,11.204878 4.0179725,11.4832347 C3.99192743,11.8397266 3.97890489,12.2019158 3.97890489,12.5698024 L3.97890489,13.6563702 C3.97890489,13.8338022 3.97239363,14.0055369 3.95937109,14.1715742 C3.94634856,14.3376116 3.92762866,14.5093462 3.90321141,14.6867783 C3.87716634,14.9928079 3.78845032,15.2727924 3.63706335,15.5267318 C3.48567638,15.7806712 3.28219927,15.9971709 3.02663202,16.1762307 L3.02663202,16.2519242 C3.43358624,16.5319087 3.69403694,16.8688668 3.80798412,17.2627985 C3.9219313,17.6567302 3.97890489,18.0701957 3.97890489,18.503195 L3.97890489,20.600637 C3.97890489,21.1345609 4.06762091,21.4967502 4.24505295,21.6872048 C4.42248499,21.8776594 4.77897689,21.9859092 5.31452865,22.0119542 L5.50498322,22.0510218 L5.50498322,23.4257132 C5.12407407,23.4257132 4.75537355,23.400482 4.39888165,23.3500197 C4.04238975,23.2995574 3.69892039,23.1978188 3.36847356,23.0448041 C3.01198167,22.8413269 2.75722832,22.574365 2.60421354,22.2439181 C2.45119875,21.9134713 2.37469136,21.5569794 2.37469136,21.1744425 C2.34864629,20.7935333 2.33562375,20.405299 2.33562375,20.0097395 L2.33562375,18.3884339 C2.30957868,17.9049723 2.19481759,17.5549916 1.99134048,17.338492 C1.78786337,17.1219923 1.45741654,16.9754888 1,16.8989814 L1,15.6024253 L1.03906761,15.5633577 C1.52252922,15.436388 1.85948731,15.258142 2.04994189,15.0286198 C2.24039646,14.7990976 2.33562375,14.4303971 2.33562375,13.9225183 L2.33562375,12.0155308 C2.33562375,11.8120537 2.34213502,11.6020653 2.35515755,11.3855656 C2.36818009,11.169066 2.39992252,10.946869 2.45038484,10.7189746 C2.52689224,10.2615581 2.73036935,9.89285756 3.06081617,9.61287306 C3.391263,9.33288855 3.83647092,9.1546426 4.39643992,9.07813521 C4.54945471,9.05209014 4.70816686,9.03337025 4.87257636,9.02197553 C5.03698587,9.01058081 5.19569801,9.00406954 5.3487128,9.00244173 L7.67567703,9.00244173 L7.67811876,9.0097669 Z M10.769343,17.3262834 C10.6928356,17.7836999 10.8132941,18.1971654 11.1307184,18.5666798 C11.4481427,18.9361942 11.8485856,19.1714138 12.3320472,19.2723384 C12.8155088,19.3488458 13.2859479,19.3553571 13.7433645,19.2918722 C14.200781,19.2283874 14.6590115,19.1331601 15.1180558,19.0061904 C15.1685181,19.2096675 15.2132831,19.4196559 15.2523507,19.6361555 C15.2914183,19.8526552 15.3231607,20.0626435 15.347578,20.2661206 C15.347578,20.2921657 15.3288581,20.3304194 15.2914183,20.3808817 C15.2539785,20.4313441 15.2092136,20.4695977 15.1571234,20.4956428 C14.4701847,20.6991199 13.783246,20.8195784 13.0963072,20.8570182 C12.4093685,20.894458 11.7224298,20.7862081 11.0354911,20.5322687 C10.6024918,20.3548367 10.2337913,20.1196171 9.9293895,19.8266101 C9.62498775,19.533603 9.39627948,19.1714138 9.24326469,18.7400423 C8.96328019,18.0791487 8.8297992,17.4052325 8.84282174,16.7182937 C8.85584427,16.031355 9.01455642,15.3574388 9.31895817,14.6965452 C9.75195746,13.7296219 10.4511048,13.1191906 11.4164002,12.8652512 C12.3816956,12.6113118 13.2721115,12.6747966 14.0876477,13.0557058 C14.5971544,13.2852279 14.9853887,13.6091635 15.2523507,14.0275124 C15.5193127,14.4458614 15.6910474,14.9097892 15.7675548,15.4192959 C15.8180171,15.7253254 15.8497595,16.0370524 15.862782,16.3544767 C15.8758046,16.671901 15.8823158,16.9958365 15.8823158,17.3262834 L10.769343,17.3262834 L10.769343,17.3262834 Z M14.0876477,15.9906596 C14.0876477,15.4306906 13.9411442,14.9854827 13.6481372,14.6550358 C13.3551301,14.324589 12.9546872,14.1593656 12.4468083,14.1593656 C11.9893918,14.1854107 11.5889488,14.3758653 11.2454795,14.7307293 C10.9020101,15.0855934 10.7432979,15.5055702 10.769343,15.9906596 L14.0876477,15.9906596 L14.0876477,15.9906596 Z M27.0605344,23.4305967 L27.0605344,22.0559053 L27.4414435,22.0168377 C27.8223527,21.9907926 28.1023372,21.8890541 28.281397,21.711622 C28.4604569,21.53419 28.5491729,21.2542055 28.5475451,20.8716685 L28.5475451,18.6960913 C28.5735902,18.5186592 28.5866127,18.3469245 28.5866127,18.1808872 C28.5866127,18.0148499 28.5996352,17.8431152 28.6256803,17.6656832 C28.6761426,17.3596536 28.7778812,17.0861804 28.930896,16.8452635 C29.0839108,16.6043466 29.3004104,16.3943582 29.5803949,16.2152983 C29.0969333,15.9092688 28.8104375,15.5275457 28.7209076,15.0701292 C28.6313777,14.6127126 28.5744041,14.1422735 28.5499868,13.6588119 L28.5499868,11.6736892 C28.5499868,11.2162727 28.4547595,10.8980345 28.264305,10.7189746 C28.0738504,10.5399148 27.7499148,10.4381762 27.2924983,10.413759 L27.0629761,10.3746914 L27.0629761,9 C27.4438852,9 27.8256083,9.02523116 28.2081453,9.07569349 C28.5906822,9.12615581 28.9593828,9.26614806 29.3142468,9.49567024 C29.6202764,9.69914735 29.8367761,9.95390069 29.9637458,10.2599303 C30.0907155,10.5659598 30.1672229,10.8964067 30.193268,11.2512707 L30.193268,12.5478269 C30.193268,12.5478269 30.2062905,12.9800123 30.2323356,13.844383 L30.2323356,14.2252922 C30.2323356,14.2252922 30.2575667,14.3400533 30.308029,14.5695755 C30.3845364,14.875605 30.5245287,15.1108246 30.7280058,15.2752341 C30.9314829,15.4396436 31.1984449,15.5226622 31.5288917,15.5242901 L31.5288917,16.8989814 C31.2228621,16.8989814 30.9624114,16.9754888 30.7475396,17.1285036 C30.5326678,17.2815184 30.3861643,17.5232492 30.308029,17.853696 C30.281984,17.9562485 30.2632641,18.0710096 30.2518694,18.1979793 C30.2404746,18.324949 30.2339634,18.4519187 30.2323356,18.5788884 C30.2062905,19.0118877 30.193268,19.4375618 30.193268,19.8559108 L30.193268,21.1329331 C30.1672229,21.7938268 29.9767683,22.3090308 29.6219042,22.6785453 C29.2670402,23.0480597 28.7583474,23.2702567 28.0958259,23.3451363 C27.9183939,23.3711813 27.7466592,23.3899012 27.5806219,23.401296 C27.4145845,23.4126907 27.2428499,23.4192019 27.0654178,23.4208298 L27.0654178,23.4208298 L27.0605344,23.4305967 Z M27.36575,13.053264 L27.0605344,14.4645813 C26.6796252,14.3376116 26.3044134,14.2423843 25.934899,14.1788994 C25.5653846,14.1154146 25.1901728,14.1089033 24.8092636,14.1593656 C24.5553242,14.2098279 24.3583583,14.2863353 24.2183661,14.3888878 C24.0783738,14.4914403 23.9953552,14.6314325 23.9693101,14.8088645 C23.943265,14.9862966 23.9750075,15.1580313 24.0645374,15.3240686 C24.1540673,15.4901059 24.3127795,15.6235869 24.5406738,15.7245115 C24.7181059,15.827064 24.9028631,15.9100827 25.0949455,15.9735675 C25.2870279,16.0370524 25.4839937,16.120071 25.685843,16.2226235 C25.8128127,16.2730858 25.9332712,16.3243621 26.0472184,16.3764522 C26.1611655,16.4285423 26.2694154,16.4798186 26.3719678,16.5302809 C26.9319368,16.7842203 27.3136599,17.1024585 27.517137,17.4849955 C27.7206141,17.8675325 27.784099,18.3632027 27.7075916,18.9720062 C27.6815465,19.4050055 27.5163231,19.773706 27.2119213,20.0781078 C26.9075196,20.3825095 26.4753342,20.5990092 25.9153652,20.7276067 C25.2788888,20.8545764 24.636715,20.8993414 23.9888439,20.8619016 C23.3409728,20.8244618 22.698799,20.6779583 22.0623226,20.4223911 L22.3284707,19.0110738 C22.6084552,19.0875812 22.8819284,19.1575773 23.1488904,19.2210622 C23.4158524,19.2845471 23.6893256,19.3415206 23.9693101,19.391983 C24.1988323,19.418028 24.4275406,19.4245393 24.6554349,19.4115168 C24.8833293,19.3984942 25.1120376,19.3797743 25.3415597,19.3553571 C25.4945745,19.329312 25.6280555,19.2780358 25.7420027,19.2015284 C25.8559499,19.125021 25.925946,18.9980513 25.9519911,18.8206192 C25.9780361,18.6431872 25.9650136,18.4844751 25.9129235,18.3444828 C25.8608333,18.2044906 25.7721173,18.0962407 25.6467754,18.0197333 C25.4693434,17.8927636 25.2845862,17.7845138 25.0925038,17.6949839 C24.9004214,17.6054539 24.7034555,17.5224353 24.5016062,17.4459279 L23.8154814,17.1407122 C23.8154814,17.1407122 23.5867731,17.0259511 23.1293566,16.796429 C22.4928802,16.4399371 22.1811533,15.8229945 22.1941758,14.9456012 C22.2071983,14.0682079 22.5824101,13.4642878 23.3198112,13.133841 C23.5232883,13.0312885 23.7397879,12.9482698 23.9693101,12.884785 C24.1988323,12.8213001 24.4405631,12.7765352 24.6945025,12.7504901 C25.1275018,12.6739827 25.5661985,12.6739827 26.0105925,12.7504901 C26.4549865,12.8269975 26.9067057,12.928736 27.36575,13.0557058 L27.36575,13.0557058 L27.36575,13.053264 Z M21.5275848,13.0141964 L21.1833015,14.4645813 C20.8268096,14.3376116 20.4646204,14.2423843 20.0967337,14.1788994 C19.7288471,14.1154146 19.3536353,14.1089033 18.9710984,14.1593656 C18.7171589,14.2098279 18.5201931,14.2863353 18.3802008,14.3888878 C18.2402086,14.4914403 18.1571899,14.6314325 18.1311449,14.8088645 C18.0806825,15.0123417 18.1059137,15.1905876 18.2068383,15.3436024 C18.307763,15.4966172 18.4729864,15.6235869 18.7025086,15.7245115 C18.9059857,15.827064 19.1094628,15.91578 19.3129399,15.9906596 C19.516417,16.0655392 19.7198941,16.1542552 19.9233713,16.2568077 C20.0259237,16.2828527 20.1276623,16.3211064 20.2285869,16.3715687 L20.5338026,16.5253974 C21.0937716,16.8053819 21.4754946,17.14234 21.6789718,17.5362717 C21.8824489,17.9302034 21.9459337,18.4454075 21.8694263,19.0818839 C21.7929189,19.4888381 21.5829306,19.84533 21.2394612,20.1513595 C20.8959918,20.4573891 20.4442727,20.6608662 19.8843036,20.7617909 C19.3243346,20.8382983 18.7643656,20.8635294 18.2043966,20.8374844 C17.6444276,20.8114393 17.0974811,20.7227233 16.5635572,20.5713363 C16.4365875,20.520874 16.3478715,20.4639004 16.2974091,20.4004155 C16.2469468,20.3369307 16.2339243,20.2286809 16.2583415,20.0756661 C16.3088039,19.898234 16.3535688,19.7199881 16.3926364,19.5409282 C16.431704,19.3618684 16.4634465,19.1836224 16.4878637,19.0061904 C16.7678482,19.0826978 17.0413215,19.1526939 17.3082834,19.2161787 C17.5752454,19.2796636 17.8487186,19.3366372 18.1287031,19.3870995 C18.3582253,19.4131446 18.5869336,19.4196559 18.814828,19.4066333 C19.0427223,19.3936108 19.2714306,19.3748909 19.5009528,19.3504736 C19.6539676,19.3244286 19.7874485,19.267455 19.9013957,19.1795529 C20.0153429,19.0916508 20.085339,18.9581698 20.1113841,18.7791099 C20.1374292,18.6260951 20.1244066,18.4795916 20.0723165,18.3395994 C20.0202264,18.1996071 19.9315103,18.0913573 19.8061684,18.0148499 C19.5766463,17.8878802 19.3544493,17.7731191 19.1395774,17.6705666 C18.9247056,17.5680142 18.7147172,17.4662756 18.5096123,17.365351 C18.3045074,17.2644263 18.1010303,17.169199 17.899181,17.0796691 C17.6973317,16.9901392 17.4938546,16.8949119 17.2887496,16.7939872 C16.6522732,16.4130781 16.3405463,15.7896242 16.3535688,14.9236256 C16.3665914,14.0576271 16.7418032,13.4471957 17.4792042,13.0923316 C17.809651,12.9393169 18.1400979,12.831067 18.4705447,12.7675822 C18.8009915,12.7040973 19.1444609,12.6853774 19.5009528,12.7114225 C19.8313996,12.7374676 20.1618464,12.7822325 20.4922933,12.8457174 C20.8227401,12.9092022 21.1662094,12.9661758 21.5227013,13.0166382 L21.5227013,13.0166382 L21.5275848,13.0141964 Z"/>
</svg>
