<svg xmlns="http://www.w3.org/2000/svg" width="32" height="32" viewBox="0 0 32 32">
  <path fill="#6A9FB5" fill-rule="evenodd" d="M7.78117252,9.00947547 L7.78117252,17.5966159 C7.78117252,18.114608 7.84563705,18.4541455 7.9745661,18.6152284 C8.10349516,18.7763113 8.4390413,18.9302876 8.98120451,19.0771574 L8.71094937,20.519797 C8.42664427,20.4708404 8.14895092,20.4210942 7.87786931,20.3705584 C7.6067877,20.3200226 7.34231784,20.2457981 7.08445973,20.1478849 C6.61998454,19.9757473 6.32328241,19.7041173 6.19435336,19.3329949 C6.0654243,18.9618725 6.00095977,18.5670615 6.00095977,18.1485618 L6.00095977,10.3384095 C5.76789571,10.3636774 5.54805513,10.3818387 5.34143805,10.3928934 C5.13482098,10.4039481 4.94142739,10.4221094 4.7612573,10.4473773 C4.52819323,10.4963339 4.35380842,10.6013536 4.23810286,10.7624365 C4.12239729,10.9235195 4.06454451,11.1390863 4.06454451,11.4091371 C4.03809752,11.7549915 4.02487403,12.1063734 4.02487403,12.4632826 L4.02487403,13.5174281 C4.02487403,13.6895657 4.01826228,13.856176 4.00503879,14.0172589 C3.9918153,14.1783418 3.97280653,14.3449521 3.94801248,14.5170897 C3.92156549,14.8139876 3.83148044,15.0856176 3.67775734,15.3319797 C3.52403423,15.5783418 3.31741715,15.7883813 3.0579061,15.9620981 L3.0579061,16.035533 C3.47114026,16.307163 3.73561012,16.6340666 3.85131568,17.0162437 C3.96702125,17.3984208 4.02487403,17.7995488 4.02487403,18.2196277 L4.02487403,20.2544839 C4.02487403,20.772476 4.11495908,21.1238579 4.29512917,21.3086294 C4.47529926,21.493401 4.83729238,21.5984208 5.38110853,21.6236887 L5.57450212,21.6615905 L5.57450212,22.9952623 C5.18771495,22.9952623 4.8133248,22.970784 4.45133168,22.9218274 C4.08933856,22.8728708 3.74056893,22.7741681 3.40502279,22.6257191 C3.04302967,22.4283136 2.78434509,22.1693175 2.62896905,21.848731 C2.473593,21.5281444 2.39590498,21.1822899 2.39590498,20.8111675 C2.369458,20.4416244 2.3562345,20.0649746 2.3562345,19.6812183 L2.3562345,18.108291 C2.32978752,17.6392555 2.21325549,17.299718 2.00663841,17.0896785 C1.80002133,16.879639 1.46447519,16.7375071 1,16.6632826 L1,15.4054146 L1.03967048,15.3675127 C1.53059266,15.2443316 1.87275054,15.0714044 2.06614413,14.848731 C2.25953771,14.6260575 2.3562345,14.2683587 2.3562345,13.7756345 L2.3562345,11.9255499 C2.3562345,11.7281444 2.36284625,11.5244219 2.37606974,11.3143824 C2.38929324,11.1043429 2.4215255,10.8887761 2.47276654,10.6676819 C2.55045456,10.2239143 2.75707164,9.86621545 3.09261777,9.59458545 C3.42816391,9.32295544 3.88024208,9.1500282 4.44885228,9.07580372 C4.60422832,9.05053582 4.76538964,9.03237451 4.93233624,9.0213198 C5.09928284,9.01026509 5.26044416,9.00394811 5.4158202,9.00236887 L7.77869311,9.00236887 L7.78117252,9.00947547 Z M10.9200992,17.0778342 C10.8424112,17.5216018 10.9647285,17.9227298 11.2870511,18.2812183 C11.6093738,18.6397067 12.0159962,18.8679075 12.5069183,18.9658206 C12.9978405,19.0400451 13.4755392,19.0463621 13.9400144,18.9847716 C14.4044896,18.923181 14.8697913,18.8307953 15.3359194,18.7076142 C15.3871604,18.9050197 15.4326162,19.1087422 15.4722867,19.3187817 C15.5119571,19.5288212 15.5441894,19.7325437 15.5689834,19.9299492 C15.5689834,19.9552171 15.5499747,19.9923294 15.5119571,20.041286 C15.4739396,20.0902425 15.4284838,20.1273548 15.3755899,20.1526227 C14.6780506,20.3500282 13.9805113,20.4668923 13.2829721,20.5032149 C12.5854328,20.5395375 11.8878936,20.4345178 11.1903543,20.1881557 C10.7506732,20.016018 10.376283,19.7878173 10.0671839,19.5035533 C9.75808473,19.2192893 9.52584713,18.8679075 9.37047109,18.4494078 C9.08616599,17.8082346 8.95062518,17.1544275 8.96384868,16.4879865 C8.97707217,15.8215454 9.13823349,15.1677383 9.44733264,14.5265651 C9.88701378,13.5884941 10.5969501,12.9962775 11.5771415,12.7499154 C12.5573329,12.5035533 13.4614892,12.5651438 14.2896105,12.934687 C14.8069797,13.1573604 15.201205,13.47163 15.4722867,13.8774958 C15.7433683,14.2833615 15.9177531,14.7334461 15.9954411,15.2277496 C16.0466821,15.5246475 16.0789144,15.8270728 16.0921379,16.1350254 C16.1053614,16.442978 16.1119731,16.7572476 16.1119731,17.0778342 L10.9200992,17.0778342 L10.9200992,17.0778342 Z M14.2896105,15.7820643 C14.2896105,15.2388043 14.1408462,14.806881 13.8433176,14.4862944 C13.545789,14.1657078 13.1391666,14.0054146 12.6234504,14.0054146 C12.1589752,14.0306825 11.7523528,14.215454 11.4035831,14.5597293 C11.0548135,14.9040045 10.8936522,15.3114495 10.9200992,15.7820643 L14.2896105,15.7820643 L14.2896105,15.7820643 Z M27.462689,23 L27.462689,21.6663283 L27.8494761,21.6284264 C28.2362633,21.6031585 28.5205684,21.5044557 28.7023914,21.3323181 C28.8842145,21.1601805 28.9742995,20.8885505 28.9726466,20.5174281 L28.9726466,18.4067682 C28.9990936,18.2346306 29.012317,18.0680203 29.012317,17.9069374 C29.012317,17.7458545 29.0255405,17.5792442 29.0519875,17.4071066 C29.1032286,17.1102087 29.2065371,16.8448957 29.3619131,16.6111675 C29.5172892,16.3774394 29.7371298,16.1737169 30.0214349,16 C29.5305127,15.7031021 29.2395958,15.3327693 29.1486843,14.8890017 C29.0577728,14.4452341 28.99992,13.9888325 28.975126,13.519797 L28.975126,11.5939086 C28.975126,11.150141 28.8784292,10.8413988 28.6850356,10.6676819 C28.491642,10.493965 28.1627076,10.3952623 27.6982324,10.3715736 L27.4651684,10.3336717 L27.4651684,9 C27.8519555,9 28.2395692,9.02447829 28.6280093,9.07343486 C29.0164494,9.12239143 29.3908395,9.25820643 29.7511797,9.48087986 C30.0619318,9.67828539 30.2817724,9.92543711 30.4107014,10.222335 C30.5396305,10.5192329 30.6173185,10.8398195 30.6437655,11.1840948 L30.6437655,12.4419628 C30.6437655,12.4419628 30.656989,12.8612521 30.683436,13.6998308 L30.683436,14.0693739 C30.683436,14.0693739 30.7090565,14.1807107 30.7602975,14.4033841 C30.8379856,14.700282 30.9801381,14.9284828 31.1867552,15.0879865 C31.3933723,15.2474901 31.6644539,15.3280316 32,15.3296108 L32,16.6632826 C31.6892479,16.6632826 31.4247781,16.7375071 31.2065904,16.885956 C30.9884028,17.034405 30.8396385,17.2689227 30.7602975,17.5895093 C30.7338505,17.6890017 30.7148418,17.8003384 30.7032712,17.9235195 C30.6917007,18.0467005 30.6850889,18.1698816 30.683436,18.2930626 C30.656989,18.7131416 30.6437655,19.1261139 30.6437655,19.5319797 L30.6437655,20.7708968 C30.6173185,21.4120699 30.4239249,21.9119007 30.0635847,22.2703892 C29.7032446,22.6288776 29.1867019,22.8444444 28.5139567,22.9170897 C28.3337866,22.9423576 28.1594017,22.9605189 27.9908022,22.9715736 C27.8222027,22.9826283 27.6478179,22.9889453 27.4676478,22.9905245 L27.4676478,22.9905245 L27.462689,23 Z M27.7726146,12.9323181 L27.462689,14.3015228 C27.0759018,14.1783418 26.6948999,14.085956 26.3196833,14.0243655 C25.9444667,13.962775 25.5634648,13.956458 25.1766776,14.0054146 C24.9188195,14.0543711 24.7188142,14.1285956 24.5766616,14.228088 C24.4345091,14.3275804 24.3502093,14.4633954 24.3237623,14.635533 C24.2973153,14.8076706 24.3295476,14.9742809 24.4204591,15.1353638 C24.5113706,15.2964467 24.6725319,15.4259447 24.9039431,15.5238579 C25.0841131,15.6233503 25.2717215,15.7038917 25.466768,15.7654822 C25.6618145,15.8270728 25.8618198,15.9076142 26.066784,16.0071066 C26.195713,16.0560632 26.3180303,16.1058094 26.4337359,16.1563452 C26.5494415,16.206881 26.6593618,16.2566272 26.7634968,16.3055838 C27.332107,16.5519459 27.7197206,16.8606881 27.9263377,17.2318105 C28.1329548,17.6029329 28.1974193,18.0838127 28.1197313,18.6744501 C28.0932843,19.094529 27.9255112,19.4522279 27.6164121,19.7475465 C27.3073129,20.0428652 26.8684582,20.2529047 26.299848,20.377665 C25.6535498,20.500846 25.0014663,20.5442752 24.3435975,20.5079526 C23.6857288,20.47163 23.0336453,20.329498 22.387347,20.0815567 L22.6576022,18.7123519 C22.9419073,18.7865764 23.2196006,18.8544839 23.4906822,18.9160745 C23.7617638,18.977665 24.0394572,19.0329385 24.3237623,19.0818951 C24.5568264,19.107163 24.789064,19.11348 25.0204751,19.100846 C25.2518862,19.0882121 25.4841238,19.0700508 25.7171879,19.0463621 C25.8725639,19.0210942 26.0081047,18.971348 26.1238103,18.8971235 C26.2395158,18.822899 26.3105921,18.699718 26.3370391,18.5275804 C26.3634861,18.3554428 26.3502626,18.2014664 26.2973686,18.0656514 C26.2444747,17.9298364 26.1543896,17.8248167 26.0271135,17.7505922 C25.8469434,17.6274112 25.6593351,17.5223914 25.4642886,17.435533 C25.269242,17.3486746 25.0692367,17.2681331 24.8642726,17.1939086 L24.1675598,16.8978003 C24.1675598,16.8978003 23.9353222,16.7864636 23.470847,16.5637902 C22.8245488,16.2179357 22.5080114,15.6194021 22.5212349,14.7681895 C22.5344584,13.9169769 22.9154603,13.3310773 23.6642406,13.0104907 C23.8708577,12.9109983 24.0906982,12.8304569 24.3237623,12.7688663 C24.5568264,12.7072758 24.8022875,12.6638466 25.0601456,12.6385787 C25.4998267,12.5643542 25.9452931,12.5643542 26.3965448,12.6385787 C26.8477965,12.7128032 27.3064864,12.8115059 27.7726146,12.934687 L27.7726146,12.934687 L27.7726146,12.9323181 Z M21.8443574,12.8944162 L21.4947613,14.3015228 C21.1327681,14.1783418 20.7649897,14.085956 20.3914261,14.0243655 C20.0178624,13.962775 19.6368605,13.956458 19.2484204,14.0054146 C18.9905623,14.0543711 18.7905569,14.1285956 18.6484044,14.228088 C18.5062518,14.3275804 18.4219521,14.4633954 18.3955051,14.635533 C18.344264,14.8329385 18.3698846,15.0058658 18.4723666,15.1543147 C18.5748487,15.3027637 18.7426218,15.4259447 18.9756858,15.5238579 C19.1823029,15.6233503 19.38892,15.7094191 19.5955371,15.7820643 C19.8021541,15.8547095 20.0087712,15.9407783 20.2153883,16.0402707 C20.3195233,16.0655386 20.4228319,16.1026509 20.5253139,16.1516074 L20.8352395,16.300846 C21.4038497,16.572476 21.7914634,16.8993796 21.9980805,17.2815567 C22.2046975,17.6637338 22.2691621,18.1635646 22.191474,18.7810491 C22.113786,19.1758601 21.9005572,19.5217146 21.5517876,19.8186125 C21.2030179,20.1155104 20.744328,20.312916 20.1757178,20.4108291 C19.6071076,20.4850536 19.0384974,20.5095319 18.4698872,20.484264 C17.901277,20.4589961 17.3458903,20.3729272 16.8037271,20.2260575 C16.674798,20.177101 16.584713,20.1218274 16.533472,20.0602369 C16.4822309,19.9986464 16.4690074,19.8936266 16.4938015,19.7451777 C16.5450425,19.57304 16.5904983,19.4001128 16.6301688,19.2263959 C16.6698392,19.0526791 16.7020715,18.8797518 16.7268656,18.7076142 C17.0111707,18.7818387 17.288864,18.8497462 17.5599456,18.9113367 C17.8310272,18.9729272 18.1087206,19.0282008 18.3930257,19.0771574 C18.6260897,19.1024253 18.8583273,19.1087422 19.0897385,19.0961083 C19.3211496,19.0834743 19.5533872,19.065313 19.7864513,19.0416244 C19.9418273,19.0163565 20.0773681,18.9610829 20.1930737,18.8758037 C20.3087792,18.7905245 20.3798555,18.6610265 20.4063025,18.4873096 C20.4327495,18.3388607 20.419526,18.1967287 20.366632,18.0609137 C20.313738,17.9250987 20.223653,17.820079 20.0963769,17.7458545 C19.8633128,17.6226734 19.637687,17.5113367 19.4194993,17.4118443 C19.2013117,17.3123519 18.9880829,17.2136492 18.7798128,17.115736 C18.5715428,17.0178229 18.3649258,16.9254371 18.1599616,16.8385787 C17.9549975,16.7517202 17.7483804,16.6593345 17.5401104,16.5614213 C16.8938122,16.1918782 16.5772748,15.5870276 16.5904983,14.7468697 C16.6037218,13.9067118 16.9847237,13.3144952 17.733504,12.97022 C18.0690501,12.821771 18.4045962,12.7167513 18.7401424,12.6551607 C19.0756885,12.5935702 19.4244581,12.5754089 19.7864513,12.6006768 C20.1219974,12.6259447 20.4575435,12.6693739 20.7930897,12.7309645 C21.1286358,12.792555 21.4774054,12.8478285 21.8393985,12.8967851 L21.8393985,12.8967851 L21.8443574,12.8944162 Z"/>
</svg>
