<svg xmlns="http://www.w3.org/2000/svg" width="32" height="32" viewBox="0 0 32 32">
  <path fill="#F4BF75" fill-rule="evenodd" d="M20.4594595,21.6769627 C19.043751,22.0827991 17.7318808,22.2857143 16.5238095,22.2857143 C14.5890079,22.2857143 13.0246735,21.7052825 11.8307593,20.5444015 C10.6368452,19.3835206 10.039897,17.8592973 10.039897,15.971686 C10.039897,14.0840746 10.6156099,12.5834462 11.7670528,11.4697555 C12.9184957,10.3560648 14.4663137,9.7992278 16.4105534,9.7992278 C17.6563769,9.7992278 19.0059987,9.97382923 20.4594595,10.3230373 L20.4594595,12.1917632 C19.0909412,11.6443559 17.8309796,11.3706564 16.6795367,11.3706564 C15.4903415,11.3706564 14.5253147,11.797722 13.7844273,12.6518662 C13.0435398,13.5060103 12.6731017,14.6220437 12.6731017,16 C12.6731017,17.3590802 13.078932,18.4562378 13.8906049,19.2915058 C14.7022778,20.1267738 15.7687622,20.5444015 17.0900901,20.5444015 C18.3925419,20.5444015 19.5156538,20.2942968 20.4594595,19.7940798 L20.4594595,21.6769627 Z M15.8725869,27 C12.899599,27 10.3442835,25.9169992 8.20656371,23.7509653 C6.06884388,21.5849313 5,19.001302 5,16 C5,12.9609458 6.07592232,10.3678786 8.22779923,8.22072072 C10.3796761,6.07356284 12.9703838,5 16,5 C19.0296162,5 21.6203239,6.07356284 23.7722008,8.22072072 C25.9240777,10.3678786 27,12.9515079 27,15.971686 C27,19.0484924 25.9217182,21.6557165 23.7651223,23.7934363 C21.6085263,25.9311561 18.9777075,27 15.8725869,27 L15.8725869,27 Z M15.8725869,25.1737452 C18.4680524,25.1737452 20.6670867,24.2818622 22.4697555,22.4980695 C24.2724243,20.7142768 25.1737452,18.5435563 25.1737452,15.985843 C25.1737452,13.4658819 24.2747838,11.3093183 22.476834,9.51608752 C20.6788842,7.72285676 18.5199611,6.82625483 16,6.82625483 C13.4800389,6.82625483 11.3211158,7.72285676 9.52316602,9.51608752 C7.72521624,11.3093183 6.82625483,13.4706008 6.82625483,16 C6.82625483,18.4916469 7.72049728,20.6434916 9.50900901,22.4555985 C11.2975207,24.2677053 13.4186921,25.1737452 15.8725869,25.1737452 L15.8725869,25.1737452 Z"/>
</svg>
