<svg xmlns="http://www.w3.org/2000/svg" width="32" height="32" viewBox="0 0 32 32">
  <path fill="#D28445" fill-rule="evenodd" d="M17.740099,21.4188615 L14.259901,21.4188615 L14.259901,16.0025489 L11.6287129,19.4664401 L8.99752475,16.0025489 L8.99752475,21.4188615 L5.51732673,21.4188615 L5.51732673,10.5862362 L8.99752475,10.5862362 L11.6287129,14.2107052 L14.259901,10.5862362 L17.740099,10.5862362 L17.740099,21.4188615 L17.740099,21.4188615 Z M22.9628713,22.2931181 L18.6311881,16 L21.2623762,16 L21.2623762,10.5836873 L24.7425743,10.5836873 L24.7425743,16 L27.3737624,16 L22.9653465,22.2931181 L22.9628713,22.2931181 Z M27.990099,7 L4.00990099,7 C3.46864686,7 2.99834983,7.20560748 2.5990099,7.61682243 C2.19966997,8.02803738 2,8.51231946 2,9.06966865 L2,22.9303314 C2,23.5148683 2.19966997,24.0059473 2.5990099,24.4035684 C2.99834983,24.8011895 3.46864686,25 4.00990099,25 L27.990099,25 C28.5313531,25 29.0016502,24.8011895 29.4009901,24.4035684 C29.80033,24.0059473 30,23.5148683 30,22.9303314 L30,9.06966865 C30,8.51231946 29.80033,8.02803738 29.4009901,7.61682243 C29.0016502,7.20560748 28.5313531,7 27.990099,7 L27.990099,7 L27.990099,7 Z"/>
</svg>
