<svg xmlns="http://www.w3.org/2000/svg" width="33" height="32" viewBox="0 0 33 32">
  <g fill="none" transform="translate(5 5)">
    <path fill="#F4BF75" d="M2.96006027,0.293202767 L13.7809132,0.293202767 C15.291678,0.293202767 16.5191744,1.51416994 16.5191744,3.01689876 C16.5191744,4.51962759 15.291678,5.74059476 13.7809132,5.74059476 L2.96006027,5.74059476 C1.44929546,5.74059476 0.221799058,4.51962759 0.221799058,3.01689876 C0.221799058,1.51416994 1.44929546,0.293202767 2.96006027,0.293202767 Z"/>
    <ellipse cx="20.844" cy="3.017" fill="#F4BF75" rx="2.795" ry="2.724"/>
    <path fill="#F4BF75" d="M10.1550777,8.42672253 L20.8437387,8.42672253 C22.3545035,8.31401787 23.6575381,9.4598486 23.7708455,10.9625774 C23.8841529,12.4653062 22.7321947,13.7614099 21.2214299,13.8741145 L20.957046,13.8741145 L10.1550777,13.8741145 C8.64431286,13.9868192 7.34127821,12.8409885 7.22797085,11.3382596 C7.11466349,9.8355308 8.26662166,8.53942719 9.77738647,8.42672253 L10.0417703,8.42672253 L10.1550777,8.42672253 Z"/>
    <path fill="#D14748" d="M3.01671395,8.3703702 C4.56524788,8.3703702 5.81162885,9.61012148 5.81162885,11.1504185 C5.81162885,12.6907156 4.56524788,13.9304668 3.01671395,13.9304668 C1.46818002,13.9116827 0.221799058,12.6719315 0.221799058,11.1504185 C0.221799058,9.61012148 1.46818002,8.3703702 3.01671395,8.3703702 Z"/>
    <path fill="#F4BF75" d="M2.96006027,16.2596965 L13.7809132,16.2596965 C15.291678,16.2596965 16.5191744,17.4806637 16.5191744,18.9833925 C16.5191744,20.4861213 15.291678,21.7070885 13.7809132,21.7070885 L2.96006027,21.7070885 C1.44929546,21.7070885 0.221799058,20.4861213 0.221799058,18.9833925 C0.221799058,17.4806637 1.44929546,16.2596965 2.96006027,16.2596965 Z"/>
    <ellipse cx="20.844" cy="18.983" fill="#F4BF75" rx="2.795" ry="2.724"/>
  </g>
</svg>
