<svg xmlns="http://www.w3.org/2000/svg" width="33" height="32" viewBox="0 0 33 32">
  <path fill="#F4BF75" fill-rule="evenodd" d="M5.12475,15.1716 C5.19591574,14.9763027 5.16406032,14.7586031 5.0398654,14.5914994 C4.91567047,14.4243958 4.71557996,14.3300133 4.5066875,14.34 C3.86325,14.3922 3.4191875,15.7602 4.784,16.2156 C5.9059375,16.5882 6.723375,15.7242 8.0175,14.3922 C10.906625,11.4132 14.3975,11.1252 16.525375,14.1312 C17.402625,12.4842 20.8590625,9.7374 26.131625,15.4344 C28.071,17.5278 29.80375,15.5586 28.850375,14.4786 C28.6472856,14.2870079 28.3322215,14.2758791 28.115939,14.4526579 C27.8996565,14.6294368 27.8500542,14.9386263 28.0003125,15.1734 L27.91875,15.1734 C25.9376875,13.3734 30.075625,11.703 30.8966875,14.7396 C31.743125,19.3098 27.0215625,20.0514 23.2406875,18.3882 C15.930875,14.6532 15.8529375,15.6558 8.7769375,18.7356 C6.8312377,19.5669172 4.58791704,19.3142816 2.8790625,18.0714 C1.6030625,16.824 1.6828125,13.8576 3.337625,13.26 C5.026875,12.5688 6.455125,14.0502 5.12475,15.1716 Z"/>
</svg>
