<svg xmlns="http://www.w3.org/2000/svg" width="32" height="32" viewBox="0 0 32 32">
  <path fill="#90A959" fill-rule="evenodd" d="M15.9935645,29 C15.8148016,29 15.6360386,28.9721672 15.4572757,28.9165015 C15.2785127,28.8608358 15.1111906,28.7880422 14.9553093,28.6981207 L11.6367537,26.7583855 C11.3907758,26.624217 11.2956739,26.5235905 11.351448,26.4565062 C11.407222,26.3894219 11.4687165,26.3444612 11.5359314,26.321624 C11.8705756,26.2102926 12.1165535,26.1210848 12.2738649,26.0540005 C12.4311763,25.9869162 12.6878799,25.8527476 13.0439757,25.6514947 C13.0883089,25.6286575 13.1333572,25.6172389 13.1791205,25.6172389 C13.2248838,25.6172389 13.2584912,25.6286575 13.2799428,25.6514947 L15.8283876,27.1566093 C15.8727208,27.1794465 15.9284948,27.1908651 15.9957097,27.1908651 C16.0629246,27.1908651 16.1079728,27.1794465 16.1308545,27.1566093 L26.0521988,21.4701451 C26.096532,21.425898 26.1358598,21.3809373 26.1701823,21.3352629 C26.2045048,21.2895885 26.220951,21.2446277 26.2195209,21.2003806 L26.2195209,9.75894061 C26.2195209,9.71469352 26.2030747,9.66473713 26.1701823,9.60907145 C26.13729,9.55340576 26.0979621,9.51415431 26.0521988,9.4913171 L16.165177,3.80485291 C16.0979621,3.76060582 16.0364676,3.73848228 15.9806936,3.73848228 C15.9249196,3.73848228 15.8748659,3.76060582 15.8305327,3.80485291 L5.9435109,9.4913171 C5.89917769,9.51415431 5.85984984,9.55340576 5.82552735,9.60907145 C5.79120486,9.66473713 5.77475867,9.71469352 5.77618877,9.75894061 L5.77618877,21.2003806 C5.77618877,21.2446277 5.79263497,21.2895885 5.82552735,21.3352629 C5.85841974,21.3809373 5.89774759,21.425898 5.9435109,21.4701451 L8.6592778,23.0095155 C9.3972113,23.389184 9.97854844,23.4284355 10.4032892,23.1272698 C10.82803,22.8261042 11.0404004,22.4528586 11.0404004,22.0075331 L11.0404004,10.7330902 C11.0404004,10.6660059 11.0682875,10.6046309 11.1240615,10.5489652 C11.1798355,10.4932995 11.24133,10.4654667 11.3085449,10.4654667 L12.5827673,10.4654667 C12.6499821,10.4654667 12.7114766,10.4932995 12.7672506,10.5489652 C12.8230247,10.6046309 12.8509117,10.6660059 12.8509117,10.7330902 L12.8509117,22.0075331 C12.8509117,22.9895329 12.5992134,23.753152 12.0958169,24.2983903 C11.5924205,24.8436286 10.8716482,25.1169614 9.93350018,25.1183887 C9.64318913,25.1183887 9.34715767,25.0905559 9.04540579,25.0348902 C8.74365391,24.9792245 8.28030032,24.7950995 7.65534501,24.4825153 L5.04040043,23.0095155 C4.72720772,22.8082626 4.47550947,22.5463484 4.28530568,22.2237729 C4.09510189,21.9011974 4,21.5607803 4,21.2025216 L4,9.7610816 C4,9.40425026 4.09510189,9.06383316 4.28530568,8.73983031 C4.47550947,8.41582745 4.72720772,8.15391325 5.04040043,7.9540877 L14.9617447,2.2676235 C15.2749374,2.08920783 15.6210225,2 16,2 C16.3789775,2 16.7250626,2.08920783 17.0382553,2.2676235 L26.9595996,7.9540877 C27.2727923,8.15534058 27.5244905,8.41725478 27.7146943,8.73983031 C27.9048981,9.06240584 28,9.40282293 28,9.7610816 L28,21.2025216 C28,21.5593529 27.9048981,21.89977 27.7146943,22.2237729 C27.5244905,22.5477758 27.2727923,22.80969 26.9595996,23.0095155 L17.0382553,28.6959797 C16.882374,28.7859012 16.7150518,28.8586948 16.5362889,28.9143605 C16.3575259,28.9700262 16.178763,28.997859 16,28.997859 L16,28.997859 L15.9935645,29 Z M19.0439757,21.138292 C16.8759385,21.138292 15.462281,20.7364999 14.8030032,19.9329157 C14.1437254,19.1293315 13.8140865,18.3043375 13.8140865,17.4579336 C13.8140865,17.3908493 13.8419735,17.3294743 13.8977476,17.2738086 C13.9535216,17.2181429 14.0150161,17.19031 14.082231,17.19031 L15.3886307,17.19031 C15.4558455,17.19031 15.51734,17.2124336 15.5731141,17.2566807 C15.6288881,17.3009278 15.6567751,17.3565935 15.6567751,17.4236777 C15.7468716,18.0702561 16.0092957,18.561256 16.4440472,18.8966775 C16.8787987,19.232099 17.7447265,19.399096 19.0418305,19.3976687 C20.0915266,19.3976687 20.8516267,19.2692094 21.3221309,19.0122909 C21.792635,18.7553723 22.027172,18.3485846 22.0257419,17.7919277 C22.0257419,17.4793434 21.8469789,17.2060106 21.489453,16.9719293 C21.1319271,16.7378479 20.1487308,16.543018 18.5398641,16.3874395 C17.1769753,16.253271 16.1043976,15.9856475 15.3221309,15.584569 C14.5398641,15.1834906 14.1487308,14.4362858 14.1487308,13.3429546 C14.1487308,12.3395448 14.5455846,11.5587979 15.3392921,11.0007137 C16.1329996,10.4426295 17.2334644,10.1635873 18.6406864,10.1635873 C20.2266714,10.1635873 21.4222381,10.4426295 22.2273865,11.0007137 C23.0325349,11.5587979 23.4908831,12.4287527 23.6024312,13.6105781 C23.6024312,13.6548252 23.5967108,13.6997859 23.5852699,13.7454603 C23.5738291,13.7911347 23.5573829,13.8246769 23.5359314,13.8460867 C23.4915981,13.868924 23.4522703,13.8910475 23.4179478,13.9124574 C23.3836253,13.9338673 23.3442975,13.9452859 23.2999642,13.9467132 L22.0257419,13.9467132 C21.958527,13.9467132 21.8970325,13.9245896 21.8412585,13.8803426 C21.7854844,13.8360955 21.7575974,13.7804298 21.7575974,13.7133455 C21.6017161,13.02252 21.2999642,12.548648 20.8523418,12.2917294 C20.4047193,12.0348109 19.6675009,11.9063516 18.6406864,11.9063516 C17.5008938,11.9063516 16.7915624,12.0626437 16.5126922,12.375228 C16.233822,12.6878122 16.0943868,12.9889779 16.0943868,13.2787249 C16.0943868,13.6355563 16.2788702,13.8974705 16.647837,14.0644675 C17.0168037,14.2314646 17.972113,14.4155896 19.5137647,14.6168424 C21.033965,14.8180953 22.1623168,15.119261 22.8988202,15.5203394 C23.6353236,15.9214178 24.0042903,16.657204 24.0057204,17.727698 C24.0071505,18.7981921 23.5766893,19.6346047 22.7143368,20.236936 C21.8519843,20.8392673 20.6285306,21.140433 19.0439757,21.140433 L19.0439757,21.140433 L19.0439757,21.138292 Z"/>
</svg>
