<svg xmlns="http://www.w3.org/2000/svg" width="33" height="32" viewBox="0 0 33 32">
  <path fill="#F4BF75" fill-rule="evenodd" d="M4,4.8180761 C4,3.8139804 4.81758131,3 5.8180761,3 L27.1819239,3 C28.1860196,3 29,3.81758131 29,4.8180761 L29,26.1819239 C29,27.1860196 28.1824187,28 27.1819239,28 L5.8180761,28 C4.8139804,28 4,27.1824187 4,26.1819239 L4,4.8180761 Z M11.062205,8.55555556 C10.7965465,8.60170551 10.5686478,8.74642748 10.3181185,8.83269575 C9.78874432,9.18550186 9.3633549,9.72725136 9.25438929,10.379609 C8.92301417,11.4833343 7.94870965,12.2089013 7.60848341,13.3033531 C7.32833705,14.0052088 6.82678604,14.558184 6.35839074,15.1217856 C6.03558191,15.5397475 6.0709342,16.1003077 5.928707,16.5889983 C5.78655466,16.7219775 5.68563494,17.0269421 5.95141386,17.0599555 C5.94421049,17.3084343 5.78003345,17.5849919 5.95316055,17.8225439 C6.08765117,18.3415329 6.32548806,18.8384678 6.56100584,19.3187386 C6.60782898,19.493675 6.89620309,19.6966787 6.9400358,19.4147415 C6.97508173,19.01242 7.1429401,18.5341808 6.87016853,18.1793845 C6.69537665,17.7244445 6.8391583,17.2441621 6.9208223,16.7900608 C6.88131169,16.5099082 6.97771746,16.1901993 7.1234374,15.9676971 C7.27388551,16.0517037 7.22270304,16.3337297 7.28232889,16.4850475 C7.42604414,17.5735748 7.46954149,18.7053634 7.20378477,19.7788276 C7.10484924,20.1993677 7.26745761,20.6444788 7.17234449,21.0576575 C6.83096835,21.4423069 7.09540481,21.9945841 7.12518408,22.4415471 C7.29108504,23.2708305 7.2002738,24.1321813 6.96099599,24.9249405 C6.95568551,25.2096381 6.85970168,25.4695212 6.80204794,25.7418701 C6.89768008,26.0844366 7.35176148,26.2048387 7.65442869,26.12407 C7.8428813,25.992206 8.20212754,26.2435221 8.29196757,25.930253 C8.31921754,25.590157 7.99878224,25.3357879 8.02472525,24.99015 C7.82501367,24.0420196 7.67492227,23.0543276 7.86892307,22.087382 C7.96894869,21.5257118 7.92982956,20.9250678 8.08236575,20.3838264 C8.41903703,19.9455198 8.64965482,19.4270391 8.79326527,18.8840089 C8.99341517,18.4326807 9.11731919,17.8844569 9.23866915,17.454835 C9.76119744,18.3258792 10.0752299,19.3696096 9.93859968,20.4090384 C9.95624664,20.8144627 9.71172968,21.289387 10.0402398,21.6095167 C10.4385336,22.2556114 10.9411752,22.8649147 11.1425524,23.6098832 C11.1585078,23.9213502 10.7537271,23.9263142 10.6464947,24.1786545 C10.4086637,24.5372132 10.4338651,24.9940173 10.4071993,25.4085773 C10.631698,25.4989663 10.9613052,25.7395927 11.1512858,25.4502389 C11.3367868,25.2473465 11.4158922,24.8924471 11.6089165,24.7365577 C11.7278915,24.9701629 11.6169098,25.3486264 11.9233192,25.4629186 C12.3628889,25.6263972 12.8699364,25.6718357 13.3259047,25.5589214 C13.5601278,25.3482745 13.2398327,25.0512121 13.0411956,24.9702249 C12.711678,24.8690169 12.5182413,24.6026331 12.4054034,24.2800915 C12.3017992,24.1019265 12.2277773,23.8936695 12.4298569,23.7566044 C12.9053406,23.1584517 13.5594733,22.7624587 14.0630045,22.2024457 C14.3668696,21.7646851 14.2867726,21.1549772 14.1712988,20.6609666 C14.0289215,20.3727826 13.9259551,20.0703434 14.0036173,19.7426001 C14.0565314,19.4604889 13.870007,19.1690595 13.8813496,18.918425 C14.1478759,18.9005043 14.4593627,18.9105553 14.69705,19.0035596 C14.7615,19.449539 14.6658847,19.9251025 14.7896241,20.3566558 C14.991379,20.5564582 15.0869457,20.8720731 15.1005335,21.1590944 C15.2889359,21.3995266 15.1699782,21.7531665 15.2210546,22.0466676 C15.1004709,22.5248366 15.2719297,22.9965868 15.4131896,23.4504823 C15.6716269,24.314154 15.5623607,25.2450743 15.7834861,26.1113904 C15.9514566,26.357408 15.6696757,26.7680455 15.998328,26.9301313 C16.5066527,27.1270865 17.1875713,27.1834843 17.6209955,26.7870328 C17.7530849,26.5132789 17.3631964,26.3559624 17.1755916,26.2689799 C16.9119393,26.2095013 16.7118825,26.0184788 16.6558847,25.7356378 C16.2547426,24.8773376 16.058927,23.9146681 16.1990874,22.9581341 C16.2194652,22.4972023 16.2804588,22.0414931 16.3948248,21.602881 C16.4485063,21.1545402 16.4552946,20.6935783 16.5817197,20.2678985 C16.6560077,19.6680254 16.5299224,19.03602 16.6917607,18.452902 C16.9533863,18.6252682 17.2340688,18.7996076 17.5441415,18.8242336 C17.7456694,18.9827575 17.9622585,18.8246393 18.0716394,18.6340393 C18.2333262,18.4037022 18.4276914,19.0189137 18.5755278,18.706969 C18.7589523,18.491295 18.9955743,18.3373827 19.2034892,18.1685163 C19.3213369,17.9693608 19.5632258,17.9754488 19.7327338,17.8841306 C19.850416,17.7246596 19.6568546,17.4724363 19.8742151,17.3497753 C19.9483711,17.1455271 20.1373537,17.4148121 20.2235515,17.2211678 C20.3151659,17.0105256 20.3005178,16.7203916 20.5449409,16.6288486 C20.9886764,16.2633429 20.8558587,15.5967724 20.9352994,15.0802961 C20.9302131,14.565215 21.028579,14.0193965 20.9071278,13.5229979 C20.7648579,13.1300904 20.5309948,12.7306604 20.4366466,12.3395154 C20.8691608,11.9815407 21.6340823,12.2782271 21.928313,11.6892322 C22.055828,11.2583464 21.6547608,10.8904703 21.3903349,10.6168989 C21.1331624,10.3656035 20.7275689,10.4852796 20.4131411,10.3617327 C20.1690656,10.2758673 19.7895834,10.3709236 19.7257471,10.0263911 C19.6234033,9.75398115 19.3031904,9.7561748 19.1318753,9.54999977 C18.8576043,9.40356043 18.6087863,9.7382211 18.3388817,9.76555325 C18.0384653,9.98305264 17.6940705,10.195201 17.5022211,10.5263302 C17.4201399,10.742279 17.491091,11.0243103 17.266419,11.1584997 C16.8915509,11.6054795 17.0489748,12.2685515 17.0131502,12.812284 C17.0179011,13.0607021 17.0116243,13.3122466 17.1476447,13.515097 C17.1682158,13.8199419 17.4355476,14.0200237 17.3879378,14.3338287 C17.3505996,14.5398871 17.5253936,14.9798962 17.1965518,14.8844956 C17.0964152,14.7112193 17.1113461,14.4164575 17.0180493,14.2131089 C16.7430399,13.3361491 16.326271,12.3857052 15.4935369,11.9464473 C14.906099,11.5002737 14.4867724,10.8518157 14.2429127,10.1477531 C14.0122344,9.79055537 13.5876186,9.57049432 13.4062521,9.18410226 C13.1678773,9.0788058 12.880132,9.11524513 12.6429521,8.97760565 C12.3484001,8.84209446 12.0820806,8.59673696 11.7294872,8.6400545 C11.4969595,8.65779833 11.282577,8.57375324 11.062205,8.55555556 Z M11.4918888,17.4672007 C11.6956011,17.5373609 11.6327837,17.8665521 11.7067306,18.0377835 C11.8021285,18.2780713 11.7215369,18.7043696 11.9914398,18.8257311 C12.1437476,19.0872065 12.0492664,19.4410058 12.2027883,19.6825109 C12.1673114,19.8539132 12.113309,20.1741838 12.3704697,20.1788273 C12.6010703,20.1581475 12.6642236,20.4254008 12.8263537,20.5447248 C12.9763487,20.7622322 13.1438737,21.0704504 12.9119411,21.3000677 C12.6870859,21.5829903 12.5331543,22.0271595 12.1189476,22.0391082 C11.9482886,22.0581111 11.7125458,22.3337593 11.6351167,22.0499764 C11.3399671,21.5334937 11.088887,20.9837867 11.1460458,20.3690215 C11.1505022,19.4036851 11.3625717,18.4551628 11.4691819,17.5034282 C11.4640453,17.4767804 11.4729044,17.4655058 11.4918888,17.4672007 Z"/>
</svg>
