<svg xmlns="http://www.w3.org/2000/svg" width="33" height="32" viewBox="0 0 33 32">
  <g fill="none" fill-rule="evenodd">
    <path fill="#AA759F" fill-rule="nonzero" d="M19.3736364,6.03947368 L25.1472727,6.03947368 L22.2604545,11.0131579 L19.3736364,16 L16.5,20.9868421 L13.6131818,25.9605263 L7.85272727,25.9605263 L10.7395455,20.9868421 L13.6131818,16 L16.5,11.0131579 L19.3736364,6.03947368 Z"/>
    <path fill="#6A9FB5" fill-rule="nonzero" d="M4.97909091 20.9868421L2.09227273 16 4.97909091 11.0131579 7.85272727 6.03947368 13.6131818 6.03947368 10.7395455 11.0131579 7.85272727 16 10.7395455 20.9868421 7.85272727 25.9605263 4.97909091 20.9868421zM25.1472727 16L22.2604545 11.0131579 25.1472727 6.03947368 28.0209091 11.0131579 30.9077273 16 28.0209091 20.9868421 25.1472727 25.9605263 19.3868182 25.9605263 22.2604545 20.9868421 25.1472727 16z"/>
  </g>
</svg>
