<svg xmlns="http://www.w3.org/2000/svg" width="33" height="32" viewBox="0 0 33 32">
  <path fill="#D14748" d="M29.9008861,13.7578077 C29.8831139,13.4019615 29.8742278,13.0461154 29.838,12.6906154 C29.7751139,12.2070385 29.7122278,11.7144615 29.6042278,11.2402308 C29.5232278,10.8480385 29.3889114,10.4738462 29.2535696,10.1 C29.0826835,9.66211538 28.9117975,9.21523077 28.6957975,8.79569231 C28.3451392,8.12069231 27.886481,7.51838462 27.4637089,6.88907692 C27.1841392,6.48753846 26.8245949,6.15938462 26.5545949,5.74884615 C26.4018228,5.51173077 26.1769367,5.31130769 25.9520506,5.12923077 C25.5921646,4.83673077 25.2145063,4.57192308 24.8368481,4.31680769 C24.5518303,4.11438973 24.257582,3.92564327 23.9550759,3.75119231 C23.7124177,3.61376923 23.4516456,3.50438462 23.1997595,3.38565385 C22.9119873,3.24892308 22.6331013,3.0845 22.309443,3.02080769 C22.2281013,3.0035 22.1563291,2.97580769 22.0753291,2.94811538 C21.868557,2.87542308 21.6706709,2.79338462 21.463557,2.72934615 C21.1491266,2.62896154 20.8432405,2.51057692 20.5192405,2.42819231 C20.2054937,2.34615385 19.8814937,2.29180769 19.5574937,2.24576923 C19.1979494,2.19211538 18.829519,2.17307692 18.4692911,2.13742308 C18.239359,2.10733418 18.0083829,2.08608814 17.7768608,2.07373077 C17.4350886,2.05538462 17.0844304,2.05538462 16.7426582,2.04638462 C16.5717722,2.03703846 16.392,2.01869231 16.2211139,2.02803846 C15.9603418,2.03703846 15.6995696,2.06438462 15.4384557,2.10073077 C15.1869114,2.12842308 14.9350253,2.17342308 14.6923671,2.21046154 C14.3960506,2.24680769 14.0993924,2.26515385 13.8023924,2.30184615 C13.5235063,2.33853846 13.2357342,2.39323077 12.9571899,2.43892308 C12.8580759,2.45726923 12.758962,2.49361538 12.6598481,2.51161538 C12.4445316,2.55730769 12.2196456,2.57565385 12.0036456,2.64869231 C11.617443,2.76776923 11.2302152,2.90484615 10.852557,3.05023077 C10.501557,3.19630769 10.1597848,3.35138462 9.82724051,3.53380769 C9.48546835,3.72488462 9.16146835,3.95265385 8.83781013,4.17211538 C8.52693652,4.38281034 8.22369976,4.6048405 7.9286962,4.83776923 C7.64160759,5.06623077 7.37160759,5.32134615 7.11049367,5.57680769 C6.96694937,5.72219231 6.84972152,5.89596154 6.71472152,6.06003846 C6.49017722,6.32484615 6.26529114,6.57996154 6.04929114,6.85376923 C5.87020253,7.08223077 5.70751899,7.319 5.53663291,7.55646154 C5.23143038,7.97530769 4.97065823,8.42253846 4.728,8.86976923 C4.62888608,9.05219231 4.539,9.23461538 4.44911392,9.41669231 C4.31411392,9.69015385 4.17022785,9.95496154 4.0444557,10.2377692 C3.95422785,10.4295385 3.8824557,10.6393077 3.8284557,10.8490769 C3.70302532,11.2963077 3.57691139,11.7525385 3.46002532,12.1990769 C3.35202532,12.6006154 3.32502532,13.0201538 3.31648101,13.4306923 C3.30725316,13.7955385 3.34313924,14.1513846 3.37902532,14.5162308 C3.38825316,14.6076154 3.33459494,14.717 3.44191139,14.7896923 C3.40602532,14.8900769 3.43302532,14.9454615 3.48634177,14.9627692 C3.42413924,15.0631538 3.51368354,15.1275385 3.47813924,15.2189231 C3.46891139,15.2369231 3.50548101,15.2732692 3.52256962,15.3006154 C3.52256962,15.3283077 3.51402532,15.3646538 3.52256962,15.392 C3.53213924,15.4740385 3.56802532,15.5560769 3.56802532,15.6474615 C3.56802532,15.7111538 3.62168354,15.7841923 3.63979747,15.8482308 C3.64868354,15.8752308 3.63979747,15.9209231 3.62168354,15.9392692 C3.56768354,16.0029615 3.57656962,16.0576538 3.65756962,16.0943462 C3.70302532,16.2127308 3.68491139,16.2674231 3.67602532,16.3228077 C3.69379747,16.4045 3.66679747,16.4318462 3.67602532,16.4501923 C3.74779747,16.5962692 3.77513924,16.7603462 3.78368354,16.9244231 C3.78368354,16.9611154 3.80179747,16.9978077 3.81991139,17.0431538 C3.82879747,17.0431538 3.81991139,17.2162308 3.81991139,17.2162308 C3.86434177,17.1892308 3.90091139,17.1802308 3.94568354,17.1618846 C3.97302532,17.2802692 3.99968354,17.3903462 4.03556962,17.4907308 C4.08068354,17.5634231 4.08068354,17.5994231 4.06291139,17.6084231 C4.09879747,17.7725 4.11656962,17.9275769 4.17911392,18.0826538 C4.17911392,17.9095769 4.16202532,17.7365 4.13468354,17.5720769 C4.2604557,17.6177692 4.3684557,17.6631154 4.44056962,17.6631154 C4.44979747,17.6354231 4.45868354,17.5994231 4.46791139,17.5810769 C4.41391139,17.5267308 4.36879747,17.4446923 4.31479747,17.39 C4.33291139,17.4626923 4.31479747,17.4903846 4.31479747,17.5180769 C4.27891139,17.4993846 4.23379747,17.4810385 4.18902532,17.4626923 C4.22491139,17.4176923 4.26079747,17.3716538 4.31479747,17.3173077 C4.31479747,17.2349231 4.27036709,17.1615385 4.14391139,17.1708846 C4.19791139,17.1528846 4.25191139,17.1258846 4.31479747,17.1071923 C4.41391139,17.0528462 4.30591139,16.9524615 4.30591139,16.8247308 C4.31479747,16.67 4.22491139,16.5149231 4.19791139,16.3505 C4.15279747,16.0953846 4.16202532,15.7121923 4.13502532,15.4567308 C4.08102532,15.4110385 4.03591139,15.5294231 4.02702532,15.5387692 C4.05436709,15.7575385 4.08102532,15.9763077 4.09879747,16.1954231 C4.04513924,16.013 4.00891139,15.8122308 3.96413924,15.5931154 C3.95491139,15.6571538 3.94602532,15.6845 3.94602532,15.7211923 C3.90159494,15.7661923 3.93713924,15.8215769 3.96413924,15.8852692 C3.90125316,15.8575769 3.82913924,15.8672692 3.82913924,15.8672692 L3.82913924,16.1227308 C3.73959494,16.0313462 3.71293671,15.9586538 3.66748101,15.8942692 C3.64970886,15.8215769 3.64013924,15.7488846 3.62305063,15.6761923 C3.64013924,15.6301538 3.62305063,15.6028077 3.62305063,15.5758077 C3.61249222,15.5028459 3.60337648,15.4296774 3.59570886,15.3563462 C3.60459494,15.3473462 3.58682278,15.2109615 3.58682278,15.2109615 C3.65859494,15.2196154 3.70405063,15.2282692 3.74882278,15.2282692 C3.65893671,15.1105769 3.72148101,15.0371923 3.75805063,14.9641538 C3.77616456,14.9274615 3.83905063,14.9191538 3.85716456,14.8817692 C3.92893671,14.7450385 4.04616456,14.636 4.04616456,14.4622308 C4.04616456,14.3801923 4.07350633,14.2891538 4.08205063,14.2067692 C4.10016456,14.0516923 4.11793671,13.8966154 4.12648101,13.7415385 C4.14493671,13.5407692 4.12648101,13.34 4.17193671,13.1485769 C4.24439241,12.8301154 4.33427848,12.5106154 4.43305063,12.1911154 C4.50482278,11.9626538 4.58616456,11.7445769 4.67570886,11.5161154 C4.81070886,11.1602692 4.93682278,10.8044231 5.10770886,10.4672692 C5.35036709,9.97434615 5.62925316,9.50011538 5.89925316,9.01688462 C6.07013924,8.71573077 6.24991139,8.43292308 6.43925316,8.14111538 C6.61868354,7.85830769 6.79811392,7.5665 7.00556962,7.30169231 C7.29035345,6.92816874 7.60964582,6.58299201 7.95911392,6.27084615 C8.319,5.94269231 8.66077215,5.60519231 9.04731646,5.30403846 C9.5504249,4.9111751 10.0861577,4.56314595 10.648519,4.26384615 C11.107519,4.01807692 11.5839494,3.82561538 12.0607215,3.64319231 C12.3666076,3.52480769 12.6991519,3.47011538 13.0142658,3.36973077 C13.3738101,3.251 13.7336962,3.19665385 14.1113544,3.18730769 C14.3540127,3.17796154 14.5881266,3.15061538 14.8307848,3.12326923 C15.0467848,3.10596154 15.262443,3.08726923 15.496557,3.05992308 C15.4692152,3.09626923 15.4603291,3.11461538 15.451443,3.13261538 C15.3530127,3.27869231 15.2450127,3.42476923 15.1458987,3.5705 C15.0648987,3.68923077 14.9750127,3.81696154 14.8940127,3.93534615 C14.7497848,4.12746154 14.5966709,4.31888462 14.4620127,4.51965385 C14.2552405,4.82080769 14.0662405,5.13096154 13.8502405,5.43176923 C13.6349241,5.72357692 13.4008101,5.99738462 13.1759241,6.27984615 C12.8792658,6.67238462 12.6003797,7.07357692 12.3037215,7.46576923 C12.0337215,7.83961538 11.7466329,8.19615385 11.485519,8.57 C11.2517468,8.89780769 11.0446329,9.245 10.8197468,9.58180769 C10.4872025,10.0837308 10.1543165,10.5759615 9.82177215,11.0778846 C9.56070616,11.4599349 9.29685083,11.8400223 9.03022785,12.2181154 C9.01211392,12.2458077 8.98511392,12.2541154 8.9584557,12.2724615 C8.88668354,12.3908462 8.88668354,12.4548846 8.85934177,12.5095769 C8.78756962,12.6463077 8.71579747,12.7830385 8.6344557,12.9111154 C8.58934177,12.9838077 8.5264557,13.0475 8.4724557,13.1205385 C8.46356962,13.0111538 8.616,12.9564615 8.54422785,12.8193846 C8.49979747,12.8927692 8.45434177,12.9564615 8.40956962,13.0295 L8.30156962,13.2475769 C8.3374557,13.2752692 8.40068354,13.2936154 8.3374557,13.3479615 C8.31011392,13.394 8.2834557,13.4483462 8.2564557,13.4943846 C8.29538565,13.4712036 8.32913663,13.4400847 8.35556962,13.403 C8.35556962,13.5033846 8.30156962,13.5850769 8.2564557,13.6671154 C8.22056962,13.7398077 8.13068354,13.7951923 8.06779747,13.8495385 C8.07668354,13.8588846 8.13956962,13.8862308 8.14879747,13.8952308 C8.22979747,13.8675385 8.25679747,13.8225385 8.26602532,13.8495385 C8.29336709,13.8131923 8.32002532,13.7858462 8.32891139,13.7585 C8.3644557,13.6671154 8.4184557,13.5944231 8.50834177,13.5577308 C8.54456962,13.5393846 8.57122785,13.5120385 8.59822785,13.4850385 C8.86822785,13.2018846 9.14711392,12.9284231 9.38977215,12.6272692 C9.76777215,12.1616923 10.1095443,11.6788077 10.4697722,11.2045769 C10.6222025,11.0038077 10.8023165,10.8030385 10.9639747,10.6112692 C10.9906329,10.8210385 10.9728608,11.0214615 10.9639747,11.2135769 C10.9366329,11.5507308 10.9188608,11.8885769 10.8922025,12.2347308 C10.8829747,12.3714615 10.8922025,12.5081923 10.8829747,12.6452692 C10.8829747,12.6816154 10.8556329,12.7089615 10.8556329,12.7456538 C10.8556329,12.8366923 10.8829747,12.9370769 10.8829747,13.0284615 C10.8556329,13.3659615 10.8194051,13.6941154 10.7924051,14.0316154 C10.7831772,14.1043077 10.8190633,14.1776923 10.8368354,14.2417308 C10.7924051,14.7339615 10.891519,15.2542308 10.8101772,15.7741538 C10.8730633,15.6737692 10.8911772,15.6100769 10.8911772,15.5463846 C10.8997215,15.4916923 10.8911772,15.437 10.8911772,15.3733077 L10.8911772,15.2819231 C10.8997215,15.1175 10.9356076,14.9444231 10.9178354,14.78 C10.8997215,14.5975769 10.8997215,14.4245 10.9359494,14.2510769 C10.9540633,14.1783846 10.9270633,14.087 10.9721772,13.9956154 L10.9721772,14.1323462 C10.9632911,14.6515769 10.9814051,15.1718462 10.9096329,15.6917692 C10.9004051,15.7374615 10.9369747,15.8198462 10.8378608,15.8105 C10.756519,15.9745769 10.8556329,16.0933077 10.7660886,16.1843462 C10.7476329,16.2026923 10.7831772,16.2847308 10.7924051,16.3394231 C10.7561772,16.4491538 10.7561772,16.4491538 10.8101772,16.4581538 C10.8190633,16.6589231 10.837519,16.841 10.8460633,17.0327692 C10.9896076,16.6866154 10.9178354,16.3300769 10.9814051,15.9742308 C10.9902911,16.1203077 10.999519,16.2663846 10.9902911,16.4207692 C10.9902911,16.6585769 10.9814051,16.8863462 10.972519,17.1234615 C10.972519,17.1691538 10.9632911,17.2148462 10.9544051,17.2605385 C10.9270633,17.3886154 10.918519,17.516 10.8734051,17.6343846 C10.837519,17.7257692 10.8556329,17.8628462 10.8556329,17.9718846 L10.8556329,18.3190769 C10.891519,18.4741538 10.8464051,18.5561923 10.8734051,18.6472308 C10.8460633,18.7389615 10.837519,18.7663077 10.8460633,18.7936538 L10.8734051,18.9303846 C11.053519,18.9120385 10.972519,19.0491154 11.0442911,19.1218077 C10.9902911,19.1951923 11.0084051,19.2221923 11.0084051,19.2592308 C11.0084051,19.3412692 10.9998608,19.4143077 10.9906329,19.4963462 C10.9906329,19.7061154 10.9817468,19.9158846 10.9817468,20.1166538 C10.9817468,20.1443462 10.9906329,20.171 10.9906329,20.1983462 C10.9906329,20.2170385 10.9817468,20.4545 10.9817468,20.4545 C10.9998608,20.4815 10.9817468,20.5088462 10.9544051,20.5361923 C10.9458608,20.5361923 10.9188608,19.3776154 10.9188608,19.3776154 L10.7838608,19.3776154 C10.7660886,19.9245385 10.8112025,20.4171154 10.7120886,20.9283846 C10.6040886,20.9370385 10.5685443,20.9553846 10.4509747,20.9553846 C10.1720886,20.9553846 9.89320253,20.9553846 9.61431646,20.9643846 C9.28143038,20.9643846 8.95811392,20.9733846 8.62488608,20.9733846 C8.46356962,20.9733846 8.29268354,20.9920769 8.13068354,20.9920769 C7.91468354,20.9920769 7.68979747,20.9643846 7.47448101,20.9643846 C7.14125316,20.9643846 6.81759494,20.9920769 6.48470886,21.0010769 C6.24205063,21.0100769 5.99939241,21.0100769 5.75673418,21.0194231 C5.59439241,21.0280769 5.43205063,21.0367308 5.27073418,21.0554231 C5.19896203,21.0644231 5.13573418,21.0917692 5.0458481,21.1191154 C5.01850633,21.1191154 4.95596203,21.1101154 4.9023038,21.1191154 C4.81173418,21.1374615 4.73141772,21.1918077 4.6408481,21.2105 C4.5058481,21.2381923 4.46996203,21.2741923 4.48773418,21.4112692 L4.48773418,21.5023077 C4.4788481,21.5203077 4.68596203,21.4746154 4.68596203,21.4746154 C4.66750633,21.4746154 4.65862025,21.5293077 4.63127848,21.575 C4.70373418,21.5473077 4.74850633,21.5293077 4.79362025,21.5113077 C4.92862025,21.5753462 5.04550633,21.539 5.15316456,21.5666923 C5.50382278,21.6573846 5.86336709,21.6947692 6.22291139,21.7304231 C6.45702532,21.7487692 6.68191139,21.7581154 6.91568354,21.7667692 C7.24822785,21.7851154 7.58111392,21.8034615 7.91365823,21.8034615 C8.1925443,21.8034615 8.4625443,21.7757692 8.74074684,21.7757692 C9.12694937,21.7757692 9.51451899,21.7937692 9.90106329,21.8034615 C9.98206329,21.8034615 10.0719494,21.7937692 10.1618354,21.7937692 L10.818038,21.7937692 C11.4031519,21.7757692 11.9875823,21.7660769 12.5723544,21.7487692 C12.9055823,21.7390769 13.2473544,21.7210769 13.5798987,21.7117308 L14.6052152,21.6840385 C15.0009873,21.6750385 15.3967595,21.6750385 15.7836456,21.6667308 C16.0803038,21.6667308 16.3680759,21.6563462 16.6654177,21.6476923 C16.9976203,21.6386923 17.3393924,21.6113462 17.6722785,21.5933462 C17.8523924,21.584 18.0325063,21.5656538 18.2122785,21.5476538 C18.4282785,21.5296538 18.6531646,21.5026538 18.868481,21.4933077 C19.192481,21.4746154 19.5253671,21.4656154 19.8493671,21.4472692 C20.2540253,21.4202692 20.6586835,21.3839231 21.0722278,21.3745769 C21.4502278,21.3565769 21.8367722,21.3655769 22.2147722,21.3565769 C22.5476582,21.3472308 22.8805443,21.3288846 23.2223165,21.3198846 L23.7896582,21.2921923 C23.7896582,21.2921923 24.1669747,21.2831923 24.3559747,21.2645 C24.6796329,21.2465 25.0032911,21.2101538 25.3272911,21.2011538 C25.5337215,21.1918077 25.7408354,21.2011538 25.9476076,21.1918077 C26.2801519,21.1828077 26.6219241,21.1641154 26.9548101,21.1641154 C27.0802405,21.1641154 27.2152405,21.1828077 27.3772405,21.1918077 C27.3054684,21.2558462 27.2603544,21.2921923 27.2063544,21.3378846 C27.2422405,21.3468846 27.2781266,21.3655769 27.3143544,21.3835769 C27.2724126,21.4135817 27.222154,21.4293373 27.1708101,21.4285769 C27.1523544,21.4746154 27.1342405,21.4929615 27.1161266,21.5843462 L27.2781266,21.5843462 C27.2152405,21.5843462 27.1612405,21.6663846 27.0983544,21.7210769 C27.0265823,21.7023846 26.9633544,21.7210769 26.9274684,21.8214615 C26.9903544,21.8574615 26.9814684,21.8848077 26.9725823,21.9218462 C26.8645823,21.9578462 26.7835823,21.9945385 26.829038,22.1129231 C26.7924684,22.1309231 26.7476962,22.1492692 26.7025823,22.1766154 C26.6581519,22.2493077 26.5768101,22.2676538 26.5945823,22.3680385 C26.6308101,22.3766923 26.6663544,22.3957308 26.6936962,22.4040385 C26.6485823,22.4223846 26.6038101,22.4497308 26.5586962,22.4677308 C26.397038,22.5681154 26.4691519,22.6138077 26.505038,22.6595 C26.4776962,22.6778462 26.451038,22.6958462 26.424038,22.7051923 C26.4418101,22.7872308 26.4684684,22.8055769 26.4776962,22.8055769 C26.4317253,22.840792 26.3867086,22.877267 26.3426962,22.9149615 C26.3153544,22.997 26.2794684,23.0333462 26.2435823,23.0880385 C26.2076962,23.1427308 26.1895823,23.2161154 26.1444684,23.2704615 C25.9558101,23.4805769 25.8208101,23.7273846 25.5781519,23.8911154 C25.4879241,23.9551538 25.4072658,24.0371923 25.3262658,24.1195769 C25.1642658,24.2743077 25.0203797,24.4477308 24.8494937,24.5938077 C24.6235347,24.7833319 24.3895413,24.9628093 24.1481772,25.1317308 C23.8536561,25.3416278 23.5569817,25.5484082 23.2582025,25.7520385 C23.0962025,25.8610769 22.9164304,25.9431154 22.7455443,26.0435 C22.5746582,26.1438846 22.4126582,26.2352692 22.2417722,26.3353077 C22.1337722,26.408 22.0346582,26.5083846 21.9177722,26.5637692 C21.6211139,26.6918462 21.306,26.8008846 21.0004557,26.9196154 C20.7031139,27.0476923 20.4877975,27.1567308 20.2629114,27.2387692 C20.0561392,27.3114615 19.8401392,27.3668462 19.624481,27.4118462 C19.5527089,27.4305385 19.4713671,27.4118462 19.3903671,27.4211923 C19.2372532,27.4488846 19.084481,27.4855769 18.9313671,27.5035769 C18.5355949,27.5582692 18.1398228,27.5949615 17.7443924,27.6496538 C17.5102785,27.6773462 17.2853924,27.7223462 17.0516203,27.7500385 C16.889962,27.7590385 16.7190759,27.7410385 16.5570759,27.7410385 C16.4401899,27.7410385 16.3144177,27.7687308 16.1971899,27.7503846 C16.0085316,27.7226923 15.8195316,27.6776923 15.6305316,27.641 C15.5861013,27.632 15.5225316,27.6133077 15.4869873,27.632 C15.4152152,27.6686923 15.3516456,27.614 15.2795316,27.632 C15.2351013,27.6413462 15.1899873,27.6043077 15.1448734,27.6043077 C15.1086456,27.5956538 15.0635316,27.614 15.0184177,27.6043077 C14.9193038,27.5773077 14.8297595,27.5409615 14.7210759,27.5499615 C14.6141013,27.5589615 14.5057595,27.5042692 14.389557,27.4772692 C14.2272152,27.4405769 14.0751266,27.4045769 13.912443,27.3675385 C13.8495741,27.3476507 13.7893228,27.3201029 13.7330127,27.2855 C13.4988987,27.2855 13.3457848,27.2765 13.2018987,27.2214615 C13.0761266,27.1764615 12.9592405,27.1124231 12.8242405,27.1307692 C12.7886962,27.1397692 12.7616962,27.1217692 12.7251266,27.1217692 C12.6977848,27.0850769 12.6714684,27.0120385 12.6448101,27.0120385 C12.465038,27.0213846 12.357038,26.8666538 12.2039241,26.8206154 C12.1232658,26.7929231 12.0603797,26.7018846 11.9793797,26.6745385 C11.7811519,26.5925 11.6198354,26.4194231 11.3949494,26.3920769 C11.3231772,26.3827308 11.2514051,26.3463846 11.1700633,26.3193846 C11.1974051,26.3553846 11.2144937,26.3827308 11.2418354,26.4100769 C10.9810633,26.282 10.7384051,26.1366154 10.4954051,25.9995385 C10.4598608,25.9905385 10.4328608,25.9545385 10.4058608,25.9358462 L10.1632025,25.7717692 C10.0282025,25.7994615 9.97420253,25.7440769 9.93763291,25.7260769 C9.69497468,25.553 9.41643038,25.4432692 9.18231646,25.2518462 C9.08320253,25.1694615 8.967,25.1147692 8.89522785,25.0143846 C8.76877215,24.8593077 8.616,24.7499231 8.44511392,24.6588846 C8.3104557,24.5861923 8.18468354,24.5038077 8.05891139,24.4217692 C7.99568354,24.3760769 7.9324557,24.3213846 7.9324557,24.221 C7.9324557,24.1569615 7.90579747,24.0929231 7.82479747,24.1296154 C7.78891139,24.0749231 7.75302532,24.0112308 7.70791139,23.9928846 C7.59991139,23.9478846 7.52813924,23.8648077 7.44713924,23.7921154 C7.36613924,23.7194231 7.30359494,23.6190385 7.20448101,23.5826923 C7.02436709,23.51 6.91636709,23.3549231 6.80870886,23.2271923 C6.55648101,22.9260385 6.33159494,22.5971923 6.09782278,22.2787308 C6.07970886,22.2510385 6.04382278,22.2326923 6.01682278,22.2053462 C6.05270886,22.3057308 6.09782278,22.3877692 6.14259494,22.4788077 C6.05305063,22.4424615 5.99016456,22.3784231 5.93616456,22.3147308 C5.92693671,22.3240769 6.55648101,23.3729231 6.55648101,23.3729231 C6.61116456,23.4549615 6.65559494,23.5373462 6.70959494,23.6193846 C6.59883919,23.629818 6.4926131,23.572347 6.43959494,23.4733077 C6.35893671,23.3279231 6.26870886,23.2365385 6.08893671,23.2552308 C6.06985747,23.1893507 6.05501621,23.1222869 6.04450633,23.0544615 C6.00793671,23.0544615 5.98127848,23.0544615 5.91805063,23.0451154 C6.04450633,23.2458846 6.15216456,23.4189615 6.26905063,23.6197308 C6.22359494,23.5920385 6.19727848,23.5740385 6.17848101,23.5650385 C6.34013924,23.7381154 6.45702532,23.9572308 6.66379747,24.0669615 C6.70891139,24.2763846 6.94268354,24.3767692 6.99668354,24.5775385 C6.95225316,24.5681923 6.91534177,24.5591923 6.87022785,24.5498462 C6.7984557,24.4588077 6.7174557,24.3677692 6.63679747,24.2673846 C6.65456962,24.3310769 6.68122785,24.3857692 6.7174557,24.4314615 C6.8254557,24.5681923 6.92456962,24.7049231 7.05034177,24.8236538 C7.0954557,24.8700385 7.15834177,24.8883846 7.15834177,24.9704231 C7.23011392,25.0067692 7.2574557,25.0154231 7.28411392,25.0154231 C7.30256962,25.0708077 7.27556962,25.1528462 7.38322785,25.1345 C7.455,25.2712308 7.52677215,25.2712308 7.62588608,25.2258846 C7.74311392,25.3446154 7.80634177,25.3539615 7.887,25.2812692 C7.887,25.3262692 7.89588608,25.3719615 7.89588608,25.4086538 C7.93177215,25.3903077 7.92322785,25.3629615 7.92322785,25.3172692 C7.96765823,25.3536154 7.995,25.3719615 8.01277215,25.3899615 C8.10265823,25.5180385 8.18365823,25.6364231 8.30943038,25.7368077 C8.48031646,25.8828846 8.63343038,26.0379615 8.79474684,26.1746923 C9.10986076,26.4395 9.46120253,26.6586154 9.81151899,26.8590385 C10.243519,27.1055 10.6574051,27.3699615 11.0979494,27.6067308 C11.6283797,27.8898846 12.195038,28.0816538 12.7794684,28.2183846 C12.9954684,28.2640769 13.2022405,28.3094231 13.4185823,28.3637692 C13.606557,28.4191538 13.7958987,28.5011923 13.9848987,28.5465385 C14.2726709,28.6105769 14.5693291,28.6652692 14.8571013,28.7196154 C14.9196456,28.7289615 14.983557,28.7383077 15.0553291,28.7473077 C15.1356456,28.7656538 15.2344177,28.7289615 15.2525316,28.7566538 C15.2976456,28.8293462 15.3335316,28.7926538 15.3875316,28.7836538 C15.4504177,28.7653077 15.5225316,28.7653077 15.5943038,28.7653077 C15.8461899,28.7743077 16.0888481,28.829 16.3407342,28.811 C16.3954177,28.811 16.4760759,28.7649615 16.5211899,28.856 C16.6018481,28.8196538 16.646962,28.8196538 16.6828481,28.811 C16.6924177,28.8926923 16.6828481,28.8926923 16.6657595,28.9016923 C16.6473038,28.9106923 16.6203038,28.9200385 16.5844177,28.9473846 C16.9080759,29.0110769 17.213962,29.0200769 17.4832785,28.9473846 C17.9515063,28.9837308 18.3561646,28.9290385 18.7430506,28.7923077 C18.7789367,28.838 18.8059367,28.9016923 18.8599367,28.8106538 C18.8777089,28.7829615 18.9228228,28.7736154 18.9590506,28.7646154 C19.0397089,28.7462692 19.1388228,28.7099231 19.2105949,28.7369231 C19.2919367,28.7646154 19.3189367,28.6919231 19.381481,28.6919231 C19.4898228,28.6919231 19.5885949,28.6825769 19.6877089,28.6642308 C19.7417089,28.6552308 19.7957089,28.6278846 19.8585949,28.6095385 C19.7969857,28.578695 19.7290895,28.5629261 19.6603671,28.5635 C19.7687089,28.5088077 19.867481,28.4631154 19.9665949,28.4181154 C19.948481,28.4451154 19.9303671,28.4814615 19.8948228,28.4814615 L20.0202532,28.4814615 C19.9929114,28.4814615 19.9570253,28.5635 19.9122532,28.6181923 C20.2355696,28.5361538 20.5322278,28.4631154 20.8203418,28.3897308 C20.7212278,28.1986538 20.928,28.2626923 21.0001139,28.1529615 C20.9102278,28.1806538 20.8203418,28.2076538 20.7301139,28.2256538 C21.036,28.0709231 21.3507722,27.9341923 21.6563165,27.7974615 C21.6118861,27.8521538 21.5572025,27.8795 21.4768861,27.9255385 C21.5308861,27.9341923 21.5667722,27.9341923 21.5937722,27.9428462 C21.7373165,27.9888846 21.7017722,27.8521538 21.7465443,27.7697692 C21.9174304,27.7697692 21.9892025,27.7427692 22.0702025,27.7150769 C22.1600886,27.6873846 22.2499747,27.6603846 22.3402025,27.6240385 C22.4837468,27.5603462 22.6187468,27.4786538 22.7626329,27.4059615 C22.7899747,27.3962692 22.8344051,27.4059615 22.8706329,27.4059615 C22.9697468,27.3415769 23.0052911,27.2868846 23.0322911,27.2958846 C23.1587468,27.3142308 23.2476076,27.2681923 23.2838354,27.1505 C23.3467215,27.1044615 23.3918354,27.0681154 23.4366076,27.0404231 C23.6341519,26.9310385 23.8228101,26.8216538 24.021038,26.7122692 C24.0928101,26.7122692 24.129038,26.7122692 24.1468101,26.7029231 C24.2643797,26.6475385 24.3723797,26.5845385 24.480038,26.5205 C24.4491445,26.5074893 24.4191191,26.4924576 24.3901519,26.4755 C24.4796962,26.4568077 24.5063544,26.4478077 24.561038,26.4294615 C24.7763544,26.1733077 25.0736962,26.0002308 25.2982405,25.7994615 C25.3973544,25.7904615 25.3973544,25.7631154 25.3973544,25.7451154 C25.4328987,25.6994231 25.4691266,25.6447308 25.513557,25.6080385 C25.7117848,25.4256154 25.9271013,25.2705385 26.1072152,25.0791154 C26.3676524,24.8162644 26.6166972,24.5420831 26.8536456,24.2573462 C27.068962,24.0018846 27.2856456,23.7467692 27.4654177,23.4639615 C27.7173038,23.0717692 27.932962,22.6702308 28.1578481,22.2593462 C28.3198481,21.9678846 28.4637342,21.6760769 28.6260759,21.3842692 C28.6431646,21.3565769 28.6797342,21.3202308 28.7067342,21.3202308 C28.9493924,21.2925385 29.1927342,21.2752308 29.4265063,21.2475385 C29.4805063,21.2385385 29.5433924,21.2025385 29.5973924,21.1748462 C29.5700506,21.1291538 29.5522785,21.0744615 29.5256203,21.0287692 C29.4893924,20.9733846 29.4353924,20.9283846 29.3991646,20.873 C29.3636203,20.828 29.3366203,20.7726154 29.3096203,20.7182692 C29.2822785,20.6732692 29.2556203,20.6365769 29.2286203,20.5901923 C29.1721306,20.4897877 29.1207965,20.3864964 29.0748228,20.2807308 C29.0659367,20.2530385 29.047481,20.2080385 29.0570506,20.1803462 C29.2190506,19.8248462 29.2819367,19.4416538 29.4347089,19.0858077 C29.587481,18.7209615 29.6329367,18.3104231 29.7047089,17.9182308 C29.7675949,17.5443846 29.8038228,17.1705385 29.8482532,16.7966923 C29.8755949,16.5322308 29.911481,16.2767692 29.9200253,16.0123077 C29.9747089,15.5927692 29.9562532,15.2002308 29.9473671,14.8076923 C29.938481,14.4615385 29.9200253,14.1056923 29.9029367,13.7588462 L29.9008861,13.7578077 Z M7.33537975,24.9863462 C7.27249367,24.9136538 7.21849367,24.8312692 7.15560759,24.7585769 L7.18294937,24.7308846 C7.28103797,24.8406154 7.3801519,24.95 7.47892405,25.0687308 C7.42492405,25.0410385 7.36203797,25.0230385 7.33537975,24.9863462 Z M7.47892405,25.0687308 C7.50626582,25.0593846 7.53360759,25.0593846 7.56026582,25.0503846 C7.58760759,25.0960769 7.60537975,25.1507692 7.63203797,25.2054615 C7.50626582,25.1961154 7.44337975,25.1414231 7.47926582,25.0687308 L7.47892405,25.0687308 Z M16.8332278,28.8359231 L16.8332278,28.8082308 C17.0041139,28.7902308 17.1657722,28.7718846 17.3366582,28.7538846 L17.3366582,28.7805385 C17.1657722,28.8082308 17.0041139,28.8255385 16.8332278,28.8352308 L16.8332278,28.8359231 Z M19.0991772,28.5988077 C18.9737468,28.6265 18.8387468,28.6448462 18.7129747,28.6631923 C18.6678608,28.6721923 18.6138608,28.7178846 18.5960886,28.6355 C18.5779747,28.6448462 18.5598608,28.6448462 18.5420886,28.6541923 C18.586519,28.7905769 18.6948608,28.6811923 18.7847468,28.7358846 C18.586519,28.7635769 18.3985443,28.7815769 18.2092025,28.8085769 L18.2092025,28.7905769 C18.2638861,28.7815769 18.3264304,28.7722308 18.3800886,28.7628846 L18.3800886,28.7358846 C18.2904564,28.7251096 18.2003386,28.7189862 18.1100886,28.7175385 C18.0837722,28.7175385 18.0475443,28.7542308 18.0205443,28.7632308 C17.9846582,28.7722308 17.9487722,28.7815769 17.9036582,28.7815769 C17.7508861,28.7905769 17.5981139,28.7905769 17.4538861,28.7995769 C17.4446582,28.7995769 17.4265443,28.7905769 17.4176582,28.7905769 L17.4176582,28.7628846 C18.0202025,28.6811923 18.6138608,28.5991538 19.2164051,28.5171154 C19.2256329,28.5351154 19.2256329,28.5534615 19.234519,28.5714615 C19.180519,28.5714615 19.1446329,28.5905 19.099519,28.5991538 L19.0991772,28.5988077 Z M19.234519,28.5081154 C19.4416329,28.4804231 19.6309747,28.4624231 19.828519,28.4354231 C19.4149747,28.5538077 19.2799747,28.5718077 19.2348608,28.5081154 L19.234519,28.5081154 Z M11.4007595,10.091 C11.6878481,9.68946154 11.9851899,9.28792308 12.272962,8.87773077 C12.3628481,8.75830769 12.4346203,8.63057692 12.5245063,8.51219231 C12.5518481,8.4755 12.5877342,8.4575 12.6325063,8.42080769 L12.6236203,8.4035 C12.6595063,8.35746154 12.6953924,8.32042308 12.7135063,8.28442308 C12.7593038,8.21173077 12.7863038,8.12934615 12.8221899,8.04730769 C12.8310759,8.03 12.8580759,8.01165385 12.8580759,8.01165385 C12.9845316,8.07534615 12.9845316,7.93896154 13.028962,7.89292308 C13.109962,7.80153846 13.190962,7.7015 13.2627342,7.61011538 C13.3167342,7.53742308 13.3707342,7.47338462 13.4158481,7.39134615 C13.4247342,7.36365385 13.3977342,7.31865385 13.3885063,7.28161538 L13.3618481,7.28161538 C13.3891899,7.26361538 13.4158481,7.23661538 13.4428481,7.21792308 C13.4517342,7.21792308 13.4517342,7.21792308 13.4606203,7.20892308 C13.5146203,7.12653846 13.5686203,7.0445 13.6226203,6.97146154 C13.7302785,6.82607692 13.8471646,6.68 13.9729367,6.55261538 C13.9551646,6.59761538 13.9370506,6.64365385 13.9189367,6.68 C13.9281646,6.68 13.9281646,6.68934615 13.9370506,6.68934615 C14.0450506,6.54326923 14.1619367,6.40653846 14.2699367,6.26011538 C14.2607089,6.25146154 14.2518228,6.24211538 14.2425949,6.24211538 C14.1981646,6.28780769 14.1619367,6.3335 14.1168228,6.37919231 C14.1079367,6.36984615 14.0990506,6.36084615 14.089481,6.36084615 C14.1800506,6.24211538 14.2699367,6.12373077 14.359481,5.987 C14.3775949,6.01469231 14.3957089,6.05069231 14.4312532,6.12373077 C14.4678228,6.03269231 14.5037089,5.969 14.5303671,5.90496154 C14.5037089,5.93265385 14.4678228,5.95965385 14.4408228,5.98734615 L14.413481,5.95965385 L14.575481,5.71388462 C14.7463671,5.46742308 14.9172532,5.21196154 15.0881392,4.9655 C15.1513671,4.87446154 15.2316835,4.80142308 15.2863671,4.71003846 C15.4572532,4.36388462 15.7272532,4.08973077 15.9336835,3.77057692 C15.9787975,3.70688462 16.0416835,3.65219231 16.0956835,3.5975 C16.1401139,3.54211538 16.1766835,3.56080769 16.2125696,3.6065 C16.4552278,3.91665385 16.6978861,4.23580769 16.9405443,4.54596154 C17.121,4.77442308 17.3007722,4.9925 17.4716582,5.22996154 C17.6784304,5.52211538 17.8763165,5.81392308 18.0834304,6.10573077 C18.3172025,6.44323077 18.5509747,6.78073077 18.7758608,7.12688462 C19.1176329,7.63815385 19.4412911,8.14907692 19.7830633,8.65965385 C20.0349494,9.0335 20.2868354,9.39869231 20.5294937,9.77253846 L20.0701519,9.77253846 C19.6477215,9.76388462 19.2157215,9.72753846 18.7932911,9.74553846 C18.2177468,9.77323077 17.6333165,9.83692308 17.0577722,9.88261538 C16.3291139,9.94665385 15.5915696,9.95530769 14.8635949,9.95530769 C14.6021392,9.95530769 14.3413671,9.99234615 14.0809367,10.0106923 C13.7658228,10.0286923 13.4599367,10.0470385 13.1451646,10.0556923 C12.7760506,10.0743846 12.4171899,10.0833846 12.0480759,10.0927308 C11.840962,10.1017308 11.6253038,10.0927308 11.4004177,10.0927308 L11.4007595,10.091 Z M21.7164684,14.2863846 L21.7164684,14.3687692 C21.7075823,14.3687692 21.6986962,14.3781154 21.6805823,14.3781154 C21.6446962,14.2500385 21.6088101,14.1129615 21.5636962,13.9852308 C21.4738101,13.7204231 21.3746962,13.4556154 21.2126962,13.2188462 C21.0322405,12.9637308 20.8709241,12.6996154 20.6904684,12.4348077 C20.646038,12.3707692 20.5824684,12.3160769 20.5284684,12.2617308 C20.3394684,12.0516154 20.1504684,11.8325 19.9078101,11.6777692 C19.5502758,11.4506336 19.1740727,11.2551405 18.7833797,11.0934615 C18.6749049,11.0462952 18.5698361,10.9914679 18.4689494,10.9293846 L18.6842658,10.9293846 L20.2222405,10.9016923 C20.5551266,10.8930385 20.8791266,10.8930385 21.2116709,10.8746923 C21.2923291,10.8746923 21.337443,10.9023846 21.382557,10.9750769 C21.4632152,11.1118077 21.5442152,11.2485385 21.6341013,11.3856154 C21.6433291,11.4036154 21.661443,11.4306154 21.661443,11.4583077 C21.661443,11.6590769 21.661443,11.8688462 21.6703291,12.0696154 C21.6788734,12.2793846 21.6976709,12.4801538 21.7058734,12.6899231 C21.7058734,12.8996923 21.6877595,13.1184615 21.6969873,13.3372308 C21.7062152,13.6477308 21.7151013,13.9672308 21.7151013,14.2856923 L21.7164684,14.2863846 Z M12.0388481,11.2319231 C12.4616203,11.2135769 12.8659367,11.1862308 13.2801646,11.1678846 C13.6031392,11.1495385 13.9363671,11.1401923 14.2596835,11.1221923 C14.3946835,11.1135385 14.5207975,11.1048846 14.6554557,11.1221923 C14.5119114,11.1955769 14.3676835,11.2686154 14.2419114,11.3596538 C14.0799114,11.4690385 13.927481,11.6147692 13.7651392,11.7335 C13.6027975,11.8518846 13.4589114,11.9979615 13.3242532,12.1530385 C13.1533671,12.3624615 12.9643671,12.5448846 12.7842532,12.7456538 C12.6577975,12.8917308 12.5142532,13.0284615 12.4065949,13.1835385 C12.2538228,13.3843077 12.1188228,13.6023846 11.9749367,13.8308462 C12.0200506,12.9640769 12.0740506,12.107 12.0378228,11.2312308 L12.0388481,11.2319231 Z M17.9122025,20.0069231 C17.6240886,20.0796154 17.3277722,20.162 17.0304304,20.1983462 C16.7788861,20.2350385 16.5177722,20.2260385 16.257,20.2260385 C16.0225443,20.2260385 15.7976582,20.2170385 15.5638861,20.1983462 C15.3031139,20.1713462 15.0423418,20.144 14.7904557,20.0252692 C14.5741139,19.9248846 14.3495696,19.8338462 14.1342532,19.7241154 C13.9175696,19.6147308 13.7019114,19.4873462 13.5395696,19.2865769 C13.4233671,19.1401538 13.2610253,19.0217692 13.1171392,18.8940385 C13.144481,19.0034231 13.2070253,19.0948077 13.3061392,19.1585 C13.2610253,19.2131923 13.1981392,19.1861923 13.1079114,19.0397692 C13.0812532,19.0581154 13.0542532,19.0674615 13.0361392,19.0764615 C13.063481,19.0124231 13.0901392,18.9483846 13.1171392,18.8940385 C13.0812532,18.8213462 13.0361392,18.7389615 13.0002532,18.6655769 C12.928481,18.5471923 12.8567089,18.4198077 12.793481,18.3010769 C12.7753671,18.2733846 12.7753671,18.2463846 12.7575949,18.2190385 C12.7127043,18.166449 12.6704973,18.1115697 12.6311392,18.0546154 C12.5593671,17.9455769 12.496481,17.8271923 12.4065949,17.7174615 C12.4065949,17.7451538 12.4158228,17.7721538 12.4158228,17.8088462 C12.4065949,17.8088462 12.3977089,17.8178462 12.3977089,17.8178462 L12.2083671,17.3526154 C12.199481,17.3526154 12.199481,17.3526154 12.1905949,17.3616154 L12.3522532,17.9639231 C12.3433671,17.9639231 12.334481,17.9725769 12.3249114,17.9725769 C12.2985949,17.9365769 12.2715949,17.8998846 12.2531392,17.8548846 C12.2353671,17.7815 12.1813671,17.7815 12.1369367,17.8088462 C12.1095949,17.8271923 12.091481,17.8908846 12.1007089,17.9182308 C12.1639367,18.0733077 12.2357089,18.2283846 12.3078228,18.3834615 C12.3255949,18.4381538 12.3437089,18.4838462 12.3707089,18.5385385 C12.3799367,18.5568846 12.4069367,18.5748846 12.4069367,18.6022308 C12.4431646,18.6749231 12.4701646,18.7476154 12.5149367,18.812 C12.5959367,18.9213846 12.6858228,19.0307692 12.7668228,19.1401538 C12.8471392,19.2495385 12.9189114,19.3686154 12.9910253,19.4776538 C12.9999114,19.496 13.0269114,19.496 13.0354557,19.5053462 C13.0809114,19.6420769 13.2336835,19.7421154 13.3416835,19.6874231 C13.3690253,19.8971923 13.5935696,19.9702308 13.6834557,20.171 C13.5951909,20.1345159 13.5082136,20.0949147 13.4226835,20.0522692 C13.4134557,20.0612692 13.4134557,20.0702692 13.4042278,20.0886154 C13.5122278,20.1433077 13.6202278,20.198 13.7186582,20.2616923 C13.8092278,20.3170769 13.8991139,20.3714231 13.9801139,20.4347692 C14.0881139,20.5351538 14.2142278,20.5905385 14.3663165,20.6265385 C14.3581139,20.5988462 14.3492278,20.5895 14.3492278,20.5895 C14.6007722,20.7082308 14.8618861,20.8359615 15.0594304,20.9356538 C14.124,20.9543462 13.1256835,20.9726923 12.0911392,20.9910385 C12.0911392,20.8179615 12.0822532,20.6535385 12.0822532,20.4801154 C12.0822532,20.4074231 12.1000253,20.3433846 12.0907975,20.2703462 C12.0634557,19.8515 12.0634557,19.4312692 12.0097975,19.0207308 C11.9561392,18.5831923 11.9561392,18.1543077 11.9653671,17.7157308 C11.9739114,17.4793077 11.9561392,17.2331923 11.9469114,16.9957308 C11.9469114,16.6765769 11.9469114,16.3657308 11.956481,16.0472692 C11.956481,16.0015769 11.9745949,15.9652308 11.9927089,15.9191923 L12.0200506,15.9191923 C12.0285949,15.9378846 12.0200506,15.9652308 12.0371392,15.9745769 C12.064481,16.0022692 12.1095949,16.0472692 12.1277089,16.0382692 C12.1813671,16.0015769 12.2623671,15.9655769 12.280481,15.9101923 C12.3249114,15.8011538 12.3433671,15.6824231 12.3433671,15.5730385 C12.3433671,15.4913462 12.3795949,15.4366538 12.4151392,15.3816154 C12.4335949,15.3539231 12.442481,15.3269231 12.4605949,15.2905769 C12.4247089,15.2628846 12.3888228,15.2448846 12.3437089,15.2085385 C12.3799367,15.1081538 12.3710506,14.9894231 12.5060506,14.9350769 C12.5238228,14.9257308 12.5238228,14.8796923 12.5333924,14.8526923 C12.5419367,14.7789615 12.550481,14.6969231 12.5600506,14.6242308 C12.5778228,14.6519231 12.5873924,14.6605769 12.604481,14.6785769 C12.6095618,14.6686585 12.6157545,14.6593664 12.6229367,14.6508846 C12.6229367,14.6148846 12.6140506,14.5418462 12.6229367,14.5418462 C12.7309367,14.5235 12.6858228,14.4051154 12.7398228,14.3504231 C12.7483671,14.3407308 12.7305949,14.3133846 12.7305949,14.2950385 C12.7305949,14.2770385 12.7305949,14.2500385 12.739481,14.2500385 C12.8649114,14.2223462 12.8471392,14.0856154 12.9281392,14.0215769 C12.955481,14.0032308 12.9640253,13.9765769 12.9999114,13.9305385 C13.0716835,14.0579231 12.9459114,14.1219615 12.9370253,14.213 C13.0894557,14.1219615 13.1345696,13.9031923 13.0446835,13.8391538 C13.0805696,13.8114615 13.1164557,13.7754615 13.1437975,13.7387692 C13.2429114,13.6293846 13.3502278,13.529 13.4404557,13.4196154 C13.5036835,13.3379231 13.5395696,13.2375385 13.6024557,13.1555 C13.6386835,13.1098077 13.7104557,13.0734615 13.7644557,13.0457692 C13.9264557,12.9550769 14.0788861,12.8546923 14.178,12.6996154 C14.1961139,12.6812692 14.2231139,12.6632692 14.2497722,12.6449231 C14.2771139,12.6265769 14.3311139,12.6265769 14.34,12.5992308 C14.3492278,12.5812308 14.3222278,12.5355385 14.3041139,12.5081923 C14.3396582,12.4898462 14.3758861,12.4535 14.4476582,12.4168077 C14.4203165,12.4715 14.4117722,12.5081923 14.3936582,12.5448846 L14.4380886,12.5898846 C14.5194304,12.5261923 14.6452025,12.4535 14.7262025,12.3988077 C14.7262025,12.3901538 14.6810886,12.3538077 14.6810886,12.3538077 C14.6274304,12.3815 14.5464304,12.4265 14.4657722,12.4631923 C14.4828608,12.4355 14.4828608,12.4175 14.4931139,12.4085 C14.6185443,12.3264615 14.7443165,12.2444231 14.8793165,12.1800385 C15.1937468,12.0346538 15.5088608,11.8885769 15.8236329,11.7518462 C15.8776329,11.7241538 15.9500886,11.7428462 16.0126329,11.7428462 C16.0392911,11.7428462 16.0570633,11.7428462 16.0844051,11.7338462 C16.2279494,11.6881538 16.3721772,11.6424615 16.5160633,11.6057692 C16.5786076,11.5877692 16.6503797,11.5787692 16.7142911,11.5787692 C16.9832658,11.5874231 17.2532658,11.5874231 17.5229241,11.6057692 C17.6398101,11.6147692 17.7478101,11.6421154 17.8558101,11.6784615 C17.9942621,11.7271974 18.1294341,11.785012 18.2604684,11.8515385 C18.4132405,11.9346154 18.5571266,12.0253077 18.7013544,12.1256923 C18.9621266,12.2987692 19.2047848,12.4905385 19.465557,12.6456154 C19.717443,12.8006923 19.9153291,13.0104615 20.0773291,13.2479231 C20.275557,13.5303846 20.5001013,13.7858462 20.5899873,14.1323462 L20.7246456,14.7346538 C20.7519873,14.8440385 20.8148734,14.9534231 20.7878734,15.0808077 C20.7424177,15.3092692 20.7065316,15.5463846 20.6706456,15.7745 C20.6528734,15.8662308 20.6347595,15.9579615 20.6439873,16.0479615 C20.6610759,16.3318077 20.5534177,16.5775769 20.4457595,16.8330385 C20.4095316,16.9150769 20.3555316,16.9974615 20.3107595,17.0885 C20.3327625,17.1042546 20.3569493,17.1166197 20.3825316,17.1251923 L20.4635316,16.9611154 C20.4727595,16.9611154 20.4727595,16.9611154 20.4816456,16.9704615 C20.4365316,17.0978462 20.4006456,17.2349231 20.3551899,17.3626538 C20.2478734,17.6454615 20.1398734,17.9372692 20.0048734,18.2107308 C19.9331013,18.3658077 19.8066456,18.4935385 19.7171013,18.6399615 C19.627557,18.7673462 19.555443,18.9040769 19.465557,19.0228077 C19.384557,19.1231923 19.3038987,19.2235769 19.195557,19.2962692 C18.9528987,19.4786923 18.7010127,19.6611154 18.4402405,19.8071923 C18.2785823,19.9075769 18.0895823,19.9622692 17.9098101,20.0079615 L17.9122025,20.0069231 Z M13.1181646,19.5223077 L13.1092785,19.5316538 C13.090481,19.5226538 13.063481,19.5136538 13.0457089,19.4953077 L12.8297089,19.1664615 C12.8119367,19.1394615 12.8023671,19.1121154 12.8119367,19.0757692 C12.9110506,19.2308462 13.0101646,19.3769231 13.1178228,19.5223077 L13.1181646,19.5223077 Z M18.7129747,20.7719231 C19.1172911,20.5988462 19.4501772,20.3530769 19.7553797,20.0699231 C19.8008354,20.0242308 19.8456076,19.9788846 19.8996076,19.9418462 C20.2776076,19.7050769 20.5558101,19.3765769 20.808038,19.0117308 C21.0958101,18.5921923 21.2848101,18.1179615 21.5189241,17.6710769 C21.5347965,17.6365508 21.5527153,17.6030281 21.5725823,17.5706923 C21.5544684,18.6105385 21.6716962,19.6320385 21.8063544,20.6628846 C20.7902658,20.6992308 19.7557215,20.7355769 18.7126329,20.7722692 L18.7129747,20.7719231 Z M27.832481,20.4984615 C27.8235949,20.5168077 27.8051392,20.5351538 27.7965949,20.5538462 C27.7873671,20.5351538 27.7873671,20.5078077 27.778481,20.4707692 C27.724481,20.6171923 27.6075949,20.5441538 27.5265949,20.5441538 C27.0412785,20.5535 26.5463924,20.5535 26.0603924,20.5535 C25.5928481,20.5535 25.1164177,20.5535 24.6488734,20.5618077 C24.4957595,20.5618077 24.3337595,20.5981538 24.1806456,20.6075 C23.8122152,20.6255 23.443443,20.6351923 23.0746709,20.6438462 C23.0473291,20.6438462 23.0206709,20.5988462 22.975557,20.5621538 C22.9597127,20.5908943 22.9416568,20.6183253 22.921557,20.6441923 C22.9119873,20.6261923 22.8942152,20.6081923 22.8761013,20.5808462 C22.8672152,20.6085385 22.8579873,20.6355385 22.8487595,20.6535385 L22.8227848,20.6535385 C22.8046709,20.5261538 22.7687848,20.4077692 22.7687848,20.2796923 C22.7687848,20.0062308 22.7961266,19.7327692 22.8046709,19.4586154 C22.8138987,19.3312308 22.8046709,19.2128462 22.8046709,19.0937692 C22.8408987,19.1214615 22.8678987,19.1398077 22.9037848,19.1664615 C22.921557,19.1308077 22.9396709,19.1034615 22.9577848,19.0764615 C22.9577848,19.0764615 22.9396709,19.0667692 22.921557,19.0487692 C22.9386456,19.0394231 22.9571013,19.0210769 22.9571013,19.0120769 C22.9659873,18.9843846 22.984443,18.9573846 22.984443,18.9393846 C22.984443,18.8753462 22.9659873,18.8206538 22.9571013,18.7663077 C22.9659873,18.7663077 22.9748734,18.7663077 22.984443,18.7566154 L23.0381013,19.0300769 L23.065443,19.0300769 C23.0292152,18.9667308 23.1461013,18.9116923 23.0473291,18.839 C23.038443,18.8296538 23.0562152,18.7749615 23.0562152,18.7476154 C23.0288734,18.6932692 23.0117848,18.6385769 22.984443,18.5655385 C22.9933291,18.5565385 23.0203291,18.5471923 23.0473291,18.5378462 C23.011443,18.5198462 22.984443,18.5018462 22.957443,18.4928462 C23.0473291,18.4104615 23.0473291,18.3647692 22.9663291,18.2737308 C22.9847848,18.2650769 23.002557,18.2650769 23.002557,18.2564231 C23.002557,18.1740385 23.002557,18.092 22.9847848,18.0106538 C22.9666709,17.9185769 23.0121266,17.8098846 22.8767848,17.7545 C22.8851051,17.7804059 22.8972007,17.8049072 22.9126709,17.8271923 C22.9126709,17.8271923 22.8853291,17.8365385 22.8586709,17.8548846 C22.7417848,17.7451538 22.8142405,17.5987308 22.7868987,17.435 C22.8497848,17.4533462 22.8948987,17.4716923 22.9396709,17.4903846 C22.921557,17.426 22.8767848,17.3529615 22.8497848,17.2709231 L22.8132152,17.2709231 L22.8132152,16.6686154 C22.8132152,16.6779615 22.8761013,16.6779615 22.9123291,16.6873077 C22.9123291,16.6779615 22.9208734,16.6689615 22.9208734,16.6596154 C22.8935316,16.6232692 22.8576456,16.5869231 22.8217595,16.5412308 L22.8398734,16.5228846 C22.7681013,16.4321923 22.8039873,16.3048077 22.8039873,16.2771154 L22.8039873,15.6384615 C22.8942152,15.7298462 22.759557,15.8482308 22.8942152,15.9029231 L22.8942152,15.8118846 L22.8849873,15.8118846 C22.8761013,15.6751538 22.8761013,15.5384231 22.8672152,15.4013462 L22.849443,15.4013462 C22.8402152,15.4200385 22.8402152,15.4290385 22.8309873,15.4473846 L22.8132152,15.4473846 L22.8672152,13.2673077 C22.9571013,13.3856923 23.0558734,13.4957692 23.1187595,13.6134615 C23.3258734,13.997 23.5955316,14.3255 23.8474177,14.672 C24.0634177,14.9731538 24.260962,15.3013077 24.4591899,15.6114615 C24.7018481,15.9853077 24.9356203,16.3591538 25.1786203,16.733 C25.3593399,17.0162769 25.545066,17.2962451 25.7357089,17.5727692 C25.9065949,17.8185385 26.0870506,18.056 26.2668228,18.2934615 C26.4192532,18.5032308 26.5812532,18.713 26.7340253,18.9227692 C26.9141392,19.1782308 27.0939114,19.4333462 27.2740253,19.6798077 C27.3635696,19.8071923 27.4626835,19.9349231 27.5611139,20.0626538 C27.6157975,20.1353462 27.6964557,20.1907308 27.7504557,20.2357308 C27.7419114,20.2357308 27.7326835,20.2357308 27.7149114,20.2267308 C27.7422532,20.2630769 27.7593418,20.2904231 27.7777975,20.3087692 C27.8769114,20.3634615 27.8857975,20.4181538 27.8317975,20.5005385 L27.832481,20.4984615 Z M28.2911392,18.2186923 L28.2911392,18.1546538 C28.2911392,18.1726538 28.3000253,18.1996538 28.2911392,18.2183462 L28.2911392,18.2186923 Z M28.5970253,14.1963846 C28.5877975,14.1963846 28.5341392,14.141 28.5252532,14.132 C28.5160253,14.1596923 28.5252532,14.1866923 28.5071392,14.2233846 C28.4979114,14.1963846 28.4353671,14.2053846 28.4353671,14.1783846 C28.4261392,14.3057692 28.4890253,14.4335 28.4797975,14.5612308 C28.5071392,14.5428846 28.6147975,14.5335385 28.6417975,14.5065385 C28.6510253,14.5155385 28.6691392,14.5245385 28.6780253,14.5245385 C28.4979114,14.6616154 28.5430253,14.798 28.6240253,14.9537692 C28.6417975,14.9897692 28.6957975,15.0628077 28.6417975,15.1358462 C28.6240253,15.1541923 28.6510253,15.2085385 28.6599114,15.2545769 L28.6862278,15.2545769 L28.6862278,15.2718846 L28.6052278,15.2995769 C28.5874557,15.2718846 28.4797975,15.2178846 28.4797975,15.1715 L28.4797975,15.6374231 C28.5696835,15.6651154 28.5696835,15.7925 28.6055696,15.8565385 C28.6213797,15.8343577 28.6337148,15.8098383 28.6421392,15.7838462 L28.6513671,15.7921538 C28.6421392,15.8468462 28.6332532,15.9015385 28.6151392,15.9565769 C28.5973671,16.0382692 28.5792532,16.1113077 28.5707089,16.1933462 C28.5707089,16.2023462 28.5877975,16.2210385 28.5877975,16.2296923 C28.4893671,16.4581538 28.5433671,16.7129231 28.507481,16.9496923 C28.4801392,17.1227692 28.507481,17.3062308 28.4893671,17.4883077 C28.4709114,17.6433846 28.4346835,17.8074615 28.3991392,17.9625385 C28.3899114,17.9902308 28.3717975,17.9988846 28.3273671,18.0172308 C28.3451392,17.9078462 28.3362532,17.8348077 28.3181392,17.7344231 C28.3085696,17.7344231 28.1916835,17.6707308 28.1824557,17.6707308 C28.1824557,17.7988077 28.2542278,17.9718846 28.2815696,18.1172692 C28.2542278,18.1082692 28.1465696,18.0445769 28.1380253,18.0445769 C28.1195696,18.1539615 28.1195696,18.3000385 28.1106835,18.4184231 C28.1014557,18.5098077 28.0207975,18.5915 28.0115696,18.6918846 C28.0115696,18.7472692 28.0744557,18.7832692 28.0655696,18.8746538 L28.1373418,18.8746538 C28.1373418,18.6925769 28.2186835,18.5285 28.2186835,18.3367308 L28.2453418,18.3367308 C28.2545696,18.3550769 28.2815696,18.3734231 28.2726835,18.3824231 C28.2545696,18.4828077 28.218,18.5921923 28.2275696,18.6925769 C28.2275696,18.7472692 28.272,18.8019615 28.2549114,18.8656538 C28.2364557,18.9210385 28.2275696,18.9753846 28.2183418,19.0574231 C28.2091139,19.0117308 28.2002278,18.9937308 28.2002278,18.9663846 C28.1913418,18.9663846 28.1103418,18.9570385 28.1011139,18.9570385 C28.0922278,19.0117308 28.1643418,19.0664231 28.1551139,19.1121154 C28.1462278,19.1211154 28.1373418,19.1211154 28.1192278,19.1304615 L27.8225696,18.6922308 C27.5881139,18.3460769 27.3543418,17.9988846 27.1205696,17.6433846 C27.0599474,17.55636 27.0056889,17.4649625 26.9582278,17.3699231 C26.6799531,16.8845732 26.3705552,16.4182266 26.0320253,15.9738846 C25.7715949,15.6367308 25.5637975,15.2711923 25.3211392,14.9163846 C25.0969367,14.5788846 24.8720506,14.2503846 24.6471646,13.9125385 C24.5661646,13.8035 24.4673924,13.7031154 24.3952785,13.5843846 C24.1618481,13.2105385 23.9543924,12.8273462 23.7213038,12.4535 C23.5230759,12.143 23.3077595,11.8418462 23.1006456,11.5410385 C23.0288734,11.4406538 22.9571013,11.3309231 22.8846456,11.2215385 C22.8734285,11.2024544 22.867304,11.1807439 22.8668734,11.1585385 C22.8487595,10.9577692 22.8306456,10.757 22.8217595,10.5655769 C22.8217595,10.3831538 22.8398734,10.2007308 22.8398734,10.0089615 L22.8398734,9.84488462 C22.8398734,9.79919231 22.8484177,9.76284615 22.8484177,9.71680769 C22.856962,9.70815385 22.8661899,9.68980769 22.8750759,9.68080769 C22.6143038,9.68080769 22.3443038,9.67111538 22.0835316,9.68080769 C21.9126456,9.68946154 21.8227595,9.61642308 21.7058734,9.48869231 C21.3641013,9.0965 21.1122152,8.64961538 20.815557,8.23007692 C20.5358577,7.83090351 20.2510233,7.43544671 19.9611266,7.04380769 C19.7270127,6.72465385 19.4928987,6.4145 19.2594684,6.09534615 C18.9983544,5.7305 18.7468101,5.36565385 18.4768101,5.00080769 C18.1528101,4.56326923 17.8199241,4.12503846 17.4873797,3.6875 C17.3335823,3.48673077 17.1626962,3.29530769 16.9918101,3.08519231 C17.109038,3.10388462 17.2173797,3.12188462 17.325038,3.13123077 L17.757038,3.15892308 C18.0806962,3.18557692 18.4043544,3.20392308 18.7276709,3.24892308 C18.9976709,3.28596154 19.2676709,3.34065385 19.546557,3.386 C20.140557,3.48638462 20.7249873,3.65080769 21.2916456,3.84223077 C21.6245316,3.95161538 21.9478481,4.09769231 22.2725316,4.23442308 C23.0005063,4.53557692 23.6932785,4.90042308 24.3768228,5.28326923 C24.5921392,5.402 24.7185949,5.59342308 24.8799114,5.76684615 C25.1140253,6.01330769 25.3481392,6.25942308 25.5726835,6.51453846 C25.8331139,6.81569231 26.0757722,7.12584615 26.328,7.436 C26.5525443,7.70946154 26.7859747,7.98292308 27.0115443,8.25707692 C27.0833165,8.33911538 27.138,8.4395 27.2002025,8.53053846 C27.3437468,8.74965385 27.5060886,8.95976923 27.6318608,9.19653846 C27.7214051,9.37030769 27.7754051,9.57107692 27.8382911,9.7625 C27.9278354,10.0453077 28.0180633,10.3187692 28.1082911,10.6015769 C28.1708354,10.8113462 28.2244937,11.0308077 28.2696076,11.2488846 C28.3058354,11.3953077 28.2969494,11.5500385 28.3413797,11.6954231 C28.3960633,11.8878846 28.3413797,12.0969615 28.3960633,12.2890769 C28.4046076,12.3074231 28.4131519,12.3347692 28.4227215,12.3531154 C28.4586076,12.3891154 28.4856076,12.4258077 28.4316076,12.4805 C28.4230633,12.4895 28.4230633,12.5255 28.4316076,12.5531923 C28.4500633,12.5351923 28.4589494,12.5168462 28.4770633,12.4895 C28.4770633,12.5078462 28.4856076,12.5171923 28.4856076,12.5258462 C28.4856076,12.5618462 28.4763797,12.5985385 28.4856076,12.6348846 C28.4856076,12.6528846 28.5033797,12.6798846 28.5122658,12.6985769 C28.5303797,12.6798846 28.5481519,12.6708846 28.584038,12.6431923 C28.665038,12.9536923 28.6742658,13.2638462 28.6742658,13.583 C28.6742658,13.8841538 28.7279241,14.1853077 28.6024937,14.4771154 C28.6291519,14.3767308 28.5662658,14.285 28.5932658,14.1939615 L28.5970253,14.1963846 Z"/>
</svg>
