<svg xmlns="http://www.w3.org/2000/svg" width="33" height="32" viewBox="0 0 33 32">
  <path fill="#D14748" d="M9.375,4 L18.875,4 L26,11.2 L26,25.6 C26,26.9254834 24.9366763,28 23.625,28 L9.375,28 C8.06332372,28 7,26.9254834 7,25.6 L7,6.4 C7,5.0745166 8.06332372,4 9.375,4 L9.375,4 Z M17.6875,5.8 L17.6875,12.4 L24.21875,12.4 L17.6875,5.8 L17.6875,5.8 Z M11.75,14.8 L11.75,17.2 L12.9375,17.2 L12.9375,24.4 L11.75,24.4 L11.75,25.6 L16.5,25.6 L16.5,24.4 L15.3125,24.4 L15.3125,22 L17.6875,22 C19.6550144,22 21.25,20.3882251 21.25,18.4 C21.25,16.4117749 19.6550144,14.8 17.6875,14.8 L11.75,14.8 L11.75,14.8 Z M17.6875,17.2 C18.3433381,17.2 18.875,17.7372583 18.875,18.4 C18.875,19.0627417 18.3433381,19.6 17.6875,19.6 L15.3125,19.6 L15.3125,17.2 L17.6875,17.2 Z"/>
</svg>
