<svg xmlns="http://www.w3.org/2000/svg" width="33" height="32" viewBox="0 0 33 32">
  <g fill="none" fill-rule="evenodd" transform="translate(9 3)">
    <path fill="#F4BF75" fill-rule="nonzero" d="M10.5350981,8.596483 L15.9573837,8.596483 L15.9573837,15.4079531 L10.6953054,15.4079531 L6.30440464,19.640034 L4.58139878,17.9793497 L8.89029551,13.8263066 L8.89029551,10.332542 L5.77011158,7.32521579 L7.49311743,5.66453143 L10.5350981,8.596483 Z"/>
    <path fill="#F4BF75" fill-rule="nonzero" d="M4.91448253,2.63644666 L2.70544161,2.63644666 L2.70544161,4.76558611 L4.91448253,4.76558611 L4.91448253,2.63644666 Z M7.5646406,7.31877731 L0.0552835391,7.31877731 L0.0552835391,0.0810352908 L7.5646406,0.0810352908 L7.5646406,7.31877731 Z"/>
    <path fill="#F4BF75" fill-rule="nonzero" d="M4.91448253,19.2399601 L2.70544161,19.2399601 L2.70544161,21.3690995 L4.91448253,21.3690995 L4.91448253,19.2399601 Z M7.5646406,23.9234008 L0.0552835391,23.9234008 L0.0552835391,16.6856588 L7.5646406,16.6856588 L7.5646406,23.9234008 Z"/>
  </g>
</svg>
