<svg xmlns="http://www.w3.org/2000/svg" width="33" height="32" viewBox="0 0 33 32">
  <path fill="#AA759F" fill-rule="evenodd" d="M19.5640981,29.9999601 L19.5640981,14.6872391 C19.5640981,14.6872391 20.5009958,11.0228988 8.02282741,16.1862945 C8,16.2517668 8,2.02659502 8,2.02659502 L12.0770809,2 L12.0770809,11.1142098 C12.0770809,11.1142098 23.4928289,6.33463032 23.4928289,14.7388962 L23.4928289,30 L19.5640981,30 L19.5640981,29.9999601 L19.5640981,29.9999601 L19.5640981,29.9999601 Z M21.8873446,7.51607836 L17.5627201,7.51607836 C19.1193474,5.49292574 20.5285048,2.0265552 20.5285048,2.0265552 L25,2.0265552 C25,2.02657511 24.2345606,4.28547987 21.8873446,7.51607836 L21.8873446,7.51607836 L21.8873446,7.51607836 L21.8873446,7.51607836 Z M8.07402523,29.9733651 L8.07402523,21.2532435 L12.1759748,25.6136925 L8.07402523,29.9733651 L8.07402523,29.9733651 L8.07402523,29.9733651 Z"/>
</svg>
