<svg xmlns="http://www.w3.org/2000/svg" width="32" height="32" viewBox="0 0 32 32">
  <path fill="#7ACCEE" fill-rule="evenodd" d="M3,3 L3,29 L29,29 L29,3 L3,3 L3,3 Z M26.9337498,26.9286084 L5.06625018,26.9286084 L5.06625018,5.07139162 L26.9337498,5.07139162 L26.9337498,26.9286084 L26.9337498,26.9286084 Z M15.2766236,11.295987 C14.9416921,11.015446 14.5286939,10.7951125 14.0376289,10.6349863 C13.546564,10.4748602 12.9560269,10.3947971 12.2660177,10.3947971 C11.5974139,10.3947971 10.9332171,10.4050452 10.2734273,10.4255413 L9.28563127,10.4562856 L9.28563127,21.1149213 L11.4689815,21.1149213 L11.4689815,17.6927056 L11.7201802,17.6773335 C11.7201802,17.6773335 11.902126,17.6722095 12.2660177,17.6619614 C13.0139474,17.6222501 13.6290377,17.4922277 14.1112887,17.2718942 C14.5935396,17.0515606 15.0310911,16.7415564 15.423943,16.3418816 C15.6996949,16.0421255 15.9162671,15.6815214 16.0736597,15.2600695 C16.2310524,14.8386175 16.3097487,14.3582391 16.3097487,13.8189343 C16.3097487,13.2988446 16.2165722,12.8184662 16.0302194,12.3777991 C15.8438665,11.937132 15.5932975,11.576528 15.2785123,11.295987 L15.2785123,11.295987 L15.2766236,11.295987 Z M12.2074677,15.8000148 L11.7938399,15.8000148 C11.7938399,15.8000148 11.6855538,15.7897667 11.4689815,15.7692706 L11.4689815,12.1068657 L11.7636205,12.0914936 C11.7636205,12.0914936 11.9701196,12.0966176 12.3831178,12.1068657 C12.9535086,12.1273619 13.3866531,12.3124677 13.6825512,12.6621831 C13.9784493,13.0118986 14.1257688,13.4371936 14.1245097,13.9380681 C14.1245097,14.4991501 13.9526369,14.9443007 13.6088915,15.2735201 C13.265146,15.6027394 12.7980047,15.7775971 12.2074677,15.7980933 L12.2074677,15.7980933 L12.2074677,15.8000148 Z M20.6178992,16.1285936 C20.1255751,15.9479713 19.7912732,15.7980933 19.6149935,15.6789594 C19.4387137,15.5598256 19.3499443,15.3996995 19.3486852,15.198581 C19.347426,14.9974626 19.4261223,14.8424605 19.5847741,14.7335748 C19.7434258,14.624689 19.9694416,14.5696056 20.2628214,14.5683246 C20.5977529,14.5683246 20.9767543,14.6483877 21.3998257,14.8085138 C21.822897,14.9686399 22.1232021,15.0986623 22.300741,15.198581 L22.300741,13.3962013 C22.0640225,13.2757865 21.7687539,13.1553716 21.4149353,13.0349568 C21.0611168,12.9145419 20.6575621,12.8543345 20.2042714,12.8543345 C19.2397695,12.8543345 18.4723231,13.0996477 17.9019323,13.5902742 C17.3315415,14.0809006 17.0463461,14.7066736 17.0463461,15.4675929 C17.0463461,15.9274752 17.2138118,16.3277905 17.5487433,16.6685389 C17.8836748,17.0092873 18.444622,17.3192915 19.2315851,17.5985515 C19.6836166,17.7586776 19.9883287,17.9386594 20.1457213,18.1384968 C20.303114,18.3383342 20.3818103,18.5388121 20.3818103,18.7399305 C20.3818103,18.9602641 20.303114,19.1306383 20.1457213,19.2510531 C19.9883287,19.371468 19.72265,19.4316754 19.3486852,19.4316754 C18.9948666,19.4316754 18.5963485,19.3516123 18.1531309,19.1914862 C17.7099133,19.0313601 17.380648,18.881482 17.1653349,18.741852 L17.1653349,18.741852 L17.1653349,20.5134875 C17.4599738,20.6736137 17.8043489,20.8190082 18.19846,20.9496711 C18.5925711,21.080334 18.9759795,21.1552731 19.3486852,21.1744882 C20.4705797,21.1949844 21.3116858,20.9496711 21.8720035,20.4385485 C22.4323212,19.9274259 22.71248,19.301653 22.71248,18.5612298 C22.6923338,17.9809327 22.520461,17.4954302 22.1968618,17.1047225 C21.8732626,16.7140147 21.3469417,16.3886384 20.6178992,16.1285936 L20.6178992,16.1285936 L20.6178992,16.1285936 Z"/>
</svg>
