<svg xmlns="http://www.w3.org/2000/svg" xmlns:xlink="http://www.w3.org/1999/xlink" width="32" height="32" viewBox="0 0 32 32">
  <defs>
    <polygon id="psd-a" points="3 3 3 29 29 29 29 3 3 3"/>
  </defs>
  <g fill="none" fill-rule="evenodd">
    <use fill="#3965BD" xlink:href="#psd-a"/>
    <path stroke="#7ACCEE" stroke-width="2" d="M4,4 L4,28 L28,28 L28,4 L4,4 Z"/>
    <path fill="#7ACCEE" d="M15.2766236 11.295987L15.2785123 11.295987C15.5932975 11.576528 15.8438665 11.937132 16.0302194 12.3777991 16.2165722 12.8184662 16.3097487 13.2988446 16.3097487 13.8189343 16.3097487 14.3582391 16.2310524 14.8386175 16.0736597 15.2600695 15.9162671 15.6815214 15.6996949 16.0421255 15.423943 16.3418816 15.0310911 16.7415564 14.5935396 17.0515606 14.1112887 17.2718942 13.6290377 17.4922277 13.0139474 17.6222501 12.2660177 17.6619614 11.902126 17.6722095 11.7201802 17.6773335 11.7201802 17.6773335L11.4689815 17.6927056 11.4689815 21.1149213 9.28563127 21.1149213 9.28563127 10.4562856 10.2734273 10.4255413C10.9332171 10.4050452 11.5974139 10.3947971 12.2660177 10.3947971 12.9560269 10.3947971 13.546564 10.4748602 14.0376289 10.6349863 14.5286939 10.7951125 14.9416921 11.015446 15.2766236 11.295987zM12.2074677 15.8000148L12.2074677 15.7980933C12.7980047 15.7775971 13.265146 15.6027394 13.6088915 15.2735201 13.9526369 14.9443007 14.1245097 14.4991501 14.1245097 13.9380681 14.1257688 13.4371936 13.9784493 13.0118986 13.6825512 12.6621831 13.3866531 12.3124677 12.9535086 12.1273619 12.3831178 12.1068657 11.9701196 12.0966176 11.7636205 12.0914936 11.7636205 12.0914936L11.4689815 12.1068657 11.4689815 15.7692706C11.6855538 15.7897667 11.7938399 15.8000148 11.7938399 15.8000148L12.2074677 15.8000148zM20.6178992 16.1285936C20.1255751 15.9479713 19.7912732 15.7980933 19.6149935 15.6789594 19.4387137 15.5598256 19.3499443 15.3996995 19.3486852 15.198581 19.347426 14.9974626 19.4261223 14.8424605 19.5847741 14.7335748 19.7434258 14.624689 19.9694416 14.5696056 20.2628214 14.5683246 20.5977529 14.5683246 20.9767543 14.6483877 21.3998257 14.8085138 21.822897 14.9686399 22.1232021 15.0986623 22.300741 15.198581L22.300741 13.3962013C22.0640225 13.2757865 21.7687539 13.1553716 21.4149353 13.0349568 21.0611168 12.9145419 20.6575621 12.8543345 20.2042714 12.8543345 19.2397695 12.8543345 18.4723231 13.0996477 17.9019323 13.5902742 17.3315415 14.0809006 17.0463461 14.7066736 17.0463461 15.4675929 17.0463461 15.9274752 17.2138118 16.3277905 17.5487433 16.6685389 17.8836748 17.0092873 18.444622 17.3192915 19.2315851 17.5985515 19.6836166 17.7586776 19.9883287 17.9386594 20.1457213 18.1384968 20.303114 18.3383342 20.3818103 18.5388121 20.3818103 18.7399305 20.3818103 18.9602641 20.303114 19.1306383 20.1457213 19.2510531 19.9883287 19.371468 19.72265 19.4316754 19.3486852 19.4316754 18.9948666 19.4316754 18.5963485 19.3516123 18.1531309 19.1914862 17.7099133 19.0313601 17.380648 18.881482 17.1653349 18.741852L17.1653349 18.741852 17.1653349 20.5134875C17.4599738 20.6736137 17.8043489 20.8190082 18.19846 20.9496711 18.5925711 21.080334 18.9759795 21.1552731 19.3486852 21.1744882 20.4705797 21.1949844 21.3116858 20.9496711 21.8720035 20.4385485 22.4323212 19.9274259 22.71248 19.301653 22.71248 18.5612298 22.6923338 17.9809327 22.520461 17.4954302 22.1968618 17.1047225 21.8732626 16.7140147 21.3469417 16.3886384 20.6178992 16.1285936L20.6178992 16.1285936 20.6178992 16.1285936z"/>
  </g>
</svg>
