<svg xmlns="http://www.w3.org/2000/svg" width="32" height="32" viewBox="0 0 32 32">
  <path fill="#F4BF75" fill-rule="evenodd" d="M13.096066,15.5716896 L18.8698521,15.5716896 C19.6715889,15.5716896 20.355842,15.2861252 20.9226115,14.7149963 C21.489381,14.1438674 21.7727657,13.462311 21.7727657,12.6703269 L21.7727657,7.23053551 C21.7727657,6.43855141 21.4836848,5.77387559 20.9055229,5.23650804 C20.3273611,4.6991405 19.6488042,4.37489123 18.8698521,4.26376025 C18.379981,4.1751368 17.8794296,4.1090209 17.3681978,4.06541254 C16.8569661,4.02180418 16.3564146,4 15.8665435,4 C15.3553117,4.02250754 14.8654406,4.04993861 14.3969302,4.0822932 C13.9284197,4.11464779 13.4947983,4.1751368 13.096066,4.26376025 C11.8728123,4.46210795 11.08318,4.79761099 10.727169,5.27026935 C10.371158,5.74292772 10.1931525,6.39705313 10.1931525,7.23264559 L10.1931525,9.40814012 L16.0011157,9.40814012 L16.0011157,10.1340083 L8.02504563,10.1340083 C7.17916353,10.1340083 6.42228419,10.3815913 5.75440759,10.8767572 C5.08653098,11.3719231 4.63012491,12.091461 4.38518935,13.035371 C4.1402538,14.1129196 4.01208984,15.0638632 4.00069749,15.8882019 C3.98930514,16.7125406 4.11746909,17.6958388 4.38518935,18.8380965 C4.6073402,19.6947898 4.96904736,20.3925235 5.47031082,20.9312978 C5.97157429,21.4700721 6.64443504,21.7394592 7.48889309,21.7394592 L9.45834584,21.7394592 L9.45834584,19.135618 C9.45834584,18.1903013 9.820053,17.3603357 10.5434673,16.6457213 C11.2668816,15.9311069 12.1177479,15.5737997 13.096066,15.5737997 L13.096066,15.5737997 L13.096066,15.5716896 Z M12.7286627,7.95429363 C12.4167971,7.95429363 12.155485,7.84456937 11.9447265,7.62512084 C11.733968,7.40567232 11.6285888,7.15316584 11.6285888,6.86760141 C11.6285888,6.55952944 11.733968,6.30139608 11.9447265,6.09320132 C12.155485,5.88500657 12.4167971,5.78090919 12.7286627,5.78090919 C13.0177436,5.78090919 13.2683754,5.88500657 13.4805579,6.09320132 C13.6927405,6.30139608 13.7981197,6.55952944 13.7966957,6.86760141 C13.7966957,7.15316584 13.6913164,7.40567232 13.4805579,7.62512084 C13.2697994,7.84456937 13.0191677,7.95429363 12.7286627,7.95429363 L12.7286627,7.95429363 L12.7286627,7.95429363 Z M27.5465518,13.0311509 C27.3457616,12.1955584 27.0289118,11.5034515 26.5960025,10.9548302 C26.1630931,10.4062089 25.5236974,10.1311949 24.6778153,10.1297882 L22.5075724,10.1297882 L22.5075724,12.6682168 C22.5075724,13.6571419 22.140169,14.5089116 21.4053624,15.2235261 C20.6705557,15.9381405 19.8246736,16.2954477 18.8677161,16.2954477 L13.09393,16.2954477 C12.2921933,16.2954477 11.6079401,16.586639 11.0411707,17.1690216 C10.4744012,17.7514043 10.1910164,18.4273339 10.1910164,19.1968104 L10.1910164,24.6366018 C10.1910164,25.4285859 10.4800974,26.0602037 11.0582592,26.5314554 C11.636421,27.002707 12.314978,27.3487605 13.09393,27.5696157 C14.0067421,27.8340793 14.9245385,27.9768615 15.8473189,27.9979624 C16.7700994,28.0190632 17.7768984,27.876281 18.8677161,27.5696157 C19.6025227,27.3501672 20.2703994,27.0146642 20.8713459,26.5631066 C21.4722924,26.1115491 21.7727657,25.4686774 21.7727657,24.6344917 L21.7727657,22.4589972 L15.9989796,22.4589972 L15.9989796,21.733129 L24.6778153,21.733129 C25.5236974,21.733129 26.1410204,21.4693687 26.5297844,20.9418482 C26.9185484,20.4143277 27.2581829,19.7109671 27.5486879,18.8317662 C27.8605535,17.9300579 28.0107901,17.023426 27.9993978,16.1118706 C27.9880054,15.2003152 27.8377688,14.1727052 27.5486879,13.0290408 L27.5486879,13.0290408 L27.5465518,13.0311509 Z M19.2372555,23.9128437 C19.5491211,23.9128437 19.8104332,24.0225679 20.0211917,24.2420164 C20.2319502,24.461465 20.3373294,24.7139714 20.3373294,24.9995359 C20.3373294,25.3076078 20.2319502,25.5713681 20.0211917,25.7908166 C19.8104332,26.0102651 19.5491211,26.1199894 19.2372555,26.1199894 C18.9481746,26.1199894 18.6925587,26.0102651 18.4704078,25.7908166 C18.248257,25.5713681 18.1371815,25.3076078 18.1371815,24.9995359 C18.1371815,24.7139714 18.248257,24.461465 18.4704078,24.2420164 C18.6925587,24.0225679 18.9481746,23.9128437 19.2372555,23.9128437 L19.2372555,23.9128437 L19.2372555,23.9128437 Z"/>
</svg>
