<svg xmlns="http://www.w3.org/2000/svg" width="32" height="32" viewBox="0 0 32 32">
  <path fill="#D14748" fill-rule="evenodd" d="M28.8086896,7.66511461 C28.9028264,7.66511461 28.9028264,7.75764088 29,7.85315186 C28.8086896,8.04118911 28.6204158,8.31876791 28.4291053,8.59933142 L28.3349685,8.59933142 C27.5758,7.85315186 26.7224947,7.48006208 25.677879,7.38753582 C24.5391264,7.19949857 23.4003737,7.38753582 22.355758,7.94866285 C19.6045317,9.16045845 17.8007475,11.2139446 16.8502686,14.0106256 C16.5648213,14.9448424 16.3765475,15.9686008 16.279374,16.9953438 C16.279374,17.7415234 16.279374,18.5802292 16.3735109,19.3264088 C16.4676477,20.5382044 16.6589582,21.7529847 16.847232,22.9647803 C17.320953,24.6451767 17.7977108,26.3225883 18.4597057,27.9074737 L18.4597057,28 L5.83928989,28 C5.83928989,27.7194365 5.83928989,27.534384 5.745153,27.3463467 C5.745153,25.9465138 5.83928989,24.642192 6.12473721,23.3348854 C6.41018454,21.3769102 6.88390563,19.5114613 7.54893716,17.7385387 C8.11983181,16.0581423 8.87900023,14.5657832 9.63816865,12.9808978 C10.2090633,12.046681 10.6827844,11.1154489 11.2506424,10.1812321 C12.2952581,8.78139924 13.4340107,7.47707736 14.9523476,6.45033429 C16.4706844,5.42359121 18.0831581,4.76993792 19.8869423,4.58488539 C21.6907265,4.30432187 23.3973371,4.58488539 25.0128475,5.23853868 C26.4370474,5.89219198 27.6699369,6.63837154 28.8086896,7.66511461 L28.8086896,7.66511461 Z M3.28241065,21.75 C4.13571595,21.75 4.99205793,21.8425263 5.84536323,21.9380372 C5.65405279,22.7767431 5.55991591,23.5229226 5.37164214,24.3646132 C4.61247372,24.2720869 3.8533053,24.1765759 3,24.0840497 C3.09413688,23.2453438 3.19131044,22.4991643 3.28544733,21.7529847 L3.28241065,21.75 Z M7.93155805,14.7538204 C7.64611072,15.4074737 7.45783695,15.965616 7.26652651,16.6192693 C6.50735809,16.3387058 5.74818968,16.1536533 4.98902126,15.8730898 C5.27446858,15.2194365 5.46274235,14.5657832 5.74818968,13.9151146 C6.41322121,14.1956781 7.17238963,14.4762416 7.93155805,14.7538204 L7.93155805,14.7538204 Z M19.6986685,24.0810649 C19.9841159,24.642192 20.2695632,25.2003343 20.457837,25.7614613 C20.5519738,25.7614613 20.5519738,25.7614613 20.5519738,25.8539876 L20.3606634,25.8539876 C19.601495,25.7614613 18.9364634,25.7614613 18.177295,25.7614613 C18.0831581,25.6689351 17.9859846,25.6689351 17.9859846,25.5734241 C17.7946741,25.107808 17.7005373,24.546681 17.6064004,24.0810649 C17.5122635,24.0810649 17.5122635,24.0810649 17.5122635,23.9885387 L19.5043214,23.9885387 C19.5984583,23.9885387 19.5984583,24.0810649 19.6956319,24.0810649 L19.6986685,24.0810649 Z M11.6332633,8.78438395 C11.1595422,9.34551098 10.779958,9.81112703 10.3032002,10.3692693 L8.59355291,9.25 C9.067274,8.68887297 9.44685821,8.22325692 9.92361598,7.75764088 C10.4945106,8.13073066 11.0623686,8.50382044 11.6332633,8.78438395 L11.6332633,8.78438395 Z M16.8502686,19.7920248 C16.9444055,19.3264088 16.9444055,18.7652818 16.9444055,18.2071394 C17.0385424,18.2071394 17.0385424,18.2996657 17.0385424,18.2996657 C17.609437,18.5802292 18.177295,18.8607927 18.6510161,19.1383715 C18.745153,19.1383715 18.745153,19.1383715 18.745153,19.2308978 C18.8392899,19.6965138 18.8392899,20.1651146 18.8392899,20.5382044 L18.8392899,20.7262416 C18.8392899,20.7262416 18.8392899,20.6337154 18.745153,20.6337154 C18.1742584,20.4456781 17.6064004,20.1680993 16.9413688,19.8875358 C16.9413688,19.8875358 16.847232,19.8875358 16.847232,19.7950096 L16.8502686,19.7920248 Z M16.3765475,4.96095989 C15.9028264,5.33404967 15.3319318,5.61461318 14.8582107,5.8951767 L13.7194581,4.49534384 L13.813595,4.49534384 C14.1931792,4.21478032 14.6669003,4.02972779 15.143658,3.74916428 L15.3349685,3.74916428 C15.7145527,4.21478032 16,4.58787011 16.3795842,4.96095989 L16.3765475,4.96095989 Z M17.0415791,15.2194365 C17.2328895,14.7538204 17.4211633,14.3807307 17.6124737,14.0076409 L18.7512263,14.8463467 C18.8453632,14.8463467 18.9425368,14.938873 18.9425368,14.938873 L19.0366737,15.0313992 C18.8453632,15.4970153 18.7512263,16.0581423 18.6570895,16.5237584 L18.6570895,16.5237584 C18.0861948,16.0581423 17.5183368,15.5895415 17.0446157,15.2164518 L17.0415791,15.2194365 Z M21.5024527,4.30730659 L19.5103948,4.30730659 C19.4162579,3.93421681 19.3190843,3.46860076 19.2249474,3 L19.889979,3 C20.3637001,3 20.7432843,3.09252627 21.1228685,3.09252627 C21.3141789,3.09252627 21.3141789,3.09252627 21.3141789,3.18505253 C21.4083158,3.55814231 21.4083158,3.83870583 21.5054894,4.21179561 L21.5054894,4.30432187 L21.5024527,4.30730659 Z M20.457837,11.5840497 C20.2665265,11.8646132 20.0782527,12.1451767 19.8869423,12.5182665 C19.5073581,11.9571394 19.033637,11.4915234 18.5568792,11.0259074 C18.8423266,10.6528176 19.2219108,10.3722541 19.5073581,10.0916905 C19.601495,10.0916905 19.601495,10.1842168 19.601495,10.1842168 C19.8869423,10.5573066 20.1723896,11.0229226 20.4548003,11.3960124 L20.4548003,11.5840497 L20.457837,11.5840497 Z M22.8294791,8.31876791 C22.923616,8.59933142 22.923616,8.78438395 23.0207895,9.06494747 L22.9266527,9.06494747 C22.6412053,9.34551098 22.355758,9.53056351 22.0733473,9.81112703 C21.8820369,9.43803725 21.6937631,9.06494747 21.5024527,8.59933142 C21.9761738,8.50680516 22.355758,8.41129417 22.8325158,8.31876791 L22.8294791,8.31876791 Z M25.8661528,5.33404967 L25.8661528,4.49534384 C26.4370474,4.77590735 26.9107685,5.14899713 27.4786265,5.52208691 C27.3844896,5.71012416 27.287316,5.80265043 27.1931792,5.98770296 C26.7194581,5.70713945 26.2427003,5.52208691 25.8631161,5.33404967 L25.8661528,5.33404967 Z M26.8166316,8.31876791 C26.8166316,8.31876791 26.9107685,8.31876791 26.9107685,8.41129417 L26.9107685,8.87691022 C26.4370474,8.78438395 26.0574632,8.78438395 25.5807054,8.78438395 L25.5807054,8.03820439 C25.6748423,8.03820439 25.7720159,8.03820439 25.8661528,8.13073066 C26.1516001,8.13073066 26.5311843,8.22325692 26.8166316,8.31876791 L26.8166316,8.31876791 Z"/>
</svg>
