<svg xmlns="http://www.w3.org/2000/svg" width="32" height="32" viewBox="0 0 32 32">
  <path fill="#80CBC4" fill-rule="evenodd" d="M18.3750191,15.9969191 C18.3750191,16.6596491 18.1418234,17.2320068 17.6754319,17.7139923 C17.2090404,18.1959777 16.6446007,18.4369705 15.9821128,18.4369705 C15.3408245,18.4369705 14.7869847,18.1959777 14.3205932,17.7139923 C13.8542017,17.2320068 13.621006,16.6596491 13.621006,15.9969191 C13.621006,15.3122807 13.8542017,14.7289688 14.3205932,14.2469833 C14.7869847,13.7649979 15.3408245,13.5240051 15.9821128,13.5240051 C16.6446007,13.5240051 17.2090404,13.7649979 17.6754319,14.2469833 C18.1418234,14.7289688 18.3750191,15.3122807 18.3750191,15.9969191 L18.3750191,15.9969191 L18.3750191,15.9969191 Z M15.9841003,25.0156611 C16.9367579,25.9577236 17.8582786,26.6902867 18.7486623,27.2133504 C19.639046,27.7364142 20.4565561,27.9986307 21.2011925,28 C21.4290883,28 21.6569842,27.9732991 21.88488,27.9198973 C22.1127758,27.8664955 22.3201345,27.7754386 22.5069561,27.6467266 C23.169444,27.2619598 23.6199358,26.5882756 23.8584314,25.6256739 C24.0969271,24.6630723 24.102227,23.4759093 23.8743311,22.0641849 C23.8332569,21.8067608 23.7868827,21.5500214 23.7352087,21.2939666 C23.6835346,21.0379119 23.6265607,20.7811724 23.5642868,20.5237484 C23.8133823,20.437484 24.0565153,20.3573813 24.293686,20.2834403 C24.5308566,20.2094994 24.7640524,20.1293967 24.9932732,20.0431322 C26.2970494,19.5296534 27.2907812,18.9305948 27.9744687,18.2459564 C28.6581562,17.5613179 29,16.8232777 29,16.0318357 C29,15.2403937 28.6581562,14.5023534 27.9744687,13.817715 C27.2907812,13.1330766 26.2970494,12.534018 24.9932732,12.0205392 C24.7653774,11.9342747 24.5321816,11.8486949 24.293686,11.7637997 C24.0551903,11.6789046 23.8120573,11.604279 23.5642868,11.539923 C23.6265607,11.2824989 23.6835346,11.0257595 23.7352087,10.7697047 C23.7868827,10.51365 23.8332569,10.2678648 23.8743311,10.0323492 C24.0810274,8.57680787 24.0704276,7.36294395 23.8425317,6.39075738 C23.6146359,5.41857082 23.169444,4.7394095 22.5069561,4.35327343 C22.3002599,4.2245614 22.0829639,4.13350449 21.855068,4.0801027 C21.6271722,4.0267009 21.3992764,4 21.1713805,4 C20.4466188,4 19.6337461,4.26221652 18.7327626,4.78664955 C17.831779,5.31108258 16.9155583,6.0436457 15.9841003,6.9843389 C15.0526423,6.04227642 14.1417214,5.30971331 13.2513377,4.78664955 C12.360954,4.26358579 11.5434439,4.00136928 10.7988075,4 C10.5709117,4 10.3430158,4.0267009 10.11512,4.0801027 C9.88722418,4.13350449 9.67986546,4.2245614 9.49304388,4.35327343 C8.83055598,4.73804022 8.38006421,5.41172443 8.14156857,6.37432606 C7.90307292,7.33692769 7.89777302,8.52409071 8.12566886,9.93581515 C8.16674311,10.1932392 8.21311726,10.4499786 8.26479132,10.7060334 C8.31646537,10.9620881 8.37343933,11.2188276 8.43571319,11.4762516 C8.18661774,11.562516 7.94348469,11.6426187 7.70631402,11.7165597 C7.46914335,11.7905006 7.23594761,11.8706033 7.0067268,11.9568678 C5.70295062,12.4703466 4.70921877,13.0694052 4.02553126,13.7540436 C3.34184375,14.4386821 3,15.1767223 3,15.9681643 C3,16.7596063 3.34184375,17.4976466 4.02553126,18.182285 C4.70921877,18.8669234 5.70295062,19.465982 7.0067268,19.9794608 C7.23462264,20.0657253 7.46781838,20.1513051 7.70631402,20.2362003 C7.94480966,20.3210954 8.18794272,20.395721 8.43571319,20.460077 C8.37343933,20.7175011 8.31646537,20.9742405 8.26479132,21.2302953 C8.21311726,21.48635 8.16674311,21.7321352 8.12566886,21.9676508 C7.91897263,23.3793753 7.92957244,24.5720154 8.15746828,25.5455712 C8.38536411,26.5191271 8.83055598,27.1982884 9.49304388,27.5830552 C9.67986546,27.6898588 9.88722418,27.7754386 10.11512,27.8397946 C10.3430158,27.9041506 10.5709117,27.9363286 10.7988075,27.9363286 C11.5447689,27.9582371 12.362279,27.7069748 13.2513377,27.1825417 C14.1403965,26.6581087 15.0513173,25.9358151 15.9841003,25.0156611 L15.9841003,25.0156611 L15.9841003,25.0156611 Z M14.5551139,21.4521181 C14.8042093,21.4740265 15.0473424,21.4849807 15.2845131,21.4849807 L16.7134995,21.4849807 C16.7134995,21.4849807 16.9566325,21.4740265 17.4428986,21.4521181 C17.1938032,21.7725289 16.9506701,22.077193 16.7134995,22.3661104 C16.4763288,22.6550278 16.2331957,22.9384681 15.9841003,23.2164313 C15.7562045,22.9384681 15.5230087,22.6550278 15.2845131,22.3661104 C15.0460174,22.077193 14.8028844,21.7725289 14.5551139,21.4521181 L14.5551139,21.4521181 L14.5551139,21.4521181 Z M11.3890842,18.7245186 C11.5335066,18.9600342 11.6626917,19.1845956 11.7766397,19.3982028 C11.8905876,19.61181 12.0197727,19.8261018 12.1641951,20.0410783 C11.7706773,19.9767223 11.3877593,19.9123663 11.0154411,19.8480103 C10.6431229,19.7836543 10.280742,19.7090287 9.92829843,19.6241335 C10.0316465,19.2818143 10.1508944,18.9237484 10.2860419,18.5499358 C10.4211894,18.1761232 10.5609744,17.8071031 10.7053967,17.4428755 C10.8087448,17.6564827 10.9173929,17.8707745 11.0313408,18.085751 C11.1452887,18.3007274 11.2645365,18.5150193 11.3890842,18.7286264 L11.3890842,18.7286264 L11.3890842,18.7245186 Z M9.92829843,12.3697047 C10.280742,12.2834403 10.6431229,12.2088147 11.0154411,12.145828 C11.3877593,12.0828412 11.7706773,12.0184852 12.1641951,11.9527599 L11.7905519,12.5956354 C11.7905519,12.5956354 11.6560669,12.8201968 11.3870968,13.2693196 C11.262549,13.4829268 11.1433012,13.6972187 11.0293533,13.9121951 C10.9154054,14.1271716 10.8067574,14.351733 10.7034093,14.5858793 C10.5377873,14.2011125 10.3927024,13.8211382 10.2681547,13.4459564 C10.143607,13.0707745 10.0296591,12.7127086 9.92631096,12.3717587 L9.92631096,12.3717587 L9.92829843,12.3697047 Z M11.3254854,15.9969191 C11.4911074,15.6326915 11.6620293,15.2746256 11.838251,14.9227214 C12.0144728,14.5708173 12.2059318,14.2127514 12.412628,13.8485237 L13.0347042,12.8215661 C13.0347042,12.8215661 13.2520002,12.4792469 13.6865923,11.7946085 C14.0589105,11.7521609 14.4365286,11.72546 14.8194466,11.7145058 C15.2023646,11.7035516 15.5905825,11.6980745 15.9841003,11.6980745 C16.3988177,11.6980745 16.7976354,11.7035516 17.1805534,11.7145058 C17.5634714,11.72546 17.9410895,11.7521609 18.3134077,11.7946085 C18.5625032,12.1369277 18.7850991,12.4792469 18.9811955,12.8215661 C19.177292,13.1638853 19.3793508,13.5062045 19.587372,13.8485237 C19.7940682,14.2127514 19.9855272,14.5708173 20.161749,14.9227214 C20.3379707,15.2746256 20.5088926,15.6326915 20.6745146,15.9969191 L20.161749,17.0567394 C20.161749,17.0567394 19.97029,17.4100128 19.587372,18.1165597 L18.9652958,19.1435173 C18.9652958,19.1435173 18.7479998,19.4858365 18.3134077,20.170475 C17.9410895,20.2129226 17.5634714,20.2396234 17.1805534,20.2505777 C16.7976354,20.2615319 16.3988177,20.267009 15.9841003,20.267009 C15.5905825,20.267009 15.2023646,20.2615319 14.8194466,20.2505777 C14.4365286,20.2396234 14.0589105,20.2129226 13.6865923,20.170475 C13.4374968,19.8281558 13.2149009,19.4858365 13.0188045,19.1435173 C12.822708,18.8011981 12.6206492,18.4588789 12.412628,18.1165597 C12.2046068,17.7742405 12.0131478,17.4209671 11.838251,17.0567394 L11.3254854,15.9969191 L11.3254854,15.9969191 Z M21.3264027,14.5530167 L20.6129032,13.236457 C20.4883555,13.0009414 20.3691077,12.7818571 20.2551598,12.5792041 C20.1412118,12.3765511 20.0120267,12.1677364 19.8676043,11.9527599 C20.2611222,11.9952075 20.6440402,12.0486093 21.0163584,12.1129653 C21.3886766,12.1773214 21.7510574,12.2519469 22.103501,12.3368421 C22.0001529,12.7010697 21.8809051,13.0700899 21.7457575,13.4439024 C21.61061,13.817715 21.4708251,14.1867351 21.3264027,14.5509628 L21.3264027,14.5509628 L21.3264027,14.5530167 Z M21.3264027,17.4100128 C21.4708251,17.7742405 21.61061,18.1432606 21.7457575,18.5170732 C21.8809051,18.8908858 22.0001529,19.2489516 22.103501,19.5912709 C21.7510574,19.6775353 21.3886766,19.7521609 21.0163584,19.8151476 C20.6440402,19.8781344 20.2611222,19.9424904 19.8676043,20.0082157 L20.2412475,19.3653402 C20.2412475,19.3653402 20.3657952,19.1407788 20.6148907,18.691656 C20.7394384,18.4985879 20.8586862,18.2952503 20.9726342,18.0816431 C21.0865821,17.8680359 21.2058299,17.6434745 21.3303776,17.4079589 L21.3303776,17.4079589 L21.3264027,17.4100128 Z M21.9166794,26.5869063 C21.8133313,26.6512623 21.6993834,26.6943945 21.5748357,26.716303 C21.4502879,26.7382114 21.3158029,26.7491656 21.1713805,26.7491656 C20.5499669,26.7491656 19.861642,26.5081729 19.1064057,26.0261874 C18.3511695,25.544202 17.5906334,24.9074882 16.8247974,24.1160462 C17.1971156,23.709371 17.5647964,23.2759949 17.9278398,22.8159178 C18.2908831,22.3558408 18.6479641,21.8690629 18.9990827,21.3555841 C19.5992967,21.2912281 20.1842736,21.2166025 20.7540131,21.1317073 C21.3237527,21.0468122 21.8775926,20.9290543 22.4155328,20.7784339 C22.4778067,21.0139495 22.5294807,21.2549422 22.570555,21.5014121 C22.6116292,21.7478819 22.6533659,21.9888746 22.6957652,22.2243902 C22.8825868,23.3376123 22.9084238,24.2789902 22.7732763,25.0485237 C22.6381287,25.8180573 22.3532589,26.3315362 21.9186669,26.5889602 L21.9186669,26.5889602 L21.9166794,26.5869063 Z M23.2204556,12.6593068 C24.6699791,13.0878905 25.798196,13.6013693 26.6051063,14.1997433 C27.4120165,14.7981172 27.8154716,15.3971759 27.8154716,15.9969191 C27.8154716,16.5103979 27.5306018,17.0129226 26.9608623,17.5044929 C26.3911227,17.9960633 25.5888498,18.4451861 24.5540437,18.8518614 C24.3473475,18.9381258 24.1353514,19.0182285 23.9180553,19.0921694 C23.7007593,19.1661104 23.4675636,19.2359435 23.2184681,19.3016688 C23.0528461,18.7662816 22.8666871,18.2206247 22.6599908,17.6646983 C22.4532946,17.1087719 22.2253988,16.5521609 21.9763033,15.9948652 C22.2253988,15.4170304 22.4585945,14.8501498 22.6758905,14.2942234 C22.8931866,13.738297 23.0740458,13.1926401 23.2184681,12.6572529 L23.2184681,12.6572529 L23.2204556,12.6593068 Z M21.2011925,5.21386393 C21.3257402,5.21386393 21.4502879,5.22481814 21.5748357,5.24672657 C21.6993834,5.268635 21.8133313,5.3220368 21.9166794,5.40693196 C22.3512715,5.64244758 22.6414412,6.14017972 22.7871885,6.90012837 C22.9329358,7.66007702 22.9123987,8.60693196 22.7255771,9.7406932 C22.6845029,9.97620881 22.6381287,10.2117244 22.5864547,10.4472401 C22.5347806,10.6827557 22.4884065,10.9285409 22.4473322,11.1845956 C21.909392,11.0558836 21.3555522,10.94908 20.7858126,10.8641849 C20.216073,10.7792897 19.6310962,10.7046641 19.0308821,10.6403081 C18.6784386,10.1049208 18.3213576,9.6071887 17.9596392,9.14711168 C17.5979208,8.68703466 17.23024,8.25365854 16.8565969,7.84698331 C17.6224329,7.07608045 18.3783315,6.44484382 19.1242929,5.95327343 C19.8702543,5.46170304 20.5638791,5.21591784 21.2051674,5.21591784 L21.2051674,5.21591784 L21.2011925,5.21386393 Z M17.4448861,10.5088575 C17.1957907,10.5088575 16.9526576,10.5033804 16.7154869,10.4924262 C16.4783163,10.481472 16.2351832,10.4759949 15.9860878,10.4759949 C15.7581919,10.4759949 15.5249962,10.481472 15.2865005,10.4924262 C15.0480049,10.5033804 14.8048718,10.5088575 14.5571014,10.5088575 C14.8061968,10.1884467 15.0493299,9.88378263 15.2865005,9.59486521 C15.5236712,9.3059478 15.7568669,9.02250749 15.9860878,8.74454429 C16.2351832,9.02250749 16.4783163,9.3114249 16.7154869,9.61129653 C16.9526576,9.91116816 17.1957907,10.2110398 17.4448861,10.5109114 L17.4448861,10.5109114 L17.4448861,10.5088575 Z M10.0833206,5.40693196 C10.1866687,5.32066752 10.3006166,5.26726573 10.4251643,5.24672657 C10.5497121,5.22618742 10.6841971,5.2152332 10.8286195,5.21386393 C11.4500331,5.21386393 12.138358,5.45485665 12.8935943,5.93684211 C13.6488305,6.41882756 14.4093666,7.05554129 15.1752026,7.84698331 C14.8028844,8.25365854 14.4352036,8.68703466 14.0721602,9.14711168 C13.7091169,9.6071887 13.3520359,10.1049208 13.0009173,10.6403081 C12.4007033,10.6827557 11.8157264,10.7525888 11.2459869,10.8498074 C10.6762473,10.9470261 10.1224074,11.0593068 9.58446721,11.1866496 C9.52219334,10.9511339 9.47051929,10.7101412 9.42944504,10.4636714 C9.38837079,10.2172015 9.34663405,9.97620881 9.30423483,9.7406932 C9.11741324,8.62747112 9.09157621,7.69157039 9.22672374,6.93299101 C9.36187127,6.17441164 9.64674107,5.66640993 10.0813331,5.40898588 L10.0813331,5.40898588 L10.0833206,5.40693196 Z M8.77954441,19.3016688 C7.33002089,18.8949936 6.20180401,18.3869919 5.39489375,17.7776637 C4.58798349,17.1683355 4.18452836,16.574754 4.18452836,15.9969191 C4.18452836,15.4834403 4.46939816,14.9754386 5.03913775,14.472914 C5.60887734,13.9703894 6.41115018,13.5157895 7.44595628,13.1091142 C7.6526525,13.0228498 7.86464863,12.9427471 8.08194466,12.8688062 C8.29924069,12.7948652 8.53243643,12.7250321 8.78153188,12.6593068 C8.94715385,13.1946941 9.13331295,13.7403509 9.34000917,14.2962773 C9.5467054,14.8522037 9.77460123,15.4190843 10.0236967,15.9969191 C9.77460123,16.5528455 9.54140549,17.114249 9.32410946,17.6811297 C9.10681343,18.2480103 8.92595424,18.78819 8.78153188,19.3016688 L8.78153188,19.3016688 L8.77954441,19.3016688 Z M9.30820975,22.2223363 L9.43341997,21.5157895 C9.43341997,21.5157895 9.48509402,21.2700043 9.58844213,20.7784339 C10.1263823,20.9071459 10.6802222,21.0194266 11.2499618,21.115276 C11.8197014,21.2111254 12.4046782,21.2912281 13.0048922,21.3555841 C13.3573358,21.8690629 13.7144168,22.3558408 14.0761351,22.8159178 C14.4378535,23.2759949 14.8055343,23.709371 15.1791775,24.1160462 C14.4133415,24.9074882 13.6528054,25.544202 12.8975692,26.0261874 C12.142333,26.5081729 11.4540081,26.7491656 10.8325944,26.7491656 C10.688172,26.7491656 10.5589869,26.7382114 10.445039,26.716303 C10.3310911,26.6943945 10.2118432,26.6512623 10.0872955,26.5869063 C9.65270346,26.3294822 9.36783366,25.8160034 9.23268613,25.0464698 C9.0975386,24.2769362 9.12337563,23.3355584 9.31019722,22.2223363 L9.31019722,22.2223363 L9.30820975,22.2223363 Z"/>
</svg>
