<svg xmlns="http://www.w3.org/2000/svg" width="32" height="32" viewBox="0 0 32 32">
  <g fill="none" fill-rule="evenodd" transform="translate(5 4)">
    <rect width="23" height="23" fill="#D14748"/>
    <path fill="#FFF" d="M11.4191242,21 L9.3458445,17.1823573 L8.10902592,17.1823573 L8.10902592,21 L6,21 L6,11 L9.53172475,11 C10.7899974,11 11.7313046,11.254507 12.3556747,11.7635285 C12.9800448,12.2725501 13.2922252,13.0064197 13.2922252,13.9651594 C13.2922252,14.6422075 13.115879,15.2179368 12.7631814,15.6923647 C12.4104838,16.1667926 11.9219572,16.5003697 11.2975871,16.693106 L13.792672,21 L11.4191242,21 Z M11.1689008,14.0541142 C11.1689008,13.5895702 11.0211513,13.2473448 10.7256479,13.0274277 C10.4301445,12.8075106 9.95829934,12.6975537 9.3100983,12.6975537 L8.10902592,12.6975537 L8.10902592,15.4848036 L9.36729223,15.4848036 C10.5683706,15.4848036 11.1689008,15.0079119 11.1689008,14.0541142 Z M14.7864164,21 L14.7864164,11 L21.7068811,11 L21.7068811,12.6901408 L16.8954424,12.6901408 L16.8954424,15.0919199 L21.2707775,15.0919199 L21.2707775,16.7820608 L16.8954424,16.7820608 L16.8954424,19.3098592 L22,19.3098592 L22,21 L14.7864164,21 Z"/>
  </g>
</svg>
