<svg xmlns="http://www.w3.org/2000/svg" width="33" height="32" viewBox="0 0 33 32">
  <defs>
    <linearGradient id="rollup-a" x1="26.825%" x2="67.576%" y1="48.223%" y2="55.339%">
      <stop offset="0%" stop-color="#FF6533"/>
      <stop offset="15.7%" stop-color="#FF5633"/>
      <stop offset="43.4%" stop-color="#FF4333"/>
      <stop offset="71.4%" stop-color="#FF3733"/>
      <stop offset="100%" stop-color="#F33"/>
    </linearGradient>
    <linearGradient id="rollup-b" x1="20.45%" x2="93.485%" y1="38.133%" y2="80.432%">
      <stop offset="0%" stop-color="#AC4142"/>
      <stop offset="100%" stop-color="#D14748"/>
    </linearGradient>
    <linearGradient id="rollup-c" x1="32.299%" x2="45.564%" y1="39.503%" y2="48.92%">
      <stop offset="0%" stop-color="#FF6533"/>
      <stop offset="15.7%" stop-color="#FF5633"/>
      <stop offset="43.4%" stop-color="#FF4333"/>
      <stop offset="71.4%" stop-color="#FF3733"/>
      <stop offset="100%" stop-color="#F33"/>
    </linearGradient>
    <linearGradient id="rollup-d" x1="40.204%" x2="53.979%" y1="47.22%" y2="54.541%">
      <stop offset="0%" stop-color="#F4BF75"/>
      <stop offset="100%" stop-color="#FB8840"/>
    </linearGradient>
    <linearGradient id="rollup-e" x1="55.227%" x2="40.93%" y1="5.891%" y2="128.024%">
      <stop offset="0%" stop-color="#FFF"/>
      <stop offset="100%" stop-color="#FFF" stop-opacity="0"/>
    </linearGradient>
  </defs>
  <g fill="none" transform="translate(6 2)">
    <path fill="url(#rollup-a)" d="M18.1400415,6.0474566 C18.1400415,4.45999925 17.7177336,2.97175797 16.973896,1.68194887 C15.0015264,-0.316546557 10.7112626,-0.779554953 9.64589507,1.67249972 C8.55173384,4.18597387 11.483894,6.98292255 12.7652144,6.7608675 C14.3968583,6.47739297 12.4772772,2.7922241 12.4772772,2.7922241 C14.9727326,7.42230807 14.3968583,6.00493542 9.88584271,10.2570533 C5.3748271,14.5091713 0.767832444,23.4811401 0.0959790554,23.8591061 C0.0671853388,23.8780044 0.0383916222,23.8921782 0.00479895277,23.9063519 L17.6985378,23.9063519 C18.0104698,23.9063519 18.2120258,23.5803562 18.0728561,23.3063308 L13.4466657,14.2918408 C13.3458877,14.0981332 13.417872,13.8571799 13.6098301,13.7485146 C16.3164394,12.2177522 18.1400415,9.34521028 18.1400415,6.0474566 L18.1400415,6.0474566 Z" transform="translate(2.83 2.865)"/>
    <path fill="url(#rollup-b)" d="M18.1400415,6.0474566 C18.1400415,4.45999925 17.7177336,2.97175797 16.973896,1.68194887 C15.0015264,-0.316546557 10.7112626,-0.779554953 9.64589507,1.67249972 C8.55173384,4.18597387 11.483894,6.98292255 12.7652144,6.7608675 C14.3968583,6.47739297 12.4772772,2.7922241 12.4772772,2.7922241 C14.9727326,7.42230807 14.3968583,6.00493542 9.88584271,10.2570533 C5.3748271,14.5091713 0.767832444,23.4811401 0.0959790554,23.8591061 C0.0671853388,23.8780044 0.0383916222,23.8921782 0.00479895277,23.9063519 L17.6985378,23.9063519 C18.0104698,23.9063519 18.2120258,23.5803562 18.0728561,23.3063308 L13.4466657,14.2918408 C13.3458877,14.0981332 13.417872,13.8571799 13.6098301,13.7485146 C16.3164394,12.2177522 18.1400415,9.34521028 18.1400415,6.0474566 L18.1400415,6.0474566 Z" transform="translate(2.83 2.865)"/>
    <path fill="url(#rollup-c)" d="M2.92447639,26.7223585 C3.5963039,26.3444094 8.20293634,17.3683019 12.7138398,13.1162264 C17.2247433,8.86415094 17.8004107,10.2816085 15.3051622,5.65174528 C15.3051622,5.65174528 5.75555236,18.8329245 2.30068583,25.3524057"/>
    <path fill="#D14748" d="M3.55122505,14.8824127 C10.0010176,3.20798675 10.8456333,2.03156745 14.2049002,2.03156745 C15.9709148,2.03156745 17.7513263,2.81584698 18.903075,4.20959675 C17.3338174,1.71974547 14.5552238,0.0519703302 11.3735181,0.00472457547 L0.417508891,0.00472457547 C0.187159158,0.00472457547 0,0.188983019 0,0.415762642 L0,22.158259 C0.652657577,20.499933 1.76121567,18.1281961 3.55122505,14.8824127 Z" transform="translate(.718 .03)"/>
    <path fill="url(#rollup-d)" d="M12.7138398,13.1162264 C8.20293634,17.3683019 3.5963039,26.3445283 2.92447639,26.7223585 C2.25264887,27.1001887 1.12494456,27.147566 0.525086242,26.4861382 C-0.113149897,25.7821854 -1.10648871,24.6436429 4.2680883,14.9113741 C10.7177187,3.23727028 11.5620308,2.06090236 14.9211684,2.06090236 C16.6871088,2.06090236 18.4674517,2.84513349 19.6192177,4.23881745 C19.681601,4.33802972 19.7439844,4.44196698 19.8063678,4.5459 C17.8340926,2.54747547 13.5438832,2.08448491 12.4787908,4.53645127 C11.3846778,7.04982863 14.3167004,9.84645127 15.5979591,9.62442297 C17.2295341,9.34096118 15.3100349,5.65593241 15.3100349,5.65593241 C17.8005832,10.2811683 17.2247433,8.86379561 12.7139261,13.1157437 L12.7138398,13.1162264 Z"/>
    <path fill="url(#rollup-e)" d="M4.79593429,15.4311792 C11.2455647,3.75707547 12.0898768,2.58070755 15.4490144,2.58070755 C16.9030164,2.58070755 18.3666345,3.11455189 19.4799795,4.07831604 C18.3282998,2.78384434 16.6199261,2.061 14.9212115,2.061 C11.5620739,2.061 10.7175031,3.23736792 4.26813142,14.9114717 C-1.10648871,24.643783 -0.112977413,25.7823679 0.525129363,26.4862358 C0.616304723,26.5854481 0.721878234,26.6704854 0.832246817,26.7413519 C0.270809446,25.9382292 0.0212673511,24.0720877 4.79602916,15.4310689 L4.79593429,15.4311792 Z" opacity=".3"/>
  </g>
</svg>
