<svg xmlns="http://www.w3.org/2000/svg" width="32" height="32" viewBox="0 0 32 32">
  <path fill="#D14748" fill-rule="evenodd" d="M27.8661023,14.7164287 L26.8549442,14.1031769 C26.8549442,14.0555308 26.848788,14.0071162 26.8364756,13.9579331 C26.8241631,13.90875 26.8180069,13.8603354 26.8180069,13.8126892 L27.6837245,12.9850299 C27.7314352,12.9373838 27.7614467,12.8889692 27.7737591,12.8397861 C27.7860716,12.790603 27.7922278,12.7306611 27.7922278,12.6599603 C27.7676029,12.6123142 27.7375914,12.5638996 27.7021932,12.5147165 C27.6667949,12.4655334 27.624471,12.4294146 27.5752212,12.40636 L26.4578684,12.0098213 C26.4332436,11.9621751 26.4155444,11.9137605 26.4047711,11.8645774 C26.3939977,11.8153943 26.3878415,11.7669797 26.3863024,11.7193336 L27.0719508,10.7464304 C27.0965756,10.6987843 27.1142747,10.6449902 27.1250481,10.5850483 C27.1358215,10.5251064 27.1296653,10.4713124 27.1065795,10.4236663 C27.0834937,10.3760202 27.0473259,10.3276056 26.9980762,10.2784225 C26.9488265,10.2292394 26.8888034,10.2054163 26.8180069,10.2069533 L25.6637168,10.0271276 L25.5182763,9.73894533 L26.0238553,8.69457295 C26.0484802,8.62233528 26.0546364,8.55624549 26.042324,8.49630358 C26.0300115,8.43636168 26.0123124,8.38256767 25.9892266,8.33492154 C25.9661408,8.28727541 25.9238169,8.25115657 25.8622547,8.22656502 C25.8006926,8.20197347 25.7468257,8.1896777 25.7006541,8.1896777 L24.5094267,8.22656502 C24.4848018,8.20197347 24.4547903,8.16585463 24.4193921,8.11820851 C24.3839938,8.07056238 24.3539823,8.03444354 24.3293574,8.00985199 L24.5809927,6.8571231 C24.6056175,6.78488542 24.6056175,6.72494352 24.5809927,6.67729739 L24.5094267,6.53205355 C24.461716,6.48440742 24.4078492,6.45443647 24.3478261,6.44214069 C24.287803,6.42984492 24.2339361,6.42369703 24.1862255,6.42369703 L23.0319354,6.71187926 C22.9842247,6.68728771 22.9419007,6.65731675 22.9049634,6.6219664 C22.8680262,6.58661605 22.8257022,6.5566451 22.7779915,6.53205355 L22.8495575,5.34243733 C22.8495575,5.27019965 22.8318584,5.21025775 22.7964602,5.16261162 C22.7610619,5.11496549 22.718738,5.07884666 22.6694883,5.05425511 C22.6217776,5.00660898 22.5679107,4.98278592 22.5078876,4.98278592 C22.4478646,4.98278592 22.3939977,4.99508169 22.346287,5.01967324 L21.2635629,5.48768117 C21.2158523,5.46308962 21.1735283,5.43926656 21.136591,5.41621198 C21.0996537,5.3931574 21.0573297,5.36933434 21.0096191,5.34474279 L20.8295498,4.19201389 C20.804925,4.14436777 20.7749134,4.09595315 20.7395152,4.04677005 C20.704117,3.99758695 20.661793,3.96146812 20.6125433,3.93841354 C20.5402078,3.91382199 20.4801847,3.90152621 20.432474,3.90152621 C20.3847634,3.90152621 20.3247403,3.92534928 20.2524048,3.9729954 L19.3151212,4.65771637 C19.2674105,4.63312482 19.2189304,4.61544964 19.1696806,4.60469084 C19.1204309,4.59393204 19.0719508,4.58778415 19.0242401,4.58624718 L18.6271643,3.47040561 C18.6025394,3.42275948 18.5663717,3.37434487 18.518661,3.32516177 C18.4709504,3.27597867 18.4109273,3.2521556 18.3385918,3.25369257 C18.2908811,3.22910103 18.2370142,3.22910103 18.1769912,3.25369257 C18.1169681,3.27828412 18.0631012,3.31440296 18.0153905,3.36204909 L17.2212389,4.22659576 C17.1735283,4.22659576 17.1250481,4.22044787 17.0757984,4.2081521 C17.0265487,4.19585632 16.9780685,4.18970844 16.9303578,4.18970844 L16.3162755,3.17991793 C16.2685648,3.1322718 16.2200846,3.09000507 16.1708349,3.05311775 C16.1215852,3.01623042 16.0615621,2.99855525 15.9907657,3.00009222 C15.943055,3.00009222 15.8945748,3.01776739 15.8453251,3.05311775 C15.7960754,3.0884681 15.7475952,3.13073483 15.6998846,3.17991793 L15.0858022,4.18970844 C15.0380916,4.18970844 14.9896114,4.19585632 14.9403617,4.2081521 C14.891112,4.22044787 14.8426318,4.22659576 14.7949211,4.22659576 L13.9661408,3.36204909 C13.941516,3.31440296 13.899192,3.27828412 13.8391689,3.25369257 C13.7791458,3.22910103 13.725279,3.22910103 13.6775683,3.25369257 C13.6052328,3.25369257 13.5452097,3.27751564 13.497499,3.32516177 C13.4497884,3.37280789 13.4136206,3.42122251 13.3889958,3.47040561 L12.99192,4.58624718 C12.9442093,4.58624718 12.8957291,4.59239506 12.8464794,4.60469084 C12.7972297,4.61698661 12.7487495,4.63466179 12.7010389,4.65771637 L11.726818,3.9729954 C11.6791073,3.92534928 11.6252405,3.90152621 11.5652174,3.90152621 C11.5051943,3.90152621 11.4513274,3.91382199 11.4036168,3.93841354 C11.3559061,3.96300509 11.3135821,3.99912393 11.2766449,4.04677005 C11.2397076,4.09441618 11.209696,4.14283079 11.1866102,4.19201389 L11.006541,5.34474279 C10.9588303,5.36933434 10.9165063,5.3931574 10.8795691,5.41621198 C10.8426318,5.43926656 10.8003078,5.46308962 10.7525972,5.48768117 L9.66987303,5.01967324 C9.62216237,4.99508169 9.5682955,4.98278592 9.50827241,4.98278592 C9.44824933,4.98278592 9.39438245,5.00660898 9.3466718,5.05425511 C9.29896114,5.07884666 9.25663717,5.11496549 9.21969988,5.16261162 C9.1827626,5.21025775 9.16506349,5.27019965 9.16660254,5.34243733 L9.23816853,6.53205355 C9.19045787,6.5566451 9.1481339,6.58661605 9.11119661,6.6219664 C9.07425933,6.65731675 9.03193536,6.68728771 8.9842247,6.71187926 L7.82993459,6.42369703 C7.78222393,6.42369703 7.72835706,6.42984492 7.66833397,6.44214069 C7.60831089,6.45443647 7.55444402,6.48440742 7.50673336,6.53205355 C7.4590227,6.57969968 7.42901116,6.62811429 7.41669873,6.67729739 C7.4043863,6.72648049 7.41054252,6.78642239 7.43516737,6.8571231 L7.68680262,8.00985199 C7.66217776,8.03444354 7.63216622,8.07056238 7.59676799,8.11820851 C7.56136976,8.16585463 7.53135821,8.20197347 7.50673336,8.22656502 L6.31550596,8.1896777 C6.26779531,8.1896777 6.21392843,8.20197347 6.15390535,8.22656502 C6.09388226,8.25115657 6.05155829,8.28727541 6.02693344,8.33492154 C5.97922278,8.38256767 5.95536745,8.43636168 5.95536745,8.49630358 C5.95536745,8.55624549 5.96767988,8.62233528 5.99230473,8.69457295 L6.4978838,9.73894533 L6.35244325,10.0271276 L5.16121585,10.2069533 C5.11350519,10.2069533 5.06502501,10.2307763 5.0157753,10.2784225 C4.96652559,10.3260686 4.93035783,10.3744832 4.90727203,10.4236663 C4.88418623,10.4728494 4.87803001,10.5266434 4.88880339,10.5850483 C4.89957676,10.6434533 4.91727588,10.6972473 4.94190073,10.7464304 L5.62754906,11.7193336 C5.62754906,11.7669797 5.61523663,11.8153943 5.59061177,11.8645774 C5.56598692,11.9137605 5.55367449,11.9621751 5.55367449,12.0098213 L4.43632166,12.40636 C4.388611,12.4309515 4.34628703,12.4670704 4.30934975,12.5147165 C4.27241247,12.5623626 4.24240092,12.6107772 4.21931512,12.6599603 C4.21931512,12.732198 4.22547134,12.7921399 4.23778376,12.8397861 C4.25009619,12.8874322 4.28010773,12.9358468 4.32781839,12.9850299 L5.19353598,13.8126892 C5.19353598,13.8603354 5.18737976,13.90875 5.17506733,13.9579331 C5.16275491,14.0071162 5.15659869,14.0555308 5.15659869,14.1031769 L4.14544055,14.7164287 C4.0977299,14.7410202 4.06156214,14.783287 4.03693728,14.8432289 C4.01231243,14.9031708 4,14.9569648 4,15.0046109 C4,15.0768486 4.01231243,15.1367905 4.03693728,15.1844366 C4.06156214,15.2320828 4.0977299,15.2682016 4.14544055,15.2927931 L5.15659869,15.9406268 C5.15659869,15.9882729 5.16275491,16.0366875 5.17506733,16.0858706 C5.18737976,16.1350537 5.19353598,16.1834683 5.19353598,16.2311145 L4.32781839,17.0241919 C4.28010773,17.0718381 4.25009619,17.1256321 4.23778376,17.185574 C4.22547134,17.2455159 4.21931512,17.2993099 4.21931512,17.346956 C4.24393998,17.4191937 4.27395152,17.4729877 4.30934975,17.5083381 C4.34474798,17.5436884 4.38707195,17.5736594 4.43632166,17.5982509 L5.55367449,18.031677 C5.55367449,18.0793231 5.56598692,18.1277377 5.59061177,18.1769208 C5.61523663,18.2261039 5.62754906,18.2745185 5.62754906,18.3221647 L4.94190073,19.2581805 C4.91727588,19.3058267 4.89957676,19.3596207 4.88880339,19.4195626 C4.87803001,19.4795045 4.88418623,19.5332985 4.90727203,19.5809446 C4.93189688,19.6531823 4.96806464,19.7069763 5.0157753,19.7423267 C5.06348596,19.777677 5.11196614,19.7953522 5.16121585,19.7953522 L6.35244325,20.0120652 C6.3770681,20.0366568 6.40092343,20.0727756 6.42400923,20.1204217 L6.49557522,20.2656656 L5.98999615,21.3469253 C5.9653713,21.3945714 5.95305887,21.4483654 5.95305887,21.5083073 C5.95305887,21.5682492 5.9769142,21.6220433 6.02462486,21.6696894 C6.04924971,21.7173355 6.09157368,21.7534543 6.15159677,21.7780459 C6.21161985,21.8026374 6.26548673,21.8149332 6.31319738,21.8149332 L7.50442478,21.7780459 C7.52904963,21.825692 7.55906118,21.8679587 7.59445941,21.9048461 L7.68449404,21.9947589 L7.43285879,23.1474878 C7.40823394,23.2197255 7.40207772,23.2858153 7.41439015,23.3457572 C7.42670258,23.4056991 7.45671412,23.4479658 7.50442478,23.4725574 C7.55213544,23.5202035 7.60600231,23.5563223 7.66602539,23.5809139 C7.72604848,23.6055054 7.77991535,23.6055054 7.82762601,23.5809139 L8.98191612,23.2927317 C9.02962678,23.3403778 9.07195075,23.3764966 9.10888803,23.4010882 C9.14582532,23.4256797 9.17583686,23.4617986 9.19892266,23.5094447 L9.16198538,24.6621736 C9.16198538,24.7344113 9.17968449,24.7943532 9.21508272,24.8419993 C9.25048095,24.8896454 9.29280492,24.93806 9.34205464,24.9872431 C9.38976529,25.0118347 9.44363217,25.0295099 9.50365525,25.0402687 C9.56367834,25.0510275 9.61754521,25.0448796 9.66525587,25.021825 L10.74798,24.5169297 C10.7956907,24.5415213 10.8380146,24.5653444 10.8749519,24.5883989 C10.9118892,24.6114535 10.9542132,24.6352766 11.0019238,24.6598681 L11.1819931,25.812597 C11.2066179,25.8848347 11.2366295,25.9447766 11.2720277,25.9924227 C11.3074259,26.0400689 11.3497499,26.0761877 11.3989996,26.1007792 L11.5606002,26.1007792 C11.5606002,26.1007792 11.6144671,26.0769562 11.7222008,26.0293101 L12.6964217,25.3445891 C12.7441324,25.3691806 12.7926125,25.3868558 12.8418623,25.3976146 C12.891112,25.4083734 12.9395922,25.4260486 12.9873028,25.4506401 L13.3843786,26.5318999 C13.4090035,26.6041375 13.4451712,26.6579315 13.4928819,26.6932819 C13.5405925,26.7286322 13.6006156,26.7463074 13.6729511,26.7463074 C13.7206618,26.770899 13.7745287,26.770899 13.8345518,26.7463074 C13.8945748,26.7217159 13.9368988,26.6978928 13.9615237,26.6748382 L14.790304,25.8102916 L15.0788765,25.8102916 L15.6929588,26.8200821 C15.7406695,26.8677282 15.7891497,26.9099949 15.8383994,26.9468823 C15.8876491,26.9837696 15.9361293,27.0014448 15.9838399,26.9999078 C16.0561755,26.9999078 16.1161985,26.9822326 16.1639092,26.9468823 C16.2116199,26.9115319 16.2601,26.8692652 16.3093497,26.8200821 L16.9234321,25.8102916 L17.2120046,25.8102916 L18.0061562,26.6748382 C18.0538669,26.6994298 18.1077337,26.7232528 18.1677568,26.7463074 C18.2277799,26.769362 18.2816468,26.769362 18.3293574,26.7463074 C18.401693,26.7463074 18.461716,26.7286322 18.5094267,26.6932819 C18.5571374,26.6579315 18.5809927,26.6041375 18.5809927,26.5318999 L19.0150058,25.4506401 C19.0627164,25.4260486 19.1111966,25.4083734 19.1604463,25.3976146 C19.209696,25.3868558 19.2581762,25.3691806 19.3058869,25.3445891 L20.2431705,26.0293101 C20.315506,26.0769562 20.375529,26.1007792 20.4232397,26.1007792 L20.603309,26.1007792 C20.6510196,26.0761877 20.6933436,26.0400689 20.7302809,25.9924227 C20.7672182,25.9447766 20.7972297,25.8848347 20.8203155,25.812597 L21.0003848,24.6598681 C21.0480954,24.6352766 21.0904194,24.6114535 21.1273567,24.5883989 C21.164294,24.5653444 21.2066179,24.5415213 21.2543286,24.5169297 L22.3370527,25.021825 C22.3847634,25.0464166 22.4386302,25.0525644 22.4986533,25.0402687 C22.5586764,25.0279729 22.6125433,25.0102977 22.6602539,24.9872431 C22.7079646,24.939597 22.7502886,24.8911824 22.7872259,24.8419993 C22.8241631,24.7928162 22.8418623,24.7328743 22.8403232,24.6621736 L22.7687572,23.5094447 C22.8164679,23.4617986 22.8587918,23.4256797 22.8957291,23.4010882 C22.9326664,23.3764966 22.9749904,23.3403778 23.022701,23.2927317 L24.1769912,23.5809139 C24.2247018,23.6055054 24.2785687,23.6055054 24.3385918,23.5809139 C24.3986149,23.5563223 24.4524817,23.5202035 24.5001924,23.4725574 C24.5248172,23.4479658 24.5486726,23.4056991 24.5717584,23.3457572 C24.5948442,23.2858153 24.5948442,23.2197255 24.5717584,23.1474878 L24.3201231,21.9947589 L24.4101578,21.9048461 C24.4101578,21.9048461 24.4401693,21.8625793 24.5001924,21.7780459 L25.6914198,21.8149332 C25.7391304,21.8149332 25.7929973,21.8026374 25.8530204,21.7780459 C25.9130435,21.7534543 25.9553674,21.7173355 25.9799923,21.6696894 C26.0046172,21.6220433 26.0223163,21.5682492 26.0330896,21.5083073 C26.043863,21.4483654 26.0377068,21.3945714 26.014621,21.3469253 L25.5090419,20.2656656 L25.5806079,20.1204217 C25.5806079,20.1204217 25.6044633,20.0843029 25.6521739,20.0120652 L26.806464,19.7953522 C26.8787995,19.7953522 26.9388226,19.777677 26.9865333,19.7423267 C27.0342439,19.7069763 27.0704117,19.6531823 27.0950366,19.5809446 C27.1196614,19.5332985 27.1258176,19.4795045 27.1135052,19.4195626 C27.1011928,19.3596207 27.0834937,19.3058267 27.0604078,19.2581805 L26.3747595,18.3221647 C26.3747595,18.2745185 26.3809157,18.2261039 26.3932282,18.1769208 C26.4055406,18.1277377 26.4232397,18.0793231 26.4463255,18.031677 L27.5636783,17.5982509 C27.611389,17.5736594 27.653713,17.5436884 27.6906503,17.5083381 C27.7275875,17.4729877 27.7575991,17.4191937 27.7806849,17.346956 C27.7806849,17.2993099 27.7745287,17.2455159 27.7622162,17.185574 C27.7499038,17.1256321 27.7198923,17.0718381 27.6721816,17.0241919 L26.806464,16.2311145 L26.806464,16.0858706 C26.806464,16.0858706 26.8187765,16.037456 26.8434013,15.9406268 L27.8545594,15.2927931 C27.9022701,15.2682016 27.9384379,15.2320828 27.9630627,15.1844366 C27.9876876,15.1367905 28,15.0768486 28,15.0046109 C28,14.9569648 27.9876876,14.9031708 27.9630627,14.8432289 C27.9384379,14.783287 27.9022701,14.7410202 27.8545594,14.7164287 L27.8545594,14.7164287 L27.8661023,14.7164287 Z M21.1204309,23.0737132 C20.9280492,23.026067 20.7779915,22.9177105 20.6702578,22.7486436 C20.562524,22.5795767 20.5202001,22.399751 20.5432859,22.2091665 C20.5909965,22.017045 20.6994998,21.8671903 20.8687957,21.7596022 C21.0380916,21.6520142 21.2181608,21.6220433 21.4090035,21.6696894 C21.5998461,21.7173355 21.7499038,21.8195441 21.8591766,21.9763153 C21.9684494,22.1330864 21.9984609,22.31906 21.9492112,22.534236 C21.9015006,22.7263575 21.7991535,22.8708329 21.6421701,22.9676621 C21.4851866,23.0644913 21.310504,23.1006102 21.1181224,23.0760186 L21.1181224,23.0760186 L21.1204309,23.0737132 Z M20.7602924,20.7682554 C20.5925356,20.7206093 20.4301654,20.7444323 20.273182,20.8397246 C20.1161985,20.9350168 20.0261639,21.0671964 20.0030781,21.2362633 L19.6429396,22.9284693 C19.0904194,23.1682369 18.5071181,23.3542105 17.8930358,23.4863901 C17.2789534,23.6185697 16.6479415,23.6846595 16,23.6846595 C15.3520585,23.6846595 14.7148903,23.6185697 14.0884956,23.4863901 C13.4621008,23.3542105 12.8726433,23.1559412 12.3201231,22.891582 L11.9599846,21.199376 C11.912274,21.0318461 11.8160831,20.8996665 11.6714121,20.8028373 C11.5267411,20.706008 11.3705271,20.682185 11.2027703,20.7313681 L9.72297037,21.0195503 C9.57829935,20.8750749 9.44594075,20.7305996 9.32589457,20.5861242 C9.2058484,20.4416489 9.08580223,20.2856462 8.96575606,20.1181163 L16.2170065,20.1181163 C16.2170065,20.1181163 16.229319,20.0942932 16.2539438,20.0466471 L16.2539438,17.5244763 C16.2539438,17.4768301 16.2416314,17.4468592 16.2170065,17.4345634 C16.1923817,17.4222676 16.1685264,17.4161198 16.1454406,17.4161198 L14.0169296,17.4161198 L14.0169296,15.8299648 L16.2885725,15.8299648 C16.4086187,15.8299648 16.6371681,15.8837588 16.9742209,15.9913468 C17.3112736,16.0989349 17.5521354,16.4409111 17.6968065,17.0172756 C17.7445171,17.1848055 17.8106964,17.4906629 17.8953444,17.9348478 C17.9799923,18.3790326 18.058484,18.6971858 18.1308195,18.8893073 C18.1785302,19.1060203 18.3285879,19.3642316 18.5809927,19.6639411 C18.8333975,19.9636506 19.1042709,20.1135054 19.3936129,20.1135054 L23.0734898,20.1135054 C22.9534436,20.2810353 22.8272412,20.4431858 22.6948826,20.599957 C22.562524,20.7567281 22.4240092,20.9188786 22.2793382,21.0864086 L20.7649096,20.761339 L20.7602924,20.7682554 Z M10.8403232,23.0368258 C10.6479415,23.0614174 10.4678723,23.0252986 10.3001154,22.9284693 C10.1323586,22.8316401 10.0361678,22.6871647 10.0115429,22.4950433 C9.96383224,22.3029218 9.99384379,22.1230961 10.1015775,21.9555661 C10.2093113,21.7880362 10.359369,21.6796797 10.5517507,21.6304966 C10.7441324,21.5813135 10.9242016,21.6112844 11.0919584,21.7204094 C11.2597153,21.8295345 11.3559061,21.9793892 11.380531,22.1699737 C11.4282416,22.3620952 11.3982301,22.5419209 11.2904963,22.7094508 C11.1827626,22.8769808 11.0327049,22.9853373 10.8403232,23.0345204 L10.8403232,23.0345204 L10.8403232,23.0368258 Z M8.13466718,12.0144322 C8.20700269,12.1819621 8.20700269,12.3617878 8.13466718,12.5539093 C8.06233167,12.7460308 7.94228549,12.8782103 7.77452866,12.950448 C7.58214698,13.0226857 7.39592151,13.0226857 7.21585225,12.950448 C7.03578299,12.8782103 6.90958061,12.7583265 6.83724509,12.5907966 C6.74028472,12.3986751 6.7279723,12.2127015 6.80030781,12.0328758 C6.87264332,11.8530501 7.00500192,11.7270184 7.19738361,11.6547808 C7.36514044,11.5825431 7.53982301,11.5763952 7.72143132,11.6363371 C7.90303963,11.696279 8.04155444,11.8223107 8.13697576,12.0144322 L8.13697576,12.0144322 L8.13466718,12.0144322 Z M7.30588688,13.9948204 L8.82031551,13.3100994 C8.98807234,13.2378618 9.10196229,13.117978 9.16198538,12.950448 C9.22200846,12.7829181 9.21585225,12.6146197 9.14351674,12.4455528 L8.85494421,11.7239445 L10.0808003,11.7239445 L10.0808003,17.3446506 L7.55521354,17.3446506 C7.45825317,16.9604076 7.37976145,16.5638689 7.31973836,16.1550344 C7.25971528,15.7461998 7.22970373,15.3381338 7.22970373,14.9308363 C7.22970373,14.7633063 7.23585995,14.6011558 7.24817237,14.4443847 C7.2604848,14.2876135 7.27818392,14.1377588 7.30126972,13.9948204 L7.30126972,13.9948204 L7.30588688,13.9948204 Z M14.014621,13.4553433 L14.014621,11.7977191 L16.9719123,11.7977191 C17.0688726,11.7977191 17.2735668,11.857661 17.5859946,11.9775448 C17.8984225,12.0974286 18.0546364,12.325669 18.0546364,12.6622658 C18.0546364,12.9512165 17.9161216,13.1556338 17.639092,13.2755176 C17.3620623,13.3954014 17.0673336,13.4553433 16.7549057,13.4553433 L14.0123124,13.4553433 L14.014621,13.4553433 Z M24.8003078,14.9308363 C24.8003078,15.0507201 24.7941516,15.164456 24.7818392,15.272044 C24.7695267,15.379632 24.7633705,15.4818407 24.7633705,15.5786699 L23.8607157,15.5786699 C23.813005,15.5786699 23.7829935,15.5909657 23.770681,15.6155572 C23.7583686,15.6401488 23.7522124,15.6762676 23.7522124,15.7239137 L23.7522124,16.1573398 C23.7522124,16.638412 23.6383224,16.9565652 23.4105425,17.1117993 C23.1827626,17.2670335 22.9480569,17.3569463 22.7064255,17.3815379 C22.489419,17.4061294 22.273182,17.3700106 22.0577145,17.2731814 C21.842247,17.1763522 21.7222008,17.0564683 21.697576,16.91353 C21.552905,16.145044 21.3666795,15.6224736 21.1388996,15.3458187 C20.9111197,15.0691637 20.6163909,14.7871294 20.2547134,14.4997157 C20.6871874,14.2353565 21.0958061,13.8933803 21.4805694,13.4737869 C21.8653328,13.0541936 22.0577145,12.567742 22.0577145,12.0144322 C22.0577145,11.4134762 21.8953444,10.9270246 21.5706041,10.5550774 C21.2458638,10.1831302 20.9511351,9.90109586 20.6864179,9.70897438 C20.2770296,9.44461522 19.88611,9.2763168 19.5136591,9.20407912 C19.1412082,9.13184145 18.8949596,9.09572261 18.7749134,9.09572261 L9.46902655,9.09572261 C10.0938823,8.37488281 10.8272412,7.7746953 11.6691035,7.29516008 C12.5109658,6.81562486 13.4128511,6.49132379 14.3747595,6.32225689 L15.4921124,7.47498578 C15.6121585,7.59486959 15.7622162,7.66095938 15.9422855,7.67325515 C16.1223548,7.68555093 16.2724125,7.61946114 16.3924586,7.47498578 L17.6183147,6.32225689 C18.9172759,6.5620245 20.0892651,7.06000338 21.1342824,7.81619354 C22.1792997,8.57238369 23.0150058,9.49072437 23.6414005,10.5712156 L22.8126202,12.4801346 C22.7156599,12.6476646 22.7033474,12.815963 22.775683,12.9850299 C22.8480185,13.1540968 22.9680646,13.2739806 23.1358215,13.3446813 L24.7587534,14.0662896 C24.7587534,14.210765 24.7649096,14.3552403 24.777222,14.4997157 C24.7895344,14.644191 24.7956907,14.7886664 24.7956907,14.9331417 L24.7956907,14.9331417 L24.8003078,14.9308363 Z M15.4944209,5.3493537 C15.639092,5.20487835 15.8076183,5.13264067 16,5.13264067 C16.1923817,5.13264067 16.360908,5.20487835 16.5055791,5.3493537 C16.6256252,5.49382906 16.6856483,5.66827536 16.6856483,5.87269262 C16.6856483,6.07710988 16.6133128,6.23926041 16.4686418,6.35914421 C16.3239708,6.50361957 16.1554444,6.57585725 15.9630627,6.57585725 C15.770681,6.57585725 15.6021547,6.50361957 15.4574836,6.35914421 C15.3128126,6.21466886 15.2466333,6.04022255 15.2589457,5.8358053 C15.2712582,5.63138804 15.3497499,5.46923751 15.4944209,5.3493537 L15.4944209,5.3493537 L15.4944209,5.3493537 Z M23.826087,12.049014 C23.8984225,11.8568926 24.0307811,11.724713 24.2231628,11.6524753 C24.4155444,11.5802376 24.5956137,11.5925334 24.7633705,11.6893626 C24.9557522,11.7616003 25.0819546,11.887632 25.1419777,12.0674577 C25.2020008,12.2472834 25.1958446,12.433257 25.123509,12.6253785 C25.0511735,12.7929084 24.9249711,12.9127922 24.7449019,12.9850299 C24.5648326,13.0572676 24.3786072,13.0572676 24.1862255,12.9850299 C24.0184686,12.9127922 23.8984225,12.7806126 23.826087,12.5884912 C23.7537514,12.3963697 23.7537514,12.216544 23.826087,12.049014 L23.826087,12.049014 L23.826087,12.049014 Z"/>
</svg>
