<svg xmlns="http://www.w3.org/2000/svg" width="32" height="32" viewBox="0 0 32 32">
  <path fill="#B8E15E" fill-rule="evenodd" d="M10,6.30751108 L11.9395178,6.08589951 C11.9395178,6.08589951 13.3586095,5.86873127 16.1967928,5.4343948 C19.0349761,5.00005834 20.4540678,4.65292241 20.4540678,4.39298703 C20.4540678,4.13305165 21.1005737,3.66872264 22.3935856,3 L22.3935856,7.94710347 L20.8439708,9.13180895 L10,11.2529483 L10,6.30584483 L10,6.30751108 Z M10.0533201,12.8942069 L11.9928379,12.6725954 C11.9928379,12.6725954 13.4119296,12.4554271 16.2501129,12.0210907 C19.0882962,11.5867542 20.5073878,11.2396183 20.5073878,10.9796829 C20.5073878,10.7197475 21.1538938,10.2643052 22.4469057,9.6133559 L22.4469057,14.5604594 L20.8972909,15.7451649 C20.8972909,15.7451649 17.282634,16.44388 10.0533201,17.8413104 L10.0533201,12.8942069 L10.0533201,12.8942069 Z M10.0533201,19.5075628 L11.9928379,19.2859513 C11.9928379,19.2859513 13.4119296,19.068783 16.2501129,18.6344466 C19.0882962,18.2001101 20.5073878,17.8529742 20.5073878,17.5930388 C20.5073878,17.3331034 21.1538938,16.8687744 22.4469057,16.2000518 L22.4469057,21.1471552 L20.8972909,22.3318607 L10.0533201,24.4530001 L10.0533201,19.5058966 L10.0533201,19.5075628 Z"/>
</svg>
