<svg xmlns="http://www.w3.org/2000/svg" width="33" height="32" viewBox="0 0 33 32">
  <g fill="none" fill-rule="evenodd" transform="translate(3 4)">
    <path fill="#3965BD" d="M0.586956522,9.50285388 L0.586956522,12.9691271 L10.2998397,21.8353518 L10.2998397,17.5538685 L2.96393508,11.2343601 L2.96393508,11.133274 L10.2998397,4.81376557 L10.2998397,0.636629182 L0.586956522,9.50285388 Z M26.4130435,13.0669523 L26.4130435,9.39850699 L16.7001603,0.633368342 L16.7001603,4.81050473 L24.2410339,11.1300132 L24.2410339,11.2310992 L16.7001603,17.5506077 L16.7001603,21.832091 L26.4130435,13.0669523 Z"/>
    <path fill="#AA759F" d="M15.4786855,13.6188322 C15.4786855,13.2343731 15.3411189,12.9392486 15.0659817,12.7334498 C14.7908444,12.5276511 14.2956048,12.310548 13.580248,12.082134 C12.8648911,11.8537201 12.2985755,11.6287018 11.881284,11.4070724 C10.74405,10.8009838 10.1754416,9.98458573 10.1754416,8.95785362 C10.1754416,8.42413384 10.3279112,7.94809009 10.632855,7.52970806 C10.9377987,7.11132603 11.375719,6.78454065 11.9466287,6.54934211 C12.5175385,6.31414356 13.1583694,6.19654605 13.8691406,6.19654605 C14.5844975,6.19654605 15.2218892,6.32432027 15.7813349,6.57987253 C16.3407807,6.8354248 16.7752617,7.19613254 17.0847911,7.66200658 C17.3943205,8.12788062 17.5490829,8.65706941 17.5490829,9.24958882 L15.4855639,9.24958882 C15.4855639,8.79728392 15.341119,8.44562214 15.0522249,8.19459293 C14.7633308,7.94356371 14.3575094,7.81805099 13.8347486,7.81805099 C13.3303304,7.81805099 12.9382657,7.9232103 12.6585428,8.13353207 C12.3788199,8.34385385 12.2389606,8.62088644 12.2389606,8.96463816 C12.2389606,9.28577463 12.4028941,9.55489201 12.730766,9.77199836 C13.0586378,9.9891047 13.5412672,10.1926389 14.1786685,10.3826069 C15.3525874,10.7308817 16.2077928,11.1628264 16.7443105,11.6784539 C17.2808281,12.1940815 17.5490829,12.8363448 17.5490829,13.6052632 C17.5490829,14.4601194 17.2212159,15.1306514 16.5654721,15.6168791 C15.9097284,16.1031069 15.0270096,16.3462171 13.9172894,16.3462171 C13.1469051,16.3462171 12.4453157,16.2071354 11.8125,15.9289679 C11.1796843,15.6508004 10.697055,15.2697393 10.3645975,14.785773 C10.03214,14.3018068 9.86591372,13.7409571 9.86591372,13.1032072 L11.9363111,13.1032072 C11.9363111,14.193262 12.5966306,14.7382812 13.9172894,14.7382812 C14.4079508,14.7382812 14.7908444,14.6399064 15.0659817,14.4431538 C15.3411189,14.2464012 15.4786855,13.9716301 15.4786855,13.6188322 Z"/>
  </g>
</svg>
