<svg xmlns="http://www.w3.org/2000/svg" width="33" height="32" viewBox="0 0 33 32">
  <g fill="none" fill-rule="evenodd">
    <g fill="#B3D107" stroke="#B3D107" transform="translate(6 4)">
      <path d="M20.0258449.570726622C20.223455.570726622 20.3846537.620279858 20.5101644.719024628 20.6350724.817769398 20.7206753.949670227 20.7669732 1.11436541 20.81303 1.27906059 20.81942 1.46690474 20.7867463 1.6776567 20.7537108 1.8886498 20.678115 2.09940176 20.5594766 2.31003316 20.5329517 2.33643744 20.5001573 2.33643744 20.4606112 2.31003316 20.4211856 2.28362888 20.3946608 2.25083452 20.3816395 2.21128839 20.4079232 2.05310385 20.3521005 1.92144415 20.2135684 1.8159476 20.0752775 1.71069219 19.8609085 1.65776306 19.5713054 1.65776306 19.030922 1.65776306 18.4875243 1.85874906 17.9408713 2.26060049 17.3939772 2.66269305 16.8636009 3.19318998 16.3498628 3.85160902 15.8360042 4.51063089 15.3549399 5.26827696 14.9071523 6.12454724 14.459003 6.98105865 14.0702934 7.86385378 13.7410236 8.77281204 13.4116332 9.68189088 13.1512074 10.5844591 12.9603491 11.480396 12.7693702 12.3765742 12.6740013 13.1932983 12.6740013 13.9312919 12.6740013 14.326271 12.7857674 14.5241222 13.0100229 14.5241222 13.1680869 14.5241222 13.322775 14.4581718 13.4743283 14.326271 13.6256405 14.1947318 13.8005839 13.9972423 13.998194 13.7334406 14.0376196 13.7073981 14.0737898 13.7106534 14.1067048 13.7434477 14.1394991 13.7766038 14.1493857 13.8192847 14.1364849 13.8717315 13.8726833 14.2670723 13.5633071 14.5964627 13.2075125 14.8599026 12.8518384 15.1237043 12.5287175 15.2552434 12.2391144 15.2552434 11.9886958 15.2552434 11.8142346 15.1827824 11.7154898 15.0377397 11.6167451 14.8929381 11.5671918 14.708711 11.5671918 14.4844555 11.5671918 13.8652209 11.698731 13.0909365 11.9625326 12.1623257 12.2259726 11.2333533 12.5781502 10.2519339 13.0199095 9.21746493 13.461307 8.18323704 13.9717898 7.15226448 14.5515988 6.12454724 15.1312873 5.09683 15.7341247 4.17135399 16.3601111 3.34787807 16.9857357 2.52440215 17.615098 1.85561431 18.2474745 1.34163512 18.8794892.827655932 19.4723195.570726622 20.0258449.570726622L20.0258449.570726622zM1.47821199 24.8562734C1.28048132 24.8562734 1.11928259 24.8068407.993892407 24.7080959.868863926 24.6093512.783261011 24.4774503.736963097 24.3127552.691026886 24.1478188.684516241 23.9602158.71719003 23.7494639.750346088 23.5384708.825941901 23.3278394.944459739 23.1170874.970984585 23.090442 1.00377894 23.090442 1.04332508 23.1170874 1.08275064 23.1432506 1.10927549 23.176286 1.12229678 23.2158322 1.09613363 23.3740167 1.15195638 23.5056764 1.29036785 23.611173 1.42865876 23.7163078 1.64290718 23.7691164 1.93263084 23.7691164 2.47301431 23.7691164 3.01653253 23.5681304 3.56318551 23.1662789 4.10995905 22.7645481 4.64033542 22.2341717 5.15419404 21.5756321 5.66805266 20.9166102 6.14911692 20.1590847 6.59690456 19.3026939 7.04493333 18.4461825 7.43376347 17.5633874 7.76291271 16.6543085 8.09230307 15.7452297 8.35272884 14.8426615 8.54370774 13.9467245 8.73468663 13.0505464 8.83005551 12.2338223 8.83005551 11.4959493 8.83005551 11.1006085 8.71828945 10.9031189 8.49403393 10.9031189 8.33584939 10.9031189 8.18116131 10.9687076 8.02972855 11.1006085 7.87841636 11.2321476 7.70347294 11.4299988 7.50586283 11.6936799 7.46643726 11.7197225 7.43026701 11.7164672 7.39735209 11.6836728 7.36455774 11.6505168 7.3546712 11.6077153 7.36757192 11.5550273 7.63137358 11.1600482 7.94074975 10.8302962 8.29654439 10.5668562 8.65221847 10.3034163 8.97521876 10.1718771 9.26494243 10.1718771 9.5153611 10.1718771 9.68982225 10.2439765 9.78856702 10.3890192 9.88731179 10.5340619 9.93686502 10.7184095 9.93686502 10.9426651 9.93686502 11.5618997 9.8053259 12.3358224 9.54152424 13.2647948 9.27808429 14.1937673 8.92590666 15.1751866 8.4841474 16.2096556 8.04274984 17.2438835 7.53226711 18.2748561 6.95245807 19.3025733 6.37276961 20.3302906 5.76993218 21.2557666 5.14406637 22.0792425 4.51844169 22.9027184 3.88907942 23.5715063 3.25658239 24.0852443 2.62444707 24.5992235 2.03161675 24.8562734 1.47821199 24.8562734L1.47821199 24.8562734z"/>
    </g>
  </g>
</svg>
