<svg xmlns="http://www.w3.org/2000/svg" width="33" height="32" viewBox="0 0 33 32">
  <g fill="#78909C" transform="translate(4 4)">
    <path d="M13.1770146,24.8768354 C16.0204175,14.6793671 15.9379369,14.6332911 17.9933252,7.36227848 L18.4875777,7.6485443 C18.7560971,7.80411392 18.9758981,7.67689873 18.9758981,7.36658228 L18.9758981,3.89911392 C19.5213301,1.98329114 19.9487524,0.502911392 20.0739563,0.0577848101 L22.3008058,0.0577848101 L26,3.49474684 L23.5705146,5.60044304 L25.4075534,7.59240506 L13.2998835,24.8768354 C13.2406893,24.9744304 13.1582718,24.9521519 13.1770146,24.8768354 Z M14.499733,2.89721519 C14.6090971,2.89721519 14.6983932,2.9578481 14.6983932,3.03310127 L14.6983932,4.81012658 C14.6983932,4.88518987 14.6090971,4.94620253 14.4997961,4.94620253 L11.5087864,4.94620253 C11.3988544,4.94620253 11.3098107,4.88544304 11.3098107,4.81012658 L11.3098107,3.03310127 C11.3098107,2.95810127 11.3987913,2.89721519 11.5087864,2.89721519 L14.4997961,2.89721519 L14.499733,2.89721519 Z"/>
    <path d="M18.1914806,0.929620253 L14.9010922,2.83468354 C14.9392718,2.89291139 14.9624951,2.96 14.9624951,3.03316456 L14.9624951,4.81025316 C14.9624951,4.90246835 14.9268398,4.98556962 14.8680874,5.05265823 L18.1914806,6.97683544 C18.418034,7.10803797 18.6038835,7.0006962 18.6038835,6.73860759 L18.6038835,1.16810127 C18.6038835,0.905759494 18.4180971,0.798734177 18.1914806,0.929620253 Z M11.0455825,4.81012658 L11.0455825,3.03310127 C11.0455825,2.96031646 11.0688058,2.89322785 11.1065437,2.835 L7.81615534,0.929620253 C7.58972816,0.798734177 7.40406796,0.905822785 7.40406796,1.16810127 L7.40406796,6.7385443 C7.40406796,7.00056962 7.58947573,7.10816456 7.81615534,6.97651899 L11.1393592,5.0521519 C11.0809223,4.98506329 11.0455194,4.9021519 11.0455194,4.80993671 L11.0455825,4.81012658 Z"/>
    <path d="M12.7001165,24.8768354 L12.8229854,24.8768354 C9.98002427,14.6793671 10.0618738,14.6332911 8.00667476,7.36227848 L7.51235922,7.6485443 C7.24396602,7.80411392 7.02410194,7.67689873 7.02410194,7.36658228 L7.02410194,3.89911392 C6.47854369,1.98329114 6.05131068,0.502911392 5.92572816,0.0577848101 L3.69913107,0.0577848101 L0,3.49474684 L2.42923301,5.60044304 L0.592194175,7.59240506 L12.7001165,24.8768354 Z"/>
    <ellipse cx="12.91" cy="7.756" rx="1" ry="1"/>
    <ellipse cx="12.91" cy="13.111" rx="1" ry="1"/>
    <ellipse cx="12.91" cy="18.467" rx="1" ry="1"/>
  </g>
</svg>
