<svg xmlns="http://www.w3.org/2000/svg" width="33" height="32" viewBox="0 0 33 32">
  <g fill="none" fill-rule="evenodd">
    <g fill="#B3D107" stroke="#B3D107" stroke-width="1.095" transform="translate(5 2)">
      <path d="M21.9330682.616384752C22.1494983.616384752 22.3260493.669902247 22.4635134.776546598 22.6003174.88319095 22.6940729 1.02564384 22.7447802 1.20351464 22.7952233 1.38138544 22.802222 1.58425712 22.7664364 1.81186924 22.7302547 2.03974178 22.6474592 2.2673539 22.5175219 2.49483581 22.4884709 2.52335243 22.4525533 2.52335243 22.4092409 2.49483581 22.3660605 2.46631919 22.3370094 2.43090128 22.322748 2.38819146 22.351535 2.21735215 22.2903958 2.07515969 22.1386702 1.96122341 21.9872087 1.84754757 21.7524236 1.79038411 21.4352393 1.79038411 20.8433907 1.79038411 20.2482409 2.00744899 19.6495258 2.44144853 19.0505465 2.87570849 18.4696581 3.44864518 17.9069926 4.15973774 17.3441951 4.87148136 16.8173152 5.68973912 16.3268811 6.61451102 15.8360509 7.53954334 15.4103213 8.49296208 15.0496925 9.47463701 14.6889316 10.4564421 14.4037034 11.4312158 14.1946681 12.3988277 13.9855007 13.3667001 13.8810491 14.2487622 13.8810491 15.0457952 13.8810491 15.4723726 14.0034595 15.686052 14.2490727 15.686052 14.4221904 15.686052 14.5916107 15.6148255 14.7575977 15.4723726 14.9233205 15.3303104 15.1149252 15.1170217 15.3313554 14.8321159 15.3745357 14.8039899 15.4141508 14.8075057 15.4502005 14.8429236 15.4861181 14.8787321 15.4969462 14.9248275 15.4828168 14.9814701 15.1938912 15.4084381 14.8550506 15.7641797 14.4653708 16.0486949 14.075823 16.3336006 13.7219287 16.4756629 13.4047444 16.4756629 13.1304763 16.4756629 12.9393998 16.397405 12.8312508 16.2407589 12.7231017 16.0843732 12.6688292 15.8854079 12.6688292 15.6432119 12.6688292 14.9744386 12.8128958 14.1382114 13.1018214 13.1353118 13.3903509 12.1320215 13.7760693 11.0720887 14.2599008 9.95486212 14.7433363 8.83789601 15.3024364 7.72444564 15.9374653 6.61451102 16.5723622 5.5045764 17.2326127 4.50506231 17.9182169 3.61570831 18.6034249 2.72635432 19.2927264 2.00406345 19.9853292 1.44896593 20.6775358.893868406 21.3268262.616384752 21.9330682.616384752L21.9330682.616384752zM1.61899409 26.8447752C1.40243192 26.8447752 1.22588093 26.791388 1.08854883 26.6847436.951612871 26.5780993.857857298 26.4356464.807150059 26.2577756.75683897 26.0796443.749708264 25.8770331.785493842 25.649421.82180762 25.4215484.904603035 25.1940665 1.03440829 24.9664544 1.06345931 24.9376774 1.09937694 24.9376774 1.14268937 24.9664544 1.18586975 24.9947106 1.21492078 25.0303889 1.22918219 25.0730988 1.20052731 25.2439381 1.26166651 25.3861305 1.41326003 25.5000668 1.5647215 25.6136124 1.79937453 25.6706457 2.11669092 25.6706457 2.70853948 25.6706457 3.30382134 25.4535808 3.90253651 25.0195813 4.50138372 24.5857119 5.08227212 24.0129055 5.64506966 23.3016827 6.2078672 22.5899391 6.7347471 21.7718115 7.22518118 20.8469094 7.71587937 19.9218771 8.14174095 18.9684583 8.50223772 17.9866532 8.8629986 17.0048481 9.14822683 16.0300744 9.35739419 15.0624625 9.56656155 14.0945901 9.67101318 13.212528 9.67101318 12.4156252 9.67101318 11.9886572 9.54860274 11.7753684 9.30298955 11.7753684 9.12973981 11.7753684 8.96031953 11.8462043 8.7944646 11.9886572 8.62874172 12.1307194 8.43713702 12.3443987 8.22070691 12.6291743 8.17752652 12.6573003 8.13791149 12.6537846 8.10186181 12.6183667 8.06594419 12.5825581 8.05511608 12.5363325 8.06924544 12.4794295 8.35817106 12.0528521 8.69701163 11.6967199 9.08669148 11.4122047 9.47623928 11.1276896 9.8300015 10.9856273 10.1473179 10.9856273 10.421586 10.9856273 10.6126625 11.0634946 10.7208115 11.2201407 10.8289605 11.3767868 10.8832331 11.5758823 10.8832331 11.8180783 10.8832331 12.4868516 10.7391665 13.3226881 10.4502408 14.3259784 10.1617114 15.3292687 9.77599301 16.3892016 9.29216144 17.5064281 8.80872601 18.6233942 8.24962588 19.7368446 7.61459694 20.8467792 6.97970004 21.9567138 6.31944953 22.9562279 5.63397745 23.8455819 4.94876947 24.7349359 4.25946794 25.4572268 3.5667331 26.0120639 2.87439441 26.5671614 2.22510406 26.8447752 1.61899409 26.8447752L1.61899409 26.8447752z"/>
    </g>
  </g>
</svg>
