<svg xmlns="http://www.w3.org/2000/svg" xmlns:xlink="http://www.w3.org/1999/xlink" width="33" height="32" viewBox="0 0 33 32">
  <defs>
    <rect id="svg-a" width="3.45" height="3.474" x="6.15" y="23.526" rx="1.725"/>
    <rect id="svg-b" width="3.45" height="3.474" x="24.55" y="6.158" rx="1.725"/>
  </defs>
  <g fill="none" fill-rule="evenodd">
    <path fill="#D28445" fill-rule="nonzero" d="M9.95490015,6.76441103 L24.55,6.76441103 L24.55,8.52882206 L21.7490462,8.52882206 C16.4588393,9.20739107 12.8478392,11.863479 10.5742256,15.9205559 C9.6400534,17.5875094 9.00244345,19.3798752 8.60924444,21.1729331 C8.4717107,21.8001116 8.37474679,22.3813949 8.31144395,22.901005 C8.2741223,23.2073531 8.25642022,23.4210361 8.25128983,23.5263158 L6.70106051,23.4467859 C6.70805642,23.3032242 6.7290069,23.0503296 6.77126407,22.7034692 C6.8405926,22.1343983 6.94598625,21.50258 7.09493625,20.8233413 C7.52026222,18.8837787 8.2104817,16.9435239 9.22864318,15.1266984 C10.8548734,12.2248241 13.1176767,9.96396451 16.0820443,8.52882206 L9.95490015,8.52882206 C9.6048392,9.55676119 8.660286,10.2932331 7.55,10.2932331 C6.14167389,10.2932331 5,9.1083025 5,7.64661654 C5,6.18493059 6.14167389,5 7.55,5 C8.660286,5 9.6048392,5.73647189 9.95490015,6.76441103 Z"/>
    <use fill="#D8D8D8" fill-opacity="0" xlink:href="#svg-a"/>
    <rect width="5.75" height="5.774" x="5" y="22.376" stroke="#F4BF75" stroke-width="2.3" rx="2.875"/>
    <g>
      <use fill="#D8D8D8" fill-opacity="0" xlink:href="#svg-b"/>
      <rect width="5.75" height="5.774" x="23.4" y="5.008" stroke="#F4BF75" stroke-width="2.3" rx="2.875"/>
    </g>
  </g>
</svg>
