<svg xmlns="http://www.w3.org/2000/svg" width="33" height="32" viewBox="0 0 33 32" xmlns:xlink="http://www.w3.org/1999/xlink">
  <defs>
    <rect id="a" width="3.45" height="3.474" x="1.15" y="18.526" rx="1.725"/>
    <mask id="c" width="8.05" height="8.074" x="-2.3" y="-2.3">
      <rect width="8.05" height="8.074" x="-1.15" y="16.226" fill="white"/>
      <use fill="black" xlink:href="#a"/>
    </mask>
    <rect id="b" width="3.45" height="3.474" x="19.55" y="1.158" rx="1.725"/>
    <mask id="d" width="8.05" height="8.074" x="-2.3" y="-2.3">
      <rect width="8.05" height="8.074" x="17.25" y="-1.142" fill="white"/>
      <use fill="black" xlink:href="#b"/>
    </mask>
  </defs>
  <g fill="none" fill-rule="evenodd" transform="translate(5 5)">
    <use fill="#D8D8D8" fill-opacity="0" xlink:href="#a"/>
    <use stroke="#F4BF75" stroke-width="4.6" mask="url(#c)" xlink:href="#a"/>
    <use fill="#D8D8D8" fill-opacity="0" xlink:href="#b"/>
    <use stroke="#F4BF75" stroke-width="4.6" mask="url(#d)" xlink:href="#b"/>
    <path fill="#F4BF75" fill-rule="nonzero" d="M4.95490015,1.76441103 L19.55,1.76441103 L19.55,3.52882206 L16.7490462,3.52882206 C11.4588393,4.20739107 7.84783925,6.86347896 5.57422558,10.9205559 C4.6400534,12.5875094 4.00244345,14.3798752 3.60924444,16.1729331 C3.4717107,16.8001116 3.37474679,17.3813949 3.31144395,17.901005 C3.2741223,18.2073531 3.25642022,18.4210361 3.25128983,18.5263158 L1.70106051,18.4467859 C1.70805642,18.3032242 1.7290069,18.0503296 1.77126407,17.7034692 C1.8405926,17.1343983 1.94598625,16.50258 2.09493625,15.8233413 C2.52026222,13.8837787 3.2104817,11.9435239 4.22864318,10.1266984 C5.85487338,7.2248241 8.11767674,4.96396451 11.0820443,3.52882206 L4.95490015,3.52882206 C4.6048392,4.55676119 3.660286,5.29323308 2.55,5.29323308 C1.14167389,5.29323308 0,4.1083025 0,2.64661654 C0,1.18493059 1.14167389,0 2.55,0 C3.660286,0 4.6048392,0.736471892 4.95490015,1.76441103 Z"/>
  </g>
</svg>
