<?xml version="1.0" encoding="UTF-8" standalone="no"?>
<svg
   xmlns:dc="http://purl.org/dc/elements/1.1/"
   xmlns:cc="http://creativecommons.org/ns#"
   xmlns:rdf="http://www.w3.org/1999/02/22-rdf-syntax-ns#"
   xmlns:svg="http://www.w3.org/2000/svg"
   xmlns="http://www.w3.org/2000/svg"
   xmlns:xlink="http://www.w3.org/1999/xlink"
   xmlns:sodipodi="http://sodipodi.sourceforge.net/DTD/sodipodi-0.dtd"
   xmlns:inkscape="http://www.inkscape.org/namespaces/inkscape"
   version="1.1"
   width="24"
   height="24"
   viewBox="0 0 24 24"
   id="svg2"
   inkscape:version="0.91 r13725"
   sodipodi:docname="package.svg">
  <metadata
     id="metadata10">
    <rdf:RDF>
      <cc:Work
         rdf:about="">
        <dc:format>image/svg+xml</dc:format>
        <dc:type
           rdf:resource="http://purl.org/dc/dcmitype/StillImage" />
      </cc:Work>
    </rdf:RDF>
  </metadata>
  <defs
     id="defs8">
    <linearGradient
       inkscape:collect="always"
       id="linearGradient4147">
      <stop
         style="stop-color:#791223;stop-opacity:1"
         offset="0"
         id="stop4149" />
      <stop
         style="stop-color:#d92f3c;stop-opacity:1"
         offset="1"
         id="stop4151" />
    </linearGradient>
    <linearGradient
       inkscape:collect="always"
       xlink:href="#linearGradient4147"
       id="linearGradient4153"
       x1="12.355932"
       y1="21.559322"
       x2="12.355932"
       y2="2.9491525"
       gradientUnits="userSpaceOnUse" />
  </defs>
  <sodipodi:namedview
     pagecolor="#ffffff"
     bordercolor="#666666"
     borderopacity="1"
     objecttolerance="10"
     gridtolerance="10"
     guidetolerance="10"
     inkscape:pageopacity="0"
     inkscape:pageshadow="2"
     inkscape:window-width="1366"
     inkscape:window-height="705"
     id="namedview6"
     showgrid="false"
     inkscape:zoom="9.8333333"
     inkscape:cx="12"
     inkscape:cy="11.898305"
     inkscape:window-x="-8"
     inkscape:window-y="-8"
     inkscape:window-maximized="1"
     inkscape:current-layer="svg2" />
  <path
     d="M 6 3 C 5.53 3 5.1198438 3.2107813 4.8398438 3.5507812 L 3.4609375 5.2304688 C 3.1709375 5.5704687 3 6 3 6.5 L 3 19 A 2 2 0 0 0 5 21 L 19 21 A 2 2 0 0 0 21 19 L 21 6.5 C 21 6 20.829062 5.5704687 20.539062 5.2304688 L 19.150391 3.5507812 C 18.880391 3.2107813 18.47 3 18 3 L 6 3 z M 5.9296875 4 L 17.929688 4 L 18.869141 5 L 5.1191406 5 L 5.9296875 4 z "
     id="path4"
     style="fill:url(#linearGradient4153);fill-opacity:1" />
  <path
     style="font-style:normal;font-weight:normal;font-size:40px;line-height:125%;font-family:sans-serif;letter-spacing:0px;word-spacing:0px;fill:#ffffff;fill-opacity:1;stroke:none;stroke-width:1px;stroke-linecap:butt;stroke-linejoin:miter;stroke-opacity:1"
     d="m 11.05308,11.917958 c -0.0026,2.2e-4 -0.005,7.26e-4 -0.0076,9.64e-4 -0.244409,0.02079 -0.475828,0.0531 -0.676788,0.109954 -0.31749,0.09511 -0.6033893,0.231734 -0.8559383,0.411381 -0.245332,0.18493 -0.468112,0.413004 -0.670152,0.682475 -0.194822,0.274753 -0.390967,0.59143 -0.585791,0.950724 -0.06938,0.131018 -0.13367,0.243528 -0.20095,0.364935 l 0,9.64e-4 c -5.8e-5,1.04e-4 -0.0019,-1.06e-4 -0.0019,0 l -0.767784,1.371584 -0.0029,-9.64e-4 c -0.136252,0.253521 -0.264399,0.485283 -0.381049,0.686266 -0.122666,0.211349 -0.258903,0.390453 -0.410432,0.538397 -0.151529,0.147944 -0.324617,0.261033 -0.519439,0.340289 -0.04122,0.01565 -0.09247,0.02403 -0.138391,0.03602 -2.95e-4,7.7e-5 -6.53e-4,-7.7e-5 -9.46e-4,0 l -0.565885,0 0,1.382959 0.562093,0 0.0047,0 0,-9.64e-4 c 0.245467,-0.02079 0.476934,-0.05287 0.678683,-0.109954 0.31749,-0.09511 0.603389,-0.231733 0.855937,-0.411381 0.245333,-0.18493 0.469061,-0.413004 0.671101,-0.682474 0.194823,-0.274754 0.390019,-0.591431 0.584842,-0.950725 0.06923,-0.130739 0.13477,-0.243825 0.201899,-0.364934 l 0.0038,9.64e-4 0.0019,-0.0028 0.02085,-0.03792 1.4493113,0 0,9.64e-4 0.64456,0 0,-1.379168 -0.189577,0 0,-9.63e-4 -1.1336663,0 c 0.125899,-0.233259 0.24681,-0.451681 0.355455,-0.638873 0.1226673,-0.211349 0.2589043,-0.390452 0.4104323,-0.538396 0.15153,-0.147945 0.324617,-0.261034 0.51944,-0.34029 0.04037,-0.01533 0.09127,-0.02356 0.136495,-0.03507 l 0.568729,0 0,-0.0019 -9.64e-4,0 0,-1.381063 -0.560198,0 0,-9.64e-4 z"
     id="text4152"
     inkscape:connector-curvature="0" />
</svg>
