<?xml version="1.0" standalone="no"?>
<!DOCTYPE svg PUBLIC "-//W3C//DTD SVG 1.1//EN" "http://www.w3.org/Graphics/SVG/1.1/DTD/svg11.dtd">
<svg width="100%" height="100%" viewBox="0 0 24 24" version="1.1" xmlns="http://www.w3.org/2000/svg" xmlns:xlink="http://www.w3.org/1999/xlink" xml:space="preserve" style="fill-rule:evenodd;clip-rule:evenodd;stroke-linejoin:round;stroke-miterlimit:1.41421;">
    <g transform="matrix(-1.83881e-16,1,-1,-1.83881e-16,23.8496,-0.147928)">
        <path d="M3,17L3,19L9,19L9,17L3,17M3,5L3,7L13,7L13,5L3,5M13,21L13,19L21,19L21,17L13,17L13,15L11,15L11,21L13,21M7,9L7,11L3,11L3,13L7,13L7,15L9,15L9,9L7,9M21,13L21,11L11,11L11,13L21,13M15,9L17,9L17,7L21,7L21,5L17,5L17,3L15,3L15,9Z" style="fill:rgb(251,192,45);fill-rule:nonzero;"/>
    </g>
</svg>
