<svg xmlns="http://www.w3.org/2000/svg" width="33" height="32" viewBox="0 0 33 32">
  <path fill="#7ACCEE" fill-rule="evenodd" d="M30,3 L30,29 L4,29 L4,3 L30,3 Z M19.2600872,22.9037489 L19.2627954,22.9012736 L18.7333333,24.8159181 C19.0583229,24.9710369 19.5096972,25.1162545 20.0874564,25.2515709 C20.6652155,25.3868873 21.2786333,25.4545455 21.9277096,25.4545455 C23.4650906,25.4545455 24.6039081,25.1385322 25.344162,24.5065056 C26.0844159,23.874479 26.4545429,23.1265259 26.4545429,22.2626462 C26.4554456,21.5283073 26.2193768,20.9127827 25.7463365,20.4160725 C25.2732962,19.9193623 24.5362019,19.503512 23.5350536,19.1685214 C22.8011189,18.9102651 22.2721082,18.6846002 21.9480214,18.4915269 C21.6239346,18.2984535 21.4618912,18.0406097 21.4618912,17.7179956 C21.4618912,17.4473629 21.5959494,17.2122094 21.8640658,17.0125352 C22.1321821,16.812861 22.5411273,16.7130239 23.0909013,16.7130239 C23.6406752,16.7130239 24.1132641,16.7711934 24.5086681,16.8875325 C24.904072,17.0038716 25.2146176,17.1136099 25.4403047,17.2167474 L26.0117446,15.3404701 C25.6741166,15.1985529 25.2687825,15.0760256 24.7957422,14.9728881 C24.3227018,14.8697506 23.7688655,14.8181818 23.1342332,14.8181818 C21.8080954,14.8190069 20.7640665,15.1156304 20.0021466,15.7080521 C19.2402267,16.3004739 18.8592668,17.0352254 18.8592668,17.9123067 C18.8592668,18.6598473 19.1449867,19.2819726 19.7164267,19.7786828 C20.2878666,20.275393 21.0389535,20.6784543 21.9696874,20.9878668 C22.6467489,21.1941418 23.1297195,21.4070176 23.418599,21.6264942 C23.7074786,21.8459708 23.8519184,22.1104153 23.8519184,22.4198278 C23.8519184,22.7548184 23.7002566,23.0254512 23.3969331,23.2317262 C23.0936095,23.4380011 22.6526168,23.5411386 22.0739549,23.5411386 C21.5241809,23.5411386 20.9987812,23.4767808 20.4977556,23.3480652 C19.9967301,23.2193497 19.584174,23.0712442 19.2600872,22.9037489 Z M13.2039797,25.4545455 L15.446019,25.4545455 L15.446019,16.6175121 L18.7333333,16.6175121 L18.7333333,14.8181818 L9.90909091,14.8181818 L9.90909091,16.6175121 L13.2039797,16.6175121 L13.2039797,25.4545455 Z"/>
</svg>
