<svg xmlns="http://www.w3.org/2000/svg" width="33" height="32" viewBox="0 0 33 32">
  <g fill="none" transform="translate(4 2)">
    <path fill="#6A9FB5" d="M12.688333,0.385082345 C12.4013897,0.385082345 12.127684,0.467409241 11.9090605,0.632927172 L1.11399213,6.75631131 C0.676745162,6.99079407 0.390762556,7.44715131 0.390762556,7.97128924 L0.390762556,20.3850828 C0.390762556,20.9092207 0.676745162,21.3655779 1.11399213,21.6000607 L11.9090605,27.7234441 C12.127684,27.8889628 12.4013897,27.9712897 12.688333,27.9712897 C12.9752763,27.9712897 13.248982,27.8889586 13.4676055,27.7234441 L24.2626741,21.6000607 C24.6999211,21.3655779 24.9859038,20.9092207 24.9859038,20.3850828 L24.9859038,7.97128924 C24.9859038,7.44715131 24.6999211,6.99079407 24.2626741,6.75631131 L13.4676055,0.632927172 C13.248982,0.467409931 12.9752763,0.385082345 12.688333,0.385082345 L12.688333,0.385082345 Z M12.688333,3.35113834 L22.2531103,8.78486717 L22.2531103,11.6862676 L22.2317535,11.6862676 L22.2317535,18.827971 L22.2531103,18.827971 L22.2531103,19.5715048 L12.688333,25.0052331 L3.12355539,19.5715048 L3.12355539,8.78486717 L12.688333,3.35113834 L12.688333,3.35113834 Z M12.688333,6.220212 L5.9924557,10.1237679 L12.688333,14.0273241 L19.3842114,10.1237679 L12.688333,6.220212 L12.688333,6.220212 Z M5.85634892,13.2272166 L5.85634892,18.1652552 L11.3219362,21.3495228 L11.3219362,16.4114841 L5.85634892,13.2272166 Z M19.5203168,13.2272166 L14.0547298,16.4114841 L14.0547298,21.3495228 L19.5203168,18.1652552 L19.5203168,13.2272166 Z"/>
    <path fill="#78909C" d="M12.688333,6.220212 L5.9924557,10.1237679 L12.688333,14.0273228 L19.3842114,10.1237679 L12.688333,6.220212 Z M5.85634892,13.2272152 L5.85634892,18.1652538 L11.3219362,21.3495214 L11.3219362,16.4114814 L5.85634892,13.2272152 Z M19.5203168,13.2272152 L14.0547298,16.4114814 L14.0547298,21.3495214 L19.5203168,18.1652538 L19.5203168,13.2272152 Z"/>
  </g>
</svg>
