<svg xmlns="http://www.w3.org/2000/svg" width="33" height="32" viewBox="0 0 33 32">
  <path fill="#6A9FB5" d="M30.1341379,24.1720257 C28.6444828,24.5263666 27.8903448,24.8527331 26.0468966,26.055627 C23.1606897,27.9205788 20.0137931,28.7877814 20.0137931,28.7877814 C20.0137931,28.7877814 19.7531034,29.1794212 18.9989655,29.3565916 C17.6955172,29.6736334 12.7889655,29.9440514 12.342069,29.9533762 C11.1410345,29.962701 10.4055172,29.6456592 10.2006897,29.1514469 C9.57689655,27.6594855 11.0944828,27.0067524 11.0944828,27.0067524 C11.0944828,27.0067524 10.7593103,26.8016077 10.5637931,26.6151125 C10.3868966,26.4379421 10.2006897,26.0836013 10.1448276,26.2141479 C9.91206897,26.7829582 9.79103448,28.1723473 9.16724138,28.7971061 C8.31068966,29.6643087 6.69068966,29.3752412 5.73172414,28.8717042 C4.67965517,28.3122186 5.8062069,26.9974277 5.8062069,26.9974277 C5.8062069,26.9974277 5.23827586,27.333119 4.78206897,26.6430868 C4.37241379,26.0090032 3.99068966,24.9273312 4.09310345,23.5938907 C4.22344828,22.0553055 5.91793103,20.5819936 5.91793103,20.5819936 C5.91793103,20.5819936 5.62,18.3347267 6.59758621,16.0315113 C7.48206897,13.9334405 9.86551724,12.2456592 9.86551724,12.2456592 C9.86551724,12.2456592 7.8637931,10.0356913 8.60862069,8.03086817 C9.09275862,6.72540193 9.28827586,6.73472669 9.44655172,6.67877814 C10.0051724,6.46430868 10.5451724,6.23118971 10.9455172,5.79292605 C12.9472414,3.62958199 15.4982759,4.03987138 15.4982759,4.03987138 C15.4982759,4.03987138 16.69,0.375241158 17.8072414,1.09324759 C18.1517241,1.3170418 19.39,4.07717042 19.39,4.07717042 C19.39,4.07717042 20.712069,3.30321543 20.8610345,3.59228296 C21.6617241,5.14951768 21.7548276,8.12411576 21.4010345,9.93311897 C20.8051724,12.9170418 19.3155172,14.5209003 18.7196552,15.5279743 C18.58,15.7610932 20.3210345,16.4977492 21.4196552,19.5469453 C22.4344828,22.3350482 21.5313793,24.6755627 21.6896552,24.9366559 C21.7175862,24.9832797 21.7268966,25.0019293 21.7268966,25.0019293 C21.7268966,25.0019293 22.8906897,25.0951768 25.2275862,23.6498392 C26.4751724,22.8758842 27.9555172,22.0086817 29.6406897,21.9900322 C31.27,21.9620579 31.3537931,23.8829582 30.1341379,24.1720257 L30.1341379,24.1720257 Z"/>
</svg>
