<svg xmlns="http://www.w3.org/2000/svg" width="16" height="16" viewBox="0 0 16 16">
  <defs>
    <style>
      .i-color {
        fill: #000;
        fill-rule: evenodd;
      }
    </style>
  </defs>
  <path id="file_type_dlang.svg" class="i-color" d="M12.385,8.8c-0.059,0-.114-0.013-0.171-0.017a4.309,4.309,0,0,1-.359,1.225,4.8,4.8,0,0,1-1.232,1.582,5.54,5.54,0,0,1-1.884,1.048A6.368,6.368,0,0,1,7.6,12.93H7.589A17.426,17.426,0,0,1,5.664,13l-3.255.014H2.374A0.369,0.369,0,0,1,2.308,13a0.349,0.349,0,0,1-.04,0l-0.026-.013h0l-0.026-.013H2.2a0.361,0.361,0,0,1-.053-0.039h0l-0.018-.017-0.009-.009L2.1,12.89s0-.007,0-0.009-0.018-.011-0.026-0.017,0-.007,0-0.009l-0.013-.026s0,0,0,0S2.045,12.808,2.039,12.8s0,0,0,0l-0.013-.026s0-.007,0-0.009,0-.018,0-0.026,0,0,0,0S2.014,12.712,2.012,12.7s0-.007,0-0.009a0.31,0.31,0,0,1,0-.061,0.356,0.356,0,0,1,0-.039L2,3.6a0.352,0.352,0,0,1,.308-0.344,0.356,0.356,0,0,1,.044,0l3.515-.005a8.631,8.631,0,0,1,3.511.582,5.1,5.1,0,0,1,1.3.834A2.5,2.5,0,0,1,12.381,4a2.439,2.439,0,0,1,2.477,2.4v0A2.439,2.439,0,0,1,12.385,8.8ZM9.03,5.945s0-.007,0-0.009a3.309,3.309,0,0,0-.873-0.5,4.061,4.061,0,0,0-.943-0.268,11.832,11.832,0,0,0-1.5-.063L4.2,5.1,4.208,11.15l1.559,0a8.74,8.74,0,0,0,1.665-.124,4.245,4.245,0,0,0,.942-0.306,3.235,3.235,0,0,0,.687-0.458,2.76,2.76,0,0,0,.98-2.2A2.544,2.544,0,0,0,9.03,5.945Z" transform="translate(0 -1)"/>
</svg>
