<svg xmlns="http://www.w3.org/2000/svg" width="16" height="16" viewBox="0 0 16 16">
  <defs>
    <style>
      .i-color {
        fill: #000;
        fill-rule: evenodd;
      }
    </style>
  </defs>
  <path id="file_type_docker.svg" class="i-color" d="M12.466,7.329a2.089,2.089,0,0,1,0-2.53l0.189-.213,0.189,0.183a2.451,2.451,0,0,1,1.041,1.585,2.414,2.414,0,0,1,2.114.3A2.3,2.3,0,0,1,13.507,7.97c-1.3,3.126-4.092,5-8.236,5.03a5.023,5.023,0,0,1-4.7-2.347,4.359,4.359,0,0,1-.536-2.9H1.422V6.14H3.063V4.555H6.344V3H8.3V6.14H9.942V7.756A4.529,4.529,0,0,0,12.466,7.329ZM2.905,6.506H3V7.665H2.905V6.506Zm-0.221,0H2.81V7.665H2.684V6.506Zm-0.221,0H2.589V7.665H2.463V6.506Zm-0.221,0H2.369V7.665H2.242V6.506Zm-0.189,0H2.148V7.665H2.053V6.506Zm-0.221,0H1.927V7.665H1.832V6.506ZM1.706,6.415V7.787h1.42V6.415H1.706Zm2.84-1.463H4.64V6.079H4.546V4.951Zm-0.221,0H4.42V6.079H4.325V4.951Zm-0.221,0H4.23V6.079H4.1V4.951Zm-0.221,0H4.009V6.079H3.883V4.951Zm-0.221,0H3.789V6.079H3.662V4.951Zm-0.189,0H3.568V6.079H3.473V4.951ZM3.347,4.829V6.2h1.42V4.829H3.347Zm1.2,1.677H4.64V7.665H4.546V6.506Zm-0.221,0H4.42V7.665H4.325V6.506Zm-0.221,0H4.23V7.665H4.1V6.506Zm-0.221,0H4.009V7.665H3.883V6.506Zm-0.221,0H3.789V7.665H3.662V6.506Zm-0.189,0H3.568V7.665H3.473V6.506ZM3.347,6.415V7.787h1.42V6.415H3.347ZM6.155,6.506H6.281V7.665H6.155V6.506Zm-0.189,0H6.06V7.665H5.966V6.506Zm-0.221,0H5.84V7.665H5.745V6.506Zm-0.221,0H5.65V7.665H5.524V6.506Zm-0.221,0H5.429V7.665H5.3V6.506Zm-0.221,0H5.208V7.665H5.082V6.506ZM4.988,6.415V7.787h1.42V6.415H4.988ZM6.155,4.951H6.281V6.079H6.155V4.951Zm-0.189,0H6.06V6.079H5.966V4.951Zm-0.221,0H5.84V6.079H5.745V4.951Zm-0.221,0H5.65V6.079H5.524V4.951Zm-0.221,0H5.429V6.079H5.3V4.951Zm-0.221,0H5.208V6.079H5.082V4.951ZM4.988,4.829V6.2h1.42V4.829H4.988ZM7.8,6.506H7.922V7.665H7.8V6.506Zm-0.221,0H7.7V7.665H7.575V6.506Zm-0.189,0H7.48V7.665H7.386V6.506Zm-0.221,0H7.259V7.665H7.165V6.506Zm-0.221,0H7.07V7.665H6.944V6.506Zm-0.221,0H6.849V7.665H6.723V6.506ZM6.628,6.415V7.787H8.017V6.415H6.628ZM7.8,4.951H7.922V6.079H7.8V4.951Zm-0.221,0H7.7V6.079H7.575V4.951Zm-0.189,0H7.48V6.079H7.386V4.951Zm-0.221,0H7.259V6.079H7.165V4.951Zm-0.221,0H7.07V6.079H6.944V4.951Zm-0.221,0H6.849V6.079H6.723V4.951ZM6.628,4.829V6.2H8.017V4.829H6.628ZM7.8,3.366H7.922V4.494H7.8V3.366Zm-0.221,0H7.7V4.494H7.575V3.366Zm-0.189,0H7.48V4.494H7.386V3.366Zm-0.221,0H7.259V4.494H7.165V3.366Zm-0.221,0H7.07V4.494H6.944V3.366Zm-0.221,0H6.849V4.494H6.723V3.366ZM6.628,3.244V4.616H8.017V3.244H6.628ZM9.437,6.506H9.531V7.665H9.437V6.506Zm-0.221,0H9.342V7.665H9.216V6.506Zm-0.221,0H9.121V7.665H8.995V6.506Zm-0.189,0H8.9V7.665H8.806V6.506Zm-0.221,0H8.679V7.665H8.585V6.506Zm-0.221,0H8.49V7.665H8.364V6.506ZM8.238,6.415V7.787h1.42V6.415H8.238ZM4.672,9.982A0.349,0.349,0,0,0,4.4,10.1a0.4,0.4,0,0,0-.11.274,0.347,0.347,0,0,0,.11.259,0.39,0.39,0,0,0,.536,0,0.347,0.347,0,0,0,.11-0.259A0.371,0.371,0,0,0,5,10.18a0.448,0.448,0,0,0-.142-0.137A0.347,0.347,0,0,0,4.672,9.982Zm0,0.122a0.131,0.131,0,0,1,.095.03,0.1,0.1,0,0,0-.063.091q0,0.091.126,0.091a0.1,0.1,0,0,0,.095-0.061,0.263,0.263,0,0,1,.032.122,0.247,0.247,0,0,1-.284.274A0.275,0.275,0,1,1,4.672,10.1Zm1.041,2.622a3.533,3.533,0,0,1-1.8-1.707,5.614,5.614,0,0,1-1.294.183H1.264a5.7,5.7,0,0,0,4.007,1.524H5.713Z" transform="translate(0 -1)"/>
</svg>
