<svg xmlns="http://www.w3.org/2000/svg" width="16" height="16" viewBox="0 0 16 16">
  <defs>
    <style>
      .i-color {
        fill: #000;
        fill-rule: evenodd;
      }
    </style>
  </defs>
  <path id="file_type_gradle.svg" class="i-color" d="M14.59,2.257A2.291,2.291,0,0,0,12.579.989c-0.769-.015-1.4.445-1.284,0.751a4.954,4.954,0,0,0,.261.547c0.13,0.2.357,0.044,0.439,0a1.214,1.214,0,0,1,.79-0.146,1.187,1.187,0,0,1,.892.736A2.071,2.071,0,0,1,10.21,4.86a5.525,5.525,0,0,0-5.437-.809c-0.988.35-1.448,0.7-1.057,1.509a17.146,17.146,0,0,0,.872,1.677C5.405,8.688,7.2,6.567,7.2,6.567,5.865,8.7,4.719,8.185,4.279,7.442a11.8,11.8,0,0,1-.707-1.451C0.188,7.288,1.1,12.969,1.1,12.969l1.682,0.007c0.426-2.107,1.963-2.02,2.224.007l1.284,0.007c1.133-4.112,4.009.015,4.009,0.015l1.675,0.007c-0.467-2.807.94-3.69,1.826-5.33S15.544,4.022,14.59,2.257Zm-5.21,5.5a0.921,0.921,0,0,1-.529-1.181s0.206,0.073.549,0.19a0.361,0.361,0,0,0-.055.255,0.392,0.392,0,0,0,.426.357,0.406,0.406,0,0,0,.35-0.357q0.206,0.077.432,0.153A0.945,0.945,0,0,1,9.38,7.755Z"/>
</svg>
