<svg xmlns="http://www.w3.org/2000/svg" width="16" height="16" viewBox="0 0 16 16">
  <defs>
    <style>
      .i-color {
        fill: #000;
        fill-rule: evenodd;
      }
    </style>
  </defs>
  <path id="file_type_gruntfile.svg" class="i-color" d="M2.166,2.247a2.617,2.617,0,0,1,3.863.344C6.365,2.79,6.357,2.8,6.38,2.5a1.306,1.306,0,0,1,.834-1.118,1.245,1.245,0,0,0,.263.731A1.552,1.552,0,0,1,8.706,1a1.114,1.114,0,0,0,.044.989A2.066,2.066,0,0,1,9.8,1.6C9.469,2.17,9.412,2.62,9.627,2.677a0.3,0.3,0,0,0,.351-0.086c1.237-1.453,3.246-1.254,3.863-.3-1.234.232-1.463,0.485-1.273,1.161a0.108,0.108,0,0,0,.132.086c0.878,0.086,1.229.688,0.746,1.333a1.165,1.165,0,0,0,.044,1.5c0.937,0.651.547,1.42-.878,2.02a0.729,0.729,0,0,0-.527.6c0,0.645.088,1.848,0.088,1.848a1.768,1.768,0,0,0,.79-1.161,1.992,1.992,0,0,1-.659,3.4c-0.39.1-.656,1.169-2.107,1.375a5.557,5.557,0,0,1-1.668.516A3.766,3.766,0,0,1,6.072,14.5,2.94,2.94,0,0,1,3.921,13.21a0.2,0.2,0,0,0-.175-0.129,1.971,1.971,0,0,1-.7-3.4,1.961,1.961,0,0,0,.79,1.2c0.117-1.287.318-2.2-.483-2.536A1.841,1.841,0,0,1,2,7.187C1.954,6.538,2.77,6.4,2.78,5.987V5.3s-0.307-.6-0.4-0.817c-0.127-.685.383-0.9,1.054-0.989C3.589,3.031,3.767,2.594,2.166,2.247Z" transform="translate(0 -1)"/>
</svg>
