<svg xmlns="http://www.w3.org/2000/svg" width="16" height="16" viewBox="0 0 16 16">
  <defs>
    <style>
      .i-color {
        fill: #000;
        fill-rule: evenodd;
      }
    </style>
  </defs>
  <path id="file_type_java.svg" class="i-color" d="M6.23,10.717C5.93,10.8,5.392,11,5.538,11.4a1.906,1.906,0,0,0,1.346.6,6.185,6.185,0,0,0,3.524-.535c-0.374-.119-0.725-0.342-1.07-0.479a6.722,6.722,0,0,1-3.079.023c0.051-.12.51-0.4,0.127-0.313l-0.156.012h0ZM5.908,9.246a0.876,0.876,0,0,0-.782.688,1.444,1.444,0,0,0,1.134.552,10.053,10.053,0,0,0,4.445-.423,2.153,2.153,0,0,1-.886-0.489,9.66,9.66,0,0,1-3.871.11C5.77,9.59,6.13,9.413,6.15,9.318c0.358-.308-0.125-0.045-0.243-0.072h0Zm5.037-6.182A4.875,4.875,0,0,0,8.121,4.787a1.824,1.824,0,0,0,.4,2.158A0.847,0.847,0,0,1,8.37,8.187C7.981,8.53,8.43,8.47,8.656,8.305a1.585,1.585,0,0,0,.932-1.685C9.4,6.081,8.707,5.633,8.953,5c0.477-.868,1.472-1.249,2.221-1.839,0.288-.194-0.117-0.073-0.228-0.1h0ZM4.851,11.688a2.826,2.826,0,0,0-1.77.7c-0.229.271,0.1,0.581,0.37,0.612a19.888,19.888,0,0,0,7.121.095,3.372,3.372,0,0,0,1.789-.73c0.207-.353-0.28-0.612-0.565-0.634a1.5,1.5,0,0,0,.2.395,2.238,2.238,0,0,1-1.2.412,21.319,21.319,0,0,1-6.042.029,2.092,2.092,0,0,1-.656-0.21,2.254,2.254,0,0,1,1.572-.313,1.13,1.13,0,0,0-.825-0.35h0ZM6.343,7.714a4.368,4.368,0,0,0-2.192.663C3.925,8.592,4.207,8.872,4.441,8.9A13.132,13.132,0,0,0,8.6,9.059a5.352,5.352,0,0,0,1.885-.419,2.75,2.75,0,0,0,.656-0.406c-0.737-.044-1.458.2-2.191,0.226a14.3,14.3,0,0,1-3.592-.017C5.173,8.4,5.5,8.3,5.551,8.267c0.425-.19.894-0.233,1.3-0.464a1.47,1.47,0,0,0-.51-0.089h0Zm5.363-.127a0.955,0.955,0,0,0-.917.56c-0.181.248,0.3-.114,0.466-0.11a0.7,0.7,0,0,1,.9.885,3.488,3.488,0,0,1-1.461,1.333c-0.431.355-.293,0.372,0.166,0.2a2.779,2.779,0,0,0,2.1-1.55,1.128,1.128,0,0,0-1.254-1.321h0ZM9.2,0.464a2.2,2.2,0,0,1-.786,2.274c-0.726.725-1.769,1.221-2.2,2.2-0.283.836,0.373,1.6,0.9,2.17A9.268,9.268,0,0,0,8.262,8.154C8.07,7.173,6.986,6.541,7.083,5.486,7.277,4.473,8.331,4.029,8.936,3.3A2.419,2.419,0,0,0,9.622.668,3.291,3.291,0,0,0,9.1,0L9.2,0.463h0ZM12.767,12.55a3.73,3.73,0,0,1-1.782.7,20.1,20.1,0,0,1-6.509.078,3.647,3.647,0,0,0,2.27.639,15.276,15.276,0,0,0,5.273-.442,1.128,1.128,0,0,0,.966-1.149c0.04-.363-0.142.115-0.219,0.178h0Z" transform="translate(0 -1)"/>
</svg>
