<svg xmlns="http://www.w3.org/2000/svg" width="16" height="16" viewBox="0 0 16 16">
  <defs>
    <style>
      .i-color {
        fill: #000;
        fill-rule: evenodd;
      }
    </style>
  </defs>
  <path id="file_type_lsl.svg" class="i-color" d="M3,7.077C2.988,7.263,3.082,8.368,3.12,9.014a22.952,22.952,0,0,0,.13,2.374A3.717,3.717,0,0,0,4.6,13.969a6.316,6.316,0,0,0,3.022,1,6.818,6.818,0,0,0,2.93-.408,3.239,3.239,0,0,0,1.77-1.96,3.132,3.132,0,0,0-.207-2.475,3.448,3.448,0,0,0-2.091-1.344,5.832,5.832,0,0,0-3.092.1,4.745,4.745,0,0,0-1.876,1.143,0.464,0.464,0,0,0-.068.677,0.525,0.525,0,0,0,.766,0,2.747,2.747,0,0,1,1-.678c0.149-.016.187,0.091,0.124,0.213a2.09,2.09,0,0,0-.042,1.536,1.922,1.922,0,0,0,1.283,1.067,2.018,2.018,0,0,0,1.822-.554,1.817,1.817,0,0,0,.352-1.75,0.493,0.493,0,0,0-.456-0.3,0.247,0.247,0,0,0-.187.192,1.346,1.346,0,0,1,.083.213,0.4,0.4,0,0,1-.621.214,0.53,0.53,0,0,1-.1-0.64,0.876,0.876,0,0,1,.828-0.3,1.671,1.671,0,0,1,1.3.747,2.125,2.125,0,0,1-.083,1.963,2.879,2.879,0,0,1-1.9,1.11,5.23,5.23,0,0,1-2.712-.256,2.829,2.829,0,0,1-1.884-2.006,15.535,15.535,0,0,1-.13-2.48,2.937,2.937,0,0,0-.373-1.6,1.07,1.07,0,0,0-.843-0.464C3.078,6.912,2.989,6.977,3,7.077Zm1.627-5.1a0.772,0.772,0,0,0-.492.778A46.765,46.765,0,0,0,5.479,8.17a0.678,0.678,0,0,0,.635.3A0.7,0.7,0,0,0,6.462,7.9,40.084,40.084,0,0,0,5.455,2.424,0.765,0.765,0,0,0,4.628,1.979ZM7.4,1a0.856,0.856,0,0,0-.6.784,53.048,53.048,0,0,0,.59,5.923,0.512,0.512,0,0,0,.589.409A0.525,0.525,0,0,0,8.4,7.57a45.639,45.639,0,0,0-.248-5.938A0.8,0.8,0,0,0,7.4,1Zm2.965,0.833a0.764,0.764,0,0,0-.667.588A48.138,48.138,0,0,0,9.2,7.8a0.463,0.463,0,0,0,.924.06,41.2,41.2,0,0,0,.8-5.324A0.735,0.735,0,0,0,10.362,1.836ZM12.6,3.579a0.643,0.643,0,0,0-.623.409A38.758,38.758,0,0,0,11,8.332a0.393,0.393,0,0,0,.77.149A32.992,32.992,0,0,0,13,4.211,0.612,0.612,0,0,0,12.6,3.579Z" transform="translate(0 -1)"/>
</svg>
