<svg xmlns="http://www.w3.org/2000/svg" width="16" height="16" viewBox="0 0 16 16">
  <defs>
    <style>
      .i-color {
        fill: #000;
        fill-rule: evenodd;
      }
    </style>
  </defs>
  <path id="file_type_matlab.svg" class="i-color" d="M14.559,10.6c-0.792-2.034-1.45-4.119-2.207-6.166a19.539,19.539,0,0,0-1.117-2.566,2.3,2.3,0,0,0-.651-0.8A0.429,0.429,0,0,0,10.34,1a0.625,0.625,0,0,0-.384.157,4.469,4.469,0,0,0-.9,1.217A6.16,6.16,0,0,1,7.313,4.525c-0.368.264-.849,0.292-1.2,0.575A9.057,9.057,0,0,0,4.9,6.454a0.96,0.96,0,0,1-.353.213C3.36,7.158,2.174,7.649,1,8.165,1.994,8.946,3.054,9.642,4.068,10.4a2.27,2.27,0,0,1,.844-0.12,1.792,1.792,0,0,1,.93.993c0.424,0.883.73,1.815,1.073,2.731a2.863,2.863,0,0,0,1.534-.7,18.9,18.9,0,0,0,2.221-2.451,2.471,2.471,0,0,1,1.209-.906,1.616,1.616,0,0,1,1.465.426A10.909,10.909,0,0,0,15,11.813,7.788,7.788,0,0,0,14.559,10.6ZM5.7,9.168c-0.5.3-1.031,0.548-1.551,0.81C3.333,9.424,2.538,8.835,1.737,8.26c1.08-.481,2.178-0.928,3.272-1.377,0.519,0.412,1.054.8,1.573,1.214A4.793,4.793,0,0,1,5.7,9.168Zm1.112-1.38C6.3,7.4,5.773,7.012,5.266,6.608A6.666,6.666,0,0,1,6.375,5.366C6.657,5.182,7,5.131,7.3,4.965A4.949,4.949,0,0,0,8.922,3.344,22.128,22.128,0,0,1,6.811,7.789Z" transform="translate(0 0)"/>
</svg>
