<svg xmlns="http://www.w3.org/2000/svg" width="16" height="16" viewBox="0 0 16 16">
  <defs>
    <style>
      .i-color {
        fill: #000;
        fill-rule: evenodd;
      }
    </style>
  </defs>
  <path id="file_type_mustache.svg" class="i-color" d="M1.724,7.762A0.345,0.345,0,0,0,1.383,7.3c-0.355.029-.6,0.789,0.153,1.042,0.619,0.207,1.07-.273,1.784-1.013,1.594-1.655,3.52-1.815,4.694-.145,0.484-.915,2.391-2.441,5.3.724,1.07,1.163,2.026.069,1.5-.531a0.306,0.306,0,0,0-.469.386H14.3c-1.093-1,1.19-1.928,1.643-.241,0.467,2.539-2.138,2.951-4.224,2.027-4.033-2.075-4.076-1.518-7.98.193A3.3,3.3,0,0,1,.485,9.373C-0.219,8.68-.175,7.032.738,6.7,1.67,6.316,2.458,7.139,1.724,7.762Z" transform="translate(0 0)"/>
</svg>
