<svg xmlns="http://www.w3.org/2000/svg" width="16" height="16" viewBox="0 0 16 16">
  <defs>
    <style>
      .i-color {
        fill: #000;
        fill-rule: evenodd;
      }
    </style>
  </defs>
  <path id="file_type_node.svg" class="i-color" d="M8.005,16.01A1.2,1.2,0,0,1,7.4,15.845l-1.932-1.16c-0.288-.163-0.147-0.222-0.052-0.255a3.788,3.788,0,0,0,.873-0.4,0.148,0.148,0,0,1,.145.011l1.483,0.894a0.188,0.188,0,0,0,.18,0l5.784-3.388a0.186,0.186,0,0,0,.088-0.159V4.608a0.191,0.191,0,0,0-.089-0.162L8.1,1.061a0.179,0.179,0,0,0-.178,0L2.138,4.448a0.188,0.188,0,0,0-.091.161v6.777a0.18,0.18,0,0,0,.091.157l1.585,0.929c0.86,0.436,1.386-.078,1.386-0.594V5.187a0.168,0.168,0,0,1,.168-0.169H6.01a0.168,0.168,0,0,1,.167.169v6.69A1.617,1.617,0,0,1,4.465,13.71a2.445,2.445,0,0,1-1.333-.368l-1.517-.886a1.244,1.244,0,0,1-.607-1.071V4.608a1.241,1.241,0,0,1,.607-1.07L7.4,0.146a1.25,1.25,0,0,1,1.216,0L14.4,3.538a1.243,1.243,0,0,1,.608,1.07v6.776a1.247,1.247,0,0,1-.608,1.071l-5.784,3.39a1.2,1.2,0,0,1-.609.165h0Zm1.787-4.669c-2.532,0-3.062-1.18-3.062-2.169A0.167,0.167,0,0,1,6.9,9H7.645a0.168,0.168,0,0,1,.166.144c0.113,0.773.449,1.163,1.98,1.163,1.218,0,1.737-.28,1.737-0.936,0-.379-0.146-0.659-2.041-0.848-1.582-.159-2.562-0.514-2.562-1.8,0-1.185.984-1.891,2.633-1.891,1.853,0,2.77.653,2.886,2.054a0.173,0.173,0,0,1-.044.13,0.167,0.167,0,0,1-.123.055H11.527a0.167,0.167,0,0,1-.162-0.133c-0.18-.813-0.619-1.073-1.806-1.073-1.331,0-1.485.47-1.485,0.823,0,0.428.183,0.552,1.979,0.793,1.778,0.238,2.623.576,2.623,1.844s-1.05,2.012-2.883,2.012h0Z" transform="translate(0)"/>
</svg>
