<svg xmlns="http://www.w3.org/2000/svg" width="16" height="16" viewBox="0 0 16 16">
  <defs>
    <style>
      .i-color {
        fill: #000;
        fill-rule: evenodd;
      }
    </style>
  </defs>
  <path id="file_type_psd.svg" class="i-color" d="M1,15V1H15V15H1ZM6.162,3.887C5.244,3.855,4.15,3.911,4.15,3.911v7.058H5.272V8.414C6.779,8.543,8.43,7.951,8.43,6.146A2.128,2.128,0,0,0,6.162,3.887Zm4.069,3.137c0.01-.366.778-0.591,1.882-0.09V5.848A3.219,3.219,0,0,0,10.1,5.784a1.518,1.518,0,0,0-.681,2.31c0.573,0.681,2,.935,1.765,1.6A1,1,0,0,1,10,9.988a2.944,2.944,0,0,1-.865-0.382v1.15a2.608,2.608,0,0,0,.886.275,2.567,2.567,0,0,0,1.8-.409,1.579,1.579,0,0,0-.519-2.64C10.205,7.449,10.223,7.3,10.231,7.024ZM6.454,7.3a5.4,5.4,0,0,1-1.181.1V4.929a3.856,3.856,0,0,1,1.17.053,1.1,1.1,0,0,1,.81,1.168A1.144,1.144,0,0,1,6.454,7.3Z"/>
</svg>
