<svg xmlns="http://www.w3.org/2000/svg" width="16" height="16" viewBox="0 0 16 16">
  <defs>
    <style>
      .i-color {
        fill: #000;
        fill-rule: evenodd;
      }
    </style>
  </defs>
  <path id="file_type_slim.svg" class="i-color" d="M8,5H7V4H8V5Zm4,3H11V9h1V8ZM5,5H4V6H5V5ZM4,8H3V9H4V8ZM15,2.5L14.5,2,8,7C7.94,6.98,7,7,7,7A1,1,0,0,0,6,8V9a1,1,0,0,0,1,1H8A1,1,0,0,0,9,9V8.08ZM13.41,6.59a6.411,6.411,0,0,1,.3,1.91A6.205,6.205,0,1,1,7.5,2.3a6.121,6.121,0,0,1,3.27.94l0.94-.94A7.5,7.5,0,1,0,15,8.5a7.242,7.242,0,0,0-.59-2.91Z" transform="translate(0 -1)"/>
</svg>
