<svg xmlns="http://www.w3.org/2000/svg" width="16" height="16" viewBox="0 0 16 16">
  <defs>
    <style>
      .i-color {
        fill: #000;
        fill-rule: evenodd;
      }
    </style>
  </defs>
  <path id="file_type_stylus.svg" class="i-color" d="M11.166,4.272l-0.276-.2C12.27,2.461,10.613,1.29,9.833,2.5,9.1,3.632,10.1,5.036,10.7,6.86c0.949,2.884.8,4.437-.42,5.94-3.086,3.771-8.862,2.329-6.868-1.577a3.579,3.579,0,0,1,3.9-2.07C7.5,9.4,7.3,9.5,7.155,9.572c-1.645.838-2.594,4.2-1.165,4.129a3.043,3.043,0,0,0,2.233-1.923c0.612-1.393-.144-3.143-0.684-4.794C6.279,3.089,9.136-.275,12.4,1.475,13.639,2.14,12.823,4.47,11.166,4.272Z" transform="translate(0 -1)"/>
</svg>
