<svg xmlns="http://www.w3.org/2000/svg" width="14" height="14" viewBox="0 0 14 14">
  <defs>
    <style>
      .i-color {
        fill: #000;
        fill-rule: evenodd;
      }
    </style>
  </defs>
  <path id="file_type_textile.svg" class="i-color" d="M2,4.857A5.162,5.162,0,0,1,3.542,4.2V2.676A3.828,3.828,0,0,1,4.3,2.347,8.2,8.2,0,0,1,5.658,2H6.315V4.388H8.854v1.22H6.315v4.841a3.1,3.1,0,0,0,.3,1.607A1.1,1.1,0,0,0,7.6,12.5a7.467,7.467,0,0,0,.778-0.048,3.48,3.48,0,0,0,.8-0.18l0.135,0.619a2.441,2.441,0,0,1-.508.355,5.647,5.647,0,0,1-.769.356,6.075,6.075,0,0,1-.944.281A4.989,4.989,0,0,1,6.027,14a2.473,2.473,0,0,1-1.865-.636,2.9,2.9,0,0,1-.616-2.059V5.6H2V4.857Zm8.733,7.593a1.427,1.427,0,0,1,.44-1.088,1.65,1.65,0,0,1,1.173-.413,1.711,1.711,0,0,1,1.191.413A1.4,1.4,0,0,1,14,12.451a1.352,1.352,0,0,1-.463,1.08,1.756,1.756,0,0,1-1.191.4,1.67,1.67,0,0,1-1.173-.4A1.408,1.408,0,0,1,10.733,12.451Z" transform="translate(0 -2)"/>
</svg>
