<svg xmlns="http://www.w3.org/2000/svg" width="16" height="16" viewBox="0 0 16 16">
  <defs>
    <style>
      .i-color {
        fill: #000;
        fill-rule: evenodd;
      }
    </style>
  </defs>
  <path id="file_type_webpack.svg" class="i-color" d="M13.99,4.4L7.979,1,2,4.414l0.01,7.16L7.979,15,14,11.558Zm-2.984,4.99,0-2.838L8.287,8.14,8.3,11.325l2.369-1.349,2.323,1.377L8.311,14.028,8.3,11.325l-0.321.183-0.346-.2,0.011,2.717L3.015,11.368l2.32-1.384,2.3,1.324L7.62,8.111,4.994,6.6l0,2.8L2.676,10.78,2.668,5.259,4.994,6.6l0.337-.59L2.964,4.646,7.646,1.972V4.683L5.331,6.01,7.978,7.534l2.647-1.552-2.312-1.3V1.969L12.976,4.6,10.625,5.982,11,6.548l2.323-1.362,0.008,5.578Z" transform="translate(0 -1)"/>
</svg>
