<svg xmlns="http://www.w3.org/2000/svg" width="16" height="16" viewBox="0 0 16 16">
  <defs>
    <style>
      .i-color {
        fill: #000;
        fill-rule: evenodd;
      }
    </style>
  </defs>
  <path id="file_type_yarn.svg" class="i-color" d="M7.511,2.479S8.1,0.7,8.637,1.045A9.179,9.179,0,0,1,9.4,2.488a1.232,1.232,0,0,1,.711-0.234A5.8,5.8,0,0,1,9.078,8.025a4.574,4.574,0,0,1,1.436,4.55c1.378,0,2.087-1.342,3.845-1.425a0.541,0.541,0,0,1,.234,1.055c-1.222.173-2.427,1.538-4.89,2.232-0.318.484-2.216,0.43-3.71,0.564-1.581.017-1.173-1.216-.6-1.425a4.841,4.841,0,0,1-.459-0.383C4.536,15.3,3.457,14.658,2.8,14.477c-0.509-.271.036-0.906,0.036-0.906-0.5.213-.886-0.725-0.828-1.646a2.688,2.688,0,0,1,.873-1.447A4.247,4.247,0,0,1,4.787,6.446a2.02,2.02,0,0,1-.314-2.629C5.458,3.543,5.649,2.374,7.511,2.479Z" transform="translate(0 -1)"/>
</svg>
