<svg xmlns="http://www.w3.org/2000/svg" width="16" height="16" viewBox="0 0 16 16">
  <defs>
    <style>
      .i-color {
        fill: #FF00FF;
        fill-rule: evenodd;
      }
    </style>
  </defs>
  <path id="file_type_actionscript.svg" class="i-color" d="M11.174,9.341A2.586,2.586,0,1,1,9.345,6.176,2.586,2.586,0,0,1,11.174,9.341Zm1.389-1.713A6.757,6.757,0,0,1,12.6,4.2,2.639,2.639,0,0,0,7.5,2.879,6.749,6.749,0,0,1,5.958,5.7a6.41,6.41,0,0,1-3,1.766,2.641,2.641,0,1,0,1.368,5.1,6.349,6.349,0,0,1,3.309-.016,6.782,6.782,0,0,1,2.985,1.776,2.611,2.611,0,0,0,3.609-.108,2.639,2.639,0,0,0,.09-3.631A6.786,6.786,0,0,1,12.562,7.628Z" transform="translate(0 -1)"/>
</svg>
