<svg xmlns="http://www.w3.org/2000/svg" width="32" height="32" viewBox="0 0 32 32">
  <path fill="#7A8387" fill-rule="evenodd" d="M21.5740728,16.377975 C21.5562982,15.0237715 21.9251214,14.0128404 22.6805425,13.3451814 C23.4359637,12.6775225 23.8397807,12.3259184 23.8919936,12.2903691 C23.2498857,11.3705329 22.520571,10.7889697 21.7040497,10.5456797 C20.8875283,10.3023896 20.3059652,10.1807446 19.9593602,10.1807446 C19.1261751,10.0940934 18.3407594,10.2329575 17.6031129,10.5973371 C16.8654664,10.9617167 16.2794596,11.1439065 15.8450924,11.1439065 C15.4284999,11.1439065 14.9074815,10.9878232 14.2820373,10.6756565 C13.6565931,10.3634899 13.0055978,10.2074065 12.3290515,10.2074065 C11.4092153,10.2251811 10.5543674,10.476803 9.76450798,10.9622722 C8.97464856,11.4477413 8.34531612,12.0987366 7.87651067,12.9152579 C7.40770522,13.7317793 7.12997687,14.6299527 7.04332562,15.6097784 C6.95667438,16.589604 7,17.5660968 7.17330249,18.539257 C7.34660498,19.5124171 7.61988967,20.450028 7.99315657,21.3520897 C8.36642347,22.2541514 8.77857234,23.0440108 9.22960318,23.721668 C9.68063402,24.3637759 10.1838778,24.9797774 10.7393345,25.5696724 C11.2947912,26.1595674 11.91968,26.4461831 12.6140008,26.4295194 C13.3083217,26.395081 13.8637784,26.2389977 14.2803709,25.9612694 C14.6969634,25.683541 15.3129649,25.5446768 16.1283754,25.5446768 C16.9615604,25.5446768 17.5820055,25.6879847 17.9897107,25.9746003 C18.397416,26.261216 18.9573163,26.4045238 19.6694118,26.4045238 C20.398171,26.3867492 21.0141725,26.1045772 21.5174162,25.5580078 C22.02066,25.0114384 22.4977973,24.4170997 22.9488281,23.7749918 C23.4698465,23.0106834 23.8431134,22.3208062 24.0686288,21.7053601 C24.2941442,21.0899141 24.4157893,20.7555292 24.4335639,20.7022054 C24.4157893,20.7022054 23.938652,20.385595 23.002152,19.7523744 C22.065652,19.1191538 21.5885147,17.9954649 21.5707401,16.3813077 L21.5707401,16.3813077 L21.5740728,16.377975 Z M18.8662214,8.41105957 C19.2483756,7.96002874 19.5477668,7.43512216 19.7643949,6.83633984 C19.981023,6.23755752 20.0548987,5.62544424 19.9860221,5 C19.44834,5.01777461 18.883996,5.1783016 18.2929901,5.48158096 C17.7019842,5.78486031 17.2159596,6.16257087 16.8349163,6.61471262 C16.4872004,7.01353053 16.1878092,7.51233064 15.9367428,8.11111296 C15.6856764,8.70989528 15.6034688,9.31312125 15.69012,9.92079087 C16.2977896,9.9730038 16.8837965,9.84691513 17.4481405,9.54252486 C18.0124845,9.23813459 18.4857336,8.86042404 18.8678878,8.4093932 L18.8678878,8.4093932 L18.8662214,8.41105957 Z"/>
</svg>
