<svg xmlns="http://www.w3.org/2000/svg" width="16" height="16" viewBox="0 0 16 16">
  <defs>
    <style>
      .i-color {
        fill: #7A8387;
        fill-rule: evenodd;
      }
    </style>
  </defs>
  <path id="file_type_applescript.svg" class="i-color" d="M13.749,11.91a7.579,7.579,0,0,1-.766,1.353A6.905,6.905,0,0,1,12,14.436a1.93,1.93,0,0,1-1.268.549,3.224,3.224,0,0,1-1.171-.275A3.411,3.411,0,0,0,8.3,14.436a3.527,3.527,0,0,0-1.3.274A3.538,3.538,0,0,1,5.878,15a1.817,1.817,0,0,1-1.3-.563A7.26,7.26,0,0,1,3.55,13.222a8.34,8.34,0,0,1-1.091-2.13A7.68,7.68,0,0,1,2,8.553a4.573,4.573,0,0,1,.62-2.426,3.6,3.6,0,0,1,1.3-1.29,3.536,3.536,0,0,1,1.754-.486,4.192,4.192,0,0,1,1.357.31A4.422,4.422,0,0,0,8.1,4.973,6.524,6.524,0,0,0,9.3,4.606a4.007,4.007,0,0,1,1.622-.283,3.461,3.461,0,0,1,2.7,1.4A2.941,2.941,0,0,0,12.026,8.4a2.932,2.932,0,0,0,.988,2.227,3.249,3.249,0,0,0,.987.636q-0.119.338-.252,0.649h0ZM11,1.28a2.958,2.958,0,0,1-.779,1.959,2.672,2.672,0,0,1-2.2,1.069A2.142,2.142,0,0,1,8,4.043a3.04,3.04,0,0,1,.827-1.98,3.178,3.178,0,0,1,1.007-.743A3.043,3.043,0,0,1,10.985,1,2.512,2.512,0,0,1,11,1.28h0Z" transform="translate(0 -1)"/>
</svg>
