<svg xmlns="http://www.w3.org/2000/svg" width="32" height="32" viewBox="0 0 32 32">
  <path fill="#F4BF75" fill-rule="evenodd" d="M25.1950914,16.0049271 C25.8082851,16.2534904 26.0531708,16.7506169 25.99048,17.4963068 C25.9297484,18.3672726 25.5007087,18.7391233 24.5818977,18.8643992 L24.5818977,18.9896751 C24.5818977,19.2998821 24.4584753,19.5484454 24.2135897,19.6737213 C23.7238184,20.0475605 23.234047,20.1708479 22.6208534,20.1092042 C22.5601217,20.0475605 22.497431,20.0475605 22.3759677,20.0475605 C21.8861964,20.7316067 20.9066537,20.9185263 20.0485744,20.4213997 C20.0485744,20.359756 19.9878427,20.359756 19.925152,20.2961238 C19.556844,20.7316067 19.1297634,20.7316067 18.6399921,20.669963 C18.3343748,20.6083193 18.0894891,20.4830434 17.7819127,20.4213997 C17.7819127,20.4213997 17.7819127,20.4830434 17.8426444,20.5466756 C18.08753,21.0438022 18.3931473,21.6025725 18.7007237,22.1633313 C18.8241461,22.4118946 18.8241461,22.7221016 18.7614554,23.0342971 C18.638033,23.2828604 18.5165697,23.4081363 18.3324157,23.5314237 C18.271684,23.5314237 18.2089933,23.5930674 18.2089933,23.5930674 C18.0855709,24.1518377 17.719222,24.400401 17.2294507,24.5256769 C17.0452966,24.5256769 16.800411,24.4640332 16.616257,24.5256769 C16.432103,24.5873206 16.3106397,24.7742402 16.1872173,24.8358839 C15.7581776,25.0844472 15.3291379,25.0228035 14.962789,24.8358839 C14.8393666,24.8358839 14.778635,24.7742402 14.6571717,24.8358839 C14.2888637,25.0844472 13.6168974,24.8358839 13.4327434,24.400401 C13.2485894,23.9649181 13.1271261,23.5294352 12.9429721,23.0959408 C12.9429721,23.0342971 12.8822404,22.9706649 12.8822404,22.9090212 C12.7588181,23.0959408 12.6980864,23.2192282 12.5766231,23.3445041 C12.0261202,23.9669066 11.2914632,24.0285503 10.5568062,23.5930674 C9.88288086,23.1575845 9.39310954,22.5988142 8.90333822,21.9764117 C7.73964157,20.2981123 7.06571623,18.3712496 7.00498459,16.3210996 C6.94425294,14.2709495 7.43402426,12.4057305 8.71918421,10.852707 C9.94361251,9.23605134 11.5970805,8.36707405 13.5561658,8.05686706 C14.4749768,7.93159116 15.3937878,7.99522336 16.1891764,8.43070626 C17.2921414,8.98947655 17.9641076,9.86044234 18.3324157,10.9779829 C18.3931473,11.1649025 18.455838,11.2265462 18.5773013,11.2265462 C18.822187,11.2881899 19.0670727,11.3518221 19.2512267,11.4134658 C20.1700377,9.42495945 22.6188943,8.49234995 23.9040542,8.92783285 L23.7199002,9.11475245 C23.1693972,9.73715495 22.8010892,10.4828448 22.7403576,11.2901784 C22.6796259,11.6640176 22.6169352,12.0358683 22.4954719,12.4097075 C22.1271639,13.5908803 21.2710436,14.1496506 20.1680786,14.3365702 L19.4941532,14.3365702 C19.3707309,14.3365702 19.3099992,14.3365702 19.2492676,14.2112943 L19.0651136,13.8374551 C18.5753422,13.8374551 18.3911882,14.0243747 18.2697249,14.583145 C18.5146106,14.6447887 18.8202279,14.6447887 19.1278043,14.7084209 C20.8420039,14.9569842 22.5562035,15.1439038 24.2704032,15.6410304 L25.1950914,16.0049271 Z M21.0320352,13.4576504 C21.0927668,13.4576504 21.0927668,13.3960067 21.1554576,13.3323745 C20.9105719,13.2707308 20.7264179,13.2070986 20.5422639,13.2070986 C20.2366466,13.0818227 20.2366466,13.0818227 20.0524926,13.3940182 L19.9917609,13.3940182 C19.9917609,13.020179 19.9310293,13.020179 19.6234529,13.020179 C19.5000305,13.020179 19.4392989,13.020179 19.5000305,13.1454549 C19.5607621,13.3323745 19.5607621,13.5192941 19.6234529,13.7042252 C19.6841845,13.7658689 19.7468752,13.8295011 19.8076069,13.7658689 C20.2366466,13.7658689 20.6656862,13.640593 21.0320352,13.4556619 L21.0320352,13.4576504 Z M19.8683385,11.469144 C19.8076069,11.5307877 19.7449162,11.5944199 19.8683385,11.6560636 C19.9917609,11.7813395 20.1739558,11.8429832 20.3581099,11.9046269 C20.7871495,11.158937 21.2161892,10.4132471 22.0723095,10.0394079 L22.0115778,10.0394079 C21.4610749,10.5981782 21.0320352,11.2822244 20.7264179,12.0279143 C20.6656862,12.089558 20.6656862,12.1531902 20.7264179,12.1531902 C20.9713035,12.4633972 21.2769208,12.7119605 21.6452289,12.9605238 C21.7059605,12.8352479 21.8293829,12.6503168 21.8293829,12.5250409 C22.0135369,12.0279143 22.1350002,11.5307877 22.2584226,11.0953048 C22.3191542,10.5981782 22.4425766,10.1626953 22.6874623,9.72721242 C22.7481939,9.60193651 22.8108846,9.47864912 22.9323479,9.35337322 C22.3191542,9.41501691 21.8293829,9.60193651 21.3396116,9.91214351 C20.7264179,10.2859827 20.1759149,10.7831093 19.8702976,11.465167 L19.8683385,11.469144 Z M17.2960596,13.0221675 L17.2960596,13.0221675 C17.2353279,13.3323745 17.3567912,13.64457 17.4802136,13.954777 C17.4802136,13.8931333 17.5409452,13.8931333 17.5409452,13.8931333 C17.9699849,13.7062137 18.3990246,13.5192941 18.8887959,13.2707308 C18.9495275,13.2707308 18.9495275,13.2090871 19.0122183,13.1454549 L18.9514866,13.0838112 C18.706601,13.1454549 18.4617153,13.2090871 18.156098,13.2707308 C17.8504807,13.2707308 17.5429043,13.3323745 17.2980186,13.0221675 L17.2980186,13.0221675 C17.7270583,13.1474434 18.156098,13.1474434 18.5831786,12.9605238 C19.0729499,12.7119605 19.6234529,12.7119605 20.1132242,12.8352479 L20.8478812,13.0221675 C20.6637272,12.8352479 20.5422639,12.7119605 20.3581099,12.5866846 C19.6234529,12.089558 18.8280643,11.7157188 17.9699849,11.6540751 C17.8465625,11.6540751 17.7250992,11.6540751 17.7250992,11.7157188 C17.4194819,12.089558 17.2353279,12.5230524 17.2960596,13.020179 L17.2960596,13.020179 L17.2960596,13.0221675 Z M14.3574316,10.7234541 C13.4386206,10.7234541 12.7039637,11.4075003 12.7039637,12.3401098 C12.7039637,13.334363 13.4386206,14.0800529 14.3574316,14.0800529 C15.2762426,14.0800529 16.0108996,13.334363 16.0108996,12.4017535 C16.0108996,11.469144 15.2762426,10.7234541 14.3574316,10.7234541 L14.3574316,10.7234541 Z M18.7653735,16.5636973 C20.3581099,16.7506169 21.8881555,16.4384214 23.4789327,16.315134 C23.4182011,16.315134 23.3555103,16.2534904 23.2947787,16.2534904 C22.2545044,16.0665708 21.212271,15.8180075 20.1719968,15.6947201 C19.4373398,15.5694442 18.6419511,15.5078005 17.9072942,15.3845131 C17.8465625,15.3845131 17.7231402,15.3845131 17.6624085,15.4461568 C17.4782545,15.6330764 17.2941005,15.8816397 17.1119055,16.130203 C16.8062882,16.5040422 16.6221342,16.8758928 16.3772486,17.249732 C15.7033232,18.0570656 14.9079346,18.6178244 13.8676603,18.8027555 C13.1330033,18.9280314 12.459078,18.8643992 11.7851527,18.6774796 C11.724421,18.6158359 11.6009987,18.6158359 11.540267,18.6774796 C10.9270733,19.0513188 10.2551071,19.0513188 9.52045009,18.9876866 C9.15214205,18.9876866 8.78579311,18.8624107 8.41748507,18.7391233 C8.41748507,18.800767 8.41748507,18.8643992 8.47821672,18.9260429 C9.02871968,20.045572 9.76337666,20.976193 10.80561,21.6602392 C11.9693067,22.4059291 13.2544666,22.7797683 14.6023173,22.7161361 C16.0108996,22.5908602 17.1745963,21.5349633 17.4194819,20.1052272 C17.4194819,19.9799513 17.3587503,19.9183076 17.3587503,19.7950202 C17.2353279,19.5464569 17.1745963,19.2362499 17.053133,18.9240544 C17.603636,19.421181 18.706601,19.2342614 18.8280643,18.6754911 C19.0729499,18.7371348 19.2571039,18.800767 19.5019896,18.800767 C19.8702976,18.800767 20.1759149,18.6754911 20.4208006,18.4269278 C20.6049546,18.2400082 20.6656862,18.0530886 20.6049546,17.8045253 L20.7891086,17.8045253 C21.1574166,17.9298012 21.647188,17.7428816 21.8293829,17.4306861 C22.0135369,17.2437665 21.9528053,17.1821228 21.7059605,17.1204791 C21.1554576,16.9952032 20.6029955,16.9335595 20.0524926,16.8102721 C19.6234529,16.7486284 19.1944132,16.6233525 18.7673326,16.5617088 L18.7653735,16.5636973 Z M14.3574316,13.3960067 C13.8069287,13.3960067 13.3171574,12.9605238 13.3171574,12.4017535 C13.3171574,11.8429832 13.8069287,11.3458566 14.3574316,11.3458566 C14.9079346,11.3458566 15.3369743,11.7813395 15.3369743,12.4017535 C15.3369743,12.9605238 14.9079346,13.3960067 14.3574316,13.3960067 L14.3574316,13.3960067 Z M13.8676603,11.7177073 C13.6835063,11.779351 13.6835063,12.0279143 13.8676603,12.1531902 C14.112546,12.3401098 14.6023173,12.3401098 14.7864713,12.1531902 C14.9706253,12.0279143 14.9706253,11.779351 14.7864713,11.7177073 C14.6630489,11.5924314 14.480854,11.5924314 14.3574316,11.5307877 C14.1732776,11.5924314 14.0518143,11.5924314 13.8676603,11.7177073 L13.8676603,11.7177073 Z"/>
</svg>
