<svg xmlns="http://www.w3.org/2000/svg" width="16" height="16" viewBox="0 0 16 16">
  <defs>
    <style>
      .i-color {
        fill: #000;
        fill-rule: evenodd;
      }
    </style>
  </defs>
  <path id="file_type_c.svg" class="i-color" d="M9.8,6.6a1.9,1.9,0,0,0-1.818-1.7C6.344,4.86,5.5,6.143,5.5,7.977s0.931,3.3,2.528,3.3S9.8,9.445,9.8,9.445l3.06,0.183a3.838,3.838,0,0,1-1.1,2.92,5.389,5.389,0,0,1-3.95,1.461,5.084,5.084,0,0,1-4.092-1.487A5.74,5.74,0,0,1,2,8.121a5.841,5.841,0,0,1,2.029-4.78A5.479,5.479,0,0,1,7.63,2,5.1,5.1,0,0,1,13,6.634L9.8,6.6h0Z" transform="translate(0 -1)"/>
</svg>
