<svg xmlns="http://www.w3.org/2000/svg" width="16" height="16" viewBox="0 0 16 16">
  <defs>
    <style>
      .i-color {
        fill: #000;
        fill-rule: evenodd;
      }
    </style>
  </defs>
  <path id="file_type_clojure.svg" class="i-color" d="M5.079,4.673a5.581,5.581,0,0,0-.394.42A4.309,4.309,0,0,0,3.9,9.616a4.277,4.277,0,0,0,3.649,2.806,4.341,4.341,0,0,0,2.336-.367,0.333,0.333,0,0,1,.223-0.026,6.551,6.551,0,0,0,3.413.066c0.066-.013.118-0.026,0.223-0.039-0.039.066-.066,0.1-0.092,0.144A6.825,6.825,0,0,1,8.911,14.94a6.98,6.98,0,0,1-7.534-4.76,6.344,6.344,0,0,1-.315-2.846,3.185,3.185,0,0,1,.827-1.665A3.188,3.188,0,0,1,4.908,4.62C4.96,4.633,5,4.646,5.079,4.673Zm6.143,6.5c0.249-.38.538-0.721,0.748-1.115A4.452,4.452,0,0,0,6.378,3.873a0.364,0.364,0,0,1-.236,0,3.67,3.67,0,0,0-3.583-.066,0.7,0.7,0,0,1-.144.066A0.041,0.041,0,0,1,2.388,3.86a6.74,6.74,0,0,1,1.5-1.495A6.983,6.983,0,0,1,14.871,6.626a5.723,5.723,0,0,1,.079,2.164,2.674,2.674,0,0,1-2.008,2.255A4.222,4.222,0,0,1,11.222,11.177ZM6.9,4.463a8.7,8.7,0,0,1,.971-0.144,3.673,3.673,0,0,1,3.806,3.121A3.58,3.58,0,0,1,10.329,10.9a0.274,0.274,0,0,1-.249.039,1.2,1.2,0,0,1-.643-0.551A7.774,7.774,0,0,1,8.544,8.5C8.334,7.872,8.15,7.23,7.953,6.587A5.9,5.9,0,0,0,6.969,4.62C6.956,4.594,6.942,4.581,6.929,4.555A0.181,0.181,0,0,1,6.9,4.463Zm-1.089,6.53c-0.21-.21-0.42-0.393-0.617-0.6a3.7,3.7,0,0,1,.551-5.3,0.226,0.226,0,0,1,.315-0.013,2.181,2.181,0,0,1,.774.879c0.223,0.459.433,0.918,0.63,1.39a0.373,0.373,0,0,1-.026.262c-0.368.734-.748,1.456-1.1,2.19C6.142,10.167,6,10.56,5.814,10.993ZM7.73,8.174a8.675,8.675,0,0,0,1.457,3.37c-0.328.053-.6,0.118-0.893,0.157A3.824,3.824,0,0,1,6.9,11.544a0.188,0.188,0,0,1-.158-0.21,3.141,3.141,0,0,1,.21-1.3c0.223-.59.473-1.167,0.722-1.757Z" transform="translate(0 -1)"/>
</svg>
