<svg xmlns="http://www.w3.org/2000/svg" width="32" height="32" viewBox="0 0 32 32">
  <path fill="#AB7558" fill-rule="evenodd" d="M16.9926267,7.14304102 C17.9194139,6.91134421 19.7729884,6.96880502 20.6423148,7.25981621 C22.4384284,7.89744582 22.4384284,9.46186266 20.6423148,9.86594189 C19.077898,10.1550995 17.2243235,9.80848108 17.2243235,9.11339066 C17.2243235,8.76491866 17.8619531,8.64999705 18.3253467,8.93915466 C18.8462012,9.34508747 20.0639996,9.28762666 20.5273932,8.88169385 C21.0482476,8.47576105 20.8758652,8.18660343 19.8897636,8.01236744 C18.903662,7.83813144 17.3410987,8.24406424 15.8341427,8.99661547 C14.7331194,9.51746989 14.3271866,9.63424508 13.3429386,9.69170589 C12.0676794,9.69170589 11.4319033,9.51746989 10.9091954,8.87984028 C10.6200377,8.59068266 10.6200377,8.47390747 10.7349594,8.06797467 C11.0834313,7.43034506 12.8202306,7.08372664 13.5727818,7.54712025 C13.9787146,7.83627786 13.689557,7.95305305 12.7034554,7.95305305 C11.5449714,7.89559225 11.0815778,8.18474986 11.4875106,8.59068266 C11.8359826,9.05407628 13.2261634,8.93915466 14.2104114,8.41644667 C16.0065251,7.48965944 16.3531435,7.31542344 16.9907731,7.14118744 L16.9926267,7.14304102 Z M6.62558479,8.76491866 C7.32067521,8.30152505 7.60983283,8.24406424 7.37813602,8.64814347 C7.26136083,8.76491866 7.26136083,9.05407628 7.26136083,9.22831228 C7.43559683,9.86594189 9.8100257,10.6759539 12.0120722,10.9076507 C12.6497018,10.9651115 13.402253,11.0244259 13.6914106,11.0818867 C14.3290402,11.1393475 18.4421219,11.1393475 19.7729884,11.0244259 C23.4226765,10.7927291 26.3179598,9.80848108 26.0288022,8.88169385 C25.7971053,8.24406424 26.5496566,8.64999705 26.9555894,9.40254827 C27.1298254,9.75102027 26.7813534,10.3293355 26.086263,10.6778075 C25.5060942,11.0262795 23.2484405,11.6620555 22.3791141,11.7213699 C22.0899564,11.7788307 21.394866,11.8956059 20.872158,11.9530667 C19.713674,12.1273027 13.4578602,12.1273027 12.182601,11.9530667 C10.2122514,11.7213699 9.63393613,11.6045947 8.3012161,11.2005155 C6.79426007,10.7371219 5.86747284,10.0420315 5.98424803,9.52117704 C5.98424803,9.28948023 6.27340565,8.94100824 6.62187765,8.76862581 L6.62558479,8.76491866 Z M6.21965199,12.008674 C6.1028768,11.3710443 6.16219118,11.2561227 6.33642718,11.4878195 C6.56812399,11.8362915 8.53847363,12.6463036 9.34848566,12.7630788 C9.63764328,12.8205396 10.0435761,12.8798539 10.2752729,12.9373148 C11.8971505,13.3432476 18.9648299,13.4581692 21.1650228,13.1690116 C23.9453845,12.8205396 25.9157341,12.2422243 26.5515101,11.6620555 C26.957443,11.3135835 26.957443,11.3135835 26.957443,11.6045947 C26.957443,12.2422243 26.0881165,14.9651252 25.5098013,16.2959917 C25.1613293,16.9910821 24.4087781,18.2070269 23.7711485,19.0763533 C23.1335189,19.9456798 22.4958892,21.046703 22.3809676,21.5100966 C21.6858772,23.4804462 20.1789212,24.1755367 16.5310867,24.1755367 C12.9388594,24.1755367 11.4912177,23.537907 10.7961273,21.6268718 C10.6218913,21.1634782 9.92680089,19.9475333 9.28917128,19.0207461 C8.59408086,18.0939589 7.89899044,16.9929357 7.66729364,16.5870028 C7.49305764,16.18107 7.26136083,15.8344516 7.26136083,15.8344516 C7.20390002,15.8344516 7.02966402,16.0661484 6.85542803,16.2978452 C6.44949522,16.9354748 6.39203441,18.2681949 6.73865284,19.1356677 C7.14458564,20.1199158 8.36053048,21.1634782 9.2298569,21.2783998 C10.3308801,21.5100966 9.8100257,21.7992542 8.36053048,21.8585686 C7.25950726,21.9160294 7.08527126,21.8585686 6.50695603,21.395175 C5.29101119,20.5258486 5,19.9475333 5,18.4405773 C5,17.3395541 5.05746081,17.0503965 5.46339361,16.4127669 C5.69509042,16.0642949 6.10102322,15.5434404 6.39018084,15.2542828 L6.91103526,14.84835 L6.62187765,13.8047876 C6.44764165,13.2839332 6.27340565,12.4720676 6.21594484,12.008674 L6.21965199,12.008674 Z"/>
</svg>
