<svg xmlns="http://www.w3.org/2000/svg" width="16" height="16" viewBox="0 0 16 16">
  <defs>
    <style>
      .i-color {
        fill: #000;
        fill-rule: evenodd;
      }
    </style>
  </defs>
  <path id="file_type_coffeescript.svg" class="i-color" d="M6.554,2.492A0.21,0.21,0,0,1,6.4,2.71a1.636,1.636,0,0,0-.817-0.122C5.264,2.614,5,2.723,5.035,2.955s0.357,0.367.906,0.313c1.34-.122,1.328-1.089,3.294-1.279,1.532-.15,2.387.354,2.5,0.966,0.089,0.476-.281.939-1.392,1.034-0.983.1-1.557-.191-1.609-0.476-0.026-.15.051-0.367,0.523-0.422a0.759,0.759,0,0,0,.957.408c0.46-.041.843-0.218,0.792-0.49s-0.536-.449-1.3-0.381C8.15,2.778,7.767,3.69,6.439,3.812A1.552,1.552,0,0,1,4.626,3c-0.038-.2-0.038-0.68.957-0.776a0.918,0.918,0,0,1,.97.272h0ZM1.575,8.181a2.947,2.947,0,0,0-.587,1.933,2.292,2.292,0,0,0,.83,1.633,1.913,1.913,0,0,0,1.685.422,5.5,5.5,0,0,0,.753-0.259,2.048,2.048,0,0,1-1.379-.544,2.232,2.232,0,0,1-.868-1.511,2.133,2.133,0,0,1,.306-1.606,1.965,1.965,0,0,1,1.379-.8,2.3,2.3,0,0,1,1.609.5,3.608,3.608,0,0,0-.434-0.463,1.957,1.957,0,0,0-1.736-.367A2.6,2.6,0,0,0,1.575,8.181h0ZM8.418,5.037a19.246,19.246,0,0,1-4.175-.422c-1.136-.3-1.736-0.626-1.736-1.048a0.615,0.615,0,0,1,.306-0.5c-0.715.3-1.1,0.544-1.1,0.925,0.038,0.422.677,0.844,1.979,1.17a18.6,18.6,0,0,0,4.685.5,18.384,18.384,0,0,0,4.685-.5c1.3-.327,1.928-0.762,1.928-1.17a1.051,1.051,0,0,0-.791-0.8,0.466,0.466,0,0,1,.2.367c0,0.422-.587.762-1.775,1.048a18.534,18.534,0,0,1-4.213.436h0Zm4.7,1.17a19.947,19.947,0,0,1-4.685.5,20.81,20.81,0,0,1-4.724-.5,3.228,3.228,0,0,1-1.889-.966,12.952,12.952,0,0,0,1.3,4.083c0.472,0.762.945,1.429,1.417,2.15a5.509,5.509,0,0,1,.434,1.266,2.285,2.285,0,0,0,1.3.925,5.019,5.019,0,0,0,2.094.327H8.443a5.6,5.6,0,0,0,2.157-.327,2.444,2.444,0,0,0,1.264-.925H11.9a5.364,5.364,0,0,1,.4-1.266c0.472-.721.945-1.388,1.417-2.15a13.756,13.756,0,0,0,1.3-4.083,3.13,3.13,0,0,1-1.9.966h0Z" transform="translate(0 -1)"/>
</svg>
