<svg xmlns="http://www.w3.org/2000/svg" width="16" height="16" viewBox="0 0 16 16">
  <defs>
    <style>
      .i-color {
        fill: #000;
        fill-rule: evenodd;
      }
    </style>
  </defs>
  <path id="file_type_composer.svg" class="i-color" d="M11.815,11.794a1.684,1.684,0,0,1,.15-0.742,2.293,2.293,0,0,0,.155-0.538,8.437,8.437,0,0,1,.464-1.783,1.946,1.946,0,0,0,.354-1.246,0.871,0.871,0,0,1-.027-0.343A0.535,0.535,0,0,0,12.894,6.9a0.158,0.158,0,0,1,0-.174c0.04-.052.013-0.109-0.137-0.282a1.166,1.166,0,0,1-.173-0.225,1.484,1.484,0,0,1,.173-0.078l0.155-.07,0.044-.594C12.987,5.155,13,4.89,13,4.89s-0.2.056-.437,0.13-0.455.13-.486,0.13a1.047,1.047,0,0,1-.309-0.633,1.191,1.191,0,0,1-.124-0.651,4.5,4.5,0,0,0-.212-1.375,4.161,4.161,0,0,0-.739-1.443,0.222,0.222,0,0,0-.322.043c-0.058.109-.053,0.122,0.155,0.594L10.684,2.05,10.41,1.838a4.014,4.014,0,0,0-1.542-.825C8.655,0.987,8.647.991,8.6,1.122a0.262,0.262,0,0,1-.133.152c-0.058.017-.08,0.065-0.08,0.186a0.851,0.851,0,0,0,.455.59,2.989,2.989,0,0,1,.415.425A2.62,2.62,0,0,1,8.881,2.25a0.941,0.941,0,0,0-.535-0.23c-0.371,0-.362.252,0.018,0.517a5.517,5.517,0,0,1,.584.517L9.292,3.4l-0.309.052a1.167,1.167,0,0,0-.729.243c-0.093.169-.035,0.217,0.477,0.382a2.968,2.968,0,0,1,.6.252,1.8,1.8,0,0,0,.642.367,0.455,0.455,0,0,1,.283.174,0.35,0.35,0,0,0,.151.148,0.412,0.412,0,0,1,.177.286,0.722,0.722,0,0,1,.049.269c-0.013.009-.195,0.074-0.4,0.135l-0.38.117,0.323,0.564c0.3,0.525.327,0.564,0.442,0.551,0.146-.013.146-0.013,0.022,0.191l-0.1.161,0.1,0.182a0.422,0.422,0,0,1,.071.282c-0.027.083-.044,0.07-0.133-0.117a3.079,3.079,0,0,0-.619-0.8,1.135,1.135,0,0,0-.888-0.317L8.67,6.51l-0.207-.2A2.113,2.113,0,0,0,8,5.994a1.361,1.361,0,0,0-.809-0.126H6.642l-0.42.217A3.879,3.879,0,0,0,4.777,7.473a1.7,1.7,0,0,1-.234.343c0-.022-0.022-0.122-0.04-0.221-0.035-.178-0.035-0.182.1-0.2s0.137-.026.23-0.4c0.053-.217.111-0.434,0.128-0.482,0.027-.087,0-0.1-0.371-0.191a0.5,0.5,0,0,1-.4-0.169,1.764,1.764,0,0,1,.19-0.607,0.387,0.387,0,0,0,.084-0.156,0.452,0.452,0,0,1,.216-0.2,1.27,1.27,0,0,0,.649-0.8,3.386,3.386,0,0,1,.614-0.9,3,3,0,0,0,.323-0.373A0.47,0.47,0,0,0,6.018,2.85L7.755,1.642,7.561,1.416S5.082,3.11,5.068,3.11a1.177,1.177,0,0,1-.119-0.286L4.856,2.542l0.3-.282c0.323-.3.393-0.417,0.309-0.517C5.43,1.7,5.351,1.717,5.015,1.878a7.168,7.168,0,0,1-.773.308c-0.34.1-.371,0.1-0.446,0.039C3.609,2.06,3.49,2.16,3.03,2.859a1.115,1.115,0,0,1-.2.252A1.667,1.667,0,0,1,2.58,2.728a4.65,4.65,0,0,0-.3-0.477c-0.119-.126-0.234-0.122-0.269.009a7.181,7.181,0,0,0,.473,1.927c0.1,0.3.106,0.317,0.031,0.356S2.435,4.6,2.479,4.716c0.035,0.1.071,0.122,0.128,0.1s0.106,0.03.207,0.256a0.527,0.527,0,0,1,.057.534C2.832,5.753,2.8,5.87,2.8,5.875a1.628,1.628,0,0,1-.243-0.052c-0.4-.1-0.376-0.135-0.433.508-0.031.317-.053,0.607-0.053,0.646s0.058,0.083.2,0.1l0.2,0.026-0.031.26a0.372,0.372,0,0,0,.04.338,8.535,8.535,0,0,1,.111,2.248l0,0.612,0.168,0.052a0.363,0.363,0,0,1,.318.277,0.376,0.376,0,0,0,.19.221c0.1,0.07.491,0.347,0.857,0.616a4.052,4.052,0,0,1,.618.485c0.874,0.6,2.741,1.659,2.741,1.659l-0.075.161A3.67,3.67,0,0,0,7.128,15l1.917-1.165Z" transform="translate(0 -1)"/>
</svg>
