<svg xmlns="http://www.w3.org/2000/svg" width="32" height="32" viewBox="0 0 32 32">
  <path fill="#6A9FB5" fill-rule="evenodd" d="M9.05777055,25 L12.4898291,25 L13.4052075,20.3103448 L16.8372661,20.3103448 L15.9218877,25 L19.3539463,25 L20.2693247,20.3103448 L24.0065094,20.3103448 L24.0065094,17.8928276 L20.8795769,17.8928276 L21.4898291,14.9617931 L25,14.9617931 L25,12.5442759 L21.9487388,12.5442759 L22.9397884,8 L19.5834011,8 L18.5923515,12.5442759 L15.1602929,12.5442759 L16.1513426,8 L12.719284,8 L11.8039056,12.5442759 L8.06672091,12.5442759 L8.06672091,14.9617931 L11.2717657,14.9617931 L10.6615134,17.8928276 L7,17.8928276 L7,20.3103448 L10.0512612,20.3103448 L9.05777055,25 Z M17.4499593,17.8928276 L14.0179007,17.8928276 L14.628153,14.9617931 L18.0602116,14.9617931 L17.4499593,17.8928276 Z"/>
</svg>
