<svg xmlns="http://www.w3.org/2000/svg" width="16" height="16" viewBox="0 0 16 16">
  <defs>
    <style>
      .i-color {
        fill: #6A9FB5;
        fill-rule: evenodd;
      }
    </style>
  </defs>
  <path id="file_type_c_.svg" data-name="file_type_c#.svg" class="i-color" d="M13.537,5.177q0-1.088,0-2.176h0.451c0,0.685,0,1.37,0,2.055L15,4.778q0,0.573,0,1.146c-0.337.093-.674,0.184-1.01,0.278q0,1.4,0,2.8L15,8.728Q15,9.3,15,9.874c-0.337.094-.674,0.184-1.01,0.278,0,0.676,0,1.352,0,2.028H13.537c0-.637,0-1.274,0-1.912q-1.008.276-2.015,0.555c0,0.726,0,1.451,0,2.178H11.066c0-.685,0-1.37,0-2.055-0.336.091-.671,0.185-1.007,0.276q0-.576,0-1.153c0.335-.094.672-0.184,1.007-0.277q0-1.4,0-2.8c-0.336.091-.671,0.184-1.007,0.276q0-.574,0-1.146c0.335-.094.672-0.184,1.007-0.277q0-1.015,0-2.031h0.456c0,0.638,0,1.276,0,1.914q1.008-.276,2.015-0.555m-2.014,1.7q0,1.4,0,2.8l2.015-.555q0-1.4,0-2.8ZM3.344,3.546a4.648,4.648,0,0,1,2.592-.408A3.532,3.532,0,0,1,8.157,4.246,4.04,4.04,0,0,1,9.015,5.86l-1.2.29A2.747,2.747,0,0,0,6.548,4.444a3.138,3.138,0,0,0-2.362-.086A2.814,2.814,0,0,0,2.5,6.255a6.475,6.475,0,0,0-.117,2.984,3.136,3.136,0,0,0,1.175,2.04,3,3,0,0,0,2.531.412,2.381,2.381,0,0,0,1.495-1.25A4.446,4.446,0,0,0,7.955,9.4C8.361,9.5,8.768,9.606,9.174,9.715a4.324,4.324,0,0,1-1.341,2.312,3.872,3.872,0,0,1-2.615.841,3.945,3.945,0,0,1-2.894-1.1A5.385,5.385,0,0,1,1.045,8.755a6.536,6.536,0,0,1,.344-3.074A4.093,4.093,0,0,1,3.344,3.546h0Z" transform="translate(0 -1)"/>
</svg>
