<svg xmlns="http://www.w3.org/2000/svg" width="16" height="16" viewBox="0 0 16 16">
  <defs>
    <style>
      .i-color {
        fill: #000;
        fill-rule: evenodd;
      }
    </style>
  </defs>
  <path id="file_type_erlang.svg" class="i-color" d="M2.516,11.99a6.286,6.286,0,0,1-1.964-4.7A6.145,6.145,0,0,1,2.187,3.011H0.011V11.99H2.516Zm11.454,0A9.384,9.384,0,0,0,15.418,10.2L13.01,9.131a4.741,4.741,0,0,1-3.791,2.352c-2.488-.008-3.466-1.9-3.461-4.329h9.3a3.69,3.69,0,0,0,0-.534A5.17,5.17,0,0,0,13.9,3.009l0,0h2.094v8.979H13.971ZM5.909,5.069A2.125,2.125,0,0,1,8.135,3.225a1.878,1.878,0,0,1,2.016,1.844H5.909Z" transform="translate(0 0)"/>
</svg>
