<svg xmlns="http://www.w3.org/2000/svg" width="16" height="16" viewBox="0 0 16 16">
  <defs>
    <style>
      .i-color {
        fill: #000;
        fill-rule: evenodd;
      }
    </style>
  </defs>
  <path id="file_type_eslint.svg" class="i-color" d="M10.9,9.595L8.027,11.212,5.156,9.595V6.36L8.027,4.742,10.9,6.36V9.595Zm4.015-1.244-3.177,5.358a0.628,0.628,0,0,1-.559.292H4.823a0.631,0.631,0,0,1-.559-0.295L1.086,8.356a0.628,0.628,0,0,1,0-.636L4.263,2.339A0.672,0.672,0,0,1,4.823,2h6.354a0.672,0.672,0,0,1,.559.339l3.177,5.393A0.6,0.6,0,0,1,14.913,8.351Zm-2.631,2.1V5.644L8,3.234l-4.28,2.41V10.45L8,12.86Z" transform="translate(0 -1)"/>
</svg>
