<svg xmlns="http://www.w3.org/2000/svg" width="32" height="32" viewBox="0 0 32 32">
  <path fill="#AC4142" fill-rule="evenodd" d="M26.565148,15.0232187 L16.9672044,5.42697625 C16.7033032,5.14232542 16.3731017,5 15.9765999,5 C15.5800981,5 15.2401465,5.14232542 14.9567453,5.42697625 L12.9755363,7.4078341 L15.5046977,9.93654732 C15.789399,9.83516484 16.0890504,9.82021742 16.4036518,9.89170507 C16.7182533,9.96319272 16.9977545,10.1204656 17.2421556,10.3635236 C17.4657567,10.587085 17.6133073,10.8561385 17.6848077,11.1706842 C17.756308,11.4852298 17.7413579,11.7952263 17.6399575,12.1006735 L20.0774685,14.5377526 C20.3621698,14.4363701 20.6618212,14.4162236 20.9764226,14.477313 C21.2910241,14.5384025 21.5705253,14.6904762 21.8149264,14.9335342 C22.1399279,15.2584781 22.3024286,15.6542597 22.3024286,16.1208791 C22.3024286,16.5874985 22.1399279,16.9832802 21.8149264,17.308224 C21.489925,17.6331679 21.0940732,17.7956398 20.627371,17.7956398 C20.1606689,17.7956398 19.7648171,17.6331679 19.4398156,17.308224 C19.1954145,17.0638662 19.0433138,16.7746662 18.9835136,16.4406239 C18.9237133,16.1065816 18.9542634,15.7868368 19.075164,15.4813896 L16.7897536,13.1963843 L16.7897536,19.1974477 C16.871654,19.2377408 16.9477043,19.2832329 17.0179046,19.3339241 C17.0881049,19.3846154 17.1641553,19.4405057 17.2460557,19.5015952 C17.5710571,19.8265391 17.7335579,20.2223207 17.7335579,20.6889401 C17.7335579,21.1555595 17.5710571,21.5513411 17.2460557,21.876285 C16.9210542,22.2220253 16.5252024,22.3948954 16.0585003,22.3948954 C15.5917981,22.3948954 15.1959463,22.2220253 14.8709449,21.876285 C14.5251433,21.5513411 14.3522425,21.1555595 14.3522425,20.6889401 C14.3522425,20.2223207 14.5251433,19.8265391 14.8709449,19.5015952 C14.9528452,19.4197093 15.0392956,19.3488716 15.130296,19.2890819 C15.2212965,19.2292922 15.3174969,19.178601 15.4188974,19.1370082 L15.4188974,13.1047501 C15.3174969,13.064457 15.2212965,13.0137658 15.130296,12.9526764 C15.0392956,12.8915869 14.9528452,12.8207491 14.8709449,12.7401631 C14.6070437,12.4958053 14.4445429,12.2014061 14.3834427,11.8569656 C14.3223424,11.5125251 14.3632926,11.1875812 14.5062932,10.882134 L12.0083319,8.38461538 L5.42705194,14.9959234 C5.14235065,15.2597779 5,15.5899208 5,15.9863524 C5,16.3827839 5.14235065,16.7129269 5.42705194,16.9767813 L15.0249956,26.5730238 C15.2888968,26.8576746 15.6190983,27 16.0156001,27 C16.4121019,27 16.7520534,26.8576746 17.0354547,26.5730238 L26.5729481,17.0372208 C26.8576494,16.75257 27,16.4172279 27,16.0311946 C27,15.6451613 26.8576494,15.3098192 26.5729481,15.0251684 L26.5729481,15.0251684 L26.565148,15.0232187 Z"/>
</svg>
