<svg xmlns="http://www.w3.org/2000/svg" width="16" height="16" viewBox="0 0 16 16">
  <defs>
    <style>
      .i-color {
        fill: #000;
        fill-rule: evenodd;
      }
    </style>
  </defs>
  <path id="file_type_go.svg" class="i-color" d="M7.941,6.487C7.794,7.021,9.121,6.94,9.089,6.6A0.559,0.559,0,0,0,8.42,6.154,0.477,0.477,0,0,0,7.941,6.487Zm5.934-3.644c-0.362-.743-1.244-0.087-1.469-0.318A5.2,5.2,0,0,0,8.8,1.008s-0.49,0-.6,0A5.079,5.079,0,0,0,4.592,2.525C4.367,2.757,3.485,2.1,3.123,2.844,2.7,3.709,3.979,3.8,3.911,4.181a11.777,11.777,0,0,0,.053,2.74c0.16,1.719-1.13,5.836,1.555,7.49a7.975,7.975,0,0,0,3.057.515h0.01a7.061,7.061,0,0,0,2.894-.515c2.685-1.654,1.4-5.771,1.555-7.49a11.776,11.776,0,0,0,.053-2.74C13.02,3.8,14.3,3.709,13.876,2.844ZM4.961,4.93A1.686,1.686,0,0,1,6.606,3.371a1.541,1.541,0,0,1,.87,2.711A1.45,1.45,0,0,1,4.961,4.93Zm4.652,2.1a0.723,0.723,0,0,1-.67.389,0.383,0.383,0,0,1-.1.51,2.09,2.09,0,0,1-.739,0C7.9,7.908,7.918,7.541,7.958,7.4A0.645,0.645,0,0,1,7.391,7C7.325,6.608,7.635,6.358,8.5,6.23A1.092,1.092,0,0,1,9.613,7.033ZM9.522,6.082a1.541,1.541,0,0,1,.87-2.711A1.686,1.686,0,0,1,12.037,4.93,1.45,1.45,0,0,1,9.522,6.082Zm0.99-1.706a0.62,0.62,0,1,0,.622.62A0.621,0.621,0,0,0,10.512,4.376Zm-4.025,0A0.62,0.62,0,1,0,7.109,5,0.621,0.621,0,0,0,6.487,4.376Zm6.643,6.172c0.6,0.005.3-1.272-.066-1.02a0.794,0.794,0,0,0-.21.654A0.36,0.36,0,0,0,13.129,10.548Zm-9.26,0c-0.6.005-.3-1.272,0.066-1.02a0.794,0.794,0,0,1,.21.654A0.36,0.36,0,0,1,3.869,10.548Zm8.124,3.932c-0.326-.484-0.62-0.109-1.1.132-0.225.114,0.37,0.521,1.032,0.216C12.106,14.747,12.1,14.641,11.993,14.48Zm-6.987.054c0.326-.484.62-0.109,1.1,0.132,0.225,0.114-.37.521-1.032,0.216C4.893,14.8,4.9,14.7,5.006,14.535Zm7.852-11.56c-0.032.116,0.116,0.1,0.171,0.448,0.02,0.128.487-.189,0.3-0.423A0.294,0.294,0,0,0,12.857,2.975Zm-8.716,0c0.032,0.116-.116.1-0.171,0.448C3.95,3.551,3.483,3.234,3.673,3A0.294,0.294,0,0,1,4.141,2.975Z" transform="translate(0 -1)"/>
</svg>
