<svg xmlns="http://www.w3.org/2000/svg" width="16" height="16" viewBox="0 0 16 16">
  <defs>
    <style>
      .i-color {
        fill: #000;
        fill-rule: evenodd;
      }
    </style>
  </defs>
  <path id="file_type_graphviz.svg" class="i-color" d="M11.676,7.93L9.762,1,0,3.54,3.056,15l9.857-2.592L12,9.117l-1.465-.632a2.016,2.016,0,0,1-1.4.582,1.842,1.842,0,1,1,1.905-1.841,1.782,1.782,0,0,1-.052.43L11.676,7.93h0ZM7.6,4.523a0.886,0.886,0,0,0-.284.2l0,0.009L7.327,4.752C7.486,4.889,7.724,5.1,8,5.381a2.225,2.225,0,0,0-.367.266C7.387,5.4,7.174,5.21,7.029,5.086l-0.01-.009a1.733,1.733,0,0,0-.109.306S6.685,4.592,6.585,4.392A3.773,3.773,0,0,0,7.6,4.523h0Zm-2.33,9.4a1.485,1.485,0,0,1-1.891-.652A1.387,1.387,0,0,1,4.53,11.849a10.576,10.576,0,0,1-.122-6.336L4.38,5.5A0.9,0.9,0,0,0,4.03,5.476a3.711,3.711,0,0,0,.786-0.639c0.023,0.222.258,1.011,0.258,1.011a1.945,1.945,0,0,0-.239-0.192,10.152,10.152,0,0,0,.134,6.089,1.336,1.336,0,0,1,1.628.7,1.444,1.444,0,0,1-1.332,1.475h0Zm5.445-1.46a1.485,1.485,0,0,1-1.892-.652,1.191,1.191,0,0,1,.728-1.232,10.026,10.026,0,0,0-1.037-.223l0.324-.126L7.289,8.8a2.66,2.66,0,0,1-.445.155,2.5,2.5,0,0,1-.334.062L5.9,10.973l0.332,0a2.345,2.345,0,0,0-.765.751A10.979,10.979,0,0,0,5.2,10.647l0.258,0.231L6.036,9.023A1.145,1.145,0,0,1,4.952,8.3,1.46,1.46,0,0,1,6.285,6.829l0.021-.005A9.4,9.4,0,0,0,5.57,6.112L5.912,6.175l-0.395-1.4a1.4,1.4,0,0,1-1.676-.7A1.46,1.46,0,0,1,5.173,2.607a1.485,1.485,0,0,1,1.891.652A1.368,1.368,0,0,1,5.954,4.666L6.339,6.03l0.281-.175a1.929,1.929,0,0,0-.247.954A2.5,2.5,0,0,1,6.8,6.753a2.32,2.32,0,0,0-.037.41,2.389,2.389,0,0,0,1.91,2.313L9.115,9.882l0.143-.3a2.066,2.066,0,0,0,.327.972,2.419,2.419,0,0,1,.567-0.222l0.012,0A10.9,10.9,0,0,0,9.855,9.26a2.244,2.244,0,0,0,.413-0.185,11.36,11.36,0,0,1,.342,1.189,1.246,1.246,0,0,1,1.432.725,1.444,1.444,0,0,1-1.332,1.475h0ZM12.546,8.4l-0.066.145-1.312-.612-0.234.488,1.318,0.614-0.06.147L15.646,10.7,16,9.918,12.546,8.4h0Z" transform="translate(0 0)"/>
</svg>
