<svg xmlns="http://www.w3.org/2000/svg" width="16" height="16" viewBox="0 0 16 16">
  <defs>
    <style>
      .i-color {
        fill: #000;
        fill-rule: evenodd;
      }
    </style>
  </defs>
  <path id="file_type_haml.svg" class="i-color" d="M7.241,14.793L8.186,9.436A4.086,4.086,0,0,0,9,10a5.456,5.456,0,0,0,1.23.443c0.19,0.047.374,0.1,0.556,0.149a1.034,1.034,0,0,0-.091.543,0.063,0.063,0,0,0,.037.052,2.032,2.032,0,0,0,2.035-.01,1.541,1.541,0,0,0,.425-0.6l0.032-.3A1.571,1.571,0,0,0,13.873,9.7a0.937,0.937,0,0,0-.016-0.972,2.649,2.649,0,0,0-1.025-1.011,2.656,2.656,0,0,0-.836-0.392,1.893,1.893,0,0,1-.421-0.158,0.683,0.683,0,0,1-.284-0.838,1.967,1.967,0,0,0,.149-0.689l1.042-.856a1.124,1.124,0,0,1,.117.073,0.553,0.553,0,0,0,.51-0.459l-0.1-.063s0.594-.563.712-0.73a0.133,0.133,0,0,0,.021-0.158,3.1,3.1,0,0,0-.771-0.6,1.527,1.527,0,0,0-.993-0.409A6.086,6.086,0,0,0,11.088,3l-0.106-.073s-0.446.042-.3,0.324L10.727,3.3,7.474,6.052,5.689,2.263H5.816A0.371,0.371,0,0,0,5.6,1.856a0.728,0.728,0,0,0-.106.01c-0.1-.188-0.319-0.72-0.319-0.72a0.135,0.135,0,0,0-.117-0.115,1,1,0,0,0-.489-0.01A5.373,5.373,0,0,0,3.5,1.255a2.643,2.643,0,0,0-.4.189,0.087,0.087,0,0,0-.047.108l0.213,0.5a1.3,1.3,0,0,0-.255.063,0.908,0.908,0,0,0,.319.71l0.234-.063L5.74,7.542c-0.032.1-1.7,6.484-1.7,6.484a0.067,0.067,0,0,0,.011.042,3.384,3.384,0,0,0,3.125.814A0.115,0.115,0,0,0,7.241,14.793Zm3.616-4.562-0.211-.078c-0.092-.034-0.184-0.067-0.279-0.1C10.108,9.949,9.84,9.843,9.6,9.72l0,0a3.818,3.818,0,0,1-.7-0.4,4.268,4.268,0,0,1-.549-0.6,5.693,5.693,0,0,0,.056-0.755C9.126,7.466,9.869,6.92,10.67,6.3a1.493,1.493,0,0,0,.006.537,1.077,1.077,0,0,0,.637.807,3.156,3.156,0,0,0,.672.208,2.412,2.412,0,0,1,.586.247,3.059,3.059,0,0,1,.653.478,1.047,1.047,0,0,1,.335.613,0.8,0.8,0,0,1-.267.639,0.63,0.63,0,0,0-.2-0.451l-0.012-.008-0.014,0a0.119,0.119,0,0,0-.028,0,0.106,0.106,0,0,0-.1.066,0.757,0.757,0,0,1-.624.478H12.28A3.515,3.515,0,0,1,11.386,9.7a0.184,0.184,0,0,0-.06-0.01,0.192,0.192,0,0,0-.132.051l0,0,0,0C11.114,9.833,10.941,10.092,10.856,10.231Z" transform="translate(0 -1)"/>
</svg>
