<svg xmlns="http://www.w3.org/2000/svg" width="16" height="16" viewBox="0 0 16 16">
  <defs>
    <style>
      .i-color {
        fill: #000;
        fill-rule: evenodd;
      }
    </style>
  </defs>
  <path id="file_type_haxe.svg" class="i-color" d="M14.961,11.147L13.387,8,14.96,4.854,15,4.775V1H11.225l-0.079.039L8,2.611,4.853,1.039,4.775,1H1V4.775L1.039,4.854,2.613,8,1.039,11.147,1,11.226V15H4.775l0.079-.04L8,13.386l3.146,1.575L11.225,15H15V11.226Zm-2.3-3.455L8.309,3.337l5.8-1.449Zm-9.324,0-1.451-5.8,5.805,1.45Zm0,0.618,4.353,4.353-5.8,1.45Zm9.325,0,1.451,5.8-5.8-1.45Z" transform="translate(0 0)"/>
</svg>
