<svg xmlns="http://www.w3.org/2000/svg" width="33" height="32" viewBox="0 0 33 32">
  <g fill="none" fill-rule="evenodd" transform="translate(7 5)">
    <path fill="#AA759F" d="M0.0483205158,10.0407661 L0.0483205158,11.9617953 C1.79435378,12.0411978 1.9516998,13.0017124 1.9516998,13.6420554 C1.9516998,14.2823985 1.87302679,14.9227415 1.79181594,15.6424871 C1.71314293,16.2828302 1.71314293,17.0025758 1.71314293,17.6429188 C1.71314293,20.1248885 3.22061933,21.0060005 5.44122849,21.0060005 L6.31424512,21.0060005 L6.31424512,18.9236049 L5.91834223,18.9236049 C4.72809572,18.9236049 4.33219283,18.2038593 4.33219283,17.0819783 C4.33219283,16.6824043 4.41086584,16.2008663 4.49207669,15.7218897 C4.5707497,15.1609492 4.65196055,14.6000086 4.65196055,13.9596656 C4.65196055,12.0386364 3.85761693,11.3188908 2.51002439,10.9987193 L2.51002439,10.9193168 C3.85761693,10.6785478 4.65196055,9.9588022 4.65196055,8.03777304 C4.65196055,7.39742998 4.57328754,6.83648947 4.49207669,6.35751287 C4.41340368,5.79657235 4.33219283,5.31759575 4.33219283,4.91546031 C4.33219283,3.79357928 4.72809572,3.07383369 5.91834223,3.07383369 L6.31424512,3.07383369 L6.31424512,0.991438084 L5.44122849,0.991438084 C3.14194631,0.991438084 1.71314293,2.0313552 1.71314293,4.3545198 C1.71314293,4.99486285 1.71314293,5.6352059 1.79181594,6.35495149 C1.87048895,6.99529455 1.9516998,7.71504014 1.9516998,8.27598065 C1.9516998,9.07769016 1.79181594,9.95624082 0.0483205158,10.0382047 L0.0483205158,10.0407661 Z"/>
    <path fill="#90A959" d="M19.2394594,11.9617953 L19.2394594,10.0407661 C17.574637,9.96136357 17.3360801,9.08025153 17.3360801,8.27854203 C17.3360801,7.71760151 17.4147531,6.99785592 17.495964,6.35751287 C17.574637,5.63776728 17.6558478,4.99742422 17.6558478,4.35708117 C17.6558478,2.03647795 16.1483714,0.993999456 13.8490893,0.993999456 L12.9760726,0.993999456 L12.9760726,3.07639506 L13.3719755,3.07639506 C14.562222,3.1557976 14.9581249,3.79614066 14.9581249,4.91802168 C14.9581249,5.31759575 14.8794519,5.79913372 14.7982411,6.36007424 C14.7195681,6.84161221 14.6383572,7.39999136 14.6383572,8.04033441 C14.6383572,9.96136357 15.4327008,10.6811092 16.7802934,10.9218781 L16.7802934,11.0012807 C15.4327008,11.3214522 14.6383572,12.0411978 14.6383572,13.962227 C14.6383572,14.60257 14.7170302,15.1635105 14.7982411,15.724451 C14.8769141,16.205989 14.9581249,16.6849656 14.9581249,17.0845397 C14.9581249,18.2064207 14.562222,18.9261663 13.3719755,18.9261663 L12.9760726,18.9261663 L12.9760726,21.0085619 L13.8490893,21.0085619 C16.0696984,21.0085619 17.6558478,20.1274499 17.6558478,17.6454802 C17.6558478,17.0051371 17.5771748,16.2853916 17.495964,15.6450485 C17.417291,14.9253029 17.3360801,14.2849599 17.3360801,13.6446168 C17.3360801,13.0042738 17.574637,12.0437592 19.2394594,11.9643566 L19.2394594,11.9617953 Z"/>
  </g>
</svg>
