<svg xmlns="http://www.w3.org/2000/svg" width="32" height="32" viewBox="0 0 32 32">
  <path fill="#F4BF75" fill-rule="evenodd" d="M20.2605831,21.3049147 C19.0462379,21.653027 17.9209616,21.8270806 16.8847204,21.8270806 C15.2251153,21.8270806 13.883284,21.3292065 12.8591862,20.3334435 C11.8350884,19.3376804 11.3230472,18.030255 11.3230472,16.4111281 C11.3230472,14.7920012 11.8168735,13.5048146 12.804541,12.5495297 C13.7922084,11.5942449 15.1198725,11.1166096 16.7875732,11.1166096 C17.856197,11.1166096 19.0138554,11.2663766 20.2605831,11.5659151 L20.2605831,13.1688427 C19.0867161,12.6992959 18.0059651,12.464526 17.0182977,12.464526 C15.9982477,12.464526 15.1704815,12.830848 14.5349742,13.5635029 C13.8994669,14.2961578 13.581718,15.2534523 13.581718,16.4354149 C13.581718,17.6011863 13.9298251,18.5422897 14.6260496,19.2587533 C15.3222742,19.975217 16.2370672,20.3334435 17.370456,20.3334435 C18.4876536,20.3334435 19.4510197,20.1189124 20.2605831,19.6898437 L20.2605831,21.3049147 Z M16.3261244,25.8708298 C13.7759995,25.8708298 11.5841393,24.9418697 9.75047809,23.0839216 C7.91681686,21.2259734 7,19.0098267 7,16.4354149 C7,13.8286206 7.9228885,11.6043783 9.76869318,9.76262148 C11.6144979,7.92086462 13.8367162,7 16.4354149,7 C19.0341136,7 21.256332,7.92086462 23.1021366,9.76262148 C24.9479413,11.6043783 25.8708298,13.8205251 25.8708298,16.4111281 C25.8708298,19.050305 24.9459174,21.2866905 23.0960649,23.1203517 C21.2462124,24.954013 18.9895882,25.8708298 16.3261244,25.8708298 L16.3261244,25.8708298 Z M16.3261244,24.3043324 C18.5524239,24.3043324 20.4386785,23.5393064 21.9849447,22.0092314 C23.5312109,20.4791565 24.3043324,18.6171885 24.3043324,16.4232715 C24.3043324,14.2617371 23.5332347,12.4119123 21.9910163,10.8737418 C20.448798,9.3355712 18.5969493,8.56649746 16.4354149,8.56649746 C14.2738805,8.56649746 12.4220319,9.3355712 10.8798135,10.8737418 C9.33759508,12.4119123 8.56649746,14.2657848 8.56649746,16.4354149 C8.56649746,18.5726624 9.33354732,20.4184394 10.8676701,21.9728013 C12.4017928,23.5271631 14.2212594,24.3043324 16.3261244,24.3043324 L16.3261244,24.3043324 Z"/>
</svg>
