<svg xmlns="http://www.w3.org/2000/svg" width="16" height="16" viewBox="0 0 16 16">
  <defs>
    <style>
      .i-color {
        fill: #000;
        fill-rule: evenodd;
      }
    </style>
  </defs>
  <path id="file_type_liquid.svg" class="i-color" d="M10.554,2.78l0.739,0.755,1.1,0.084a0.133,0.133,0,0,1,.119.114L14,14.1l-4.026.9ZM9.6,15L2,13.536,3.037,5.311c0.05-.37.062-0.382,0.444-0.505l1.232-.393C4.976,3.263,5.817,1,7.577,1a0.912,0.912,0,0,1,.711.419A1.641,1.641,0,0,1,9.78,2.8l0.4-.128ZM8.051,1.995A2.386,2.386,0,0,0,6.869,3.726l1.36-.433A3.553,3.553,0,0,0,8.051,1.995ZM5.255,4.24L6.33,3.9A3.013,3.013,0,0,1,7.754,1.564a0.39,0.39,0,0,0-.226-0.078C6.264,1.486,5.554,3.193,5.255,4.24Zm3.1,1.776a2.22,2.22,0,0,0-1.063-.21A2.549,2.549,0,0,0,4.527,8.385c0,1.557,1.511,1.6,1.511,2.547a0.53,0.53,0,0,1-.545.543,2.531,2.531,0,0,1-1.295-.62L3.841,12.071a2.669,2.669,0,0,0,2.019.855,1.984,1.984,0,0,0,1.939-2.2c0-1.7-1.842-1.98-1.842-2.707a0.7,0.7,0,0,1,.86-0.662,2.341,2.341,0,0,1,1.014.25Zm0.34-2.87,0.659-.21a1.3,1.3,0,0,0-.815-1.03A3.8,3.8,0,0,1,8.691,3.146Z" transform="translate(0 -1)"/>
</svg>
