<svg xmlns="http://www.w3.org/2000/svg" width="16" height="16" viewBox="0 0 16 16">
  <defs>
    <style>
      .i-color {
        fill: #000;
        fill-rule: evenodd;
      }
    </style>
  </defs>
  <path id="file_type_lua.svg" class="i-color" d="M14.451,6.634l0.408-.087a6.982,6.982,0,0,1,.131.911l-0.416.032A6.562,6.562,0,0,0,14.451,6.634ZM13.26,4.278A1.541,1.541,0,1,1,14.8,2.737,1.541,1.541,0,0,1,13.26,4.278ZM8,13.261A5.262,5.262,0,1,1,13.259,8,5.262,5.262,0,0,1,8,13.261Zm2.179-8.983A1.541,1.541,0,1,0,11.718,5.82,1.541,1.541,0,0,0,10.177,4.278Zm-0.02-2.511,0.136-.394a7.019,7.019,0,0,1,.848.358L10.954,2.1A6.614,6.614,0,0,0,10.157,1.768ZM8.464,1.421L8.494,1a7.043,7.043,0,0,1,.912.125l-0.084.409A6.623,6.623,0,0,0,8.464,1.421Zm-1.8-.3A7.037,7.037,0,0,1,7.573,1L7.6,1.416a6.618,6.618,0,0,0-.859.109ZM4.918,1.7A7.038,7.038,0,0,1,5.77,1.351L5.9,1.746a6.62,6.62,0,0,0-.8.329ZM3.387,2.715a7.011,7.011,0,0,1,.732-0.558L4.35,2.5a6.594,6.594,0,0,0-.689.524ZM2.173,4.093a7.006,7.006,0,0,1,.561-0.73L3.048,3.639a6.588,6.588,0,0,0-.528.686ZM1.361,10.264l0.395-.135a6.675,6.675,0,0,0,.334.8l-0.374.185A7.1,7.1,0,0,1,1.361,10.264Zm0-4.524a7.071,7.071,0,0,1,.353-0.85L2.087,5.075a6.654,6.654,0,0,0-.332.8ZM1.416,7.57L1,7.542a7.055,7.055,0,0,1,.121-0.913L1.53,6.711A6.635,6.635,0,0,0,1.416,7.57ZM1.53,9.293l-0.409.082A6.987,6.987,0,0,1,1,8.463l0.416-.027A6.569,6.569,0,0,0,1.53,9.293Zm1.522,3.07-0.313.276a7.017,7.017,0,0,1-.562-0.729l0.346-.232A6.592,6.592,0,0,0,3.052,12.364Zm1.3,1.134-0.23.348a7.008,7.008,0,0,1-.733-0.557l0.274-.315A6.587,6.587,0,0,0,4.355,13.5Zm1.553,0.757-0.132.4A7.077,7.077,0,0,1,4.924,14.3l0.183-.375A6.644,6.644,0,0,0,5.908,14.254Zm1.7,0.329L7.579,15a7.056,7.056,0,0,1-.913-0.116l0.08-.409A6.608,6.608,0,0,0,7.6,14.584Zm1.807,0.285A6.987,6.987,0,0,1,8.5,15l-0.03-.416a6.568,6.568,0,0,0,.857-0.119Zm1.735-.6a7.106,7.106,0,0,1-.847.359l-0.137-.394a6.669,6.669,0,0,0,.8-0.338Zm1.52-1.031a7.019,7.019,0,0,1-.726.566l-0.234-.345a6.6,6.6,0,0,0,.683-0.532Zm1.2-1.392a7.023,7.023,0,0,1-.553.736L13,12.3a6.569,6.569,0,0,0,.52-0.692Zm0.744-6.18-0.393.14a6.7,6.7,0,0,0-.342-0.8l0.372-.189A7.09,7.09,0,0,1,14.609,5.661Zm0.051,4.524a7.074,7.074,0,0,1-.343.854l-0.376-.181a6.658,6.658,0,0,0,.323-0.8ZM14.584,8.357L15,8.38a7.048,7.048,0,0,1-.111.914l-0.41-.077A6.618,6.618,0,0,0,14.584,8.357Z" transform="translate(0 -1)"/>
</svg>
