<svg xmlns="http://www.w3.org/2000/svg" width="16" height="16" viewBox="0 0 16 16">
  <defs>
    <style>
      .i-color {
        fill: #000;
        fill-rule: evenodd;
      }
    </style>
  </defs>
  <path id="file_type_markdown.svg" class="i-color" d="M14.85,3H1.15A1.157,1.157,0,0,0,0,4.15v7.69A1.159,1.159,0,0,0,1.15,13H14.84a1.15,1.15,0,0,0,1.15-1.15V4.15A1.142,1.142,0,0,0,14.85,3ZM9,11H7V8L5.5,9.92,4,8v3H2V5H4L5.5,7,7,5H9v6Zm2.99,0.5L9.5,8H11V5h2V8h1.5Z" transform="translate(0 -1)"/>
</svg>
