<svg xmlns="http://www.w3.org/2000/svg" width="32" height="32" viewBox="0 0 32 32">
  <path fill="#D28445" fill-rule="evenodd" d="M17.2676738,20.8029927 L14.3341387,20.8029927 L14.3341387,16.3693071 L12.1162527,19.2047794 L9.89836669,16.3693071 L9.89836669,20.8029927 L6.96483165,20.8029927 L6.96483165,11.9356215 L9.89836669,11.9356215 L12.1162527,14.9025396 L14.3341387,11.9356215 L17.2676738,11.9356215 L17.2676738,20.8029927 L17.2676738,20.8029927 Z M21.6700628,21.5186417 L18.0187923,16.3672207 L20.2366783,16.3672207 L20.2366783,11.933535 L23.1702133,11.933535 L23.1702133,16.3672207 L25.3880994,16.3672207 L21.6721492,21.5186417 L21.6700628,21.5186417 Z M25.907623,9 L5.69418951,9 C5.23795457,9 4.84153092,9.16830618 4.50491855,9.50491855 C4.16830618,9.84153092 4,10.2379546 4,10.6941895 L4,22.0402518 C4,22.5187421 4.16830618,22.9207296 4.50491855,23.2462143 C4.84153092,23.571699 5.23795457,23.7344413 5.69418951,23.7344413 L25.907623,23.7344413 C26.3638579,23.7344413 26.7602816,23.571699 27.096894,23.2462143 C27.4335063,22.9207296 27.6018125,22.5187421 27.6018125,22.0402518 L27.6018125,10.6941895 C27.6018125,10.2379546 27.4335063,9.84153092 27.096894,9.50491855 C26.7602816,9.16830618 26.3638579,9 25.907623,9 L25.907623,9 L25.907623,9 Z"/>
</svg>
