<svg xmlns="http://www.w3.org/2000/svg" width="16" height="16" viewBox="0 0 16 16">
  <defs>
    <style>
      .i-color {
        fill: #000;
        fill-rule: evenodd;
      }
    </style>
  </defs>
  <path id="file_type_nsis.svg" class="i-color" d="M14.314 8.02l-2.994 2.873 2.994 2.87m-.302-6.033h-5.99l2.996 2.872m2.994-3.283l-2.994-2.87-2.994 2.87M10.5 4.365H4.512l2.994 2.87m6.808-5.946L11.32 4.16l2.994 2.87M10.5 3.955l-2.994-2.87-2.994 2.87M6.988 1H1l2.994 2.87M1.687 7.98L4.68 5.106l-2.993-2.87M4.984 5.4L1.99 8.27h5.988m-5.988.41l2.993 2.87L7.98 8.68m-6.293.29v5.74l2.993-2.87-.877-.84m7.685.635l-2.992-2.87-2.994 2.87m0 .41l2.993 2.87 2.993-2.87m.518.084L9.014 15H15" transform="translate(0 -1)"/>
</svg>
