<svg xmlns="http://www.w3.org/2000/svg" width="16" height="16" viewBox="0 0 16 16">
  <defs>
    <style>
      .i-color {
        fill: #000;
        fill-rule: evenodd;
      }
    </style>
  </defs>
  <path id="file_type_ocaml.svg" class="i-color" d="M1,7.13V3.735A1.75,1.75,0,0,1,2.764,2H13.236A1.75,1.75,0,0,1,15,3.735V14H9.189a10.268,10.268,0,0,1-.459-1.485,2.069,2.069,0,0,0-.022-0.371,0.869,0.869,0,0,0-.159-0.2,1.768,1.768,0,0,1-.279-0.775c-0.011-.242-0.1-0.463-0.115-0.7-0.005-.116.008-0.237,0-0.35a1.133,1.133,0,0,0-.036-0.266l0.03-.075A1.218,1.218,0,0,1,8.5,9.763c0.139,0,.271.008,0.41,0.016a3.941,3.941,0,0,0,.818-0.032A2.1,2.1,0,0,0,10.77,9.3a2.623,2.623,0,0,0,.823-1.057,1.847,1.847,0,0,1,.293-0.734,3.659,3.659,0,0,1,.9-0.3,0.642,0.642,0,0,1,.435-0.073c0.12,0.024.336,0.161,0.386-.03a0.34,0.34,0,0,1-.077-0.1c0.224-.022.006-0.53-0.085-0.632a1.174,1.174,0,0,0-.6-0.291,1.864,1.864,0,0,0-.818-0.11,1.332,1.332,0,0,1-.716-0.175,1.108,1.108,0,0,0-1.031.336,0.723,0.723,0,0,1-.18.269,0.873,0.873,0,0,0-.025.3c-0.036.116-.09,0.519-0.148,0.662a0.686,0.686,0,0,1-.418.538,1.592,1.592,0,0,1-.763-0.04c-0.142-.051-0.383-0.132-0.5-0.18A1.07,1.07,0,0,1,7.6,7.21c-0.06-.1-0.64-1.286-0.725-1.49A1.625,1.625,0,0,0,6.5,5.158a0.727,0.727,0,0,0-.675-0.315,0.88,0.88,0,0,0-.459.164,2.215,2.215,0,0,0-.263.465c-0.063.1-.172,0.377-0.273,0.608a0.976,0.976,0,0,1-.178.342A0.261,0.261,0,0,1,4.262,6.4,5.461,5.461,0,0,1,3.888,5.8c-0.375-.64-0.522-0.928-0.952-0.931-0.547,0-.588.3-0.829,0.74A3.068,3.068,0,0,1,1,7.13Zm0,3.93V14H3.713s0.219-.831.268-1A2.573,2.573,0,0,0,4.1,12.634a1.424,1.424,0,0,0-.014-0.361,1.209,1.209,0,0,1,.328-0.637c0.1-.223.164-0.476,0.249-0.7a1.157,1.157,0,0,1,.432-0.637,4.462,4.462,0,0,0-.574-0.056,10.654,10.654,0,0,1-1.091-.2A7.376,7.376,0,0,1,2.72,9.8,1.777,1.777,0,0,0,2.14,9.43a0.412,0.412,0,0,0-.306.175,2.578,2.578,0,0,0-.123.371,2.334,2.334,0,0,1-.205.369A5,5,0,0,0,1,11.06Zm7.544,2.491c-0.052-.108-0.118-0.317-0.161-0.412a2.612,2.612,0,0,0-.23-0.385,0.6,0.6,0,0,1-.211-0.369,6.538,6.538,0,0,0-.473-1.409A2.161,2.161,0,0,0,7,10.4a1.861,1.861,0,0,0-.547-0.371,1.708,1.708,0,0,0-.982,1.063,6.185,6.185,0,0,0-.41.681,2.227,2.227,0,0,1-.273.678,1.869,1.869,0,0,0-.394.675C4.374,13.177,4.218,14,4.218,14h4.5l-0.008-.019C8.654,13.812,8.574,13.615,8.544,13.551Z" transform="translate(0 -1)"/>
</svg>
