<svg xmlns="http://www.w3.org/2000/svg" width="16" height="16" viewBox="0 0 16 16">
  <defs>
    <style>
      .i-color {
        fill: #000;
        fill-rule: evenodd;
      }
    </style>
  </defs>
  <path id="file_type_pdf.svg" class="i-color" d="M10.5,1H3A1,1,0,0,0,2,2V14a1,1,0,0,0,1,1H13a1,1,0,0,0,1-1V4.5ZM3,2H7a0.679,0.679,0,0,0-.31.2,1.08,1.08,0,0,0-.23.47,4.22,4.22,0,0,0-.09,1.47,10.3,10.3,0,0,0,.34,1.8A21.78,21.78,0,0,1,5.6,8.6c-0.5,1-.8,1.66-0.91,1.84a7.156,7.156,0,0,0-.69.3,4.191,4.191,0,0,0-1,.64V2ZM7.42,6.8A5.65,5.65,0,0,0,8.59,8.89a2.753,2.753,0,0,0,.94.53c-0.64.09-1.23,0.2-1.81,0.33a12.224,12.224,0,0,0-1.81.59c-0.587.243,0.22-.44,0.61-1.25a15.173,15.173,0,0,0,.91-2.3ZM13,14H3.5a0.743,0.743,0,0,1-.17,0,2.119,2.119,0,0,0,.73-0.44,10.139,10.139,0,0,0,1.78-2.38c0.31-.13.58-0.23,0.81-0.31l0.42-.14c0.45-.13.94-0.23,1.44-0.33a13.1,13.1,0,0,1,1.48-.2,8.645,8.645,0,0,0,1.39.53,7.552,7.552,0,0,0,1.23.23h0.38V14H13Zm0-4.86a3.739,3.739,0,0,0-.64-0.28,4.22,4.22,0,0,0-.75-0.11,10.762,10.762,0,0,0-1.23.08,3,3,0,0,1-1-.64A6.07,6.07,0,0,1,8.09,5.86a15.071,15.071,0,0,0,.2-2,4.7,4.7,0,0,0,0-.75,1.05,1.05,0,0,0-.2-0.88A0.82,0.82,0,0,0,7.48,2H10l3,3V9.14Z" transform="translate(0 -1)"/>
</svg>
