<svg xmlns="http://www.w3.org/2000/svg" width="16" height="16" viewBox="0 0 16 16">
  <defs>
    <style>
      .i-color {
        fill: #000;
        fill-rule: evenodd;
      }
    </style>
  </defs>
  <path id="file_type_perl.svg" class="i-color" d="M10.354,1c-0.1,0-.208.011-0.321,0.016a8.488,8.488,0,0,0-.969.3,1.946,1.946,0,0,0-1.181.906,5.79,5.79,0,0,1-.394.562,3.578,3.578,0,0,1-.775.567,3.15,3.15,0,0,0-.969.816A3.443,3.443,0,0,0,5.2,5.4c-0.264.245-.473-0.093-0.406-0.329a4.966,4.966,0,0,0,.412-1.691A1.9,1.9,0,0,0,3.648,1.461a0.743,0.743,0,0,0-.582.249,1.232,1.232,0,0,1-.6.26A6.274,6.274,0,0,0,1.4,2.128a0.938,0.938,0,0,0-.394.509,0.337,0.337,0,0,0,.218.376c0.34,0.14.92,0.036,0.993,0.45a4.157,4.157,0,0,0-.412,1.182,10.074,10.074,0,0,0,.085,1.346,3.047,3.047,0,0,0,.854,1.362,2.408,2.408,0,0,0,2.223.906,0.411,0.411,0,0,1,.521.069,0.4,0.4,0,0,1,.042.387,3.245,3.245,0,0,0,0,1,4.344,4.344,0,0,1,.067.673,1.78,1.78,0,0,0,.073.456,2.252,2.252,0,0,1,.042.509c0.007,0.214.02,0.424,0.03,0.466a1.749,1.749,0,0,1-.048.716,3.173,3.173,0,0,1-.218.689c-0.041.08-.164,0.267-0.254,0.419L5.241,13.65c0.15-.012.382-0.022,0.715-0.042a3.613,3.613,0,0,0,.085-0.514A2.6,2.6,0,0,1,6.1,12.7a3.1,3.1,0,0,0,.055-0.355,1.091,1.091,0,0,1,.17-0.541,2.651,2.651,0,0,0,.145-0.318A1.177,1.177,0,0,0,6.5,11.006a2.129,2.129,0,0,1,.036-0.541,1.675,1.675,0,0,1,.212-0.641,1.025,1.025,0,0,0,.194-0.6,0.777,0.777,0,0,1,.2-0.583,0.37,0.37,0,0,1,.242-0.106c0.038,0,.083,0,0.133,0a0.448,0.448,0,0,1,.376.1,0.349,0.349,0,0,1,.018.35,2.545,2.545,0,0,0-.061.344,1.035,1.035,0,0,1-.182.535,0.805,0.805,0,0,0-.151.631,1.045,1.045,0,0,0,.036.429,0.646,0.646,0,0,0,.091.164,2.671,2.671,0,0,0,.491.371,2.857,2.857,0,0,1,.594.5,1.275,1.275,0,0,1,.4.583,0.76,0.76,0,0,1-.273.519,0.96,0.96,0,0,1-.3.175,0.471,0.471,0,0,0-.327.239,0.09,0.09,0,0,0,0,.048c0.4,0,.8,0,1.205.011a0.506,0.506,0,0,0,.121-0.148,0.225,0.225,0,0,1,.17-0.164,0.417,0.417,0,0,1,.224.2,1.019,1.019,0,0,0,.133.148c0.164,0.009.324,0.02,0.485,0.032a0.562,0.562,0,0,0,.121-0.3,0.548,0.548,0,0,0-.006-0.244,0.653,0.653,0,0,0-.315-0.488,1.027,1.027,0,0,1-.164-0.143,0.341,0.341,0,0,1-.055-0.286,1.658,1.658,0,0,1,.327-0.53,2.9,2.9,0,0,0,.333-0.466,1.044,1.044,0,0,1,.206-0.233,1.323,1.323,0,0,0,.194-0.217l0.048-.085V10.126a6.446,6.446,0,0,1,.073-1.018,2.387,2.387,0,0,1,.436-1.081,0.393,0.393,0,0,1,.3-0.3c0.15,0,.241.145,0.285,0.45a4.95,4.95,0,0,0,.321.843,2.293,2.293,0,0,0,.254.551,2.825,2.825,0,0,1,.291.678,2.4,2.4,0,0,1,.024.461,2.389,2.389,0,0,0,.067.71,3.657,3.657,0,0,1,.042.837,1.072,1.072,0,0,1-.115.445,2.789,2.789,0,0,0-.212.689,0.987,0.987,0,0,1-.145.419c-0.006.011-.007,0.021-0.012,0.032,0.514,0.073.819,0.128,0.993,0.159,0.022-.136-0.021-0.276-0.012-0.413a1.4,1.4,0,0,0-.127-0.53,0.911,0.911,0,0,1-.085-0.747,2.4,2.4,0,0,0,.042-0.355,1.153,1.153,0,0,1,.115-0.541,0.939,0.939,0,0,0,.109-0.408,0.839,0.839,0,0,0-.1-0.482,0.53,0.53,0,0,1-.055-0.424,2.579,2.579,0,0,0,0-.795A7.98,7.98,0,0,1,13.7,7.964l0.085-.821a0.729,0.729,0,0,1,.315-0.6,0.426,0.426,0,0,1,.248.387c0.038,0.231.019,0.469,0.067,0.7a1.213,1.213,0,0,1-.224.912,0.493,0.493,0,0,0-.121.382,0.278,0.278,0,0,0,.17.164,0.178,0.178,0,0,0,.1-0.021,1,1,0,0,0,.273-0.3A3.145,3.145,0,0,0,14.86,8.4a3.847,3.847,0,0,0,.079-1.685,0.932,0.932,0,0,0-.376-0.843A6.665,6.665,0,0,1,13.3,3.92a3.843,3.843,0,0,0-.412-0.5,1.705,1.705,0,0,1-.424-0.678,5.229,5.229,0,0,0-.521-1.055,2,2,0,0,0-.739-0.556A1.928,1.928,0,0,0,10.353,1h0ZM10.021,8.35a0.148,0.148,0,0,1,.073.032,0.617,0.617,0,0,1,.133.5c0.022,0.2.049,0.458,0.067,0.567a2.7,2.7,0,0,1,.067.795c-0.011.084-.023,0.257-0.03,0.382a1.393,1.393,0,0,1-.3.837c-0.067.1-.149,0.231-0.182,0.292a0.518,0.518,0,0,1-.206.233A0.3,0.3,0,0,1,9.4,11.97a2.329,2.329,0,0,1-.454-0.307,1.466,1.466,0,0,1-.3-0.371,0.653,0.653,0,0,1-.17-0.392,0.461,0.461,0,0,1,.212-0.371c0.067-.057.213-0.184,0.321-0.281a0.622,0.622,0,0,0,.285-0.5,0.855,0.855,0,0,1,.26-0.53,1.31,1.31,0,0,0,.2-0.477,0.529,0.529,0,0,1,.188-0.371,0.168,0.168,0,0,1,.079-0.021h0Z" transform="translate(0 0)"/>
</svg>
