<svg xmlns="http://www.w3.org/2000/svg" width="16" height="16" viewBox="0 0 16 16">
  <defs>
    <style>
      .i-color {
        fill: #000;
        fill-rule: evenodd;
      }
    </style>
  </defs>
  <path id="file_type_php.svg" class="i-color" d="M5.323,10.323a1.2,1.2,0,0,0-.782-1.039C4.345,9.212,4.176,9.08,3.982,9a4.5,4.5,0,0,0-.674-0.244,0.407,0.407,0,0,0-.442.179,0.313,0.313,0,0,0,.055.386c0.093,0.131.2,0.256,0.3,0.378,0.172,0.2.355,0.4,0.523,0.607a0.956,0.956,0,0,1,.274.679,2.142,2.142,0,0,1-.757,1.437,0.3,0.3,0,0,1-.194.066,1.252,1.252,0,0,1-.733-0.317,0.351,0.351,0,0,1,.082-0.622,1.791,1.791,0,0,0,.2-0.117,0.4,0.4,0,0,0,.135-0.518,0.8,0.8,0,0,0-.167-0.248c-0.357-.313-0.708-0.637-1.09-0.922A3.542,3.542,0,0,1,.014,7.02,5.542,5.542,0,0,1,.9,3.582,2.366,2.366,0,0,1,1.916,2.6,6.463,6.463,0,0,1,2.9,2.309,6.813,6.813,0,0,1,5.7,2.058a1.982,1.982,0,0,1,1.7,1.317,3.53,3.53,0,0,1,.168,1.572A2.713,2.713,0,0,1,5.582,7.23,0.781,0.781,0,0,1,4.6,6.916C4.4,6.651,4.236,6.363,4.058,6.084,4.032,6.043,4.013,5.995,3.991,5.95S3.946,5.864,3.923,5.82A3.088,3.088,0,0,0,4.36,7.113a0.788,0.788,0,0,0,.6.4A2.657,2.657,0,0,0,7.432,6.494,3.551,3.551,0,0,0,8.063,3.55C8.025,3.34,7.96,3.135,7.914,2.927a0.22,0.22,0,0,1,.162-0.281A1.69,1.69,0,0,1,8.27,2.6a8.31,8.31,0,0,1,2.506-.146,5.976,5.976,0,0,1,2.67.857,5.816,5.816,0,0,1,2.478,3.326A2.366,2.366,0,0,1,16,7.263c0,0.141-.09.178-0.2,0.089a3.039,3.039,0,0,1-.341-0.321c-0.1-.107-0.177-0.23-0.273-0.343-0.074-.088-0.139-0.075-0.174.035-0.022.067-.042,0.133-0.062,0.2a4.768,4.768,0,0,1-1.135,2.038,0.569,0.569,0,0,0-.158.312,5.028,5.028,0,0,0-.012.9c0.062,0.642.158,1.281,0.233,1.922a0.576,0.576,0,0,1-.432.7,2.985,2.985,0,0,1-.777.17c-0.418.028-.84,0.008-1.26,0.008A1.114,1.114,0,0,0,11,11.843c0.085-.335.184-0.653,0.243-0.978a0.858,0.858,0,0,0-.189-0.757,0.486,0.486,0,0,0-.628-0.146,2.315,2.315,0,0,1-1.978.125,0.519,0.519,0,0,0-.7.226,1.592,1.592,0,0,0-.242.956c0.026,0.42.1,0.835,0.16,1.253,0.032,0.234,0,.294-0.236.354a5.132,5.132,0,0,1-1.627.1,0.492,0.492,0,0,1-.077-0.019A1.031,1.031,0,0,0,5.2,11.834a2.42,2.42,0,0,0,.125-1.507l0,0h0ZM2.087,8.6a0.579,0.579,0,0,0,.166-0.289,0.7,0.7,0,0,0-.381-0.705,0.263,0.263,0,0,0-.322.062Q1.229,8.024.913,8.381a0.723,0.723,0,0,0-.093.136,0.191,0.191,0,0,0,.145.312C1.074,8.856,1.187,8.861,1.3,8.877a1.289,1.289,0,0,0,.788-0.271h0Zm0.024-2.6a0.354,0.354,0,0,0-.352-0.342,0.359,0.359,0,0,0-.358.354,0.355,0.355,0,0,0,.363.333,0.347,0.347,0,0,0,.349-0.344h0Z" transform="translate(0 0)"/>
</svg>
