<svg xmlns="http://www.w3.org/2000/svg" width="16" height="16" viewBox="0 0 16 16">
  <defs>
    <style>
      .i-color {
        fill: #000;
        fill-rule: evenodd;
      }
    </style>
  </defs>
  <path id="file_type_postcss.svg" class="i-color" d="M13.681,3.5c-0.114-.145-0.237-0.282-0.349-0.429a2.66,2.66,0,0,0-.375-0.421A7.033,7.033,0,0,0,9.889,1.166,8.009,8.009,0,0,0,8.7,1.028a7.634,7.634,0,0,0-1.221-.006,9.324,9.324,0,0,0-2.312.415A6.387,6.387,0,0,0,3.26,2.58,6.263,6.263,0,0,0,2.5,3.43a6.988,6.988,0,0,0-.673.963A5.715,5.715,0,0,0,1,6.813a3.826,3.826,0,0,0,.022.635,3.1,3.1,0,0,0,.112.65,0.268,0.268,0,0,1,.029.09,0.457,0.457,0,0,0-.028.077,0.308,0.308,0,0,0,.043.066,0.417,0.417,0,0,1,0,.12,1.334,1.334,0,0,0,.058.272,0.421,0.421,0,0,1-.02.263c0.039-.023.077-0.049,0.117-0.07,0.031,0.124.07,0.245,0.1,0.37a0.5,0.5,0,0,0,.154.3,3.11,3.11,0,0,0-.063-0.444L1.589,9.152a0.338,0.338,0,0,0,.077.264A0.141,0.141,0,0,1,1.79,9.36c-0.02-.049-0.029-0.1-0.05-0.152S1.69,9.131,1.684,9.1a0.261,0.261,0,0,0-.007-0.076C1.666,9,1.638,8.991,1.626,8.968a0.606,0.606,0,0,1,.009-0.2C1.612,8.609,1.559,8.456,1.54,8.3a0.653,0.653,0,0,0-.091-0.421C1.381,7.93,1.4,8.068,1.3,8.029,1.22,8,1.241,7.881,1.317,7.9a0.247,0.247,0,0,1,.006-0.158,1.506,1.506,0,0,0,.107-0.159,1.38,1.38,0,0,0,.079-0.442,3.584,3.584,0,0,1,.2-0.949,9.031,9.031,0,0,1,.84-1.718A6.01,6.01,0,0,1,5.18,2.093a6.348,6.348,0,0,1,1.052-.352,7.643,7.643,0,0,1,1.076-.115C7.008,2.051,6.718,2.488,6.4,2.9c-0.3.4-.613,0.79-0.914,1.19S4.9,4.945,4.61,5.375Q4.4,5.691,4.177,6C4.106,6.1,4.031,6.2,3.953,6.288a0.355,0.355,0,0,0-.057.138,0.9,0.9,0,0,1-.085.154L3.776,6.514c-0.07.112-.131,0.227-0.2,0.34-0.038.062-.166,0.183-0.05,0.225q-0.037.029-.072,0.06c0.034,0.038.084,0.057,0.116,0.1L3.6,7.2c0.012,0.089.045,0,.066-0.032a1.044,1.044,0,0,1,.08-0.1C3.8,7.007,3.874,6.958,3.935,6.9a4.883,4.883,0,0,0,.348-0.4C4.53,6.2,4.747,5.873,5,5.578,4.977,5.883,4.967,6.19,4.942,6.5c-0.012.145,0,.288-0.013,0.434a3.7,3.7,0,0,0-.028.448c0,0.305.02,0.606,0,.911-0.008.123,0.015,0.239,0.016,0.36,0,0.077-.021.184,0.077,0.184,0,0.2-.068.373-0.053,0.572,0.007,0.091-.009.176-0.01,0.266s0.083,0.18.081,0.278c-0.061,0-.1-0.019-0.128.037a0.5,0.5,0,0,0,.006.2c0.005,0.095,0,.192,0,0.287a0.563,0.563,0,0,1-.029.262,0.262,0.262,0,0,1-.192.033c-0.116,0-.232,0-0.348,0-0.223,0-.446.009-0.669,0.011-0.451.005-.9-0.006-1.353,0.015a1.787,1.787,0,0,0-.58.092,0.184,0.184,0,0,0-.113.137,0.183,0.183,0,0,0-.047.037,0.322,0.322,0,0,0,.045.117,0.558,0.558,0,0,0,.062-0.032l-0.046.076,0.152-.057A0.563,0.563,0,0,0,2,11.171a2.032,2.032,0,0,1,.214.043,4.117,4.117,0,0,0,.6.058c0.377,0.02.753,0.017,1.131,0.016,0.395,0,.789.014,1.184,0,0.378-.009.756-0.027,1.133-0.039,0.774-.026,1.547-0.02,2.32-0.069s1.552-.1,2.331-0.12c0.429-.013.858-0.029,1.287-0.058a8.846,8.846,0,0,1,1.289-.035l-0.072.06c0.123,0-.072.182-0.085,0.2s-0.026.083-.049,0.118a0.332,0.332,0,0,1-.08.066s-0.019.039-.024,0.047c-0.021.038-.02,0.077-0.043,0.115a0.243,0.243,0,0,1-.176.135l0.071,0.024a0.148,0.148,0,0,0-.018.094,0.6,0.6,0,0,1-.1.165,2.177,2.177,0,0,1-.309.322c-0.18.158-.334,0.336-0.526,0.482s-0.39.283-.593,0.41-0.407.229-.6,0.355a3.887,3.887,0,0,1-.657.3,2.9,2.9,0,0,1-.672.237c-0.253.037-.508,0.062-0.762,0.1a6.09,6.09,0,0,1-.768.075,1.558,1.558,0,0,1-.311-0.009,2.747,2.747,0,0,0-.372-0.056,2.735,2.735,0,0,1-.7-0.124A0.8,0.8,0,0,0,6.4,14.045c-0.109-.008-0.206-0.067-0.315-0.079a0.377,0.377,0,0,1-.169-0.078,2.769,2.769,0,0,1-.292-0.139,1.646,1.646,0,0,0-.281-0.159c-0.1-.041-0.213-0.058-0.315-0.1a1.511,1.511,0,0,1-.25-0.154,1.227,1.227,0,0,0-.271-0.119,1.894,1.894,0,0,1-.554-0.386,1.306,1.306,0,0,1-.46-0.36,0.351,0.351,0,0,0-.13-0.132,2.478,2.478,0,0,0-.272-0.216,1.689,1.689,0,0,1-.419-0.478,0.8,0.8,0,0,0-.18-0.225,0.329,0.329,0,0,0-.18.055l0.323,0.514a0.449,0.449,0,0,1-.1-0.051c-0.016-.02-0.011-0.06-0.026-0.077a0.333,0.333,0,0,0-.2-0.032c0.076,0.12.15,0.264,0.206,0.372a4.015,4.015,0,0,0,.267.307c-0.106.023,0.037,0.178,0.067,0.211s0.079,0.074.115,0.114A0.185,0.185,0,0,1,3,13c0.059-.059.07-0.03,0.122,0.012a0.581,0.581,0,0,0,.066.043,0.155,0.155,0,0,0,.05.025A0.5,0.5,0,0,0,3.3,13.064s0.077,0.044.089,0.051a0.1,0.1,0,0,0,.023.041,0.409,0.409,0,0,1,.12.057,5.353,5.353,0,0,0,.474.429,7.431,7.431,0,0,0,1.29.736,3.878,3.878,0,0,0,.679.228c0.254,0.062.5,0.147,0.761,0.195a4.123,4.123,0,0,0,.606.1c0.121,0,.242-0.005.365,0,0.033,0,.277,0,0.151.058a3.478,3.478,0,0,0,.84.023c0.127-.006.264-0.078,0.385-0.073a0.2,0.2,0,0,0,.065.021A0.244,0.244,0,0,0,9.206,14.9a0.411,0.411,0,0,1,.155-0.018,6.358,6.358,0,0,0,.7-0.147,0.368,0.368,0,0,0,.134-0.029,0.193,0.193,0,0,0,.046-0.087,0.421,0.421,0,0,1,.271-0.162l-0.047.047a0.4,0.4,0,0,0,.178-0.022c0.042-.027.039-0.074,0.077-0.1a0.443,0.443,0,0,1,.135-0.031,1.233,1.233,0,0,0,.231-0.091,1.319,1.319,0,0,1,.183-0.071c0.045-.016.079-0.042,0.125-0.058l0.077-.028,0.024-.026a0.076,0.076,0,0,0,.052.007,0.655,0.655,0,0,0,.209-0.122H11.638a0.326,0.326,0,0,1,.107-0.063,0.519,0.519,0,0,1,.069.039c0.06,0.014.261-.071,0.209-0.155a0.212,0.212,0,0,1,.1,0,0.228,0.228,0,0,0,.07-0.054,1.393,1.393,0,0,0,.045-0.143,0.869,0.869,0,0,1,.188-0.137,0.369,0.369,0,0,1,.109-0.085,0.259,0.259,0,0,0,.09-0.068,0.316,0.316,0,0,1,.072-0.074c0.085-.075.174-0.144,0.257-0.222a5.413,5.413,0,0,0,.479-0.527,6.6,6.6,0,0,0,.711-1.124,0.509,0.509,0,0,1,.221-0.321,0.994,0.994,0,0,1,.213-0.01,0.617,0.617,0,0,0,.256-0.073,0.91,0.91,0,0,1-.284-0.592,7.625,7.625,0,0,0,.261-0.772A7.664,7.664,0,0,0,15,7.7a7.714,7.714,0,0,0-.286-2.289A6.439,6.439,0,0,0,13.681,3.5h0Zm-7.79.913h0A0.925,0.925,0,0,0,5.971,4.32a0.447,0.447,0,0,1,.119-0.154,0.4,0.4,0,0,0,.089-0.1C6.2,4.029,6.235,4,6.262,3.962s0.05-.1.059-0.041a0.955,0.955,0,0,0,.162-0.269,0.079,0.079,0,0,1-.027-0.024,0.085,0.085,0,0,1,.03-0.044A0.344,0.344,0,0,1,6.558,3.5c0.025-.019.045-0.008,0.076-0.029a0.652,0.652,0,0,0,.085-0.108,0.385,0.385,0,0,0,.087-0.1,0.735,0.735,0,0,1,0-.088c0.016,0.031.032,0.064,0.047,0.1,0.02-.051.049-0.1,0.067-0.153a0.319,0.319,0,0,0,.007-0.1A0.65,0.65,0,0,1,7.043,2.85L7.188,2.64a4.839,4.839,0,0,1,.558-0.755c0.789,1,1.5,2.046,2.2,3.1-0.386,0-.767-0.022-1.153.007S8.025,5.064,7.64,5.076C6.88,5.1,6.118,5.164,5.358,5.154c0.179-.246.348-0.5,0.533-0.74h0Zm4.693,1.933,0.02,0.81a2.82,2.82,0,0,0-.33-0.6,2.2,2.2,0,0,0-.487-0.544A2.781,2.781,0,0,0,9.15,5.679s1.034-.026,1.161-0.025a0.2,0.2,0,0,1,.187.112,1,1,0,0,1,.085.581h0ZM5.649,5.834C6.026,5.816,6.4,5.8,6.781,5.778a2.9,2.9,0,0,0-.617.538,5.152,5.152,0,0,0-.541.641c0.02-.374.038-0.748,0.025-1.123h0ZM6,10.781a0.592,0.592,0,0,1-.323-0.012,0.7,0.7,0,0,1-.006-0.318C5.65,10.068,5.605,9.686,5.607,9.3a2.813,2.813,0,0,0,.305.564c0.061,0.085.116,0.178,0.185,0.258a0.572,0.572,0,0,1,.2.157c0.006,0.05-.058.059-0.02,0.117a0.452,0.452,0,0,0,.164.088c0.076,0.04.14,0.1,0.214,0.14,0.1,0.06.224,0.08,0.331,0.132-0.326.006-.654,0-0.98,0.023H6Zm0.907-.558,0.021,0.009h0a1.558,1.558,0,0,1-.5-0.3,3.021,3.021,0,0,1-.216-0.214,1.755,1.755,0,0,1-.147-0.243,3.343,3.343,0,0,1-.3-0.481C5.744,8.943,5.7,8.845,5.643,8.93a0.266,0.266,0,0,0,.036.2,0.1,0.1,0,0,0-.07.032C5.614,8.876,5.6,8.59,5.6,8.3c0.1,0.069.161-.082,0.183-0.154C5.8,8.1,5.8,8.046,5.821,8A0.4,0.4,0,0,0,5.876,7.88C5.861,7.815,5.8,7.857,5.829,7.774c0.02-.056.074-0.094,0.095-0.156a0.655,0.655,0,0,1,.094-0.241l0,0.04a0.291,0.291,0,0,0,.176-0.212,0.67,0.67,0,0,1,.154-0.243,0.666,0.666,0,0,1,.215-0.218A1.862,1.862,0,0,1,6.8,6.551,0.555,0.555,0,0,0,6.95,6.492a0.251,0.251,0,0,0,.095-0.084A0.23,0.23,0,0,1,7.063,6.34a0.96,0.96,0,0,1,.282-0.129A0.756,0.756,0,0,1,7.67,6.1C7.6,6.234,7.841,6.15,7.9,6.17c0-.128.028-0.152,0.158-0.154a2.475,2.475,0,0,1,.433.016,1.9,1.9,0,0,1,.746.384,2.211,2.211,0,0,1,.627.563,1.177,1.177,0,0,1,.163.346,1.549,1.549,0,0,1,.085.488c-0.01.137-.044,0.272-0.054,0.41a1.193,1.193,0,0,1-.13.474,0.234,0.234,0,0,0-.054.127,0.315,0.315,0,0,1,.047.066,0.617,0.617,0,0,1-.06.15q-0.035.09-.076,0.177a1.842,1.842,0,0,1-1.073,1.045,2.479,2.479,0,0,1-1.8-.04h0ZM9.3,10.662A1.939,1.939,0,0,0,9.5,10.52a1.167,1.167,0,0,1,.153-0.132l0,0a0.39,0.39,0,0,0-.043.042l0.013-.012,0.038-.034c0.086-.086.194-0.146,0.284-0.229A1.8,1.8,0,0,0,10.169,9.9a4.276,4.276,0,0,0,.361-0.646,11.539,11.539,0,0,0,.116,1.359L9.3,10.662h0Zm4.234-.107c-0.242-.01-0.486,0-0.728,0-0.284,0-.567.007-0.85,0.027-0.127.009-.253,0.011-0.38,0.015a0.994,0.994,0,0,1-.162.008,0.24,0.24,0,0,1-.116-0.071l-0.015.029a0.22,0.22,0,0,1-.035-0.162,0.5,0.5,0,0,1,.021-0.071,0.181,0.181,0,0,0,.076-0.144A0.172,0.172,0,0,0,11.3,10.1a0.083,0.083,0,0,1-.037-0.037,0.52,0.52,0,0,1,0-.119c0.037,0.028.036-.038,0.066-0.061a0.164,0.164,0,0,1,.1-0.019A0.509,0.509,0,0,1,11.4,9.693c-0.018-.1-0.023-0.09.074-0.122a0.124,0.124,0,0,1-.1-0.084,0.715,0.715,0,0,1,0-.159,0.465,0.465,0,0,0-.027-0.159,0.3,0.3,0,0,1-.079-0.11l0.1,0.041c-0.021-.075-0.063-0.144-0.082-0.22a0.912,0.912,0,0,1-.008-0.226l0.052,0.013a0.392,0.392,0,0,0-.013-0.123C11.3,8.521,11.283,8.5,11.275,8.477a0.718,0.718,0,0,1-.007-0.225L11.315,8.27a0.143,0.143,0,0,1,.074-0.115c-0.058,0-.058.009-0.075-0.033a0.407,0.407,0,0,1,0-.1c-0.005-.077-0.037-0.13-0.035-0.2q0.011-.424.021-0.847c0.573,0.758,1.023,1.6,1.594,2.363,0.153,0.2.748,0.987,0.783,1.034a0.4,0.4,0,0,1,.1.139c0,0.095-.182.052-0.241,0.049h0Zm0.714-3.3L14.187,7.2c-0.012.035-.013,0.128-0.073,0.107-0.007.1,0.024,0.2,0.013,0.3l0.051-.034c-0.014.072,0.064,0.141,0.055,0.212s-0.065.025-.091,0.056a0.477,0.477,0,0,0,0,.262,0.428,0.428,0,0,1,.059.081,0.361,0.361,0,0,1-.01.166,6.288,6.288,0,0,0-.048.666c-0.011.131-.034,0.055-0.115,0.056s-0.034.139-.019,0.193c-0.073-.006-0.058.091-0.06,0.139,0,0.087-.047.153-0.057,0.235-0.268-.393-0.505-0.806-0.779-1.195s-0.557-.812-0.838-1.216-0.53-.818-0.8-1.221A1.213,1.213,0,0,1,11.3,5.76a1.065,1.065,0,0,1-.022-0.312c0-.1,0-0.2,0-0.3a0.216,0.216,0,0,1,.089-0.208H10.83a0.382,0.382,0,0,1-.259-0.213C10.482,4.6,10.4,4.467,10.307,4.337,10.09,4.015,9.855,3.705,9.623,3.4,9.185,2.811,8.777,2.2,8.3,1.647c0.3,0.038.6,0.039,0.9,0.083a6.86,6.86,0,0,1,.878.185,8.35,8.35,0,0,1,1.565.645c0.111,0.058.224,0.112,0.331,0.176a1.508,1.508,0,0,1,.309.276c0.2,0.215.395,0.439,0.586,0.664a4.855,4.855,0,0,1,.877,1.23,5.536,5.536,0,0,1,.272.919c0.035,0.159.032,0.322,0.063,0.479,0.013,0.064.024,0.125,0.035,0.189a0.248,0.248,0,0,0,.027.06c0.016,0.036.021,0.092,0.06,0.052a2.86,2.86,0,0,1,.034.654h0ZM2.891,7.685L2.926,7.66c-0.078.023-.076-0.047-0.055-0.1a1.5,1.5,0,0,1,.147-0.181,0.314,0.314,0,0,0,.071.058c0.052-.065.1-0.13,0.158-0.193C3.3,7.323,3.382,7.288,3.321,7.395a1.167,1.167,0,0,1-.139.174,0.152,0.152,0,0,1,.039.09,0.785,0.785,0,0,1-.194.277,0.581,0.581,0,0,0-.129.087,0.341,0.341,0,0,1-.039.1c-0.021.022-.054,0.033-0.076,0.054a0.84,0.84,0,0,1-.107.142c-0.062.038-.121,0.029-0.119-0.043-0.041.006-.08,0.02-0.12,0.03a1.8,1.8,0,0,1,.137-0.213C2.613,8.043,2.664,8.01,2.7,7.965s0.059-.107.1-0.156a0.516,0.516,0,0,0,.089-0.124h0Z" transform="translate(0 0)"/>
</svg>
