<svg xmlns="http://www.w3.org/2000/svg" width="16" height="16" viewBox="0 0 16 16">
  <defs>
    <style>
      .i-color {
        fill: #000;
        fill-rule: evenodd;
      }
    </style>
  </defs>
  <path id="file_type_pug.svg" class="i-color" d="M13.313,3.771A10.736,10.736,0,0,1,16,6.433c-0.063.139-.975,0.908-1.249,1.211-0.6,1.383-1.135,2.373-1.328,1.27-0.22,1.326-.69,1.21-0.874,1.858A2.01,2.01,0,0,1,11.159,12.4a3.247,3.247,0,0,1-1.136.321,7.051,7.051,0,0,1-3.883.013,3.932,3.932,0,0,1-1.969-.779,2.924,2.924,0,0,1-.729-1.463,2.741,2.741,0,0,1-.832-1.76C2.518,9.96,1.861,9.3,1.255,7.636c0,0-1.191-1.066-1.253-1.2A10.7,10.7,0,0,1,2.688,3.771C5.062,2.683,10.7,2.712,13.313,3.771ZM9.255,7.434c1.283,0.439,2.495,1.832,2.295,3.111A4.886,4.886,0,0,1,11.4,11.96c1.1-.726.615-0.959,1.051-1.657a2.9,2.9,0,0,0,.706-1.408c-0.127-.96-0.25-2.662-0.4-3.17a9.493,9.493,0,0,0-1.189-1.9A12.962,12.962,0,0,0,4.516,3.8,9.67,9.67,0,0,0,3.3,5.734C3.153,6.216,3.023,7.87,2.9,8.849,3,9.78,3.7,10.192,3.8,10.685a1.568,1.568,0,0,0,.967,1.335,4.614,4.614,0,0,1-.176-1.493c-0.208-1.48,1.216-2.739,2.369-3.1A1.377,1.377,0,0,1,9.255,7.434ZM9.479,11A1.742,1.742,0,0,0,8.2,9.3L8.228,7.97C9.29,7.9,9.166,7.117,8.094,7.062c-0.824.007-1.4,0.773-.138,0.907V9.295a1.662,1.662,0,0,0-1.273,1.687A1.44,1.44,0,0,1,8.132,9.6,1.481,1.481,0,0,1,9.479,11ZM5.2,6.544a0.288,0.288,0,0,0-.431-0.251,0.291,0.291,0,0,0,0,.5A0.288,0.288,0,0,0,5.2,6.544ZM4.07,8a1.115,1.115,0,0,1,0-1.921A1.1,1.1,0,1,1,4.07,8Zm6.881,0a1.115,1.115,0,0,1,0-1.921A1.1,1.1,0,1,1,10.952,8ZM11.5,6.544a0.288,0.288,0,0,0-.431-0.251,0.291,0.291,0,0,0,0,.5A0.288,0.288,0,0,0,11.5,6.544Z" transform="translate(0 0)"/>
</svg>
