<svg xmlns="http://www.w3.org/2000/svg" width="16" height="16" viewBox="0 0 16 16">
  <defs>
    <style>
      .i-color {
        fill: #000;
        fill-rule: evenodd;
      }
    </style>
  </defs>
  <path id="file_type_python.svg" class="i-color" d="M7.949,1C4.395,1,4.617,2.549,4.617,2.549l0,1.605H8.013V4.636H3.274S1,4.377,1,7.982s1.985,3.477,1.985,3.477H4.169V9.786a1.89,1.89,0,0,1,1.953-2H9.487a1.81,1.81,0,0,0,1.89-1.836V2.868S11.664,1,7.949,1h0ZM6.079,2.079a0.613,0.613,0,1,1-.61.613A0.611,0.611,0,0,1,6.079,2.079ZM8.052,15c3.554,0,3.332-1.549,3.332-1.549l0-1.605H7.988V11.364h4.739S15,11.623,15,8.018s-1.985-3.477-1.985-3.477H11.832V6.214a1.89,1.89,0,0,1-1.953,2H6.514a1.81,1.81,0,0,0-1.89,1.836v3.087S4.337,15,8.052,15h0Zm1.87-1.079a0.613,0.613,0,1,1,.61-0.613A0.611,0.611,0,0,1,9.922,13.921Z" transform="translate(0 0)"/>
</svg>
