<svg xmlns="http://www.w3.org/2000/svg" width="16" height="16" viewBox="0 0 16 16">
  <defs>
    <style>
      .i-color {
        fill: #000;
        fill-rule: evenodd;
      }
    </style>
  </defs>
  <path id="file_type_r.svg" class="i-color" d="M15.275,9.5c2.585-4.065-2.321-6.72-5.6-7.333C3.1,0.939-3.71,6.736,2.359,11.113A8.349,8.349,0,0,0,6,12.406V14H8.685V12.512a12.832,12.832,0,0,0,2.289-.336C11.449,13.089,11.856,14,11.856,14h3.05s-0.991-1.657-1.623-2.7A5.45,5.45,0,0,0,15.275,9.5Zm-6.59,1.81V10.345h1a1.877,1.877,0,0,1,.777.9A11.533,11.533,0,0,1,8.685,11.31ZM10.69,8.593H8.685V6.823H10.69a1.118,1.118,0,0,1,.668.9A1.059,1.059,0,0,1,10.69,8.593Zm2.194,2.048c-0.041-.066-0.072-0.117-0.092-0.147a2.922,2.922,0,0,0-1.286-.6A2.542,2.542,0,0,0,13.97,7.305c-0.022-1.849-1.88-2.355-2.813-2.355H6v5.883a4.873,4.873,0,0,1-1.069-.515c-4.651-3.083.566-7.166,5.6-6.3,2.514,0.432,6.274,2.3,4.293,5.165A4.372,4.372,0,0,1,12.884,10.641Z" transform="translate(0 -1)"/>
</svg>
