<svg xmlns="http://www.w3.org/2000/svg" width="16" height="16" viewBox="0 0 16 16">
  <defs>
    <style>
      .i-color {
        fill: #000;
        fill-rule: evenodd;
      }
    </style>
  </defs>
  <path id="file_type_rails.svg" class="i-color" d="M2.516,15H9.349a15.2,15.2,0,0,1-1.13-6.725,5.367,5.367,0,0,1,4.29-4.841,2.592,2.592,0,0,1,2.184.733L15,3.7a6.387,6.387,0,0,0-4.6-1.858A6.943,6.943,0,0,0,4.956,5.894a19.219,19.219,0,0,0-2.183,5.757A10.681,10.681,0,0,0,2.516,15ZM1.154,11.494L2.49,11.6,2.259,12.959,1,12.8ZM3.261,8.615L3.62,7.594,2.439,7.123l-0.385,1.1ZM4.93,5.109l0.694-.837-0.9-.6-0.719.811ZM6.754,1.864L7.371,2.623l0.848-.5L7.6,1.419ZM9.76,1L9.914,1.759l1.053-.026-0.1-.68ZM13.33,1.811L13.3,2.282l0.719,0.393,0.154-.236ZM13.176,3.826V4.219L13.87,4.3V3.983Zm-2.209.34L11.3,4.795,11.789,4.4l-0.1-.419Zm-1.053.811,0.514,0.785-0.308.55L9.374,5.475ZM8.886,7.15l-0.334.68L9.426,8.589l0.205-.864ZM8.527,9.531l-0.051.916,1.079,0.471L9.5,10.054Zm0.308,3.245,0.257,0.942L10.453,13.8,9.965,12.776H8.835Z" transform="translate(0 -1)"/>
</svg>
