<svg xmlns="http://www.w3.org/2000/svg" width="16" height="16" viewBox="0 0 16 16">
  <defs>
    <style>
      .i-color {
        fill: #000;
        fill-rule: evenodd;
      }
    </style>
  </defs>
  <path id="file_type_riot.svg" class="i-color" d="M13,15H3a2,2,0,0,1-2-2V3A2,2,0,0,1,3,1H13a2,2,0,0,1,2,2V13A2,2,0,0,1,13,15Zm-2-3.077L9.336,8.654a2.345,2.345,0,0,0,1.033-.871,2.538,2.538,0,0,0,.341-1.365A2.221,2.221,0,0,0,9.97,4.632,3.143,3.143,0,0,0,7.868,4H5.01v8H6.595V9.071H7.857L9.3,12H11V11.923ZM7.873,7.736H6.595v-2.4H7.868a1.254,1.254,0,0,1,.948.324,1.237,1.237,0,0,1,.309.89A1.153,1.153,0,0,1,8.8,7.42,1.277,1.277,0,0,1,7.873,7.736Z" transform="translate(0 -1)"/>
</svg>
