<svg xmlns="http://www.w3.org/2000/svg" width="16" height="16" viewBox="0 0 16 16">
  <defs>
    <style>
      .i-color {
        fill: #000;
        fill-rule: evenodd;
      }
    </style>
  </defs>
  <path id="file_type_rust.svg" class="i-color" d="M14.9,7.831l-0.587-.363c0-.057-0.01-0.114-0.017-0.171l0.5-.471a0.2,0.2,0,0,0-.067-0.337l-0.645-.241c-0.016-.056-0.033-0.111-0.05-0.167l0.4-.559a0.2,0.2,0,0,0,.023-0.2A0.2,0.2,0,0,0,14.308,5.2l-0.68-.111c-0.026-.052-0.054-0.1-0.082-0.153l0.286-.628a0.2,0.2,0,0,0-.191-0.286l-0.69.024c-0.036-.044-0.072-0.089-0.109-0.133L13,3.246A0.2,0.2,0,0,0,12.758,3l-0.672.159C12.042,3.124,12,3.088,11.953,3.052l0.024-.69a0.2,0.2,0,0,0-.089-0.175,0.2,0.2,0,0,0-.2-0.016l-0.628.286-0.153-.082L10.8,1.695a0.2,0.2,0,0,0-.123-0.154,0.2,0.2,0,0,0-.2.023l-0.559.4-0.166-.05L9.517,1.27A0.2,0.2,0,0,0,9.18,1.2l-0.471.505L8.538,1.691,8.174,1.1a0.2,0.2,0,0,0-.344,0l-0.363.587L7.3,1.708,6.825,1.2a0.2,0.2,0,0,0-.337.067l-0.242.645-0.166.05-0.559-.4a0.2,0.2,0,0,0-.318.131l-0.111.68C5.042,2.4,4.99,2.429,4.94,2.457L4.312,2.171a0.2,0.2,0,0,0-.2.016,0.2,0.2,0,0,0-.089.175l0.024,0.69c-0.044.036-.089,0.072-0.133,0.109L3.245,3A0.2,0.2,0,0,0,3,3.246L3.161,3.919c-0.037.044-.073,0.087-0.109,0.133l-0.69-.024a0.2,0.2,0,0,0-.191.286L2.457,4.94c-0.028.05-.055,0.1-0.082,0.153L1.695,5.2a0.2,0.2,0,0,0-.131.318l0.4,0.559c-0.017.055-.034,0.111-0.05,0.167L1.27,6.489a0.2,0.2,0,0,0-.067.337L1.708,7.3C1.7,7.354,1.7,7.411,1.691,7.468L1.1,7.831a0.2,0.2,0,0,0,0,.344L1.691,8.538C1.7,8.6,1.7,8.653,1.708,8.709L1.2,9.18a0.2,0.2,0,0,0,.067.337L1.915,9.759c0.016,0.056.033,0.112,0.05,0.167l-0.4.559a0.2,0.2,0,0,0-.023.195,0.2,0.2,0,0,0,.154.122l0.68,0.111c0.026,0.052.054,0.1,0.082,0.153l-0.286.627a0.2,0.2,0,0,0,.191.286l0.69-.024c0.036,0.045.072,0.089,0.109,0.133L3,12.759A0.2,0.2,0,0,0,3.245,13l0.673-.158,0.133,0.109-0.024.691a0.2,0.2,0,0,0,.286.19l0.628-.286c0.05,0.028.1,0.055,0.153,0.082L5.2,14.311a0.2,0.2,0,0,0,.122.154,0.205,0.205,0,0,0,.2-0.022l0.559-.4,0.167,0.05,0.242,0.645a0.2,0.2,0,0,0,.337.067L7.3,14.3c0.057,0.007.114,0.012,0.172,0.017L7.832,14.9a0.2,0.2,0,0,0,.343,0l0.363-.587L8.709,14.3,9.18,14.8a0.2,0.2,0,0,0,.337-0.067l0.242-.645,0.167-.05,0.559,0.4a0.2,0.2,0,0,0,.2.022,0.2,0.2,0,0,0,.122-0.154l0.111-.68,0.153-.082,0.628,0.286a0.2,0.2,0,0,0,.285-0.19l-0.024-.691,0.133-.109L12.76,13a0.2,0.2,0,0,0,.189-0.054A0.2,0.2,0,0,0,13,12.759l-0.158-.673c0.037-.044.073-0.087,0.109-0.133l0.69,0.024a0.2,0.2,0,0,0,.175-0.089,0.2,0.2,0,0,0,.015-0.2l-0.286-.627c0.027-.05.055-0.1,0.082-0.153l0.68-.111a0.2,0.2,0,0,0,.131-0.317l-0.4-.559c0.017-.055.034-0.111,0.05-0.167l0.645-.241a0.2,0.2,0,0,0,.127-0.15A0.2,0.2,0,0,0,14.8,9.18l-0.5-.471c0.006-.057.011-0.114,0.017-0.171L14.9,8.175a0.2,0.2,0,0,0,0-.344h0ZM10.968,12.7a0.416,0.416,0,1,1,.493-0.319A0.417,0.417,0,0,1,10.968,12.7Zm-0.2-1.349a0.378,0.378,0,0,0-.449.291l-0.209.973A5.129,5.129,0,0,1,5.846,12.6l-0.209-.973a0.379,0.379,0,0,0-.449-0.291l-0.859.184a5.153,5.153,0,0,1-.444-0.523h4.18c0.047,0,.079-0.009.079-0.052V9.463c0-.043-0.032-0.052-0.079-0.052H6.842V8.474H8.164a0.831,0.831,0,0,1,.813.7c0.052,0.206.168,0.877,0.247,1.092a1.067,1.067,0,0,0,.739.722h2.083a0.432,0.432,0,0,0,.075-0.007,5.112,5.112,0,0,1-.473.556l-0.879-.189h0Zm-5.78,1.329a0.416,0.416,0,1,1,.319-0.494A0.415,0.415,0,0,1,4.988,12.682ZM3.4,6.253a0.415,0.415,0,1,1-.548-0.212A0.416,0.416,0,0,1,3.4,6.253ZM2.916,7.408l0.895-.4A0.379,0.379,0,0,0,4,6.51L3.819,6.093H4.543V9.36H3.081a5.107,5.107,0,0,1-.2-1.4,5.29,5.29,0,0,1,.029-0.55h0Zm3.927-.317V6.129H8.569a0.644,0.644,0,0,1,.63.507,0.642,0.642,0,0,1-.755.455h-1.6Zm6.272,0.866q0,0.192-.014.379H12.575a0.072,0.072,0,0,0-.074.086V8.664a0.619,0.619,0,0,1-.6.722,0.574,0.574,0,0,1-.6-0.275,1.8,1.8,0,0,0-.834-1.4,1.886,1.886,0,0,0,1.049-1.453,1.643,1.643,0,0,0-.8-1.349,2.282,2.282,0,0,0-1.1-.361H4.19A5.107,5.107,0,0,1,7.051,2.932L7.691,3.6a0.379,0.379,0,0,0,.535.012L8.942,2.93a5.118,5.118,0,0,1,3.5,2.494L11.953,6.53a0.38,0.38,0,0,0,.193.5L13.089,7.45C13.106,7.617,13.114,7.787,13.114,7.958Zm-5.423-5.6a0.415,0.415,0,1,1-.014.588A0.415,0.415,0,0,1,7.691,2.361Zm4.862,3.912a0.415,0.415,0,1,1,.211.549A0.416,0.416,0,0,1,12.554,6.273Z" transform="translate(0 -1)"/>
</svg>
