<svg xmlns="http://www.w3.org/2000/svg" width="16" height="16" viewBox="0 0 16 16">
  <defs>
    <style>
      .i-color {
        fill: #000;
        fill-rule: evenodd;
      }
    </style>
  </defs>
  <path id="file_type_sass.svg" class="i-color" d="M15.984,10.5a1.63,1.63,0,0,0-.657-1.114A2.409,2.409,0,0,0,13.9,8.9a3.218,3.218,0,0,0-1.244.193c-0.114.042-.227,0.091-0.342,0.137C12.3,9.2,12.279,9.172,12.266,9.144a2.331,2.331,0,0,1-.292-0.754,1.69,1.69,0,0,1,0-.591c0.045-.188.1-0.373,0.159-0.559a0.136,0.136,0,0,0-.082-0.192,0.369,0.369,0,0,0-.1-0.033,1.545,1.545,0,0,0-.66.049,0.19,0.19,0,0,0-.149.151c-0.01.049-.03,0.1-0.043,0.144a3.613,3.613,0,0,1-.188.6c-0.229.479-.49,0.939-0.758,1.4-0.029.049-.059,0.1-0.1,0.158a2.076,2.076,0,0,1-.225-0.583,1.8,1.8,0,0,1,0-.7c0.043-.174.1-0.345,0.152-0.516a0.119,0.119,0,0,0-.06-0.167A0.354,0.354,0,0,0,9.8,7.492a1.477,1.477,0,0,0-.683.056,0.186,0.186,0,0,0-.127.139,5.424,5.424,0,0,1-.2.63c-0.354.815-.718,1.627-1.082,2.437-0.076.169-.165,0.333-0.251,0.5a1.2,1.2,0,0,1-.08.118,0.1,0.1,0,0,1-.03-0.061A1.673,1.673,0,0,1,7.348,11c0.06-.3.129-0.608,0.2-0.91,0.06-.249.13-0.5,0.2-0.745a0.233,0.233,0,0,0-.037-0.23,0.341,0.341,0,0,0-.431-0.052c-0.013.01-.029,0.016-0.055,0.031,0-.039.007-0.064,0.011-0.089a1.39,1.39,0,0,0-.02-0.566,0.448,0.448,0,0,0-.47-0.359,1.007,1.007,0,0,0-.333.064,2.52,2.52,0,0,0-1.057.842,0.327,0.327,0,0,1-.1.084c-0.369.206-.74,0.409-1.11,0.613l-0.412.227C3.624,9.8,3.523,9.691,3.409,9.6c-0.348-.285-0.7-0.563-1.052-0.845a4.163,4.163,0,0,1-.842-0.841,1.5,1.5,0,0,1-.292-0.82,1.933,1.933,0,0,1,.293-1.072,4.113,4.113,0,0,1,.972-1.068A8.95,8.95,0,0,1,3.764,4.1a9.617,9.617,0,0,1,1.959-.869,5.392,5.392,0,0,1,2.165-.247,2.213,2.213,0,0,1,.833.243,0.862,0.862,0,0,1,.438.476,1.2,1.2,0,0,1,.02.667,2.55,2.55,0,0,1-.663,1.16A4.475,4.475,0,0,1,6.684,6.7a5.006,5.006,0,0,1-1.246.267,2.334,2.334,0,0,1-1.019-.124,1.326,1.326,0,0,1-.562-0.383,0.084,0.084,0,0,0-.113-0.037,0.1,0.1,0,0,0-.042.126,1.208,1.208,0,0,0,.1.235,1.343,1.343,0,0,0,.445.423,2.17,2.17,0,0,0,1.105.3,5.535,5.535,0,0,0,1.742-.223A4.272,4.272,0,0,0,9.183,6.019a3.231,3.231,0,0,0,.883-1.849A1.794,1.794,0,0,0,9.9,3.152a1.792,1.792,0,0,0-.8-0.766,3.746,3.746,0,0,0-1.573-.391H6.978a6.533,6.533,0,0,0-1.933.4,13.23,13.23,0,0,0-1.387.593,8.956,8.956,0,0,0-2.644,1.9A3.956,3.956,0,0,0,.142,6.267C0.089,6.422.056,6.586,0.018,6.746c0,0.013.012,0.026-.021,0.039V7.011a0.638,0.638,0,0,1,.051.173,2.535,2.535,0,0,0,.541.993A6.512,6.512,0,0,0,1.8,9.252C2.185,9.528,2.572,9.8,2.955,10.07c0.066,0.047.127,0.1,0.2,0.158-0.061.033-.113,0.063-0.166,0.09a8.848,8.848,0,0,0-1.44.9,2.955,2.955,0,0,0-.716.727,1.571,1.571,0,0,0-.181,1.508,0.89,0.89,0,0,0,.3.391,0.44,0.44,0,0,0,.148.077C1.236,13.949,1.374,13.97,1.511,14H1.9a2.4,2.4,0,0,0,1.17-.43,2.579,2.579,0,0,0,1.081-1.55,2.749,2.749,0,0,0-.016-1.43C4.12,10.542,4.1,10.5,4.087,10.456s-0.036-.084-0.059-0.137l0.878-.507L4.919,9.823c-0.016.052-.033,0.1-0.047,0.158a3.584,3.584,0,0,0-.149,1.169,2.251,2.251,0,0,0,.391,1.173,0.565,0.565,0,0,0,.886.01,2.052,2.052,0,0,0,.2-0.322c0.143-.3.276-0.6,0.412-0.9,0.006-.013.011-0.026,0.024-0.055-0.01.142-.021,0.267-0.027,0.392a1.5,1.5,0,0,0,.069.574,0.394,0.394,0,0,0,.334.3,0.419,0.419,0,0,0,.313-0.115,1.326,1.326,0,0,0,.344-0.41c0.243-.448.492-0.892,0.712-1.351,0.238-.5.446-1.007,0.667-1.512,0.012-.028.023-0.056,0.037-0.09,0.052,0.206.089,0.408,0.156,0.6a5.583,5.583,0,0,0,.279.648,0.194,0.194,0,0,1-.025.247c-0.288.349-.571,0.7-0.854,1.054a2.326,2.326,0,0,0-.177.242,0.47,0.47,0,0,0-.061.175,0.223,0.223,0,0,0,.177.253,1.223,1.223,0,0,0,.346.025,2.022,2.022,0,0,0,1.072-.4,1.131,1.131,0,0,0,.444-1.218,2.848,2.848,0,0,0-.121-0.394,0.146,0.146,0,0,1,.016-0.154,12.522,12.522,0,0,0,.87-1.483,0.313,0.313,0,0,1,.039-0.062,3.859,3.859,0,0,0,.44,1.255c-0.116.113-.232,0.215-0.336,0.328a2.254,2.254,0,0,0-.533.846,1.008,1.008,0,0,0-.059.437,0.367,0.367,0,0,0,.452.334,2.056,2.056,0,0,0,1.227-.76,1,1,0,0,0,.14-0.912C12.555,9.81,12.527,9.723,12.5,9.622c0.121-.038.24-0.083,0.362-0.111a3.2,3.2,0,0,1,1.876.11,1.417,1.417,0,0,1,.817.714,0.826,0.826,0,0,1-.313,1.118,0.733,0.733,0,0,0-.113.077,0.111,0.111,0,0,0-.026.086,0.086,0.086,0,0,0,.068.035,0.621,0.621,0,0,0,.346-0.144,1.047,1.047,0,0,0,.474-0.746c0-.009-0.012-0.018.02-0.027V10.522c-0.033-.009-0.019-0.017-0.02-0.027h0ZM3.55,11.363a2.038,2.038,0,0,1-.722,1.41A1.639,1.639,0,0,1,2,13.187a0.607,0.607,0,0,1-.344-0.024,0.353,0.353,0,0,1-.2-0.361,1.31,1.31,0,0,1,.194-0.665,2.37,2.37,0,0,1,.6-0.667,9.289,9.289,0,0,1,1.183-.8,0.281,0.281,0,0,1,.031-0.013,2.094,2.094,0,0,1,.076.706h0ZM6.761,8.878a4.348,4.348,0,0,1-.12.542,16.065,16.065,0,0,1-.674,1.791,3.047,3.047,0,0,1-.175.31,0.221,0.221,0,0,1-.036.043c-0.074.073-.144,0.069-0.181-0.027a2.023,2.023,0,0,1-.093-0.348,1.826,1.826,0,0,1-.016-0.243,3.056,3.056,0,0,1,.477-1.587A1.491,1.491,0,0,1,6.4,8.84a0.825,0.825,0,0,1,.2-0.091c0.108-.031.175,0.02,0.157,0.129h0Zm2.191,2.8,0.787-.924A1.072,1.072,0,0,1,8.952,11.682Zm2.515-.621c-0.056.032-.116,0.055-0.174,0.085s-0.069,0-.071-0.045a0.31,0.31,0,0,1,.012-0.092,1.984,1.984,0,0,1,.593-0.96,0.1,0.1,0,0,1,.02-0.011,0.849,0.849,0,0,1-.381,1.023h0Z" transform="translate(0 -1)"/>
</svg>
