<svg xmlns="http://www.w3.org/2000/svg" width="32" height="32" viewBox="0 0 32 32">
  <path fill="#AA759F" fill-rule="evenodd" d="M27.5610038,19.9190752 C27.5158885,19.5888697 27.4107794,19.2965802 27.2456767,19.0422068 C27.0805739,18.7878333 26.8703559,18.5627368 26.6150226,18.3669173 C26.3299323,18.1269424 26.0150852,17.9546404 25.6704812,17.8500113 C25.3258772,17.7453822 24.973594,17.6853885 24.6136316,17.6700301 C24.313183,17.6700301 24.0170539,17.6925877 23.7252444,17.737703 C23.4334348,17.7828183 23.144505,17.8504912 22.8584549,17.9407218 C22.7682243,17.9704787 22.6856729,18.0040752 22.6108008,18.0415113 C22.5359286,18.0789474 22.4533772,18.1125439 22.3631466,18.1423008 C22.3631466,18.1269424 22.3554674,18.1082243 22.340109,18.0861466 C22.3247506,18.0640689 22.3098722,18.0453509 22.2954737,18.0299925 C22.2206015,17.8495313 22.1418897,17.6772293 22.0593383,17.5130865 C21.976787,17.3489436 21.9206328,17.1689624 21.8908759,16.9731429 C21.8755175,16.8233985 21.8644787,16.6808534 21.8577594,16.5455075 C21.8510401,16.4101617 21.8620789,16.2752957 21.8908759,16.1409098 C21.9196729,16.0065238 21.9532694,15.8754975 21.9916654,15.7478308 C22.0300614,15.6201642 22.0713371,15.4891378 22.1154925,15.3547519 C22.1308509,15.2798797 22.1308509,15.2237256 22.1154925,15.1862895 C22.1001341,15.1488534 22.062698,15.1152569 22.0031842,15.0855 C21.9734273,15.0701416 21.9470301,15.0591028 21.9239925,15.0523835 C21.9009549,15.0456642 21.8745576,15.0418246 21.8448008,15.0408647 C21.6950564,15.0111078 21.5414724,15.0034286 21.3840489,15.0178271 C21.2266253,15.0322256 21.0730414,15.0624624 20.923297,15.1085376 C20.8628233,15.123896 20.8138684,15.1464536 20.7764323,15.1762105 C20.7389962,15.2059674 20.7202782,15.2510827 20.7202782,15.3115564 C20.7049198,15.3566717 20.693881,15.3941078 20.6871617,15.4238647 C20.6804424,15.4536216 20.6694035,15.4838584 20.6540451,15.5145752 C20.6089298,15.6643195 20.5676541,15.8107043 20.530218,15.9537293 C20.492782,16.0967544 20.4438271,16.2277807 20.3833534,16.3468083 C20.2182506,16.6914123 20.0459486,17.0249774 19.8664474,17.3475038 C19.6869461,17.6700301 19.5069649,17.996396 19.3265038,18.3266015 C19.2967469,18.3563584 19.2703496,18.3899549 19.247312,18.427391 C19.2242744,18.4648271 19.2055564,18.4984236 19.1911579,18.5281805 C19.1162857,18.3928346 19.0486128,18.2618083 18.9881391,18.1351015 C18.9276654,18.0083947 18.8902293,17.8696892 18.8758308,17.718985 C18.8460739,17.5538822 18.8273559,17.3887794 18.8196767,17.2236767 C18.8119975,17.0585739 18.8230363,16.8934712 18.8527932,16.7283684 C18.8825501,16.608381 18.9161466,16.4883935 18.9535827,16.368406 C18.9910188,16.2484185 19.0322945,16.1284311 19.0774098,16.0084436 C19.0927682,15.9479699 19.0966078,15.9028546 19.0889286,15.8730977 C19.0812494,15.8433409 19.0476529,15.813104 18.9881391,15.7823872 L18.8974286,15.7377519 C18.8974286,15.7377519 18.8748709,15.7300727 18.8297556,15.7147143 C18.6646529,15.6849574 18.4995501,15.6772782 18.3344474,15.6916767 C18.1693446,15.7060752 18.0119211,15.736312 17.8621767,15.7823872 C17.801703,15.7977456 17.7604273,15.8241429 17.7383496,15.8615789 C17.7162719,15.899015 17.6975539,15.9402907 17.6821955,15.985406 L17.5468496,16.4360789 C17.5468496,16.4360789 17.4945351,16.5786241 17.389906,16.8637143 L15.8593459,20.2833571 C15.8142306,20.4033446 15.761916,20.5233321 15.7024023,20.6433195 C15.6428885,20.763307 15.5828947,20.8756153 15.5224211,20.9802444 C15.4926642,21.0100013 15.4701065,21.0402381 15.4547481,21.0709549 C15.4393897,21.1016717 15.4168321,21.1319085 15.3870752,21.1616654 C15.3717168,21.146307 15.3640376,21.1314286 15.3640376,21.1170301 L15.3640376,21.0723947 C15.3640376,20.9975226 15.360198,20.9226504 15.3525188,20.8477782 C15.3448396,20.772906 15.3486792,20.6980338 15.3640376,20.6231617 L15.4993835,19.9925075 C15.4993835,19.9925075 15.551698,19.7822895 15.6563271,19.3618534 C15.7014424,19.1813922 15.7465576,19.0052506 15.7916729,18.8334286 C15.8367882,18.6616065 15.8819035,18.4854649 15.9270188,18.3050038 C15.9423772,18.2445301 15.9500564,18.1883759 15.9500564,18.1365414 C15.9500564,18.0847068 15.9274987,18.0357519 15.8823835,17.9896767 C15.8075113,17.8994461 15.7062419,17.8471316 15.5785752,17.8327331 C15.4509085,17.8183346 15.3496391,17.8485714 15.2747669,17.9234436 C15.2594085,17.9234436 15.2445301,17.9272832 15.2301316,17.9349624 C15.2157331,17.9426416 15.2008546,17.9536805 15.1854962,17.9680789 C15.1854962,17.9383221 15.1893358,17.9119248 15.197015,17.8888872 C15.2046942,17.8658496 15.2085338,17.8471316 15.2085338,17.8327331 C15.2238922,17.6973872 15.2315714,17.5625213 15.2315714,17.4281353 C15.2315714,17.2937494 15.216693,17.1660827 15.1869361,17.0451353 C15.1418208,16.8800326 15.0592694,16.7523659 14.939282,16.6621353 C14.8192945,16.5719048 14.6767494,16.5267895 14.5116466,16.5267895 C14.4367744,16.5267895 14.3580627,16.5344687 14.2755113,16.5498271 C14.1929599,16.5651855 14.1142481,16.5877431 14.0393759,16.6175 C13.7389273,16.7374875 13.4653559,16.9025902 13.2186617,17.1128083 C12.9719674,17.3230263 12.7507105,17.5553221 12.554891,17.8096955 L12.4987368,17.8658496 C12.4987368,17.8658496 12.4723396,17.8845677 12.4195451,17.9220038 C12.1642118,18.0717481 11.9055188,18.2181328 11.6434662,18.3611579 C11.3814135,18.504183 11.1150414,18.6428885 10.8443496,18.7772744 C10.754119,18.8377481 10.6605288,18.8939023 10.5635789,18.9457368 C10.4666291,18.9975714 10.3653596,19.0465263 10.2597707,19.0926015 C10.1848985,19.0177293 10.1100263,18.9466967 10.0351541,18.8795038 C9.96028195,18.8123108 9.88540977,18.7412782 9.81053759,18.666406 C9.57056266,18.4715464 9.32674812,18.2766867 9.07909398,18.0818271 C8.83143985,17.8869674 8.58042607,17.6844286 8.32605263,17.4742105 C8.11583459,17.3091078 7.90561654,17.1291266 7.6953985,16.9342669 C7.48518045,16.7394073 7.29752005,16.5291892 7.13241729,16.3036128 C7.01242982,16.1231516 6.9188396,15.9393308 6.85164662,15.7521504 C6.78445363,15.5649699 6.74317794,15.3662707 6.72781955,15.1560526 C6.71246115,14.8863208 6.74269799,14.6237882 6.81853008,14.3684549 C6.89436216,14.1131216 6.99947118,13.8731466 7.13385714,13.6485301 C7.3143183,13.3480815 7.52453634,13.0778697 7.76451128,12.8378947 C8.00448622,12.5979198 8.25214035,12.3656241 8.50747368,12.1410075 C8.79256391,11.916391 9.08485338,11.7061729 9.38434211,11.5103534 C9.68383083,11.3145338 9.9914787,11.1268734 10.3072857,10.9473722 C10.7574787,10.7073972 11.2110313,10.4823008 11.6679436,10.2720827 C12.1248559,10.0618647 12.5937669,9.88188346 13.0746767,9.7321391 C13.569985,9.58239474 14.0724925,9.47344612 14.5821992,9.40529323 C15.091906,9.33714035 15.609292,9.33330075 16.1343571,9.39377444 C16.3445752,9.40913283 16.547114,9.44272932 16.7419737,9.49456391 C16.9368333,9.5463985 17.1244937,9.62511028 17.3049549,9.73069925 C17.4403008,9.80557143 17.5641278,9.89580201 17.6764361,10.001391 C17.7887444,10.1069799 17.8751353,10.2346466 17.935609,10.384391 C17.9807243,10.5494937 18.003282,10.7107569 18.003282,10.8681805 C18.003282,11.025604 17.9884035,11.179188 17.9586466,11.3289323 C17.8837744,11.6437794 17.763787,11.9360689 17.5986842,12.2058008 C17.4335815,12.4755326 17.2387218,12.7231867 17.0141053,12.9487632 C16.6541429,13.3384825 16.2567444,13.668688 15.8219098,13.9393797 C15.3870752,14.2100714 14.9220038,14.4274887 14.4266955,14.5916316 C14.1416053,14.6962607 13.8526754,14.778812 13.559906,14.8392857 C13.2671366,14.8997594 12.9710075,14.9448747 12.6715188,14.9746316 C12.4315439,14.98999 12.1915689,14.9861504 11.951594,14.9631128 C11.711619,14.9400752 11.4716441,14.8839211 11.2316692,14.7946504 C11.0819248,14.7341767 10.9393797,14.6631441 10.8040338,14.5815526 C10.668688,14.4999612 10.5487005,14.3910125 10.4440714,14.2547068 C10.428713,14.2393484 10.409995,14.2244699 10.3879173,14.2100714 C10.3658396,14.1956729 10.3322431,14.1956729 10.2871278,14.2100714 C10.2573709,14.2254298 10.2386529,14.2518271 10.2309737,14.2892632 C10.2232945,14.3266992 10.2271341,14.3602957 10.2424925,14.3900526 C10.2578509,14.4505263 10.2765689,14.5066805 10.2986466,14.558515 C10.3207243,14.6103496 10.3471216,14.6593045 10.3778383,14.7053797 C10.4527105,14.8407256 10.5429411,14.9568734 10.6485301,15.0538233 C10.754119,15.1507732 10.8664273,15.2371642 10.9854549,15.3129962 C11.2254298,15.4627406 11.4764436,15.5678496 11.7384962,15.6283233 C12.0005489,15.688797 12.2741203,15.7262331 12.5592105,15.7406316 C12.9796466,15.75599 13.3919236,15.7334323 13.7960414,15.6729586 C14.2001591,15.612485 14.6052368,15.5299336 15.0112744,15.4253045 C15.5814549,15.2602018 16.1137193,15.0351053 16.6080677,14.750015 C17.102416,14.4649248 17.552609,14.0972832 17.9586466,13.6470902 C18.2888521,13.2717694 18.5662632,12.8705313 18.7908797,12.4433759 C19.0154962,12.0162206 19.1503622,11.5549887 19.1954774,11.0596805 C19.2252343,10.8043471 19.2252343,10.556693 19.1954774,10.316718 C19.1657206,10.0767431 19.0908484,9.84444737 18.9708609,9.61983083 C18.8508734,9.37985589 18.6934499,9.17347744 18.4985902,9.00069549 C18.3037306,8.82791353 18.0863133,8.67432957 17.8463383,8.53994361 C17.5017343,8.35948246 17.1417719,8.22845614 16.7664511,8.14686466 C16.3911303,8.06527318 16.0086103,8.0163183 15.618891,8 L14.8543308,8 C14.3897393,8.0153584 13.9285075,8.07151253 13.4706353,8.16846241 C13.0127632,8.26541228 12.5664098,8.3964386 12.1315752,8.56154135 C11.7869712,8.68152882 11.453406,8.80919549 11.1308797,8.94454135 C10.8083534,9.07988722 10.4896667,9.23011153 10.1748195,9.39521429 C9.48465163,9.7398183 8.82088095,10.1261779 8.18350752,10.5542932 C7.54613409,10.9824085 6.96491479,11.4810764 6.43984962,12.050297 C6.17011779,12.3353872 5.93014286,12.6391955 5.71992481,12.9617218 C5.50970677,13.2842481 5.33740476,13.6254925 5.2030188,13.9854549 C5.1732619,14.1054424 5.14302506,14.2215902 5.11230827,14.3338985 C5.08159148,14.4462068 5.05903383,14.5551554 5.04463534,14.6607444 C5.02927694,14.6761028 5.02543734,14.6871416 5.03311654,14.6938609 C5.04079574,14.7005802 5.02975689,14.711619 5,14.7269774 L5,15.0423045 C5.02975689,15.0720614 5.04847494,15.1094975 5.05615414,15.1546128 C5.06383333,15.1997281 5.06767293,15.2448434 5.06767293,15.2899586 C5.14254511,15.545292 5.24765414,15.7891065 5.383,16.0214023 C5.51834586,16.253698 5.66857018,16.4749549 5.83367293,16.6851729 C6.08900627,16.9702632 6.36257769,17.2366353 6.65438722,17.4842895 C6.94619674,17.7319436 7.25000501,17.9680789 7.56581203,18.1926955 C7.82114536,18.3731566 8.08751754,18.560817 8.36492857,18.7556767 C8.6423396,18.9505363 8.91591103,19.145396 9.18564286,19.3402556 C9.23075815,19.3700125 9.27587343,19.403609 9.32098872,19.4410451 C9.36610401,19.4784812 9.4112193,19.5197569 9.45633459,19.5648722 C9.4112193,19.5802306 9.36994361,19.5989486 9.33250752,19.6210263 C9.29507143,19.643104 9.26147494,19.6618221 9.23171805,19.6771805 C8.87175564,19.8576416 8.51947243,20.0525013 8.17486842,20.2617594 C7.83026441,20.4710175 7.5000589,20.696114 7.18425188,20.9370489 C7.00379073,21.0867932 6.82380952,21.2442168 6.64430827,21.4093195 C6.46480702,21.5744223 6.31458271,21.7544035 6.19363534,21.9492632 C5.98341729,22.2794687 5.84855138,22.620713 5.78903759,22.9729962 C5.72952381,23.3252794 5.7746391,23.6890815 5.92438346,24.0644023 C5.96949875,24.1843897 6.02949248,24.2894987 6.10436466,24.3797293 C6.17923684,24.4699599 6.26178822,24.5525113 6.3520188,24.6273835 C6.38177569,24.6427419 6.41537218,24.6614599 6.45280827,24.6835376 C6.49024436,24.7056153 6.52384085,24.7243333 6.55359774,24.7396917 C6.65822682,24.7550501 6.75949624,24.7699286 6.85740602,24.7843271 C6.95531579,24.7987256 7.04890602,24.8212832 7.13817669,24.852 L7.6781203,24.852 C7.97856892,24.8222431 8.26749875,24.7545702 8.54490977,24.6489812 C8.8223208,24.5433922 9.08869298,24.4085263 9.34402632,24.2443835 C9.73374561,23.9746516 10.0562719,23.6598045 10.3116053,23.2998421 C10.5669386,22.9398797 10.7469198,22.5276028 10.8515489,22.0630113 C10.9417794,21.7328058 10.9868947,21.3992406 10.9868947,21.0623158 C10.9868947,20.725391 10.9345802,20.3918258 10.8299511,20.0616203 C10.8299511,20.0318634 10.8222719,20.0016266 10.8069135,19.9709098 C10.7915551,19.940193 10.7838759,19.9099561 10.7838759,19.8801992 L10.7392406,19.7894887 C10.7392406,19.7894887 10.7243622,19.7520526 10.6946053,19.6771805 C10.9048233,19.557193 11.1112018,19.4372055 11.3137406,19.317218 C11.5162794,19.1972306 11.7226579,19.0849223 11.9328759,18.9802932 L11.9328759,18.9802932 L11.9559135,18.9802932 C11.9405551,19.0254085 11.9256767,19.0666842 11.9112782,19.1041203 C11.8968797,19.1415564 11.8892005,19.1751529 11.8882406,19.2049098 C11.8133684,19.4746416 11.7533747,19.7448534 11.7082594,20.0155451 C11.6631441,20.2862368 11.6482657,20.5636479 11.6636241,20.8477782 C11.693381,21.1482268 11.7495351,21.4371566 11.8320865,21.7145677 C11.9146378,21.9919787 12.0456642,22.2506717 12.2251654,22.4906466 C12.3605113,22.7008647 12.5630501,22.8059737 12.832782,22.8059737 C13.1025138,22.8059737 13.3127318,22.7085439 13.4634361,22.5136842 C13.5239098,22.438812 13.5800639,22.3639398 13.6318985,22.2890677 C13.6837331,22.2141955 13.7250088,22.1393233 13.7557256,22.0644511 C13.8603546,21.8542331 13.9616241,21.644015 14.0595338,21.433797 C14.1574436,21.2235789 14.2510338,21.0133609 14.3403045,20.8031429 C14.3403045,20.7877845 14.3441441,20.7767456 14.3518233,20.7700263 C14.3595025,20.763307 14.3705414,20.744589 14.3849398,20.7138722 C14.3695815,20.8185013 14.3585426,20.9159311 14.3518233,21.0061617 C14.345104,21.0963922 14.3412644,21.1866228 14.3403045,21.2768534 C14.3249461,21.4121992 14.3249461,21.5470652 14.3403045,21.6814511 C14.3556629,21.8158371 14.3858997,21.9435038 14.431015,22.0644511 C14.4761303,22.1853985 14.5361241,22.2828283 14.6109962,22.3567406 C14.6858684,22.4306529 14.7832982,22.4757682 14.9032857,22.4920865 C14.9935163,22.5074449 15.0760677,22.496406 15.1509398,22.4589699 C15.225812,22.4215338 15.293485,22.3802581 15.3539586,22.3351429 C15.4441892,22.2602707 15.5305802,22.1738797 15.6131316,22.0759699 C15.695683,21.9780602 15.7667155,21.8691115 15.8262293,21.7491241 C16.0066905,21.4342769 16.1828321,21.1194298 16.3546541,20.8045827 C16.5264762,20.4897356 16.6877393,20.1748885 16.8384436,19.8600414 C17.0035464,19.5154373 17.1609699,19.1631541 17.3107143,18.8031917 C17.4604586,18.4432293 17.6178822,18.0909461 17.782985,17.7463421 C17.782985,17.7165852 17.7868246,17.6940276 17.7945038,17.6786692 L17.8276203,17.6109962 C17.8573772,17.7607406 17.8909737,17.9032857 17.9284098,18.0386316 C17.9658459,18.1739774 18.0071216,18.3088434 18.0522368,18.4432293 C18.0973521,18.6083321 18.1535063,18.7657556 18.2206992,18.9155 C18.2878922,19.0652444 18.3589248,19.2154687 18.433797,19.3661729 C18.4789123,19.4410451 18.4976303,19.5010388 18.4899511,19.5461541 C18.4822719,19.5912694 18.4558747,19.643584 18.4107594,19.7030977 C18.2005414,19.9584311 17.9941629,20.2094449 17.7916241,20.4561391 C17.5890852,20.7028333 17.390386,20.9466479 17.1955263,21.1875827 C17.150411,21.2480564 17.1052957,21.3042105 17.0601805,21.3560451 C17.0150652,21.4078797 16.9776291,21.4640338 16.9478722,21.5245075 C16.9325138,21.5696228 16.9176353,21.6108985 16.9032368,21.6483346 C16.8888383,21.6857707 16.8739599,21.7270464 16.8586015,21.7721617 C16.8432431,21.8470338 16.8581216,21.921906 16.9032368,21.9967782 C16.9483521,22.0716504 17.0160251,22.1167657 17.1062556,22.1321241 C17.1964862,22.1474825 17.2828772,22.1585213 17.3654286,22.1652406 C17.4479799,22.1719599 17.5266917,22.1681203 17.6015639,22.1537218 C17.8866541,22.1383634 18.1530263,22.0822093 18.4006805,21.9852594 C18.6483346,21.8883095 18.8844699,21.7572832 19.1090865,21.5921805 C19.3941767,21.3819624 19.5890363,21.1309486 19.6936654,20.8391391 C19.7982945,20.5473296 19.8131729,20.2286429 19.7383008,19.8830789 C19.7229424,19.7928484 19.6965451,19.7026178 19.659109,19.6123872 C19.6216729,19.5221566 19.5880764,19.4319261 19.5583195,19.3416955 C19.5429612,19.2965802 19.5391216,19.2591441 19.5468008,19.2293872 C19.5544799,19.1996303 19.5655188,19.1621942 19.5799173,19.1170789 C19.8198922,18.7868734 20.0411491,18.4456291 20.243688,18.0933459 C20.4462268,17.7410627 20.6372469,17.3849398 20.8167481,17.0249774 C20.8167481,17.009619 20.8205877,16.9985802 20.8282669,16.9918609 L20.8613835,16.9587444 C20.9218571,17.259193 21.0005689,17.5591617 21.0975188,17.8586504 C21.1944687,18.1581391 21.325495,18.4432293 21.4905977,18.7139211 C21.4003672,18.7887932 21.3178158,18.8636654 21.2429436,18.9385376 L21.0183271,19.1631541 C20.8532243,19.3436153 20.703,19.5312757 20.5676541,19.7261353 C20.4323083,19.920995 20.3271992,20.131213 20.2523271,20.3567895 C20.2225702,20.4614185 20.2000125,20.562688 20.1846541,20.6605977 C20.1692957,20.7585075 20.1692957,20.8597769 20.1846541,20.964406 C20.2000125,21.1295088 20.2676855,21.2605351 20.3876729,21.357485 C20.5076604,21.4544348 20.6502055,21.4808321 20.8153083,21.4366767 C21.1599123,21.3618045 21.478599,21.2379774 21.7713684,21.0651955 C22.0641378,20.8924135 22.3228308,20.6634774 22.5474474,20.3783872 C22.6971917,20.1835276 22.7835827,19.9771491 22.8066203,19.7592519 C22.8296579,19.5413546 22.8109398,19.3200977 22.7504662,19.0954812 C22.7351078,19.0350075 22.7163897,18.9711742 22.694312,18.9039812 C22.6722343,18.8367882 22.6535163,18.7729549 22.6381579,18.7124812 C22.7130301,18.6827243 22.7955815,18.6524875 22.885812,18.6217707 C22.9760426,18.5910539 23.058594,18.5684962 23.1334662,18.5540977 C23.5836591,18.4494687 24.0300125,18.408193 24.4725263,18.4302707 C24.9150401,18.4523484 25.3537143,18.5459386 25.7885489,18.7110414 C26.0438822,18.8012719 26.2689787,18.9289386 26.4638383,19.0940414 C26.658698,19.2591441 26.8161216,19.461683 26.936109,19.7016579 C27.0858534,20.0021065 27.1232895,20.2910363 27.0484173,20.5684474 C26.9735451,20.8458584 26.7935639,21.0819937 26.5084737,21.2768534 L26.4177632,21.3214887 C26.4177632,21.3214887 26.3875263,21.3440464 26.3270526,21.3891617 C26.3270526,21.4045201 26.323213,21.4232381 26.3155338,21.4453158 C26.3078546,21.4673935 26.304015,21.4861115 26.304015,21.5014699 C26.304015,21.5168283 26.3150539,21.5278672 26.3371316,21.5345865 C26.3592093,21.5413058 26.3779273,21.5451454 26.3932857,21.5461053 C26.4835163,21.5461053 26.5699073,21.5273872 26.6524586,21.4899511 C26.73501,21.452515 26.8137218,21.4035602 26.888594,21.3430865 C27.0690551,21.223099 27.2192794,21.0767143 27.3392669,20.9039323 C27.4592544,20.7311504 27.5269273,20.5324511 27.5422857,20.3078346 C27.5576441,20.2924762 27.5614837,20.284797 27.5538045,20.284797 C27.5461253,20.284797 27.5571642,20.2771178 27.5869211,20.2617594 L27.5869211,19.9694699 C27.5571642,19.9541115 27.5461253,19.9464323 27.5538045,19.9464323 C27.5614837,19.9464323 27.5576441,19.9387531 27.5422857,19.9233947 L27.5653233,19.9233947 L27.5610038,19.9190752 Z M10.0135564,21.1343083 C9.9837995,21.539386 9.88253008,21.9070276 9.70974812,22.2372331 C9.53696617,22.5674386 9.30083083,22.8597281 9.00134211,23.1141015 C8.83623935,23.2638459 8.65625815,23.3915125 8.4613985,23.4971015 C8.26653885,23.6026905 8.0563208,23.6703634 7.83074436,23.7001203 C7.75587218,23.7154787 7.6771604,23.7231579 7.59460902,23.7231579 C7.51205764,23.7231579 7.43334586,23.7082794 7.35847368,23.6785226 C7.23848622,23.6180489 7.15977444,23.5431767 7.12233835,23.453906 C7.08490226,23.3646353 7.06618421,23.2672055 7.06618421,23.1616165 C7.06618421,22.9965138 7.09258145,22.8352506 7.14537594,22.6778271 C7.19817043,22.5204035 7.26200376,22.3740188 7.33687594,22.2386729 C7.44150501,22.0438133 7.56917168,21.8715113 7.71987594,21.7217669 C7.8705802,21.5720226 8.02800376,21.4294774 8.19214662,21.2941316 C8.46187845,21.0839135 8.73544987,20.8852143 9.0128609,20.6980338 C9.29027193,20.5108534 9.57152256,20.3347118 9.85661278,20.169609 C9.87197118,20.169609 9.88301003,20.1657694 9.88972932,20.1580902 L9.90124812,20.1465714 C9.94636341,20.3116742 9.9799599,20.4767769 10.0020376,20.6418797 C10.0241153,20.8069825 10.0279549,20.9720852 10.0135564,21.137188 L10.0135564,21.137188 L10.0135564,21.1343083 Z M14.5346842,17.6469925 C14.5193258,17.7823383 14.4967682,17.9133647 14.4670113,18.0400714 C14.4372544,18.1667782 14.4070175,18.2906053 14.3763008,18.4115526 C14.2409549,18.8463872 14.0945702,19.270183 13.9371466,19.6829398 C13.7797231,20.0956967 13.6107807,20.5118133 13.4303195,20.9312895 C13.3852043,21.0061617 13.340089,21.0771942 13.2949737,21.1443872 C13.2498584,21.2115802 13.2124223,21.2826128 13.1826654,21.357485 L13.1149925,21.4251579 C13.0698772,21.4702732 13.0247619,21.4928308 12.9796466,21.4928308 C12.9345313,21.4928308 12.8970952,21.4553947 12.8673383,21.3805226 C12.8375815,21.3056504 12.8111842,21.2269386 12.7881466,21.1443872 C12.765109,21.0618358 12.746391,20.9754449 12.7319925,20.8852143 C12.7166341,20.840099 12.7089549,20.7877845 12.7089549,20.7282707 L12.7089549,20.5482895 C12.7089549,20.1432118 12.7689486,19.7568521 12.8889361,19.3892105 C13.0089236,19.0215689 13.1740263,18.6654461 13.3842444,18.3208421 C13.4744749,18.1854962 13.5680652,18.0544699 13.665015,17.9277632 C13.7619649,17.8010564 13.885792,17.6921078 14.0364962,17.6009173 C14.0816115,17.5711604 14.1267268,17.5447632 14.1718421,17.5217256 C14.2169574,17.498688 14.2692719,17.4799699 14.3287857,17.4655714 C14.4036579,17.450213 14.459812,17.4578922 14.4972481,17.488609 C14.5346842,17.5193258 14.5457231,17.5716404 14.5303647,17.6455526 L14.5303647,17.6455526 L14.5346842,17.6469925 Z M17.6404398,21.5835414 C17.820901,21.3733233 18.0047218,21.1597456 18.1919023,20.9428083 C18.3790827,20.7258709 18.5629035,20.5122932 18.7433647,20.3020752 C18.7731216,20.5420501 18.6382556,20.8343396 18.3387669,21.1789436 C18.0392782,21.5235476 17.8069825,21.6584135 17.6418797,21.5835414 L17.6418797,21.5835414 L17.6404398,21.5835414 Z M21.172391,20.7066729 C21.1426341,20.7364298 21.105198,20.7589875 21.0600827,20.7743459 C21.0149674,20.7897043 20.9698521,20.8122619 20.9247368,20.8420188 C20.8949799,20.8573772 20.8724223,20.8573772 20.8570639,20.8420188 C20.8417055,20.8266604 20.8340263,20.8041028 20.8340263,20.7743459 L20.8340263,20.6951541 C20.8340263,20.6951541 20.8417055,20.6764361 20.8570639,20.639 C20.9319361,20.3692682 21.0370451,20.121614 21.172391,19.8960376 C21.3077368,19.6704612 21.4800388,19.4679223 21.689297,19.2884211 L21.7123346,19.2884211 C21.8169637,19.5581529 21.8169637,19.8283647 21.7123346,20.0990564 C21.6077055,20.3697481 21.4277243,20.572287 21.172391,20.7066729 L21.172391,20.7066729 L21.172391,20.7066729 Z"/>
</svg>
