<svg xmlns="http://www.w3.org/2000/svg" width="16" height="16" viewBox="0 0 16 16">
  <defs>
    <style>
      .i-color {
        fill: #000;
        fill-rule: evenodd;
      }
    </style>
  </defs>
  <path id="file_type_scss.svg" class="i-color" d="M13.926,2.713C13.5,1.068,10.709.527,8.07,1.444A13.334,13.334,0,0,0,3.577,3.965c-1.453,1.33-1.685,2.487-1.59,2.971C2.325,8.642,4.715,9.757,5.7,10.585v0c-0.29.139-2.41,1.189-2.907,2.263a1.449,1.449,0,0,0,.485,2.054,3.008,3.008,0,0,0,3.21-1.273,3.13,3.13,0,0,0,.32-2.836,3.9,3.9,0,0,1,1.449-.081c1.661,0.19,1.987,1.2,1.924,1.629a1.074,1.074,0,0,1-.527.728c-0.116.071-.152,0.095-0.142,0.147,0.014,0.076.068,0.073,0.167,0.057a1.276,1.276,0,0,0,.9-1.129c0.04-.995-0.935-2.108-2.661-2.079a4.649,4.649,0,0,0-1.481.2l-0.073-.079C5.3,9.073,3.326,8.285,3.41,6.788c0.03-.544.224-1.977,3.79-3.715,2.921-1.424,5.26-1.032,5.664-.164,0.577,1.241-1.25,3.547-4.284,3.879a2.313,2.313,0,0,1-1.916-.475c-0.159-.172-0.183-0.18-0.243-0.147-0.1.053-.035,0.2,0,0.295a1.789,1.789,0,0,0,1.1.843,5.932,5.932,0,0,0,3.556-.344C12.912,6.265,14.348,4.33,13.926,2.713Zm-7.82,8.382a2.322,2.322,0,0,1-.02,1.384q-0.024.07-.052,0.139t-0.061.135a2.586,2.586,0,0,1-.437.624A1.665,1.665,0,0,1,3.887,14c-0.356-.2-0.178-1.03.46-1.689A6.417,6.417,0,0,1,6.02,11.144v0Z" transform="translate(0 -1)"/>
</svg>
