<svg xmlns="http://www.w3.org/2000/svg" width="16" height="16" viewBox="0 0 16 16">
  <defs>
    <style>
      .i-color {
        fill: #000;
        fill-rule: evenodd;
      }
    </style>
  </defs>
  <path id="file_type_settings.svg" class="i-color" d="M15,8.776v-1.6l-1.94-.641L12.61,5.44,13.49,3.6,12.36,2.465l-1.81.912L9.46,2.925,8.77,1H7.17L6.54,2.945,5.43,3.4,3.59,2.515,2.46,3.647,3.37,5.46,2.92,6.552,1,7.234V8.827L2.94,9.468,3.39,10.56,2.51,12.4l1.13,1.132,1.81-.912,1.09,0.451L7.23,15H8.82l0.63-1.944,1.11-.451,1.84,0.882,1.13-1.132L12.61,10.54l0.47-1.092L15,8.756v0.02ZM8,11.011A3.006,3.006,0,1,1,11,8,3,3,0,0,1,8,11.011Z" transform="translate(0 -1)"/>
</svg>
