<svg xmlns="http://www.w3.org/2000/svg" width="16" height="16" viewBox="0 0 16 16">
  <defs>
    <style>
      .i-color {
        fill: #000;
        fill-rule: evenodd;
      }
    </style>
  </defs>
  <path id="file_type_sublime.svg" class="i-color" d="M14.9,10.956s0,0,0-.007S14.9,10.953,14.9,10.956Zm0-.007s0-.009,0-0.013S14.9,10.943,14.9,10.949Zm0-.025h0Zm0,0.012v0Zm0.017,0.237c0.006,0.079.009,0.118,0,0-0.12-1.607-.278-3.211-0.418-4.816Q14.4,5.231,14.3,4.105q-0.05-.6-0.1-1.2a5.229,5.229,0,0,0-.146-1.389A2.068,2.068,0,0,0,12.617,1H3.371s-1.258.018-1.5,0.657A18.038,18.038,0,0,0,1.645,3.8C1.578,4.626,1.5,5.5,1.432,6.32c-0.139,1.593-.272,3.211-0.411,4.8-0.152,1.738.866,1.749,2.4,1.747,2.243,0,4.486.007,6.729,0.008,1.16,0,2.32,0,3.48,0a1.412,1.412,0,0,0,1.1-.3A1.642,1.642,0,0,0,14.915,11.172ZM10.7,8.114A2.36,2.36,0,0,1,9.819,9.68a2.888,2.888,0,0,1-.825.4,4.629,4.629,0,0,1-1.947.024A3.761,3.761,0,0,1,6,9.827a2.043,2.043,0,0,1-.5-0.319,0.763,0.763,0,0,1-.213-0.425,0.5,0.5,0,0,1,.114-0.4A0.8,0.8,0,0,1,5.96,8.407a1.634,1.634,0,0,1,.563.093,7.453,7.453,0,0,0,1.167.341,1.419,1.419,0,0,0,.955-0.152A0.826,0.826,0,0,0,8.931,8.37a1.441,1.441,0,0,0,.1-0.4,0.773,0.773,0,0,0-.7-0.7C7.872,7.115,7.4,6.99,7.2,6.935a2.376,2.376,0,0,1-1.394-1,1.119,1.119,0,0,1-.086-0.627,1.963,1.963,0,0,1,.3-0.828A3,3,0,0,1,8.575,3.7a3.562,3.562,0,0,1,1.019.245,1.165,1.165,0,0,1,.5.328,0.453,0.453,0,0,1,.055.185,0.437,0.437,0,0,1-.239.44,0.591,0.591,0,0,1-.283.1,1.986,1.986,0,0,1-.692-0.119A2.426,2.426,0,0,0,7.97,4.714a0.63,0.63,0,0,0-.7.687,0.5,0.5,0,0,0,.292.3,1.572,1.572,0,0,0,.422.175C8.2,5.942,8.419,6,8.635,6.067a3.536,3.536,0,0,1,1.824,1.016A1.544,1.544,0,0,1,10.7,8.114Zm4.181,2.842a1.746,1.746,0,0,1,.016.216h0C14.9,11.1,14.887,11.007,14.883,10.956ZM15,12.919c0,0.3-.067,1.147-0.09,1.27a0.8,0.8,0,0,1-.366.651A1.226,1.226,0,0,1,13.96,15q-4.638,0-9.276,0c-0.9,0-1.795,0-2.692,0a0.823,0.823,0,0,1-.6-0.248,0.7,0.7,0,0,1-.255-0.469L1,12.919a1.884,1.884,0,0,0,.442.41,2.892,2.892,0,0,0,.761.128c0.1,0,11.457.027,11.8-.019A1.188,1.188,0,0,0,15,12.919Z" transform="translate(0 -1)"/>
</svg>
