<svg xmlns="http://www.w3.org/2000/svg" width="16" height="16" viewBox="0 0 16 16">
  <defs>
    <style>
      .i-color {
        fill: #000;
        fill-rule: evenodd;
      }
    </style>
  </defs>
  <path id="file_type_svg.svg" class="i-color" d="M15,15H1V8.012H1S1,8,1,8a2.05,2.05,0,0,1,2.05-2.05,2.05,2.05,0,0,1,2.9-2.9,2.05,2.05,0,0,1,4.1,0,2.05,2.05,0,1,1,2.9,2.9A2.05,2.05,0,0,1,15,8s0,0.01,0,.014V15Zm-0.94-6.986s0-.008,0-0.012a1.109,1.109,0,0,0-1.894-.784H9.894L11.5,5.611A1.11,1.11,0,1,0,10.39,4.5L8.785,6.106V3.836a1.11,1.11,0,1,0-1.569,0v2.27L5.611,4.5A1.11,1.11,0,1,0,4.5,5.611L6.106,7.216H3.836A1.109,1.109,0,0,0,1.942,8s0,0.008,0,.012H14.058Zm-5.313.459L7.988,12.126,7.231,8.471H6.16l1.293,6.24H8.524l1.292-6.24H8.745Zm2.9,2.585v1.071H12.4v0.757h0a0.757,0.757,0,0,1-1.514,0h0V10.3a0.757,0.757,0,0,1,1.514,0h1.071a1.828,1.828,0,0,0-3.656,0h0v2.585h0a1.828,1.828,0,1,0,3.656,0h0V11.056H11.644Zm-8.6.535h0a1.824,1.824,0,0,0,1.293.535h0a0.757,0.757,0,0,1,.535.222h0a0.757,0.757,0,1,1-1.293.535H2.5a1.828,1.828,0,1,0,3.12-1.292h0a1.819,1.819,0,0,0-1.292-.535h0A0.755,0.755,0,0,1,3.8,10.834h0A0.757,0.757,0,1,1,5.09,10.3H6.16a1.828,1.828,0,1,0-3.12,1.293h0Z" transform="translate(0 -1)"/>
</svg>
