<svg xmlns="http://www.w3.org/2000/svg" width="16" height="16" viewBox="0 0 16 16">
  <defs>
    <style>
      .i-color {
        fill: #000;
        fill-rule: evenodd;
      }
    </style>
  </defs>
  <path id="file_type_swift.svg" class="i-color" d="M9.72,1.994S12.832,3.773,13.646,6.6c0.734,2.553.146,3.771,0.146,3.771a4.462,4.462,0,0,1,.872,1.4A2.415,2.415,0,0,1,14.809,14s-0.048-1.041-1.6-1.257c-1.422-.2-1.939,1.184-4.653,1.117A9.227,9.227,0,0,1,1,9.676C2.327,10.4,4.065,11.523,6.23,11.352s2.617-.838,2.617-0.838a33.484,33.484,0,0,1-6.4-6.7C4.148,5.238,8.364,8.072,8.266,8A37.953,37.953,0,0,1,4.049,3.112s6.325,5.2,6.834,5.167c0.209-.431,1.291-2.662-1.163-6.285h0Z" transform="translate(0 -1)"/>
</svg>
