<svg xmlns="http://www.w3.org/2000/svg" width="16" height="16" viewBox="0 0 16 16">
  <defs>
    <style>
      .i-color {
        fill: #000;
        fill-rule: evenodd;
      }
    </style>
  </defs>
  <path id="file_type_tcl.svg" class="i-color" d="M10.913,3.071a3.228,3.228,0,0,1-.732,1.764l0.368-.025-0.016.04c-0.29.733-.644,1.651-1.022,2.461A5.784,5.784,0,0,1,8.4,9.061l0.464-.119-0.011.043A4.569,4.569,0,0,1,6.9,11.646l0.427,0.19-0.1.011a0.888,0.888,0,0,0-.6.27,1.685,1.685,0,0,0-.329.742V15l-0.7-.949V12.693a0.648,0.648,0,0,0-.273-0.649,2.331,2.331,0,0,0-.77-0.3l-0.1-.026,0.618-.146A2.7,2.7,0,0,1,4.009,9.149l0-.043,0.5,0.276A3.185,3.185,0,0,1,4.6,7.522a13.277,13.277,0,0,1,.9-2.35l0.019-.038L5.825,5.5a2.87,2.87,0,0,1,.642-1.6A10.6,10.6,0,0,1,8.023,2.15l0.026-.025L8.266,2.484A3.423,3.423,0,0,1,10.922,1l0.03,0,0,0.028A8.053,8.053,0,0,1,10.913,3.071ZM8.57,2.633L8.235,3.16l-0.03.048L8.032,2.772A4.928,4.928,0,0,0,6.138,6.136l0,0.051L5.7,5.911C5.161,7.339,4.6,8.425,4.962,9.939l0.011,0.05L4.454,9.782c0,0.009,0,.017.005,0.026a2.279,2.279,0,0,0,1.126,1.466l0.831,0.008C6.21,8.555,7.651,6.147,8.876,3.747L8.834,3.711a13.5,13.5,0,0,0-3.16,6.982c-0.817-1.807-.108-3.136.215-4.331l0.5,0.271A5.169,5.169,0,0,1,7.918,3.255L8.181,3.691A3.735,3.735,0,0,1,10.65,1.437,3.284,3.284,0,0,0,8.57,2.633Z" transform="translate(0 -1)"/>
</svg>
