<svg xmlns="http://www.w3.org/2000/svg" width="16" height="16" viewBox="0 0 16 16">
  <defs>
    <style>
      .i-color {
        fill: #000;
        fill-rule: evenodd;
      }
    </style>
  </defs>
  <path id="file_type_twig.svg" class="i-color" d="M11.334,1A8.867,8.867,0,0,1,8.709,2.568c-10.1,3.337-5.841,9.84-5.7,9.862a5.448,5.448,0,0,1,1.332-1.415C9.193,7.754,10.18,4,10.18,4a13.349,13.349,0,0,1-5.409,7.325A5.718,5.718,0,0,0,2.9,15s0.676-.249.967-0.317a4.649,4.649,0,0,1,.751-1.9C10.653,13.439,12.631,9,12.889,7.447A8.964,8.964,0,0,0,11.334,1Z" transform="translate(1 0)"/>
</svg>
