<svg xmlns="http://www.w3.org/2000/svg" width="16" height="16" viewBox="0 0 16 16">
  <defs>
    <style>
      .i-color {
        fill: #000;
        fill-rule: evenodd;
      }
    </style>
  </defs>
  <path id="file_type_typescript.svg" class="i-color" d="M10.771,11.992a2.282,2.282,0,0,1-1.632-.759v1.29c1.055,0.686,2.87.56,3.5-.264a1.9,1.9,0,0,0,.253-1.889c-0.656-1.321-2.214-1.4-2.668-2.238-0.5-1.351,1.564-1.6,2.557-.685V6.234a2.846,2.846,0,0,0-1.566-.277A1.919,1.919,0,0,0,9.148,7.824c-0.054,1.5,1.663,1.891,2.525,2.586C12.259,10.908,12.217,12.113,10.771,11.992Zm-4.913.862V7.016H3.977V6.051h4.8V7.016H6.9v5.838H5.857ZM14.125,1.875v12.25H1.875V1.875h12.25ZM15,1H1V15H15V1Z" transform="translate(0 -1)"/>
</svg>
